<?xml version="1.0" encoding="utf-8"?>
<svg xmlns="http://www.w3.org/2000/svg" xmlns:xlink="http://www.w3.org/1999/xlink" width="600" height="400" viewBox="0 0 2400 1600">
<defs>
  <clipPath id="clip780">
    <rect x="0" y="0" width="2400" height="1600"/>
  </clipPath>
</defs>
<path clip-path="url(#clip780)" d="M0 1600 L2400 1600 L2400 8.88178e-14 L0 8.88178e-14  Z" fill="#ffffff" fill-rule="evenodd" fill-opacity="1"/>
<defs>
  <clipPath id="clip781">
    <rect x="480" y="0" width="1681" height="1600"/>
  </clipPath>
</defs>
<path clip-path="url(#clip780)" d="M219.519 1423.18 L2352.76 1423.18 L2352.76 123.472 L219.519 123.472  Z" fill="#ffffff" fill-rule="evenodd" fill-opacity="1"/>
<defs>
  <clipPath id="clip782">
    <rect x="219" y="123" width="2134" height="1301"/>
  </clipPath>
</defs>
<polyline clip-path="url(#clip782)" style="stroke:#000000; stroke-linecap:round; stroke-linejoin:round; stroke-width:2; stroke-opacity:0.1; fill:none" points="551.475,1423.18 551.475,123.472 "/>
<polyline clip-path="url(#clip782)" style="stroke:#000000; stroke-linecap:round; stroke-linejoin:round; stroke-width:2; stroke-opacity:0.1; fill:none" points="899.656,1423.18 899.656,123.472 "/>
<polyline clip-path="url(#clip782)" style="stroke:#000000; stroke-linecap:round; stroke-linejoin:round; stroke-width:2; stroke-opacity:0.1; fill:none" points="1247.84,1423.18 1247.84,123.472 "/>
<polyline clip-path="url(#clip782)" style="stroke:#000000; stroke-linecap:round; stroke-linejoin:round; stroke-width:2; stroke-opacity:0.1; fill:none" points="1596.02,1423.18 1596.02,123.472 "/>
<polyline clip-path="url(#clip782)" style="stroke:#000000; stroke-linecap:round; stroke-linejoin:round; stroke-width:2; stroke-opacity:0.1; fill:none" points="1944.2,1423.18 1944.2,123.472 "/>
<polyline clip-path="url(#clip782)" style="stroke:#000000; stroke-linecap:round; stroke-linejoin:round; stroke-width:2; stroke-opacity:0.1; fill:none" points="2292.38,1423.18 2292.38,123.472 "/>
<polyline clip-path="url(#clip782)" style="stroke:#000000; stroke-linecap:round; stroke-linejoin:round; stroke-width:2; stroke-opacity:0.1; fill:none" points="219.519,1197.67 2352.76,1197.67 "/>
<polyline clip-path="url(#clip782)" style="stroke:#000000; stroke-linecap:round; stroke-linejoin:round; stroke-width:2; stroke-opacity:0.1; fill:none" points="219.519,886.867 2352.76,886.867 "/>
<polyline clip-path="url(#clip782)" style="stroke:#000000; stroke-linecap:round; stroke-linejoin:round; stroke-width:2; stroke-opacity:0.1; fill:none" points="219.519,576.066 2352.76,576.066 "/>
<polyline clip-path="url(#clip782)" style="stroke:#000000; stroke-linecap:round; stroke-linejoin:round; stroke-width:2; stroke-opacity:0.1; fill:none" points="219.519,265.266 2352.76,265.266 "/>
<polyline clip-path="url(#clip780)" style="stroke:#000000; stroke-linecap:round; stroke-linejoin:round; stroke-width:4; stroke-opacity:1; fill:none" points="219.519,1423.18 2352.76,1423.18 "/>
<polyline clip-path="url(#clip780)" style="stroke:#000000; stroke-linecap:round; stroke-linejoin:round; stroke-width:4; stroke-opacity:1; fill:none" points="551.475,1423.18 551.475,1404.28 "/>
<polyline clip-path="url(#clip780)" style="stroke:#000000; stroke-linecap:round; stroke-linejoin:round; stroke-width:4; stroke-opacity:1; fill:none" points="899.656,1423.18 899.656,1404.28 "/>
<polyline clip-path="url(#clip780)" style="stroke:#000000; stroke-linecap:round; stroke-linejoin:round; stroke-width:4; stroke-opacity:1; fill:none" points="1247.84,1423.18 1247.84,1404.28 "/>
<polyline clip-path="url(#clip780)" style="stroke:#000000; stroke-linecap:round; stroke-linejoin:round; stroke-width:4; stroke-opacity:1; fill:none" points="1596.02,1423.18 1596.02,1404.28 "/>
<polyline clip-path="url(#clip780)" style="stroke:#000000; stroke-linecap:round; stroke-linejoin:round; stroke-width:4; stroke-opacity:1; fill:none" points="1944.2,1423.18 1944.2,1404.28 "/>
<polyline clip-path="url(#clip780)" style="stroke:#000000; stroke-linecap:round; stroke-linejoin:round; stroke-width:4; stroke-opacity:1; fill:none" points="2292.38,1423.18 2292.38,1404.28 "/>
<path clip-path="url(#clip780)" d="M526.174 1451.02 L544.531 1451.02 L544.531 1454.96 L530.457 1454.96 L530.457 1463.43 Q531.475 1463.08 532.494 1462.92 Q533.512 1462.73 534.531 1462.73 Q540.318 1462.73 543.697 1465.9 Q547.077 1469.08 547.077 1474.49 Q547.077 1480.07 543.605 1483.17 Q540.133 1486.25 533.813 1486.25 Q531.637 1486.25 529.369 1485.88 Q527.123 1485.51 524.716 1484.77 L524.716 1480.07 Q526.799 1481.2 529.021 1481.76 Q531.244 1482.32 533.721 1482.32 Q537.725 1482.32 540.063 1480.21 Q542.401 1478.1 542.401 1474.49 Q542.401 1470.88 540.063 1468.77 Q537.725 1466.67 533.721 1466.67 Q531.846 1466.67 529.971 1467.08 Q528.119 1467.5 526.174 1468.38 L526.174 1451.02 Z" fill="#000000" fill-rule="nonzero" fill-opacity="1" /><path clip-path="url(#clip780)" d="M566.29 1454.1 Q562.679 1454.1 560.85 1457.66 Q559.044 1461.2 559.044 1468.33 Q559.044 1475.44 560.85 1479.01 Q562.679 1482.55 566.29 1482.55 Q569.924 1482.55 571.73 1479.01 Q573.558 1475.44 573.558 1468.33 Q573.558 1461.2 571.73 1457.66 Q569.924 1454.1 566.29 1454.1 M566.29 1450.39 Q572.1 1450.39 575.155 1455 Q578.234 1459.58 578.234 1468.33 Q578.234 1477.06 575.155 1481.67 Q572.1 1486.25 566.29 1486.25 Q560.48 1486.25 557.401 1481.67 Q554.345 1477.06 554.345 1468.33 Q554.345 1459.58 557.401 1455 Q560.48 1450.39 566.29 1450.39 Z" fill="#000000" fill-rule="nonzero" fill-opacity="1" /><path clip-path="url(#clip780)" d="M859.263 1481.64 L866.902 1481.64 L866.902 1455.28 L858.592 1456.95 L858.592 1452.69 L866.856 1451.02 L871.531 1451.02 L871.531 1481.64 L879.17 1481.64 L879.17 1485.58 L859.263 1485.58 L859.263 1481.64 Z" fill="#000000" fill-rule="nonzero" fill-opacity="1" /><path clip-path="url(#clip780)" d="M898.615 1454.1 Q895.004 1454.1 893.175 1457.66 Q891.369 1461.2 891.369 1468.33 Q891.369 1475.44 893.175 1479.01 Q895.004 1482.55 898.615 1482.55 Q902.249 1482.55 904.054 1479.01 Q905.883 1475.44 905.883 1468.33 Q905.883 1461.2 904.054 1457.66 Q902.249 1454.1 898.615 1454.1 M898.615 1450.39 Q904.425 1450.39 907.48 1455 Q910.559 1459.58 910.559 1468.33 Q910.559 1477.06 907.48 1481.67 Q904.425 1486.25 898.615 1486.25 Q892.804 1486.25 889.726 1481.67 Q886.67 1477.06 886.67 1468.33 Q886.67 1459.58 889.726 1455 Q892.804 1450.39 898.615 1450.39 Z" fill="#000000" fill-rule="nonzero" fill-opacity="1" /><path clip-path="url(#clip780)" d="M928.777 1454.1 Q925.165 1454.1 923.337 1457.66 Q921.531 1461.2 921.531 1468.33 Q921.531 1475.44 923.337 1479.01 Q925.165 1482.55 928.777 1482.55 Q932.411 1482.55 934.216 1479.01 Q936.045 1475.44 936.045 1468.33 Q936.045 1461.2 934.216 1457.66 Q932.411 1454.1 928.777 1454.1 M928.777 1450.39 Q934.587 1450.39 937.642 1455 Q940.721 1459.58 940.721 1468.33 Q940.721 1477.06 937.642 1481.67 Q934.587 1486.25 928.777 1486.25 Q922.966 1486.25 919.888 1481.67 Q916.832 1477.06 916.832 1468.33 Q916.832 1459.58 919.888 1455 Q922.966 1450.39 928.777 1450.39 Z" fill="#000000" fill-rule="nonzero" fill-opacity="1" /><path clip-path="url(#clip780)" d="M1207.44 1481.64 L1215.08 1481.64 L1215.08 1455.28 L1206.77 1456.95 L1206.77 1452.69 L1215.04 1451.02 L1219.71 1451.02 L1219.71 1481.64 L1227.35 1481.64 L1227.35 1485.58 L1207.44 1485.58 L1207.44 1481.64 Z" fill="#000000" fill-rule="nonzero" fill-opacity="1" /><path clip-path="url(#clip780)" d="M1236.84 1451.02 L1255.2 1451.02 L1255.2 1454.96 L1241.12 1454.96 L1241.12 1463.43 Q1242.14 1463.08 1243.16 1462.92 Q1244.18 1462.73 1245.2 1462.73 Q1250.99 1462.73 1254.37 1465.9 Q1257.74 1469.08 1257.74 1474.49 Q1257.74 1480.07 1254.27 1483.17 Q1250.8 1486.25 1244.48 1486.25 Q1242.31 1486.25 1240.04 1485.88 Q1237.79 1485.51 1235.38 1484.77 L1235.38 1480.07 Q1237.47 1481.2 1239.69 1481.76 Q1241.91 1482.32 1244.39 1482.32 Q1248.39 1482.32 1250.73 1480.21 Q1253.07 1478.1 1253.07 1474.49 Q1253.07 1470.88 1250.73 1468.77 Q1248.39 1466.67 1244.39 1466.67 Q1242.51 1466.67 1240.64 1467.08 Q1238.79 1467.5 1236.84 1468.38 L1236.84 1451.02 Z" fill="#000000" fill-rule="nonzero" fill-opacity="1" /><path clip-path="url(#clip780)" d="M1276.96 1454.1 Q1273.35 1454.1 1271.52 1457.66 Q1269.71 1461.2 1269.71 1468.33 Q1269.71 1475.44 1271.52 1479.01 Q1273.35 1482.55 1276.96 1482.55 Q1280.59 1482.55 1282.4 1479.01 Q1284.23 1475.44 1284.23 1468.33 Q1284.23 1461.2 1282.4 1457.66 Q1280.59 1454.1 1276.96 1454.1 M1276.96 1450.39 Q1282.77 1450.39 1285.82 1455 Q1288.9 1459.58 1288.9 1468.33 Q1288.9 1477.06 1285.82 1481.67 Q1282.77 1486.25 1276.96 1486.25 Q1271.15 1486.25 1268.07 1481.67 Q1265.01 1477.06 1265.01 1468.33 Q1265.01 1459.58 1268.07 1455 Q1271.15 1450.39 1276.96 1450.39 Z" fill="#000000" fill-rule="nonzero" fill-opacity="1" /><path clip-path="url(#clip780)" d="M1559.71 1481.64 L1576.03 1481.64 L1576.03 1485.58 L1554.09 1485.58 L1554.09 1481.64 Q1556.75 1478.89 1561.33 1474.26 Q1565.94 1469.61 1567.12 1468.27 Q1569.36 1465.74 1570.24 1464.01 Q1571.15 1462.25 1571.15 1460.56 Q1571.15 1457.8 1569.2 1456.07 Q1567.28 1454.33 1564.18 1454.33 Q1561.98 1454.33 1559.53 1455.09 Q1557.1 1455.86 1554.32 1457.41 L1554.32 1452.69 Q1557.14 1451.55 1559.6 1450.97 Q1562.05 1450.39 1564.09 1450.39 Q1569.46 1450.39 1572.65 1453.08 Q1575.85 1455.77 1575.85 1460.26 Q1575.85 1462.39 1575.04 1464.31 Q1574.25 1466.2 1572.14 1468.8 Q1571.56 1469.47 1568.46 1472.69 Q1565.36 1475.88 1559.71 1481.64 Z" fill="#000000" fill-rule="nonzero" fill-opacity="1" /><path clip-path="url(#clip780)" d="M1595.85 1454.1 Q1592.23 1454.1 1590.41 1457.66 Q1588.6 1461.2 1588.6 1468.33 Q1588.6 1475.44 1590.41 1479.01 Q1592.23 1482.55 1595.85 1482.55 Q1599.48 1482.55 1601.28 1479.01 Q1603.11 1475.44 1603.11 1468.33 Q1603.11 1461.2 1601.28 1457.66 Q1599.48 1454.1 1595.85 1454.1 M1595.85 1450.39 Q1601.66 1450.39 1604.71 1455 Q1607.79 1459.58 1607.79 1468.33 Q1607.79 1477.06 1604.71 1481.67 Q1601.66 1486.25 1595.85 1486.25 Q1590.04 1486.25 1586.96 1481.67 Q1583.9 1477.06 1583.9 1468.33 Q1583.9 1459.58 1586.96 1455 Q1590.04 1450.39 1595.85 1450.39 Z" fill="#000000" fill-rule="nonzero" fill-opacity="1" /><path clip-path="url(#clip780)" d="M1626.01 1454.1 Q1622.4 1454.1 1620.57 1457.66 Q1618.76 1461.2 1618.76 1468.33 Q1618.76 1475.44 1620.57 1479.01 Q1622.4 1482.55 1626.01 1482.55 Q1629.64 1482.55 1631.45 1479.01 Q1633.28 1475.44 1633.28 1468.33 Q1633.28 1461.2 1631.45 1457.66 Q1629.64 1454.1 1626.01 1454.1 M1626.01 1450.39 Q1631.82 1450.39 1634.87 1455 Q1637.95 1459.58 1637.95 1468.33 Q1637.95 1477.06 1634.87 1481.67 Q1631.82 1486.25 1626.01 1486.25 Q1620.2 1486.25 1617.12 1481.67 Q1614.06 1477.06 1614.06 1468.33 Q1614.06 1459.58 1617.12 1455 Q1620.2 1450.39 1626.01 1450.39 Z" fill="#000000" fill-rule="nonzero" fill-opacity="1" /><path clip-path="url(#clip780)" d="M1907.89 1481.64 L1924.21 1481.64 L1924.21 1485.58 L1902.27 1485.58 L1902.27 1481.64 Q1904.93 1478.89 1909.51 1474.26 Q1914.12 1469.61 1915.3 1468.27 Q1917.55 1465.74 1918.42 1464.01 Q1919.33 1462.25 1919.33 1460.56 Q1919.33 1457.8 1917.38 1456.07 Q1915.46 1454.33 1912.36 1454.33 Q1910.16 1454.33 1907.71 1455.09 Q1905.28 1455.86 1902.5 1457.41 L1902.5 1452.69 Q1905.32 1451.55 1907.78 1450.97 Q1910.23 1450.39 1912.27 1450.39 Q1917.64 1450.39 1920.83 1453.08 Q1924.03 1455.77 1924.03 1460.26 Q1924.03 1462.39 1923.22 1464.31 Q1922.43 1466.2 1920.32 1468.8 Q1919.74 1469.47 1916.64 1472.69 Q1913.54 1475.88 1907.89 1481.64 Z" fill="#000000" fill-rule="nonzero" fill-opacity="1" /><path clip-path="url(#clip780)" d="M1934.07 1451.02 L1952.43 1451.02 L1952.43 1454.96 L1938.36 1454.96 L1938.36 1463.43 Q1939.37 1463.08 1940.39 1462.92 Q1941.41 1462.73 1942.43 1462.73 Q1948.22 1462.73 1951.6 1465.9 Q1954.98 1469.08 1954.98 1474.49 Q1954.98 1480.07 1951.5 1483.17 Q1948.03 1486.25 1941.71 1486.25 Q1939.54 1486.25 1937.27 1485.88 Q1935.02 1485.51 1932.61 1484.77 L1932.61 1480.07 Q1934.7 1481.2 1936.92 1481.76 Q1939.14 1482.32 1941.62 1482.32 Q1945.62 1482.32 1947.96 1480.21 Q1950.3 1478.1 1950.3 1474.49 Q1950.3 1470.88 1947.96 1468.77 Q1945.62 1466.67 1941.62 1466.67 Q1939.74 1466.67 1937.87 1467.08 Q1936.02 1467.5 1934.07 1468.38 L1934.07 1451.02 Z" fill="#000000" fill-rule="nonzero" fill-opacity="1" /><path clip-path="url(#clip780)" d="M1974.19 1454.1 Q1970.58 1454.1 1968.75 1457.66 Q1966.94 1461.2 1966.94 1468.33 Q1966.94 1475.44 1968.75 1479.01 Q1970.58 1482.55 1974.19 1482.55 Q1977.82 1482.55 1979.63 1479.01 Q1981.46 1475.44 1981.46 1468.33 Q1981.46 1461.2 1979.63 1457.66 Q1977.82 1454.1 1974.19 1454.1 M1974.19 1450.39 Q1980 1450.39 1983.05 1455 Q1986.13 1459.58 1986.13 1468.33 Q1986.13 1477.06 1983.05 1481.67 Q1980 1486.25 1974.19 1486.25 Q1968.38 1486.25 1965.3 1481.67 Q1962.24 1477.06 1962.24 1468.33 Q1962.24 1459.58 1965.3 1455 Q1968.38 1450.39 1974.19 1450.39 Z" fill="#000000" fill-rule="nonzero" fill-opacity="1" /><path clip-path="url(#clip780)" d="M2266.14 1466.95 Q2269.5 1467.66 2271.37 1469.93 Q2273.27 1472.2 2273.27 1475.53 Q2273.27 1480.65 2269.75 1483.45 Q2266.24 1486.25 2259.75 1486.25 Q2257.58 1486.25 2255.26 1485.81 Q2252.97 1485.39 2250.52 1484.54 L2250.52 1480.02 Q2252.46 1481.16 2254.78 1481.74 Q2257.09 1482.32 2259.62 1482.32 Q2264.01 1482.32 2266.31 1480.58 Q2268.62 1478.84 2268.62 1475.53 Q2268.62 1472.48 2266.47 1470.77 Q2264.34 1469.03 2260.52 1469.03 L2256.49 1469.03 L2256.49 1465.19 L2260.7 1465.19 Q2264.15 1465.19 2265.98 1463.82 Q2267.81 1462.43 2267.81 1459.84 Q2267.81 1457.18 2265.91 1455.77 Q2264.04 1454.33 2260.52 1454.33 Q2258.6 1454.33 2256.4 1454.75 Q2254.2 1455.16 2251.56 1456.04 L2251.56 1451.88 Q2254.22 1451.14 2256.54 1450.77 Q2258.87 1450.39 2260.93 1450.39 Q2266.26 1450.39 2269.36 1452.83 Q2272.46 1455.23 2272.46 1459.35 Q2272.46 1462.22 2270.82 1464.21 Q2269.18 1466.18 2266.14 1466.95 Z" fill="#000000" fill-rule="nonzero" fill-opacity="1" /><path clip-path="url(#clip780)" d="M2292.14 1454.1 Q2288.53 1454.1 2286.7 1457.66 Q2284.89 1461.2 2284.89 1468.33 Q2284.89 1475.44 2286.7 1479.01 Q2288.53 1482.55 2292.14 1482.55 Q2295.77 1482.55 2297.58 1479.01 Q2299.41 1475.44 2299.41 1468.33 Q2299.41 1461.2 2297.58 1457.66 Q2295.77 1454.1 2292.14 1454.1 M2292.14 1450.39 Q2297.95 1450.39 2301 1455 Q2304.08 1459.58 2304.08 1468.33 Q2304.08 1477.06 2301 1481.67 Q2297.95 1486.25 2292.14 1486.25 Q2286.33 1486.25 2283.25 1481.67 Q2280.19 1477.06 2280.19 1468.33 Q2280.19 1459.58 2283.25 1455 Q2286.33 1450.39 2292.14 1450.39 Z" fill="#000000" fill-rule="nonzero" fill-opacity="1" /><path clip-path="url(#clip780)" d="M2322.3 1454.1 Q2318.69 1454.1 2316.86 1457.66 Q2315.05 1461.2 2315.05 1468.33 Q2315.05 1475.44 2316.86 1479.01 Q2318.69 1482.55 2322.3 1482.55 Q2325.93 1482.55 2327.74 1479.01 Q2329.57 1475.44 2329.57 1468.33 Q2329.57 1461.2 2327.74 1457.66 Q2325.93 1454.1 2322.3 1454.1 M2322.3 1450.39 Q2328.11 1450.39 2331.17 1455 Q2334.24 1459.58 2334.24 1468.33 Q2334.24 1477.06 2331.17 1481.67 Q2328.11 1486.25 2322.3 1486.25 Q2316.49 1486.25 2313.41 1481.67 Q2310.36 1477.06 2310.36 1468.33 Q2310.36 1459.58 2313.41 1455 Q2316.49 1450.39 2322.3 1450.39 Z" fill="#000000" fill-rule="nonzero" fill-opacity="1" /><path clip-path="url(#clip780)" d="M1287.03 1524.09 L1303.48 1568.04 L1297.28 1568.04 L1287.28 1541.69 L1275 1568.04 L1268.79 1568.04 L1284.42 1533.86 L1282.06 1527.56 Q1280.57 1523.55 1277.16 1523.55 L1274.11 1523.55 L1274.11 1518.52 L1277.83 1518.58 Q1285.02 1518.68 1287.03 1524.09 Z" fill="#000000" fill-rule="nonzero" fill-opacity="1" /><polyline clip-path="url(#clip780)" style="stroke:#000000; stroke-linecap:round; stroke-linejoin:round; stroke-width:4; stroke-opacity:1; fill:none" points="219.519,1423.18 219.519,123.472 "/>
<polyline clip-path="url(#clip780)" style="stroke:#000000; stroke-linecap:round; stroke-linejoin:round; stroke-width:4; stroke-opacity:1; fill:none" points="219.519,1197.67 238.417,1197.67 "/>
<polyline clip-path="url(#clip780)" style="stroke:#000000; stroke-linecap:round; stroke-linejoin:round; stroke-width:4; stroke-opacity:1; fill:none" points="219.519,886.867 238.417,886.867 "/>
<polyline clip-path="url(#clip780)" style="stroke:#000000; stroke-linecap:round; stroke-linejoin:round; stroke-width:4; stroke-opacity:1; fill:none" points="219.519,576.066 238.417,576.066 "/>
<polyline clip-path="url(#clip780)" style="stroke:#000000; stroke-linecap:round; stroke-linejoin:round; stroke-width:4; stroke-opacity:1; fill:none" points="219.519,265.266 238.417,265.266 "/>
<path clip-path="url(#clip780)" d="M116.158 1180.39 L138.38 1180.39 L138.38 1182.38 L125.834 1214.95 L120.95 1214.95 L132.755 1184.32 L116.158 1184.32 L116.158 1180.39 Z" fill="#000000" fill-rule="nonzero" fill-opacity="1" /><path clip-path="url(#clip780)" d="M147.501 1209.07 L152.385 1209.07 L152.385 1214.95 L147.501 1214.95 L147.501 1209.07 Z" fill="#000000" fill-rule="nonzero" fill-opacity="1" /><path clip-path="url(#clip780)" d="M162.616 1180.39 L180.973 1180.39 L180.973 1184.32 L166.899 1184.32 L166.899 1192.79 Q167.917 1192.45 168.936 1192.29 Q169.954 1192.1 170.973 1192.1 Q176.76 1192.1 180.139 1195.27 Q183.519 1198.44 183.519 1203.86 Q183.519 1209.44 180.047 1212.54 Q176.575 1215.62 170.255 1215.62 Q168.079 1215.62 165.811 1215.25 Q163.565 1214.88 161.158 1214.14 L161.158 1209.44 Q163.241 1210.57 165.464 1211.13 Q167.686 1211.68 170.163 1211.68 Q174.167 1211.68 176.505 1209.58 Q178.843 1207.47 178.843 1203.86 Q178.843 1200.25 176.505 1198.14 Q174.167 1196.04 170.163 1196.04 Q168.288 1196.04 166.413 1196.45 Q164.561 1196.87 162.616 1197.75 L162.616 1180.39 Z" fill="#000000" fill-rule="nonzero" fill-opacity="1" /><path clip-path="url(#clip780)" d="M126.343 887.735 Q123.01 887.735 121.089 889.517 Q119.191 891.3 119.191 894.425 Q119.191 897.55 121.089 899.332 Q123.01 901.114 126.343 901.114 Q129.677 901.114 131.598 899.332 Q133.519 897.527 133.519 894.425 Q133.519 891.3 131.598 889.517 Q129.7 887.735 126.343 887.735 M121.668 885.744 Q118.658 885.003 116.968 882.943 Q115.302 880.883 115.302 877.92 Q115.302 873.777 118.242 871.369 Q121.205 868.962 126.343 868.962 Q131.505 868.962 134.445 871.369 Q137.385 873.777 137.385 877.92 Q137.385 880.883 135.695 882.943 Q134.029 885.003 131.042 885.744 Q134.422 886.531 136.297 888.823 Q138.195 891.115 138.195 894.425 Q138.195 899.448 135.117 902.133 Q132.061 904.818 126.343 904.818 Q120.626 904.818 117.547 902.133 Q114.492 899.448 114.492 894.425 Q114.492 891.115 116.39 888.823 Q118.288 886.531 121.668 885.744 M119.955 878.36 Q119.955 881.045 121.621 882.55 Q123.311 884.054 126.343 884.054 Q129.353 884.054 131.042 882.55 Q132.755 881.045 132.755 878.36 Q132.755 875.675 131.042 874.17 Q129.353 872.666 126.343 872.666 Q123.311 872.666 121.621 874.17 Q119.955 875.675 119.955 878.36 Z" fill="#000000" fill-rule="nonzero" fill-opacity="1" /><path clip-path="url(#clip780)" d="M146.505 898.267 L151.39 898.267 L151.39 904.147 L146.505 904.147 L146.505 898.267 Z" fill="#000000" fill-rule="nonzero" fill-opacity="1" /><path clip-path="url(#clip780)" d="M171.575 872.666 Q167.964 872.666 166.135 876.23 Q164.329 879.772 164.329 886.902 Q164.329 894.008 166.135 897.573 Q167.964 901.114 171.575 901.114 Q175.209 901.114 177.014 897.573 Q178.843 894.008 178.843 886.902 Q178.843 879.772 177.014 876.23 Q175.209 872.666 171.575 872.666 M171.575 868.962 Q177.385 868.962 180.44 873.568 Q183.519 878.152 183.519 886.902 Q183.519 895.628 180.44 900.235 Q177.385 904.818 171.575 904.818 Q165.765 904.818 162.686 900.235 Q159.63 895.628 159.63 886.902 Q159.63 878.152 162.686 873.568 Q165.765 868.962 171.575 868.962 Z" fill="#000000" fill-rule="nonzero" fill-opacity="1" /><path clip-path="url(#clip780)" d="M127.339 576.934 Q124.005 576.934 122.084 578.717 Q120.186 580.499 120.186 583.624 Q120.186 586.749 122.084 588.531 Q124.005 590.314 127.339 590.314 Q130.672 590.314 132.593 588.531 Q134.515 586.726 134.515 583.624 Q134.515 580.499 132.593 578.717 Q130.695 576.934 127.339 576.934 M122.663 574.944 Q119.654 574.203 117.964 572.143 Q116.297 570.083 116.297 567.12 Q116.297 562.976 119.237 560.569 Q122.2 558.161 127.339 558.161 Q132.501 558.161 135.441 560.569 Q138.38 562.976 138.38 567.12 Q138.38 570.083 136.691 572.143 Q135.024 574.203 132.038 574.944 Q135.417 575.731 137.292 578.022 Q139.191 580.314 139.191 583.624 Q139.191 588.647 136.112 591.332 Q133.056 594.018 127.339 594.018 Q121.621 594.018 118.543 591.332 Q115.487 588.647 115.487 583.624 Q115.487 580.314 117.385 578.022 Q119.283 575.731 122.663 574.944 M120.95 567.559 Q120.95 570.245 122.617 571.749 Q124.306 573.254 127.339 573.254 Q130.348 573.254 132.038 571.749 Q133.751 570.245 133.751 567.559 Q133.751 564.874 132.038 563.37 Q130.348 561.865 127.339 561.865 Q124.306 561.865 122.617 563.37 Q120.95 564.874 120.95 567.559 Z" fill="#000000" fill-rule="nonzero" fill-opacity="1" /><path clip-path="url(#clip780)" d="M147.501 587.467 L152.385 587.467 L152.385 593.346 L147.501 593.346 L147.501 587.467 Z" fill="#000000" fill-rule="nonzero" fill-opacity="1" /><path clip-path="url(#clip780)" d="M162.616 558.786 L180.973 558.786 L180.973 562.721 L166.899 562.721 L166.899 571.194 Q167.917 570.846 168.936 570.684 Q169.954 570.499 170.973 570.499 Q176.76 570.499 180.139 573.67 Q183.519 576.842 183.519 582.258 Q183.519 587.837 180.047 590.939 Q176.575 594.018 170.255 594.018 Q168.079 594.018 165.811 593.647 Q163.565 593.277 161.158 592.536 L161.158 587.837 Q163.241 588.971 165.464 589.527 Q167.686 590.082 170.163 590.082 Q174.167 590.082 176.505 587.976 Q178.843 585.869 178.843 582.258 Q178.843 578.647 176.505 576.541 Q174.167 574.434 170.163 574.434 Q168.288 574.434 166.413 574.851 Q164.561 575.268 162.616 576.147 L162.616 558.786 Z" fill="#000000" fill-rule="nonzero" fill-opacity="1" /><path clip-path="url(#clip780)" d="M116.482 281.828 L116.482 277.569 Q118.242 278.402 120.047 278.842 Q121.853 279.282 123.589 279.282 Q128.218 279.282 130.649 276.18 Q133.103 273.055 133.45 266.712 Q132.107 268.703 130.047 269.768 Q127.987 270.833 125.487 270.833 Q120.302 270.833 117.269 267.708 Q114.26 264.56 114.26 259.12 Q114.26 253.796 117.408 250.578 Q120.556 247.361 125.788 247.361 Q131.783 247.361 134.931 251.967 Q138.103 256.55 138.103 265.3 Q138.103 273.472 134.214 278.356 Q130.348 283.217 123.797 283.217 Q122.038 283.217 120.232 282.87 Q118.427 282.523 116.482 281.828 M125.788 267.175 Q128.936 267.175 130.765 265.023 Q132.617 262.87 132.617 259.12 Q132.617 255.393 130.765 253.24 Q128.936 251.064 125.788 251.064 Q122.64 251.064 120.788 253.24 Q118.959 255.393 118.959 259.12 Q118.959 262.87 120.788 265.023 Q122.64 267.175 125.788 267.175 Z" fill="#000000" fill-rule="nonzero" fill-opacity="1" /><path clip-path="url(#clip780)" d="M146.505 276.666 L151.39 276.666 L151.39 282.546 L146.505 282.546 L146.505 276.666 Z" fill="#000000" fill-rule="nonzero" fill-opacity="1" /><path clip-path="url(#clip780)" d="M171.575 251.064 Q167.964 251.064 166.135 254.629 Q164.329 258.171 164.329 265.3 Q164.329 272.407 166.135 275.972 Q167.964 279.513 171.575 279.513 Q175.209 279.513 177.014 275.972 Q178.843 272.407 178.843 265.3 Q178.843 258.171 177.014 254.629 Q175.209 251.064 171.575 251.064 M171.575 247.361 Q177.385 247.361 180.44 251.967 Q183.519 256.55 183.519 265.3 Q183.519 274.027 180.44 278.634 Q177.385 283.217 171.575 283.217 Q165.765 283.217 162.686 278.634 Q159.63 274.027 159.63 265.3 Q159.63 256.55 162.686 251.967 Q165.765 247.361 171.575 247.361 Z" fill="#000000" fill-rule="nonzero" fill-opacity="1" /><path clip-path="url(#clip780)" d="M20.8447 920.342 Q20.8447 927.344 26.0645 931.482 Q31.2844 935.588 40.2919 935.588 Q49.2675 935.588 54.4874 931.482 Q59.7073 927.344 59.7073 920.342 Q59.7073 913.34 54.4874 909.266 Q49.2675 905.16 40.2919 905.16 Q31.2844 905.16 26.0645 909.266 Q20.8447 913.34 20.8447 920.342 M15.6248 920.342 Q15.6248 910.348 22.3406 904.364 Q29.0246 898.38 40.2919 898.38 Q51.5274 898.38 58.2432 904.364 Q64.9272 910.348 64.9272 920.342 Q64.9272 930.368 58.2432 936.384 Q51.5592 942.367 40.2919 942.367 Q29.0246 942.367 22.3406 936.384 Q15.6248 930.368 15.6248 920.342 Z" fill="#000000" fill-rule="nonzero" fill-opacity="1" /><path clip-path="url(#clip780)" d="M58.657 882.912 L77.5631 882.912 L77.5631 888.8 L28.3562 888.8 L28.3562 882.912 L33.7671 882.912 Q30.5842 881.066 29.0564 878.265 Q27.4968 875.432 27.4968 871.517 Q27.4968 865.024 32.6531 860.982 Q37.8093 856.908 46.212 856.908 Q54.6147 856.908 59.771 860.982 Q64.9272 865.024 64.9272 871.517 Q64.9272 875.432 63.3994 878.265 Q61.8398 881.066 58.657 882.912 M46.212 862.987 Q39.7508 862.987 36.0905 865.661 Q32.3984 868.302 32.3984 872.949 Q32.3984 877.596 36.0905 880.27 Q39.7508 882.912 46.212 882.912 Q52.6732 882.912 56.3653 880.27 Q60.0256 877.596 60.0256 872.949 Q60.0256 868.302 56.3653 865.661 Q52.6732 862.987 46.212 862.987 Z" fill="#000000" fill-rule="nonzero" fill-opacity="1" /><path clip-path="url(#clip780)" d="M18.2347 841.407 L28.3562 841.407 L28.3562 829.344 L32.9077 829.344 L32.9077 841.407 L52.2594 841.407 Q56.6199 841.407 57.8613 840.23 Q59.1026 839.02 59.1026 835.36 L59.1026 829.344 L64.0042 829.344 L64.0042 835.36 Q64.0042 842.139 61.4897 844.717 Q58.9434 847.295 52.2594 847.295 L32.9077 847.295 L32.9077 851.592 L28.3562 851.592 L28.3562 847.295 L18.2347 847.295 L18.2347 841.407 Z" fill="#000000" fill-rule="nonzero" fill-opacity="1" /><path clip-path="url(#clip780)" d="M28.3562 821.642 L28.3562 815.785 L64.0042 815.785 L64.0042 821.642 L28.3562 821.642 M14.479 821.642 L14.479 815.785 L21.895 815.785 L21.895 821.642 L14.479 821.642 Z" fill="#000000" fill-rule="nonzero" fill-opacity="1" /><path clip-path="url(#clip780)" d="M35.1993 775.777 Q31.2526 773.581 29.3747 770.525 Q27.4968 767.47 27.4968 763.332 Q27.4968 757.762 31.4117 754.738 Q35.2948 751.714 42.4881 751.714 L64.0042 751.714 L64.0042 757.603 L42.679 757.603 Q37.5546 757.603 35.072 759.417 Q32.5894 761.231 32.5894 764.955 Q32.5894 769.507 35.6131 772.148 Q38.6368 774.79 43.8567 774.79 L64.0042 774.79 L64.0042 780.678 L42.679 780.678 Q37.5228 780.678 35.072 782.493 Q32.5894 784.307 32.5894 788.094 Q32.5894 792.582 35.6449 795.224 Q38.6686 797.866 43.8567 797.866 L64.0042 797.866 L64.0042 803.754 L28.3562 803.754 L28.3562 797.866 L33.8944 797.866 Q30.616 795.861 29.0564 793.06 Q27.4968 790.259 27.4968 786.408 Q27.4968 782.524 29.4702 779.819 Q31.4436 777.082 35.1993 775.777 Z" fill="#000000" fill-rule="nonzero" fill-opacity="1" /><path clip-path="url(#clip780)" d="M46.0847 723.833 Q46.0847 730.93 47.7079 733.668 Q49.3312 736.405 53.2461 736.405 Q56.3653 736.405 58.2114 734.368 Q60.0256 732.299 60.0256 728.766 Q60.0256 723.896 56.5881 720.968 Q53.1188 718.008 47.3897 718.008 L46.0847 718.008 L46.0847 723.833 M43.6657 712.152 L64.0042 712.152 L64.0042 718.008 L58.5933 718.008 Q61.8398 720.013 63.3994 723.005 Q64.9272 725.997 64.9272 730.326 Q64.9272 735.8 61.8716 739.047 Q58.7843 742.261 53.6281 742.261 Q47.6125 742.261 44.5569 738.251 Q41.5014 734.209 41.5014 726.22 L41.5014 718.008 L40.9285 718.008 Q36.8862 718.008 34.6901 720.682 Q32.4621 723.323 32.4621 728.129 Q32.4621 731.185 33.1941 734.081 Q33.9262 736.978 35.3903 739.651 L29.9795 739.651 Q28.7381 736.437 28.1334 733.413 Q27.4968 730.389 27.4968 727.525 Q27.4968 719.79 31.5072 715.971 Q35.5176 712.152 43.6657 712.152 Z" fill="#000000" fill-rule="nonzero" fill-opacity="1" /><path clip-path="url(#clip780)" d="M14.479 700.089 L14.479 694.232 L64.0042 694.232 L64.0042 700.089 L14.479 700.089 Z" fill="#000000" fill-rule="nonzero" fill-opacity="1" /><path clip-path="url(#clip780)" d="M57.5111 643.784 Q59.0389 642.638 59.0389 639.201 L59.0389 636.368 L64.0042 636.368 L64.0042 639.901 Q64.0042 645.63 60.9486 648.24 Q57.8294 650.85 51.0818 650.85 L34.2127 650.85 L34.2127 664.218 L28.3562 664.218 L28.3562 631.339 L34.2127 631.339 L34.2127 644.866 L51.4319 644.866 Q56.047 644.866 57.5111 643.784 Z" fill="#000000" fill-rule="nonzero" fill-opacity="1" /><path clip-path="url(#clip780)" d="M42.4562 610.014 Q39.719 611.605 39.719 614.82 Q39.719 618.035 42.4562 619.626 Q45.1935 621.249 50.668 621.249 Q56.1743 621.249 58.9116 619.626 Q61.6488 618.035 61.6488 614.82 Q61.6488 611.605 58.9116 610.014 Q56.1743 608.391 50.668 608.391 Q45.1935 608.391 42.4562 610.014 M36.8862 614.82 Q36.8862 609.695 40.4192 606.99 Q43.9522 604.285 50.668 604.285 Q57.4157 604.285 60.9486 606.99 Q64.4816 609.695 64.4816 614.82 Q64.4816 619.976 60.9486 622.682 Q57.4157 625.387 50.668 625.387 Q43.9522 625.387 40.4192 622.682 Q36.8862 619.976 36.8862 614.82 Z" fill="#000000" fill-rule="nonzero" fill-opacity="1" /><path clip-path="url(#clip780)" d="M981.651 17.6457 Q972.739 17.6457 967.473 24.2892 Q962.247 30.9327 962.247 42.3968 Q962.247 53.8203 967.473 60.4638 Q972.739 67.1073 981.651 67.1073 Q990.563 67.1073 995.748 60.4638 Q1000.97 53.8203 1000.97 42.3968 Q1000.97 30.9327 995.748 24.2892 Q990.563 17.6457 981.651 17.6457 M981.651 11.0023 Q994.371 11.0023 1001.99 19.5497 Q1009.6 28.0566 1009.6 42.3968 Q1009.6 56.6965 1001.99 65.2439 Q994.371 73.7508 981.651 73.7508 Q968.891 73.7508 961.235 65.2439 Q953.619 56.737 953.619 42.3968 Q953.619 28.0566 961.235 19.5497 Q968.891 11.0023 981.651 11.0023 Z" fill="#000000" fill-rule="nonzero" fill-opacity="1" /><path clip-path="url(#clip780)" d="M1029.29 65.7705 L1029.29 89.8329 L1021.8 89.8329 L1021.8 27.2059 L1029.29 27.2059 L1029.29 34.0924 Q1031.64 30.0415 1035.2 28.0971 Q1038.81 26.1121 1043.79 26.1121 Q1052.06 26.1121 1057.2 32.6746 Q1062.39 39.2371 1062.39 49.9314 Q1062.39 60.6258 1057.2 67.1883 Q1052.06 73.7508 1043.79 73.7508 Q1038.81 73.7508 1035.2 71.8063 Q1031.64 69.8214 1029.29 65.7705 M1054.65 49.9314 Q1054.65 41.7081 1051.25 37.0496 Q1047.88 32.3505 1041.97 32.3505 Q1036.05 32.3505 1032.65 37.0496 Q1029.29 41.7081 1029.29 49.9314 Q1029.29 58.1548 1032.65 62.8538 Q1036.05 67.5124 1041.97 67.5124 Q1047.88 67.5124 1051.25 62.8538 Q1054.65 58.1548 1054.65 49.9314 Z" fill="#000000" fill-rule="nonzero" fill-opacity="1" /><path clip-path="url(#clip780)" d="M1082.11 14.324 L1082.11 27.2059 L1097.47 27.2059 L1097.47 32.9987 L1082.11 32.9987 L1082.11 57.6282 Q1082.11 63.1779 1083.61 64.7578 Q1085.15 66.3376 1089.81 66.3376 L1097.47 66.3376 L1097.47 72.576 L1089.81 72.576 Q1081.18 72.576 1077.9 69.3758 Q1074.62 66.1351 1074.62 57.6282 L1074.62 32.9987 L1069.15 32.9987 L1069.15 27.2059 L1074.62 27.2059 L1074.62 14.324 L1082.11 14.324 Z" fill="#000000" fill-rule="nonzero" fill-opacity="1" /><path clip-path="url(#clip780)" d="M1107.27 27.2059 L1114.72 27.2059 L1114.72 72.576 L1107.27 72.576 L1107.27 27.2059 M1107.27 9.54393 L1114.72 9.54393 L1114.72 18.9825 L1107.27 18.9825 L1107.27 9.54393 Z" fill="#000000" fill-rule="nonzero" fill-opacity="1" /><path clip-path="url(#clip780)" d="M1165.64 35.9153 Q1168.44 30.8922 1172.33 28.5022 Q1176.22 26.1121 1181.48 26.1121 Q1188.57 26.1121 1192.42 31.0947 Q1196.27 36.0368 1196.27 45.1919 L1196.27 72.576 L1188.77 72.576 L1188.77 45.4349 Q1188.77 38.913 1186.46 35.7533 Q1184.16 32.5936 1179.42 32.5936 Q1173.62 32.5936 1170.26 36.4419 Q1166.9 40.2903 1166.9 46.9338 L1166.9 72.576 L1159.4 72.576 L1159.4 45.4349 Q1159.4 38.8725 1157.1 35.7533 Q1154.79 32.5936 1149.97 32.5936 Q1144.25 32.5936 1140.89 36.4824 Q1137.53 40.3308 1137.53 46.9338 L1137.53 72.576 L1130.04 72.576 L1130.04 27.2059 L1137.53 27.2059 L1137.53 34.2544 Q1140.08 30.082 1143.65 28.0971 Q1147.21 26.1121 1152.11 26.1121 Q1157.06 26.1121 1160.5 28.6237 Q1163.98 31.1352 1165.64 35.9153 Z" fill="#000000" fill-rule="nonzero" fill-opacity="1" /><path clip-path="url(#clip780)" d="M1231.75 49.7694 Q1222.72 49.7694 1219.24 51.8354 Q1215.75 53.9013 1215.75 58.8839 Q1215.75 62.8538 1218.35 65.2034 Q1220.98 67.5124 1225.48 67.5124 Q1231.67 67.5124 1235.4 63.1374 Q1239.17 58.7219 1239.17 51.4303 L1239.17 49.7694 L1231.75 49.7694 M1246.62 46.6907 L1246.62 72.576 L1239.17 72.576 L1239.17 65.6895 Q1236.62 69.8214 1232.81 71.8063 Q1229 73.7508 1223.49 73.7508 Q1216.52 73.7508 1212.39 69.8619 Q1208.3 65.9325 1208.3 59.3701 Q1208.3 51.7138 1213.4 47.825 Q1218.55 43.9361 1228.72 43.9361 L1239.17 43.9361 L1239.17 43.2069 Q1239.17 38.0623 1235.76 35.2672 Q1232.4 32.4315 1226.29 32.4315 Q1222.4 32.4315 1218.71 33.3632 Q1215.02 34.295 1211.62 36.1584 L1211.62 29.2718 Q1215.71 27.692 1219.56 26.9223 Q1223.41 26.1121 1227.06 26.1121 Q1236.9 26.1121 1241.76 31.2163 Q1246.62 36.3204 1246.62 46.6907 Z" fill="#000000" fill-rule="nonzero" fill-opacity="1" /><path clip-path="url(#clip780)" d="M1261.97 9.54393 L1269.43 9.54393 L1269.43 72.576 L1261.97 72.576 L1261.97 9.54393 Z" fill="#000000" fill-rule="nonzero" fill-opacity="1" /><path clip-path="url(#clip780)" d="M1333.63 64.3122 Q1335.09 66.2566 1339.47 66.2566 L1343.07 66.2566 L1343.07 72.576 L1338.58 72.576 Q1331.28 72.576 1327.96 68.6871 Q1324.64 64.7172 1324.64 56.1293 L1324.64 34.6595 L1307.63 34.6595 L1307.63 27.2059 L1349.47 27.2059 L1349.47 34.6595 L1332.26 34.6595 L1332.26 56.5749 Q1332.26 62.4487 1333.63 64.3122 Z" fill="#000000" fill-rule="nonzero" fill-opacity="1" /><path clip-path="url(#clip780)" d="M1376.61 45.1514 Q1374.59 41.6676 1370.5 41.6676 Q1366.41 41.6676 1364.38 45.1514 Q1362.31 48.6352 1362.31 55.6027 Q1362.31 62.6108 1364.38 66.0946 Q1366.41 69.5783 1370.5 69.5783 Q1374.59 69.5783 1376.61 66.0946 Q1378.68 62.6108 1378.68 55.6027 Q1378.68 48.6352 1376.61 45.1514 M1370.5 38.0623 Q1377.02 38.0623 1380.46 42.5588 Q1383.91 47.0553 1383.91 55.6027 Q1383.91 64.1906 1380.46 68.6871 Q1377.02 73.1836 1370.5 73.1836 Q1363.94 73.1836 1360.49 68.6871 Q1357.05 64.1906 1357.05 55.6027 Q1357.05 47.0553 1360.49 42.5588 Q1363.94 38.0623 1370.5 38.0623 Z" fill="#000000" fill-rule="nonzero" fill-opacity="1" /><path clip-path="url(#clip780)" d="M1396.5 62.2867 L1405.05 62.2867 L1405.05 69.2543 L1398.41 82.2172 L1393.18 82.2172 L1396.5 69.2543 L1396.5 62.2867 Z" fill="#000000" fill-rule="nonzero" fill-opacity="1" /><path clip-path="url(#clip780)" d="M1447.67 12.096 L1458.69 12.096 L1485.5 62.6918 L1485.5 12.096 L1493.44 12.096 L1493.44 72.576 L1482.42 72.576 L1455.61 21.9802 L1455.61 72.576 L1447.67 72.576 L1447.67 12.096 Z" fill="#000000" fill-rule="nonzero" fill-opacity="1" /><path clip-path="url(#clip780)" d="M1510.38 34.9026 L1562.31 34.9026 L1562.31 41.7081 L1510.38 41.7081 L1510.38 34.9026 M1510.38 51.4303 L1562.31 51.4303 L1562.31 58.3168 L1510.38 58.3168 L1510.38 51.4303 Z" fill="#000000" fill-rule="nonzero" fill-opacity="1" /><path clip-path="url(#clip780)" d="M1598.48 39.075 Q1592.97 39.075 1589.73 42.8424 Q1586.53 46.6097 1586.53 53.1722 Q1586.53 59.6941 1589.73 63.502 Q1592.97 67.2693 1598.48 67.2693 Q1603.99 67.2693 1607.19 63.502 Q1610.43 59.6941 1610.43 53.1722 Q1610.43 46.6097 1607.19 42.8424 Q1603.99 39.075 1598.48 39.075 M1614.73 13.4328 L1614.73 20.8865 Q1611.65 19.4281 1608.49 18.6585 Q1605.37 17.8888 1602.29 17.8888 Q1594.19 17.8888 1589.89 23.3575 Q1585.64 28.8262 1585.03 39.8852 Q1587.42 36.3609 1591.03 34.4975 Q1594.63 32.5936 1598.97 32.5936 Q1608.08 32.5936 1613.35 38.1433 Q1618.66 43.6525 1618.66 53.1722 Q1618.66 62.4892 1613.15 68.12 Q1607.64 73.7508 1598.48 73.7508 Q1587.99 73.7508 1582.44 65.73 Q1576.89 57.6687 1576.89 42.3968 Q1576.89 28.0566 1583.7 19.5497 Q1590.5 11.0023 1601.97 11.0023 Q1605.04 11.0023 1608.16 11.6099 Q1611.32 12.2175 1614.73 13.4328 Z" fill="#000000" fill-rule="nonzero" fill-opacity="1" /><polyline clip-path="url(#clip782)" style="stroke:#009af9; stroke-linecap:round; stroke-linejoin:round; stroke-width:8; stroke-opacity:1; fill:none" points="279.894,1386.4 286.857,1357.3 293.821,1332.43 307.748,1288.57 321.675,1246.21 328.639,855.659 335.603,832.79 342.566,812.182 349.53,793.613 356.494,776.819 370.421,1134.28 377.384,731.354 384.348,1113.57 391.312,705.833 398.275,694.342 412.203,673.038 419.166,1070.18 467.912,594.483 488.802,570.72 495.766,563.631 502.73,556.917 509.693,550.554 516.657,544.522 530.584,532.94 551.475,515.937 558.439,510.367 565.402,504.962 572.366,499.766 579.33,494.77 593.257,485.34 600.22,480.889 607.184,476.603 614.148,472.476 621.111,468.5 642.002,457.407 655.929,450.38 676.82,439.992 683.784,436.569 690.748,433.165 704.675,426.44 718.602,420.035 725.566,416.966 732.529,413.982 739.493,411.081 746.457,408.26 753.42,405.516 760.384,402.847 767.347,352.777 774.311,350.152 788.238,345.121 795.202,342.701 802.166,340.339 809.129,338.03 816.093,383.914 830.02,331.393 836.984,329.269 850.911,325.14 871.802,319.222 878.765,317.317 885.729,315.444 892.693,313.603 899.656,311.791 906.62,310.008 913.584,357.504 920.547,306.527 941.438,350.372 948.402,299.883 955.365,298.284 962.329,345.09 969.293,343.342 983.22,292.129 990.183,338.133 997.147,289.19 1004.11,334.69 1018.04,331.269 1025,283.587 1031.97,327.872 1038.93,280.93 1045.89,324.496 1052.86,322.816 1059.82,321.141 1066.78,671.309 1073.75,317.808 1094.64,312.847 1108.57,309.565 1115.53,307.931 1122.49,306.302 1143.38,301.445 1157.31,298.23 1185.16,291.856 1192.13,290.274 1199.09,288.696 1213.02,285.553 1233.91,280.871 1240.87,279.319 1247.84,277.771 1254.8,256.273 1268.73,254.852 1282.66,253.437 1289.62,615.824 1303.55,251.322 1331.4,259.507 1338.36,247.818 1345.33,247.121 1352.29,251.882 1373.18,595.91 1380.15,243.649 1387.11,242.958 1394.07,242.268 1401.04,241.578 1414.96,240.203 1435.86,238.147 1442.82,237.464 1449.78,236.782 1456.75,236.101 1463.71,235.42 1470.67,234.741 1484.6,233.385 1498.53,232.033 1512.46,230.685 1526.38,229.34 1533.35,228.669 1540.31,557.349 1547.27,227.33 1561.2,225.995 1568.16,225.328 1575.13,224.663 1589.06,223.335 1596.02,222.672 1602.98,222.01 1609.95,221.349 1616.91,220.689 1623.87,220.029 1630.84,219.371 1637.8,218.713 1651.73,217.401 1658.69,216.746 1665.66,216.092 1672.62,215.438 1693.51,213.483 1700.47,212.833 1707.44,212.184 1714.4,211.535 1721.36,210.888 1742.25,208.95 1749.22,208.306 1763.15,207.019 1770.11,206.377 1777.07,205.736 1784.04,205.096 1797.96,203.817 1804.93,203.179 1811.89,202.542 1818.85,201.905 1825.82,201.269 1832.78,200.634 1839.75,200 1853.67,198.733 1860.64,198.101 1867.6,197.47 1881.53,196.21 1895.45,194.952 1909.38,193.698 1916.35,193.072 1923.31,192.446 1930.27,191.821 1937.24,191.197 1944.2,190.574 1951.16,468.591 1958.13,189.329 1965.09,188.708 1972.05,188.088 1979.02,187.468 1985.98,186.849 1992.95,186.23 1999.91,185.613 2013.84,184.379 2020.8,183.763 2027.76,183.148 2034.73,182.534 2041.69,181.92 2048.65,181.307 2069.55,179.472 2076.51,178.862 2097.4,177.035 2104.36,176.427 2111.33,175.82 2118.29,175.214 2125.25,174.608 2132.22,174.003 2139.18,173.398 2146.15,172.794 2167.04,170.987 2174,170.385 2187.93,169.185 2194.89,168.585 2201.85,167.986 2208.82,167.388 2215.78,166.79 2229.71,165.597 2236.67,165.001 2243.64,164.406 2257.56,163.217 2264.53,162.624 2278.45,161.439 2285.42,160.847 2292.38,160.256 "/>
</svg>
