<?xml version="1.0" encoding="utf-8"?>
<svg xmlns="http://www.w3.org/2000/svg" xmlns:xlink="http://www.w3.org/1999/xlink" width="600" height="400" viewBox="0 0 2400 1600">
<defs>
  <clipPath id="clip150">
    <rect x="0" y="0" width="2400" height="1600"/>
  </clipPath>
</defs>
<path clip-path="url(#clip150)" d="M0 1600 L2400 1600 L2400 8.88178e-14 L0 8.88178e-14  Z" fill="#ffffff" fill-rule="evenodd" fill-opacity="1"/>
<defs>
  <clipPath id="clip151">
    <rect x="480" y="0" width="1681" height="1600"/>
  </clipPath>
</defs>
<path clip-path="url(#clip150)" d="M219.519 1423.18 L2352.76 1423.18 L2352.76 123.472 L219.519 123.472  Z" fill="#ffffff" fill-rule="evenodd" fill-opacity="1"/>
<defs>
  <clipPath id="clip152">
    <rect x="219" y="123" width="2134" height="1301"/>
  </clipPath>
</defs>
<polyline clip-path="url(#clip152)" style="stroke:#000000; stroke-linecap:round; stroke-linejoin:round; stroke-width:2; stroke-opacity:0.1; fill:none" points="551.475,1423.18 551.475,123.472 "/>
<polyline clip-path="url(#clip152)" style="stroke:#000000; stroke-linecap:round; stroke-linejoin:round; stroke-width:2; stroke-opacity:0.1; fill:none" points="899.656,1423.18 899.656,123.472 "/>
<polyline clip-path="url(#clip152)" style="stroke:#000000; stroke-linecap:round; stroke-linejoin:round; stroke-width:2; stroke-opacity:0.1; fill:none" points="1247.84,1423.18 1247.84,123.472 "/>
<polyline clip-path="url(#clip152)" style="stroke:#000000; stroke-linecap:round; stroke-linejoin:round; stroke-width:2; stroke-opacity:0.1; fill:none" points="1596.02,1423.18 1596.02,123.472 "/>
<polyline clip-path="url(#clip152)" style="stroke:#000000; stroke-linecap:round; stroke-linejoin:round; stroke-width:2; stroke-opacity:0.1; fill:none" points="1944.2,1423.18 1944.2,123.472 "/>
<polyline clip-path="url(#clip152)" style="stroke:#000000; stroke-linecap:round; stroke-linejoin:round; stroke-width:2; stroke-opacity:0.1; fill:none" points="2292.38,1423.18 2292.38,123.472 "/>
<polyline clip-path="url(#clip152)" style="stroke:#000000; stroke-linecap:round; stroke-linejoin:round; stroke-width:2; stroke-opacity:0.1; fill:none" points="219.519,1197.67 2352.76,1197.67 "/>
<polyline clip-path="url(#clip152)" style="stroke:#000000; stroke-linecap:round; stroke-linejoin:round; stroke-width:2; stroke-opacity:0.1; fill:none" points="219.519,886.867 2352.76,886.867 "/>
<polyline clip-path="url(#clip152)" style="stroke:#000000; stroke-linecap:round; stroke-linejoin:round; stroke-width:2; stroke-opacity:0.1; fill:none" points="219.519,576.066 2352.76,576.066 "/>
<polyline clip-path="url(#clip152)" style="stroke:#000000; stroke-linecap:round; stroke-linejoin:round; stroke-width:2; stroke-opacity:0.1; fill:none" points="219.519,265.266 2352.76,265.266 "/>
<polyline clip-path="url(#clip150)" style="stroke:#000000; stroke-linecap:round; stroke-linejoin:round; stroke-width:4; stroke-opacity:1; fill:none" points="219.519,1423.18 2352.76,1423.18 "/>
<polyline clip-path="url(#clip150)" style="stroke:#000000; stroke-linecap:round; stroke-linejoin:round; stroke-width:4; stroke-opacity:1; fill:none" points="551.475,1423.18 551.475,1404.28 "/>
<polyline clip-path="url(#clip150)" style="stroke:#000000; stroke-linecap:round; stroke-linejoin:round; stroke-width:4; stroke-opacity:1; fill:none" points="899.656,1423.18 899.656,1404.28 "/>
<polyline clip-path="url(#clip150)" style="stroke:#000000; stroke-linecap:round; stroke-linejoin:round; stroke-width:4; stroke-opacity:1; fill:none" points="1247.84,1423.18 1247.84,1404.28 "/>
<polyline clip-path="url(#clip150)" style="stroke:#000000; stroke-linecap:round; stroke-linejoin:round; stroke-width:4; stroke-opacity:1; fill:none" points="1596.02,1423.18 1596.02,1404.28 "/>
<polyline clip-path="url(#clip150)" style="stroke:#000000; stroke-linecap:round; stroke-linejoin:round; stroke-width:4; stroke-opacity:1; fill:none" points="1944.2,1423.18 1944.2,1404.28 "/>
<polyline clip-path="url(#clip150)" style="stroke:#000000; stroke-linecap:round; stroke-linejoin:round; stroke-width:4; stroke-opacity:1; fill:none" points="2292.38,1423.18 2292.38,1404.28 "/>
<path clip-path="url(#clip150)" d="M526.174 1451.02 L544.531 1451.02 L544.531 1454.96 L530.457 1454.96 L530.457 1463.43 Q531.475 1463.08 532.494 1462.92 Q533.512 1462.73 534.531 1462.73 Q540.318 1462.73 543.697 1465.9 Q547.077 1469.08 547.077 1474.49 Q547.077 1480.07 543.605 1483.17 Q540.133 1486.25 533.813 1486.25 Q531.637 1486.25 529.369 1485.88 Q527.123 1485.51 524.716 1484.77 L524.716 1480.07 Q526.799 1481.2 529.021 1481.76 Q531.244 1482.32 533.721 1482.32 Q537.725 1482.32 540.063 1480.21 Q542.401 1478.1 542.401 1474.49 Q542.401 1470.88 540.063 1468.77 Q537.725 1466.67 533.721 1466.67 Q531.846 1466.67 529.971 1467.08 Q528.119 1467.5 526.174 1468.38 L526.174 1451.02 Z" fill="#000000" fill-rule="nonzero" fill-opacity="1" /><path clip-path="url(#clip150)" d="M566.29 1454.1 Q562.679 1454.1 560.85 1457.66 Q559.044 1461.2 559.044 1468.33 Q559.044 1475.44 560.85 1479.01 Q562.679 1482.55 566.29 1482.55 Q569.924 1482.55 571.73 1479.01 Q573.558 1475.44 573.558 1468.33 Q573.558 1461.2 571.73 1457.66 Q569.924 1454.1 566.29 1454.1 M566.29 1450.39 Q572.1 1450.39 575.155 1455 Q578.234 1459.58 578.234 1468.33 Q578.234 1477.06 575.155 1481.67 Q572.1 1486.25 566.29 1486.25 Q560.48 1486.25 557.401 1481.67 Q554.345 1477.06 554.345 1468.33 Q554.345 1459.58 557.401 1455 Q560.48 1450.39 566.29 1450.39 Z" fill="#000000" fill-rule="nonzero" fill-opacity="1" /><path clip-path="url(#clip150)" d="M859.263 1481.64 L866.902 1481.64 L866.902 1455.28 L858.592 1456.95 L858.592 1452.69 L866.856 1451.02 L871.531 1451.02 L871.531 1481.64 L879.17 1481.64 L879.17 1485.58 L859.263 1485.58 L859.263 1481.64 Z" fill="#000000" fill-rule="nonzero" fill-opacity="1" /><path clip-path="url(#clip150)" d="M898.615 1454.1 Q895.004 1454.1 893.175 1457.66 Q891.369 1461.2 891.369 1468.33 Q891.369 1475.44 893.175 1479.01 Q895.004 1482.55 898.615 1482.55 Q902.249 1482.55 904.054 1479.01 Q905.883 1475.44 905.883 1468.33 Q905.883 1461.2 904.054 1457.66 Q902.249 1454.1 898.615 1454.1 M898.615 1450.39 Q904.425 1450.39 907.48 1455 Q910.559 1459.58 910.559 1468.33 Q910.559 1477.06 907.48 1481.67 Q904.425 1486.25 898.615 1486.25 Q892.804 1486.25 889.726 1481.67 Q886.67 1477.06 886.67 1468.33 Q886.67 1459.58 889.726 1455 Q892.804 1450.39 898.615 1450.39 Z" fill="#000000" fill-rule="nonzero" fill-opacity="1" /><path clip-path="url(#clip150)" d="M928.777 1454.1 Q925.165 1454.1 923.337 1457.66 Q921.531 1461.2 921.531 1468.33 Q921.531 1475.44 923.337 1479.01 Q925.165 1482.55 928.777 1482.55 Q932.411 1482.55 934.216 1479.01 Q936.045 1475.44 936.045 1468.33 Q936.045 1461.2 934.216 1457.66 Q932.411 1454.1 928.777 1454.1 M928.777 1450.39 Q934.587 1450.39 937.642 1455 Q940.721 1459.58 940.721 1468.33 Q940.721 1477.06 937.642 1481.67 Q934.587 1486.25 928.777 1486.25 Q922.966 1486.25 919.888 1481.67 Q916.832 1477.06 916.832 1468.33 Q916.832 1459.58 919.888 1455 Q922.966 1450.39 928.777 1450.39 Z" fill="#000000" fill-rule="nonzero" fill-opacity="1" /><path clip-path="url(#clip150)" d="M1207.44 1481.64 L1215.08 1481.64 L1215.08 1455.28 L1206.77 1456.95 L1206.77 1452.69 L1215.04 1451.02 L1219.71 1451.02 L1219.71 1481.64 L1227.35 1481.64 L1227.35 1485.58 L1207.44 1485.58 L1207.44 1481.64 Z" fill="#000000" fill-rule="nonzero" fill-opacity="1" /><path clip-path="url(#clip150)" d="M1236.84 1451.02 L1255.2 1451.02 L1255.2 1454.96 L1241.12 1454.96 L1241.12 1463.43 Q1242.14 1463.08 1243.16 1462.92 Q1244.18 1462.73 1245.2 1462.73 Q1250.99 1462.73 1254.37 1465.9 Q1257.74 1469.08 1257.74 1474.49 Q1257.74 1480.07 1254.27 1483.17 Q1250.8 1486.25 1244.48 1486.25 Q1242.31 1486.25 1240.04 1485.88 Q1237.79 1485.51 1235.38 1484.77 L1235.38 1480.07 Q1237.47 1481.2 1239.69 1481.76 Q1241.91 1482.32 1244.39 1482.32 Q1248.39 1482.32 1250.73 1480.21 Q1253.07 1478.1 1253.07 1474.49 Q1253.07 1470.88 1250.73 1468.77 Q1248.39 1466.67 1244.39 1466.67 Q1242.51 1466.67 1240.64 1467.08 Q1238.79 1467.5 1236.84 1468.38 L1236.84 1451.02 Z" fill="#000000" fill-rule="nonzero" fill-opacity="1" /><path clip-path="url(#clip150)" d="M1276.96 1454.1 Q1273.35 1454.1 1271.52 1457.66 Q1269.71 1461.2 1269.71 1468.33 Q1269.71 1475.44 1271.52 1479.01 Q1273.35 1482.55 1276.96 1482.55 Q1280.59 1482.55 1282.4 1479.01 Q1284.23 1475.44 1284.23 1468.33 Q1284.23 1461.2 1282.4 1457.66 Q1280.59 1454.1 1276.96 1454.1 M1276.96 1450.39 Q1282.77 1450.39 1285.82 1455 Q1288.9 1459.58 1288.9 1468.33 Q1288.9 1477.06 1285.82 1481.67 Q1282.77 1486.25 1276.96 1486.25 Q1271.15 1486.25 1268.07 1481.67 Q1265.01 1477.06 1265.01 1468.33 Q1265.01 1459.58 1268.07 1455 Q1271.15 1450.39 1276.96 1450.39 Z" fill="#000000" fill-rule="nonzero" fill-opacity="1" /><path clip-path="url(#clip150)" d="M1559.71 1481.64 L1576.03 1481.64 L1576.03 1485.58 L1554.09 1485.58 L1554.09 1481.64 Q1556.75 1478.89 1561.33 1474.26 Q1565.94 1469.61 1567.12 1468.27 Q1569.36 1465.74 1570.24 1464.01 Q1571.15 1462.25 1571.15 1460.56 Q1571.15 1457.8 1569.2 1456.07 Q1567.28 1454.33 1564.18 1454.33 Q1561.98 1454.33 1559.53 1455.09 Q1557.1 1455.86 1554.32 1457.41 L1554.32 1452.69 Q1557.14 1451.55 1559.6 1450.97 Q1562.05 1450.39 1564.09 1450.39 Q1569.46 1450.39 1572.65 1453.08 Q1575.85 1455.77 1575.85 1460.26 Q1575.85 1462.39 1575.04 1464.31 Q1574.25 1466.2 1572.14 1468.8 Q1571.56 1469.47 1568.46 1472.69 Q1565.36 1475.88 1559.71 1481.64 Z" fill="#000000" fill-rule="nonzero" fill-opacity="1" /><path clip-path="url(#clip150)" d="M1595.85 1454.1 Q1592.23 1454.1 1590.41 1457.66 Q1588.6 1461.2 1588.6 1468.33 Q1588.6 1475.44 1590.41 1479.01 Q1592.23 1482.55 1595.85 1482.55 Q1599.48 1482.55 1601.28 1479.01 Q1603.11 1475.44 1603.11 1468.33 Q1603.11 1461.2 1601.28 1457.66 Q1599.48 1454.1 1595.85 1454.1 M1595.85 1450.39 Q1601.66 1450.39 1604.71 1455 Q1607.79 1459.58 1607.79 1468.33 Q1607.79 1477.06 1604.71 1481.67 Q1601.66 1486.25 1595.85 1486.25 Q1590.04 1486.25 1586.96 1481.67 Q1583.9 1477.06 1583.9 1468.33 Q1583.9 1459.58 1586.96 1455 Q1590.04 1450.39 1595.85 1450.39 Z" fill="#000000" fill-rule="nonzero" fill-opacity="1" /><path clip-path="url(#clip150)" d="M1626.01 1454.1 Q1622.4 1454.1 1620.57 1457.66 Q1618.76 1461.2 1618.76 1468.33 Q1618.76 1475.44 1620.57 1479.01 Q1622.4 1482.55 1626.01 1482.55 Q1629.64 1482.55 1631.45 1479.01 Q1633.28 1475.44 1633.28 1468.33 Q1633.28 1461.2 1631.45 1457.66 Q1629.64 1454.1 1626.01 1454.1 M1626.01 1450.39 Q1631.82 1450.39 1634.87 1455 Q1637.95 1459.58 1637.95 1468.33 Q1637.95 1477.06 1634.87 1481.67 Q1631.82 1486.25 1626.01 1486.25 Q1620.2 1486.25 1617.12 1481.67 Q1614.06 1477.06 1614.06 1468.33 Q1614.06 1459.58 1617.12 1455 Q1620.2 1450.39 1626.01 1450.39 Z" fill="#000000" fill-rule="nonzero" fill-opacity="1" /><path clip-path="url(#clip150)" d="M1907.89 1481.64 L1924.21 1481.64 L1924.21 1485.58 L1902.27 1485.58 L1902.27 1481.64 Q1904.93 1478.89 1909.51 1474.26 Q1914.12 1469.61 1915.3 1468.27 Q1917.55 1465.74 1918.42 1464.01 Q1919.33 1462.25 1919.33 1460.56 Q1919.33 1457.8 1917.38 1456.07 Q1915.46 1454.33 1912.36 1454.33 Q1910.16 1454.33 1907.71 1455.09 Q1905.28 1455.86 1902.5 1457.41 L1902.5 1452.69 Q1905.32 1451.55 1907.78 1450.97 Q1910.23 1450.39 1912.27 1450.39 Q1917.64 1450.39 1920.83 1453.08 Q1924.03 1455.77 1924.03 1460.26 Q1924.03 1462.39 1923.22 1464.31 Q1922.43 1466.2 1920.32 1468.8 Q1919.74 1469.47 1916.64 1472.69 Q1913.54 1475.88 1907.89 1481.64 Z" fill="#000000" fill-rule="nonzero" fill-opacity="1" /><path clip-path="url(#clip150)" d="M1934.07 1451.02 L1952.43 1451.02 L1952.43 1454.96 L1938.36 1454.96 L1938.36 1463.43 Q1939.37 1463.08 1940.39 1462.92 Q1941.41 1462.73 1942.43 1462.73 Q1948.22 1462.73 1951.6 1465.9 Q1954.98 1469.08 1954.98 1474.49 Q1954.98 1480.07 1951.5 1483.17 Q1948.03 1486.25 1941.71 1486.25 Q1939.54 1486.25 1937.27 1485.88 Q1935.02 1485.51 1932.61 1484.77 L1932.61 1480.07 Q1934.7 1481.2 1936.92 1481.76 Q1939.14 1482.32 1941.62 1482.32 Q1945.62 1482.32 1947.96 1480.21 Q1950.3 1478.1 1950.3 1474.49 Q1950.3 1470.88 1947.96 1468.77 Q1945.62 1466.67 1941.62 1466.67 Q1939.74 1466.67 1937.87 1467.08 Q1936.02 1467.5 1934.07 1468.38 L1934.07 1451.02 Z" fill="#000000" fill-rule="nonzero" fill-opacity="1" /><path clip-path="url(#clip150)" d="M1974.19 1454.1 Q1970.58 1454.1 1968.75 1457.66 Q1966.94 1461.2 1966.94 1468.33 Q1966.94 1475.44 1968.75 1479.01 Q1970.58 1482.55 1974.19 1482.55 Q1977.82 1482.55 1979.63 1479.01 Q1981.46 1475.44 1981.46 1468.33 Q1981.46 1461.2 1979.63 1457.66 Q1977.82 1454.1 1974.19 1454.1 M1974.19 1450.39 Q1980 1450.39 1983.05 1455 Q1986.13 1459.58 1986.13 1468.33 Q1986.13 1477.06 1983.05 1481.67 Q1980 1486.25 1974.19 1486.25 Q1968.38 1486.25 1965.3 1481.67 Q1962.24 1477.06 1962.24 1468.33 Q1962.24 1459.58 1965.3 1455 Q1968.38 1450.39 1974.19 1450.39 Z" fill="#000000" fill-rule="nonzero" fill-opacity="1" /><path clip-path="url(#clip150)" d="M2266.14 1466.95 Q2269.5 1467.66 2271.37 1469.93 Q2273.27 1472.2 2273.27 1475.53 Q2273.27 1480.65 2269.75 1483.45 Q2266.24 1486.25 2259.75 1486.25 Q2257.58 1486.25 2255.26 1485.81 Q2252.97 1485.39 2250.52 1484.54 L2250.52 1480.02 Q2252.46 1481.16 2254.78 1481.74 Q2257.09 1482.32 2259.62 1482.32 Q2264.01 1482.32 2266.31 1480.58 Q2268.62 1478.84 2268.62 1475.53 Q2268.62 1472.48 2266.47 1470.77 Q2264.34 1469.03 2260.52 1469.03 L2256.49 1469.03 L2256.49 1465.19 L2260.7 1465.19 Q2264.15 1465.19 2265.98 1463.82 Q2267.81 1462.43 2267.81 1459.84 Q2267.81 1457.18 2265.91 1455.77 Q2264.04 1454.33 2260.52 1454.33 Q2258.6 1454.33 2256.4 1454.75 Q2254.2 1455.16 2251.56 1456.04 L2251.56 1451.88 Q2254.22 1451.14 2256.54 1450.77 Q2258.87 1450.39 2260.93 1450.39 Q2266.26 1450.39 2269.36 1452.83 Q2272.46 1455.23 2272.46 1459.35 Q2272.46 1462.22 2270.82 1464.21 Q2269.18 1466.18 2266.14 1466.95 Z" fill="#000000" fill-rule="nonzero" fill-opacity="1" /><path clip-path="url(#clip150)" d="M2292.14 1454.1 Q2288.53 1454.1 2286.7 1457.66 Q2284.89 1461.2 2284.89 1468.33 Q2284.89 1475.44 2286.7 1479.01 Q2288.53 1482.55 2292.14 1482.55 Q2295.77 1482.55 2297.58 1479.01 Q2299.41 1475.44 2299.41 1468.33 Q2299.41 1461.2 2297.58 1457.66 Q2295.77 1454.1 2292.14 1454.1 M2292.14 1450.39 Q2297.95 1450.39 2301 1455 Q2304.08 1459.58 2304.08 1468.33 Q2304.08 1477.06 2301 1481.67 Q2297.95 1486.25 2292.14 1486.25 Q2286.33 1486.25 2283.25 1481.67 Q2280.19 1477.06 2280.19 1468.33 Q2280.19 1459.58 2283.25 1455 Q2286.33 1450.39 2292.14 1450.39 Z" fill="#000000" fill-rule="nonzero" fill-opacity="1" /><path clip-path="url(#clip150)" d="M2322.3 1454.1 Q2318.69 1454.1 2316.86 1457.66 Q2315.05 1461.2 2315.05 1468.33 Q2315.05 1475.44 2316.86 1479.01 Q2318.69 1482.55 2322.3 1482.55 Q2325.93 1482.55 2327.74 1479.01 Q2329.57 1475.44 2329.57 1468.33 Q2329.57 1461.2 2327.74 1457.66 Q2325.93 1454.1 2322.3 1454.1 M2322.3 1450.39 Q2328.11 1450.39 2331.17 1455 Q2334.24 1459.58 2334.24 1468.33 Q2334.24 1477.06 2331.17 1481.67 Q2328.11 1486.25 2322.3 1486.25 Q2316.49 1486.25 2313.41 1481.67 Q2310.36 1477.06 2310.36 1468.33 Q2310.36 1459.58 2313.41 1455 Q2316.49 1450.39 2322.3 1450.39 Z" fill="#000000" fill-rule="nonzero" fill-opacity="1" /><path clip-path="url(#clip150)" d="M1287.03 1524.09 L1303.48 1568.04 L1297.28 1568.04 L1287.28 1541.69 L1275 1568.04 L1268.79 1568.04 L1284.42 1533.86 L1282.06 1527.56 Q1280.57 1523.55 1277.16 1523.55 L1274.11 1523.55 L1274.11 1518.52 L1277.83 1518.58 Q1285.02 1518.68 1287.03 1524.09 Z" fill="#000000" fill-rule="nonzero" fill-opacity="1" /><polyline clip-path="url(#clip150)" style="stroke:#000000; stroke-linecap:round; stroke-linejoin:round; stroke-width:4; stroke-opacity:1; fill:none" points="219.519,1423.18 219.519,123.472 "/>
<polyline clip-path="url(#clip150)" style="stroke:#000000; stroke-linecap:round; stroke-linejoin:round; stroke-width:4; stroke-opacity:1; fill:none" points="219.519,1197.67 238.417,1197.67 "/>
<polyline clip-path="url(#clip150)" style="stroke:#000000; stroke-linecap:round; stroke-linejoin:round; stroke-width:4; stroke-opacity:1; fill:none" points="219.519,886.867 238.417,886.867 "/>
<polyline clip-path="url(#clip150)" style="stroke:#000000; stroke-linecap:round; stroke-linejoin:round; stroke-width:4; stroke-opacity:1; fill:none" points="219.519,576.066 238.417,576.066 "/>
<polyline clip-path="url(#clip150)" style="stroke:#000000; stroke-linecap:round; stroke-linejoin:round; stroke-width:4; stroke-opacity:1; fill:none" points="219.519,265.266 238.417,265.266 "/>
<path clip-path="url(#clip150)" d="M116.158 1180.39 L138.38 1180.39 L138.38 1182.38 L125.834 1214.95 L120.95 1214.95 L132.755 1184.32 L116.158 1184.32 L116.158 1180.39 Z" fill="#000000" fill-rule="nonzero" fill-opacity="1" /><path clip-path="url(#clip150)" d="M147.501 1209.07 L152.385 1209.07 L152.385 1214.95 L147.501 1214.95 L147.501 1209.07 Z" fill="#000000" fill-rule="nonzero" fill-opacity="1" /><path clip-path="url(#clip150)" d="M162.616 1180.39 L180.973 1180.39 L180.973 1184.32 L166.899 1184.32 L166.899 1192.79 Q167.917 1192.45 168.936 1192.29 Q169.954 1192.1 170.973 1192.1 Q176.76 1192.1 180.139 1195.27 Q183.519 1198.44 183.519 1203.86 Q183.519 1209.44 180.047 1212.54 Q176.575 1215.62 170.255 1215.62 Q168.079 1215.62 165.811 1215.25 Q163.565 1214.88 161.158 1214.14 L161.158 1209.44 Q163.241 1210.57 165.464 1211.13 Q167.686 1211.68 170.163 1211.68 Q174.167 1211.68 176.505 1209.58 Q178.843 1207.47 178.843 1203.86 Q178.843 1200.25 176.505 1198.14 Q174.167 1196.04 170.163 1196.04 Q168.288 1196.04 166.413 1196.45 Q164.561 1196.87 162.616 1197.75 L162.616 1180.39 Z" fill="#000000" fill-rule="nonzero" fill-opacity="1" /><path clip-path="url(#clip150)" d="M126.343 887.735 Q123.01 887.735 121.089 889.517 Q119.191 891.3 119.191 894.425 Q119.191 897.55 121.089 899.332 Q123.01 901.114 126.343 901.114 Q129.677 901.114 131.598 899.332 Q133.519 897.527 133.519 894.425 Q133.519 891.3 131.598 889.517 Q129.7 887.735 126.343 887.735 M121.668 885.744 Q118.658 885.003 116.968 882.943 Q115.302 880.883 115.302 877.92 Q115.302 873.777 118.242 871.369 Q121.205 868.962 126.343 868.962 Q131.505 868.962 134.445 871.369 Q137.385 873.777 137.385 877.92 Q137.385 880.883 135.695 882.943 Q134.029 885.003 131.042 885.744 Q134.422 886.531 136.297 888.823 Q138.195 891.115 138.195 894.425 Q138.195 899.448 135.117 902.133 Q132.061 904.818 126.343 904.818 Q120.626 904.818 117.547 902.133 Q114.492 899.448 114.492 894.425 Q114.492 891.115 116.39 888.823 Q118.288 886.531 121.668 885.744 M119.955 878.36 Q119.955 881.045 121.621 882.55 Q123.311 884.054 126.343 884.054 Q129.353 884.054 131.042 882.55 Q132.755 881.045 132.755 878.36 Q132.755 875.675 131.042 874.17 Q129.353 872.666 126.343 872.666 Q123.311 872.666 121.621 874.17 Q119.955 875.675 119.955 878.36 Z" fill="#000000" fill-rule="nonzero" fill-opacity="1" /><path clip-path="url(#clip150)" d="M146.505 898.267 L151.39 898.267 L151.39 904.147 L146.505 904.147 L146.505 898.267 Z" fill="#000000" fill-rule="nonzero" fill-opacity="1" /><path clip-path="url(#clip150)" d="M171.575 872.666 Q167.964 872.666 166.135 876.23 Q164.329 879.772 164.329 886.902 Q164.329 894.008 166.135 897.573 Q167.964 901.114 171.575 901.114 Q175.209 901.114 177.014 897.573 Q178.843 894.008 178.843 886.902 Q178.843 879.772 177.014 876.23 Q175.209 872.666 171.575 872.666 M171.575 868.962 Q177.385 868.962 180.44 873.568 Q183.519 878.152 183.519 886.902 Q183.519 895.628 180.44 900.235 Q177.385 904.818 171.575 904.818 Q165.765 904.818 162.686 900.235 Q159.63 895.628 159.63 886.902 Q159.63 878.152 162.686 873.568 Q165.765 868.962 171.575 868.962 Z" fill="#000000" fill-rule="nonzero" fill-opacity="1" /><path clip-path="url(#clip150)" d="M127.339 576.934 Q124.005 576.934 122.084 578.717 Q120.186 580.499 120.186 583.624 Q120.186 586.749 122.084 588.531 Q124.005 590.314 127.339 590.314 Q130.672 590.314 132.593 588.531 Q134.515 586.726 134.515 583.624 Q134.515 580.499 132.593 578.717 Q130.695 576.934 127.339 576.934 M122.663 574.944 Q119.654 574.203 117.964 572.143 Q116.297 570.083 116.297 567.12 Q116.297 562.976 119.237 560.569 Q122.2 558.161 127.339 558.161 Q132.501 558.161 135.441 560.569 Q138.38 562.976 138.38 567.12 Q138.38 570.083 136.691 572.143 Q135.024 574.203 132.038 574.944 Q135.417 575.731 137.292 578.022 Q139.191 580.314 139.191 583.624 Q139.191 588.647 136.112 591.332 Q133.056 594.018 127.339 594.018 Q121.621 594.018 118.543 591.332 Q115.487 588.647 115.487 583.624 Q115.487 580.314 117.385 578.022 Q119.283 575.731 122.663 574.944 M120.95 567.559 Q120.95 570.245 122.617 571.749 Q124.306 573.254 127.339 573.254 Q130.348 573.254 132.038 571.749 Q133.751 570.245 133.751 567.559 Q133.751 564.874 132.038 563.37 Q130.348 561.865 127.339 561.865 Q124.306 561.865 122.617 563.37 Q120.95 564.874 120.95 567.559 Z" fill="#000000" fill-rule="nonzero" fill-opacity="1" /><path clip-path="url(#clip150)" d="M147.501 587.467 L152.385 587.467 L152.385 593.346 L147.501 593.346 L147.501 587.467 Z" fill="#000000" fill-rule="nonzero" fill-opacity="1" /><path clip-path="url(#clip150)" d="M162.616 558.786 L180.973 558.786 L180.973 562.721 L166.899 562.721 L166.899 571.194 Q167.917 570.846 168.936 570.684 Q169.954 570.499 170.973 570.499 Q176.76 570.499 180.139 573.67 Q183.519 576.842 183.519 582.258 Q183.519 587.837 180.047 590.939 Q176.575 594.018 170.255 594.018 Q168.079 594.018 165.811 593.647 Q163.565 593.277 161.158 592.536 L161.158 587.837 Q163.241 588.971 165.464 589.527 Q167.686 590.082 170.163 590.082 Q174.167 590.082 176.505 587.976 Q178.843 585.869 178.843 582.258 Q178.843 578.647 176.505 576.541 Q174.167 574.434 170.163 574.434 Q168.288 574.434 166.413 574.851 Q164.561 575.268 162.616 576.147 L162.616 558.786 Z" fill="#000000" fill-rule="nonzero" fill-opacity="1" /><path clip-path="url(#clip150)" d="M116.482 281.828 L116.482 277.569 Q118.242 278.402 120.047 278.842 Q121.853 279.282 123.589 279.282 Q128.218 279.282 130.649 276.18 Q133.103 273.055 133.45 266.712 Q132.107 268.703 130.047 269.768 Q127.987 270.833 125.487 270.833 Q120.302 270.833 117.269 267.708 Q114.26 264.56 114.26 259.12 Q114.26 253.796 117.408 250.578 Q120.556 247.361 125.788 247.361 Q131.783 247.361 134.931 251.967 Q138.103 256.55 138.103 265.3 Q138.103 273.472 134.214 278.356 Q130.348 283.217 123.797 283.217 Q122.038 283.217 120.232 282.87 Q118.427 282.523 116.482 281.828 M125.788 267.175 Q128.936 267.175 130.765 265.023 Q132.617 262.87 132.617 259.12 Q132.617 255.393 130.765 253.24 Q128.936 251.064 125.788 251.064 Q122.64 251.064 120.788 253.24 Q118.959 255.393 118.959 259.12 Q118.959 262.87 120.788 265.023 Q122.64 267.175 125.788 267.175 Z" fill="#000000" fill-rule="nonzero" fill-opacity="1" /><path clip-path="url(#clip150)" d="M146.505 276.666 L151.39 276.666 L151.39 282.546 L146.505 282.546 L146.505 276.666 Z" fill="#000000" fill-rule="nonzero" fill-opacity="1" /><path clip-path="url(#clip150)" d="M171.575 251.064 Q167.964 251.064 166.135 254.629 Q164.329 258.171 164.329 265.3 Q164.329 272.407 166.135 275.972 Q167.964 279.513 171.575 279.513 Q175.209 279.513 177.014 275.972 Q178.843 272.407 178.843 265.3 Q178.843 258.171 177.014 254.629 Q175.209 251.064 171.575 251.064 M171.575 247.361 Q177.385 247.361 180.44 251.967 Q183.519 256.55 183.519 265.3 Q183.519 274.027 180.44 278.634 Q177.385 283.217 171.575 283.217 Q165.765 283.217 162.686 278.634 Q159.63 274.027 159.63 265.3 Q159.63 256.55 162.686 251.967 Q165.765 247.361 171.575 247.361 Z" fill="#000000" fill-rule="nonzero" fill-opacity="1" /><path clip-path="url(#clip150)" d="M16.4842 1061.85 L16.4842 1055.39 L45.3526 1055.39 Q52.9915 1055.39 56.3653 1052.62 Q59.7073 1049.85 59.7073 1043.65 Q59.7073 1037.47 56.3653 1034.7 Q52.9915 1031.93 45.3526 1031.93 L16.4842 1031.93 L16.4842 1025.47 L46.1484 1025.47 Q55.4423 1025.47 60.1847 1030.09 Q64.9272 1034.67 64.9272 1043.65 Q64.9272 1052.65 60.1847 1057.27 Q55.4423 1061.85 46.1484 1061.85 L16.4842 1061.85 Z" fill="#000000" fill-rule="nonzero" fill-opacity="1" /><path clip-path="url(#clip150)" d="M58.657 1008 L77.5631 1008 L77.5631 1013.89 L28.3562 1013.89 L28.3562 1008 L33.7671 1008 Q30.5842 1006.15 29.0564 1003.35 Q27.4968 1000.52 27.4968 996.603 Q27.4968 990.11 32.6531 986.068 Q37.8093 981.994 46.212 981.994 Q54.6147 981.994 59.771 986.068 Q64.9272 990.11 64.9272 996.603 Q64.9272 1000.52 63.3994 1003.35 Q61.8398 1006.15 58.657 1008 M46.212 988.073 Q39.7508 988.073 36.0905 990.747 Q32.3984 993.388 32.3984 998.035 Q32.3984 1002.68 36.0905 1005.36 Q39.7508 1008 46.212 1008 Q52.6732 1008 56.3653 1005.36 Q60.0256 1002.68 60.0256 998.035 Q60.0256 993.388 56.3653 990.747 Q52.6732 988.073 46.212 988.073 Z" fill="#000000" fill-rule="nonzero" fill-opacity="1" /><path clip-path="url(#clip150)" d="M58.657 966.621 L77.5631 966.621 L77.5631 972.509 L28.3562 972.509 L28.3562 966.621 L33.7671 966.621 Q30.5842 964.775 29.0564 961.974 Q27.4968 959.141 27.4968 955.226 Q27.4968 948.733 32.6531 944.691 Q37.8093 940.617 46.212 940.617 Q54.6147 940.617 59.771 944.691 Q64.9272 948.733 64.9272 955.226 Q64.9272 959.141 63.3994 961.974 Q61.8398 964.775 58.657 966.621 M46.212 946.696 Q39.7508 946.696 36.0905 949.37 Q32.3984 952.011 32.3984 956.658 Q32.3984 961.305 36.0905 963.979 Q39.7508 966.621 46.212 966.621 Q52.6732 966.621 56.3653 963.979 Q60.0256 961.305 60.0256 956.658 Q60.0256 952.011 56.3653 949.37 Q52.6732 946.696 46.212 946.696 Z" fill="#000000" fill-rule="nonzero" fill-opacity="1" /><path clip-path="url(#clip150)" d="M44.7161 900.417 L47.5806 900.417 L47.5806 927.344 Q53.6281 926.962 56.8109 923.716 Q59.9619 920.437 59.9619 914.613 Q59.9619 911.239 59.1344 908.088 Q58.3069 904.905 56.6518 901.786 L62.1899 901.786 Q63.5267 904.937 64.227 908.247 Q64.9272 911.557 64.9272 914.963 Q64.9272 923.493 59.9619 928.49 Q54.9967 933.455 46.5303 933.455 Q37.7774 933.455 32.6531 928.745 Q27.4968 924.002 27.4968 915.981 Q27.4968 908.788 32.1438 904.619 Q36.7589 900.417 44.7161 900.417 M42.9973 906.274 Q38.1912 906.337 35.3266 908.979 Q32.4621 911.589 32.4621 915.918 Q32.4621 920.819 35.2312 923.779 Q38.0002 926.708 43.0292 927.153 L42.9973 906.274 Z" fill="#000000" fill-rule="nonzero" fill-opacity="1" /><path clip-path="url(#clip150)" d="M33.8307 870.148 Q33.2578 871.135 33.0032 872.313 Q32.7167 873.459 32.7167 874.859 Q32.7167 879.824 35.9632 882.498 Q39.1779 885.14 45.2253 885.14 L64.0042 885.14 L64.0042 891.028 L28.3562 891.028 L28.3562 885.14 L33.8944 885.14 Q30.6479 883.294 29.0883 880.334 Q27.4968 877.373 27.4968 873.14 Q27.4968 872.536 27.5923 871.803 Q27.656 871.071 27.8151 870.18 L33.8307 870.148 Z" fill="#000000" fill-rule="nonzero" fill-opacity="1" /><path clip-path="url(#clip150)" d="M41.3104 836.601 L58.7206 836.601 L58.7206 826.289 Q58.7206 821.101 56.5881 818.618 Q54.4238 816.104 49.9996 816.104 Q45.5436 816.104 43.4429 818.618 Q41.3104 821.101 41.3104 826.289 L41.3104 836.601 M21.7677 836.601 L36.0905 836.601 L36.0905 827.084 Q36.0905 822.374 34.34 820.082 Q32.5576 817.759 28.9291 817.759 Q25.3325 817.759 23.5501 820.082 Q21.7677 822.374 21.7677 827.084 L21.7677 836.601 M16.4842 843.03 L16.4842 826.607 Q16.4842 819.255 19.5397 815.276 Q22.5952 811.297 28.2289 811.297 Q32.5894 811.297 35.1675 813.334 Q37.7456 815.371 38.3822 819.318 Q39.4007 814.576 42.6472 811.966 Q45.8619 809.324 50.6998 809.324 Q57.0655 809.324 60.5348 813.653 Q64.0042 817.981 64.0042 825.97 L64.0042 843.03 L16.4842 843.03 Z" fill="#000000" fill-rule="nonzero" fill-opacity="1" /><path clip-path="url(#clip150)" d="M32.4621 784.752 Q32.4621 789.463 36.1542 792.2 Q39.8145 794.938 46.212 794.938 Q52.6095 794.938 56.3017 792.232 Q59.9619 789.495 59.9619 784.752 Q59.9619 780.074 56.2698 777.336 Q52.5777 774.599 46.212 774.599 Q39.8781 774.599 36.186 777.336 Q32.4621 780.074 32.4621 784.752 M27.4968 784.752 Q27.4968 777.114 32.4621 772.753 Q37.4273 768.393 46.212 768.393 Q54.9649 768.393 59.9619 772.753 Q64.9272 777.114 64.9272 784.752 Q64.9272 792.423 59.9619 796.784 Q54.9649 801.112 46.212 801.112 Q37.4273 801.112 32.4621 796.784 Q27.4968 792.423 27.4968 784.752 Z" fill="#000000" fill-rule="nonzero" fill-opacity="1" /><path clip-path="url(#clip150)" d="M49.9359 759.29 L28.3562 759.29 L28.3562 753.433 L49.7131 753.433 Q54.7739 753.433 57.3202 751.46 Q59.8346 749.486 59.8346 745.54 Q59.8346 740.797 56.8109 738.06 Q53.7872 735.291 48.5673 735.291 L28.3562 735.291 L28.3562 729.434 L64.0042 729.434 L64.0042 735.291 L58.5296 735.291 Q61.7762 737.423 63.3676 740.256 Q64.9272 743.057 64.9272 746.781 Q64.9272 752.924 61.1078 756.107 Q57.2883 759.29 49.9359 759.29 M27.4968 744.553 L27.4968 744.553 Z" fill="#000000" fill-rule="nonzero" fill-opacity="1" /><path clip-path="url(#clip150)" d="M42.4881 687.739 L64.0042 687.739 L64.0042 693.596 L42.679 693.596 Q37.6183 693.596 35.1038 695.569 Q32.5894 697.542 32.5894 701.489 Q32.5894 706.231 35.6131 708.969 Q38.6368 711.706 43.8567 711.706 L64.0042 711.706 L64.0042 717.594 L28.3562 717.594 L28.3562 711.706 L33.8944 711.706 Q30.6797 709.605 29.0883 706.773 Q27.4968 703.908 27.4968 700.184 Q27.4968 694.041 31.3163 690.89 Q35.1038 687.739 42.4881 687.739 Z" fill="#000000" fill-rule="nonzero" fill-opacity="1" /><path clip-path="url(#clip150)" d="M33.7671 652.6 L14.479 652.6 L14.479 646.744 L64.0042 646.744 L64.0042 652.6 L58.657 652.6 Q61.8398 654.446 63.3994 657.279 Q64.9272 660.08 64.9272 664.027 Q64.9272 670.488 59.771 674.562 Q54.6147 678.604 46.212 678.604 Q37.8093 678.604 32.6531 674.562 Q27.4968 670.488 27.4968 664.027 Q27.4968 660.08 29.0564 657.279 Q30.5842 654.446 33.7671 652.6 M46.212 672.557 Q52.6732 672.557 56.3653 669.915 Q60.0256 667.241 60.0256 662.595 Q60.0256 657.948 56.3653 655.274 Q52.6732 652.6 46.212 652.6 Q39.7508 652.6 36.0905 655.274 Q32.3984 657.948 32.3984 662.595 Q32.3984 667.241 36.0905 669.915 Q39.7508 672.557 46.212 672.557 Z" fill="#000000" fill-rule="nonzero" fill-opacity="1" /><path clip-path="url(#clip150)" d="M32.4621 600.147 Q32.4621 604.858 36.1542 607.595 Q39.8145 610.332 46.212 610.332 Q52.6095 610.332 56.3017 607.627 Q59.9619 604.889 59.9619 600.147 Q59.9619 595.468 56.2698 592.731 Q52.5777 589.994 46.212 589.994 Q39.8781 589.994 36.186 592.731 Q32.4621 595.468 32.4621 600.147 M27.4968 600.147 Q27.4968 592.508 32.4621 588.148 Q37.4273 583.787 46.212 583.787 Q54.9649 583.787 59.9619 588.148 Q64.9272 592.508 64.9272 600.147 Q64.9272 607.818 59.9619 612.178 Q54.9649 616.507 46.212 616.507 Q37.4273 616.507 32.4621 612.178 Q27.4968 607.818 27.4968 600.147 Z" fill="#000000" fill-rule="nonzero" fill-opacity="1" /><path clip-path="url(#clip150)" d="M42.4881 544.447 L64.0042 544.447 L64.0042 550.303 L42.679 550.303 Q37.6183 550.303 35.1038 552.277 Q32.5894 554.25 32.5894 558.197 Q32.5894 562.939 35.6131 565.677 Q38.6368 568.414 43.8567 568.414 L64.0042 568.414 L64.0042 574.302 L28.3562 574.302 L28.3562 568.414 L33.8944 568.414 Q30.6797 566.313 29.0883 563.48 Q27.4968 560.616 27.4968 556.892 Q27.4968 550.749 31.3163 547.598 Q35.1038 544.447 42.4881 544.447 Z" fill="#000000" fill-rule="nonzero" fill-opacity="1" /><path clip-path="url(#clip150)" d="M57.5111 494.572 Q59.0389 493.426 59.0389 489.988 L59.0389 487.156 L64.0042 487.156 L64.0042 490.689 Q64.0042 496.418 60.9486 499.028 Q57.8294 501.638 51.0818 501.638 L34.2127 501.638 L34.2127 515.006 L28.3562 515.006 L28.3562 482.127 L34.2127 482.127 L34.2127 495.654 L51.4319 495.654 Q56.047 495.654 57.5111 494.572 Z" fill="#000000" fill-rule="nonzero" fill-opacity="1" /><path clip-path="url(#clip150)" d="M20.3991 495.431 L18.6485 497.245 Q18.0119 497.946 17.7255 498.455 Q17.4072 498.996 17.4072 499.41 Q17.4072 500.619 18.5848 501.192 Q19.7307 501.765 22.3406 501.829 L22.3406 505.807 Q18.0438 505.744 15.7203 504.12 Q13.365 502.497 13.365 499.601 Q13.365 498.391 13.8106 497.373 Q14.2562 496.354 15.3065 495.176 L17.0571 493.362 Q17.6936 492.662 18.0119 492.121 Q18.2984 491.612 18.2984 491.198 Q18.2984 489.988 17.1526 489.415 Q15.9749 488.843 13.365 488.779 L13.365 484.8 Q17.6618 484.864 20.0171 486.487 Q22.3406 488.11 22.3406 491.007 Q22.3406 492.216 21.895 493.235 Q21.4494 494.253 20.3991 495.431 Z" fill="#000000" fill-rule="nonzero" fill-opacity="1" /><path clip-path="url(#clip150)" d="M786.074 12.096 L794.297 12.096 L794.297 48.8377 Q794.297 58.5599 797.821 62.8538 Q801.346 67.1073 809.245 67.1073 Q817.104 67.1073 820.628 62.8538 Q824.152 58.5599 824.152 48.8377 L824.152 12.096 L832.375 12.096 L832.375 49.8504 Q832.375 61.6791 826.502 67.7149 Q820.668 73.7508 809.245 73.7508 Q797.781 73.7508 791.907 67.7149 Q786.074 61.6791 786.074 49.8504 L786.074 12.096 Z" fill="#000000" fill-rule="nonzero" fill-opacity="1" /><path clip-path="url(#clip150)" d="M854.615 65.7705 L854.615 89.8329 L847.121 89.8329 L847.121 27.2059 L854.615 27.2059 L854.615 34.0924 Q856.964 30.0415 860.529 28.0971 Q864.135 26.1121 869.117 26.1121 Q877.381 26.1121 882.526 32.6746 Q887.711 39.2371 887.711 49.9314 Q887.711 60.6258 882.526 67.1883 Q877.381 73.7508 869.117 73.7508 Q864.135 73.7508 860.529 71.8063 Q856.964 69.8214 854.615 65.7705 M879.974 49.9314 Q879.974 41.7081 876.571 37.0496 Q873.209 32.3505 867.294 32.3505 Q861.38 32.3505 857.977 37.0496 Q854.615 41.7081 854.615 49.9314 Q854.615 58.1548 857.977 62.8538 Q861.38 67.5124 867.294 67.5124 Q873.209 67.5124 876.571 62.8538 Q879.974 58.1548 879.974 49.9314 Z" fill="#000000" fill-rule="nonzero" fill-opacity="1" /><path clip-path="url(#clip150)" d="M907.277 65.7705 L907.277 89.8329 L899.782 89.8329 L899.782 27.2059 L907.277 27.2059 L907.277 34.0924 Q909.626 30.0415 913.191 28.0971 Q916.796 26.1121 921.779 26.1121 Q930.043 26.1121 935.187 32.6746 Q940.373 39.2371 940.373 49.9314 Q940.373 60.6258 935.187 67.1883 Q930.043 73.7508 921.779 73.7508 Q916.796 73.7508 913.191 71.8063 Q909.626 69.8214 907.277 65.7705 M932.635 49.9314 Q932.635 41.7081 929.233 37.0496 Q925.87 32.3505 919.956 32.3505 Q914.042 32.3505 910.639 37.0496 Q907.277 41.7081 907.277 49.9314 Q907.277 58.1548 910.639 62.8538 Q914.042 67.5124 919.956 67.5124 Q925.87 67.5124 929.233 62.8538 Q932.635 58.1548 932.635 49.9314 Z" fill="#000000" fill-rule="nonzero" fill-opacity="1" /><path clip-path="url(#clip150)" d="M991.535 48.0275 L991.535 51.6733 L957.265 51.6733 Q957.751 59.3701 961.883 63.421 Q966.055 67.4314 973.468 67.4314 Q977.762 67.4314 981.773 66.3781 Q985.824 65.3249 989.794 63.2184 L989.794 70.267 Q985.783 71.9684 981.57 72.8596 Q977.357 73.7508 973.023 73.7508 Q962.166 73.7508 955.806 67.4314 Q949.487 61.1119 949.487 50.3365 Q949.487 39.1965 955.482 32.6746 Q961.518 26.1121 971.727 26.1121 Q980.882 26.1121 986.188 32.0264 Q991.535 37.9003 991.535 48.0275 M984.082 45.84 Q984.001 39.7232 980.639 36.0774 Q977.317 32.4315 971.808 32.4315 Q965.569 32.4315 961.802 35.9558 Q958.075 39.4801 957.508 45.8805 L984.082 45.84 Z" fill="#000000" fill-rule="nonzero" fill-opacity="1" /><path clip-path="url(#clip150)" d="M1030.06 34.1734 Q1028.8 33.4443 1027.3 33.1202 Q1025.85 32.7556 1024.06 32.7556 Q1017.74 32.7556 1014.34 36.8875 Q1010.98 40.9789 1010.98 48.6757 L1010.98 72.576 L1003.49 72.576 L1003.49 27.2059 L1010.98 27.2059 L1010.98 34.2544 Q1013.33 30.1225 1017.1 28.1376 Q1020.86 26.1121 1026.25 26.1121 Q1027.02 26.1121 1027.95 26.2337 Q1028.88 26.3147 1030.02 26.5172 L1030.06 34.1734 Z" fill="#000000" fill-rule="nonzero" fill-opacity="1" /><path clip-path="url(#clip150)" d="M1072.76 43.6931 L1072.76 65.8515 L1085.88 65.8515 Q1092.48 65.8515 1095.64 63.1374 Q1098.84 60.3828 1098.84 54.752 Q1098.84 49.0808 1095.64 46.4072 Q1092.48 43.6931 1085.88 43.6931 L1072.76 43.6931 M1072.76 18.8205 L1072.76 37.0496 L1084.87 37.0496 Q1090.86 37.0496 1093.78 34.8216 Q1096.74 32.5531 1096.74 27.935 Q1096.74 23.3575 1093.78 21.089 Q1090.86 18.8205 1084.87 18.8205 L1072.76 18.8205 M1064.57 12.096 L1085.48 12.096 Q1094.83 12.096 1099.9 15.9849 Q1104.96 19.8737 1104.96 27.0438 Q1104.96 32.5936 1102.37 35.8748 Q1099.78 39.156 1094.75 39.9662 Q1100.79 41.2625 1104.11 45.3944 Q1107.47 49.4858 1107.47 55.6432 Q1107.47 63.745 1101.96 68.1605 Q1096.45 72.576 1086.29 72.576 L1064.57 72.576 L1064.57 12.096 Z" fill="#000000" fill-rule="nonzero" fill-opacity="1" /><path clip-path="url(#clip150)" d="M1138.75 32.4315 Q1132.75 32.4315 1129.27 37.1306 Q1125.78 41.7891 1125.78 49.9314 Q1125.78 58.0738 1129.23 62.7728 Q1132.71 67.4314 1138.75 67.4314 Q1144.7 67.4314 1148.18 62.7323 Q1151.67 58.0333 1151.67 49.9314 Q1151.67 41.8701 1148.18 37.1711 Q1144.7 32.4315 1138.75 32.4315 M1138.75 26.1121 Q1148.47 26.1121 1154.02 32.4315 Q1159.57 38.7509 1159.57 49.9314 Q1159.57 61.0714 1154.02 67.4314 Q1148.47 73.7508 1138.75 73.7508 Q1128.98 73.7508 1123.43 67.4314 Q1117.92 61.0714 1117.92 49.9314 Q1117.92 38.7509 1123.43 32.4315 Q1128.98 26.1121 1138.75 26.1121 Z" fill="#000000" fill-rule="nonzero" fill-opacity="1" /><path clip-path="url(#clip150)" d="M1171.15 54.671 L1171.15 27.2059 L1178.61 27.2059 L1178.61 54.3874 Q1178.61 60.8284 1181.12 64.0691 Q1183.63 67.2693 1188.65 67.2693 Q1194.69 67.2693 1198.17 63.421 Q1201.7 59.5726 1201.7 52.9291 L1201.7 27.2059 L1209.15 27.2059 L1209.15 72.576 L1201.7 72.576 L1201.7 65.6084 Q1198.98 69.7404 1195.38 71.7658 Q1191.81 73.7508 1187.07 73.7508 Q1179.25 73.7508 1175.2 68.8897 Q1171.15 64.0286 1171.15 54.671 M1189.91 26.1121 L1189.91 26.1121 Z" fill="#000000" fill-rule="nonzero" fill-opacity="1" /><path clip-path="url(#clip150)" d="M1262.22 45.1919 L1262.22 72.576 L1254.76 72.576 L1254.76 45.4349 Q1254.76 38.994 1252.25 35.7938 Q1249.74 32.5936 1244.72 32.5936 Q1238.68 32.5936 1235.2 36.4419 Q1231.71 40.2903 1231.71 46.9338 L1231.71 72.576 L1224.22 72.576 L1224.22 27.2059 L1231.71 27.2059 L1231.71 34.2544 Q1234.39 30.163 1237.99 28.1376 Q1241.64 26.1121 1246.38 26.1121 Q1254.2 26.1121 1258.21 30.9732 Q1262.22 35.7938 1262.22 45.1919 Z" fill="#000000" fill-rule="nonzero" fill-opacity="1" /><path clip-path="url(#clip150)" d="M1306.94 34.0924 L1306.94 9.54393 L1314.39 9.54393 L1314.39 72.576 L1306.94 72.576 L1306.94 65.7705 Q1304.59 69.8214 1300.98 71.8063 Q1297.42 73.7508 1292.4 73.7508 Q1284.17 73.7508 1278.99 67.1883 Q1273.84 60.6258 1273.84 49.9314 Q1273.84 39.2371 1278.99 32.6746 Q1284.17 26.1121 1292.4 26.1121 Q1297.42 26.1121 1300.98 28.0971 Q1304.59 30.0415 1306.94 34.0924 M1281.54 49.9314 Q1281.54 58.1548 1284.9 62.8538 Q1288.3 67.5124 1294.22 67.5124 Q1300.13 67.5124 1303.54 62.8538 Q1306.94 58.1548 1306.94 49.9314 Q1306.94 41.7081 1303.54 37.0496 Q1300.13 32.3505 1294.22 32.3505 Q1288.3 32.3505 1284.9 37.0496 Q1281.54 41.7081 1281.54 49.9314 Z" fill="#000000" fill-rule="nonzero" fill-opacity="1" /><path clip-path="url(#clip150)" d="M1373.7 32.4315 Q1367.7 32.4315 1364.22 37.1306 Q1360.73 41.7891 1360.73 49.9314 Q1360.73 58.0738 1364.18 62.7728 Q1367.66 67.4314 1373.7 67.4314 Q1379.65 67.4314 1383.14 62.7323 Q1386.62 58.0333 1386.62 49.9314 Q1386.62 41.8701 1383.14 37.1711 Q1379.65 32.4315 1373.7 32.4315 M1373.7 26.1121 Q1383.42 26.1121 1388.97 32.4315 Q1394.52 38.7509 1394.52 49.9314 Q1394.52 61.0714 1388.97 67.4314 Q1383.42 73.7508 1373.7 73.7508 Q1363.94 73.7508 1358.39 67.4314 Q1352.88 61.0714 1352.88 49.9314 Q1352.88 38.7509 1358.39 32.4315 Q1363.94 26.1121 1373.7 26.1121 Z" fill="#000000" fill-rule="nonzero" fill-opacity="1" /><path clip-path="url(#clip150)" d="M1444.59 45.1919 L1444.59 72.576 L1437.13 72.576 L1437.13 45.4349 Q1437.13 38.994 1434.62 35.7938 Q1432.11 32.5936 1427.09 32.5936 Q1421.05 32.5936 1417.57 36.4419 Q1414.09 40.2903 1414.09 46.9338 L1414.09 72.576 L1406.59 72.576 L1406.59 27.2059 L1414.09 27.2059 L1414.09 34.2544 Q1416.76 30.163 1420.36 28.1376 Q1424.01 26.1121 1428.75 26.1121 Q1436.57 26.1121 1440.58 30.9732 Q1444.59 35.7938 1444.59 45.1919 Z" fill="#000000" fill-rule="nonzero" fill-opacity="1" /><path clip-path="url(#clip150)" d="M1508.07 64.3122 Q1509.52 66.2566 1513.9 66.2566 L1517.5 66.2566 L1517.5 72.576 L1513.01 72.576 Q1505.72 72.576 1502.39 68.6871 Q1499.07 64.7172 1499.07 56.1293 L1499.07 34.6595 L1482.06 34.6595 L1482.06 27.2059 L1523.91 27.2059 L1523.91 34.6595 L1506.69 34.6595 L1506.69 56.5749 Q1506.69 62.4487 1508.07 64.3122 Z" fill="#000000" fill-rule="nonzero" fill-opacity="1" /><path clip-path="url(#clip150)" d="M1506.97 17.0786 L1504.66 14.8506 Q1503.77 14.0404 1503.12 13.6759 Q1502.44 13.2708 1501.91 13.2708 Q1500.37 13.2708 1499.64 14.7696 Q1498.91 16.2279 1498.83 19.5497 L1493.77 19.5497 Q1493.85 14.0809 1495.91 11.1238 Q1497.98 8.12611 1501.67 8.12611 Q1503.21 8.12611 1504.5 8.69324 Q1505.8 9.26037 1507.3 10.5972 L1509.61 12.8252 Q1510.5 13.6353 1511.19 14.0404 Q1511.83 14.405 1512.36 14.405 Q1513.9 14.405 1514.63 12.9467 Q1515.36 11.4479 1515.44 8.12611 L1520.5 8.12611 Q1520.42 13.5948 1518.36 16.5925 Q1516.29 19.5497 1512.6 19.5497 Q1511.06 19.5497 1509.77 18.9825 Q1508.47 18.4154 1506.97 17.0786 Z" fill="#000000" fill-rule="nonzero" fill-opacity="1" /><path clip-path="url(#clip150)" d="M1564.05 62.2867 L1572.6 62.2867 L1572.6 69.2543 L1565.95 82.2172 L1560.73 82.2172 L1564.05 69.2543 L1564.05 62.2867 Z" fill="#000000" fill-rule="nonzero" fill-opacity="1" /><path clip-path="url(#clip150)" d="M1615.21 12.096 L1626.23 12.096 L1653.05 62.6918 L1653.05 12.096 L1660.99 12.096 L1660.99 72.576 L1649.97 72.576 L1623.15 21.9802 L1623.15 72.576 L1615.21 72.576 L1615.21 12.096 Z" fill="#000000" fill-rule="nonzero" fill-opacity="1" /><path clip-path="url(#clip150)" d="M1677.92 34.9026 L1729.85 34.9026 L1729.85 41.7081 L1677.92 41.7081 L1677.92 34.9026 M1677.92 51.4303 L1729.85 51.4303 L1729.85 58.3168 L1677.92 58.3168 L1677.92 51.4303 Z" fill="#000000" fill-rule="nonzero" fill-opacity="1" /><path clip-path="url(#clip150)" d="M1766.03 39.075 Q1760.52 39.075 1757.28 42.8424 Q1754.08 46.6097 1754.08 53.1722 Q1754.08 59.6941 1757.28 63.502 Q1760.52 67.2693 1766.03 67.2693 Q1771.54 67.2693 1774.74 63.502 Q1777.98 59.6941 1777.98 53.1722 Q1777.98 46.6097 1774.74 42.8424 Q1771.54 39.075 1766.03 39.075 M1782.27 13.4328 L1782.27 20.8865 Q1779.19 19.4281 1776.03 18.6585 Q1772.91 17.8888 1769.84 17.8888 Q1761.73 17.8888 1757.44 23.3575 Q1753.19 28.8262 1752.58 39.8852 Q1754.97 36.3609 1758.57 34.4975 Q1762.18 32.5936 1766.51 32.5936 Q1775.63 32.5936 1780.89 38.1433 Q1786.2 43.6525 1786.2 53.1722 Q1786.2 62.4892 1780.69 68.12 Q1775.18 73.7508 1766.03 73.7508 Q1755.54 73.7508 1749.99 65.73 Q1744.44 57.6687 1744.44 42.3968 Q1744.44 28.0566 1751.24 19.5497 Q1758.05 11.0023 1769.51 11.0023 Q1772.59 11.0023 1775.71 11.6099 Q1778.87 12.2175 1782.27 13.4328 Z" fill="#000000" fill-rule="nonzero" fill-opacity="1" /><polyline clip-path="url(#clip152)" style="stroke:#009af9; stroke-linecap:round; stroke-linejoin:round; stroke-width:8; stroke-opacity:1; fill:none" points="279.894,1386.4 286.857,1357.3 293.821,1332.43 307.748,1288.57 321.675,1246.21 328.639,855.659 335.603,832.79 342.566,812.182 349.53,793.613 356.494,776.819 370.421,1134.28 377.384,731.354 384.348,1113.57 391.312,705.833 398.275,694.342 412.203,673.038 419.166,1070.18 467.912,594.483 488.802,570.72 495.766,563.631 502.73,556.917 509.693,550.554 516.657,544.522 530.584,532.94 551.475,515.937 558.439,510.367 565.402,504.962 572.366,499.766 579.33,494.77 593.257,485.34 600.22,480.889 607.184,476.603 614.148,472.476 621.111,468.5 642.002,457.407 655.929,450.38 676.82,439.992 683.784,436.569 690.748,433.165 704.675,426.44 718.602,420.035 725.566,416.966 732.529,413.982 739.493,411.081 746.457,408.26 753.42,405.516 760.384,402.847 767.347,352.777 774.311,350.152 788.238,345.121 795.202,342.701 802.166,340.339 809.129,338.03 816.093,383.914 830.02,331.393 836.984,329.269 850.911,325.14 871.802,319.222 878.765,317.317 885.729,315.444 892.693,313.603 899.656,311.791 906.62,310.008 913.584,357.504 920.547,306.527 941.438,350.372 948.402,299.883 955.365,298.284 962.329,345.09 969.293,343.342 983.22,292.129 990.183,338.133 997.147,289.19 1004.11,334.69 1018.04,331.269 1025,283.587 1031.97,327.872 1038.93,280.93 1045.89,324.496 1052.86,322.816 1059.82,321.141 1066.78,671.309 1073.75,317.808 1094.64,312.847 1108.57,309.565 1115.53,307.931 1122.49,306.302 1143.38,301.445 1157.31,298.23 1185.16,291.856 1192.13,290.274 1199.09,288.696 1213.02,285.553 1233.91,280.871 1240.87,279.319 1247.84,277.771 1254.8,256.273 1268.73,254.852 1282.66,253.437 1289.62,615.824 1303.55,251.322 1331.4,259.507 1338.36,247.818 1345.33,247.121 1352.29,251.882 1373.18,595.91 1380.15,243.649 1387.11,242.958 1394.07,242.268 1401.04,241.578 1414.96,240.203 1435.86,238.147 1442.82,237.464 1449.78,236.782 1456.75,236.101 1463.71,235.42 1470.67,234.741 1484.6,233.385 1498.53,232.033 1512.46,230.685 1526.38,229.34 1533.35,228.669 1540.31,557.349 1547.27,227.33 1561.2,225.995 1568.16,225.328 1575.13,224.663 1589.06,223.335 1596.02,222.672 1602.98,222.01 1609.95,221.349 1616.91,220.689 1623.87,220.029 1630.84,219.371 1637.8,218.713 1651.73,217.401 1658.69,216.746 1665.66,216.092 1672.62,215.438 1693.51,213.483 1700.47,212.833 1707.44,212.184 1714.4,211.535 1721.36,210.888 1742.25,208.95 1749.22,208.306 1763.15,207.019 1770.11,206.377 1777.07,205.736 1784.04,205.096 1797.96,203.817 1804.93,203.179 1811.89,202.542 1818.85,201.905 1825.82,201.269 1832.78,200.634 1839.75,200 1853.67,198.733 1860.64,198.101 1867.6,197.47 1881.53,196.21 1895.45,194.952 1909.38,193.698 1916.35,193.072 1923.31,192.446 1930.27,191.821 1937.24,191.197 1944.2,190.574 1951.16,468.591 1958.13,189.329 1965.09,188.708 1972.05,188.088 1979.02,187.468 1985.98,186.849 1992.95,186.23 1999.91,185.613 2013.84,184.379 2020.8,183.763 2027.76,183.148 2034.73,182.534 2041.69,181.92 2048.65,181.307 2069.55,179.472 2076.51,178.862 2097.4,177.035 2104.36,176.427 2111.33,175.82 2118.29,175.214 2125.25,174.608 2132.22,174.003 2139.18,173.398 2146.15,172.794 2167.04,170.987 2174,170.385 2187.93,169.185 2194.89,168.585 2201.85,167.986 2208.82,167.388 2215.78,166.79 2229.71,165.597 2236.67,165.001 2243.64,164.406 2257.56,163.217 2264.53,162.624 2278.45,161.439 2285.42,160.847 2292.38,160.256 "/>
</svg>
