<?xml version="1.0" encoding="utf-8"?>
<svg xmlns="http://www.w3.org/2000/svg" xmlns:xlink="http://www.w3.org/1999/xlink" width="600" height="400" viewBox="0 0 2400 1600">
<defs>
  <clipPath id="clip800">
    <rect x="0" y="0" width="2400" height="1600"/>
  </clipPath>
</defs>
<path clip-path="url(#clip800)" d="M0 1600 L2400 1600 L2400 8.88178e-14 L0 8.88178e-14  Z" fill="#ffffff" fill-rule="evenodd" fill-opacity="1"/>
<defs>
  <clipPath id="clip801">
    <rect x="480" y="0" width="1681" height="1600"/>
  </clipPath>
</defs>
<path clip-path="url(#clip800)" d="M175.445 1423.18 L2352.76 1423.18 L2352.76 123.472 L175.445 123.472  Z" fill="#ffffff" fill-rule="evenodd" fill-opacity="1"/>
<defs>
  <clipPath id="clip802">
    <rect x="175" y="123" width="2178" height="1301"/>
  </clipPath>
</defs>
<polyline clip-path="url(#clip802)" style="stroke:#000000; stroke-linecap:round; stroke-linejoin:round; stroke-width:2; stroke-opacity:0.1; fill:none" points="223.235,1423.18 223.235,123.472 "/>
<polyline clip-path="url(#clip802)" style="stroke:#000000; stroke-linecap:round; stroke-linejoin:round; stroke-width:2; stroke-opacity:0.1; fill:none" points="914.84,1423.18 914.84,123.472 "/>
<polyline clip-path="url(#clip802)" style="stroke:#000000; stroke-linecap:round; stroke-linejoin:round; stroke-width:2; stroke-opacity:0.1; fill:none" points="1606.45,1423.18 1606.45,123.472 "/>
<polyline clip-path="url(#clip802)" style="stroke:#000000; stroke-linecap:round; stroke-linejoin:round; stroke-width:2; stroke-opacity:0.1; fill:none" points="2298.05,1423.18 2298.05,123.472 "/>
<polyline clip-path="url(#clip802)" style="stroke:#000000; stroke-linecap:round; stroke-linejoin:round; stroke-width:2; stroke-opacity:0.1; fill:none" points="175.445,1248.57 2352.76,1248.57 "/>
<polyline clip-path="url(#clip802)" style="stroke:#000000; stroke-linecap:round; stroke-linejoin:round; stroke-width:2; stroke-opacity:0.1; fill:none" points="175.445,1049.93 2352.76,1049.93 "/>
<polyline clip-path="url(#clip802)" style="stroke:#000000; stroke-linecap:round; stroke-linejoin:round; stroke-width:2; stroke-opacity:0.1; fill:none" points="175.445,851.296 2352.76,851.296 "/>
<polyline clip-path="url(#clip802)" style="stroke:#000000; stroke-linecap:round; stroke-linejoin:round; stroke-width:2; stroke-opacity:0.1; fill:none" points="175.445,652.662 2352.76,652.662 "/>
<polyline clip-path="url(#clip802)" style="stroke:#000000; stroke-linecap:round; stroke-linejoin:round; stroke-width:2; stroke-opacity:0.1; fill:none" points="175.445,454.027 2352.76,454.027 "/>
<polyline clip-path="url(#clip802)" style="stroke:#000000; stroke-linecap:round; stroke-linejoin:round; stroke-width:2; stroke-opacity:0.1; fill:none" points="175.445,255.393 2352.76,255.393 "/>
<polyline clip-path="url(#clip800)" style="stroke:#000000; stroke-linecap:round; stroke-linejoin:round; stroke-width:4; stroke-opacity:1; fill:none" points="175.445,1423.18 2352.76,1423.18 "/>
<polyline clip-path="url(#clip800)" style="stroke:#000000; stroke-linecap:round; stroke-linejoin:round; stroke-width:4; stroke-opacity:1; fill:none" points="223.235,1423.18 223.235,1404.28 "/>
<polyline clip-path="url(#clip800)" style="stroke:#000000; stroke-linecap:round; stroke-linejoin:round; stroke-width:4; stroke-opacity:1; fill:none" points="914.84,1423.18 914.84,1404.28 "/>
<polyline clip-path="url(#clip800)" style="stroke:#000000; stroke-linecap:round; stroke-linejoin:round; stroke-width:4; stroke-opacity:1; fill:none" points="1606.45,1423.18 1606.45,1404.28 "/>
<polyline clip-path="url(#clip800)" style="stroke:#000000; stroke-linecap:round; stroke-linejoin:round; stroke-width:4; stroke-opacity:1; fill:none" points="2298.05,1423.18 2298.05,1404.28 "/>
<path clip-path="url(#clip800)" d="M223.235 1454.1 Q219.624 1454.1 217.795 1457.66 Q215.99 1461.2 215.99 1468.33 Q215.99 1475.44 217.795 1479.01 Q219.624 1482.55 223.235 1482.55 Q226.869 1482.55 228.675 1479.01 Q230.504 1475.44 230.504 1468.33 Q230.504 1461.2 228.675 1457.66 Q226.869 1454.1 223.235 1454.1 M223.235 1450.39 Q229.045 1450.39 232.101 1455 Q235.179 1459.58 235.179 1468.33 Q235.179 1477.06 232.101 1481.67 Q229.045 1486.25 223.235 1486.25 Q217.425 1486.25 214.346 1481.67 Q211.291 1477.06 211.291 1468.33 Q211.291 1459.58 214.346 1455 Q217.425 1450.39 223.235 1450.39 Z" fill="#000000" fill-rule="nonzero" fill-opacity="1" /><path clip-path="url(#clip800)" d="M874.447 1481.64 L882.086 1481.64 L882.086 1455.28 L873.775 1456.95 L873.775 1452.69 L882.039 1451.02 L886.715 1451.02 L886.715 1481.64 L894.354 1481.64 L894.354 1485.58 L874.447 1485.58 L874.447 1481.64 Z" fill="#000000" fill-rule="nonzero" fill-opacity="1" /><path clip-path="url(#clip800)" d="M913.798 1454.1 Q910.187 1454.1 908.359 1457.66 Q906.553 1461.2 906.553 1468.33 Q906.553 1475.44 908.359 1479.01 Q910.187 1482.55 913.798 1482.55 Q917.433 1482.55 919.238 1479.01 Q921.067 1475.44 921.067 1468.33 Q921.067 1461.2 919.238 1457.66 Q917.433 1454.1 913.798 1454.1 M913.798 1450.39 Q919.609 1450.39 922.664 1455 Q925.743 1459.58 925.743 1468.33 Q925.743 1477.06 922.664 1481.67 Q919.609 1486.25 913.798 1486.25 Q907.988 1486.25 904.91 1481.67 Q901.854 1477.06 901.854 1468.33 Q901.854 1459.58 904.91 1455 Q907.988 1450.39 913.798 1450.39 Z" fill="#000000" fill-rule="nonzero" fill-opacity="1" /><path clip-path="url(#clip800)" d="M943.96 1454.1 Q940.349 1454.1 938.52 1457.66 Q936.715 1461.2 936.715 1468.33 Q936.715 1475.44 938.52 1479.01 Q940.349 1482.55 943.96 1482.55 Q947.595 1482.55 949.4 1479.01 Q951.229 1475.44 951.229 1468.33 Q951.229 1461.2 949.4 1457.66 Q947.595 1454.1 943.96 1454.1 M943.96 1450.39 Q949.77 1450.39 952.826 1455 Q955.905 1459.58 955.905 1468.33 Q955.905 1477.06 952.826 1481.67 Q949.77 1486.25 943.96 1486.25 Q938.15 1486.25 935.071 1481.67 Q932.016 1477.06 932.016 1468.33 Q932.016 1459.58 935.071 1455 Q938.15 1450.39 943.96 1450.39 Z" fill="#000000" fill-rule="nonzero" fill-opacity="1" /><path clip-path="url(#clip800)" d="M1570.14 1481.64 L1586.46 1481.64 L1586.46 1485.58 L1564.51 1485.58 L1564.51 1481.64 Q1567.17 1478.89 1571.76 1474.26 Q1576.36 1469.61 1577.54 1468.27 Q1579.79 1465.74 1580.67 1464.01 Q1581.57 1462.25 1581.57 1460.56 Q1581.57 1457.8 1579.63 1456.07 Q1577.71 1454.33 1574.6 1454.33 Q1572.41 1454.33 1569.95 1455.09 Q1567.52 1455.86 1564.74 1457.41 L1564.74 1452.69 Q1567.57 1451.55 1570.02 1450.97 Q1572.48 1450.39 1574.51 1450.39 Q1579.88 1450.39 1583.08 1453.08 Q1586.27 1455.77 1586.27 1460.26 Q1586.27 1462.39 1585.46 1464.31 Q1584.67 1466.2 1582.57 1468.8 Q1581.99 1469.47 1578.89 1472.69 Q1575.79 1475.88 1570.14 1481.64 Z" fill="#000000" fill-rule="nonzero" fill-opacity="1" /><path clip-path="url(#clip800)" d="M1606.27 1454.1 Q1602.66 1454.1 1600.83 1457.66 Q1599.03 1461.2 1599.03 1468.33 Q1599.03 1475.44 1600.83 1479.01 Q1602.66 1482.55 1606.27 1482.55 Q1609.91 1482.55 1611.71 1479.01 Q1613.54 1475.44 1613.54 1468.33 Q1613.54 1461.2 1611.71 1457.66 Q1609.91 1454.1 1606.27 1454.1 M1606.27 1450.39 Q1612.08 1450.39 1615.14 1455 Q1618.22 1459.58 1618.22 1468.33 Q1618.22 1477.06 1615.14 1481.67 Q1612.08 1486.25 1606.27 1486.25 Q1600.46 1486.25 1597.38 1481.67 Q1594.33 1477.06 1594.33 1468.33 Q1594.33 1459.58 1597.38 1455 Q1600.46 1450.39 1606.27 1450.39 Z" fill="#000000" fill-rule="nonzero" fill-opacity="1" /><path clip-path="url(#clip800)" d="M1636.43 1454.1 Q1632.82 1454.1 1630.99 1457.66 Q1629.19 1461.2 1629.19 1468.33 Q1629.19 1475.44 1630.99 1479.01 Q1632.82 1482.55 1636.43 1482.55 Q1640.07 1482.55 1641.87 1479.01 Q1643.7 1475.44 1643.7 1468.33 Q1643.7 1461.2 1641.87 1457.66 Q1640.07 1454.1 1636.43 1454.1 M1636.43 1450.39 Q1642.24 1450.39 1645.3 1455 Q1648.38 1459.58 1648.38 1468.33 Q1648.38 1477.06 1645.3 1481.67 Q1642.24 1486.25 1636.43 1486.25 Q1630.62 1486.25 1627.54 1481.67 Q1624.49 1477.06 1624.49 1468.33 Q1624.49 1459.58 1627.54 1455 Q1630.62 1450.39 1636.43 1450.39 Z" fill="#000000" fill-rule="nonzero" fill-opacity="1" /><path clip-path="url(#clip800)" d="M2271.81 1466.95 Q2275.17 1467.66 2277.04 1469.93 Q2278.94 1472.2 2278.94 1475.53 Q2278.94 1480.65 2275.42 1483.45 Q2271.9 1486.25 2265.42 1486.25 Q2263.25 1486.25 2260.93 1485.81 Q2258.64 1485.39 2256.19 1484.54 L2256.19 1480.02 Q2258.13 1481.16 2260.45 1481.74 Q2262.76 1482.32 2265.28 1482.32 Q2269.68 1482.32 2271.97 1480.58 Q2274.29 1478.84 2274.29 1475.53 Q2274.29 1472.48 2272.14 1470.77 Q2270.01 1469.03 2266.19 1469.03 L2262.16 1469.03 L2262.16 1465.19 L2266.37 1465.19 Q2269.82 1465.19 2271.65 1463.82 Q2273.48 1462.43 2273.48 1459.84 Q2273.48 1457.18 2271.58 1455.77 Q2269.71 1454.33 2266.19 1454.33 Q2264.27 1454.33 2262.07 1454.75 Q2259.87 1455.16 2257.23 1456.04 L2257.23 1451.88 Q2259.89 1451.14 2262.21 1450.77 Q2264.54 1450.39 2266.6 1450.39 Q2271.93 1450.39 2275.03 1452.83 Q2278.13 1455.23 2278.13 1459.35 Q2278.13 1462.22 2276.49 1464.21 Q2274.84 1466.18 2271.81 1466.95 Z" fill="#000000" fill-rule="nonzero" fill-opacity="1" /><path clip-path="url(#clip800)" d="M2297.81 1454.1 Q2294.2 1454.1 2292.37 1457.66 Q2290.56 1461.2 2290.56 1468.33 Q2290.56 1475.44 2292.37 1479.01 Q2294.2 1482.55 2297.81 1482.55 Q2301.44 1482.55 2303.25 1479.01 Q2305.08 1475.44 2305.08 1468.33 Q2305.08 1461.2 2303.25 1457.66 Q2301.44 1454.1 2297.81 1454.1 M2297.81 1450.39 Q2303.62 1450.39 2306.67 1455 Q2309.75 1459.58 2309.75 1468.33 Q2309.75 1477.06 2306.67 1481.67 Q2303.62 1486.25 2297.81 1486.25 Q2292 1486.25 2288.92 1481.67 Q2285.86 1477.06 2285.86 1468.33 Q2285.86 1459.58 2288.92 1455 Q2292 1450.39 2297.81 1450.39 Z" fill="#000000" fill-rule="nonzero" fill-opacity="1" /><path clip-path="url(#clip800)" d="M2327.97 1454.1 Q2324.36 1454.1 2322.53 1457.66 Q2320.72 1461.2 2320.72 1468.33 Q2320.72 1475.44 2322.53 1479.01 Q2324.36 1482.55 2327.97 1482.55 Q2331.6 1482.55 2333.41 1479.01 Q2335.24 1475.44 2335.24 1468.33 Q2335.24 1461.2 2333.41 1457.66 Q2331.6 1454.1 2327.97 1454.1 M2327.97 1450.39 Q2333.78 1450.39 2336.83 1455 Q2339.91 1459.58 2339.91 1468.33 Q2339.91 1477.06 2336.83 1481.67 Q2333.78 1486.25 2327.97 1486.25 Q2322.16 1486.25 2319.08 1481.67 Q2316.02 1477.06 2316.02 1468.33 Q2316.02 1459.58 2319.08 1455 Q2322.16 1450.39 2327.97 1450.39 Z" fill="#000000" fill-rule="nonzero" fill-opacity="1" /><path clip-path="url(#clip800)" d="M1264.99 1524.09 L1281.45 1568.04 L1275.24 1568.04 L1265.25 1541.69 L1252.96 1568.04 L1246.75 1568.04 L1262.38 1533.86 L1260.03 1527.56 Q1258.53 1523.55 1255.12 1523.55 L1252.07 1523.55 L1252.07 1518.52 L1255.79 1518.58 Q1262.99 1518.68 1264.99 1524.09 Z" fill="#000000" fill-rule="nonzero" fill-opacity="1" /><polyline clip-path="url(#clip800)" style="stroke:#000000; stroke-linecap:round; stroke-linejoin:round; stroke-width:4; stroke-opacity:1; fill:none" points="175.445,1423.18 175.445,123.472 "/>
<polyline clip-path="url(#clip800)" style="stroke:#000000; stroke-linecap:round; stroke-linejoin:round; stroke-width:4; stroke-opacity:1; fill:none" points="175.445,1248.57 194.343,1248.57 "/>
<polyline clip-path="url(#clip800)" style="stroke:#000000; stroke-linecap:round; stroke-linejoin:round; stroke-width:4; stroke-opacity:1; fill:none" points="175.445,1049.93 194.343,1049.93 "/>
<polyline clip-path="url(#clip800)" style="stroke:#000000; stroke-linecap:round; stroke-linejoin:round; stroke-width:4; stroke-opacity:1; fill:none" points="175.445,851.296 194.343,851.296 "/>
<polyline clip-path="url(#clip800)" style="stroke:#000000; stroke-linecap:round; stroke-linejoin:round; stroke-width:4; stroke-opacity:1; fill:none" points="175.445,652.662 194.343,652.662 "/>
<polyline clip-path="url(#clip800)" style="stroke:#000000; stroke-linecap:round; stroke-linejoin:round; stroke-width:4; stroke-opacity:1; fill:none" points="175.445,454.027 194.343,454.027 "/>
<polyline clip-path="url(#clip800)" style="stroke:#000000; stroke-linecap:round; stroke-linejoin:round; stroke-width:4; stroke-opacity:1; fill:none" points="175.445,255.393 194.343,255.393 "/>
<path clip-path="url(#clip800)" d="M129.862 1235.36 L118.056 1253.81 L129.862 1253.81 L129.862 1235.36 M128.635 1231.29 L134.515 1231.29 L134.515 1253.81 L139.445 1253.81 L139.445 1257.7 L134.515 1257.7 L134.515 1265.85 L129.862 1265.85 L129.862 1257.7 L114.26 1257.7 L114.26 1253.18 L128.635 1231.29 Z" fill="#000000" fill-rule="nonzero" fill-opacity="1" /><path clip-path="url(#clip800)" d="M118.543 1032.65 L136.899 1032.65 L136.899 1036.59 L122.825 1036.59 L122.825 1045.06 Q123.843 1044.71 124.862 1044.55 Q125.88 1044.36 126.899 1044.36 Q132.686 1044.36 136.066 1047.53 Q139.445 1050.71 139.445 1056.12 Q139.445 1061.7 135.973 1064.8 Q132.501 1067.88 126.181 1067.88 Q124.005 1067.88 121.737 1067.51 Q119.492 1067.14 117.084 1066.4 L117.084 1061.7 Q119.168 1062.84 121.39 1063.39 Q123.612 1063.95 126.089 1063.95 Q130.093 1063.95 132.431 1061.84 Q134.769 1059.73 134.769 1056.12 Q134.769 1052.51 132.431 1050.41 Q130.093 1048.3 126.089 1048.3 Q124.214 1048.3 122.339 1048.72 Q120.487 1049.13 118.543 1050.01 L118.543 1032.65 Z" fill="#000000" fill-rule="nonzero" fill-opacity="1" /><path clip-path="url(#clip800)" d="M127.917 849.433 Q124.769 849.433 122.918 851.585 Q121.089 853.738 121.089 857.488 Q121.089 861.215 122.918 863.391 Q124.769 865.544 127.917 865.544 Q131.066 865.544 132.894 863.391 Q134.746 861.215 134.746 857.488 Q134.746 853.738 132.894 851.585 Q131.066 849.433 127.917 849.433 M137.2 834.78 L137.2 839.039 Q135.441 838.206 133.635 837.766 Q131.853 837.326 130.093 837.326 Q125.464 837.326 123.01 840.451 Q120.58 843.576 120.232 849.896 Q121.598 847.882 123.658 846.817 Q125.718 845.729 128.195 845.729 Q133.404 845.729 136.413 848.9 Q139.445 852.048 139.445 857.488 Q139.445 862.812 136.297 866.03 Q133.149 869.247 127.917 869.247 Q121.922 869.247 118.751 864.664 Q115.58 860.058 115.58 851.331 Q115.58 843.136 119.468 838.275 Q123.357 833.391 129.908 833.391 Q131.667 833.391 133.45 833.738 Q135.255 834.085 137.2 834.78 Z" fill="#000000" fill-rule="nonzero" fill-opacity="1" /><path clip-path="url(#clip800)" d="M117.223 635.382 L139.445 635.382 L139.445 637.372 L126.899 669.942 L122.015 669.942 L133.82 639.317 L117.223 639.317 L117.223 635.382 Z" fill="#000000" fill-rule="nonzero" fill-opacity="1" /><path clip-path="url(#clip800)" d="M127.593 454.895 Q124.26 454.895 122.339 456.678 Q120.441 458.46 120.441 461.585 Q120.441 464.71 122.339 466.492 Q124.26 468.275 127.593 468.275 Q130.927 468.275 132.848 466.492 Q134.769 464.687 134.769 461.585 Q134.769 458.46 132.848 456.678 Q130.95 454.895 127.593 454.895 M122.918 452.904 Q119.908 452.164 118.218 450.104 Q116.552 448.043 116.552 445.08 Q116.552 440.937 119.492 438.529 Q122.455 436.122 127.593 436.122 Q132.755 436.122 135.695 438.529 Q138.635 440.937 138.635 445.08 Q138.635 448.043 136.945 450.104 Q135.279 452.164 132.292 452.904 Q135.672 453.691 137.547 455.983 Q139.445 458.275 139.445 461.585 Q139.445 466.608 136.367 469.293 Q133.311 471.978 127.593 471.978 Q121.876 471.978 118.797 469.293 Q115.742 466.608 115.742 461.585 Q115.742 458.275 117.64 455.983 Q119.538 453.691 122.918 452.904 M121.205 445.52 Q121.205 448.205 122.871 449.71 Q124.561 451.215 127.593 451.215 Q130.603 451.215 132.292 449.71 Q134.005 448.205 134.005 445.52 Q134.005 442.835 132.292 441.33 Q130.603 439.826 127.593 439.826 Q124.561 439.826 122.871 441.33 Q121.205 442.835 121.205 445.52 Z" fill="#000000" fill-rule="nonzero" fill-opacity="1" /><path clip-path="url(#clip800)" d="M117.825 271.955 L117.825 267.696 Q119.584 268.529 121.39 268.969 Q123.195 269.409 124.931 269.409 Q129.561 269.409 131.992 266.307 Q134.445 263.182 134.792 256.839 Q133.45 258.83 131.39 259.895 Q129.33 260.96 126.83 260.96 Q121.644 260.96 118.612 257.835 Q115.603 254.687 115.603 249.247 Q115.603 243.923 118.751 240.705 Q121.899 237.488 127.13 237.488 Q133.126 237.488 136.274 242.094 Q139.445 246.677 139.445 255.427 Q139.445 263.599 135.556 268.483 Q131.691 273.344 125.14 273.344 Q123.38 273.344 121.575 272.997 Q119.769 272.649 117.825 271.955 M127.13 257.302 Q130.279 257.302 132.107 255.15 Q133.959 252.997 133.959 249.247 Q133.959 245.52 132.107 243.367 Q130.279 241.191 127.13 241.191 Q123.982 241.191 122.13 243.367 Q120.302 245.52 120.302 249.247 Q120.302 252.997 122.13 255.15 Q123.982 257.302 127.13 257.302 Z" fill="#000000" fill-rule="nonzero" fill-opacity="1" /><path clip-path="url(#clip800)" d="M16.4842 1061.85 L16.4842 1055.39 L45.3526 1055.39 Q52.9915 1055.39 56.3653 1052.62 Q59.7073 1049.85 59.7073 1043.65 Q59.7073 1037.47 56.3653 1034.7 Q52.9915 1031.93 45.3526 1031.93 L16.4842 1031.93 L16.4842 1025.47 L46.1484 1025.47 Q55.4423 1025.47 60.1847 1030.09 Q64.9272 1034.67 64.9272 1043.65 Q64.9272 1052.65 60.1847 1057.27 Q55.4423 1061.85 46.1484 1061.85 L16.4842 1061.85 Z" fill="#000000" fill-rule="nonzero" fill-opacity="1" /><path clip-path="url(#clip800)" d="M58.657 1008 L77.5631 1008 L77.5631 1013.89 L28.3562 1013.89 L28.3562 1008 L33.7671 1008 Q30.5842 1006.15 29.0564 1003.35 Q27.4968 1000.52 27.4968 996.603 Q27.4968 990.11 32.6531 986.068 Q37.8093 981.994 46.212 981.994 Q54.6147 981.994 59.771 986.068 Q64.9272 990.11 64.9272 996.603 Q64.9272 1000.52 63.3994 1003.35 Q61.8398 1006.15 58.657 1008 M46.212 988.073 Q39.7508 988.073 36.0905 990.747 Q32.3984 993.388 32.3984 998.035 Q32.3984 1002.68 36.0905 1005.36 Q39.7508 1008 46.212 1008 Q52.6732 1008 56.3653 1005.36 Q60.0256 1002.68 60.0256 998.035 Q60.0256 993.388 56.3653 990.747 Q52.6732 988.073 46.212 988.073 Z" fill="#000000" fill-rule="nonzero" fill-opacity="1" /><path clip-path="url(#clip800)" d="M58.657 966.621 L77.5631 966.621 L77.5631 972.509 L28.3562 972.509 L28.3562 966.621 L33.7671 966.621 Q30.5842 964.775 29.0564 961.974 Q27.4968 959.141 27.4968 955.226 Q27.4968 948.733 32.6531 944.691 Q37.8093 940.617 46.212 940.617 Q54.6147 940.617 59.771 944.691 Q64.9272 948.733 64.9272 955.226 Q64.9272 959.141 63.3994 961.974 Q61.8398 964.775 58.657 966.621 M46.212 946.696 Q39.7508 946.696 36.0905 949.37 Q32.3984 952.011 32.3984 956.658 Q32.3984 961.305 36.0905 963.979 Q39.7508 966.621 46.212 966.621 Q52.6732 966.621 56.3653 963.979 Q60.0256 961.305 60.0256 956.658 Q60.0256 952.011 56.3653 949.37 Q52.6732 946.696 46.212 946.696 Z" fill="#000000" fill-rule="nonzero" fill-opacity="1" /><path clip-path="url(#clip800)" d="M44.7161 900.417 L47.5806 900.417 L47.5806 927.344 Q53.6281 926.962 56.8109 923.716 Q59.9619 920.437 59.9619 914.613 Q59.9619 911.239 59.1344 908.088 Q58.3069 904.905 56.6518 901.786 L62.1899 901.786 Q63.5267 904.937 64.227 908.247 Q64.9272 911.557 64.9272 914.963 Q64.9272 923.493 59.9619 928.49 Q54.9967 933.455 46.5303 933.455 Q37.7774 933.455 32.6531 928.745 Q27.4968 924.002 27.4968 915.981 Q27.4968 908.788 32.1438 904.619 Q36.7589 900.417 44.7161 900.417 M42.9973 906.274 Q38.1912 906.337 35.3266 908.979 Q32.4621 911.589 32.4621 915.918 Q32.4621 920.819 35.2312 923.779 Q38.0002 926.708 43.0292 927.153 L42.9973 906.274 Z" fill="#000000" fill-rule="nonzero" fill-opacity="1" /><path clip-path="url(#clip800)" d="M33.8307 870.148 Q33.2578 871.135 33.0032 872.313 Q32.7167 873.459 32.7167 874.859 Q32.7167 879.824 35.9632 882.498 Q39.1779 885.14 45.2253 885.14 L64.0042 885.14 L64.0042 891.028 L28.3562 891.028 L28.3562 885.14 L33.8944 885.14 Q30.6479 883.294 29.0883 880.334 Q27.4968 877.373 27.4968 873.14 Q27.4968 872.536 27.5923 871.803 Q27.656 871.071 27.8151 870.18 L33.8307 870.148 Z" fill="#000000" fill-rule="nonzero" fill-opacity="1" /><path clip-path="url(#clip800)" d="M41.3104 836.601 L58.7206 836.601 L58.7206 826.289 Q58.7206 821.101 56.5881 818.618 Q54.4238 816.104 49.9996 816.104 Q45.5436 816.104 43.4429 818.618 Q41.3104 821.101 41.3104 826.289 L41.3104 836.601 M21.7677 836.601 L36.0905 836.601 L36.0905 827.084 Q36.0905 822.374 34.34 820.082 Q32.5576 817.759 28.9291 817.759 Q25.3325 817.759 23.5501 820.082 Q21.7677 822.374 21.7677 827.084 L21.7677 836.601 M16.4842 843.03 L16.4842 826.607 Q16.4842 819.255 19.5397 815.276 Q22.5952 811.297 28.2289 811.297 Q32.5894 811.297 35.1675 813.334 Q37.7456 815.371 38.3822 819.318 Q39.4007 814.576 42.6472 811.966 Q45.8619 809.324 50.6998 809.324 Q57.0655 809.324 60.5348 813.653 Q64.0042 817.981 64.0042 825.97 L64.0042 843.03 L16.4842 843.03 Z" fill="#000000" fill-rule="nonzero" fill-opacity="1" /><path clip-path="url(#clip800)" d="M32.4621 784.752 Q32.4621 789.463 36.1542 792.2 Q39.8145 794.938 46.212 794.938 Q52.6095 794.938 56.3017 792.232 Q59.9619 789.495 59.9619 784.752 Q59.9619 780.074 56.2698 777.336 Q52.5777 774.599 46.212 774.599 Q39.8781 774.599 36.186 777.336 Q32.4621 780.074 32.4621 784.752 M27.4968 784.752 Q27.4968 777.114 32.4621 772.753 Q37.4273 768.393 46.212 768.393 Q54.9649 768.393 59.9619 772.753 Q64.9272 777.114 64.9272 784.752 Q64.9272 792.423 59.9619 796.784 Q54.9649 801.112 46.212 801.112 Q37.4273 801.112 32.4621 796.784 Q27.4968 792.423 27.4968 784.752 Z" fill="#000000" fill-rule="nonzero" fill-opacity="1" /><path clip-path="url(#clip800)" d="M49.9359 759.29 L28.3562 759.29 L28.3562 753.433 L49.7131 753.433 Q54.7739 753.433 57.3202 751.46 Q59.8346 749.486 59.8346 745.54 Q59.8346 740.797 56.8109 738.06 Q53.7872 735.291 48.5673 735.291 L28.3562 735.291 L28.3562 729.434 L64.0042 729.434 L64.0042 735.291 L58.5296 735.291 Q61.7762 737.423 63.3676 740.256 Q64.9272 743.057 64.9272 746.781 Q64.9272 752.924 61.1078 756.107 Q57.2883 759.29 49.9359 759.29 M27.4968 744.553 L27.4968 744.553 Z" fill="#000000" fill-rule="nonzero" fill-opacity="1" /><path clip-path="url(#clip800)" d="M42.4881 687.739 L64.0042 687.739 L64.0042 693.596 L42.679 693.596 Q37.6183 693.596 35.1038 695.569 Q32.5894 697.542 32.5894 701.489 Q32.5894 706.231 35.6131 708.969 Q38.6368 711.706 43.8567 711.706 L64.0042 711.706 L64.0042 717.594 L28.3562 717.594 L28.3562 711.706 L33.8944 711.706 Q30.6797 709.605 29.0883 706.773 Q27.4968 703.908 27.4968 700.184 Q27.4968 694.041 31.3163 690.89 Q35.1038 687.739 42.4881 687.739 Z" fill="#000000" fill-rule="nonzero" fill-opacity="1" /><path clip-path="url(#clip800)" d="M33.7671 652.6 L14.479 652.6 L14.479 646.744 L64.0042 646.744 L64.0042 652.6 L58.657 652.6 Q61.8398 654.446 63.3994 657.279 Q64.9272 660.08 64.9272 664.027 Q64.9272 670.488 59.771 674.562 Q54.6147 678.604 46.212 678.604 Q37.8093 678.604 32.6531 674.562 Q27.4968 670.488 27.4968 664.027 Q27.4968 660.08 29.0564 657.279 Q30.5842 654.446 33.7671 652.6 M46.212 672.557 Q52.6732 672.557 56.3653 669.915 Q60.0256 667.241 60.0256 662.595 Q60.0256 657.948 56.3653 655.274 Q52.6732 652.6 46.212 652.6 Q39.7508 652.6 36.0905 655.274 Q32.3984 657.948 32.3984 662.595 Q32.3984 667.241 36.0905 669.915 Q39.7508 672.557 46.212 672.557 Z" fill="#000000" fill-rule="nonzero" fill-opacity="1" /><path clip-path="url(#clip800)" d="M32.4621 600.147 Q32.4621 604.858 36.1542 607.595 Q39.8145 610.332 46.212 610.332 Q52.6095 610.332 56.3017 607.627 Q59.9619 604.889 59.9619 600.147 Q59.9619 595.468 56.2698 592.731 Q52.5777 589.994 46.212 589.994 Q39.8781 589.994 36.186 592.731 Q32.4621 595.468 32.4621 600.147 M27.4968 600.147 Q27.4968 592.508 32.4621 588.148 Q37.4273 583.787 46.212 583.787 Q54.9649 583.787 59.9619 588.148 Q64.9272 592.508 64.9272 600.147 Q64.9272 607.818 59.9619 612.178 Q54.9649 616.507 46.212 616.507 Q37.4273 616.507 32.4621 612.178 Q27.4968 607.818 27.4968 600.147 Z" fill="#000000" fill-rule="nonzero" fill-opacity="1" /><path clip-path="url(#clip800)" d="M42.4881 544.447 L64.0042 544.447 L64.0042 550.303 L42.679 550.303 Q37.6183 550.303 35.1038 552.277 Q32.5894 554.25 32.5894 558.197 Q32.5894 562.939 35.6131 565.677 Q38.6368 568.414 43.8567 568.414 L64.0042 568.414 L64.0042 574.302 L28.3562 574.302 L28.3562 568.414 L33.8944 568.414 Q30.6797 566.313 29.0883 563.48 Q27.4968 560.616 27.4968 556.892 Q27.4968 550.749 31.3163 547.598 Q35.1038 544.447 42.4881 544.447 Z" fill="#000000" fill-rule="nonzero" fill-opacity="1" /><path clip-path="url(#clip800)" d="M57.5111 494.572 Q59.0389 493.426 59.0389 489.988 L59.0389 487.156 L64.0042 487.156 L64.0042 490.689 Q64.0042 496.418 60.9486 499.028 Q57.8294 501.638 51.0818 501.638 L34.2127 501.638 L34.2127 515.006 L28.3562 515.006 L28.3562 482.127 L34.2127 482.127 L34.2127 495.654 L51.4319 495.654 Q56.047 495.654 57.5111 494.572 Z" fill="#000000" fill-rule="nonzero" fill-opacity="1" /><path clip-path="url(#clip800)" d="M20.3991 495.431 L18.6485 497.245 Q18.0119 497.946 17.7255 498.455 Q17.4072 498.996 17.4072 499.41 Q17.4072 500.619 18.5848 501.192 Q19.7307 501.765 22.3406 501.829 L22.3406 505.807 Q18.0438 505.744 15.7203 504.12 Q13.365 502.497 13.365 499.601 Q13.365 498.391 13.8106 497.373 Q14.2562 496.354 15.3065 495.176 L17.0571 493.362 Q17.6936 492.662 18.0119 492.121 Q18.2984 491.612 18.2984 491.198 Q18.2984 489.988 17.1526 489.415 Q15.9749 488.843 13.365 488.779 L13.365 484.8 Q17.6618 484.864 20.0171 486.487 Q22.3406 488.11 22.3406 491.007 Q22.3406 492.216 21.895 493.235 Q21.4494 494.253 20.3991 495.431 Z" fill="#000000" fill-rule="nonzero" fill-opacity="1" /><path clip-path="url(#clip800)" d="M764.746 12.096 L772.969 12.096 L772.969 48.8377 Q772.969 58.5599 776.493 62.8538 Q780.018 67.1073 787.917 67.1073 Q795.776 67.1073 799.3 62.8538 Q802.824 58.5599 802.824 48.8377 L802.824 12.096 L811.047 12.096 L811.047 49.8504 Q811.047 61.6791 805.174 67.7149 Q799.34 73.7508 787.917 73.7508 Q776.453 73.7508 770.579 67.7149 Q764.746 61.6791 764.746 49.8504 L764.746 12.096 Z" fill="#000000" fill-rule="nonzero" fill-opacity="1" /><path clip-path="url(#clip800)" d="M833.287 65.7705 L833.287 89.8329 L825.793 89.8329 L825.793 27.2059 L833.287 27.2059 L833.287 34.0924 Q835.636 30.0415 839.201 28.0971 Q842.807 26.1121 847.789 26.1121 Q856.053 26.1121 861.198 32.6746 Q866.383 39.2371 866.383 49.9314 Q866.383 60.6258 861.198 67.1883 Q856.053 73.7508 847.789 73.7508 Q842.807 73.7508 839.201 71.8063 Q835.636 69.8214 833.287 65.7705 M858.646 49.9314 Q858.646 41.7081 855.243 37.0496 Q851.881 32.3505 845.966 32.3505 Q840.052 32.3505 836.649 37.0496 Q833.287 41.7081 833.287 49.9314 Q833.287 58.1548 836.649 62.8538 Q840.052 67.5124 845.966 67.5124 Q851.881 67.5124 855.243 62.8538 Q858.646 58.1548 858.646 49.9314 Z" fill="#000000" fill-rule="nonzero" fill-opacity="1" /><path clip-path="url(#clip800)" d="M885.949 65.7705 L885.949 89.8329 L878.454 89.8329 L878.454 27.2059 L885.949 27.2059 L885.949 34.0924 Q888.298 30.0415 891.863 28.0971 Q895.468 26.1121 900.451 26.1121 Q908.715 26.1121 913.859 32.6746 Q919.045 39.2371 919.045 49.9314 Q919.045 60.6258 913.859 67.1883 Q908.715 73.7508 900.451 73.7508 Q895.468 73.7508 891.863 71.8063 Q888.298 69.8214 885.949 65.7705 M911.307 49.9314 Q911.307 41.7081 907.905 37.0496 Q904.542 32.3505 898.628 32.3505 Q892.714 32.3505 889.311 37.0496 Q885.949 41.7081 885.949 49.9314 Q885.949 58.1548 889.311 62.8538 Q892.714 67.5124 898.628 67.5124 Q904.542 67.5124 907.905 62.8538 Q911.307 58.1548 911.307 49.9314 Z" fill="#000000" fill-rule="nonzero" fill-opacity="1" /><path clip-path="url(#clip800)" d="M970.207 48.0275 L970.207 51.6733 L935.937 51.6733 Q936.423 59.3701 940.555 63.421 Q944.727 67.4314 952.14 67.4314 Q956.434 67.4314 960.445 66.3781 Q964.496 65.3249 968.466 63.2184 L968.466 70.267 Q964.455 71.9684 960.242 72.8596 Q956.029 73.7508 951.695 73.7508 Q940.838 73.7508 934.478 67.4314 Q928.159 61.1119 928.159 50.3365 Q928.159 39.1965 934.154 32.6746 Q940.19 26.1121 950.399 26.1121 Q959.554 26.1121 964.86 32.0264 Q970.207 37.9003 970.207 48.0275 M962.754 45.84 Q962.673 39.7232 959.311 36.0774 Q955.989 32.4315 950.48 32.4315 Q944.241 32.4315 940.474 35.9558 Q936.747 39.4801 936.18 45.8805 L962.754 45.84 Z" fill="#000000" fill-rule="nonzero" fill-opacity="1" /><path clip-path="url(#clip800)" d="M1008.73 34.1734 Q1007.48 33.4443 1005.98 33.1202 Q1004.52 32.7556 1002.74 32.7556 Q996.417 32.7556 993.014 36.8875 Q989.652 40.9789 989.652 48.6757 L989.652 72.576 L982.158 72.576 L982.158 27.2059 L989.652 27.2059 L989.652 34.2544 Q992.001 30.1225 995.769 28.1376 Q999.536 26.1121 1004.92 26.1121 Q1005.69 26.1121 1006.63 26.2337 Q1007.56 26.3147 1008.69 26.5172 L1008.73 34.1734 Z" fill="#000000" fill-rule="nonzero" fill-opacity="1" /><path clip-path="url(#clip800)" d="M1051.43 43.6931 L1051.43 65.8515 L1064.55 65.8515 Q1071.16 65.8515 1074.32 63.1374 Q1077.52 60.3828 1077.52 54.752 Q1077.52 49.0808 1074.32 46.4072 Q1071.16 43.6931 1064.55 43.6931 L1051.43 43.6931 M1051.43 18.8205 L1051.43 37.0496 L1063.54 37.0496 Q1069.54 37.0496 1072.45 34.8216 Q1075.41 32.5531 1075.41 27.935 Q1075.41 23.3575 1072.45 21.089 Q1069.54 18.8205 1063.54 18.8205 L1051.43 18.8205 M1043.25 12.096 L1064.15 12.096 Q1073.51 12.096 1078.57 15.9849 Q1083.63 19.8737 1083.63 27.0438 Q1083.63 32.5936 1081.04 35.8748 Q1078.45 39.156 1073.42 39.9662 Q1079.46 41.2625 1082.78 45.3944 Q1086.14 49.4858 1086.14 55.6432 Q1086.14 63.745 1080.64 68.1605 Q1075.13 72.576 1064.96 72.576 L1043.25 72.576 L1043.25 12.096 Z" fill="#000000" fill-rule="nonzero" fill-opacity="1" /><path clip-path="url(#clip800)" d="M1117.42 32.4315 Q1111.42 32.4315 1107.94 37.1306 Q1104.45 41.7891 1104.45 49.9314 Q1104.45 58.0738 1107.9 62.7728 Q1111.38 67.4314 1117.42 67.4314 Q1123.37 67.4314 1126.86 62.7323 Q1130.34 58.0333 1130.34 49.9314 Q1130.34 41.8701 1126.86 37.1711 Q1123.37 32.4315 1117.42 32.4315 M1117.42 26.1121 Q1127.14 26.1121 1132.69 32.4315 Q1138.24 38.7509 1138.24 49.9314 Q1138.24 61.0714 1132.69 67.4314 Q1127.14 73.7508 1117.42 73.7508 Q1107.65 73.7508 1102.1 67.4314 Q1096.6 61.0714 1096.6 49.9314 Q1096.6 38.7509 1102.1 32.4315 Q1107.65 26.1121 1117.42 26.1121 Z" fill="#000000" fill-rule="nonzero" fill-opacity="1" /><path clip-path="url(#clip800)" d="M1149.82 54.671 L1149.82 27.2059 L1157.28 27.2059 L1157.28 54.3874 Q1157.28 60.8284 1159.79 64.0691 Q1162.3 67.2693 1167.32 67.2693 Q1173.36 67.2693 1176.84 63.421 Q1180.37 59.5726 1180.37 52.9291 L1180.37 27.2059 L1187.82 27.2059 L1187.82 72.576 L1180.37 72.576 L1180.37 65.6084 Q1177.65 69.7404 1174.05 71.7658 Q1170.48 73.7508 1165.74 73.7508 Q1157.93 73.7508 1153.88 68.8897 Q1149.82 64.0286 1149.82 54.671 M1168.58 26.1121 L1168.58 26.1121 Z" fill="#000000" fill-rule="nonzero" fill-opacity="1" /><path clip-path="url(#clip800)" d="M1240.89 45.1919 L1240.89 72.576 L1233.44 72.576 L1233.44 45.4349 Q1233.44 38.994 1230.92 35.7938 Q1228.41 32.5936 1223.39 32.5936 Q1217.35 32.5936 1213.87 36.4419 Q1210.39 40.2903 1210.39 46.9338 L1210.39 72.576 L1202.89 72.576 L1202.89 27.2059 L1210.39 27.2059 L1210.39 34.2544 Q1213.06 30.163 1216.66 28.1376 Q1220.31 26.1121 1225.05 26.1121 Q1232.87 26.1121 1236.88 30.9732 Q1240.89 35.7938 1240.89 45.1919 Z" fill="#000000" fill-rule="nonzero" fill-opacity="1" /><path clip-path="url(#clip800)" d="M1285.61 34.0924 L1285.61 9.54393 L1293.06 9.54393 L1293.06 72.576 L1285.61 72.576 L1285.61 65.7705 Q1283.26 69.8214 1279.66 71.8063 Q1276.09 73.7508 1271.07 73.7508 Q1262.84 73.7508 1257.66 67.1883 Q1252.51 60.6258 1252.51 49.9314 Q1252.51 39.2371 1257.66 32.6746 Q1262.84 26.1121 1271.07 26.1121 Q1276.09 26.1121 1279.66 28.0971 Q1283.26 30.0415 1285.61 34.0924 M1260.21 49.9314 Q1260.21 58.1548 1263.57 62.8538 Q1266.98 67.5124 1272.89 67.5124 Q1278.81 67.5124 1282.21 62.8538 Q1285.61 58.1548 1285.61 49.9314 Q1285.61 41.7081 1282.21 37.0496 Q1278.81 32.3505 1272.89 32.3505 Q1266.98 32.3505 1263.57 37.0496 Q1260.21 41.7081 1260.21 49.9314 Z" fill="#000000" fill-rule="nonzero" fill-opacity="1" /><path clip-path="url(#clip800)" d="M1352.37 32.4315 Q1346.37 32.4315 1342.89 37.1306 Q1339.41 41.7891 1339.41 49.9314 Q1339.41 58.0738 1342.85 62.7728 Q1346.33 67.4314 1352.37 67.4314 Q1358.32 67.4314 1361.81 62.7323 Q1365.29 58.0333 1365.29 49.9314 Q1365.29 41.8701 1361.81 37.1711 Q1358.32 32.4315 1352.37 32.4315 M1352.37 26.1121 Q1362.09 26.1121 1367.64 32.4315 Q1373.19 38.7509 1373.19 49.9314 Q1373.19 61.0714 1367.64 67.4314 Q1362.09 73.7508 1352.37 73.7508 Q1342.61 73.7508 1337.06 67.4314 Q1331.55 61.0714 1331.55 49.9314 Q1331.55 38.7509 1337.06 32.4315 Q1342.61 26.1121 1352.37 26.1121 Z" fill="#000000" fill-rule="nonzero" fill-opacity="1" /><path clip-path="url(#clip800)" d="M1423.26 45.1919 L1423.26 72.576 L1415.81 72.576 L1415.81 45.4349 Q1415.81 38.994 1413.3 35.7938 Q1410.78 32.5936 1405.76 32.5936 Q1399.72 32.5936 1396.24 36.4419 Q1392.76 40.2903 1392.76 46.9338 L1392.76 72.576 L1385.26 72.576 L1385.26 27.2059 L1392.76 27.2059 L1392.76 34.2544 Q1395.43 30.163 1399.04 28.1376 Q1402.68 26.1121 1407.42 26.1121 Q1415.24 26.1121 1419.25 30.9732 Q1423.26 35.7938 1423.26 45.1919 Z" fill="#000000" fill-rule="nonzero" fill-opacity="1" /><path clip-path="url(#clip800)" d="M1486.74 64.3122 Q1488.2 66.2566 1492.57 66.2566 L1496.18 66.2566 L1496.18 72.576 L1491.68 72.576 Q1484.39 72.576 1481.07 68.6871 Q1477.75 64.7172 1477.75 56.1293 L1477.75 34.6595 L1460.73 34.6595 L1460.73 27.2059 L1502.58 27.2059 L1502.58 34.6595 L1485.36 34.6595 L1485.36 56.5749 Q1485.36 62.4487 1486.74 64.3122 Z" fill="#000000" fill-rule="nonzero" fill-opacity="1" /><path clip-path="url(#clip800)" d="M1485.64 17.0786 L1483.34 14.8506 Q1482.44 14.0404 1481.8 13.6759 Q1481.11 13.2708 1480.58 13.2708 Q1479.04 13.2708 1478.31 14.7696 Q1477.58 16.2279 1477.5 19.5497 L1472.44 19.5497 Q1472.52 14.0809 1474.59 11.1238 Q1476.65 8.12611 1480.34 8.12611 Q1481.88 8.12611 1483.17 8.69324 Q1484.47 9.26037 1485.97 10.5972 L1488.28 12.8252 Q1489.17 13.6353 1489.86 14.0404 Q1490.51 14.405 1491.03 14.405 Q1492.57 14.405 1493.3 12.9467 Q1494.03 11.4479 1494.11 8.12611 L1499.17 8.12611 Q1499.09 13.5948 1497.03 16.5925 Q1494.96 19.5497 1491.28 19.5497 Q1489.74 19.5497 1488.44 18.9825 Q1487.14 18.4154 1485.64 17.0786 Z" fill="#000000" fill-rule="nonzero" fill-opacity="1" /><path clip-path="url(#clip800)" d="M1542.72 62.2867 L1551.27 62.2867 L1551.27 69.2543 L1544.63 82.2172 L1539.4 82.2172 L1542.72 69.2543 L1542.72 62.2867 Z" fill="#000000" fill-rule="nonzero" fill-opacity="1" /><path clip-path="url(#clip800)" d="M1593.88 12.096 L1604.9 12.096 L1631.72 62.6918 L1631.72 12.096 L1639.66 12.096 L1639.66 72.576 L1628.64 72.576 L1601.82 21.9802 L1601.82 72.576 L1593.88 72.576 L1593.88 12.096 Z" fill="#000000" fill-rule="nonzero" fill-opacity="1" /><path clip-path="url(#clip800)" d="M1656.59 34.9026 L1708.53 34.9026 L1708.53 41.7081 L1656.59 41.7081 L1656.59 34.9026 M1656.59 51.4303 L1708.53 51.4303 L1708.53 58.3168 L1656.59 58.3168 L1656.59 51.4303 Z" fill="#000000" fill-rule="nonzero" fill-opacity="1" /><path clip-path="url(#clip800)" d="M1750.98 39.9662 Q1756.85 41.222 1760.13 45.1919 Q1763.46 49.1618 1763.46 54.9951 Q1763.46 63.9476 1757.3 68.8492 Q1751.14 73.7508 1739.8 73.7508 Q1735.99 73.7508 1731.94 72.9811 Q1727.93 72.2519 1723.64 70.7531 L1723.64 62.8538 Q1727.04 64.8388 1731.09 65.8515 Q1735.14 66.8642 1739.56 66.8642 Q1747.25 66.8642 1751.26 63.826 Q1755.31 60.7879 1755.31 54.9951 Q1755.31 49.6479 1751.55 46.6502 Q1747.82 43.612 1741.14 43.612 L1734.09 43.612 L1734.09 36.8875 L1741.46 36.8875 Q1747.49 36.8875 1750.7 34.4975 Q1753.9 32.067 1753.9 27.5299 Q1753.9 22.8714 1750.57 20.4004 Q1747.29 17.8888 1741.14 17.8888 Q1737.77 17.8888 1733.92 18.618 Q1730.08 19.3471 1725.46 20.8865 L1725.46 13.5948 Q1730.12 12.2985 1734.17 11.6504 Q1738.26 11.0023 1741.86 11.0023 Q1751.18 11.0023 1756.61 15.2557 Q1762.04 19.4686 1762.04 26.6793 Q1762.04 31.7024 1759.16 35.1862 Q1756.29 38.6294 1750.98 39.9662 Z" fill="#000000" fill-rule="nonzero" fill-opacity="1" /><polyline clip-path="url(#clip802)" style="stroke:#009af9; stroke-linecap:round; stroke-linejoin:round; stroke-width:8; stroke-opacity:1; fill:none" points="237.067,1386.4 243.983,1350.36 250.899,1324.84 264.731,1282.37 271.647,1263.41 285.48,1232.88 292.396,1221.61 299.312,1211.86 313.144,1193.47 320.06,1184.74 326.976,1176.27 333.892,1168.05 340.808,1160.05 347.724,1152.26 354.64,1144.66 361.556,1137.24 368.472,1129.98 375.388,1122.88 382.304,1114.11 389.22,1108.17 396.136,1096.92 403.052,1096.6 409.968,1087.08 416.884,1082.27 423.801,1077.54 430.717,1072.86 437.633,1068.26 444.549,1063.71 451.465,1059.23 458.381,1054.8 465.297,1050.42 472.213,1046.1 479.129,1041.82 486.045,1037.6 492.961,1033.42 499.877,1029.29 506.793,1025.2 513.709,1021.15 520.625,1017.15 527.541,1013.18 534.457,1009.25 541.373,1005.36 555.205,997.693 562.122,993.909 569.038,990.159 575.954,986.442 582.87,982.756 589.786,979.101 596.702,975.476 603.618,971.881 610.534,968.314 617.45,964.775 624.366,961.264 631.282,957.779 638.198,954.32 645.114,950.887 652.03,947.478 658.946,944.094 665.862,940.733 672.778,937.396 679.694,934.082 686.61,930.79 700.443,924.271 707.359,921.044 714.275,917.837 721.191,914.65 728.107,911.483 735.023,908.335 741.939,905.207 748.855,902.098 755.771,899.006 762.687,895.933 776.519,889.84 783.435,886.819 790.351,883.816 797.267,880.828 804.183,877.857 811.099,874.902 818.015,871.963 824.931,869.04 831.847,866.131 838.764,863.238 845.68,860.36 852.596,857.496 859.512,854.646 866.428,851.811 873.344,848.989 880.26,846.181 887.176,843.387 894.092,840.606 901.008,837.838 907.924,835.084 914.84,832.341 921.756,829.612 928.672,826.895 935.588,824.19 942.504,821.497 949.42,818.816 956.336,816.147 977.085,808.209 984.001,805.585 990.917,802.973 997.833,800.371 1004.75,797.78 1011.66,795.2 1025.5,790.07 1039.33,784.982 1046.24,782.452 1053.16,779.933 1060.08,777.423 1066.99,774.923 1080.83,769.952 1087.74,767.48 1094.66,765.017 1108.49,760.12 1115.41,757.691 1122.32,755.277 1129.24,752.878 1136.15,750.494 1143.07,748.125 1149.99,745.77 1156.9,743.429 1163.82,741.103 1170.73,738.79 1177.65,736.49 1184.57,734.205 1191.48,731.932 1198.4,729.673 1205.31,727.426 1219.15,722.972 1226.06,720.767 1232.98,718.576 1239.89,716.4 1246.81,714.237 1253.73,712.088 1260.64,709.952 1274.47,705.722 1281.39,703.626 1288.31,701.543 1295.22,699.472 1302.14,697.414 1309.05,695.369 1315.97,693.335 1329.8,689.304 1336.72,687.307 1343.64,685.32 1357.47,681.382 1364.38,679.429 1371.3,677.488 1378.22,675.557 1385.13,673.637 1392.05,671.728 1398.96,669.829 1405.88,667.941 1412.8,666.062 1419.71,664.194 1433.54,660.487 1440.46,658.649 1454.29,655 1461.21,653.19 1475.04,649.598 1481.96,647.815 1495.79,644.277 1502.7,642.522 1509.62,640.775 1537.28,633.872 1544.2,632.167 1558.03,628.782 1564.95,627.101 1571.86,625.428 1599.53,618.815 1613.36,615.554 1647.94,607.529 1689.44,598.131 1696.35,596.588 1703.27,595.051 1710.19,280.698 1717.1,591.998 1744.77,585.968 1793.18,575.651 1800.09,574.201 1807.01,572.756 1834.67,567.034 1841.59,565.618 1973,539.69 2007.58,533.158 2028.32,194.197 2049.07,525.468 2055.99,524.202 2090.57,517.934 2152.81,506.908 2166.65,160.256 2187.39,500.92 2228.89,493.856 2277.3,485.778 2291.13,483.501 "/>
</svg>
