<?xml version="1.0" encoding="utf-8"?>
<svg xmlns="http://www.w3.org/2000/svg" xmlns:xlink="http://www.w3.org/1999/xlink" width="600" height="400" viewBox="0 0 2400 1600">
<defs>
  <clipPath id="clip470">
    <rect x="0" y="0" width="2400" height="1600"/>
  </clipPath>
</defs>
<path clip-path="url(#clip470)" d="M0 1600 L2400 1600 L2400 8.88178e-14 L0 8.88178e-14  Z" fill="#ffffff" fill-rule="evenodd" fill-opacity="1"/>
<defs>
  <clipPath id="clip471">
    <rect x="480" y="0" width="1681" height="1600"/>
  </clipPath>
</defs>
<path clip-path="url(#clip470)" d="M175.445 1423.18 L2352.76 1423.18 L2352.76 123.472 L175.445 123.472  Z" fill="#ffffff" fill-rule="evenodd" fill-opacity="1"/>
<defs>
  <clipPath id="clip472">
    <rect x="175" y="123" width="2178" height="1301"/>
  </clipPath>
</defs>
<polyline clip-path="url(#clip472)" style="stroke:#000000; stroke-linecap:round; stroke-linejoin:round; stroke-width:2; stroke-opacity:0.1; fill:none" points="223.235,1423.18 223.235,123.472 "/>
<polyline clip-path="url(#clip472)" style="stroke:#000000; stroke-linecap:round; stroke-linejoin:round; stroke-width:2; stroke-opacity:0.1; fill:none" points="914.84,1423.18 914.84,123.472 "/>
<polyline clip-path="url(#clip472)" style="stroke:#000000; stroke-linecap:round; stroke-linejoin:round; stroke-width:2; stroke-opacity:0.1; fill:none" points="1606.45,1423.18 1606.45,123.472 "/>
<polyline clip-path="url(#clip472)" style="stroke:#000000; stroke-linecap:round; stroke-linejoin:round; stroke-width:2; stroke-opacity:0.1; fill:none" points="2298.05,1423.18 2298.05,123.472 "/>
<polyline clip-path="url(#clip472)" style="stroke:#000000; stroke-linecap:round; stroke-linejoin:round; stroke-width:2; stroke-opacity:0.1; fill:none" points="175.445,1248.57 2352.76,1248.57 "/>
<polyline clip-path="url(#clip472)" style="stroke:#000000; stroke-linecap:round; stroke-linejoin:round; stroke-width:2; stroke-opacity:0.1; fill:none" points="175.445,1049.93 2352.76,1049.93 "/>
<polyline clip-path="url(#clip472)" style="stroke:#000000; stroke-linecap:round; stroke-linejoin:round; stroke-width:2; stroke-opacity:0.1; fill:none" points="175.445,851.296 2352.76,851.296 "/>
<polyline clip-path="url(#clip472)" style="stroke:#000000; stroke-linecap:round; stroke-linejoin:round; stroke-width:2; stroke-opacity:0.1; fill:none" points="175.445,652.662 2352.76,652.662 "/>
<polyline clip-path="url(#clip472)" style="stroke:#000000; stroke-linecap:round; stroke-linejoin:round; stroke-width:2; stroke-opacity:0.1; fill:none" points="175.445,454.027 2352.76,454.027 "/>
<polyline clip-path="url(#clip472)" style="stroke:#000000; stroke-linecap:round; stroke-linejoin:round; stroke-width:2; stroke-opacity:0.1; fill:none" points="175.445,255.393 2352.76,255.393 "/>
<polyline clip-path="url(#clip470)" style="stroke:#000000; stroke-linecap:round; stroke-linejoin:round; stroke-width:4; stroke-opacity:1; fill:none" points="175.445,1423.18 2352.76,1423.18 "/>
<polyline clip-path="url(#clip470)" style="stroke:#000000; stroke-linecap:round; stroke-linejoin:round; stroke-width:4; stroke-opacity:1; fill:none" points="223.235,1423.18 223.235,1404.28 "/>
<polyline clip-path="url(#clip470)" style="stroke:#000000; stroke-linecap:round; stroke-linejoin:round; stroke-width:4; stroke-opacity:1; fill:none" points="914.84,1423.18 914.84,1404.28 "/>
<polyline clip-path="url(#clip470)" style="stroke:#000000; stroke-linecap:round; stroke-linejoin:round; stroke-width:4; stroke-opacity:1; fill:none" points="1606.45,1423.18 1606.45,1404.28 "/>
<polyline clip-path="url(#clip470)" style="stroke:#000000; stroke-linecap:round; stroke-linejoin:round; stroke-width:4; stroke-opacity:1; fill:none" points="2298.05,1423.18 2298.05,1404.28 "/>
<path clip-path="url(#clip470)" d="M223.235 1454.1 Q219.624 1454.1 217.795 1457.66 Q215.99 1461.2 215.99 1468.33 Q215.99 1475.44 217.795 1479.01 Q219.624 1482.55 223.235 1482.55 Q226.869 1482.55 228.675 1479.01 Q230.504 1475.44 230.504 1468.33 Q230.504 1461.2 228.675 1457.66 Q226.869 1454.1 223.235 1454.1 M223.235 1450.39 Q229.045 1450.39 232.101 1455 Q235.179 1459.58 235.179 1468.33 Q235.179 1477.06 232.101 1481.67 Q229.045 1486.25 223.235 1486.25 Q217.425 1486.25 214.346 1481.67 Q211.291 1477.06 211.291 1468.33 Q211.291 1459.58 214.346 1455 Q217.425 1450.39 223.235 1450.39 Z" fill="#000000" fill-rule="nonzero" fill-opacity="1" /><path clip-path="url(#clip470)" d="M874.447 1481.64 L882.086 1481.64 L882.086 1455.28 L873.775 1456.95 L873.775 1452.69 L882.039 1451.02 L886.715 1451.02 L886.715 1481.64 L894.354 1481.64 L894.354 1485.58 L874.447 1485.58 L874.447 1481.64 Z" fill="#000000" fill-rule="nonzero" fill-opacity="1" /><path clip-path="url(#clip470)" d="M913.798 1454.1 Q910.187 1454.1 908.359 1457.66 Q906.553 1461.2 906.553 1468.33 Q906.553 1475.44 908.359 1479.01 Q910.187 1482.55 913.798 1482.55 Q917.433 1482.55 919.238 1479.01 Q921.067 1475.44 921.067 1468.33 Q921.067 1461.2 919.238 1457.66 Q917.433 1454.1 913.798 1454.1 M913.798 1450.39 Q919.609 1450.39 922.664 1455 Q925.743 1459.58 925.743 1468.33 Q925.743 1477.06 922.664 1481.67 Q919.609 1486.25 913.798 1486.25 Q907.988 1486.25 904.91 1481.67 Q901.854 1477.06 901.854 1468.33 Q901.854 1459.58 904.91 1455 Q907.988 1450.39 913.798 1450.39 Z" fill="#000000" fill-rule="nonzero" fill-opacity="1" /><path clip-path="url(#clip470)" d="M943.96 1454.1 Q940.349 1454.1 938.52 1457.66 Q936.715 1461.2 936.715 1468.33 Q936.715 1475.44 938.52 1479.01 Q940.349 1482.55 943.96 1482.55 Q947.595 1482.55 949.4 1479.01 Q951.229 1475.44 951.229 1468.33 Q951.229 1461.2 949.4 1457.66 Q947.595 1454.1 943.96 1454.1 M943.96 1450.39 Q949.77 1450.39 952.826 1455 Q955.905 1459.58 955.905 1468.33 Q955.905 1477.06 952.826 1481.67 Q949.77 1486.25 943.96 1486.25 Q938.15 1486.25 935.071 1481.67 Q932.016 1477.06 932.016 1468.33 Q932.016 1459.58 935.071 1455 Q938.15 1450.39 943.96 1450.39 Z" fill="#000000" fill-rule="nonzero" fill-opacity="1" /><path clip-path="url(#clip470)" d="M1570.14 1481.64 L1586.46 1481.64 L1586.46 1485.58 L1564.51 1485.58 L1564.51 1481.64 Q1567.17 1478.89 1571.76 1474.26 Q1576.36 1469.61 1577.54 1468.27 Q1579.79 1465.74 1580.67 1464.01 Q1581.57 1462.25 1581.57 1460.56 Q1581.57 1457.8 1579.63 1456.07 Q1577.71 1454.33 1574.6 1454.33 Q1572.41 1454.33 1569.95 1455.09 Q1567.52 1455.86 1564.74 1457.41 L1564.74 1452.69 Q1567.57 1451.55 1570.02 1450.97 Q1572.48 1450.39 1574.51 1450.39 Q1579.88 1450.39 1583.08 1453.08 Q1586.27 1455.77 1586.27 1460.26 Q1586.27 1462.39 1585.46 1464.31 Q1584.67 1466.2 1582.57 1468.8 Q1581.99 1469.47 1578.89 1472.69 Q1575.79 1475.88 1570.14 1481.64 Z" fill="#000000" fill-rule="nonzero" fill-opacity="1" /><path clip-path="url(#clip470)" d="M1606.27 1454.1 Q1602.66 1454.1 1600.83 1457.66 Q1599.03 1461.2 1599.03 1468.33 Q1599.03 1475.44 1600.83 1479.01 Q1602.66 1482.55 1606.27 1482.55 Q1609.91 1482.55 1611.71 1479.01 Q1613.54 1475.44 1613.54 1468.33 Q1613.54 1461.2 1611.71 1457.66 Q1609.91 1454.1 1606.27 1454.1 M1606.27 1450.39 Q1612.08 1450.39 1615.14 1455 Q1618.22 1459.58 1618.22 1468.33 Q1618.22 1477.06 1615.14 1481.67 Q1612.08 1486.25 1606.27 1486.25 Q1600.46 1486.25 1597.38 1481.67 Q1594.33 1477.06 1594.33 1468.33 Q1594.33 1459.58 1597.38 1455 Q1600.46 1450.39 1606.27 1450.39 Z" fill="#000000" fill-rule="nonzero" fill-opacity="1" /><path clip-path="url(#clip470)" d="M1636.43 1454.1 Q1632.82 1454.1 1630.99 1457.66 Q1629.19 1461.2 1629.19 1468.33 Q1629.19 1475.44 1630.99 1479.01 Q1632.82 1482.55 1636.43 1482.55 Q1640.07 1482.55 1641.87 1479.01 Q1643.7 1475.44 1643.7 1468.33 Q1643.7 1461.2 1641.87 1457.66 Q1640.07 1454.1 1636.43 1454.1 M1636.43 1450.39 Q1642.24 1450.39 1645.3 1455 Q1648.38 1459.58 1648.38 1468.33 Q1648.38 1477.06 1645.3 1481.67 Q1642.24 1486.25 1636.43 1486.25 Q1630.62 1486.25 1627.54 1481.67 Q1624.49 1477.06 1624.49 1468.33 Q1624.49 1459.58 1627.54 1455 Q1630.62 1450.39 1636.43 1450.39 Z" fill="#000000" fill-rule="nonzero" fill-opacity="1" /><path clip-path="url(#clip470)" d="M2271.81 1466.95 Q2275.17 1467.66 2277.04 1469.93 Q2278.94 1472.2 2278.94 1475.53 Q2278.94 1480.65 2275.42 1483.45 Q2271.9 1486.25 2265.42 1486.25 Q2263.25 1486.25 2260.93 1485.81 Q2258.64 1485.39 2256.19 1484.54 L2256.19 1480.02 Q2258.13 1481.16 2260.45 1481.74 Q2262.76 1482.32 2265.28 1482.32 Q2269.68 1482.32 2271.97 1480.58 Q2274.29 1478.84 2274.29 1475.53 Q2274.29 1472.48 2272.14 1470.77 Q2270.01 1469.03 2266.19 1469.03 L2262.16 1469.03 L2262.16 1465.19 L2266.37 1465.19 Q2269.82 1465.19 2271.65 1463.82 Q2273.48 1462.43 2273.48 1459.84 Q2273.48 1457.18 2271.58 1455.77 Q2269.71 1454.33 2266.19 1454.33 Q2264.27 1454.33 2262.07 1454.75 Q2259.87 1455.16 2257.23 1456.04 L2257.23 1451.88 Q2259.89 1451.14 2262.21 1450.77 Q2264.54 1450.39 2266.6 1450.39 Q2271.93 1450.39 2275.03 1452.83 Q2278.13 1455.23 2278.13 1459.35 Q2278.13 1462.22 2276.49 1464.21 Q2274.84 1466.18 2271.81 1466.95 Z" fill="#000000" fill-rule="nonzero" fill-opacity="1" /><path clip-path="url(#clip470)" d="M2297.81 1454.1 Q2294.2 1454.1 2292.37 1457.66 Q2290.56 1461.2 2290.56 1468.33 Q2290.56 1475.44 2292.37 1479.01 Q2294.2 1482.55 2297.81 1482.55 Q2301.44 1482.55 2303.25 1479.01 Q2305.08 1475.44 2305.08 1468.33 Q2305.08 1461.2 2303.25 1457.66 Q2301.44 1454.1 2297.81 1454.1 M2297.81 1450.39 Q2303.62 1450.39 2306.67 1455 Q2309.75 1459.58 2309.75 1468.33 Q2309.75 1477.06 2306.67 1481.67 Q2303.62 1486.25 2297.81 1486.25 Q2292 1486.25 2288.92 1481.67 Q2285.86 1477.06 2285.86 1468.33 Q2285.86 1459.58 2288.92 1455 Q2292 1450.39 2297.81 1450.39 Z" fill="#000000" fill-rule="nonzero" fill-opacity="1" /><path clip-path="url(#clip470)" d="M2327.97 1454.1 Q2324.36 1454.1 2322.53 1457.66 Q2320.72 1461.2 2320.72 1468.33 Q2320.72 1475.44 2322.53 1479.01 Q2324.36 1482.55 2327.97 1482.55 Q2331.6 1482.55 2333.41 1479.01 Q2335.24 1475.44 2335.24 1468.33 Q2335.24 1461.2 2333.41 1457.66 Q2331.6 1454.1 2327.97 1454.1 M2327.97 1450.39 Q2333.78 1450.39 2336.83 1455 Q2339.91 1459.58 2339.91 1468.33 Q2339.91 1477.06 2336.83 1481.67 Q2333.78 1486.25 2327.97 1486.25 Q2322.16 1486.25 2319.08 1481.67 Q2316.02 1477.06 2316.02 1468.33 Q2316.02 1459.58 2319.08 1455 Q2322.16 1450.39 2327.97 1450.39 Z" fill="#000000" fill-rule="nonzero" fill-opacity="1" /><path clip-path="url(#clip470)" d="M1264.99 1524.09 L1281.45 1568.04 L1275.24 1568.04 L1265.25 1541.69 L1252.96 1568.04 L1246.75 1568.04 L1262.38 1533.86 L1260.03 1527.56 Q1258.53 1523.55 1255.12 1523.55 L1252.07 1523.55 L1252.07 1518.52 L1255.79 1518.58 Q1262.99 1518.68 1264.99 1524.09 Z" fill="#000000" fill-rule="nonzero" fill-opacity="1" /><polyline clip-path="url(#clip470)" style="stroke:#000000; stroke-linecap:round; stroke-linejoin:round; stroke-width:4; stroke-opacity:1; fill:none" points="175.445,1423.18 175.445,123.472 "/>
<polyline clip-path="url(#clip470)" style="stroke:#000000; stroke-linecap:round; stroke-linejoin:round; stroke-width:4; stroke-opacity:1; fill:none" points="175.445,1248.57 194.343,1248.57 "/>
<polyline clip-path="url(#clip470)" style="stroke:#000000; stroke-linecap:round; stroke-linejoin:round; stroke-width:4; stroke-opacity:1; fill:none" points="175.445,1049.93 194.343,1049.93 "/>
<polyline clip-path="url(#clip470)" style="stroke:#000000; stroke-linecap:round; stroke-linejoin:round; stroke-width:4; stroke-opacity:1; fill:none" points="175.445,851.296 194.343,851.296 "/>
<polyline clip-path="url(#clip470)" style="stroke:#000000; stroke-linecap:round; stroke-linejoin:round; stroke-width:4; stroke-opacity:1; fill:none" points="175.445,652.662 194.343,652.662 "/>
<polyline clip-path="url(#clip470)" style="stroke:#000000; stroke-linecap:round; stroke-linejoin:round; stroke-width:4; stroke-opacity:1; fill:none" points="175.445,454.027 194.343,454.027 "/>
<polyline clip-path="url(#clip470)" style="stroke:#000000; stroke-linecap:round; stroke-linejoin:round; stroke-width:4; stroke-opacity:1; fill:none" points="175.445,255.393 194.343,255.393 "/>
<path clip-path="url(#clip470)" d="M129.862 1235.36 L118.056 1253.81 L129.862 1253.81 L129.862 1235.36 M128.635 1231.29 L134.515 1231.29 L134.515 1253.81 L139.445 1253.81 L139.445 1257.7 L134.515 1257.7 L134.515 1265.85 L129.862 1265.85 L129.862 1257.7 L114.26 1257.7 L114.26 1253.18 L128.635 1231.29 Z" fill="#000000" fill-rule="nonzero" fill-opacity="1" /><path clip-path="url(#clip470)" d="M118.543 1032.65 L136.899 1032.65 L136.899 1036.59 L122.825 1036.59 L122.825 1045.06 Q123.843 1044.71 124.862 1044.55 Q125.88 1044.36 126.899 1044.36 Q132.686 1044.36 136.066 1047.53 Q139.445 1050.71 139.445 1056.12 Q139.445 1061.7 135.973 1064.8 Q132.501 1067.88 126.181 1067.88 Q124.005 1067.88 121.737 1067.51 Q119.492 1067.14 117.084 1066.4 L117.084 1061.7 Q119.168 1062.84 121.39 1063.39 Q123.612 1063.95 126.089 1063.95 Q130.093 1063.95 132.431 1061.84 Q134.769 1059.73 134.769 1056.12 Q134.769 1052.51 132.431 1050.41 Q130.093 1048.3 126.089 1048.3 Q124.214 1048.3 122.339 1048.72 Q120.487 1049.13 118.543 1050.01 L118.543 1032.65 Z" fill="#000000" fill-rule="nonzero" fill-opacity="1" /><path clip-path="url(#clip470)" d="M127.917 849.433 Q124.769 849.433 122.918 851.585 Q121.089 853.738 121.089 857.488 Q121.089 861.215 122.918 863.391 Q124.769 865.544 127.917 865.544 Q131.066 865.544 132.894 863.391 Q134.746 861.215 134.746 857.488 Q134.746 853.738 132.894 851.585 Q131.066 849.433 127.917 849.433 M137.2 834.78 L137.2 839.039 Q135.441 838.206 133.635 837.766 Q131.853 837.326 130.093 837.326 Q125.464 837.326 123.01 840.451 Q120.58 843.576 120.232 849.896 Q121.598 847.882 123.658 846.817 Q125.718 845.729 128.195 845.729 Q133.404 845.729 136.413 848.9 Q139.445 852.048 139.445 857.488 Q139.445 862.812 136.297 866.03 Q133.149 869.247 127.917 869.247 Q121.922 869.247 118.751 864.664 Q115.58 860.058 115.58 851.331 Q115.58 843.136 119.468 838.275 Q123.357 833.391 129.908 833.391 Q131.667 833.391 133.45 833.738 Q135.255 834.085 137.2 834.78 Z" fill="#000000" fill-rule="nonzero" fill-opacity="1" /><path clip-path="url(#clip470)" d="M117.223 635.382 L139.445 635.382 L139.445 637.372 L126.899 669.942 L122.015 669.942 L133.82 639.317 L117.223 639.317 L117.223 635.382 Z" fill="#000000" fill-rule="nonzero" fill-opacity="1" /><path clip-path="url(#clip470)" d="M127.593 454.895 Q124.26 454.895 122.339 456.678 Q120.441 458.46 120.441 461.585 Q120.441 464.71 122.339 466.492 Q124.26 468.275 127.593 468.275 Q130.927 468.275 132.848 466.492 Q134.769 464.687 134.769 461.585 Q134.769 458.46 132.848 456.678 Q130.95 454.895 127.593 454.895 M122.918 452.904 Q119.908 452.164 118.218 450.104 Q116.552 448.043 116.552 445.08 Q116.552 440.937 119.492 438.529 Q122.455 436.122 127.593 436.122 Q132.755 436.122 135.695 438.529 Q138.635 440.937 138.635 445.08 Q138.635 448.043 136.945 450.104 Q135.279 452.164 132.292 452.904 Q135.672 453.691 137.547 455.983 Q139.445 458.275 139.445 461.585 Q139.445 466.608 136.367 469.293 Q133.311 471.978 127.593 471.978 Q121.876 471.978 118.797 469.293 Q115.742 466.608 115.742 461.585 Q115.742 458.275 117.64 455.983 Q119.538 453.691 122.918 452.904 M121.205 445.52 Q121.205 448.205 122.871 449.71 Q124.561 451.215 127.593 451.215 Q130.603 451.215 132.292 449.71 Q134.005 448.205 134.005 445.52 Q134.005 442.835 132.292 441.33 Q130.603 439.826 127.593 439.826 Q124.561 439.826 122.871 441.33 Q121.205 442.835 121.205 445.52 Z" fill="#000000" fill-rule="nonzero" fill-opacity="1" /><path clip-path="url(#clip470)" d="M117.825 271.955 L117.825 267.696 Q119.584 268.529 121.39 268.969 Q123.195 269.409 124.931 269.409 Q129.561 269.409 131.992 266.307 Q134.445 263.182 134.792 256.839 Q133.45 258.83 131.39 259.895 Q129.33 260.96 126.83 260.96 Q121.644 260.96 118.612 257.835 Q115.603 254.687 115.603 249.247 Q115.603 243.923 118.751 240.705 Q121.899 237.488 127.13 237.488 Q133.126 237.488 136.274 242.094 Q139.445 246.677 139.445 255.427 Q139.445 263.599 135.556 268.483 Q131.691 273.344 125.14 273.344 Q123.38 273.344 121.575 272.997 Q119.769 272.649 117.825 271.955 M127.13 257.302 Q130.279 257.302 132.107 255.15 Q133.959 252.997 133.959 249.247 Q133.959 245.52 132.107 243.367 Q130.279 241.191 127.13 241.191 Q123.982 241.191 122.13 243.367 Q120.302 245.52 120.302 249.247 Q120.302 252.997 122.13 255.15 Q123.982 257.302 127.13 257.302 Z" fill="#000000" fill-rule="nonzero" fill-opacity="1" /><path clip-path="url(#clip470)" d="M20.8447 920.342 Q20.8447 927.344 26.0645 931.482 Q31.2844 935.588 40.2919 935.588 Q49.2675 935.588 54.4874 931.482 Q59.7073 927.344 59.7073 920.342 Q59.7073 913.34 54.4874 909.266 Q49.2675 905.16 40.2919 905.16 Q31.2844 905.16 26.0645 909.266 Q20.8447 913.34 20.8447 920.342 M15.6248 920.342 Q15.6248 910.348 22.3406 904.364 Q29.0246 898.38 40.2919 898.38 Q51.5274 898.38 58.2432 904.364 Q64.9272 910.348 64.9272 920.342 Q64.9272 930.368 58.2432 936.384 Q51.5592 942.367 40.2919 942.367 Q29.0246 942.367 22.3406 936.384 Q15.6248 930.368 15.6248 920.342 Z" fill="#000000" fill-rule="nonzero" fill-opacity="1" /><path clip-path="url(#clip470)" d="M58.657 882.912 L77.5631 882.912 L77.5631 888.8 L28.3562 888.8 L28.3562 882.912 L33.7671 882.912 Q30.5842 881.066 29.0564 878.265 Q27.4968 875.432 27.4968 871.517 Q27.4968 865.024 32.6531 860.982 Q37.8093 856.908 46.212 856.908 Q54.6147 856.908 59.771 860.982 Q64.9272 865.024 64.9272 871.517 Q64.9272 875.432 63.3994 878.265 Q61.8398 881.066 58.657 882.912 M46.212 862.987 Q39.7508 862.987 36.0905 865.661 Q32.3984 868.302 32.3984 872.949 Q32.3984 877.596 36.0905 880.27 Q39.7508 882.912 46.212 882.912 Q52.6732 882.912 56.3653 880.27 Q60.0256 877.596 60.0256 872.949 Q60.0256 868.302 56.3653 865.661 Q52.6732 862.987 46.212 862.987 Z" fill="#000000" fill-rule="nonzero" fill-opacity="1" /><path clip-path="url(#clip470)" d="M18.2347 841.407 L28.3562 841.407 L28.3562 829.344 L32.9077 829.344 L32.9077 841.407 L52.2594 841.407 Q56.6199 841.407 57.8613 840.23 Q59.1026 839.02 59.1026 835.36 L59.1026 829.344 L64.0042 829.344 L64.0042 835.36 Q64.0042 842.139 61.4897 844.717 Q58.9434 847.295 52.2594 847.295 L32.9077 847.295 L32.9077 851.592 L28.3562 851.592 L28.3562 847.295 L18.2347 847.295 L18.2347 841.407 Z" fill="#000000" fill-rule="nonzero" fill-opacity="1" /><path clip-path="url(#clip470)" d="M28.3562 821.642 L28.3562 815.785 L64.0042 815.785 L64.0042 821.642 L28.3562 821.642 M14.479 821.642 L14.479 815.785 L21.895 815.785 L21.895 821.642 L14.479 821.642 Z" fill="#000000" fill-rule="nonzero" fill-opacity="1" /><path clip-path="url(#clip470)" d="M35.1993 775.777 Q31.2526 773.581 29.3747 770.525 Q27.4968 767.47 27.4968 763.332 Q27.4968 757.762 31.4117 754.738 Q35.2948 751.714 42.4881 751.714 L64.0042 751.714 L64.0042 757.603 L42.679 757.603 Q37.5546 757.603 35.072 759.417 Q32.5894 761.231 32.5894 764.955 Q32.5894 769.507 35.6131 772.148 Q38.6368 774.79 43.8567 774.79 L64.0042 774.79 L64.0042 780.678 L42.679 780.678 Q37.5228 780.678 35.072 782.493 Q32.5894 784.307 32.5894 788.094 Q32.5894 792.582 35.6449 795.224 Q38.6686 797.866 43.8567 797.866 L64.0042 797.866 L64.0042 803.754 L28.3562 803.754 L28.3562 797.866 L33.8944 797.866 Q30.616 795.861 29.0564 793.06 Q27.4968 790.259 27.4968 786.408 Q27.4968 782.524 29.4702 779.819 Q31.4436 777.082 35.1993 775.777 Z" fill="#000000" fill-rule="nonzero" fill-opacity="1" /><path clip-path="url(#clip470)" d="M46.0847 723.833 Q46.0847 730.93 47.7079 733.668 Q49.3312 736.405 53.2461 736.405 Q56.3653 736.405 58.2114 734.368 Q60.0256 732.299 60.0256 728.766 Q60.0256 723.896 56.5881 720.968 Q53.1188 718.008 47.3897 718.008 L46.0847 718.008 L46.0847 723.833 M43.6657 712.152 L64.0042 712.152 L64.0042 718.008 L58.5933 718.008 Q61.8398 720.013 63.3994 723.005 Q64.9272 725.997 64.9272 730.326 Q64.9272 735.8 61.8716 739.047 Q58.7843 742.261 53.6281 742.261 Q47.6125 742.261 44.5569 738.251 Q41.5014 734.209 41.5014 726.22 L41.5014 718.008 L40.9285 718.008 Q36.8862 718.008 34.6901 720.682 Q32.4621 723.323 32.4621 728.129 Q32.4621 731.185 33.1941 734.081 Q33.9262 736.978 35.3903 739.651 L29.9795 739.651 Q28.7381 736.437 28.1334 733.413 Q27.4968 730.389 27.4968 727.525 Q27.4968 719.79 31.5072 715.971 Q35.5176 712.152 43.6657 712.152 Z" fill="#000000" fill-rule="nonzero" fill-opacity="1" /><path clip-path="url(#clip470)" d="M14.479 700.089 L14.479 694.232 L64.0042 694.232 L64.0042 700.089 L14.479 700.089 Z" fill="#000000" fill-rule="nonzero" fill-opacity="1" /><path clip-path="url(#clip470)" d="M57.5111 643.784 Q59.0389 642.638 59.0389 639.201 L59.0389 636.368 L64.0042 636.368 L64.0042 639.901 Q64.0042 645.63 60.9486 648.24 Q57.8294 650.85 51.0818 650.85 L34.2127 650.85 L34.2127 664.218 L28.3562 664.218 L28.3562 631.339 L34.2127 631.339 L34.2127 644.866 L51.4319 644.866 Q56.047 644.866 57.5111 643.784 Z" fill="#000000" fill-rule="nonzero" fill-opacity="1" /><path clip-path="url(#clip470)" d="M42.4562 610.014 Q39.719 611.605 39.719 614.82 Q39.719 618.035 42.4562 619.626 Q45.1935 621.249 50.668 621.249 Q56.1743 621.249 58.9116 619.626 Q61.6488 618.035 61.6488 614.82 Q61.6488 611.605 58.9116 610.014 Q56.1743 608.391 50.668 608.391 Q45.1935 608.391 42.4562 610.014 M36.8862 614.82 Q36.8862 609.695 40.4192 606.99 Q43.9522 604.285 50.668 604.285 Q57.4157 604.285 60.9486 606.99 Q64.4816 609.695 64.4816 614.82 Q64.4816 619.976 60.9486 622.682 Q57.4157 625.387 50.668 625.387 Q43.9522 625.387 40.4192 622.682 Q36.8862 619.976 36.8862 614.82 Z" fill="#000000" fill-rule="nonzero" fill-opacity="1" /><path clip-path="url(#clip470)" d="M960.323 17.6457 Q951.411 17.6457 946.145 24.2892 Q940.919 30.9327 940.919 42.3968 Q940.919 53.8203 946.145 60.4638 Q951.411 67.1073 960.323 67.1073 Q969.235 67.1073 974.42 60.4638 Q979.646 53.8203 979.646 42.3968 Q979.646 30.9327 974.42 24.2892 Q969.235 17.6457 960.323 17.6457 M960.323 11.0023 Q973.043 11.0023 980.659 19.5497 Q988.274 28.0566 988.274 42.3968 Q988.274 56.6965 980.659 65.2439 Q973.043 73.7508 960.323 73.7508 Q947.563 73.7508 939.907 65.2439 Q932.291 56.737 932.291 42.3968 Q932.291 28.0566 939.907 19.5497 Q947.563 11.0023 960.323 11.0023 Z" fill="#000000" fill-rule="nonzero" fill-opacity="1" /><path clip-path="url(#clip470)" d="M1007.96 65.7705 L1007.96 89.8329 L1000.47 89.8329 L1000.47 27.2059 L1007.96 27.2059 L1007.96 34.0924 Q1010.31 30.0415 1013.88 28.0971 Q1017.48 26.1121 1022.46 26.1121 Q1030.73 26.1121 1035.87 32.6746 Q1041.06 39.2371 1041.06 49.9314 Q1041.06 60.6258 1035.87 67.1883 Q1030.73 73.7508 1022.46 73.7508 Q1017.48 73.7508 1013.88 71.8063 Q1010.31 69.8214 1007.96 65.7705 M1033.32 49.9314 Q1033.32 41.7081 1029.92 37.0496 Q1026.56 32.3505 1020.64 32.3505 Q1014.73 32.3505 1011.32 37.0496 Q1007.96 41.7081 1007.96 49.9314 Q1007.96 58.1548 1011.32 62.8538 Q1014.73 67.5124 1020.64 67.5124 Q1026.56 67.5124 1029.92 62.8538 Q1033.32 58.1548 1033.32 49.9314 Z" fill="#000000" fill-rule="nonzero" fill-opacity="1" /><path clip-path="url(#clip470)" d="M1060.79 14.324 L1060.79 27.2059 L1076.14 27.2059 L1076.14 32.9987 L1060.79 32.9987 L1060.79 57.6282 Q1060.79 63.1779 1062.28 64.7578 Q1063.82 66.3376 1068.48 66.3376 L1076.14 66.3376 L1076.14 72.576 L1068.48 72.576 Q1059.85 72.576 1056.57 69.3758 Q1053.29 66.1351 1053.29 57.6282 L1053.29 32.9987 L1047.82 32.9987 L1047.82 27.2059 L1053.29 27.2059 L1053.29 14.324 L1060.79 14.324 Z" fill="#000000" fill-rule="nonzero" fill-opacity="1" /><path clip-path="url(#clip470)" d="M1085.94 27.2059 L1093.4 27.2059 L1093.4 72.576 L1085.94 72.576 L1085.94 27.2059 M1085.94 9.54393 L1093.4 9.54393 L1093.4 18.9825 L1085.94 18.9825 L1085.94 9.54393 Z" fill="#000000" fill-rule="nonzero" fill-opacity="1" /><path clip-path="url(#clip470)" d="M1144.32 35.9153 Q1147.11 30.8922 1151 28.5022 Q1154.89 26.1121 1160.15 26.1121 Q1167.24 26.1121 1171.09 31.0947 Q1174.94 36.0368 1174.94 45.1919 L1174.94 72.576 L1167.45 72.576 L1167.45 45.4349 Q1167.45 38.913 1165.14 35.7533 Q1162.83 32.5936 1158.09 32.5936 Q1152.3 32.5936 1148.93 36.4419 Q1145.57 40.2903 1145.57 46.9338 L1145.57 72.576 L1138.08 72.576 L1138.08 45.4349 Q1138.08 38.8725 1135.77 35.7533 Q1133.46 32.5936 1128.64 32.5936 Q1122.93 32.5936 1119.56 36.4824 Q1116.2 40.3308 1116.2 46.9338 L1116.2 72.576 L1108.71 72.576 L1108.71 27.2059 L1116.2 27.2059 L1116.2 34.2544 Q1118.75 30.082 1122.32 28.0971 Q1125.88 26.1121 1130.79 26.1121 Q1135.73 26.1121 1139.17 28.6237 Q1142.65 31.1352 1144.32 35.9153 Z" fill="#000000" fill-rule="nonzero" fill-opacity="1" /><path clip-path="url(#clip470)" d="M1210.43 49.7694 Q1201.39 49.7694 1197.91 51.8354 Q1194.43 53.9013 1194.43 58.8839 Q1194.43 62.8538 1197.02 65.2034 Q1199.65 67.5124 1204.15 67.5124 Q1210.35 67.5124 1214.07 63.1374 Q1217.84 58.7219 1217.84 51.4303 L1217.84 49.7694 L1210.43 49.7694 M1225.29 46.6907 L1225.29 72.576 L1217.84 72.576 L1217.84 65.6895 Q1215.29 69.8214 1211.48 71.8063 Q1207.67 73.7508 1202.16 73.7508 Q1195.19 73.7508 1191.06 69.8619 Q1186.97 65.9325 1186.97 59.3701 Q1186.97 51.7138 1192.08 47.825 Q1197.22 43.9361 1207.39 43.9361 L1217.84 43.9361 L1217.84 43.2069 Q1217.84 38.0623 1214.44 35.2672 Q1211.07 32.4315 1204.96 32.4315 Q1201.07 32.4315 1197.38 33.3632 Q1193.7 34.295 1190.29 36.1584 L1190.29 29.2718 Q1194.38 27.692 1198.23 26.9223 Q1202.08 26.1121 1205.73 26.1121 Q1215.57 26.1121 1220.43 31.2163 Q1225.29 36.3204 1225.29 46.6907 Z" fill="#000000" fill-rule="nonzero" fill-opacity="1" /><path clip-path="url(#clip470)" d="M1240.65 9.54393 L1248.1 9.54393 L1248.1 72.576 L1240.65 72.576 L1240.65 9.54393 Z" fill="#000000" fill-rule="nonzero" fill-opacity="1" /><path clip-path="url(#clip470)" d="M1312.31 64.3122 Q1313.76 66.2566 1318.14 66.2566 L1321.74 66.2566 L1321.74 72.576 L1317.25 72.576 Q1309.96 72.576 1306.64 68.6871 Q1303.31 64.7172 1303.31 56.1293 L1303.31 34.6595 L1286.3 34.6595 L1286.3 27.2059 L1328.15 27.2059 L1328.15 34.6595 L1310.93 34.6595 L1310.93 56.5749 Q1310.93 62.4487 1312.31 64.3122 Z" fill="#000000" fill-rule="nonzero" fill-opacity="1" /><path clip-path="url(#clip470)" d="M1355.29 45.1514 Q1353.26 41.6676 1349.17 41.6676 Q1345.08 41.6676 1343.05 45.1514 Q1340.99 48.6352 1340.99 55.6027 Q1340.99 62.6108 1343.05 66.0946 Q1345.08 69.5783 1349.17 69.5783 Q1353.26 69.5783 1355.29 66.0946 Q1357.35 62.6108 1357.35 55.6027 Q1357.35 48.6352 1355.29 45.1514 M1349.17 38.0623 Q1355.69 38.0623 1359.13 42.5588 Q1362.58 47.0553 1362.58 55.6027 Q1362.58 64.1906 1359.13 68.6871 Q1355.69 73.1836 1349.17 73.1836 Q1342.61 73.1836 1339.16 68.6871 Q1335.72 64.1906 1335.72 55.6027 Q1335.72 47.0553 1339.16 42.5588 Q1342.61 38.0623 1349.17 38.0623 Z" fill="#000000" fill-rule="nonzero" fill-opacity="1" /><path clip-path="url(#clip470)" d="M1375.18 62.2867 L1383.72 62.2867 L1383.72 69.2543 L1377.08 82.2172 L1371.85 82.2172 L1375.18 69.2543 L1375.18 62.2867 Z" fill="#000000" fill-rule="nonzero" fill-opacity="1" /><path clip-path="url(#clip470)" d="M1426.34 12.096 L1437.36 12.096 L1464.17 62.6918 L1464.17 12.096 L1472.11 12.096 L1472.11 72.576 L1461.1 72.576 L1434.28 21.9802 L1434.28 72.576 L1426.34 72.576 L1426.34 12.096 Z" fill="#000000" fill-rule="nonzero" fill-opacity="1" /><path clip-path="url(#clip470)" d="M1489.05 34.9026 L1540.98 34.9026 L1540.98 41.7081 L1489.05 41.7081 L1489.05 34.9026 M1489.05 51.4303 L1540.98 51.4303 L1540.98 58.3168 L1489.05 58.3168 L1489.05 51.4303 Z" fill="#000000" fill-rule="nonzero" fill-opacity="1" /><path clip-path="url(#clip470)" d="M1583.43 39.9662 Q1589.31 41.222 1592.59 45.1919 Q1595.91 49.1618 1595.91 54.9951 Q1595.91 63.9476 1589.75 68.8492 Q1583.6 73.7508 1572.25 73.7508 Q1568.44 73.7508 1564.39 72.9811 Q1560.38 72.2519 1556.09 70.7531 L1556.09 62.8538 Q1559.49 64.8388 1563.54 65.8515 Q1567.59 66.8642 1572.01 66.8642 Q1579.71 66.8642 1583.72 63.826 Q1587.77 60.7879 1587.77 54.9951 Q1587.77 49.6479 1584 46.6502 Q1580.27 43.612 1573.59 43.612 L1566.54 43.612 L1566.54 36.8875 L1573.91 36.8875 Q1579.95 36.8875 1583.15 34.4975 Q1586.35 32.067 1586.35 27.5299 Q1586.35 22.8714 1583.03 20.4004 Q1579.75 17.8888 1573.59 17.8888 Q1570.23 17.8888 1566.38 18.618 Q1562.53 19.3471 1557.91 20.8865 L1557.91 13.5948 Q1562.57 12.2985 1566.62 11.6504 Q1570.71 11.0023 1574.32 11.0023 Q1583.64 11.0023 1589.06 15.2557 Q1594.49 19.4686 1594.49 26.6793 Q1594.49 31.7024 1591.62 35.1862 Q1588.74 38.6294 1583.43 39.9662 Z" fill="#000000" fill-rule="nonzero" fill-opacity="1" /><polyline clip-path="url(#clip472)" style="stroke:#009af9; stroke-linecap:round; stroke-linejoin:round; stroke-width:8; stroke-opacity:1; fill:none" points="237.067,1386.4 243.983,1350.36 250.899,1324.84 264.731,1282.37 271.647,1263.41 285.48,1232.88 292.396,1221.61 299.312,1211.86 313.144,1193.47 320.06,1184.74 326.976,1176.27 333.892,1168.05 340.808,1160.05 347.724,1152.26 354.64,1144.66 361.556,1137.24 368.472,1129.98 375.388,1122.88 382.304,1114.11 389.22,1108.17 396.136,1096.92 403.052,1096.6 409.968,1087.08 416.884,1082.27 423.801,1077.54 430.717,1072.86 437.633,1068.26 444.549,1063.71 451.465,1059.23 458.381,1054.8 465.297,1050.42 472.213,1046.1 479.129,1041.82 486.045,1037.6 492.961,1033.42 499.877,1029.29 506.793,1025.2 513.709,1021.15 520.625,1017.15 527.541,1013.18 534.457,1009.25 541.373,1005.36 555.205,997.693 562.122,993.909 569.038,990.159 575.954,986.442 582.87,982.756 589.786,979.101 596.702,975.476 603.618,971.881 610.534,968.314 617.45,964.775 624.366,961.264 631.282,957.779 638.198,954.32 645.114,950.887 652.03,947.478 658.946,944.094 665.862,940.733 672.778,937.396 679.694,934.082 686.61,930.79 700.443,924.271 707.359,921.044 714.275,917.837 721.191,914.65 728.107,911.483 735.023,908.335 741.939,905.207 748.855,902.098 755.771,899.006 762.687,895.933 776.519,889.84 783.435,886.819 790.351,883.816 797.267,880.828 804.183,877.857 811.099,874.902 818.015,871.963 824.931,869.04 831.847,866.131 838.764,863.238 845.68,860.36 852.596,857.496 859.512,854.646 866.428,851.811 873.344,848.989 880.26,846.181 887.176,843.387 894.092,840.606 901.008,837.838 907.924,835.084 914.84,832.341 921.756,829.612 928.672,826.895 935.588,824.19 942.504,821.497 949.42,818.816 956.336,816.147 977.085,808.209 984.001,805.585 990.917,802.973 997.833,800.371 1004.75,797.78 1011.66,795.2 1025.5,790.07 1039.33,784.982 1046.24,782.452 1053.16,779.933 1060.08,777.423 1066.99,774.923 1080.83,769.952 1087.74,767.48 1094.66,765.017 1108.49,760.12 1115.41,757.691 1122.32,755.277 1129.24,752.878 1136.15,750.494 1143.07,748.125 1149.99,745.77 1156.9,743.429 1163.82,741.103 1170.73,738.79 1177.65,736.49 1184.57,734.205 1191.48,731.932 1198.4,729.673 1205.31,727.426 1219.15,722.972 1226.06,720.767 1232.98,718.576 1239.89,716.4 1246.81,714.237 1253.73,712.088 1260.64,709.952 1274.47,705.722 1281.39,703.626 1288.31,701.543 1295.22,699.472 1302.14,697.414 1309.05,695.369 1315.97,693.335 1329.8,689.304 1336.72,687.307 1343.64,685.32 1357.47,681.382 1364.38,679.429 1371.3,677.488 1378.22,675.557 1385.13,673.637 1392.05,671.728 1398.96,669.829 1405.88,667.941 1412.8,666.062 1419.71,664.194 1433.54,660.487 1440.46,658.649 1454.29,655 1461.21,653.19 1475.04,649.598 1481.96,647.815 1495.79,644.277 1502.7,642.522 1509.62,640.775 1537.28,633.872 1544.2,632.167 1558.03,628.782 1564.95,627.101 1571.86,625.428 1599.53,618.815 1613.36,615.554 1647.94,607.529 1689.44,598.131 1696.35,596.588 1703.27,595.051 1710.19,280.698 1717.1,591.998 1744.77,585.968 1793.18,575.651 1800.09,574.201 1807.01,572.756 1834.67,567.034 1841.59,565.618 1973,539.69 2007.58,533.158 2028.32,194.197 2049.07,525.468 2055.99,524.202 2090.57,517.934 2152.81,506.908 2166.65,160.256 2187.39,500.92 2228.89,493.856 2277.3,485.778 2291.13,483.501 "/>
</svg>
