<?xml version="1.0" encoding="utf-8"?>
<svg xmlns="http://www.w3.org/2000/svg" xmlns:xlink="http://www.w3.org/1999/xlink" width="600" height="400" viewBox="0 0 2400 1600">
<defs>
  <clipPath id="clip100">
    <rect x="0" y="0" width="2400" height="1600"/>
  </clipPath>
</defs>
<path clip-path="url(#clip100)" d="M0 1600 L2400 1600 L2400 8.88178e-14 L0 8.88178e-14  Z" fill="#ffffff" fill-rule="evenodd" fill-opacity="1"/>
<defs>
  <clipPath id="clip101">
    <rect x="480" y="0" width="1681" height="1600"/>
  </clipPath>
</defs>
<path clip-path="url(#clip100)" d="M175.445 1423.18 L2352.76 1423.18 L2352.76 123.472 L175.445 123.472  Z" fill="#ffffff" fill-rule="evenodd" fill-opacity="1"/>
<defs>
  <clipPath id="clip102">
    <rect x="175" y="123" width="2178" height="1301"/>
  </clipPath>
</defs>
<polyline clip-path="url(#clip102)" style="stroke:#000000; stroke-linecap:round; stroke-linejoin:round; stroke-width:2; stroke-opacity:0.1; fill:none" points="237.067,1423.18 237.067,123.472 "/>
<polyline clip-path="url(#clip102)" style="stroke:#000000; stroke-linecap:round; stroke-linejoin:round; stroke-width:2; stroke-opacity:0.1; fill:none" points="933.361,1423.18 933.361,123.472 "/>
<polyline clip-path="url(#clip102)" style="stroke:#000000; stroke-linecap:round; stroke-linejoin:round; stroke-width:2; stroke-opacity:0.1; fill:none" points="1629.65,1423.18 1629.65,123.472 "/>
<polyline clip-path="url(#clip102)" style="stroke:#000000; stroke-linecap:round; stroke-linejoin:round; stroke-width:2; stroke-opacity:0.1; fill:none" points="2325.95,1423.18 2325.95,123.472 "/>
<polyline clip-path="url(#clip102)" style="stroke:#000000; stroke-linecap:round; stroke-linejoin:round; stroke-width:2; stroke-opacity:0.1; fill:none" points="175.445,1329.54 2352.76,1329.54 "/>
<polyline clip-path="url(#clip102)" style="stroke:#000000; stroke-linecap:round; stroke-linejoin:round; stroke-width:2; stroke-opacity:0.1; fill:none" points="175.445,1019.34 2352.76,1019.34 "/>
<polyline clip-path="url(#clip102)" style="stroke:#000000; stroke-linecap:round; stroke-linejoin:round; stroke-width:2; stroke-opacity:0.1; fill:none" points="175.445,709.132 2352.76,709.132 "/>
<polyline clip-path="url(#clip102)" style="stroke:#000000; stroke-linecap:round; stroke-linejoin:round; stroke-width:2; stroke-opacity:0.1; fill:none" points="175.445,398.928 2352.76,398.928 "/>
<polyline clip-path="url(#clip100)" style="stroke:#000000; stroke-linecap:round; stroke-linejoin:round; stroke-width:4; stroke-opacity:1; fill:none" points="175.445,1423.18 2352.76,1423.18 "/>
<polyline clip-path="url(#clip100)" style="stroke:#000000; stroke-linecap:round; stroke-linejoin:round; stroke-width:4; stroke-opacity:1; fill:none" points="237.067,1423.18 237.067,1404.28 "/>
<polyline clip-path="url(#clip100)" style="stroke:#000000; stroke-linecap:round; stroke-linejoin:round; stroke-width:4; stroke-opacity:1; fill:none" points="933.361,1423.18 933.361,1404.28 "/>
<polyline clip-path="url(#clip100)" style="stroke:#000000; stroke-linecap:round; stroke-linejoin:round; stroke-width:4; stroke-opacity:1; fill:none" points="1629.65,1423.18 1629.65,1404.28 "/>
<polyline clip-path="url(#clip100)" style="stroke:#000000; stroke-linecap:round; stroke-linejoin:round; stroke-width:4; stroke-opacity:1; fill:none" points="2325.95,1423.18 2325.95,1404.28 "/>
<path clip-path="url(#clip100)" d="M237.067 1454.1 Q233.456 1454.1 231.627 1457.66 Q229.822 1461.2 229.822 1468.33 Q229.822 1475.44 231.627 1479.01 Q233.456 1482.55 237.067 1482.55 Q240.701 1482.55 242.507 1479.01 Q244.336 1475.44 244.336 1468.33 Q244.336 1461.2 242.507 1457.66 Q240.701 1454.1 237.067 1454.1 M237.067 1450.39 Q242.877 1450.39 245.933 1455 Q249.012 1459.58 249.012 1468.33 Q249.012 1477.06 245.933 1481.67 Q242.877 1486.25 237.067 1486.25 Q231.257 1486.25 228.178 1481.67 Q225.123 1477.06 225.123 1468.33 Q225.123 1459.58 228.178 1455 Q231.257 1450.39 237.067 1450.39 Z" fill="#000000" fill-rule="nonzero" fill-opacity="1" /><path clip-path="url(#clip100)" d="M892.968 1481.64 L900.607 1481.64 L900.607 1455.28 L892.296 1456.95 L892.296 1452.69 L900.56 1451.02 L905.236 1451.02 L905.236 1481.64 L912.875 1481.64 L912.875 1485.58 L892.968 1485.58 L892.968 1481.64 Z" fill="#000000" fill-rule="nonzero" fill-opacity="1" /><path clip-path="url(#clip100)" d="M932.319 1454.1 Q928.708 1454.1 926.88 1457.66 Q925.074 1461.2 925.074 1468.33 Q925.074 1475.44 926.88 1479.01 Q928.708 1482.55 932.319 1482.55 Q935.954 1482.55 937.759 1479.01 Q939.588 1475.44 939.588 1468.33 Q939.588 1461.2 937.759 1457.66 Q935.954 1454.1 932.319 1454.1 M932.319 1450.39 Q938.129 1450.39 941.185 1455 Q944.264 1459.58 944.264 1468.33 Q944.264 1477.06 941.185 1481.67 Q938.129 1486.25 932.319 1486.25 Q926.509 1486.25 923.431 1481.67 Q920.375 1477.06 920.375 1468.33 Q920.375 1459.58 923.431 1455 Q926.509 1450.39 932.319 1450.39 Z" fill="#000000" fill-rule="nonzero" fill-opacity="1" /><path clip-path="url(#clip100)" d="M962.481 1454.1 Q958.87 1454.1 957.041 1457.66 Q955.236 1461.2 955.236 1468.33 Q955.236 1475.44 957.041 1479.01 Q958.87 1482.55 962.481 1482.55 Q966.115 1482.55 967.921 1479.01 Q969.75 1475.44 969.75 1468.33 Q969.75 1461.2 967.921 1457.66 Q966.115 1454.1 962.481 1454.1 M962.481 1450.39 Q968.291 1450.39 971.347 1455 Q974.426 1459.58 974.426 1468.33 Q974.426 1477.06 971.347 1481.67 Q968.291 1486.25 962.481 1486.25 Q956.671 1486.25 953.592 1481.67 Q950.537 1477.06 950.537 1468.33 Q950.537 1459.58 953.592 1455 Q956.671 1450.39 962.481 1450.39 Z" fill="#000000" fill-rule="nonzero" fill-opacity="1" /><path clip-path="url(#clip100)" d="M1593.35 1481.64 L1609.67 1481.64 L1609.67 1485.58 L1587.72 1485.58 L1587.72 1481.64 Q1590.38 1478.89 1594.97 1474.26 Q1599.57 1469.61 1600.75 1468.27 Q1603 1465.74 1603.88 1464.01 Q1604.78 1462.25 1604.78 1460.56 Q1604.78 1457.8 1602.84 1456.07 Q1600.92 1454.33 1597.81 1454.33 Q1595.62 1454.33 1593.16 1455.09 Q1590.73 1455.86 1587.95 1457.41 L1587.95 1452.69 Q1590.78 1451.55 1593.23 1450.97 Q1595.69 1450.39 1597.72 1450.39 Q1603.09 1450.39 1606.29 1453.08 Q1609.48 1455.77 1609.48 1460.26 Q1609.48 1462.39 1608.67 1464.31 Q1607.88 1466.2 1605.78 1468.8 Q1605.2 1469.47 1602.1 1472.69 Q1599 1475.88 1593.35 1481.64 Z" fill="#000000" fill-rule="nonzero" fill-opacity="1" /><path clip-path="url(#clip100)" d="M1629.48 1454.1 Q1625.87 1454.1 1624.04 1457.66 Q1622.24 1461.2 1622.24 1468.33 Q1622.24 1475.44 1624.04 1479.01 Q1625.87 1482.55 1629.48 1482.55 Q1633.12 1482.55 1634.92 1479.01 Q1636.75 1475.44 1636.75 1468.33 Q1636.75 1461.2 1634.92 1457.66 Q1633.12 1454.1 1629.48 1454.1 M1629.48 1450.39 Q1635.29 1450.39 1638.35 1455 Q1641.43 1459.58 1641.43 1468.33 Q1641.43 1477.06 1638.35 1481.67 Q1635.29 1486.25 1629.48 1486.25 Q1623.67 1486.25 1620.59 1481.67 Q1617.54 1477.06 1617.54 1468.33 Q1617.54 1459.58 1620.59 1455 Q1623.67 1450.39 1629.48 1450.39 Z" fill="#000000" fill-rule="nonzero" fill-opacity="1" /><path clip-path="url(#clip100)" d="M1659.64 1454.1 Q1656.03 1454.1 1654.2 1457.66 Q1652.4 1461.2 1652.4 1468.33 Q1652.4 1475.44 1654.2 1479.01 Q1656.03 1482.55 1659.64 1482.55 Q1663.28 1482.55 1665.08 1479.01 Q1666.91 1475.44 1666.91 1468.33 Q1666.91 1461.2 1665.08 1457.66 Q1663.28 1454.1 1659.64 1454.1 M1659.64 1450.39 Q1665.45 1450.39 1668.51 1455 Q1671.59 1459.58 1671.59 1468.33 Q1671.59 1477.06 1668.51 1481.67 Q1665.45 1486.25 1659.64 1486.25 Q1653.83 1486.25 1650.75 1481.67 Q1647.7 1477.06 1647.7 1468.33 Q1647.7 1459.58 1650.75 1455 Q1653.83 1450.39 1659.64 1450.39 Z" fill="#000000" fill-rule="nonzero" fill-opacity="1" /><path clip-path="url(#clip100)" d="M2299.71 1466.95 Q2303.07 1467.66 2304.94 1469.93 Q2306.84 1472.2 2306.84 1475.53 Q2306.84 1480.65 2303.32 1483.45 Q2299.8 1486.25 2293.32 1486.25 Q2291.15 1486.25 2288.83 1485.81 Q2286.54 1485.39 2284.09 1484.54 L2284.09 1480.02 Q2286.03 1481.16 2288.34 1481.74 Q2290.66 1482.32 2293.18 1482.32 Q2297.58 1482.32 2299.87 1480.58 Q2302.19 1478.84 2302.19 1475.53 Q2302.19 1472.48 2300.03 1470.77 Q2297.9 1469.03 2294.09 1469.03 L2290.06 1469.03 L2290.06 1465.19 L2294.27 1465.19 Q2297.72 1465.19 2299.55 1463.82 Q2301.38 1462.43 2301.38 1459.84 Q2301.38 1457.18 2299.48 1455.77 Q2297.6 1454.33 2294.09 1454.33 Q2292.16 1454.33 2289.96 1454.75 Q2287.77 1455.16 2285.13 1456.04 L2285.13 1451.88 Q2287.79 1451.14 2290.1 1450.77 Q2292.44 1450.39 2294.5 1450.39 Q2299.83 1450.39 2302.93 1452.83 Q2306.03 1455.23 2306.03 1459.35 Q2306.03 1462.22 2304.39 1464.21 Q2302.74 1466.18 2299.71 1466.95 Z" fill="#000000" fill-rule="nonzero" fill-opacity="1" /><path clip-path="url(#clip100)" d="M2325.71 1454.1 Q2322.09 1454.1 2320.27 1457.66 Q2318.46 1461.2 2318.46 1468.33 Q2318.46 1475.44 2320.27 1479.01 Q2322.09 1482.55 2325.71 1482.55 Q2329.34 1482.55 2331.15 1479.01 Q2332.97 1475.44 2332.97 1468.33 Q2332.97 1461.2 2331.15 1457.66 Q2329.34 1454.1 2325.71 1454.1 M2325.71 1450.39 Q2331.52 1450.39 2334.57 1455 Q2337.65 1459.58 2337.65 1468.33 Q2337.65 1477.06 2334.57 1481.67 Q2331.52 1486.25 2325.71 1486.25 Q2319.9 1486.25 2316.82 1481.67 Q2313.76 1477.06 2313.76 1468.33 Q2313.76 1459.58 2316.82 1455 Q2319.9 1450.39 2325.71 1450.39 Z" fill="#000000" fill-rule="nonzero" fill-opacity="1" /><path clip-path="url(#clip100)" d="M2355.87 1454.1 Q2352.26 1454.1 2350.43 1457.66 Q2348.62 1461.2 2348.62 1468.33 Q2348.62 1475.44 2350.43 1479.01 Q2352.26 1482.55 2355.87 1482.55 Q2359.5 1482.55 2361.31 1479.01 Q2363.14 1475.44 2363.14 1468.33 Q2363.14 1461.2 2361.31 1457.66 Q2359.5 1454.1 2355.87 1454.1 M2355.87 1450.39 Q2361.68 1450.39 2364.73 1455 Q2367.81 1459.58 2367.81 1468.33 Q2367.81 1477.06 2364.73 1481.67 Q2361.68 1486.25 2355.87 1486.25 Q2350.06 1486.25 2346.98 1481.67 Q2343.92 1477.06 2343.92 1468.33 Q2343.92 1459.58 2346.98 1455 Q2350.06 1450.39 2355.87 1450.39 Z" fill="#000000" fill-rule="nonzero" fill-opacity="1" /><path clip-path="url(#clip100)" d="M1264.99 1524.09 L1281.45 1568.04 L1275.24 1568.04 L1265.25 1541.69 L1252.96 1568.04 L1246.75 1568.04 L1262.38 1533.86 L1260.03 1527.56 Q1258.53 1523.55 1255.12 1523.55 L1252.07 1523.55 L1252.07 1518.52 L1255.79 1518.58 Q1262.99 1518.68 1264.99 1524.09 Z" fill="#000000" fill-rule="nonzero" fill-opacity="1" /><polyline clip-path="url(#clip100)" style="stroke:#000000; stroke-linecap:round; stroke-linejoin:round; stroke-width:4; stroke-opacity:1; fill:none" points="175.445,1423.18 175.445,123.472 "/>
<polyline clip-path="url(#clip100)" style="stroke:#000000; stroke-linecap:round; stroke-linejoin:round; stroke-width:4; stroke-opacity:1; fill:none" points="175.445,1329.54 194.343,1329.54 "/>
<polyline clip-path="url(#clip100)" style="stroke:#000000; stroke-linecap:round; stroke-linejoin:round; stroke-width:4; stroke-opacity:1; fill:none" points="175.445,1019.34 194.343,1019.34 "/>
<polyline clip-path="url(#clip100)" style="stroke:#000000; stroke-linecap:round; stroke-linejoin:round; stroke-width:4; stroke-opacity:1; fill:none" points="175.445,709.132 194.343,709.132 "/>
<polyline clip-path="url(#clip100)" style="stroke:#000000; stroke-linecap:round; stroke-linejoin:round; stroke-width:4; stroke-opacity:1; fill:none" points="175.445,398.928 194.343,398.928 "/>
<path clip-path="url(#clip100)" d="M129.862 1316.34 L118.056 1334.78 L129.862 1334.78 L129.862 1316.34 M128.635 1312.26 L134.515 1312.26 L134.515 1334.78 L139.445 1334.78 L139.445 1338.67 L134.515 1338.67 L134.515 1346.82 L129.862 1346.82 L129.862 1338.67 L114.26 1338.67 L114.26 1334.16 L128.635 1312.26 Z" fill="#000000" fill-rule="nonzero" fill-opacity="1" /><path clip-path="url(#clip100)" d="M118.543 1002.06 L136.899 1002.06 L136.899 1005.99 L122.825 1005.99 L122.825 1014.46 Q123.843 1014.12 124.862 1013.96 Q125.88 1013.77 126.899 1013.77 Q132.686 1013.77 136.066 1016.94 Q139.445 1020.11 139.445 1025.53 Q139.445 1031.11 135.973 1034.21 Q132.501 1037.29 126.181 1037.29 Q124.005 1037.29 121.737 1036.92 Q119.492 1036.55 117.084 1035.81 L117.084 1031.11 Q119.168 1032.24 121.39 1032.8 Q123.612 1033.35 126.089 1033.35 Q130.093 1033.35 132.431 1031.25 Q134.769 1029.14 134.769 1025.53 Q134.769 1021.92 132.431 1019.81 Q130.093 1017.71 126.089 1017.71 Q124.214 1017.71 122.339 1018.12 Q120.487 1018.54 118.543 1019.42 L118.543 1002.06 Z" fill="#000000" fill-rule="nonzero" fill-opacity="1" /><path clip-path="url(#clip100)" d="M127.917 707.269 Q124.769 707.269 122.918 709.422 Q121.089 711.575 121.089 715.325 Q121.089 719.051 122.918 721.227 Q124.769 723.38 127.917 723.38 Q131.066 723.38 132.894 721.227 Q134.746 719.051 134.746 715.325 Q134.746 711.575 132.894 709.422 Q131.066 707.269 127.917 707.269 M137.2 692.616 L137.2 696.876 Q135.441 696.042 133.635 695.602 Q131.853 695.163 130.093 695.163 Q125.464 695.163 123.01 698.288 Q120.58 701.413 120.232 707.732 Q121.598 705.718 123.658 704.653 Q125.718 703.565 128.195 703.565 Q133.404 703.565 136.413 706.737 Q139.445 709.885 139.445 715.325 Q139.445 720.649 136.297 723.866 Q133.149 727.084 127.917 727.084 Q121.922 727.084 118.751 722.5 Q115.58 717.894 115.58 709.167 Q115.58 700.973 119.468 696.112 Q123.357 691.227 129.908 691.227 Q131.667 691.227 133.45 691.575 Q135.255 691.922 137.2 692.616 Z" fill="#000000" fill-rule="nonzero" fill-opacity="1" /><path clip-path="url(#clip100)" d="M117.223 381.648 L139.445 381.648 L139.445 383.639 L126.899 416.208 L122.015 416.208 L133.82 385.583 L117.223 385.583 L117.223 381.648 Z" fill="#000000" fill-rule="nonzero" fill-opacity="1" /><path clip-path="url(#clip100)" d="M20.8447 920.342 Q20.8447 927.344 26.0645 931.482 Q31.2844 935.588 40.2919 935.588 Q49.2675 935.588 54.4874 931.482 Q59.7073 927.344 59.7073 920.342 Q59.7073 913.34 54.4874 909.266 Q49.2675 905.16 40.2919 905.16 Q31.2844 905.16 26.0645 909.266 Q20.8447 913.34 20.8447 920.342 M15.6248 920.342 Q15.6248 910.348 22.3406 904.364 Q29.0246 898.38 40.2919 898.38 Q51.5274 898.38 58.2432 904.364 Q64.9272 910.348 64.9272 920.342 Q64.9272 930.368 58.2432 936.384 Q51.5592 942.367 40.2919 942.367 Q29.0246 942.367 22.3406 936.384 Q15.6248 930.368 15.6248 920.342 Z" fill="#000000" fill-rule="nonzero" fill-opacity="1" /><path clip-path="url(#clip100)" d="M58.657 882.912 L77.5631 882.912 L77.5631 888.8 L28.3562 888.8 L28.3562 882.912 L33.7671 882.912 Q30.5842 881.066 29.0564 878.265 Q27.4968 875.432 27.4968 871.517 Q27.4968 865.024 32.6531 860.982 Q37.8093 856.908 46.212 856.908 Q54.6147 856.908 59.771 860.982 Q64.9272 865.024 64.9272 871.517 Q64.9272 875.432 63.3994 878.265 Q61.8398 881.066 58.657 882.912 M46.212 862.987 Q39.7508 862.987 36.0905 865.661 Q32.3984 868.302 32.3984 872.949 Q32.3984 877.596 36.0905 880.27 Q39.7508 882.912 46.212 882.912 Q52.6732 882.912 56.3653 880.27 Q60.0256 877.596 60.0256 872.949 Q60.0256 868.302 56.3653 865.661 Q52.6732 862.987 46.212 862.987 Z" fill="#000000" fill-rule="nonzero" fill-opacity="1" /><path clip-path="url(#clip100)" d="M18.2347 841.407 L28.3562 841.407 L28.3562 829.344 L32.9077 829.344 L32.9077 841.407 L52.2594 841.407 Q56.6199 841.407 57.8613 840.23 Q59.1026 839.02 59.1026 835.36 L59.1026 829.344 L64.0042 829.344 L64.0042 835.36 Q64.0042 842.139 61.4897 844.717 Q58.9434 847.295 52.2594 847.295 L32.9077 847.295 L32.9077 851.592 L28.3562 851.592 L28.3562 847.295 L18.2347 847.295 L18.2347 841.407 Z" fill="#000000" fill-rule="nonzero" fill-opacity="1" /><path clip-path="url(#clip100)" d="M28.3562 821.642 L28.3562 815.785 L64.0042 815.785 L64.0042 821.642 L28.3562 821.642 M14.479 821.642 L14.479 815.785 L21.895 815.785 L21.895 821.642 L14.479 821.642 Z" fill="#000000" fill-rule="nonzero" fill-opacity="1" /><path clip-path="url(#clip100)" d="M35.1993 775.777 Q31.2526 773.581 29.3747 770.525 Q27.4968 767.47 27.4968 763.332 Q27.4968 757.762 31.4117 754.738 Q35.2948 751.714 42.4881 751.714 L64.0042 751.714 L64.0042 757.603 L42.679 757.603 Q37.5546 757.603 35.072 759.417 Q32.5894 761.231 32.5894 764.955 Q32.5894 769.507 35.6131 772.148 Q38.6368 774.79 43.8567 774.79 L64.0042 774.79 L64.0042 780.678 L42.679 780.678 Q37.5228 780.678 35.072 782.493 Q32.5894 784.307 32.5894 788.094 Q32.5894 792.582 35.6449 795.224 Q38.6686 797.866 43.8567 797.866 L64.0042 797.866 L64.0042 803.754 L28.3562 803.754 L28.3562 797.866 L33.8944 797.866 Q30.616 795.861 29.0564 793.06 Q27.4968 790.259 27.4968 786.408 Q27.4968 782.524 29.4702 779.819 Q31.4436 777.082 35.1993 775.777 Z" fill="#000000" fill-rule="nonzero" fill-opacity="1" /><path clip-path="url(#clip100)" d="M46.0847 723.833 Q46.0847 730.93 47.7079 733.668 Q49.3312 736.405 53.2461 736.405 Q56.3653 736.405 58.2114 734.368 Q60.0256 732.299 60.0256 728.766 Q60.0256 723.896 56.5881 720.968 Q53.1188 718.008 47.3897 718.008 L46.0847 718.008 L46.0847 723.833 M43.6657 712.152 L64.0042 712.152 L64.0042 718.008 L58.5933 718.008 Q61.8398 720.013 63.3994 723.005 Q64.9272 725.997 64.9272 730.326 Q64.9272 735.8 61.8716 739.047 Q58.7843 742.261 53.6281 742.261 Q47.6125 742.261 44.5569 738.251 Q41.5014 734.209 41.5014 726.22 L41.5014 718.008 L40.9285 718.008 Q36.8862 718.008 34.6901 720.682 Q32.4621 723.323 32.4621 728.129 Q32.4621 731.185 33.1941 734.081 Q33.9262 736.978 35.3903 739.651 L29.9795 739.651 Q28.7381 736.437 28.1334 733.413 Q27.4968 730.389 27.4968 727.525 Q27.4968 719.79 31.5072 715.971 Q35.5176 712.152 43.6657 712.152 Z" fill="#000000" fill-rule="nonzero" fill-opacity="1" /><path clip-path="url(#clip100)" d="M14.479 700.089 L14.479 694.232 L64.0042 694.232 L64.0042 700.089 L14.479 700.089 Z" fill="#000000" fill-rule="nonzero" fill-opacity="1" /><path clip-path="url(#clip100)" d="M57.5111 643.784 Q59.0389 642.638 59.0389 639.201 L59.0389 636.368 L64.0042 636.368 L64.0042 639.901 Q64.0042 645.63 60.9486 648.24 Q57.8294 650.85 51.0818 650.85 L34.2127 650.85 L34.2127 664.218 L28.3562 664.218 L28.3562 631.339 L34.2127 631.339 L34.2127 644.866 L51.4319 644.866 Q56.047 644.866 57.5111 643.784 Z" fill="#000000" fill-rule="nonzero" fill-opacity="1" /><path clip-path="url(#clip100)" d="M42.4562 610.014 Q39.719 611.605 39.719 614.82 Q39.719 618.035 42.4562 619.626 Q45.1935 621.249 50.668 621.249 Q56.1743 621.249 58.9116 619.626 Q61.6488 618.035 61.6488 614.82 Q61.6488 611.605 58.9116 610.014 Q56.1743 608.391 50.668 608.391 Q45.1935 608.391 42.4562 610.014 M36.8862 614.82 Q36.8862 609.695 40.4192 606.99 Q43.9522 604.285 50.668 604.285 Q57.4157 604.285 60.9486 606.99 Q64.4816 609.695 64.4816 614.82 Q64.4816 619.976 60.9486 622.682 Q57.4157 625.387 50.668 625.387 Q43.9522 625.387 40.4192 622.682 Q36.8862 619.976 36.8862 614.82 Z" fill="#000000" fill-rule="nonzero" fill-opacity="1" /><path clip-path="url(#clip100)" d="M959.331 17.6457 Q950.419 17.6457 945.153 24.2892 Q939.927 30.9327 939.927 42.3968 Q939.927 53.8203 945.153 60.4638 Q950.419 67.1073 959.331 67.1073 Q968.243 67.1073 973.428 60.4638 Q978.654 53.8203 978.654 42.3968 Q978.654 30.9327 973.428 24.2892 Q968.243 17.6457 959.331 17.6457 M959.331 11.0023 Q972.051 11.0023 979.666 19.5497 Q987.282 28.0566 987.282 42.3968 Q987.282 56.6965 979.666 65.2439 Q972.051 73.7508 959.331 73.7508 Q946.57 73.7508 938.914 65.2439 Q931.299 56.737 931.299 42.3968 Q931.299 28.0566 938.914 19.5497 Q946.57 11.0023 959.331 11.0023 Z" fill="#000000" fill-rule="nonzero" fill-opacity="1" /><path clip-path="url(#clip100)" d="M1006.97 65.7705 L1006.97 89.8329 L999.475 89.8329 L999.475 27.2059 L1006.97 27.2059 L1006.97 34.0924 Q1009.32 30.0415 1012.88 28.0971 Q1016.49 26.1121 1021.47 26.1121 Q1029.74 26.1121 1034.88 32.6746 Q1040.07 39.2371 1040.07 49.9314 Q1040.07 60.6258 1034.88 67.1883 Q1029.74 73.7508 1021.47 73.7508 Q1016.49 73.7508 1012.88 71.8063 Q1009.32 69.8214 1006.97 65.7705 M1032.33 49.9314 Q1032.33 41.7081 1028.93 37.0496 Q1025.56 32.3505 1019.65 32.3505 Q1013.73 32.3505 1010.33 37.0496 Q1006.97 41.7081 1006.97 49.9314 Q1006.97 58.1548 1010.33 62.8538 Q1013.73 67.5124 1019.65 67.5124 Q1025.56 67.5124 1028.93 62.8538 Q1032.33 58.1548 1032.33 49.9314 Z" fill="#000000" fill-rule="nonzero" fill-opacity="1" /><path clip-path="url(#clip100)" d="M1059.79 14.324 L1059.79 27.2059 L1075.15 27.2059 L1075.15 32.9987 L1059.79 32.9987 L1059.79 57.6282 Q1059.79 63.1779 1061.29 64.7578 Q1062.83 66.3376 1067.49 66.3376 L1075.15 66.3376 L1075.15 72.576 L1067.49 72.576 Q1058.86 72.576 1055.58 69.3758 Q1052.3 66.1351 1052.3 57.6282 L1052.3 32.9987 L1046.83 32.9987 L1046.83 27.2059 L1052.3 27.2059 L1052.3 14.324 L1059.79 14.324 Z" fill="#000000" fill-rule="nonzero" fill-opacity="1" /><path clip-path="url(#clip100)" d="M1084.95 27.2059 L1092.4 27.2059 L1092.4 72.576 L1084.95 72.576 L1084.95 27.2059 M1084.95 9.54393 L1092.4 9.54393 L1092.4 18.9825 L1084.95 18.9825 L1084.95 9.54393 Z" fill="#000000" fill-rule="nonzero" fill-opacity="1" /><path clip-path="url(#clip100)" d="M1143.32 35.9153 Q1146.12 30.8922 1150.01 28.5022 Q1153.9 26.1121 1159.16 26.1121 Q1166.25 26.1121 1170.1 31.0947 Q1173.95 36.0368 1173.95 45.1919 L1173.95 72.576 L1166.45 72.576 L1166.45 45.4349 Q1166.45 38.913 1164.14 35.7533 Q1161.84 32.5936 1157.1 32.5936 Q1151.3 32.5936 1147.94 36.4419 Q1144.58 40.2903 1144.58 46.9338 L1144.58 72.576 L1137.08 72.576 L1137.08 45.4349 Q1137.08 38.8725 1134.78 35.7533 Q1132.47 32.5936 1127.65 32.5936 Q1121.93 32.5936 1118.57 36.4824 Q1115.21 40.3308 1115.21 46.9338 L1115.21 72.576 L1107.72 72.576 L1107.72 27.2059 L1115.21 27.2059 L1115.21 34.2544 Q1117.76 30.082 1121.33 28.0971 Q1124.89 26.1121 1129.79 26.1121 Q1134.73 26.1121 1138.18 28.6237 Q1141.66 31.1352 1143.32 35.9153 Z" fill="#000000" fill-rule="nonzero" fill-opacity="1" /><path clip-path="url(#clip100)" d="M1209.43 49.7694 Q1200.4 49.7694 1196.92 51.8354 Q1193.43 53.9013 1193.43 58.8839 Q1193.43 62.8538 1196.03 65.2034 Q1198.66 67.5124 1203.15 67.5124 Q1209.35 67.5124 1213.08 63.1374 Q1216.85 58.7219 1216.85 51.4303 L1216.85 49.7694 L1209.43 49.7694 M1224.3 46.6907 L1224.3 72.576 L1216.85 72.576 L1216.85 65.6895 Q1214.29 69.8214 1210.49 71.8063 Q1206.68 73.7508 1201.17 73.7508 Q1194.2 73.7508 1190.07 69.8619 Q1185.98 65.9325 1185.98 59.3701 Q1185.98 51.7138 1191.08 47.825 Q1196.23 43.9361 1206.4 43.9361 L1216.85 43.9361 L1216.85 43.2069 Q1216.85 38.0623 1213.44 35.2672 Q1210.08 32.4315 1203.96 32.4315 Q1200.08 32.4315 1196.39 33.3632 Q1192.7 34.295 1189.3 36.1584 L1189.3 29.2718 Q1193.39 27.692 1197.24 26.9223 Q1201.09 26.1121 1204.73 26.1121 Q1214.58 26.1121 1219.44 31.2163 Q1224.3 36.3204 1224.3 46.6907 Z" fill="#000000" fill-rule="nonzero" fill-opacity="1" /><path clip-path="url(#clip100)" d="M1239.65 9.54393 L1247.11 9.54393 L1247.11 72.576 L1239.65 72.576 L1239.65 9.54393 Z" fill="#000000" fill-rule="nonzero" fill-opacity="1" /><path clip-path="url(#clip100)" d="M1311.31 64.3122 Q1312.77 66.2566 1317.15 66.2566 L1320.75 66.2566 L1320.75 72.576 L1316.26 72.576 Q1308.96 72.576 1305.64 68.6871 Q1302.32 64.7172 1302.32 56.1293 L1302.32 34.6595 L1285.31 34.6595 L1285.31 27.2059 L1327.15 27.2059 L1327.15 34.6595 L1309.94 34.6595 L1309.94 56.5749 Q1309.94 62.4487 1311.31 64.3122 Z" fill="#000000" fill-rule="nonzero" fill-opacity="1" /><path clip-path="url(#clip100)" d="M1354.29 45.1514 Q1352.27 41.6676 1348.18 41.6676 Q1344.09 41.6676 1342.06 45.1514 Q1339.99 48.6352 1339.99 55.6027 Q1339.99 62.6108 1342.06 66.0946 Q1344.09 69.5783 1348.18 69.5783 Q1352.27 69.5783 1354.29 66.0946 Q1356.36 62.6108 1356.36 55.6027 Q1356.36 48.6352 1354.29 45.1514 M1348.18 38.0623 Q1354.7 38.0623 1358.14 42.5588 Q1361.59 47.0553 1361.59 55.6027 Q1361.59 64.1906 1358.14 68.6871 Q1354.7 73.1836 1348.18 73.1836 Q1341.61 73.1836 1338.17 68.6871 Q1334.73 64.1906 1334.73 55.6027 Q1334.73 47.0553 1338.17 42.5588 Q1341.61 38.0623 1348.18 38.0623 Z" fill="#000000" fill-rule="nonzero" fill-opacity="1" /><path clip-path="url(#clip100)" d="M1374.18 62.2867 L1382.73 62.2867 L1382.73 69.2543 L1376.09 82.2172 L1370.86 82.2172 L1374.18 69.2543 L1374.18 62.2867 Z" fill="#000000" fill-rule="nonzero" fill-opacity="1" /><path clip-path="url(#clip100)" d="M1425.35 12.096 L1436.37 12.096 L1463.18 62.6918 L1463.18 12.096 L1471.12 12.096 L1471.12 72.576 L1460.1 72.576 L1433.29 21.9802 L1433.29 72.576 L1425.35 72.576 L1425.35 12.096 Z" fill="#000000" fill-rule="nonzero" fill-opacity="1" /><path clip-path="url(#clip100)" d="M1488.05 34.9026 L1539.99 34.9026 L1539.99 41.7081 L1488.05 41.7081 L1488.05 34.9026 M1488.05 51.4303 L1539.99 51.4303 L1539.99 58.3168 L1488.05 58.3168 L1488.05 51.4303 Z" fill="#000000" fill-rule="nonzero" fill-opacity="1" /><path clip-path="url(#clip100)" d="M1580.13 19.2256 L1559.47 51.5113 L1580.13 51.5113 L1580.13 19.2256 M1577.98 12.096 L1588.27 12.096 L1588.27 51.5113 L1596.9 51.5113 L1596.9 58.3168 L1588.27 58.3168 L1588.27 72.576 L1580.13 72.576 L1580.13 58.3168 L1552.83 58.3168 L1552.83 50.4176 L1577.98 12.096 Z" fill="#000000" fill-rule="nonzero" fill-opacity="1" /><polyline clip-path="url(#clip102)" style="stroke:#009af9; stroke-linecap:round; stroke-linejoin:round; stroke-width:8; stroke-opacity:1; fill:none" points="237.067,1386.4 250.993,1183.53 257.956,1183.08 264.919,1138.53 271.882,1040.98 278.845,1004.15 285.808,970.23 292.771,1041.72 299.734,918.481 306.697,1004.91 313.66,881.708 320.622,545.349 327.585,854.714 334.548,842.718 341.511,831.065 348.474,819.724 355.437,808.675 362.4,798.362 369.363,789.036 376.326,780.599 383.289,772.959 390.252,766.033 397.215,759.738 404.178,753.72 411.141,747.806 418.104,741.988 425.067,736.263 432.029,752.156 438.992,725.073 452.918,714.203 459.881,708.88 466.844,703.627 480.77,693.32 487.733,688.262 494.696,683.263 522.548,663.829 529.511,659.1 536.474,654.421 543.436,649.789 550.399,645.202 557.362,637.557 564.325,624.824 578.251,626.326 585.214,616.166 592.177,613.322 599.14,610.497 606.103,607.692 613.066,604.906 620.029,602.138 626.992,599.389 633.955,596.657 640.918,593.943 654.843,588.565 661.806,585.901 668.769,583.253 675.732,580.621 682.695,578.004 689.658,575.403 703.584,570.244 710.547,567.686 717.51,565.142 724.473,562.612 731.436,560.095 738.399,557.592 752.325,552.625 759.288,550.161 766.25,547.709 773.213,545.27 780.176,542.842 787.139,540.426 801.065,535.63 808.028,533.249 821.954,528.52 828.917,526.172 842.843,521.508 849.806,519.191 856.769,516.885 863.732,514.589 870.695,512.302 877.658,510.026 884.62,507.759 891.583,505.502 898.546,503.254 905.509,501.016 912.472,498.786 919.435,496.566 933.361,492.152 940.324,489.958 947.287,487.773 954.25,485.596 961.213,483.428 968.176,481.268 975.139,479.116 982.102,476.972 989.065,474.836 996.027,472.709 1002.99,470.588 1009.95,468.476 1016.92,466.371 1023.88,464.274 1030.84,462.184 1037.81,460.102 1044.77,458.027 1051.73,455.959 1058.69,453.898 1065.66,451.845 1072.62,449.798 1079.58,447.758 1086.55,445.725 1093.51,443.699 1100.47,441.679 1107.43,439.666 1114.4,437.66 1121.36,435.66 1128.32,433.667 1135.29,431.679 1142.25,429.699 1149.21,427.724 1163.14,423.793 1170.1,421.837 1177.06,419.887 1184.03,417.942 1190.99,416.004 1197.95,414.071 1204.92,412.144 1211.88,410.223 1218.84,408.307 1225.8,406.398 1232.77,404.493 1239.73,402.594 1246.69,400.701 1253.66,398.813 1260.62,396.93 1267.58,395.053 1274.54,393.181 1281.51,391.314 1288.47,389.452 1302.4,385.744 1309.36,383.897 1316.32,382.056 1323.29,380.219 1330.25,378.388 1337.21,376.561 1344.17,374.739 1372.03,367.499 1378.99,365.701 1385.95,363.907 1392.91,362.118 1399.88,360.333 1406.84,358.553 1413.8,356.777 1420.77,355.006 1427.73,353.239 1434.69,351.477 1441.66,349.719 1448.62,347.965 1455.58,346.215 1462.54,344.47 1469.51,342.728 1476.47,340.991 1483.43,339.258 1497.36,335.805 1504.32,334.084 1511.28,332.367 1518.25,330.654 1525.21,328.946 1532.17,327.241 1539.14,325.54 1560.03,320.46 1573.95,317.092 1580.91,315.414 1587.88,313.74 1594.84,312.069 1601.8,310.402 1608.77,308.738 1615.73,307.079 1622.69,305.422 1629.65,303.77 1636.62,302.12 1643.58,300.475 1650.54,298.833 1657.51,297.194 1664.47,295.559 1671.43,293.927 1678.4,292.298 1685.36,290.673 1692.32,289.052 1699.28,287.433 1706.25,285.818 1713.21,284.207 1727.14,280.993 1741.06,277.792 1748.02,276.197 1754.99,274.604 1761.95,273.015 1768.91,271.429 1782.84,268.266 1789.8,266.689 1796.77,265.115 1803.73,263.545 1810.69,261.977 1817.65,260.412 1824.62,258.85 1831.58,257.292 1838.54,255.736 1852.47,252.633 1866.39,249.542 1873.36,248.001 1887.28,244.927 1901.21,241.864 1908.17,240.337 1915.14,238.812 1922.1,237.291 1936.02,234.256 1942.99,232.742 1956.91,229.723 1963.88,228.218 1970.84,226.715 1984.76,223.717 1998.69,220.73 2012.62,217.753 2026.54,214.787 2033.51,213.307 2047.43,210.356 2061.36,207.414 2075.28,204.482 2082.25,203.02 2089.21,201.56 2096.17,200.103 2103.13,198.648 2110.1,197.195 2117.06,195.745 2124.02,194.297 2130.99,192.852 2144.91,189.968 2151.88,188.529 2193.65,179.946 2200.62,178.524 2207.58,177.103 2221.5,174.269 2228.47,172.856 2242.39,170.035 2249.36,168.628 2263.28,165.823 2270.25,164.426 2284.17,161.643 2291.13,160.256 "/>
</svg>
