<?xml version="1.0" encoding="utf-8"?>
<svg xmlns="http://www.w3.org/2000/svg" xmlns:xlink="http://www.w3.org/1999/xlink" width="600" height="400" viewBox="0 0 2400 1600">
<defs>
  <clipPath id="clip200">
    <rect x="0" y="0" width="2400" height="1600"/>
  </clipPath>
</defs>
<path clip-path="url(#clip200)" d="M0 1600 L2400 1600 L2400 8.88178e-14 L0 8.88178e-14  Z" fill="#ffffff" fill-rule="evenodd" fill-opacity="1"/>
<defs>
  <clipPath id="clip201">
    <rect x="480" y="0" width="1681" height="1600"/>
  </clipPath>
</defs>
<path clip-path="url(#clip200)" d="M175.445 1423.18 L2352.76 1423.18 L2352.76 123.472 L175.445 123.472  Z" fill="#ffffff" fill-rule="evenodd" fill-opacity="1"/>
<defs>
  <clipPath id="clip202">
    <rect x="175" y="123" width="2178" height="1301"/>
  </clipPath>
</defs>
<polyline clip-path="url(#clip202)" style="stroke:#000000; stroke-linecap:round; stroke-linejoin:round; stroke-width:2; stroke-opacity:0.1; fill:none" points="237.067,1423.18 237.067,123.472 "/>
<polyline clip-path="url(#clip202)" style="stroke:#000000; stroke-linecap:round; stroke-linejoin:round; stroke-width:2; stroke-opacity:0.1; fill:none" points="924.046,1423.18 924.046,123.472 "/>
<polyline clip-path="url(#clip202)" style="stroke:#000000; stroke-linecap:round; stroke-linejoin:round; stroke-width:2; stroke-opacity:0.1; fill:none" points="1611.02,1423.18 1611.02,123.472 "/>
<polyline clip-path="url(#clip202)" style="stroke:#000000; stroke-linecap:round; stroke-linejoin:round; stroke-width:2; stroke-opacity:0.1; fill:none" points="2298,1423.18 2298,123.472 "/>
<polyline clip-path="url(#clip202)" style="stroke:#000000; stroke-linecap:round; stroke-linejoin:round; stroke-width:2; stroke-opacity:0.1; fill:none" points="175.445,1338.85 2352.76,1338.85 "/>
<polyline clip-path="url(#clip202)" style="stroke:#000000; stroke-linecap:round; stroke-linejoin:round; stroke-width:2; stroke-opacity:0.1; fill:none" points="175.445,1156.94 2352.76,1156.94 "/>
<polyline clip-path="url(#clip202)" style="stroke:#000000; stroke-linecap:round; stroke-linejoin:round; stroke-width:2; stroke-opacity:0.1; fill:none" points="175.445,975.027 2352.76,975.027 "/>
<polyline clip-path="url(#clip202)" style="stroke:#000000; stroke-linecap:round; stroke-linejoin:round; stroke-width:2; stroke-opacity:0.1; fill:none" points="175.445,793.116 2352.76,793.116 "/>
<polyline clip-path="url(#clip202)" style="stroke:#000000; stroke-linecap:round; stroke-linejoin:round; stroke-width:2; stroke-opacity:0.1; fill:none" points="175.445,611.205 2352.76,611.205 "/>
<polyline clip-path="url(#clip202)" style="stroke:#000000; stroke-linecap:round; stroke-linejoin:round; stroke-width:2; stroke-opacity:0.1; fill:none" points="175.445,429.294 2352.76,429.294 "/>
<polyline clip-path="url(#clip202)" style="stroke:#000000; stroke-linecap:round; stroke-linejoin:round; stroke-width:2; stroke-opacity:0.1; fill:none" points="175.445,247.383 2352.76,247.383 "/>
<polyline clip-path="url(#clip200)" style="stroke:#000000; stroke-linecap:round; stroke-linejoin:round; stroke-width:4; stroke-opacity:1; fill:none" points="175.445,1423.18 2352.76,1423.18 "/>
<polyline clip-path="url(#clip200)" style="stroke:#000000; stroke-linecap:round; stroke-linejoin:round; stroke-width:4; stroke-opacity:1; fill:none" points="237.067,1423.18 237.067,1404.28 "/>
<polyline clip-path="url(#clip200)" style="stroke:#000000; stroke-linecap:round; stroke-linejoin:round; stroke-width:4; stroke-opacity:1; fill:none" points="924.046,1423.18 924.046,1404.28 "/>
<polyline clip-path="url(#clip200)" style="stroke:#000000; stroke-linecap:round; stroke-linejoin:round; stroke-width:4; stroke-opacity:1; fill:none" points="1611.02,1423.18 1611.02,1404.28 "/>
<polyline clip-path="url(#clip200)" style="stroke:#000000; stroke-linecap:round; stroke-linejoin:round; stroke-width:4; stroke-opacity:1; fill:none" points="2298,1423.18 2298,1404.28 "/>
<path clip-path="url(#clip200)" d="M237.067 1454.1 Q233.456 1454.1 231.627 1457.66 Q229.822 1461.2 229.822 1468.33 Q229.822 1475.44 231.627 1479.01 Q233.456 1482.55 237.067 1482.55 Q240.701 1482.55 242.507 1479.01 Q244.336 1475.44 244.336 1468.33 Q244.336 1461.2 242.507 1457.66 Q240.701 1454.1 237.067 1454.1 M237.067 1450.39 Q242.877 1450.39 245.933 1455 Q249.012 1459.58 249.012 1468.33 Q249.012 1477.06 245.933 1481.67 Q242.877 1486.25 237.067 1486.25 Q231.257 1486.25 228.178 1481.67 Q225.123 1477.06 225.123 1468.33 Q225.123 1459.58 228.178 1455 Q231.257 1450.39 237.067 1450.39 Z" fill="#000000" fill-rule="nonzero" fill-opacity="1" /><path clip-path="url(#clip200)" d="M883.653 1481.64 L891.292 1481.64 L891.292 1455.28 L882.981 1456.95 L882.981 1452.69 L891.245 1451.02 L895.921 1451.02 L895.921 1481.64 L903.56 1481.64 L903.56 1485.58 L883.653 1485.58 L883.653 1481.64 Z" fill="#000000" fill-rule="nonzero" fill-opacity="1" /><path clip-path="url(#clip200)" d="M923.004 1454.1 Q919.393 1454.1 917.565 1457.66 Q915.759 1461.2 915.759 1468.33 Q915.759 1475.44 917.565 1479.01 Q919.393 1482.55 923.004 1482.55 Q926.639 1482.55 928.444 1479.01 Q930.273 1475.44 930.273 1468.33 Q930.273 1461.2 928.444 1457.66 Q926.639 1454.1 923.004 1454.1 M923.004 1450.39 Q928.815 1450.39 931.87 1455 Q934.949 1459.58 934.949 1468.33 Q934.949 1477.06 931.87 1481.67 Q928.815 1486.25 923.004 1486.25 Q917.194 1486.25 914.116 1481.67 Q911.06 1477.06 911.06 1468.33 Q911.06 1459.58 914.116 1455 Q917.194 1450.39 923.004 1450.39 Z" fill="#000000" fill-rule="nonzero" fill-opacity="1" /><path clip-path="url(#clip200)" d="M953.166 1454.1 Q949.555 1454.1 947.726 1457.66 Q945.921 1461.2 945.921 1468.33 Q945.921 1475.44 947.726 1479.01 Q949.555 1482.55 953.166 1482.55 Q956.8 1482.55 958.606 1479.01 Q960.435 1475.44 960.435 1468.33 Q960.435 1461.2 958.606 1457.66 Q956.8 1454.1 953.166 1454.1 M953.166 1450.39 Q958.976 1450.39 962.032 1455 Q965.111 1459.58 965.111 1468.33 Q965.111 1477.06 962.032 1481.67 Q958.976 1486.25 953.166 1486.25 Q947.356 1486.25 944.277 1481.67 Q941.222 1477.06 941.222 1468.33 Q941.222 1459.58 944.277 1455 Q947.356 1450.39 953.166 1450.39 Z" fill="#000000" fill-rule="nonzero" fill-opacity="1" /><path clip-path="url(#clip200)" d="M1574.72 1481.64 L1591.04 1481.64 L1591.04 1485.58 L1569.09 1485.58 L1569.09 1481.64 Q1571.75 1478.89 1576.34 1474.26 Q1580.94 1469.61 1582.12 1468.27 Q1584.37 1465.74 1585.25 1464.01 Q1586.15 1462.25 1586.15 1460.56 Q1586.15 1457.8 1584.21 1456.07 Q1582.29 1454.33 1579.18 1454.33 Q1576.99 1454.33 1574.53 1455.09 Q1572.1 1455.86 1569.32 1457.41 L1569.32 1452.69 Q1572.15 1451.55 1574.6 1450.97 Q1577.06 1450.39 1579.09 1450.39 Q1584.46 1450.39 1587.66 1453.08 Q1590.85 1455.77 1590.85 1460.26 Q1590.85 1462.39 1590.04 1464.31 Q1589.25 1466.2 1587.15 1468.8 Q1586.57 1469.47 1583.47 1472.69 Q1580.37 1475.88 1574.72 1481.64 Z" fill="#000000" fill-rule="nonzero" fill-opacity="1" /><path clip-path="url(#clip200)" d="M1610.85 1454.1 Q1607.24 1454.1 1605.41 1457.66 Q1603.61 1461.2 1603.61 1468.33 Q1603.61 1475.44 1605.41 1479.01 Q1607.24 1482.55 1610.85 1482.55 Q1614.49 1482.55 1616.29 1479.01 Q1618.12 1475.44 1618.12 1468.33 Q1618.12 1461.2 1616.29 1457.66 Q1614.49 1454.1 1610.85 1454.1 M1610.85 1450.39 Q1616.66 1450.39 1619.72 1455 Q1622.8 1459.58 1622.8 1468.33 Q1622.8 1477.06 1619.72 1481.67 Q1616.66 1486.25 1610.85 1486.25 Q1605.04 1486.25 1601.96 1481.67 Q1598.91 1477.06 1598.91 1468.33 Q1598.91 1459.58 1601.96 1455 Q1605.04 1450.39 1610.85 1450.39 Z" fill="#000000" fill-rule="nonzero" fill-opacity="1" /><path clip-path="url(#clip200)" d="M1641.01 1454.1 Q1637.4 1454.1 1635.57 1457.66 Q1633.77 1461.2 1633.77 1468.33 Q1633.77 1475.44 1635.57 1479.01 Q1637.4 1482.55 1641.01 1482.55 Q1644.65 1482.55 1646.45 1479.01 Q1648.28 1475.44 1648.28 1468.33 Q1648.28 1461.2 1646.45 1457.66 Q1644.65 1454.1 1641.01 1454.1 M1641.01 1450.39 Q1646.82 1450.39 1649.88 1455 Q1652.96 1459.58 1652.96 1468.33 Q1652.96 1477.06 1649.88 1481.67 Q1646.82 1486.25 1641.01 1486.25 Q1635.2 1486.25 1632.12 1481.67 Q1629.07 1477.06 1629.07 1468.33 Q1629.07 1459.58 1632.12 1455 Q1635.2 1450.39 1641.01 1450.39 Z" fill="#000000" fill-rule="nonzero" fill-opacity="1" /><path clip-path="url(#clip200)" d="M2271.77 1466.95 Q2275.12 1467.66 2277 1469.93 Q2278.89 1472.2 2278.89 1475.53 Q2278.89 1480.65 2275.38 1483.45 Q2271.86 1486.25 2265.38 1486.25 Q2263.2 1486.25 2260.89 1485.81 Q2258.59 1485.39 2256.14 1484.54 L2256.14 1480.02 Q2258.08 1481.16 2260.4 1481.74 Q2262.71 1482.32 2265.24 1482.32 Q2269.64 1482.32 2271.93 1480.58 Q2274.24 1478.84 2274.24 1475.53 Q2274.24 1472.48 2272.09 1470.77 Q2269.96 1469.03 2266.14 1469.03 L2262.11 1469.03 L2262.11 1465.19 L2266.33 1465.19 Q2269.77 1465.19 2271.6 1463.82 Q2273.43 1462.43 2273.43 1459.84 Q2273.43 1457.18 2271.53 1455.77 Q2269.66 1454.33 2266.14 1454.33 Q2264.22 1454.33 2262.02 1454.75 Q2259.82 1455.16 2257.18 1456.04 L2257.18 1451.88 Q2259.84 1451.14 2262.16 1450.77 Q2264.5 1450.39 2266.56 1450.39 Q2271.88 1450.39 2274.98 1452.83 Q2278.08 1455.23 2278.08 1459.35 Q2278.08 1462.22 2276.44 1464.21 Q2274.8 1466.18 2271.77 1466.95 Z" fill="#000000" fill-rule="nonzero" fill-opacity="1" /><path clip-path="url(#clip200)" d="M2297.76 1454.1 Q2294.15 1454.1 2292.32 1457.66 Q2290.52 1461.2 2290.52 1468.33 Q2290.52 1475.44 2292.32 1479.01 Q2294.15 1482.55 2297.76 1482.55 Q2301.39 1482.55 2303.2 1479.01 Q2305.03 1475.44 2305.03 1468.33 Q2305.03 1461.2 2303.2 1457.66 Q2301.39 1454.1 2297.76 1454.1 M2297.76 1450.39 Q2303.57 1450.39 2306.63 1455 Q2309.71 1459.58 2309.71 1468.33 Q2309.71 1477.06 2306.63 1481.67 Q2303.57 1486.25 2297.76 1486.25 Q2291.95 1486.25 2288.87 1481.67 Q2285.82 1477.06 2285.82 1468.33 Q2285.82 1459.58 2288.87 1455 Q2291.95 1450.39 2297.76 1450.39 Z" fill="#000000" fill-rule="nonzero" fill-opacity="1" /><path clip-path="url(#clip200)" d="M2327.92 1454.1 Q2324.31 1454.1 2322.48 1457.66 Q2320.68 1461.2 2320.68 1468.33 Q2320.68 1475.44 2322.48 1479.01 Q2324.31 1482.55 2327.92 1482.55 Q2331.56 1482.55 2333.36 1479.01 Q2335.19 1475.44 2335.19 1468.33 Q2335.19 1461.2 2333.36 1457.66 Q2331.56 1454.1 2327.92 1454.1 M2327.92 1450.39 Q2333.73 1450.39 2336.79 1455 Q2339.87 1459.58 2339.87 1468.33 Q2339.87 1477.06 2336.79 1481.67 Q2333.73 1486.25 2327.92 1486.25 Q2322.11 1486.25 2319.03 1481.67 Q2315.98 1477.06 2315.98 1468.33 Q2315.98 1459.58 2319.03 1455 Q2322.11 1450.39 2327.92 1450.39 Z" fill="#000000" fill-rule="nonzero" fill-opacity="1" /><path clip-path="url(#clip200)" d="M1264.99 1524.09 L1281.45 1568.04 L1275.24 1568.04 L1265.25 1541.69 L1252.96 1568.04 L1246.75 1568.04 L1262.38 1533.86 L1260.03 1527.56 Q1258.53 1523.55 1255.12 1523.55 L1252.07 1523.55 L1252.07 1518.52 L1255.79 1518.58 Q1262.99 1518.68 1264.99 1524.09 Z" fill="#000000" fill-rule="nonzero" fill-opacity="1" /><polyline clip-path="url(#clip200)" style="stroke:#000000; stroke-linecap:round; stroke-linejoin:round; stroke-width:4; stroke-opacity:1; fill:none" points="175.445,1423.18 175.445,123.472 "/>
<polyline clip-path="url(#clip200)" style="stroke:#000000; stroke-linecap:round; stroke-linejoin:round; stroke-width:4; stroke-opacity:1; fill:none" points="175.445,1338.85 194.343,1338.85 "/>
<polyline clip-path="url(#clip200)" style="stroke:#000000; stroke-linecap:round; stroke-linejoin:round; stroke-width:4; stroke-opacity:1; fill:none" points="175.445,1156.94 194.343,1156.94 "/>
<polyline clip-path="url(#clip200)" style="stroke:#000000; stroke-linecap:round; stroke-linejoin:round; stroke-width:4; stroke-opacity:1; fill:none" points="175.445,975.027 194.343,975.027 "/>
<polyline clip-path="url(#clip200)" style="stroke:#000000; stroke-linecap:round; stroke-linejoin:round; stroke-width:4; stroke-opacity:1; fill:none" points="175.445,793.116 194.343,793.116 "/>
<polyline clip-path="url(#clip200)" style="stroke:#000000; stroke-linecap:round; stroke-linejoin:round; stroke-width:4; stroke-opacity:1; fill:none" points="175.445,611.205 194.343,611.205 "/>
<polyline clip-path="url(#clip200)" style="stroke:#000000; stroke-linecap:round; stroke-linejoin:round; stroke-width:4; stroke-opacity:1; fill:none" points="175.445,429.294 194.343,429.294 "/>
<polyline clip-path="url(#clip200)" style="stroke:#000000; stroke-linecap:round; stroke-linejoin:round; stroke-width:4; stroke-opacity:1; fill:none" points="175.445,247.383 194.343,247.383 "/>
<path clip-path="url(#clip200)" d="M132.316 1337.49 Q135.672 1338.21 137.547 1340.48 Q139.445 1342.75 139.445 1346.08 Q139.445 1351.2 135.927 1354 Q132.408 1356.8 125.927 1356.8 Q123.751 1356.8 121.436 1356.36 Q119.144 1355.94 116.691 1355.09 L116.691 1350.57 Q118.635 1351.71 120.95 1352.29 Q123.265 1352.87 125.788 1352.87 Q130.186 1352.87 132.478 1351.13 Q134.792 1349.39 134.792 1346.08 Q134.792 1343.03 132.64 1341.31 Q130.51 1339.58 126.691 1339.58 L122.663 1339.58 L122.663 1335.74 L126.876 1335.74 Q130.325 1335.74 132.154 1334.37 Q133.982 1332.98 133.982 1330.39 Q133.982 1327.73 132.084 1326.31 Q130.209 1324.88 126.691 1324.88 Q124.769 1324.88 122.57 1325.3 Q120.371 1325.71 117.732 1326.59 L117.732 1322.43 Q120.394 1321.68 122.709 1321.31 Q125.047 1320.94 127.107 1320.94 Q132.431 1320.94 135.533 1323.37 Q138.635 1325.78 138.635 1329.9 Q138.635 1332.77 136.992 1334.76 Q135.348 1336.73 132.316 1337.49 Z" fill="#000000" fill-rule="nonzero" fill-opacity="1" /><path clip-path="url(#clip200)" d="M129.862 1143.73 L118.056 1162.18 L129.862 1162.18 L129.862 1143.73 M128.635 1139.66 L134.515 1139.66 L134.515 1162.18 L139.445 1162.18 L139.445 1166.07 L134.515 1166.07 L134.515 1174.22 L129.862 1174.22 L129.862 1166.07 L114.26 1166.07 L114.26 1161.56 L128.635 1139.66 Z" fill="#000000" fill-rule="nonzero" fill-opacity="1" /><path clip-path="url(#clip200)" d="M118.543 957.747 L136.899 957.747 L136.899 961.682 L122.825 961.682 L122.825 970.154 Q123.843 969.807 124.862 969.645 Q125.88 969.46 126.899 969.46 Q132.686 969.46 136.066 972.631 Q139.445 975.802 139.445 981.219 Q139.445 986.798 135.973 989.9 Q132.501 992.978 126.181 992.978 Q124.005 992.978 121.737 992.608 Q119.492 992.238 117.084 991.497 L117.084 986.798 Q119.168 987.932 121.39 988.488 Q123.612 989.043 126.089 989.043 Q130.093 989.043 132.431 986.937 Q134.769 984.83 134.769 981.219 Q134.769 977.608 132.431 975.502 Q130.093 973.395 126.089 973.395 Q124.214 973.395 122.339 973.812 Q120.487 974.228 118.543 975.108 L118.543 957.747 Z" fill="#000000" fill-rule="nonzero" fill-opacity="1" /><path clip-path="url(#clip200)" d="M127.917 791.253 Q124.769 791.253 122.918 793.405 Q121.089 795.558 121.089 799.308 Q121.089 803.035 122.918 805.211 Q124.769 807.364 127.917 807.364 Q131.066 807.364 132.894 805.211 Q134.746 803.035 134.746 799.308 Q134.746 795.558 132.894 793.405 Q131.066 791.253 127.917 791.253 M137.2 776.6 L137.2 780.859 Q135.441 780.026 133.635 779.586 Q131.853 779.146 130.093 779.146 Q125.464 779.146 123.01 782.271 Q120.58 785.396 120.232 791.716 Q121.598 789.702 123.658 788.637 Q125.718 787.549 128.195 787.549 Q133.404 787.549 136.413 790.72 Q139.445 793.868 139.445 799.308 Q139.445 804.632 136.297 807.85 Q133.149 811.067 127.917 811.067 Q121.922 811.067 118.751 806.484 Q115.58 801.878 115.58 793.151 Q115.58 784.956 119.468 780.095 Q123.357 775.211 129.908 775.211 Q131.667 775.211 133.45 775.558 Q135.255 775.905 137.2 776.6 Z" fill="#000000" fill-rule="nonzero" fill-opacity="1" /><path clip-path="url(#clip200)" d="M117.223 593.925 L139.445 593.925 L139.445 595.916 L126.899 628.485 L122.015 628.485 L133.82 597.86 L117.223 597.86 L117.223 593.925 Z" fill="#000000" fill-rule="nonzero" fill-opacity="1" /><path clip-path="url(#clip200)" d="M127.593 430.162 Q124.26 430.162 122.339 431.944 Q120.441 433.727 120.441 436.852 Q120.441 439.977 122.339 441.759 Q124.26 443.542 127.593 443.542 Q130.927 443.542 132.848 441.759 Q134.769 439.954 134.769 436.852 Q134.769 433.727 132.848 431.944 Q130.95 430.162 127.593 430.162 M122.918 428.171 Q119.908 427.431 118.218 425.37 Q116.552 423.31 116.552 420.347 Q116.552 416.204 119.492 413.796 Q122.455 411.389 127.593 411.389 Q132.755 411.389 135.695 413.796 Q138.635 416.204 138.635 420.347 Q138.635 423.31 136.945 425.37 Q135.279 427.431 132.292 428.171 Q135.672 428.958 137.547 431.25 Q139.445 433.542 139.445 436.852 Q139.445 441.875 136.367 444.56 Q133.311 447.245 127.593 447.245 Q121.876 447.245 118.797 444.56 Q115.742 441.875 115.742 436.852 Q115.742 433.542 117.64 431.25 Q119.538 428.958 122.918 428.171 M121.205 420.787 Q121.205 423.472 122.871 424.977 Q124.561 426.481 127.593 426.481 Q130.603 426.481 132.292 424.977 Q134.005 423.472 134.005 420.787 Q134.005 418.102 132.292 416.597 Q130.603 415.093 127.593 415.093 Q124.561 415.093 122.871 416.597 Q121.205 418.102 121.205 420.787 Z" fill="#000000" fill-rule="nonzero" fill-opacity="1" /><path clip-path="url(#clip200)" d="M117.825 263.945 L117.825 259.686 Q119.584 260.519 121.39 260.959 Q123.195 261.399 124.931 261.399 Q129.561 261.399 131.992 258.297 Q134.445 255.172 134.792 248.83 Q133.45 250.82 131.39 251.885 Q129.33 252.95 126.83 252.95 Q121.644 252.95 118.612 249.825 Q115.603 246.677 115.603 241.237 Q115.603 235.913 118.751 232.695 Q121.899 229.478 127.13 229.478 Q133.126 229.478 136.274 234.084 Q139.445 238.668 139.445 247.418 Q139.445 255.589 135.556 260.473 Q131.691 265.334 125.14 265.334 Q123.38 265.334 121.575 264.987 Q119.769 264.64 117.825 263.945 M127.13 249.293 Q130.279 249.293 132.107 247.14 Q133.959 244.987 133.959 241.237 Q133.959 237.51 132.107 235.357 Q130.279 233.182 127.13 233.182 Q123.982 233.182 122.13 235.357 Q120.302 237.51 120.302 241.237 Q120.302 244.987 122.13 247.14 Q123.982 249.293 127.13 249.293 Z" fill="#000000" fill-rule="nonzero" fill-opacity="1" /><path clip-path="url(#clip200)" d="M20.8447 920.342 Q20.8447 927.344 26.0645 931.482 Q31.2844 935.588 40.2919 935.588 Q49.2675 935.588 54.4874 931.482 Q59.7073 927.344 59.7073 920.342 Q59.7073 913.34 54.4874 909.266 Q49.2675 905.16 40.2919 905.16 Q31.2844 905.16 26.0645 909.266 Q20.8447 913.34 20.8447 920.342 M15.6248 920.342 Q15.6248 910.348 22.3406 904.364 Q29.0246 898.38 40.2919 898.38 Q51.5274 898.38 58.2432 904.364 Q64.9272 910.348 64.9272 920.342 Q64.9272 930.368 58.2432 936.384 Q51.5592 942.367 40.2919 942.367 Q29.0246 942.367 22.3406 936.384 Q15.6248 930.368 15.6248 920.342 Z" fill="#000000" fill-rule="nonzero" fill-opacity="1" /><path clip-path="url(#clip200)" d="M58.657 882.912 L77.5631 882.912 L77.5631 888.8 L28.3562 888.8 L28.3562 882.912 L33.7671 882.912 Q30.5842 881.066 29.0564 878.265 Q27.4968 875.432 27.4968 871.517 Q27.4968 865.024 32.6531 860.982 Q37.8093 856.908 46.212 856.908 Q54.6147 856.908 59.771 860.982 Q64.9272 865.024 64.9272 871.517 Q64.9272 875.432 63.3994 878.265 Q61.8398 881.066 58.657 882.912 M46.212 862.987 Q39.7508 862.987 36.0905 865.661 Q32.3984 868.302 32.3984 872.949 Q32.3984 877.596 36.0905 880.27 Q39.7508 882.912 46.212 882.912 Q52.6732 882.912 56.3653 880.27 Q60.0256 877.596 60.0256 872.949 Q60.0256 868.302 56.3653 865.661 Q52.6732 862.987 46.212 862.987 Z" fill="#000000" fill-rule="nonzero" fill-opacity="1" /><path clip-path="url(#clip200)" d="M18.2347 841.407 L28.3562 841.407 L28.3562 829.344 L32.9077 829.344 L32.9077 841.407 L52.2594 841.407 Q56.6199 841.407 57.8613 840.23 Q59.1026 839.02 59.1026 835.36 L59.1026 829.344 L64.0042 829.344 L64.0042 835.36 Q64.0042 842.139 61.4897 844.717 Q58.9434 847.295 52.2594 847.295 L32.9077 847.295 L32.9077 851.592 L28.3562 851.592 L28.3562 847.295 L18.2347 847.295 L18.2347 841.407 Z" fill="#000000" fill-rule="nonzero" fill-opacity="1" /><path clip-path="url(#clip200)" d="M28.3562 821.642 L28.3562 815.785 L64.0042 815.785 L64.0042 821.642 L28.3562 821.642 M14.479 821.642 L14.479 815.785 L21.895 815.785 L21.895 821.642 L14.479 821.642 Z" fill="#000000" fill-rule="nonzero" fill-opacity="1" /><path clip-path="url(#clip200)" d="M35.1993 775.777 Q31.2526 773.581 29.3747 770.525 Q27.4968 767.47 27.4968 763.332 Q27.4968 757.762 31.4117 754.738 Q35.2948 751.714 42.4881 751.714 L64.0042 751.714 L64.0042 757.603 L42.679 757.603 Q37.5546 757.603 35.072 759.417 Q32.5894 761.231 32.5894 764.955 Q32.5894 769.507 35.6131 772.148 Q38.6368 774.79 43.8567 774.79 L64.0042 774.79 L64.0042 780.678 L42.679 780.678 Q37.5228 780.678 35.072 782.493 Q32.5894 784.307 32.5894 788.094 Q32.5894 792.582 35.6449 795.224 Q38.6686 797.866 43.8567 797.866 L64.0042 797.866 L64.0042 803.754 L28.3562 803.754 L28.3562 797.866 L33.8944 797.866 Q30.616 795.861 29.0564 793.06 Q27.4968 790.259 27.4968 786.408 Q27.4968 782.524 29.4702 779.819 Q31.4436 777.082 35.1993 775.777 Z" fill="#000000" fill-rule="nonzero" fill-opacity="1" /><path clip-path="url(#clip200)" d="M46.0847 723.833 Q46.0847 730.93 47.7079 733.668 Q49.3312 736.405 53.2461 736.405 Q56.3653 736.405 58.2114 734.368 Q60.0256 732.299 60.0256 728.766 Q60.0256 723.896 56.5881 720.968 Q53.1188 718.008 47.3897 718.008 L46.0847 718.008 L46.0847 723.833 M43.6657 712.152 L64.0042 712.152 L64.0042 718.008 L58.5933 718.008 Q61.8398 720.013 63.3994 723.005 Q64.9272 725.997 64.9272 730.326 Q64.9272 735.8 61.8716 739.047 Q58.7843 742.261 53.6281 742.261 Q47.6125 742.261 44.5569 738.251 Q41.5014 734.209 41.5014 726.22 L41.5014 718.008 L40.9285 718.008 Q36.8862 718.008 34.6901 720.682 Q32.4621 723.323 32.4621 728.129 Q32.4621 731.185 33.1941 734.081 Q33.9262 736.978 35.3903 739.651 L29.9795 739.651 Q28.7381 736.437 28.1334 733.413 Q27.4968 730.389 27.4968 727.525 Q27.4968 719.79 31.5072 715.971 Q35.5176 712.152 43.6657 712.152 Z" fill="#000000" fill-rule="nonzero" fill-opacity="1" /><path clip-path="url(#clip200)" d="M14.479 700.089 L14.479 694.232 L64.0042 694.232 L64.0042 700.089 L14.479 700.089 Z" fill="#000000" fill-rule="nonzero" fill-opacity="1" /><path clip-path="url(#clip200)" d="M57.5111 643.784 Q59.0389 642.638 59.0389 639.201 L59.0389 636.368 L64.0042 636.368 L64.0042 639.901 Q64.0042 645.63 60.9486 648.24 Q57.8294 650.85 51.0818 650.85 L34.2127 650.85 L34.2127 664.218 L28.3562 664.218 L28.3562 631.339 L34.2127 631.339 L34.2127 644.866 L51.4319 644.866 Q56.047 644.866 57.5111 643.784 Z" fill="#000000" fill-rule="nonzero" fill-opacity="1" /><path clip-path="url(#clip200)" d="M42.4562 610.014 Q39.719 611.605 39.719 614.82 Q39.719 618.035 42.4562 619.626 Q45.1935 621.249 50.668 621.249 Q56.1743 621.249 58.9116 619.626 Q61.6488 618.035 61.6488 614.82 Q61.6488 611.605 58.9116 610.014 Q56.1743 608.391 50.668 608.391 Q45.1935 608.391 42.4562 610.014 M36.8862 614.82 Q36.8862 609.695 40.4192 606.99 Q43.9522 604.285 50.668 604.285 Q57.4157 604.285 60.9486 606.99 Q64.4816 609.695 64.4816 614.82 Q64.4816 619.976 60.9486 622.682 Q57.4157 625.387 50.668 625.387 Q43.9522 625.387 40.4192 622.682 Q36.8862 619.976 36.8862 614.82 Z" fill="#000000" fill-rule="nonzero" fill-opacity="1" /><path clip-path="url(#clip200)" d="M960.323 17.6457 Q951.411 17.6457 946.145 24.2892 Q940.919 30.9327 940.919 42.3968 Q940.919 53.8203 946.145 60.4638 Q951.411 67.1073 960.323 67.1073 Q969.235 67.1073 974.42 60.4638 Q979.646 53.8203 979.646 42.3968 Q979.646 30.9327 974.42 24.2892 Q969.235 17.6457 960.323 17.6457 M960.323 11.0023 Q973.043 11.0023 980.659 19.5497 Q988.274 28.0566 988.274 42.3968 Q988.274 56.6965 980.659 65.2439 Q973.043 73.7508 960.323 73.7508 Q947.563 73.7508 939.907 65.2439 Q932.291 56.737 932.291 42.3968 Q932.291 28.0566 939.907 19.5497 Q947.563 11.0023 960.323 11.0023 Z" fill="#000000" fill-rule="nonzero" fill-opacity="1" /><path clip-path="url(#clip200)" d="M1007.96 65.7705 L1007.96 89.8329 L1000.47 89.8329 L1000.47 27.2059 L1007.96 27.2059 L1007.96 34.0924 Q1010.31 30.0415 1013.88 28.0971 Q1017.48 26.1121 1022.46 26.1121 Q1030.73 26.1121 1035.87 32.6746 Q1041.06 39.2371 1041.06 49.9314 Q1041.06 60.6258 1035.87 67.1883 Q1030.73 73.7508 1022.46 73.7508 Q1017.48 73.7508 1013.88 71.8063 Q1010.31 69.8214 1007.96 65.7705 M1033.32 49.9314 Q1033.32 41.7081 1029.92 37.0496 Q1026.56 32.3505 1020.64 32.3505 Q1014.73 32.3505 1011.32 37.0496 Q1007.96 41.7081 1007.96 49.9314 Q1007.96 58.1548 1011.32 62.8538 Q1014.73 67.5124 1020.64 67.5124 Q1026.56 67.5124 1029.92 62.8538 Q1033.32 58.1548 1033.32 49.9314 Z" fill="#000000" fill-rule="nonzero" fill-opacity="1" /><path clip-path="url(#clip200)" d="M1060.79 14.324 L1060.79 27.2059 L1076.14 27.2059 L1076.14 32.9987 L1060.79 32.9987 L1060.79 57.6282 Q1060.79 63.1779 1062.28 64.7578 Q1063.82 66.3376 1068.48 66.3376 L1076.14 66.3376 L1076.14 72.576 L1068.48 72.576 Q1059.85 72.576 1056.57 69.3758 Q1053.29 66.1351 1053.29 57.6282 L1053.29 32.9987 L1047.82 32.9987 L1047.82 27.2059 L1053.29 27.2059 L1053.29 14.324 L1060.79 14.324 Z" fill="#000000" fill-rule="nonzero" fill-opacity="1" /><path clip-path="url(#clip200)" d="M1085.94 27.2059 L1093.4 27.2059 L1093.4 72.576 L1085.94 72.576 L1085.94 27.2059 M1085.94 9.54393 L1093.4 9.54393 L1093.4 18.9825 L1085.94 18.9825 L1085.94 9.54393 Z" fill="#000000" fill-rule="nonzero" fill-opacity="1" /><path clip-path="url(#clip200)" d="M1144.32 35.9153 Q1147.11 30.8922 1151 28.5022 Q1154.89 26.1121 1160.15 26.1121 Q1167.24 26.1121 1171.09 31.0947 Q1174.94 36.0368 1174.94 45.1919 L1174.94 72.576 L1167.45 72.576 L1167.45 45.4349 Q1167.45 38.913 1165.14 35.7533 Q1162.83 32.5936 1158.09 32.5936 Q1152.3 32.5936 1148.93 36.4419 Q1145.57 40.2903 1145.57 46.9338 L1145.57 72.576 L1138.08 72.576 L1138.08 45.4349 Q1138.08 38.8725 1135.77 35.7533 Q1133.46 32.5936 1128.64 32.5936 Q1122.93 32.5936 1119.56 36.4824 Q1116.2 40.3308 1116.2 46.9338 L1116.2 72.576 L1108.71 72.576 L1108.71 27.2059 L1116.2 27.2059 L1116.2 34.2544 Q1118.75 30.082 1122.32 28.0971 Q1125.88 26.1121 1130.79 26.1121 Q1135.73 26.1121 1139.17 28.6237 Q1142.65 31.1352 1144.32 35.9153 Z" fill="#000000" fill-rule="nonzero" fill-opacity="1" /><path clip-path="url(#clip200)" d="M1210.43 49.7694 Q1201.39 49.7694 1197.91 51.8354 Q1194.43 53.9013 1194.43 58.8839 Q1194.43 62.8538 1197.02 65.2034 Q1199.65 67.5124 1204.15 67.5124 Q1210.35 67.5124 1214.07 63.1374 Q1217.84 58.7219 1217.84 51.4303 L1217.84 49.7694 L1210.43 49.7694 M1225.29 46.6907 L1225.29 72.576 L1217.84 72.576 L1217.84 65.6895 Q1215.29 69.8214 1211.48 71.8063 Q1207.67 73.7508 1202.16 73.7508 Q1195.19 73.7508 1191.06 69.8619 Q1186.97 65.9325 1186.97 59.3701 Q1186.97 51.7138 1192.08 47.825 Q1197.22 43.9361 1207.39 43.9361 L1217.84 43.9361 L1217.84 43.2069 Q1217.84 38.0623 1214.44 35.2672 Q1211.07 32.4315 1204.96 32.4315 Q1201.07 32.4315 1197.38 33.3632 Q1193.7 34.295 1190.29 36.1584 L1190.29 29.2718 Q1194.38 27.692 1198.23 26.9223 Q1202.08 26.1121 1205.73 26.1121 Q1215.57 26.1121 1220.43 31.2163 Q1225.29 36.3204 1225.29 46.6907 Z" fill="#000000" fill-rule="nonzero" fill-opacity="1" /><path clip-path="url(#clip200)" d="M1240.65 9.54393 L1248.1 9.54393 L1248.1 72.576 L1240.65 72.576 L1240.65 9.54393 Z" fill="#000000" fill-rule="nonzero" fill-opacity="1" /><path clip-path="url(#clip200)" d="M1312.31 64.3122 Q1313.76 66.2566 1318.14 66.2566 L1321.74 66.2566 L1321.74 72.576 L1317.25 72.576 Q1309.96 72.576 1306.64 68.6871 Q1303.31 64.7172 1303.31 56.1293 L1303.31 34.6595 L1286.3 34.6595 L1286.3 27.2059 L1328.15 27.2059 L1328.15 34.6595 L1310.93 34.6595 L1310.93 56.5749 Q1310.93 62.4487 1312.31 64.3122 Z" fill="#000000" fill-rule="nonzero" fill-opacity="1" /><path clip-path="url(#clip200)" d="M1355.29 45.1514 Q1353.26 41.6676 1349.17 41.6676 Q1345.08 41.6676 1343.05 45.1514 Q1340.99 48.6352 1340.99 55.6027 Q1340.99 62.6108 1343.05 66.0946 Q1345.08 69.5783 1349.17 69.5783 Q1353.26 69.5783 1355.29 66.0946 Q1357.35 62.6108 1357.35 55.6027 Q1357.35 48.6352 1355.29 45.1514 M1349.17 38.0623 Q1355.69 38.0623 1359.13 42.5588 Q1362.58 47.0553 1362.58 55.6027 Q1362.58 64.1906 1359.13 68.6871 Q1355.69 73.1836 1349.17 73.1836 Q1342.61 73.1836 1339.16 68.6871 Q1335.72 64.1906 1335.72 55.6027 Q1335.72 47.0553 1339.16 42.5588 Q1342.61 38.0623 1349.17 38.0623 Z" fill="#000000" fill-rule="nonzero" fill-opacity="1" /><path clip-path="url(#clip200)" d="M1375.18 62.2867 L1383.72 62.2867 L1383.72 69.2543 L1377.08 82.2172 L1371.85 82.2172 L1375.18 69.2543 L1375.18 62.2867 Z" fill="#000000" fill-rule="nonzero" fill-opacity="1" /><path clip-path="url(#clip200)" d="M1426.34 12.096 L1437.36 12.096 L1464.17 62.6918 L1464.17 12.096 L1472.11 12.096 L1472.11 72.576 L1461.1 72.576 L1434.28 21.9802 L1434.28 72.576 L1426.34 72.576 L1426.34 12.096 Z" fill="#000000" fill-rule="nonzero" fill-opacity="1" /><path clip-path="url(#clip200)" d="M1489.05 34.9026 L1540.98 34.9026 L1540.98 41.7081 L1489.05 41.7081 L1489.05 34.9026 M1489.05 51.4303 L1540.98 51.4303 L1540.98 58.3168 L1489.05 58.3168 L1489.05 51.4303 Z" fill="#000000" fill-rule="nonzero" fill-opacity="1" /><path clip-path="url(#clip200)" d="M1583.43 39.9662 Q1589.31 41.222 1592.59 45.1919 Q1595.91 49.1618 1595.91 54.9951 Q1595.91 63.9476 1589.75 68.8492 Q1583.6 73.7508 1572.25 73.7508 Q1568.44 73.7508 1564.39 72.9811 Q1560.38 72.2519 1556.09 70.7531 L1556.09 62.8538 Q1559.49 64.8388 1563.54 65.8515 Q1567.59 66.8642 1572.01 66.8642 Q1579.71 66.8642 1583.72 63.826 Q1587.77 60.7879 1587.77 54.9951 Q1587.77 49.6479 1584 46.6502 Q1580.27 43.612 1573.59 43.612 L1566.54 43.612 L1566.54 36.8875 L1573.91 36.8875 Q1579.95 36.8875 1583.15 34.4975 Q1586.35 32.067 1586.35 27.5299 Q1586.35 22.8714 1583.03 20.4004 Q1579.75 17.8888 1573.59 17.8888 Q1570.23 17.8888 1566.38 18.618 Q1562.53 19.3471 1557.91 20.8865 L1557.91 13.5948 Q1562.57 12.2985 1566.62 11.6504 Q1570.71 11.0023 1574.32 11.0023 Q1583.64 11.0023 1589.06 15.2557 Q1594.49 19.4686 1594.49 26.6793 Q1594.49 31.7024 1591.62 35.1862 Q1588.74 38.6294 1583.43 39.9662 Z" fill="#000000" fill-rule="nonzero" fill-opacity="1" /><polyline clip-path="url(#clip202)" style="stroke:#009af9; stroke-linecap:round; stroke-linejoin:round; stroke-width:8; stroke-opacity:1; fill:none" points="237.067,1386.4 243.937,1331.16 250.807,1283.16 257.677,1250.16 264.546,1226.79 271.416,1206.54 278.286,1187.9 285.156,1170.53 292.026,1155.14 298.895,1142.57 305.765,1132.25 312.635,1123.32 319.505,1114.75 326.374,1106.48 333.244,1098.48 340.114,1090.73 346.984,1083.2 353.854,1075.88 360.723,1068.74 367.593,1061.78 374.463,1054.99 381.333,1048.34 388.203,1041.83 395.072,1033.8 401.942,1028.36 408.812,1018.06 415.682,1017.77 422.551,1009.05 429.421,1004.65 436.291,1000.31 443.161,996.03 450.031,991.812 456.9,987.649 463.77,983.54 470.64,979.483 477.51,975.475 484.38,971.515 491.249,967.602 498.119,963.732 504.989,959.906 511.859,956.121 518.729,952.377 525.598,948.671 532.468,945.003 539.338,941.371 546.208,937.774 553.077,934.212 566.817,927.187 573.687,923.722 580.557,920.288 587.426,916.884 594.296,913.508 601.166,910.161 608.036,906.841 614.906,903.549 621.775,900.282 628.645,897.041 635.515,893.825 642.385,890.634 649.255,887.466 656.124,884.322 662.994,881.2 669.864,878.101 676.734,875.023 683.603,871.967 690.473,868.932 697.343,865.917 711.083,859.947 717.952,856.991 724.822,854.054 731.692,851.136 738.562,848.236 745.432,845.353 752.301,842.488 759.171,839.64 766.041,836.809 772.911,833.995 786.65,828.415 793.52,825.649 800.39,822.898 807.26,820.162 814.129,817.441 820.999,814.735 827.869,812.043 834.739,809.366 841.609,806.702 848.478,804.053 855.348,801.416 862.218,798.794 869.088,796.184 875.958,793.587 882.827,791.003 889.697,788.432 896.567,785.873 903.437,783.326 910.306,780.791 917.176,778.268 924.046,775.757 930.916,773.258 937.786,770.769 944.655,768.292 951.525,765.826 958.395,763.371 965.265,760.926 985.874,753.656 992.744,751.254 999.614,748.861 1006.48,746.478 1013.35,744.106 1020.22,741.742 1033.96,737.045 1047.7,732.385 1054.57,730.068 1061.44,727.761 1068.31,725.463 1075.18,723.173 1088.92,718.62 1095.79,716.356 1102.66,714.101 1116.4,709.616 1123.27,707.392 1130.14,705.181 1137.01,702.984 1143.88,700.801 1150.75,698.631 1157.62,696.474 1164.49,694.331 1171.36,692.2 1178.23,690.082 1185.1,687.976 1191.97,685.883 1198.84,683.801 1205.71,681.732 1212.58,679.675 1226.32,675.596 1233.19,673.577 1240.06,671.57 1246.93,669.577 1253.8,667.596 1260.67,665.628 1267.54,663.672 1281.28,659.798 1288.14,657.878 1295.01,655.971 1301.88,654.075 1308.75,652.19 1315.62,650.317 1322.49,648.454 1336.23,644.763 1343.1,642.933 1349.97,641.114 1363.71,637.507 1370.58,635.719 1377.45,633.941 1384.32,632.173 1391.19,630.415 1398.06,628.666 1404.93,626.927 1411.8,625.198 1418.67,623.477 1425.54,621.766 1439.28,618.372 1446.15,616.688 1459.89,613.347 1466.76,611.689 1480.5,608.399 1487.37,606.767 1501.11,603.527 1507.98,601.919 1514.85,600.319 1542.33,593.997 1549.2,592.436 1562.94,589.336 1569.81,587.797 1576.68,586.265 1604.16,580.208 1617.89,577.222 1652.24,569.873 1693.46,561.265 1700.33,559.852 1707.2,558.445 1714.07,270.558 1720.94,555.649 1748.42,550.127 1796.51,540.678 1803.38,539.35 1810.25,538.027 1837.73,532.787 1844.6,531.489 1975.12,507.744 2009.47,501.763 2030.08,191.34 2050.69,494.72 2057.56,493.561 2091.91,487.82 2153.74,477.723 2167.48,160.256 2188.09,472.238 2229.31,465.77 2277.39,458.372 2291.13,456.287 "/>
</svg>
