<?xml version="1.0" encoding="utf-8"?>
<svg xmlns="http://www.w3.org/2000/svg" xmlns:xlink="http://www.w3.org/1999/xlink" width="600" height="400" viewBox="0 0 2400 1600">
<defs>
  <clipPath id="clip810">
    <rect x="0" y="0" width="2400" height="1600"/>
  </clipPath>
</defs>
<path clip-path="url(#clip810)" d="M0 1600 L2400 1600 L2400 8.88178e-14 L0 8.88178e-14  Z" fill="#ffffff" fill-rule="evenodd" fill-opacity="1"/>
<defs>
  <clipPath id="clip811">
    <rect x="480" y="0" width="1681" height="1600"/>
  </clipPath>
</defs>
<path clip-path="url(#clip810)" d="M219.195 1423.18 L2352.76 1423.18 L2352.76 123.472 L219.195 123.472  Z" fill="#ffffff" fill-rule="evenodd" fill-opacity="1"/>
<defs>
  <clipPath id="clip812">
    <rect x="219" y="123" width="2135" height="1301"/>
  </clipPath>
</defs>
<polyline clip-path="url(#clip812)" style="stroke:#000000; stroke-linecap:round; stroke-linejoin:round; stroke-width:2; stroke-opacity:0.1; fill:none" points="258.899,1423.18 258.899,123.472 "/>
<polyline clip-path="url(#clip812)" style="stroke:#000000; stroke-linecap:round; stroke-linejoin:round; stroke-width:2; stroke-opacity:0.1; fill:none" points="948.212,1423.18 948.212,123.472 "/>
<polyline clip-path="url(#clip812)" style="stroke:#000000; stroke-linecap:round; stroke-linejoin:round; stroke-width:2; stroke-opacity:0.1; fill:none" points="1637.52,1423.18 1637.52,123.472 "/>
<polyline clip-path="url(#clip812)" style="stroke:#000000; stroke-linecap:round; stroke-linejoin:round; stroke-width:2; stroke-opacity:0.1; fill:none" points="2326.84,1423.18 2326.84,123.472 "/>
<polyline clip-path="url(#clip812)" style="stroke:#000000; stroke-linecap:round; stroke-linejoin:round; stroke-width:2; stroke-opacity:0.1; fill:none" points="219.195,1376.04 2352.76,1376.04 "/>
<polyline clip-path="url(#clip812)" style="stroke:#000000; stroke-linecap:round; stroke-linejoin:round; stroke-width:2; stroke-opacity:0.1; fill:none" points="219.195,1190.11 2352.76,1190.11 "/>
<polyline clip-path="url(#clip812)" style="stroke:#000000; stroke-linecap:round; stroke-linejoin:round; stroke-width:2; stroke-opacity:0.1; fill:none" points="219.195,1004.17 2352.76,1004.17 "/>
<polyline clip-path="url(#clip812)" style="stroke:#000000; stroke-linecap:round; stroke-linejoin:round; stroke-width:2; stroke-opacity:0.1; fill:none" points="219.195,818.241 2352.76,818.241 "/>
<polyline clip-path="url(#clip812)" style="stroke:#000000; stroke-linecap:round; stroke-linejoin:round; stroke-width:2; stroke-opacity:0.1; fill:none" points="219.195,632.306 2352.76,632.306 "/>
<polyline clip-path="url(#clip812)" style="stroke:#000000; stroke-linecap:round; stroke-linejoin:round; stroke-width:2; stroke-opacity:0.1; fill:none" points="219.195,446.372 2352.76,446.372 "/>
<polyline clip-path="url(#clip812)" style="stroke:#000000; stroke-linecap:round; stroke-linejoin:round; stroke-width:2; stroke-opacity:0.1; fill:none" points="219.195,260.438 2352.76,260.438 "/>
<polyline clip-path="url(#clip810)" style="stroke:#000000; stroke-linecap:round; stroke-linejoin:round; stroke-width:4; stroke-opacity:1; fill:none" points="219.195,1423.18 2352.76,1423.18 "/>
<polyline clip-path="url(#clip810)" style="stroke:#000000; stroke-linecap:round; stroke-linejoin:round; stroke-width:4; stroke-opacity:1; fill:none" points="258.899,1423.18 258.899,1404.28 "/>
<polyline clip-path="url(#clip810)" style="stroke:#000000; stroke-linecap:round; stroke-linejoin:round; stroke-width:4; stroke-opacity:1; fill:none" points="948.212,1423.18 948.212,1404.28 "/>
<polyline clip-path="url(#clip810)" style="stroke:#000000; stroke-linecap:round; stroke-linejoin:round; stroke-width:4; stroke-opacity:1; fill:none" points="1637.52,1423.18 1637.52,1404.28 "/>
<polyline clip-path="url(#clip810)" style="stroke:#000000; stroke-linecap:round; stroke-linejoin:round; stroke-width:4; stroke-opacity:1; fill:none" points="2326.84,1423.18 2326.84,1404.28 "/>
<path clip-path="url(#clip810)" d="M258.899 1454.1 Q255.288 1454.1 253.46 1457.66 Q251.654 1461.2 251.654 1468.33 Q251.654 1475.44 253.46 1479.01 Q255.288 1482.55 258.899 1482.55 Q262.534 1482.55 264.339 1479.01 Q266.168 1475.44 266.168 1468.33 Q266.168 1461.2 264.339 1457.66 Q262.534 1454.1 258.899 1454.1 M258.899 1450.39 Q264.71 1450.39 267.765 1455 Q270.844 1459.58 270.844 1468.33 Q270.844 1477.06 267.765 1481.67 Q264.71 1486.25 258.899 1486.25 Q253.089 1486.25 250.011 1481.67 Q246.955 1477.06 246.955 1468.33 Q246.955 1459.58 250.011 1455 Q253.089 1450.39 258.899 1450.39 Z" fill="#000000" fill-rule="nonzero" fill-opacity="1" /><path clip-path="url(#clip810)" d="M907.819 1481.64 L915.458 1481.64 L915.458 1455.28 L907.148 1456.95 L907.148 1452.69 L915.411 1451.02 L920.087 1451.02 L920.087 1481.64 L927.726 1481.64 L927.726 1485.58 L907.819 1485.58 L907.819 1481.64 Z" fill="#000000" fill-rule="nonzero" fill-opacity="1" /><path clip-path="url(#clip810)" d="M947.171 1454.1 Q943.559 1454.1 941.731 1457.66 Q939.925 1461.2 939.925 1468.33 Q939.925 1475.44 941.731 1479.01 Q943.559 1482.55 947.171 1482.55 Q950.805 1482.55 952.61 1479.01 Q954.439 1475.44 954.439 1468.33 Q954.439 1461.2 952.61 1457.66 Q950.805 1454.1 947.171 1454.1 M947.171 1450.39 Q952.981 1450.39 956.036 1455 Q959.115 1459.58 959.115 1468.33 Q959.115 1477.06 956.036 1481.67 Q952.981 1486.25 947.171 1486.25 Q941.36 1486.25 938.282 1481.67 Q935.226 1477.06 935.226 1468.33 Q935.226 1459.58 938.282 1455 Q941.36 1450.39 947.171 1450.39 Z" fill="#000000" fill-rule="nonzero" fill-opacity="1" /><path clip-path="url(#clip810)" d="M977.332 1454.1 Q973.721 1454.1 971.893 1457.66 Q970.087 1461.2 970.087 1468.33 Q970.087 1475.44 971.893 1479.01 Q973.721 1482.55 977.332 1482.55 Q980.967 1482.55 982.772 1479.01 Q984.601 1475.44 984.601 1468.33 Q984.601 1461.2 982.772 1457.66 Q980.967 1454.1 977.332 1454.1 M977.332 1450.39 Q983.143 1450.39 986.198 1455 Q989.277 1459.58 989.277 1468.33 Q989.277 1477.06 986.198 1481.67 Q983.143 1486.25 977.332 1486.25 Q971.522 1486.25 968.444 1481.67 Q965.388 1477.06 965.388 1468.33 Q965.388 1459.58 968.444 1455 Q971.522 1450.39 977.332 1450.39 Z" fill="#000000" fill-rule="nonzero" fill-opacity="1" /><path clip-path="url(#clip810)" d="M1601.22 1481.64 L1617.54 1481.64 L1617.54 1485.58 L1595.59 1485.58 L1595.59 1481.64 Q1598.25 1478.89 1602.84 1474.26 Q1607.44 1469.61 1608.62 1468.27 Q1610.87 1465.74 1611.75 1464.01 Q1612.65 1462.25 1612.65 1460.56 Q1612.65 1457.8 1610.71 1456.07 Q1608.79 1454.33 1605.68 1454.33 Q1603.49 1454.33 1601.03 1455.09 Q1598.6 1455.86 1595.82 1457.41 L1595.82 1452.69 Q1598.65 1451.55 1601.1 1450.97 Q1603.56 1450.39 1605.59 1450.39 Q1610.96 1450.39 1614.16 1453.08 Q1617.35 1455.77 1617.35 1460.26 Q1617.35 1462.39 1616.54 1464.31 Q1615.75 1466.2 1613.65 1468.8 Q1613.07 1469.47 1609.97 1472.69 Q1606.87 1475.88 1601.22 1481.64 Z" fill="#000000" fill-rule="nonzero" fill-opacity="1" /><path clip-path="url(#clip810)" d="M1637.35 1454.1 Q1633.74 1454.1 1631.91 1457.66 Q1630.11 1461.2 1630.11 1468.33 Q1630.11 1475.44 1631.91 1479.01 Q1633.74 1482.55 1637.35 1482.55 Q1640.99 1482.55 1642.79 1479.01 Q1644.62 1475.44 1644.62 1468.33 Q1644.62 1461.2 1642.79 1457.66 Q1640.99 1454.1 1637.35 1454.1 M1637.35 1450.39 Q1643.16 1450.39 1646.22 1455 Q1649.3 1459.58 1649.3 1468.33 Q1649.3 1477.06 1646.22 1481.67 Q1643.16 1486.25 1637.35 1486.25 Q1631.54 1486.25 1628.46 1481.67 Q1625.41 1477.06 1625.41 1468.33 Q1625.41 1459.58 1628.46 1455 Q1631.54 1450.39 1637.35 1450.39 Z" fill="#000000" fill-rule="nonzero" fill-opacity="1" /><path clip-path="url(#clip810)" d="M1667.51 1454.1 Q1663.9 1454.1 1662.07 1457.66 Q1660.27 1461.2 1660.27 1468.33 Q1660.27 1475.44 1662.07 1479.01 Q1663.9 1482.55 1667.51 1482.55 Q1671.15 1482.55 1672.95 1479.01 Q1674.78 1475.44 1674.78 1468.33 Q1674.78 1461.2 1672.95 1457.66 Q1671.15 1454.1 1667.51 1454.1 M1667.51 1450.39 Q1673.32 1450.39 1676.38 1455 Q1679.46 1459.58 1679.46 1468.33 Q1679.46 1477.06 1676.38 1481.67 Q1673.32 1486.25 1667.51 1486.25 Q1661.7 1486.25 1658.62 1481.67 Q1655.57 1477.06 1655.57 1468.33 Q1655.57 1459.58 1658.62 1455 Q1661.7 1450.39 1667.51 1450.39 Z" fill="#000000" fill-rule="nonzero" fill-opacity="1" /><path clip-path="url(#clip810)" d="M2300.6 1466.95 Q2303.96 1467.66 2305.83 1469.93 Q2307.73 1472.2 2307.73 1475.53 Q2307.73 1480.65 2304.21 1483.45 Q2300.69 1486.25 2294.21 1486.25 Q2292.03 1486.25 2289.72 1485.81 Q2287.43 1485.39 2284.97 1484.54 L2284.97 1480.02 Q2286.92 1481.16 2289.23 1481.74 Q2291.55 1482.32 2294.07 1482.32 Q2298.47 1482.32 2300.76 1480.58 Q2303.08 1478.84 2303.08 1475.53 Q2303.08 1472.48 2300.92 1470.77 Q2298.79 1469.03 2294.97 1469.03 L2290.95 1469.03 L2290.95 1465.19 L2295.16 1465.19 Q2298.61 1465.19 2300.44 1463.82 Q2302.27 1462.43 2302.27 1459.84 Q2302.27 1457.18 2300.37 1455.77 Q2298.49 1454.33 2294.97 1454.33 Q2293.05 1454.33 2290.85 1454.75 Q2288.66 1455.16 2286.02 1456.04 L2286.02 1451.88 Q2288.68 1451.14 2290.99 1450.77 Q2293.33 1450.39 2295.39 1450.39 Q2300.72 1450.39 2303.82 1452.83 Q2306.92 1455.23 2306.92 1459.35 Q2306.92 1462.22 2305.28 1464.21 Q2303.63 1466.18 2300.6 1466.95 Z" fill="#000000" fill-rule="nonzero" fill-opacity="1" /><path clip-path="url(#clip810)" d="M2326.59 1454.1 Q2322.98 1454.1 2321.15 1457.66 Q2319.35 1461.2 2319.35 1468.33 Q2319.35 1475.44 2321.15 1479.01 Q2322.98 1482.55 2326.59 1482.55 Q2330.23 1482.55 2332.03 1479.01 Q2333.86 1475.44 2333.86 1468.33 Q2333.86 1461.2 2332.03 1457.66 Q2330.23 1454.1 2326.59 1454.1 M2326.59 1450.39 Q2332.4 1450.39 2335.46 1455 Q2338.54 1459.58 2338.54 1468.33 Q2338.54 1477.06 2335.46 1481.67 Q2332.4 1486.25 2326.59 1486.25 Q2320.78 1486.25 2317.71 1481.67 Q2314.65 1477.06 2314.65 1468.33 Q2314.65 1459.58 2317.71 1455 Q2320.78 1450.39 2326.59 1450.39 Z" fill="#000000" fill-rule="nonzero" fill-opacity="1" /><path clip-path="url(#clip810)" d="M2356.76 1454.1 Q2353.15 1454.1 2351.32 1457.66 Q2349.51 1461.2 2349.51 1468.33 Q2349.51 1475.44 2351.32 1479.01 Q2353.15 1482.55 2356.76 1482.55 Q2360.39 1482.55 2362.2 1479.01 Q2364.03 1475.44 2364.03 1468.33 Q2364.03 1461.2 2362.2 1457.66 Q2360.39 1454.1 2356.76 1454.1 M2356.76 1450.39 Q2362.57 1450.39 2365.62 1455 Q2368.7 1459.58 2368.7 1468.33 Q2368.7 1477.06 2365.62 1481.67 Q2362.57 1486.25 2356.76 1486.25 Q2350.95 1486.25 2347.87 1481.67 Q2344.81 1477.06 2344.81 1468.33 Q2344.81 1459.58 2347.87 1455 Q2350.95 1450.39 2356.76 1450.39 Z" fill="#000000" fill-rule="nonzero" fill-opacity="1" /><path clip-path="url(#clip810)" d="M1286.87 1524.09 L1303.32 1568.04 L1297.12 1568.04 L1287.12 1541.69 L1274.84 1568.04 L1268.63 1568.04 L1284.26 1533.86 L1281.9 1527.56 Q1280.41 1523.55 1277 1523.55 L1273.94 1523.55 L1273.94 1518.52 L1277.67 1518.58 Q1284.86 1518.68 1286.87 1524.09 Z" fill="#000000" fill-rule="nonzero" fill-opacity="1" /><polyline clip-path="url(#clip810)" style="stroke:#000000; stroke-linecap:round; stroke-linejoin:round; stroke-width:4; stroke-opacity:1; fill:none" points="219.195,1423.18 219.195,123.472 "/>
<polyline clip-path="url(#clip810)" style="stroke:#000000; stroke-linecap:round; stroke-linejoin:round; stroke-width:4; stroke-opacity:1; fill:none" points="219.195,1376.04 238.093,1376.04 "/>
<polyline clip-path="url(#clip810)" style="stroke:#000000; stroke-linecap:round; stroke-linejoin:round; stroke-width:4; stroke-opacity:1; fill:none" points="219.195,1190.11 238.093,1190.11 "/>
<polyline clip-path="url(#clip810)" style="stroke:#000000; stroke-linecap:round; stroke-linejoin:round; stroke-width:4; stroke-opacity:1; fill:none" points="219.195,1004.17 238.093,1004.17 "/>
<polyline clip-path="url(#clip810)" style="stroke:#000000; stroke-linecap:round; stroke-linejoin:round; stroke-width:4; stroke-opacity:1; fill:none" points="219.195,818.241 238.093,818.241 "/>
<polyline clip-path="url(#clip810)" style="stroke:#000000; stroke-linecap:round; stroke-linejoin:round; stroke-width:4; stroke-opacity:1; fill:none" points="219.195,632.306 238.093,632.306 "/>
<polyline clip-path="url(#clip810)" style="stroke:#000000; stroke-linecap:round; stroke-linejoin:round; stroke-width:4; stroke-opacity:1; fill:none" points="219.195,446.372 238.093,446.372 "/>
<polyline clip-path="url(#clip810)" style="stroke:#000000; stroke-linecap:round; stroke-linejoin:round; stroke-width:4; stroke-opacity:1; fill:none" points="219.195,260.438 238.093,260.438 "/>
<path clip-path="url(#clip810)" d="M129.862 1362.84 L118.056 1381.29 L129.862 1381.29 L129.862 1362.84 M128.635 1358.76 L134.515 1358.76 L134.515 1381.29 L139.445 1381.29 L139.445 1385.18 L134.515 1385.18 L134.515 1393.32 L129.862 1393.32 L129.862 1385.18 L114.26 1385.18 L114.26 1380.66 L128.635 1358.76 Z" fill="#000000" fill-rule="nonzero" fill-opacity="1" /><path clip-path="url(#clip810)" d="M147.177 1387.44 L152.061 1387.44 L152.061 1393.32 L147.177 1393.32 L147.177 1387.44 Z" fill="#000000" fill-rule="nonzero" fill-opacity="1" /><path clip-path="url(#clip810)" d="M162.292 1358.76 L180.649 1358.76 L180.649 1362.7 L166.575 1362.7 L166.575 1371.17 Q167.593 1370.82 168.612 1370.66 Q169.63 1370.48 170.649 1370.48 Q176.436 1370.48 179.815 1373.65 Q183.195 1376.82 183.195 1382.24 Q183.195 1387.81 179.723 1390.92 Q176.251 1393.99 169.931 1393.99 Q167.755 1393.99 165.487 1393.62 Q163.241 1393.25 160.834 1392.51 L160.834 1387.81 Q162.917 1388.95 165.14 1389.5 Q167.362 1390.06 169.839 1390.06 Q173.843 1390.06 176.181 1387.95 Q178.519 1385.85 178.519 1382.24 Q178.519 1378.62 176.181 1376.52 Q173.843 1374.41 169.839 1374.41 Q167.964 1374.41 166.089 1374.83 Q164.237 1375.24 162.292 1376.12 L162.292 1358.76 Z" fill="#000000" fill-rule="nonzero" fill-opacity="1" /><path clip-path="url(#clip810)" d="M116.066 1172.83 L134.422 1172.83 L134.422 1176.76 L120.348 1176.76 L120.348 1185.24 Q121.367 1184.89 122.385 1184.73 Q123.404 1184.54 124.422 1184.54 Q130.209 1184.54 133.589 1187.71 Q136.968 1190.88 136.968 1196.3 Q136.968 1201.88 133.496 1204.98 Q130.024 1208.06 123.705 1208.06 Q121.529 1208.06 119.26 1207.69 Q117.015 1207.32 114.607 1206.58 L114.607 1201.88 Q116.691 1203.01 118.913 1203.57 Q121.135 1204.13 123.612 1204.13 Q127.617 1204.13 129.955 1202.02 Q132.292 1199.91 132.292 1196.3 Q132.292 1192.69 129.955 1190.58 Q127.617 1188.48 123.612 1188.48 Q121.737 1188.48 119.862 1188.89 Q118.01 1189.31 116.066 1190.19 L116.066 1172.83 Z" fill="#000000" fill-rule="nonzero" fill-opacity="1" /><path clip-path="url(#clip810)" d="M146.181 1201.51 L151.066 1201.51 L151.066 1207.39 L146.181 1207.39 L146.181 1201.51 Z" fill="#000000" fill-rule="nonzero" fill-opacity="1" /><path clip-path="url(#clip810)" d="M171.251 1175.91 Q167.64 1175.91 165.811 1179.47 Q164.005 1183.01 164.005 1190.14 Q164.005 1197.25 165.811 1200.82 Q167.64 1204.36 171.251 1204.36 Q174.885 1204.36 176.69 1200.82 Q178.519 1197.25 178.519 1190.14 Q178.519 1183.01 176.69 1179.47 Q174.885 1175.91 171.251 1175.91 M171.251 1172.2 Q177.061 1172.2 180.116 1176.81 Q183.195 1181.39 183.195 1190.14 Q183.195 1198.87 180.116 1203.48 Q177.061 1208.06 171.251 1208.06 Q165.44 1208.06 162.362 1203.48 Q159.306 1198.87 159.306 1190.14 Q159.306 1181.39 162.362 1176.81 Q165.44 1172.2 171.251 1172.2 Z" fill="#000000" fill-rule="nonzero" fill-opacity="1" /><path clip-path="url(#clip810)" d="M117.061 986.895 L135.417 986.895 L135.417 990.83 L121.343 990.83 L121.343 999.302 Q122.362 998.955 123.38 998.793 Q124.399 998.608 125.418 998.608 Q131.205 998.608 134.584 1001.78 Q137.964 1004.95 137.964 1010.37 Q137.964 1015.95 134.492 1019.05 Q131.019 1022.13 124.7 1022.13 Q122.524 1022.13 120.255 1021.76 Q118.01 1021.39 115.603 1020.64 L115.603 1015.95 Q117.686 1017.08 119.908 1017.64 Q122.13 1018.19 124.607 1018.19 Q128.612 1018.19 130.95 1016.08 Q133.288 1013.98 133.288 1010.37 Q133.288 1006.76 130.95 1004.65 Q128.612 1002.54 124.607 1002.54 Q122.732 1002.54 120.857 1002.96 Q119.006 1003.38 117.061 1004.26 L117.061 986.895 Z" fill="#000000" fill-rule="nonzero" fill-opacity="1" /><path clip-path="url(#clip810)" d="M147.177 1015.58 L152.061 1015.58 L152.061 1021.45 L147.177 1021.45 L147.177 1015.58 Z" fill="#000000" fill-rule="nonzero" fill-opacity="1" /><path clip-path="url(#clip810)" d="M162.292 986.895 L180.649 986.895 L180.649 990.83 L166.575 990.83 L166.575 999.302 Q167.593 998.955 168.612 998.793 Q169.63 998.608 170.649 998.608 Q176.436 998.608 179.815 1001.78 Q183.195 1004.95 183.195 1010.37 Q183.195 1015.95 179.723 1019.05 Q176.251 1022.13 169.931 1022.13 Q167.755 1022.13 165.487 1021.76 Q163.241 1021.39 160.834 1020.64 L160.834 1015.95 Q162.917 1017.08 165.14 1017.64 Q167.362 1018.19 169.839 1018.19 Q173.843 1018.19 176.181 1016.08 Q178.519 1013.98 178.519 1010.37 Q178.519 1006.76 176.181 1004.65 Q173.843 1002.54 169.839 1002.54 Q167.964 1002.54 166.089 1002.96 Q164.237 1003.38 162.292 1004.26 L162.292 986.895 Z" fill="#000000" fill-rule="nonzero" fill-opacity="1" /><path clip-path="url(#clip810)" d="M126.598 816.377 Q123.45 816.377 121.598 818.53 Q119.769 820.683 119.769 824.433 Q119.769 828.159 121.598 830.335 Q123.45 832.488 126.598 832.488 Q129.746 832.488 131.575 830.335 Q133.427 828.159 133.427 824.433 Q133.427 820.683 131.575 818.53 Q129.746 816.377 126.598 816.377 M135.88 801.724 L135.88 805.984 Q134.121 805.15 132.316 804.71 Q130.533 804.271 128.774 804.271 Q124.144 804.271 121.691 807.396 Q119.26 810.521 118.913 816.84 Q120.279 814.826 122.339 813.761 Q124.399 812.673 126.876 812.673 Q132.084 812.673 135.093 815.845 Q138.126 818.993 138.126 824.433 Q138.126 829.757 134.978 832.974 Q131.83 836.192 126.598 836.192 Q120.603 836.192 117.431 831.608 Q114.26 827.002 114.26 818.275 Q114.26 810.081 118.149 805.22 Q122.038 800.336 128.589 800.336 Q130.348 800.336 132.13 800.683 Q133.936 801.03 135.88 801.724 Z" fill="#000000" fill-rule="nonzero" fill-opacity="1" /><path clip-path="url(#clip810)" d="M146.181 829.641 L151.066 829.641 L151.066 835.521 L146.181 835.521 L146.181 829.641 Z" fill="#000000" fill-rule="nonzero" fill-opacity="1" /><path clip-path="url(#clip810)" d="M171.251 804.039 Q167.64 804.039 165.811 807.604 Q164.005 811.146 164.005 818.275 Q164.005 825.382 165.811 828.946 Q167.64 832.488 171.251 832.488 Q174.885 832.488 176.69 828.946 Q178.519 825.382 178.519 818.275 Q178.519 811.146 176.69 807.604 Q174.885 804.039 171.251 804.039 M171.251 800.336 Q177.061 800.336 180.116 804.942 Q183.195 809.525 183.195 818.275 Q183.195 827.002 180.116 831.608 Q177.061 836.192 171.251 836.192 Q165.44 836.192 162.362 831.608 Q159.306 827.002 159.306 818.275 Q159.306 809.525 162.362 804.942 Q165.44 800.336 171.251 800.336 Z" fill="#000000" fill-rule="nonzero" fill-opacity="1" /><path clip-path="url(#clip810)" d="M127.593 630.443 Q124.445 630.443 122.593 632.596 Q120.765 634.748 120.765 638.498 Q120.765 642.225 122.593 644.401 Q124.445 646.554 127.593 646.554 Q130.742 646.554 132.57 644.401 Q134.422 642.225 134.422 638.498 Q134.422 634.748 132.57 632.596 Q130.742 630.443 127.593 630.443 M136.876 615.79 L136.876 620.049 Q135.117 619.216 133.311 618.776 Q131.529 618.336 129.769 618.336 Q125.14 618.336 122.686 621.461 Q120.255 624.586 119.908 630.906 Q121.274 628.892 123.334 627.827 Q125.394 626.739 127.871 626.739 Q133.08 626.739 136.089 629.91 Q139.121 633.059 139.121 638.498 Q139.121 643.822 135.973 647.04 Q132.825 650.258 127.593 650.258 Q121.598 650.258 118.427 645.674 Q115.256 641.068 115.256 632.341 Q115.256 624.147 119.144 619.285 Q123.033 614.401 129.584 614.401 Q131.343 614.401 133.126 614.748 Q134.931 615.096 136.876 615.79 Z" fill="#000000" fill-rule="nonzero" fill-opacity="1" /><path clip-path="url(#clip810)" d="M147.177 643.707 L152.061 643.707 L152.061 649.586 L147.177 649.586 L147.177 643.707 Z" fill="#000000" fill-rule="nonzero" fill-opacity="1" /><path clip-path="url(#clip810)" d="M162.292 615.026 L180.649 615.026 L180.649 618.961 L166.575 618.961 L166.575 627.434 Q167.593 627.086 168.612 626.924 Q169.63 626.739 170.649 626.739 Q176.436 626.739 179.815 629.91 Q183.195 633.082 183.195 638.498 Q183.195 644.077 179.723 647.179 Q176.251 650.258 169.931 650.258 Q167.755 650.258 165.487 649.887 Q163.241 649.517 160.834 648.776 L160.834 644.077 Q162.917 645.211 165.14 645.767 Q167.362 646.322 169.839 646.322 Q173.843 646.322 176.181 644.216 Q178.519 642.109 178.519 638.498 Q178.519 634.887 176.181 632.781 Q173.843 630.674 169.839 630.674 Q167.964 630.674 166.089 631.091 Q164.237 631.508 162.292 632.387 L162.292 615.026 Z" fill="#000000" fill-rule="nonzero" fill-opacity="1" /><path clip-path="url(#clip810)" d="M114.839 429.092 L137.061 429.092 L137.061 431.083 L124.515 463.652 L119.63 463.652 L131.436 433.027 L114.839 433.027 L114.839 429.092 Z" fill="#000000" fill-rule="nonzero" fill-opacity="1" /><path clip-path="url(#clip810)" d="M146.181 457.772 L151.066 457.772 L151.066 463.652 L146.181 463.652 L146.181 457.772 Z" fill="#000000" fill-rule="nonzero" fill-opacity="1" /><path clip-path="url(#clip810)" d="M171.251 432.171 Q167.64 432.171 165.811 435.735 Q164.005 439.277 164.005 446.407 Q164.005 453.513 165.811 457.078 Q167.64 460.62 171.251 460.62 Q174.885 460.62 176.69 457.078 Q178.519 453.513 178.519 446.407 Q178.519 439.277 176.69 435.735 Q174.885 432.171 171.251 432.171 M171.251 428.467 Q177.061 428.467 180.116 433.073 Q183.195 437.657 183.195 446.407 Q183.195 455.133 180.116 459.74 Q177.061 464.323 171.251 464.323 Q165.44 464.323 162.362 459.74 Q159.306 455.133 159.306 446.407 Q159.306 437.657 162.362 433.073 Q165.44 428.467 171.251 428.467 Z" fill="#000000" fill-rule="nonzero" fill-opacity="1" /><path clip-path="url(#clip810)" d="M115.834 243.158 L138.056 243.158 L138.056 245.148 L125.51 277.718 L120.626 277.718 L132.431 247.093 L115.834 247.093 L115.834 243.158 Z" fill="#000000" fill-rule="nonzero" fill-opacity="1" /><path clip-path="url(#clip810)" d="M147.177 271.838 L152.061 271.838 L152.061 277.718 L147.177 277.718 L147.177 271.838 Z" fill="#000000" fill-rule="nonzero" fill-opacity="1" /><path clip-path="url(#clip810)" d="M162.292 243.158 L180.649 243.158 L180.649 247.093 L166.575 247.093 L166.575 255.565 Q167.593 255.218 168.612 255.056 Q169.63 254.871 170.649 254.871 Q176.436 254.871 179.815 258.042 Q183.195 261.213 183.195 266.63 Q183.195 272.208 179.723 275.31 Q176.251 278.389 169.931 278.389 Q167.755 278.389 165.487 278.019 Q163.241 277.648 160.834 276.908 L160.834 272.208 Q162.917 273.343 165.14 273.898 Q167.362 274.454 169.839 274.454 Q173.843 274.454 176.181 272.347 Q178.519 270.241 178.519 266.63 Q178.519 263.019 176.181 260.912 Q173.843 258.806 169.839 258.806 Q167.964 258.806 166.089 259.222 Q164.237 259.639 162.292 260.519 L162.292 243.158 Z" fill="#000000" fill-rule="nonzero" fill-opacity="1" /><path clip-path="url(#clip810)" d="M16.4842 1061.85 L16.4842 1055.39 L45.3526 1055.39 Q52.9915 1055.39 56.3653 1052.62 Q59.7073 1049.85 59.7073 1043.65 Q59.7073 1037.47 56.3653 1034.7 Q52.9915 1031.93 45.3526 1031.93 L16.4842 1031.93 L16.4842 1025.47 L46.1484 1025.47 Q55.4423 1025.47 60.1847 1030.09 Q64.9272 1034.67 64.9272 1043.65 Q64.9272 1052.65 60.1847 1057.27 Q55.4423 1061.85 46.1484 1061.85 L16.4842 1061.85 Z" fill="#000000" fill-rule="nonzero" fill-opacity="1" /><path clip-path="url(#clip810)" d="M58.657 1008 L77.5631 1008 L77.5631 1013.89 L28.3562 1013.89 L28.3562 1008 L33.7671 1008 Q30.5842 1006.15 29.0564 1003.35 Q27.4968 1000.52 27.4968 996.603 Q27.4968 990.11 32.6531 986.068 Q37.8093 981.994 46.212 981.994 Q54.6147 981.994 59.771 986.068 Q64.9272 990.11 64.9272 996.603 Q64.9272 1000.52 63.3994 1003.35 Q61.8398 1006.15 58.657 1008 M46.212 988.073 Q39.7508 988.073 36.0905 990.747 Q32.3984 993.388 32.3984 998.035 Q32.3984 1002.68 36.0905 1005.36 Q39.7508 1008 46.212 1008 Q52.6732 1008 56.3653 1005.36 Q60.0256 1002.68 60.0256 998.035 Q60.0256 993.388 56.3653 990.747 Q52.6732 988.073 46.212 988.073 Z" fill="#000000" fill-rule="nonzero" fill-opacity="1" /><path clip-path="url(#clip810)" d="M58.657 966.621 L77.5631 966.621 L77.5631 972.509 L28.3562 972.509 L28.3562 966.621 L33.7671 966.621 Q30.5842 964.775 29.0564 961.974 Q27.4968 959.141 27.4968 955.226 Q27.4968 948.733 32.6531 944.691 Q37.8093 940.617 46.212 940.617 Q54.6147 940.617 59.771 944.691 Q64.9272 948.733 64.9272 955.226 Q64.9272 959.141 63.3994 961.974 Q61.8398 964.775 58.657 966.621 M46.212 946.696 Q39.7508 946.696 36.0905 949.37 Q32.3984 952.011 32.3984 956.658 Q32.3984 961.305 36.0905 963.979 Q39.7508 966.621 46.212 966.621 Q52.6732 966.621 56.3653 963.979 Q60.0256 961.305 60.0256 956.658 Q60.0256 952.011 56.3653 949.37 Q52.6732 946.696 46.212 946.696 Z" fill="#000000" fill-rule="nonzero" fill-opacity="1" /><path clip-path="url(#clip810)" d="M44.7161 900.417 L47.5806 900.417 L47.5806 927.344 Q53.6281 926.962 56.8109 923.716 Q59.9619 920.437 59.9619 914.613 Q59.9619 911.239 59.1344 908.088 Q58.3069 904.905 56.6518 901.786 L62.1899 901.786 Q63.5267 904.937 64.227 908.247 Q64.9272 911.557 64.9272 914.963 Q64.9272 923.493 59.9619 928.49 Q54.9967 933.455 46.5303 933.455 Q37.7774 933.455 32.6531 928.745 Q27.4968 924.002 27.4968 915.981 Q27.4968 908.788 32.1438 904.619 Q36.7589 900.417 44.7161 900.417 M42.9973 906.274 Q38.1912 906.337 35.3266 908.979 Q32.4621 911.589 32.4621 915.918 Q32.4621 920.819 35.2312 923.779 Q38.0002 926.708 43.0292 927.153 L42.9973 906.274 Z" fill="#000000" fill-rule="nonzero" fill-opacity="1" /><path clip-path="url(#clip810)" d="M33.8307 870.148 Q33.2578 871.135 33.0032 872.313 Q32.7167 873.459 32.7167 874.859 Q32.7167 879.824 35.9632 882.498 Q39.1779 885.14 45.2253 885.14 L64.0042 885.14 L64.0042 891.028 L28.3562 891.028 L28.3562 885.14 L33.8944 885.14 Q30.6479 883.294 29.0883 880.334 Q27.4968 877.373 27.4968 873.14 Q27.4968 872.536 27.5923 871.803 Q27.656 871.071 27.8151 870.18 L33.8307 870.148 Z" fill="#000000" fill-rule="nonzero" fill-opacity="1" /><path clip-path="url(#clip810)" d="M41.3104 836.601 L58.7206 836.601 L58.7206 826.289 Q58.7206 821.101 56.5881 818.618 Q54.4238 816.104 49.9996 816.104 Q45.5436 816.104 43.4429 818.618 Q41.3104 821.101 41.3104 826.289 L41.3104 836.601 M21.7677 836.601 L36.0905 836.601 L36.0905 827.084 Q36.0905 822.374 34.34 820.082 Q32.5576 817.759 28.9291 817.759 Q25.3325 817.759 23.5501 820.082 Q21.7677 822.374 21.7677 827.084 L21.7677 836.601 M16.4842 843.03 L16.4842 826.607 Q16.4842 819.255 19.5397 815.276 Q22.5952 811.297 28.2289 811.297 Q32.5894 811.297 35.1675 813.334 Q37.7456 815.371 38.3822 819.318 Q39.4007 814.576 42.6472 811.966 Q45.8619 809.324 50.6998 809.324 Q57.0655 809.324 60.5348 813.653 Q64.0042 817.981 64.0042 825.97 L64.0042 843.03 L16.4842 843.03 Z" fill="#000000" fill-rule="nonzero" fill-opacity="1" /><path clip-path="url(#clip810)" d="M32.4621 784.752 Q32.4621 789.463 36.1542 792.2 Q39.8145 794.938 46.212 794.938 Q52.6095 794.938 56.3017 792.232 Q59.9619 789.495 59.9619 784.752 Q59.9619 780.074 56.2698 777.336 Q52.5777 774.599 46.212 774.599 Q39.8781 774.599 36.186 777.336 Q32.4621 780.074 32.4621 784.752 M27.4968 784.752 Q27.4968 777.114 32.4621 772.753 Q37.4273 768.393 46.212 768.393 Q54.9649 768.393 59.9619 772.753 Q64.9272 777.114 64.9272 784.752 Q64.9272 792.423 59.9619 796.784 Q54.9649 801.112 46.212 801.112 Q37.4273 801.112 32.4621 796.784 Q27.4968 792.423 27.4968 784.752 Z" fill="#000000" fill-rule="nonzero" fill-opacity="1" /><path clip-path="url(#clip810)" d="M49.9359 759.29 L28.3562 759.29 L28.3562 753.433 L49.7131 753.433 Q54.7739 753.433 57.3202 751.46 Q59.8346 749.486 59.8346 745.54 Q59.8346 740.797 56.8109 738.06 Q53.7872 735.291 48.5673 735.291 L28.3562 735.291 L28.3562 729.434 L64.0042 729.434 L64.0042 735.291 L58.5296 735.291 Q61.7762 737.423 63.3676 740.256 Q64.9272 743.057 64.9272 746.781 Q64.9272 752.924 61.1078 756.107 Q57.2883 759.29 49.9359 759.29 M27.4968 744.553 L27.4968 744.553 Z" fill="#000000" fill-rule="nonzero" fill-opacity="1" /><path clip-path="url(#clip810)" d="M42.4881 687.739 L64.0042 687.739 L64.0042 693.596 L42.679 693.596 Q37.6183 693.596 35.1038 695.569 Q32.5894 697.542 32.5894 701.489 Q32.5894 706.231 35.6131 708.969 Q38.6368 711.706 43.8567 711.706 L64.0042 711.706 L64.0042 717.594 L28.3562 717.594 L28.3562 711.706 L33.8944 711.706 Q30.6797 709.605 29.0883 706.773 Q27.4968 703.908 27.4968 700.184 Q27.4968 694.041 31.3163 690.89 Q35.1038 687.739 42.4881 687.739 Z" fill="#000000" fill-rule="nonzero" fill-opacity="1" /><path clip-path="url(#clip810)" d="M33.7671 652.6 L14.479 652.6 L14.479 646.744 L64.0042 646.744 L64.0042 652.6 L58.657 652.6 Q61.8398 654.446 63.3994 657.279 Q64.9272 660.08 64.9272 664.027 Q64.9272 670.488 59.771 674.562 Q54.6147 678.604 46.212 678.604 Q37.8093 678.604 32.6531 674.562 Q27.4968 670.488 27.4968 664.027 Q27.4968 660.08 29.0564 657.279 Q30.5842 654.446 33.7671 652.6 M46.212 672.557 Q52.6732 672.557 56.3653 669.915 Q60.0256 667.241 60.0256 662.595 Q60.0256 657.948 56.3653 655.274 Q52.6732 652.6 46.212 652.6 Q39.7508 652.6 36.0905 655.274 Q32.3984 657.948 32.3984 662.595 Q32.3984 667.241 36.0905 669.915 Q39.7508 672.557 46.212 672.557 Z" fill="#000000" fill-rule="nonzero" fill-opacity="1" /><path clip-path="url(#clip810)" d="M32.4621 600.147 Q32.4621 604.858 36.1542 607.595 Q39.8145 610.332 46.212 610.332 Q52.6095 610.332 56.3017 607.627 Q59.9619 604.889 59.9619 600.147 Q59.9619 595.468 56.2698 592.731 Q52.5777 589.994 46.212 589.994 Q39.8781 589.994 36.186 592.731 Q32.4621 595.468 32.4621 600.147 M27.4968 600.147 Q27.4968 592.508 32.4621 588.148 Q37.4273 583.787 46.212 583.787 Q54.9649 583.787 59.9619 588.148 Q64.9272 592.508 64.9272 600.147 Q64.9272 607.818 59.9619 612.178 Q54.9649 616.507 46.212 616.507 Q37.4273 616.507 32.4621 612.178 Q27.4968 607.818 27.4968 600.147 Z" fill="#000000" fill-rule="nonzero" fill-opacity="1" /><path clip-path="url(#clip810)" d="M42.4881 544.447 L64.0042 544.447 L64.0042 550.303 L42.679 550.303 Q37.6183 550.303 35.1038 552.277 Q32.5894 554.25 32.5894 558.197 Q32.5894 562.939 35.6131 565.677 Q38.6368 568.414 43.8567 568.414 L64.0042 568.414 L64.0042 574.302 L28.3562 574.302 L28.3562 568.414 L33.8944 568.414 Q30.6797 566.313 29.0883 563.48 Q27.4968 560.616 27.4968 556.892 Q27.4968 550.749 31.3163 547.598 Q35.1038 544.447 42.4881 544.447 Z" fill="#000000" fill-rule="nonzero" fill-opacity="1" /><path clip-path="url(#clip810)" d="M57.5111 494.572 Q59.0389 493.426 59.0389 489.988 L59.0389 487.156 L64.0042 487.156 L64.0042 490.689 Q64.0042 496.418 60.9486 499.028 Q57.8294 501.638 51.0818 501.638 L34.2127 501.638 L34.2127 515.006 L28.3562 515.006 L28.3562 482.127 L34.2127 482.127 L34.2127 495.654 L51.4319 495.654 Q56.047 495.654 57.5111 494.572 Z" fill="#000000" fill-rule="nonzero" fill-opacity="1" /><path clip-path="url(#clip810)" d="M20.3991 495.431 L18.6485 497.245 Q18.0119 497.946 17.7255 498.455 Q17.4072 498.996 17.4072 499.41 Q17.4072 500.619 18.5848 501.192 Q19.7307 501.765 22.3406 501.829 L22.3406 505.807 Q18.0438 505.744 15.7203 504.12 Q13.365 502.497 13.365 499.601 Q13.365 498.391 13.8106 497.373 Q14.2562 496.354 15.3065 495.176 L17.0571 493.362 Q17.6936 492.662 18.0119 492.121 Q18.2984 491.612 18.2984 491.198 Q18.2984 489.988 17.1526 489.415 Q15.9749 488.843 13.365 488.779 L13.365 484.8 Q17.6618 484.864 20.0171 486.487 Q22.3406 488.11 22.3406 491.007 Q22.3406 492.216 21.895 493.235 Q21.4494 494.253 20.3991 495.431 Z" fill="#000000" fill-rule="nonzero" fill-opacity="1" /><path clip-path="url(#clip810)" d="M785.628 12.096 L793.851 12.096 L793.851 48.8377 Q793.851 58.5599 797.376 62.8538 Q800.9 67.1073 808.799 67.1073 Q816.658 67.1073 820.182 62.8538 Q823.707 58.5599 823.707 48.8377 L823.707 12.096 L831.93 12.096 L831.93 49.8504 Q831.93 61.6791 826.056 67.7149 Q820.223 73.7508 808.799 73.7508 Q797.335 73.7508 791.461 67.7149 Q785.628 61.6791 785.628 49.8504 L785.628 12.096 Z" fill="#000000" fill-rule="nonzero" fill-opacity="1" /><path clip-path="url(#clip810)" d="M854.169 65.7705 L854.169 89.8329 L846.675 89.8329 L846.675 27.2059 L854.169 27.2059 L854.169 34.0924 Q856.519 30.0415 860.084 28.0971 Q863.689 26.1121 868.672 26.1121 Q876.935 26.1121 882.08 32.6746 Q887.265 39.2371 887.265 49.9314 Q887.265 60.6258 882.08 67.1883 Q876.935 73.7508 868.672 73.7508 Q863.689 73.7508 860.084 71.8063 Q856.519 69.8214 854.169 65.7705 M879.528 49.9314 Q879.528 41.7081 876.125 37.0496 Q872.763 32.3505 866.849 32.3505 Q860.934 32.3505 857.532 37.0496 Q854.169 41.7081 854.169 49.9314 Q854.169 58.1548 857.532 62.8538 Q860.934 67.5124 866.849 67.5124 Q872.763 67.5124 876.125 62.8538 Q879.528 58.1548 879.528 49.9314 Z" fill="#000000" fill-rule="nonzero" fill-opacity="1" /><path clip-path="url(#clip810)" d="M906.831 65.7705 L906.831 89.8329 L899.337 89.8329 L899.337 27.2059 L906.831 27.2059 L906.831 34.0924 Q909.181 30.0415 912.745 28.0971 Q916.351 26.1121 921.333 26.1121 Q929.597 26.1121 934.742 32.6746 Q939.927 39.2371 939.927 49.9314 Q939.927 60.6258 934.742 67.1883 Q929.597 73.7508 921.333 73.7508 Q916.351 73.7508 912.745 71.8063 Q909.181 69.8214 906.831 65.7705 M932.19 49.9314 Q932.19 41.7081 928.787 37.0496 Q925.425 32.3505 919.51 32.3505 Q913.596 32.3505 910.193 37.0496 Q906.831 41.7081 906.831 49.9314 Q906.831 58.1548 910.193 62.8538 Q913.596 67.5124 919.51 67.5124 Q925.425 67.5124 928.787 62.8538 Q932.19 58.1548 932.19 49.9314 Z" fill="#000000" fill-rule="nonzero" fill-opacity="1" /><path clip-path="url(#clip810)" d="M991.09 48.0275 L991.09 51.6733 L956.819 51.6733 Q957.305 59.3701 961.437 63.421 Q965.61 67.4314 973.023 67.4314 Q977.317 67.4314 981.327 66.3781 Q985.378 65.3249 989.348 63.2184 L989.348 70.267 Q985.338 71.9684 981.125 72.8596 Q976.912 73.7508 972.577 73.7508 Q961.721 73.7508 955.361 67.4314 Q949.041 61.1119 949.041 50.3365 Q949.041 39.1965 955.037 32.6746 Q961.073 26.1121 971.281 26.1121 Q980.436 26.1121 985.743 32.0264 Q991.09 37.9003 991.09 48.0275 M983.636 45.84 Q983.555 39.7232 980.193 36.0774 Q976.871 32.4315 971.362 32.4315 Q965.124 32.4315 961.356 35.9558 Q957.629 39.4801 957.062 45.8805 L983.636 45.84 Z" fill="#000000" fill-rule="nonzero" fill-opacity="1" /><path clip-path="url(#clip810)" d="M1029.61 34.1734 Q1028.36 33.4443 1026.86 33.1202 Q1025.4 32.7556 1023.62 32.7556 Q1017.3 32.7556 1013.9 36.8875 Q1010.53 40.9789 1010.53 48.6757 L1010.53 72.576 L1003.04 72.576 L1003.04 27.2059 L1010.53 27.2059 L1010.53 34.2544 Q1012.88 30.1225 1016.65 28.1376 Q1020.42 26.1121 1025.81 26.1121 Q1026.58 26.1121 1027.51 26.2337 Q1028.44 26.3147 1029.57 26.5172 L1029.61 34.1734 Z" fill="#000000" fill-rule="nonzero" fill-opacity="1" /><path clip-path="url(#clip810)" d="M1072.31 43.6931 L1072.31 65.8515 L1085.44 65.8515 Q1092.04 65.8515 1095.2 63.1374 Q1098.4 60.3828 1098.4 54.752 Q1098.4 49.0808 1095.2 46.4072 Q1092.04 43.6931 1085.44 43.6931 L1072.31 43.6931 M1072.31 18.8205 L1072.31 37.0496 L1084.42 37.0496 Q1090.42 37.0496 1093.33 34.8216 Q1096.29 32.5531 1096.29 27.935 Q1096.29 23.3575 1093.33 21.089 Q1090.42 18.8205 1084.42 18.8205 L1072.31 18.8205 M1064.13 12.096 L1085.03 12.096 Q1094.39 12.096 1099.45 15.9849 Q1104.52 19.8737 1104.52 27.0438 Q1104.52 32.5936 1101.92 35.8748 Q1099.33 39.156 1094.31 39.9662 Q1100.34 41.2625 1103.66 45.3944 Q1107.03 49.4858 1107.03 55.6432 Q1107.03 63.745 1101.52 68.1605 Q1096.01 72.576 1085.84 72.576 L1064.13 72.576 L1064.13 12.096 Z" fill="#000000" fill-rule="nonzero" fill-opacity="1" /><path clip-path="url(#clip810)" d="M1138.3 32.4315 Q1132.3 32.4315 1128.82 37.1306 Q1125.34 41.7891 1125.34 49.9314 Q1125.34 58.0738 1128.78 62.7728 Q1132.26 67.4314 1138.3 67.4314 Q1144.25 67.4314 1147.74 62.7323 Q1151.22 58.0333 1151.22 49.9314 Q1151.22 41.8701 1147.74 37.1711 Q1144.25 32.4315 1138.3 32.4315 M1138.3 26.1121 Q1148.02 26.1121 1153.57 32.4315 Q1159.12 38.7509 1159.12 49.9314 Q1159.12 61.0714 1153.57 67.4314 Q1148.02 73.7508 1138.3 73.7508 Q1128.54 73.7508 1122.99 67.4314 Q1117.48 61.0714 1117.48 49.9314 Q1117.48 38.7509 1122.99 32.4315 Q1128.54 26.1121 1138.3 26.1121 Z" fill="#000000" fill-rule="nonzero" fill-opacity="1" /><path clip-path="url(#clip810)" d="M1170.71 54.671 L1170.71 27.2059 L1178.16 27.2059 L1178.16 54.3874 Q1178.16 60.8284 1180.67 64.0691 Q1183.18 67.2693 1188.21 67.2693 Q1194.24 67.2693 1197.73 63.421 Q1201.25 59.5726 1201.25 52.9291 L1201.25 27.2059 L1208.7 27.2059 L1208.7 72.576 L1201.25 72.576 L1201.25 65.6084 Q1198.54 69.7404 1194.93 71.7658 Q1191.37 73.7508 1186.63 73.7508 Q1178.81 73.7508 1174.76 68.8897 Q1170.71 64.0286 1170.71 54.671 M1189.46 26.1121 L1189.46 26.1121 Z" fill="#000000" fill-rule="nonzero" fill-opacity="1" /><path clip-path="url(#clip810)" d="M1261.77 45.1919 L1261.77 72.576 L1254.32 72.576 L1254.32 45.4349 Q1254.32 38.994 1251.81 35.7938 Q1249.29 32.5936 1244.27 32.5936 Q1238.24 32.5936 1234.75 36.4419 Q1231.27 40.2903 1231.27 46.9338 L1231.27 72.576 L1223.77 72.576 L1223.77 27.2059 L1231.27 27.2059 L1231.27 34.2544 Q1233.94 30.163 1237.55 28.1376 Q1241.19 26.1121 1245.93 26.1121 Q1253.75 26.1121 1257.76 30.9732 Q1261.77 35.7938 1261.77 45.1919 Z" fill="#000000" fill-rule="nonzero" fill-opacity="1" /><path clip-path="url(#clip810)" d="M1306.49 34.0924 L1306.49 9.54393 L1313.95 9.54393 L1313.95 72.576 L1306.49 72.576 L1306.49 65.7705 Q1304.14 69.8214 1300.54 71.8063 Q1296.97 73.7508 1291.95 73.7508 Q1283.73 73.7508 1278.54 67.1883 Q1273.4 60.6258 1273.4 49.9314 Q1273.4 39.2371 1278.54 32.6746 Q1283.73 26.1121 1291.95 26.1121 Q1296.97 26.1121 1300.54 28.0971 Q1304.14 30.0415 1306.49 34.0924 M1281.09 49.9314 Q1281.09 58.1548 1284.46 62.8538 Q1287.86 67.5124 1293.77 67.5124 Q1299.69 67.5124 1303.09 62.8538 Q1306.49 58.1548 1306.49 49.9314 Q1306.49 41.7081 1303.09 37.0496 Q1299.69 32.3505 1293.77 32.3505 Q1287.86 32.3505 1284.46 37.0496 Q1281.09 41.7081 1281.09 49.9314 Z" fill="#000000" fill-rule="nonzero" fill-opacity="1" /><path clip-path="url(#clip810)" d="M1373.25 32.4315 Q1367.26 32.4315 1363.77 37.1306 Q1360.29 41.7891 1360.29 49.9314 Q1360.29 58.0738 1363.73 62.7728 Q1367.22 67.4314 1373.25 67.4314 Q1379.21 67.4314 1382.69 62.7323 Q1386.17 58.0333 1386.17 49.9314 Q1386.17 41.8701 1382.69 37.1711 Q1379.21 32.4315 1373.25 32.4315 M1373.25 26.1121 Q1382.97 26.1121 1388.52 32.4315 Q1394.07 38.7509 1394.07 49.9314 Q1394.07 61.0714 1388.52 67.4314 Q1382.97 73.7508 1373.25 73.7508 Q1363.49 73.7508 1357.94 67.4314 Q1352.43 61.0714 1352.43 49.9314 Q1352.43 38.7509 1357.94 32.4315 Q1363.49 26.1121 1373.25 26.1121 Z" fill="#000000" fill-rule="nonzero" fill-opacity="1" /><path clip-path="url(#clip810)" d="M1444.14 45.1919 L1444.14 72.576 L1436.69 72.576 L1436.69 45.4349 Q1436.69 38.994 1434.18 35.7938 Q1431.67 32.5936 1426.64 32.5936 Q1420.61 32.5936 1417.12 36.4419 Q1413.64 40.2903 1413.64 46.9338 L1413.64 72.576 L1406.15 72.576 L1406.15 27.2059 L1413.64 27.2059 L1413.64 34.2544 Q1416.31 30.163 1419.92 28.1376 Q1423.56 26.1121 1428.3 26.1121 Q1436.12 26.1121 1440.13 30.9732 Q1444.14 35.7938 1444.14 45.1919 Z" fill="#000000" fill-rule="nonzero" fill-opacity="1" /><path clip-path="url(#clip810)" d="M1507.62 64.3122 Q1509.08 66.2566 1513.45 66.2566 L1517.06 66.2566 L1517.06 72.576 L1512.56 72.576 Q1505.27 72.576 1501.95 68.6871 Q1498.63 64.7172 1498.63 56.1293 L1498.63 34.6595 L1481.61 34.6595 L1481.61 27.2059 L1523.46 27.2059 L1523.46 34.6595 L1506.24 34.6595 L1506.24 56.5749 Q1506.24 62.4487 1507.62 64.3122 Z" fill="#000000" fill-rule="nonzero" fill-opacity="1" /><path clip-path="url(#clip810)" d="M1506.53 17.0786 L1504.22 14.8506 Q1503.33 14.0404 1502.68 13.6759 Q1501.99 13.2708 1501.46 13.2708 Q1499.92 13.2708 1499.19 14.7696 Q1498.47 16.2279 1498.38 19.5497 L1493.32 19.5497 Q1493.4 14.0809 1495.47 11.1238 Q1497.53 8.12611 1501.22 8.12611 Q1502.76 8.12611 1504.06 8.69324 Q1505.35 9.26037 1506.85 10.5972 L1509.16 12.8252 Q1510.05 13.6353 1510.74 14.0404 Q1511.39 14.405 1511.91 14.405 Q1513.45 14.405 1514.18 12.9467 Q1514.91 11.4479 1514.99 8.12611 L1520.06 8.12611 Q1519.98 13.5948 1517.91 16.5925 Q1515.84 19.5497 1512.16 19.5497 Q1510.62 19.5497 1509.32 18.9825 Q1508.03 18.4154 1506.53 17.0786 Z" fill="#000000" fill-rule="nonzero" fill-opacity="1" /><path clip-path="url(#clip810)" d="M1563.6 62.2867 L1572.15 62.2867 L1572.15 69.2543 L1565.51 82.2172 L1560.28 82.2172 L1563.6 69.2543 L1563.6 62.2867 Z" fill="#000000" fill-rule="nonzero" fill-opacity="1" /><path clip-path="url(#clip810)" d="M1614.77 12.096 L1625.79 12.096 L1652.6 62.6918 L1652.6 12.096 L1660.54 12.096 L1660.54 72.576 L1649.52 72.576 L1622.71 21.9802 L1622.71 72.576 L1614.77 72.576 L1614.77 12.096 Z" fill="#000000" fill-rule="nonzero" fill-opacity="1" /><path clip-path="url(#clip810)" d="M1677.48 34.9026 L1729.41 34.9026 L1729.41 41.7081 L1677.48 41.7081 L1677.48 34.9026 M1677.48 51.4303 L1729.41 51.4303 L1729.41 58.3168 L1677.48 58.3168 L1677.48 51.4303 Z" fill="#000000" fill-rule="nonzero" fill-opacity="1" /><path clip-path="url(#clip810)" d="M1769.55 19.2256 L1748.89 51.5113 L1769.55 51.5113 L1769.55 19.2256 M1767.41 12.096 L1777.69 12.096 L1777.69 51.5113 L1786.32 51.5113 L1786.32 58.3168 L1777.69 58.3168 L1777.69 72.576 L1769.55 72.576 L1769.55 58.3168 L1742.25 58.3168 L1742.25 50.4176 L1767.41 12.096 Z" fill="#000000" fill-rule="nonzero" fill-opacity="1" /><polyline clip-path="url(#clip812)" style="stroke:#009af9; stroke-linecap:round; stroke-linejoin:round; stroke-width:8; stroke-opacity:1; fill:none" points="279.579,1386.4 314.044,1097.27 320.938,1069.2 348.51,992.761 362.296,964.411 369.189,950.816 376.083,937.57 382.976,925.208 389.869,914.028 396.762,903.913 403.655,894.755 410.548,886.452 424.334,871.692 431.228,864.601 438.121,857.628 445.014,850.765 451.907,869.817 479.479,817.938 486.373,811.64 493.266,805.424 500.159,799.285 507.052,793.221 513.945,787.229 541.518,763.931 548.411,758.263 555.304,752.653 562.197,747.1 569.09,741.602 575.983,732.438 582.876,717.173 596.663,718.974 603.556,706.794 610.449,703.384 617.342,699.998 624.235,696.635 631.128,693.295 638.021,689.977 644.915,686.681 651.808,683.407 658.701,680.153 672.487,673.707 679.38,670.513 686.273,667.339 693.166,664.183 700.06,661.046 706.953,657.927 720.739,651.743 727.632,648.676 734.525,645.627 741.418,642.594 748.311,639.577 755.205,636.577 768.991,630.622 775.884,627.668 782.777,624.729 789.67,621.804 796.563,618.894 803.456,615.998 817.243,610.248 824.136,607.394 837.922,601.725 844.815,598.91 858.602,593.319 865.495,590.542 872.388,587.777 879.281,585.024 886.174,582.284 893.067,579.555 899.96,576.837 906.853,574.132 913.747,571.437 920.64,568.753 927.533,566.081 934.426,563.419 948.212,558.128 955.105,555.498 961.998,552.878 968.892,550.269 975.785,547.67 982.678,545.08 989.571,542.5 996.464,539.931 1003.36,537.37 1010.25,534.819 1017.14,532.278 1024.04,529.745 1030.93,527.222 1037.82,524.708 1044.72,522.203 1051.61,519.707 1058.5,517.219 1065.4,514.74 1072.29,512.27 1079.18,509.808 1086.07,507.354 1092.97,504.909 1099.86,502.472 1106.75,500.043 1113.65,497.622 1120.54,495.209 1127.43,492.804 1134.33,490.406 1141.22,488.016 1148.11,485.634 1155.01,483.26 1161.9,480.892 1175.69,476.18 1182.58,473.835 1189.47,471.497 1196.36,469.166 1203.26,466.842 1210.15,464.526 1217.04,462.216 1223.94,459.913 1230.83,457.616 1237.72,455.327 1244.62,453.044 1251.51,450.767 1258.4,448.497 1265.3,446.234 1272.19,443.977 1279.08,441.727 1285.98,439.482 1292.87,437.244 1299.76,435.013 1313.55,430.567 1320.44,428.354 1327.33,426.146 1334.23,423.945 1341.12,421.749 1348.01,419.559 1354.91,417.375 1382.48,408.696 1389.37,406.54 1396.27,404.39 1403.16,402.245 1410.05,400.106 1416.94,397.971 1423.84,395.843 1430.73,393.719 1437.62,391.601 1444.52,389.488 1451.41,387.381 1458.3,385.278 1465.2,383.181 1472.09,381.088 1478.98,379.001 1485.88,376.919 1492.77,374.841 1506.56,370.701 1513.45,368.638 1520.34,366.58 1527.23,364.527 1534.13,362.478 1541.02,360.435 1547.91,358.396 1568.59,352.306 1582.38,348.269 1589.27,346.257 1596.17,344.25 1603.06,342.247 1609.95,340.249 1616.85,338.254 1623.74,336.265 1630.63,334.279 1637.52,332.298 1644.42,330.321 1651.31,328.348 1658.2,326.379 1665.1,324.415 1671.99,322.455 1678.88,320.498 1685.78,318.546 1692.67,316.598 1699.56,314.654 1706.46,312.714 1713.35,310.778 1720.24,308.846 1734.03,304.993 1747.82,301.156 1754.71,299.244 1761.6,297.335 1768.49,295.43 1775.39,293.528 1789.17,289.736 1796.07,287.846 1802.96,285.96 1809.85,284.077 1816.75,282.197 1823.64,280.322 1830.53,278.449 1837.43,276.581 1844.32,274.716 1858.11,270.996 1871.89,267.291 1878.78,265.443 1892.57,261.758 1906.36,258.086 1913.25,256.256 1920.14,254.428 1927.04,252.604 1940.82,248.966 1947.72,247.151 1961.5,243.532 1968.4,241.728 1975.29,239.926 1989.07,236.333 2002.86,232.752 2016.65,229.183 2030.43,225.627 2037.33,223.853 2051.11,220.315 2064.9,216.788 2078.69,213.274 2085.58,211.521 2092.47,209.771 2099.36,208.024 2106.26,206.28 2113.15,204.538 2120.04,202.8 2126.94,201.064 2133.83,199.331 2147.62,195.874 2154.51,194.15 2195.87,183.861 2202.76,182.155 2209.65,180.452 2223.44,177.055 2230.33,175.36 2244.12,171.978 2251.01,170.292 2264.8,166.929 2271.69,165.255 2285.48,161.918 2292.37,160.256 "/>
</svg>
