<?xml version="1.0" encoding="utf-8"?>
<svg xmlns="http://www.w3.org/2000/svg" xmlns:xlink="http://www.w3.org/1999/xlink" width="600" height="400" viewBox="0 0 2400 1600">
<defs>
  <clipPath id="clip540">
    <rect x="0" y="0" width="2400" height="1600"/>
  </clipPath>
</defs>
<path clip-path="url(#clip540)" d="M0 1600 L2400 1600 L2400 8.88178e-14 L0 8.88178e-14  Z" fill="#ffffff" fill-rule="evenodd" fill-opacity="1"/>
<defs>
  <clipPath id="clip541">
    <rect x="480" y="0" width="1681" height="1600"/>
  </clipPath>
</defs>
<path clip-path="url(#clip540)" d="M219.195 1423.18 L2352.76 1423.18 L2352.76 123.472 L219.195 123.472  Z" fill="#ffffff" fill-rule="evenodd" fill-opacity="1"/>
<defs>
  <clipPath id="clip542">
    <rect x="219" y="123" width="2135" height="1301"/>
  </clipPath>
</defs>
<polyline clip-path="url(#clip542)" style="stroke:#000000; stroke-linecap:round; stroke-linejoin:round; stroke-width:2; stroke-opacity:0.1; fill:none" points="258.899,1423.18 258.899,123.472 "/>
<polyline clip-path="url(#clip542)" style="stroke:#000000; stroke-linecap:round; stroke-linejoin:round; stroke-width:2; stroke-opacity:0.1; fill:none" points="948.212,1423.18 948.212,123.472 "/>
<polyline clip-path="url(#clip542)" style="stroke:#000000; stroke-linecap:round; stroke-linejoin:round; stroke-width:2; stroke-opacity:0.1; fill:none" points="1637.52,1423.18 1637.52,123.472 "/>
<polyline clip-path="url(#clip542)" style="stroke:#000000; stroke-linecap:round; stroke-linejoin:round; stroke-width:2; stroke-opacity:0.1; fill:none" points="2326.84,1423.18 2326.84,123.472 "/>
<polyline clip-path="url(#clip542)" style="stroke:#000000; stroke-linecap:round; stroke-linejoin:round; stroke-width:2; stroke-opacity:0.1; fill:none" points="219.195,1376.04 2352.76,1376.04 "/>
<polyline clip-path="url(#clip542)" style="stroke:#000000; stroke-linecap:round; stroke-linejoin:round; stroke-width:2; stroke-opacity:0.1; fill:none" points="219.195,1190.11 2352.76,1190.11 "/>
<polyline clip-path="url(#clip542)" style="stroke:#000000; stroke-linecap:round; stroke-linejoin:round; stroke-width:2; stroke-opacity:0.1; fill:none" points="219.195,1004.17 2352.76,1004.17 "/>
<polyline clip-path="url(#clip542)" style="stroke:#000000; stroke-linecap:round; stroke-linejoin:round; stroke-width:2; stroke-opacity:0.1; fill:none" points="219.195,818.241 2352.76,818.241 "/>
<polyline clip-path="url(#clip542)" style="stroke:#000000; stroke-linecap:round; stroke-linejoin:round; stroke-width:2; stroke-opacity:0.1; fill:none" points="219.195,632.306 2352.76,632.306 "/>
<polyline clip-path="url(#clip542)" style="stroke:#000000; stroke-linecap:round; stroke-linejoin:round; stroke-width:2; stroke-opacity:0.1; fill:none" points="219.195,446.372 2352.76,446.372 "/>
<polyline clip-path="url(#clip542)" style="stroke:#000000; stroke-linecap:round; stroke-linejoin:round; stroke-width:2; stroke-opacity:0.1; fill:none" points="219.195,260.438 2352.76,260.438 "/>
<polyline clip-path="url(#clip540)" style="stroke:#000000; stroke-linecap:round; stroke-linejoin:round; stroke-width:4; stroke-opacity:1; fill:none" points="219.195,1423.18 2352.76,1423.18 "/>
<polyline clip-path="url(#clip540)" style="stroke:#000000; stroke-linecap:round; stroke-linejoin:round; stroke-width:4; stroke-opacity:1; fill:none" points="258.899,1423.18 258.899,1404.28 "/>
<polyline clip-path="url(#clip540)" style="stroke:#000000; stroke-linecap:round; stroke-linejoin:round; stroke-width:4; stroke-opacity:1; fill:none" points="948.212,1423.18 948.212,1404.28 "/>
<polyline clip-path="url(#clip540)" style="stroke:#000000; stroke-linecap:round; stroke-linejoin:round; stroke-width:4; stroke-opacity:1; fill:none" points="1637.52,1423.18 1637.52,1404.28 "/>
<polyline clip-path="url(#clip540)" style="stroke:#000000; stroke-linecap:round; stroke-linejoin:round; stroke-width:4; stroke-opacity:1; fill:none" points="2326.84,1423.18 2326.84,1404.28 "/>
<path clip-path="url(#clip540)" d="M258.899 1454.1 Q255.288 1454.1 253.46 1457.66 Q251.654 1461.2 251.654 1468.33 Q251.654 1475.44 253.46 1479.01 Q255.288 1482.55 258.899 1482.55 Q262.534 1482.55 264.339 1479.01 Q266.168 1475.44 266.168 1468.33 Q266.168 1461.2 264.339 1457.66 Q262.534 1454.1 258.899 1454.1 M258.899 1450.39 Q264.71 1450.39 267.765 1455 Q270.844 1459.58 270.844 1468.33 Q270.844 1477.06 267.765 1481.67 Q264.71 1486.25 258.899 1486.25 Q253.089 1486.25 250.011 1481.67 Q246.955 1477.06 246.955 1468.33 Q246.955 1459.58 250.011 1455 Q253.089 1450.39 258.899 1450.39 Z" fill="#000000" fill-rule="nonzero" fill-opacity="1" /><path clip-path="url(#clip540)" d="M907.819 1481.64 L915.458 1481.64 L915.458 1455.28 L907.148 1456.95 L907.148 1452.69 L915.411 1451.02 L920.087 1451.02 L920.087 1481.64 L927.726 1481.64 L927.726 1485.58 L907.819 1485.58 L907.819 1481.64 Z" fill="#000000" fill-rule="nonzero" fill-opacity="1" /><path clip-path="url(#clip540)" d="M947.171 1454.1 Q943.559 1454.1 941.731 1457.66 Q939.925 1461.2 939.925 1468.33 Q939.925 1475.44 941.731 1479.01 Q943.559 1482.55 947.171 1482.55 Q950.805 1482.55 952.61 1479.01 Q954.439 1475.44 954.439 1468.33 Q954.439 1461.2 952.61 1457.66 Q950.805 1454.1 947.171 1454.1 M947.171 1450.39 Q952.981 1450.39 956.036 1455 Q959.115 1459.58 959.115 1468.33 Q959.115 1477.06 956.036 1481.67 Q952.981 1486.25 947.171 1486.25 Q941.36 1486.25 938.282 1481.67 Q935.226 1477.06 935.226 1468.33 Q935.226 1459.58 938.282 1455 Q941.36 1450.39 947.171 1450.39 Z" fill="#000000" fill-rule="nonzero" fill-opacity="1" /><path clip-path="url(#clip540)" d="M977.332 1454.1 Q973.721 1454.1 971.893 1457.66 Q970.087 1461.2 970.087 1468.33 Q970.087 1475.44 971.893 1479.01 Q973.721 1482.55 977.332 1482.55 Q980.967 1482.55 982.772 1479.01 Q984.601 1475.44 984.601 1468.33 Q984.601 1461.2 982.772 1457.66 Q980.967 1454.1 977.332 1454.1 M977.332 1450.39 Q983.143 1450.39 986.198 1455 Q989.277 1459.58 989.277 1468.33 Q989.277 1477.06 986.198 1481.67 Q983.143 1486.25 977.332 1486.25 Q971.522 1486.25 968.444 1481.67 Q965.388 1477.06 965.388 1468.33 Q965.388 1459.58 968.444 1455 Q971.522 1450.39 977.332 1450.39 Z" fill="#000000" fill-rule="nonzero" fill-opacity="1" /><path clip-path="url(#clip540)" d="M1601.22 1481.64 L1617.54 1481.64 L1617.54 1485.58 L1595.59 1485.58 L1595.59 1481.64 Q1598.25 1478.89 1602.84 1474.26 Q1607.44 1469.61 1608.62 1468.27 Q1610.87 1465.74 1611.75 1464.01 Q1612.65 1462.25 1612.65 1460.56 Q1612.65 1457.8 1610.71 1456.07 Q1608.79 1454.33 1605.68 1454.33 Q1603.49 1454.33 1601.03 1455.09 Q1598.6 1455.86 1595.82 1457.41 L1595.82 1452.69 Q1598.65 1451.55 1601.1 1450.97 Q1603.56 1450.39 1605.59 1450.39 Q1610.96 1450.39 1614.16 1453.08 Q1617.35 1455.77 1617.35 1460.26 Q1617.35 1462.39 1616.54 1464.31 Q1615.75 1466.2 1613.65 1468.8 Q1613.07 1469.47 1609.97 1472.69 Q1606.87 1475.88 1601.22 1481.64 Z" fill="#000000" fill-rule="nonzero" fill-opacity="1" /><path clip-path="url(#clip540)" d="M1637.35 1454.1 Q1633.74 1454.1 1631.91 1457.66 Q1630.11 1461.2 1630.11 1468.33 Q1630.11 1475.44 1631.91 1479.01 Q1633.74 1482.55 1637.35 1482.55 Q1640.99 1482.55 1642.79 1479.01 Q1644.62 1475.44 1644.62 1468.33 Q1644.62 1461.2 1642.79 1457.66 Q1640.99 1454.1 1637.35 1454.1 M1637.35 1450.39 Q1643.16 1450.39 1646.22 1455 Q1649.3 1459.58 1649.3 1468.33 Q1649.3 1477.06 1646.22 1481.67 Q1643.16 1486.25 1637.35 1486.25 Q1631.54 1486.25 1628.46 1481.67 Q1625.41 1477.06 1625.41 1468.33 Q1625.41 1459.58 1628.46 1455 Q1631.54 1450.39 1637.35 1450.39 Z" fill="#000000" fill-rule="nonzero" fill-opacity="1" /><path clip-path="url(#clip540)" d="M1667.51 1454.1 Q1663.9 1454.1 1662.07 1457.66 Q1660.27 1461.2 1660.27 1468.33 Q1660.27 1475.44 1662.07 1479.01 Q1663.9 1482.55 1667.51 1482.55 Q1671.15 1482.55 1672.95 1479.01 Q1674.78 1475.44 1674.78 1468.33 Q1674.78 1461.2 1672.95 1457.66 Q1671.15 1454.1 1667.51 1454.1 M1667.51 1450.39 Q1673.32 1450.39 1676.38 1455 Q1679.46 1459.58 1679.46 1468.33 Q1679.46 1477.06 1676.38 1481.67 Q1673.32 1486.25 1667.51 1486.25 Q1661.7 1486.25 1658.62 1481.67 Q1655.57 1477.06 1655.57 1468.33 Q1655.57 1459.58 1658.62 1455 Q1661.7 1450.39 1667.51 1450.39 Z" fill="#000000" fill-rule="nonzero" fill-opacity="1" /><path clip-path="url(#clip540)" d="M2300.6 1466.95 Q2303.96 1467.66 2305.83 1469.93 Q2307.73 1472.2 2307.73 1475.53 Q2307.73 1480.65 2304.21 1483.45 Q2300.69 1486.25 2294.21 1486.25 Q2292.03 1486.25 2289.72 1485.81 Q2287.43 1485.39 2284.97 1484.54 L2284.97 1480.02 Q2286.92 1481.16 2289.23 1481.74 Q2291.55 1482.32 2294.07 1482.32 Q2298.47 1482.32 2300.76 1480.58 Q2303.08 1478.84 2303.08 1475.53 Q2303.08 1472.48 2300.92 1470.77 Q2298.79 1469.03 2294.97 1469.03 L2290.95 1469.03 L2290.95 1465.19 L2295.16 1465.19 Q2298.61 1465.19 2300.44 1463.82 Q2302.27 1462.43 2302.27 1459.84 Q2302.27 1457.18 2300.37 1455.77 Q2298.49 1454.33 2294.97 1454.33 Q2293.05 1454.33 2290.85 1454.75 Q2288.66 1455.16 2286.02 1456.04 L2286.02 1451.88 Q2288.68 1451.14 2290.99 1450.77 Q2293.33 1450.39 2295.39 1450.39 Q2300.72 1450.39 2303.82 1452.83 Q2306.92 1455.23 2306.92 1459.35 Q2306.92 1462.22 2305.28 1464.21 Q2303.63 1466.18 2300.6 1466.95 Z" fill="#000000" fill-rule="nonzero" fill-opacity="1" /><path clip-path="url(#clip540)" d="M2326.59 1454.1 Q2322.98 1454.1 2321.15 1457.66 Q2319.35 1461.2 2319.35 1468.33 Q2319.35 1475.44 2321.15 1479.01 Q2322.98 1482.55 2326.59 1482.55 Q2330.23 1482.55 2332.03 1479.01 Q2333.86 1475.44 2333.86 1468.33 Q2333.86 1461.2 2332.03 1457.66 Q2330.23 1454.1 2326.59 1454.1 M2326.59 1450.39 Q2332.4 1450.39 2335.46 1455 Q2338.54 1459.58 2338.54 1468.33 Q2338.54 1477.06 2335.46 1481.67 Q2332.4 1486.25 2326.59 1486.25 Q2320.78 1486.25 2317.71 1481.67 Q2314.65 1477.06 2314.65 1468.33 Q2314.65 1459.58 2317.71 1455 Q2320.78 1450.39 2326.59 1450.39 Z" fill="#000000" fill-rule="nonzero" fill-opacity="1" /><path clip-path="url(#clip540)" d="M2356.76 1454.1 Q2353.15 1454.1 2351.32 1457.66 Q2349.51 1461.2 2349.51 1468.33 Q2349.51 1475.44 2351.32 1479.01 Q2353.15 1482.55 2356.76 1482.55 Q2360.39 1482.55 2362.2 1479.01 Q2364.03 1475.44 2364.03 1468.33 Q2364.03 1461.2 2362.2 1457.66 Q2360.39 1454.1 2356.76 1454.1 M2356.76 1450.39 Q2362.57 1450.39 2365.62 1455 Q2368.7 1459.58 2368.7 1468.33 Q2368.7 1477.06 2365.62 1481.67 Q2362.57 1486.25 2356.76 1486.25 Q2350.95 1486.25 2347.87 1481.67 Q2344.81 1477.06 2344.81 1468.33 Q2344.81 1459.58 2347.87 1455 Q2350.95 1450.39 2356.76 1450.39 Z" fill="#000000" fill-rule="nonzero" fill-opacity="1" /><path clip-path="url(#clip540)" d="M1286.87 1524.09 L1303.32 1568.04 L1297.12 1568.04 L1287.12 1541.69 L1274.84 1568.04 L1268.63 1568.04 L1284.26 1533.86 L1281.9 1527.56 Q1280.41 1523.55 1277 1523.55 L1273.94 1523.55 L1273.94 1518.52 L1277.67 1518.58 Q1284.86 1518.68 1286.87 1524.09 Z" fill="#000000" fill-rule="nonzero" fill-opacity="1" /><polyline clip-path="url(#clip540)" style="stroke:#000000; stroke-linecap:round; stroke-linejoin:round; stroke-width:4; stroke-opacity:1; fill:none" points="219.195,1423.18 219.195,123.472 "/>
<polyline clip-path="url(#clip540)" style="stroke:#000000; stroke-linecap:round; stroke-linejoin:round; stroke-width:4; stroke-opacity:1; fill:none" points="219.195,1376.04 238.093,1376.04 "/>
<polyline clip-path="url(#clip540)" style="stroke:#000000; stroke-linecap:round; stroke-linejoin:round; stroke-width:4; stroke-opacity:1; fill:none" points="219.195,1190.11 238.093,1190.11 "/>
<polyline clip-path="url(#clip540)" style="stroke:#000000; stroke-linecap:round; stroke-linejoin:round; stroke-width:4; stroke-opacity:1; fill:none" points="219.195,1004.17 238.093,1004.17 "/>
<polyline clip-path="url(#clip540)" style="stroke:#000000; stroke-linecap:round; stroke-linejoin:round; stroke-width:4; stroke-opacity:1; fill:none" points="219.195,818.241 238.093,818.241 "/>
<polyline clip-path="url(#clip540)" style="stroke:#000000; stroke-linecap:round; stroke-linejoin:round; stroke-width:4; stroke-opacity:1; fill:none" points="219.195,632.306 238.093,632.306 "/>
<polyline clip-path="url(#clip540)" style="stroke:#000000; stroke-linecap:round; stroke-linejoin:round; stroke-width:4; stroke-opacity:1; fill:none" points="219.195,446.372 238.093,446.372 "/>
<polyline clip-path="url(#clip540)" style="stroke:#000000; stroke-linecap:round; stroke-linejoin:round; stroke-width:4; stroke-opacity:1; fill:none" points="219.195,260.438 238.093,260.438 "/>
<path clip-path="url(#clip540)" d="M129.862 1362.84 L118.056 1381.29 L129.862 1381.29 L129.862 1362.84 M128.635 1358.76 L134.515 1358.76 L134.515 1381.29 L139.445 1381.29 L139.445 1385.18 L134.515 1385.18 L134.515 1393.32 L129.862 1393.32 L129.862 1385.18 L114.26 1385.18 L114.26 1380.66 L128.635 1358.76 Z" fill="#000000" fill-rule="nonzero" fill-opacity="1" /><path clip-path="url(#clip540)" d="M147.177 1387.44 L152.061 1387.44 L152.061 1393.32 L147.177 1393.32 L147.177 1387.44 Z" fill="#000000" fill-rule="nonzero" fill-opacity="1" /><path clip-path="url(#clip540)" d="M162.292 1358.76 L180.649 1358.76 L180.649 1362.7 L166.575 1362.7 L166.575 1371.17 Q167.593 1370.82 168.612 1370.66 Q169.63 1370.48 170.649 1370.48 Q176.436 1370.48 179.815 1373.65 Q183.195 1376.82 183.195 1382.24 Q183.195 1387.81 179.723 1390.92 Q176.251 1393.99 169.931 1393.99 Q167.755 1393.99 165.487 1393.62 Q163.241 1393.25 160.834 1392.51 L160.834 1387.81 Q162.917 1388.95 165.14 1389.5 Q167.362 1390.06 169.839 1390.06 Q173.843 1390.06 176.181 1387.95 Q178.519 1385.85 178.519 1382.24 Q178.519 1378.62 176.181 1376.52 Q173.843 1374.41 169.839 1374.41 Q167.964 1374.41 166.089 1374.83 Q164.237 1375.24 162.292 1376.12 L162.292 1358.76 Z" fill="#000000" fill-rule="nonzero" fill-opacity="1" /><path clip-path="url(#clip540)" d="M116.066 1172.83 L134.422 1172.83 L134.422 1176.76 L120.348 1176.76 L120.348 1185.24 Q121.367 1184.89 122.385 1184.73 Q123.404 1184.54 124.422 1184.54 Q130.209 1184.54 133.589 1187.71 Q136.968 1190.88 136.968 1196.3 Q136.968 1201.88 133.496 1204.98 Q130.024 1208.06 123.705 1208.06 Q121.529 1208.06 119.26 1207.69 Q117.015 1207.32 114.607 1206.58 L114.607 1201.88 Q116.691 1203.01 118.913 1203.57 Q121.135 1204.13 123.612 1204.13 Q127.617 1204.13 129.955 1202.02 Q132.292 1199.91 132.292 1196.3 Q132.292 1192.69 129.955 1190.58 Q127.617 1188.48 123.612 1188.48 Q121.737 1188.48 119.862 1188.89 Q118.01 1189.31 116.066 1190.19 L116.066 1172.83 Z" fill="#000000" fill-rule="nonzero" fill-opacity="1" /><path clip-path="url(#clip540)" d="M146.181 1201.51 L151.066 1201.51 L151.066 1207.39 L146.181 1207.39 L146.181 1201.51 Z" fill="#000000" fill-rule="nonzero" fill-opacity="1" /><path clip-path="url(#clip540)" d="M171.251 1175.91 Q167.64 1175.91 165.811 1179.47 Q164.005 1183.01 164.005 1190.14 Q164.005 1197.25 165.811 1200.82 Q167.64 1204.36 171.251 1204.36 Q174.885 1204.36 176.69 1200.82 Q178.519 1197.25 178.519 1190.14 Q178.519 1183.01 176.69 1179.47 Q174.885 1175.91 171.251 1175.91 M171.251 1172.2 Q177.061 1172.2 180.116 1176.81 Q183.195 1181.39 183.195 1190.14 Q183.195 1198.87 180.116 1203.48 Q177.061 1208.06 171.251 1208.06 Q165.44 1208.06 162.362 1203.48 Q159.306 1198.87 159.306 1190.14 Q159.306 1181.39 162.362 1176.81 Q165.44 1172.2 171.251 1172.2 Z" fill="#000000" fill-rule="nonzero" fill-opacity="1" /><path clip-path="url(#clip540)" d="M117.061 986.895 L135.417 986.895 L135.417 990.83 L121.343 990.83 L121.343 999.302 Q122.362 998.955 123.38 998.793 Q124.399 998.608 125.418 998.608 Q131.205 998.608 134.584 1001.78 Q137.964 1004.95 137.964 1010.37 Q137.964 1015.95 134.492 1019.05 Q131.019 1022.13 124.7 1022.13 Q122.524 1022.13 120.255 1021.76 Q118.01 1021.39 115.603 1020.64 L115.603 1015.95 Q117.686 1017.08 119.908 1017.64 Q122.13 1018.19 124.607 1018.19 Q128.612 1018.19 130.95 1016.08 Q133.288 1013.98 133.288 1010.37 Q133.288 1006.76 130.95 1004.65 Q128.612 1002.54 124.607 1002.54 Q122.732 1002.54 120.857 1002.96 Q119.006 1003.38 117.061 1004.26 L117.061 986.895 Z" fill="#000000" fill-rule="nonzero" fill-opacity="1" /><path clip-path="url(#clip540)" d="M147.177 1015.58 L152.061 1015.58 L152.061 1021.45 L147.177 1021.45 L147.177 1015.58 Z" fill="#000000" fill-rule="nonzero" fill-opacity="1" /><path clip-path="url(#clip540)" d="M162.292 986.895 L180.649 986.895 L180.649 990.83 L166.575 990.83 L166.575 999.302 Q167.593 998.955 168.612 998.793 Q169.63 998.608 170.649 998.608 Q176.436 998.608 179.815 1001.78 Q183.195 1004.95 183.195 1010.37 Q183.195 1015.95 179.723 1019.05 Q176.251 1022.13 169.931 1022.13 Q167.755 1022.13 165.487 1021.76 Q163.241 1021.39 160.834 1020.64 L160.834 1015.95 Q162.917 1017.08 165.14 1017.64 Q167.362 1018.19 169.839 1018.19 Q173.843 1018.19 176.181 1016.08 Q178.519 1013.98 178.519 1010.37 Q178.519 1006.76 176.181 1004.65 Q173.843 1002.54 169.839 1002.54 Q167.964 1002.54 166.089 1002.96 Q164.237 1003.38 162.292 1004.26 L162.292 986.895 Z" fill="#000000" fill-rule="nonzero" fill-opacity="1" /><path clip-path="url(#clip540)" d="M126.598 816.377 Q123.45 816.377 121.598 818.53 Q119.769 820.683 119.769 824.433 Q119.769 828.159 121.598 830.335 Q123.45 832.488 126.598 832.488 Q129.746 832.488 131.575 830.335 Q133.427 828.159 133.427 824.433 Q133.427 820.683 131.575 818.53 Q129.746 816.377 126.598 816.377 M135.88 801.724 L135.88 805.984 Q134.121 805.15 132.316 804.71 Q130.533 804.271 128.774 804.271 Q124.144 804.271 121.691 807.396 Q119.26 810.521 118.913 816.84 Q120.279 814.826 122.339 813.761 Q124.399 812.673 126.876 812.673 Q132.084 812.673 135.093 815.845 Q138.126 818.993 138.126 824.433 Q138.126 829.757 134.978 832.974 Q131.83 836.192 126.598 836.192 Q120.603 836.192 117.431 831.608 Q114.26 827.002 114.26 818.275 Q114.26 810.081 118.149 805.22 Q122.038 800.336 128.589 800.336 Q130.348 800.336 132.13 800.683 Q133.936 801.03 135.88 801.724 Z" fill="#000000" fill-rule="nonzero" fill-opacity="1" /><path clip-path="url(#clip540)" d="M146.181 829.641 L151.066 829.641 L151.066 835.521 L146.181 835.521 L146.181 829.641 Z" fill="#000000" fill-rule="nonzero" fill-opacity="1" /><path clip-path="url(#clip540)" d="M171.251 804.039 Q167.64 804.039 165.811 807.604 Q164.005 811.146 164.005 818.275 Q164.005 825.382 165.811 828.946 Q167.64 832.488 171.251 832.488 Q174.885 832.488 176.69 828.946 Q178.519 825.382 178.519 818.275 Q178.519 811.146 176.69 807.604 Q174.885 804.039 171.251 804.039 M171.251 800.336 Q177.061 800.336 180.116 804.942 Q183.195 809.525 183.195 818.275 Q183.195 827.002 180.116 831.608 Q177.061 836.192 171.251 836.192 Q165.44 836.192 162.362 831.608 Q159.306 827.002 159.306 818.275 Q159.306 809.525 162.362 804.942 Q165.44 800.336 171.251 800.336 Z" fill="#000000" fill-rule="nonzero" fill-opacity="1" /><path clip-path="url(#clip540)" d="M127.593 630.443 Q124.445 630.443 122.593 632.596 Q120.765 634.748 120.765 638.498 Q120.765 642.225 122.593 644.401 Q124.445 646.554 127.593 646.554 Q130.742 646.554 132.57 644.401 Q134.422 642.225 134.422 638.498 Q134.422 634.748 132.57 632.596 Q130.742 630.443 127.593 630.443 M136.876 615.79 L136.876 620.049 Q135.117 619.216 133.311 618.776 Q131.529 618.336 129.769 618.336 Q125.14 618.336 122.686 621.461 Q120.255 624.586 119.908 630.906 Q121.274 628.892 123.334 627.827 Q125.394 626.739 127.871 626.739 Q133.08 626.739 136.089 629.91 Q139.121 633.059 139.121 638.498 Q139.121 643.822 135.973 647.04 Q132.825 650.258 127.593 650.258 Q121.598 650.258 118.427 645.674 Q115.256 641.068 115.256 632.341 Q115.256 624.147 119.144 619.285 Q123.033 614.401 129.584 614.401 Q131.343 614.401 133.126 614.748 Q134.931 615.096 136.876 615.79 Z" fill="#000000" fill-rule="nonzero" fill-opacity="1" /><path clip-path="url(#clip540)" d="M147.177 643.707 L152.061 643.707 L152.061 649.586 L147.177 649.586 L147.177 643.707 Z" fill="#000000" fill-rule="nonzero" fill-opacity="1" /><path clip-path="url(#clip540)" d="M162.292 615.026 L180.649 615.026 L180.649 618.961 L166.575 618.961 L166.575 627.434 Q167.593 627.086 168.612 626.924 Q169.63 626.739 170.649 626.739 Q176.436 626.739 179.815 629.91 Q183.195 633.082 183.195 638.498 Q183.195 644.077 179.723 647.179 Q176.251 650.258 169.931 650.258 Q167.755 650.258 165.487 649.887 Q163.241 649.517 160.834 648.776 L160.834 644.077 Q162.917 645.211 165.14 645.767 Q167.362 646.322 169.839 646.322 Q173.843 646.322 176.181 644.216 Q178.519 642.109 178.519 638.498 Q178.519 634.887 176.181 632.781 Q173.843 630.674 169.839 630.674 Q167.964 630.674 166.089 631.091 Q164.237 631.508 162.292 632.387 L162.292 615.026 Z" fill="#000000" fill-rule="nonzero" fill-opacity="1" /><path clip-path="url(#clip540)" d="M114.839 429.092 L137.061 429.092 L137.061 431.083 L124.515 463.652 L119.63 463.652 L131.436 433.027 L114.839 433.027 L114.839 429.092 Z" fill="#000000" fill-rule="nonzero" fill-opacity="1" /><path clip-path="url(#clip540)" d="M146.181 457.772 L151.066 457.772 L151.066 463.652 L146.181 463.652 L146.181 457.772 Z" fill="#000000" fill-rule="nonzero" fill-opacity="1" /><path clip-path="url(#clip540)" d="M171.251 432.171 Q167.64 432.171 165.811 435.735 Q164.005 439.277 164.005 446.407 Q164.005 453.513 165.811 457.078 Q167.64 460.62 171.251 460.62 Q174.885 460.62 176.69 457.078 Q178.519 453.513 178.519 446.407 Q178.519 439.277 176.69 435.735 Q174.885 432.171 171.251 432.171 M171.251 428.467 Q177.061 428.467 180.116 433.073 Q183.195 437.657 183.195 446.407 Q183.195 455.133 180.116 459.74 Q177.061 464.323 171.251 464.323 Q165.44 464.323 162.362 459.74 Q159.306 455.133 159.306 446.407 Q159.306 437.657 162.362 433.073 Q165.44 428.467 171.251 428.467 Z" fill="#000000" fill-rule="nonzero" fill-opacity="1" /><path clip-path="url(#clip540)" d="M115.834 243.158 L138.056 243.158 L138.056 245.148 L125.51 277.718 L120.626 277.718 L132.431 247.093 L115.834 247.093 L115.834 243.158 Z" fill="#000000" fill-rule="nonzero" fill-opacity="1" /><path clip-path="url(#clip540)" d="M147.177 271.838 L152.061 271.838 L152.061 277.718 L147.177 277.718 L147.177 271.838 Z" fill="#000000" fill-rule="nonzero" fill-opacity="1" /><path clip-path="url(#clip540)" d="M162.292 243.158 L180.649 243.158 L180.649 247.093 L166.575 247.093 L166.575 255.565 Q167.593 255.218 168.612 255.056 Q169.63 254.871 170.649 254.871 Q176.436 254.871 179.815 258.042 Q183.195 261.213 183.195 266.63 Q183.195 272.208 179.723 275.31 Q176.251 278.389 169.931 278.389 Q167.755 278.389 165.487 278.019 Q163.241 277.648 160.834 276.908 L160.834 272.208 Q162.917 273.343 165.14 273.898 Q167.362 274.454 169.839 274.454 Q173.843 274.454 176.181 272.347 Q178.519 270.241 178.519 266.63 Q178.519 263.019 176.181 260.912 Q173.843 258.806 169.839 258.806 Q167.964 258.806 166.089 259.222 Q164.237 259.639 162.292 260.519 L162.292 243.158 Z" fill="#000000" fill-rule="nonzero" fill-opacity="1" /><path clip-path="url(#clip540)" d="M20.8447 920.342 Q20.8447 927.344 26.0645 931.482 Q31.2844 935.588 40.2919 935.588 Q49.2675 935.588 54.4874 931.482 Q59.7073 927.344 59.7073 920.342 Q59.7073 913.34 54.4874 909.266 Q49.2675 905.16 40.2919 905.16 Q31.2844 905.16 26.0645 909.266 Q20.8447 913.34 20.8447 920.342 M15.6248 920.342 Q15.6248 910.348 22.3406 904.364 Q29.0246 898.38 40.2919 898.38 Q51.5274 898.38 58.2432 904.364 Q64.9272 910.348 64.9272 920.342 Q64.9272 930.368 58.2432 936.384 Q51.5592 942.367 40.2919 942.367 Q29.0246 942.367 22.3406 936.384 Q15.6248 930.368 15.6248 920.342 Z" fill="#000000" fill-rule="nonzero" fill-opacity="1" /><path clip-path="url(#clip540)" d="M58.657 882.912 L77.5631 882.912 L77.5631 888.8 L28.3562 888.8 L28.3562 882.912 L33.7671 882.912 Q30.5842 881.066 29.0564 878.265 Q27.4968 875.432 27.4968 871.517 Q27.4968 865.024 32.6531 860.982 Q37.8093 856.908 46.212 856.908 Q54.6147 856.908 59.771 860.982 Q64.9272 865.024 64.9272 871.517 Q64.9272 875.432 63.3994 878.265 Q61.8398 881.066 58.657 882.912 M46.212 862.987 Q39.7508 862.987 36.0905 865.661 Q32.3984 868.302 32.3984 872.949 Q32.3984 877.596 36.0905 880.27 Q39.7508 882.912 46.212 882.912 Q52.6732 882.912 56.3653 880.27 Q60.0256 877.596 60.0256 872.949 Q60.0256 868.302 56.3653 865.661 Q52.6732 862.987 46.212 862.987 Z" fill="#000000" fill-rule="nonzero" fill-opacity="1" /><path clip-path="url(#clip540)" d="M18.2347 841.407 L28.3562 841.407 L28.3562 829.344 L32.9077 829.344 L32.9077 841.407 L52.2594 841.407 Q56.6199 841.407 57.8613 840.23 Q59.1026 839.02 59.1026 835.36 L59.1026 829.344 L64.0042 829.344 L64.0042 835.36 Q64.0042 842.139 61.4897 844.717 Q58.9434 847.295 52.2594 847.295 L32.9077 847.295 L32.9077 851.592 L28.3562 851.592 L28.3562 847.295 L18.2347 847.295 L18.2347 841.407 Z" fill="#000000" fill-rule="nonzero" fill-opacity="1" /><path clip-path="url(#clip540)" d="M28.3562 821.642 L28.3562 815.785 L64.0042 815.785 L64.0042 821.642 L28.3562 821.642 M14.479 821.642 L14.479 815.785 L21.895 815.785 L21.895 821.642 L14.479 821.642 Z" fill="#000000" fill-rule="nonzero" fill-opacity="1" /><path clip-path="url(#clip540)" d="M35.1993 775.777 Q31.2526 773.581 29.3747 770.525 Q27.4968 767.47 27.4968 763.332 Q27.4968 757.762 31.4117 754.738 Q35.2948 751.714 42.4881 751.714 L64.0042 751.714 L64.0042 757.603 L42.679 757.603 Q37.5546 757.603 35.072 759.417 Q32.5894 761.231 32.5894 764.955 Q32.5894 769.507 35.6131 772.148 Q38.6368 774.79 43.8567 774.79 L64.0042 774.79 L64.0042 780.678 L42.679 780.678 Q37.5228 780.678 35.072 782.493 Q32.5894 784.307 32.5894 788.094 Q32.5894 792.582 35.6449 795.224 Q38.6686 797.866 43.8567 797.866 L64.0042 797.866 L64.0042 803.754 L28.3562 803.754 L28.3562 797.866 L33.8944 797.866 Q30.616 795.861 29.0564 793.06 Q27.4968 790.259 27.4968 786.408 Q27.4968 782.524 29.4702 779.819 Q31.4436 777.082 35.1993 775.777 Z" fill="#000000" fill-rule="nonzero" fill-opacity="1" /><path clip-path="url(#clip540)" d="M46.0847 723.833 Q46.0847 730.93 47.7079 733.668 Q49.3312 736.405 53.2461 736.405 Q56.3653 736.405 58.2114 734.368 Q60.0256 732.299 60.0256 728.766 Q60.0256 723.896 56.5881 720.968 Q53.1188 718.008 47.3897 718.008 L46.0847 718.008 L46.0847 723.833 M43.6657 712.152 L64.0042 712.152 L64.0042 718.008 L58.5933 718.008 Q61.8398 720.013 63.3994 723.005 Q64.9272 725.997 64.9272 730.326 Q64.9272 735.8 61.8716 739.047 Q58.7843 742.261 53.6281 742.261 Q47.6125 742.261 44.5569 738.251 Q41.5014 734.209 41.5014 726.22 L41.5014 718.008 L40.9285 718.008 Q36.8862 718.008 34.6901 720.682 Q32.4621 723.323 32.4621 728.129 Q32.4621 731.185 33.1941 734.081 Q33.9262 736.978 35.3903 739.651 L29.9795 739.651 Q28.7381 736.437 28.1334 733.413 Q27.4968 730.389 27.4968 727.525 Q27.4968 719.79 31.5072 715.971 Q35.5176 712.152 43.6657 712.152 Z" fill="#000000" fill-rule="nonzero" fill-opacity="1" /><path clip-path="url(#clip540)" d="M14.479 700.089 L14.479 694.232 L64.0042 694.232 L64.0042 700.089 L14.479 700.089 Z" fill="#000000" fill-rule="nonzero" fill-opacity="1" /><path clip-path="url(#clip540)" d="M57.5111 643.784 Q59.0389 642.638 59.0389 639.201 L59.0389 636.368 L64.0042 636.368 L64.0042 639.901 Q64.0042 645.63 60.9486 648.24 Q57.8294 650.85 51.0818 650.85 L34.2127 650.85 L34.2127 664.218 L28.3562 664.218 L28.3562 631.339 L34.2127 631.339 L34.2127 644.866 L51.4319 644.866 Q56.047 644.866 57.5111 643.784 Z" fill="#000000" fill-rule="nonzero" fill-opacity="1" /><path clip-path="url(#clip540)" d="M42.4562 610.014 Q39.719 611.605 39.719 614.82 Q39.719 618.035 42.4562 619.626 Q45.1935 621.249 50.668 621.249 Q56.1743 621.249 58.9116 619.626 Q61.6488 618.035 61.6488 614.82 Q61.6488 611.605 58.9116 610.014 Q56.1743 608.391 50.668 608.391 Q45.1935 608.391 42.4562 610.014 M36.8862 614.82 Q36.8862 609.695 40.4192 606.99 Q43.9522 604.285 50.668 604.285 Q57.4157 604.285 60.9486 606.99 Q64.4816 609.695 64.4816 614.82 Q64.4816 619.976 60.9486 622.682 Q57.4157 625.387 50.668 625.387 Q43.9522 625.387 40.4192 622.682 Q36.8862 619.976 36.8862 614.82 Z" fill="#000000" fill-rule="nonzero" fill-opacity="1" /><path clip-path="url(#clip540)" d="M981.206 17.6457 Q972.294 17.6457 967.027 24.2892 Q961.802 30.9327 961.802 42.3968 Q961.802 53.8203 967.027 60.4638 Q972.294 67.1073 981.206 67.1073 Q990.118 67.1073 995.303 60.4638 Q1000.53 53.8203 1000.53 42.3968 Q1000.53 30.9327 995.303 24.2892 Q990.118 17.6457 981.206 17.6457 M981.206 11.0023 Q993.925 11.0023 1001.54 19.5497 Q1009.16 28.0566 1009.16 42.3968 Q1009.16 56.6965 1001.54 65.2439 Q993.925 73.7508 981.206 73.7508 Q968.445 73.7508 960.789 65.2439 Q953.173 56.737 953.173 42.3968 Q953.173 28.0566 960.789 19.5497 Q968.445 11.0023 981.206 11.0023 Z" fill="#000000" fill-rule="nonzero" fill-opacity="1" /><path clip-path="url(#clip540)" d="M1028.84 65.7705 L1028.84 89.8329 L1021.35 89.8329 L1021.35 27.2059 L1028.84 27.2059 L1028.84 34.0924 Q1031.19 30.0415 1034.76 28.0971 Q1038.36 26.1121 1043.35 26.1121 Q1051.61 26.1121 1056.76 32.6746 Q1061.94 39.2371 1061.94 49.9314 Q1061.94 60.6258 1056.76 67.1883 Q1051.61 73.7508 1043.35 73.7508 Q1038.36 73.7508 1034.76 71.8063 Q1031.19 69.8214 1028.84 65.7705 M1054.2 49.9314 Q1054.2 41.7081 1050.8 37.0496 Q1047.44 32.3505 1041.52 32.3505 Q1035.61 32.3505 1032.21 37.0496 Q1028.84 41.7081 1028.84 49.9314 Q1028.84 58.1548 1032.21 62.8538 Q1035.61 67.5124 1041.52 67.5124 Q1047.44 67.5124 1050.8 62.8538 Q1054.2 58.1548 1054.2 49.9314 Z" fill="#000000" fill-rule="nonzero" fill-opacity="1" /><path clip-path="url(#clip540)" d="M1081.67 14.324 L1081.67 27.2059 L1097.02 27.2059 L1097.02 32.9987 L1081.67 32.9987 L1081.67 57.6282 Q1081.67 63.1779 1083.17 64.7578 Q1084.71 66.3376 1089.36 66.3376 L1097.02 66.3376 L1097.02 72.576 L1089.36 72.576 Q1080.74 72.576 1077.46 69.3758 Q1074.17 66.1351 1074.17 57.6282 L1074.17 32.9987 L1068.71 32.9987 L1068.71 27.2059 L1074.17 27.2059 L1074.17 14.324 L1081.67 14.324 Z" fill="#000000" fill-rule="nonzero" fill-opacity="1" /><path clip-path="url(#clip540)" d="M1106.82 27.2059 L1114.28 27.2059 L1114.28 72.576 L1106.82 72.576 L1106.82 27.2059 M1106.82 9.54393 L1114.28 9.54393 L1114.28 18.9825 L1106.82 18.9825 L1106.82 9.54393 Z" fill="#000000" fill-rule="nonzero" fill-opacity="1" /><path clip-path="url(#clip540)" d="M1165.2 35.9153 Q1167.99 30.8922 1171.88 28.5022 Q1175.77 26.1121 1181.04 26.1121 Q1188.13 26.1121 1191.97 31.0947 Q1195.82 36.0368 1195.82 45.1919 L1195.82 72.576 L1188.33 72.576 L1188.33 45.4349 Q1188.33 38.913 1186.02 35.7533 Q1183.71 32.5936 1178.97 32.5936 Q1173.18 32.5936 1169.82 36.4419 Q1166.45 40.2903 1166.45 46.9338 L1166.45 72.576 L1158.96 72.576 L1158.96 45.4349 Q1158.96 38.8725 1156.65 35.7533 Q1154.34 32.5936 1149.52 32.5936 Q1143.81 32.5936 1140.45 36.4824 Q1137.08 40.3308 1137.08 46.9338 L1137.08 72.576 L1129.59 72.576 L1129.59 27.2059 L1137.08 27.2059 L1137.08 34.2544 Q1139.64 30.082 1143.2 28.0971 Q1146.77 26.1121 1151.67 26.1121 Q1156.61 26.1121 1160.05 28.6237 Q1163.54 31.1352 1165.2 35.9153 Z" fill="#000000" fill-rule="nonzero" fill-opacity="1" /><path clip-path="url(#clip540)" d="M1231.31 49.7694 Q1222.27 49.7694 1218.79 51.8354 Q1215.31 53.9013 1215.31 58.8839 Q1215.31 62.8538 1217.9 65.2034 Q1220.53 67.5124 1225.03 67.5124 Q1231.23 67.5124 1234.95 63.1374 Q1238.72 58.7219 1238.72 51.4303 L1238.72 49.7694 L1231.31 49.7694 M1246.18 46.6907 L1246.18 72.576 L1238.72 72.576 L1238.72 65.6895 Q1236.17 69.8214 1232.36 71.8063 Q1228.55 73.7508 1223.04 73.7508 Q1216.08 73.7508 1211.95 69.8619 Q1207.85 65.9325 1207.85 59.3701 Q1207.85 51.7138 1212.96 47.825 Q1218.1 43.9361 1228.27 43.9361 L1238.72 43.9361 L1238.72 43.2069 Q1238.72 38.0623 1235.32 35.2672 Q1231.96 32.4315 1225.84 32.4315 Q1221.95 32.4315 1218.26 33.3632 Q1214.58 34.295 1211.18 36.1584 L1211.18 29.2718 Q1215.27 27.692 1219.12 26.9223 Q1222.96 26.1121 1226.61 26.1121 Q1236.45 26.1121 1241.31 31.2163 Q1246.18 36.3204 1246.18 46.6907 Z" fill="#000000" fill-rule="nonzero" fill-opacity="1" /><path clip-path="url(#clip540)" d="M1261.53 9.54393 L1268.98 9.54393 L1268.98 72.576 L1261.53 72.576 L1261.53 9.54393 Z" fill="#000000" fill-rule="nonzero" fill-opacity="1" /><path clip-path="url(#clip540)" d="M1333.19 64.3122 Q1334.65 66.2566 1339.02 66.2566 L1342.63 66.2566 L1342.63 72.576 L1338.13 72.576 Q1330.84 72.576 1327.52 68.6871 Q1324.2 64.7172 1324.2 56.1293 L1324.2 34.6595 L1307.18 34.6595 L1307.18 27.2059 L1349.03 27.2059 L1349.03 34.6595 L1331.81 34.6595 L1331.81 56.5749 Q1331.81 62.4487 1333.19 64.3122 Z" fill="#000000" fill-rule="nonzero" fill-opacity="1" /><path clip-path="url(#clip540)" d="M1376.17 45.1514 Q1374.14 41.6676 1370.05 41.6676 Q1365.96 41.6676 1363.94 45.1514 Q1361.87 48.6352 1361.87 55.6027 Q1361.87 62.6108 1363.94 66.0946 Q1365.96 69.5783 1370.05 69.5783 Q1374.14 69.5783 1376.17 66.0946 Q1378.23 62.6108 1378.23 55.6027 Q1378.23 48.6352 1376.17 45.1514 M1370.05 38.0623 Q1376.57 38.0623 1380.02 42.5588 Q1383.46 47.0553 1383.46 55.6027 Q1383.46 64.1906 1380.02 68.6871 Q1376.57 73.1836 1370.05 73.1836 Q1363.49 73.1836 1360.05 68.6871 Q1356.6 64.1906 1356.6 55.6027 Q1356.6 47.0553 1360.05 42.5588 Q1363.49 38.0623 1370.05 38.0623 Z" fill="#000000" fill-rule="nonzero" fill-opacity="1" /><path clip-path="url(#clip540)" d="M1396.06 62.2867 L1404.61 62.2867 L1404.61 69.2543 L1397.96 82.2172 L1392.74 82.2172 L1396.06 69.2543 L1396.06 62.2867 Z" fill="#000000" fill-rule="nonzero" fill-opacity="1" /><path clip-path="url(#clip540)" d="M1447.22 12.096 L1458.24 12.096 L1485.06 62.6918 L1485.06 12.096 L1493 12.096 L1493 72.576 L1481.98 72.576 L1455.16 21.9802 L1455.16 72.576 L1447.22 72.576 L1447.22 12.096 Z" fill="#000000" fill-rule="nonzero" fill-opacity="1" /><path clip-path="url(#clip540)" d="M1509.93 34.9026 L1561.86 34.9026 L1561.86 41.7081 L1509.93 41.7081 L1509.93 34.9026 M1509.93 51.4303 L1561.86 51.4303 L1561.86 58.3168 L1509.93 58.3168 L1509.93 51.4303 Z" fill="#000000" fill-rule="nonzero" fill-opacity="1" /><path clip-path="url(#clip540)" d="M1602.01 19.2256 L1581.35 51.5113 L1602.01 51.5113 L1602.01 19.2256 M1599.86 12.096 L1610.15 12.096 L1610.15 51.5113 L1618.78 51.5113 L1618.78 58.3168 L1610.15 58.3168 L1610.15 72.576 L1602.01 72.576 L1602.01 58.3168 L1574.7 58.3168 L1574.7 50.4176 L1599.86 12.096 Z" fill="#000000" fill-rule="nonzero" fill-opacity="1" /><polyline clip-path="url(#clip542)" style="stroke:#009af9; stroke-linecap:round; stroke-linejoin:round; stroke-width:8; stroke-opacity:1; fill:none" points="279.579,1386.4 314.044,1097.27 320.938,1069.2 348.51,992.761 362.296,964.411 369.189,950.816 376.083,937.57 382.976,925.208 389.869,914.028 396.762,903.913 403.655,894.755 410.548,886.452 424.334,871.692 431.228,864.601 438.121,857.628 445.014,850.765 451.907,869.817 479.479,817.938 486.373,811.64 493.266,805.424 500.159,799.285 507.052,793.221 513.945,787.229 541.518,763.931 548.411,758.263 555.304,752.653 562.197,747.1 569.09,741.602 575.983,732.438 582.876,717.173 596.663,718.974 603.556,706.794 610.449,703.384 617.342,699.998 624.235,696.635 631.128,693.295 638.021,689.977 644.915,686.681 651.808,683.407 658.701,680.153 672.487,673.707 679.38,670.513 686.273,667.339 693.166,664.183 700.06,661.046 706.953,657.927 720.739,651.743 727.632,648.676 734.525,645.627 741.418,642.594 748.311,639.577 755.205,636.577 768.991,630.622 775.884,627.668 782.777,624.729 789.67,621.804 796.563,618.894 803.456,615.998 817.243,610.248 824.136,607.394 837.922,601.725 844.815,598.91 858.602,593.319 865.495,590.542 872.388,587.777 879.281,585.024 886.174,582.284 893.067,579.555 899.96,576.837 906.853,574.132 913.747,571.437 920.64,568.753 927.533,566.081 934.426,563.419 948.212,558.128 955.105,555.498 961.998,552.878 968.892,550.269 975.785,547.67 982.678,545.08 989.571,542.5 996.464,539.931 1003.36,537.37 1010.25,534.819 1017.14,532.278 1024.04,529.745 1030.93,527.222 1037.82,524.708 1044.72,522.203 1051.61,519.707 1058.5,517.219 1065.4,514.74 1072.29,512.27 1079.18,509.808 1086.07,507.354 1092.97,504.909 1099.86,502.472 1106.75,500.043 1113.65,497.622 1120.54,495.209 1127.43,492.804 1134.33,490.406 1141.22,488.016 1148.11,485.634 1155.01,483.26 1161.9,480.892 1175.69,476.18 1182.58,473.835 1189.47,471.497 1196.36,469.166 1203.26,466.842 1210.15,464.526 1217.04,462.216 1223.94,459.913 1230.83,457.616 1237.72,455.327 1244.62,453.044 1251.51,450.767 1258.4,448.497 1265.3,446.234 1272.19,443.977 1279.08,441.727 1285.98,439.482 1292.87,437.244 1299.76,435.013 1313.55,430.567 1320.44,428.354 1327.33,426.146 1334.23,423.945 1341.12,421.749 1348.01,419.559 1354.91,417.375 1382.48,408.696 1389.37,406.54 1396.27,404.39 1403.16,402.245 1410.05,400.106 1416.94,397.971 1423.84,395.843 1430.73,393.719 1437.62,391.601 1444.52,389.488 1451.41,387.381 1458.3,385.278 1465.2,383.181 1472.09,381.088 1478.98,379.001 1485.88,376.919 1492.77,374.841 1506.56,370.701 1513.45,368.638 1520.34,366.58 1527.23,364.527 1534.13,362.478 1541.02,360.435 1547.91,358.396 1568.59,352.306 1582.38,348.269 1589.27,346.257 1596.17,344.25 1603.06,342.247 1609.95,340.249 1616.85,338.254 1623.74,336.265 1630.63,334.279 1637.52,332.298 1644.42,330.321 1651.31,328.348 1658.2,326.379 1665.1,324.415 1671.99,322.455 1678.88,320.498 1685.78,318.546 1692.67,316.598 1699.56,314.654 1706.46,312.714 1713.35,310.778 1720.24,308.846 1734.03,304.993 1747.82,301.156 1754.71,299.244 1761.6,297.335 1768.49,295.43 1775.39,293.528 1789.17,289.736 1796.07,287.846 1802.96,285.96 1809.85,284.077 1816.75,282.197 1823.64,280.322 1830.53,278.449 1837.43,276.581 1844.32,274.716 1858.11,270.996 1871.89,267.291 1878.78,265.443 1892.57,261.758 1906.36,258.086 1913.25,256.256 1920.14,254.428 1927.04,252.604 1940.82,248.966 1947.72,247.151 1961.5,243.532 1968.4,241.728 1975.29,239.926 1989.07,236.333 2002.86,232.752 2016.65,229.183 2030.43,225.627 2037.33,223.853 2051.11,220.315 2064.9,216.788 2078.69,213.274 2085.58,211.521 2092.47,209.771 2099.36,208.024 2106.26,206.28 2113.15,204.538 2120.04,202.8 2126.94,201.064 2133.83,199.331 2147.62,195.874 2154.51,194.15 2195.87,183.861 2202.76,182.155 2209.65,180.452 2223.44,177.055 2230.33,175.36 2244.12,171.978 2251.01,170.292 2264.8,166.929 2271.69,165.255 2285.48,161.918 2292.37,160.256 "/>
</svg>
