<?xml version="1.0" encoding="utf-8"?>
<svg xmlns="http://www.w3.org/2000/svg" xmlns:xlink="http://www.w3.org/1999/xlink" width="600" height="400" viewBox="0 0 2400 1600">
<defs>
  <clipPath id="clip520">
    <rect x="0" y="0" width="2400" height="1600"/>
  </clipPath>
</defs>
<path clip-path="url(#clip520)" d="M0 1600 L2400 1600 L2400 8.88178e-14 L0 8.88178e-14  Z" fill="#ffffff" fill-rule="evenodd" fill-opacity="1"/>
<defs>
  <clipPath id="clip521">
    <rect x="480" y="0" width="1681" height="1600"/>
  </clipPath>
</defs>
<path clip-path="url(#clip520)" d="M247.459 1423.18 L2352.76 1423.18 L2352.76 123.472 L247.459 123.472  Z" fill="#ffffff" fill-rule="evenodd" fill-opacity="1"/>
<defs>
  <clipPath id="clip522">
    <rect x="247" y="123" width="2106" height="1301"/>
  </clipPath>
</defs>
<polyline clip-path="url(#clip522)" style="stroke:#000000; stroke-linecap:round; stroke-linejoin:round; stroke-width:2; stroke-opacity:0.1; fill:none" points="575.067,1423.18 575.067,123.472 "/>
<polyline clip-path="url(#clip522)" style="stroke:#000000; stroke-linecap:round; stroke-linejoin:round; stroke-width:2; stroke-opacity:0.1; fill:none" points="918.688,1423.18 918.688,123.472 "/>
<polyline clip-path="url(#clip522)" style="stroke:#000000; stroke-linecap:round; stroke-linejoin:round; stroke-width:2; stroke-opacity:0.1; fill:none" points="1262.31,1423.18 1262.31,123.472 "/>
<polyline clip-path="url(#clip522)" style="stroke:#000000; stroke-linecap:round; stroke-linejoin:round; stroke-width:2; stroke-opacity:0.1; fill:none" points="1605.93,1423.18 1605.93,123.472 "/>
<polyline clip-path="url(#clip522)" style="stroke:#000000; stroke-linecap:round; stroke-linejoin:round; stroke-width:2; stroke-opacity:0.1; fill:none" points="1949.55,1423.18 1949.55,123.472 "/>
<polyline clip-path="url(#clip522)" style="stroke:#000000; stroke-linecap:round; stroke-linejoin:round; stroke-width:2; stroke-opacity:0.1; fill:none" points="2293.17,1423.18 2293.17,123.472 "/>
<polyline clip-path="url(#clip522)" style="stroke:#000000; stroke-linecap:round; stroke-linejoin:round; stroke-width:2; stroke-opacity:0.1; fill:none" points="247.459,1231.01 2352.76,1231.01 "/>
<polyline clip-path="url(#clip522)" style="stroke:#000000; stroke-linecap:round; stroke-linejoin:round; stroke-width:2; stroke-opacity:0.1; fill:none" points="247.459,942.012 2352.76,942.012 "/>
<polyline clip-path="url(#clip522)" style="stroke:#000000; stroke-linecap:round; stroke-linejoin:round; stroke-width:2; stroke-opacity:0.1; fill:none" points="247.459,653.017 2352.76,653.017 "/>
<polyline clip-path="url(#clip522)" style="stroke:#000000; stroke-linecap:round; stroke-linejoin:round; stroke-width:2; stroke-opacity:0.1; fill:none" points="247.459,364.022 2352.76,364.022 "/>
<polyline clip-path="url(#clip520)" style="stroke:#000000; stroke-linecap:round; stroke-linejoin:round; stroke-width:4; stroke-opacity:1; fill:none" points="247.459,1423.18 2352.76,1423.18 "/>
<polyline clip-path="url(#clip520)" style="stroke:#000000; stroke-linecap:round; stroke-linejoin:round; stroke-width:4; stroke-opacity:1; fill:none" points="575.067,1423.18 575.067,1404.28 "/>
<polyline clip-path="url(#clip520)" style="stroke:#000000; stroke-linecap:round; stroke-linejoin:round; stroke-width:4; stroke-opacity:1; fill:none" points="918.688,1423.18 918.688,1404.28 "/>
<polyline clip-path="url(#clip520)" style="stroke:#000000; stroke-linecap:round; stroke-linejoin:round; stroke-width:4; stroke-opacity:1; fill:none" points="1262.31,1423.18 1262.31,1404.28 "/>
<polyline clip-path="url(#clip520)" style="stroke:#000000; stroke-linecap:round; stroke-linejoin:round; stroke-width:4; stroke-opacity:1; fill:none" points="1605.93,1423.18 1605.93,1404.28 "/>
<polyline clip-path="url(#clip520)" style="stroke:#000000; stroke-linecap:round; stroke-linejoin:round; stroke-width:4; stroke-opacity:1; fill:none" points="1949.55,1423.18 1949.55,1404.28 "/>
<polyline clip-path="url(#clip520)" style="stroke:#000000; stroke-linecap:round; stroke-linejoin:round; stroke-width:4; stroke-opacity:1; fill:none" points="2293.17,1423.18 2293.17,1404.28 "/>
<path clip-path="url(#clip520)" d="M549.766 1451.02 L568.123 1451.02 L568.123 1454.96 L554.049 1454.96 L554.049 1463.43 Q555.067 1463.08 556.086 1462.92 Q557.104 1462.73 558.123 1462.73 Q563.91 1462.73 567.289 1465.9 Q570.669 1469.08 570.669 1474.49 Q570.669 1480.07 567.197 1483.17 Q563.724 1486.25 557.405 1486.25 Q555.229 1486.25 552.961 1485.88 Q550.715 1485.51 548.308 1484.77 L548.308 1480.07 Q550.391 1481.2 552.613 1481.76 Q554.836 1482.32 557.312 1482.32 Q561.317 1482.32 563.655 1480.21 Q565.993 1478.1 565.993 1474.49 Q565.993 1470.88 563.655 1468.77 Q561.317 1466.67 557.312 1466.67 Q555.437 1466.67 553.562 1467.08 Q551.711 1467.5 549.766 1468.38 L549.766 1451.02 Z" fill="#000000" fill-rule="nonzero" fill-opacity="1" /><path clip-path="url(#clip520)" d="M589.882 1454.1 Q586.271 1454.1 584.442 1457.66 Q582.636 1461.2 582.636 1468.33 Q582.636 1475.44 584.442 1479.01 Q586.271 1482.55 589.882 1482.55 Q593.516 1482.55 595.322 1479.01 Q597.15 1475.44 597.15 1468.33 Q597.15 1461.2 595.322 1457.66 Q593.516 1454.1 589.882 1454.1 M589.882 1450.39 Q595.692 1450.39 598.747 1455 Q601.826 1459.58 601.826 1468.33 Q601.826 1477.06 598.747 1481.67 Q595.692 1486.25 589.882 1486.25 Q584.072 1486.25 580.993 1481.67 Q577.937 1477.06 577.937 1468.33 Q577.937 1459.58 580.993 1455 Q584.072 1450.39 589.882 1450.39 Z" fill="#000000" fill-rule="nonzero" fill-opacity="1" /><path clip-path="url(#clip520)" d="M878.295 1481.64 L885.934 1481.64 L885.934 1455.28 L877.623 1456.95 L877.623 1452.69 L885.887 1451.02 L890.563 1451.02 L890.563 1481.64 L898.202 1481.64 L898.202 1485.58 L878.295 1485.58 L878.295 1481.64 Z" fill="#000000" fill-rule="nonzero" fill-opacity="1" /><path clip-path="url(#clip520)" d="M917.646 1454.1 Q914.035 1454.1 912.207 1457.66 Q910.401 1461.2 910.401 1468.33 Q910.401 1475.44 912.207 1479.01 Q914.035 1482.55 917.646 1482.55 Q921.281 1482.55 923.086 1479.01 Q924.915 1475.44 924.915 1468.33 Q924.915 1461.2 923.086 1457.66 Q921.281 1454.1 917.646 1454.1 M917.646 1450.39 Q923.456 1450.39 926.512 1455 Q929.591 1459.58 929.591 1468.33 Q929.591 1477.06 926.512 1481.67 Q923.456 1486.25 917.646 1486.25 Q911.836 1486.25 908.757 1481.67 Q905.702 1477.06 905.702 1468.33 Q905.702 1459.58 908.757 1455 Q911.836 1450.39 917.646 1450.39 Z" fill="#000000" fill-rule="nonzero" fill-opacity="1" /><path clip-path="url(#clip520)" d="M947.808 1454.1 Q944.197 1454.1 942.368 1457.66 Q940.563 1461.2 940.563 1468.33 Q940.563 1475.44 942.368 1479.01 Q944.197 1482.55 947.808 1482.55 Q951.442 1482.55 953.248 1479.01 Q955.077 1475.44 955.077 1468.33 Q955.077 1461.2 953.248 1457.66 Q951.442 1454.1 947.808 1454.1 M947.808 1450.39 Q953.618 1450.39 956.674 1455 Q959.753 1459.58 959.753 1468.33 Q959.753 1477.06 956.674 1481.67 Q953.618 1486.25 947.808 1486.25 Q941.998 1486.25 938.919 1481.67 Q935.864 1477.06 935.864 1468.33 Q935.864 1459.58 938.919 1455 Q941.998 1450.39 947.808 1450.39 Z" fill="#000000" fill-rule="nonzero" fill-opacity="1" /><path clip-path="url(#clip520)" d="M1221.92 1481.64 L1229.55 1481.64 L1229.55 1455.28 L1221.24 1456.95 L1221.24 1452.69 L1229.51 1451.02 L1234.18 1451.02 L1234.18 1481.64 L1241.82 1481.64 L1241.82 1485.58 L1221.92 1485.58 L1221.92 1481.64 Z" fill="#000000" fill-rule="nonzero" fill-opacity="1" /><path clip-path="url(#clip520)" d="M1251.31 1451.02 L1269.67 1451.02 L1269.67 1454.96 L1255.6 1454.96 L1255.6 1463.43 Q1256.61 1463.08 1257.63 1462.92 Q1258.65 1462.73 1259.67 1462.73 Q1265.46 1462.73 1268.84 1465.9 Q1272.22 1469.08 1272.22 1474.49 Q1272.22 1480.07 1268.74 1483.17 Q1265.27 1486.25 1258.95 1486.25 Q1256.78 1486.25 1254.51 1485.88 Q1252.26 1485.51 1249.86 1484.77 L1249.86 1480.07 Q1251.94 1481.2 1254.16 1481.76 Q1256.38 1482.32 1258.86 1482.32 Q1262.86 1482.32 1265.2 1480.21 Q1267.54 1478.1 1267.54 1474.49 Q1267.54 1470.88 1265.2 1468.77 Q1262.86 1466.67 1258.86 1466.67 Q1256.98 1466.67 1255.11 1467.08 Q1253.26 1467.5 1251.31 1468.38 L1251.31 1451.02 Z" fill="#000000" fill-rule="nonzero" fill-opacity="1" /><path clip-path="url(#clip520)" d="M1291.43 1454.1 Q1287.82 1454.1 1285.99 1457.66 Q1284.18 1461.2 1284.18 1468.33 Q1284.18 1475.44 1285.99 1479.01 Q1287.82 1482.55 1291.43 1482.55 Q1295.06 1482.55 1296.87 1479.01 Q1298.7 1475.44 1298.7 1468.33 Q1298.7 1461.2 1296.87 1457.66 Q1295.06 1454.1 1291.43 1454.1 M1291.43 1450.39 Q1297.24 1450.39 1300.29 1455 Q1303.37 1459.58 1303.37 1468.33 Q1303.37 1477.06 1300.29 1481.67 Q1297.24 1486.25 1291.43 1486.25 Q1285.62 1486.25 1282.54 1481.67 Q1279.48 1477.06 1279.48 1468.33 Q1279.48 1459.58 1282.54 1455 Q1285.62 1450.39 1291.43 1450.39 Z" fill="#000000" fill-rule="nonzero" fill-opacity="1" /><path clip-path="url(#clip520)" d="M1569.62 1481.64 L1585.94 1481.64 L1585.94 1485.58 L1564 1485.58 L1564 1481.64 Q1566.66 1478.89 1571.24 1474.26 Q1575.85 1469.61 1577.03 1468.27 Q1579.28 1465.74 1580.15 1464.01 Q1581.06 1462.25 1581.06 1460.56 Q1581.06 1457.8 1579.11 1456.07 Q1577.19 1454.33 1574.09 1454.33 Q1571.89 1454.33 1569.44 1455.09 Q1567.01 1455.86 1564.23 1457.41 L1564.23 1452.69 Q1567.05 1451.55 1569.51 1450.97 Q1571.96 1450.39 1574 1450.39 Q1579.37 1450.39 1582.56 1453.08 Q1585.76 1455.77 1585.76 1460.26 Q1585.76 1462.39 1584.95 1464.31 Q1584.16 1466.2 1582.05 1468.8 Q1581.47 1469.47 1578.37 1472.69 Q1575.27 1475.88 1569.62 1481.64 Z" fill="#000000" fill-rule="nonzero" fill-opacity="1" /><path clip-path="url(#clip520)" d="M1605.76 1454.1 Q1602.15 1454.1 1600.32 1457.66 Q1598.51 1461.2 1598.51 1468.33 Q1598.51 1475.44 1600.32 1479.01 Q1602.15 1482.55 1605.76 1482.55 Q1609.39 1482.55 1611.2 1479.01 Q1613.02 1475.44 1613.02 1468.33 Q1613.02 1461.2 1611.2 1457.66 Q1609.39 1454.1 1605.76 1454.1 M1605.76 1450.39 Q1611.57 1450.39 1614.62 1455 Q1617.7 1459.58 1617.7 1468.33 Q1617.7 1477.06 1614.62 1481.67 Q1611.57 1486.25 1605.76 1486.25 Q1599.95 1486.25 1596.87 1481.67 Q1593.81 1477.06 1593.81 1468.33 Q1593.81 1459.58 1596.87 1455 Q1599.95 1450.39 1605.76 1450.39 Z" fill="#000000" fill-rule="nonzero" fill-opacity="1" /><path clip-path="url(#clip520)" d="M1635.92 1454.1 Q1632.31 1454.1 1630.48 1457.66 Q1628.67 1461.2 1628.67 1468.33 Q1628.67 1475.44 1630.48 1479.01 Q1632.31 1482.55 1635.92 1482.55 Q1639.55 1482.55 1641.36 1479.01 Q1643.19 1475.44 1643.19 1468.33 Q1643.19 1461.2 1641.36 1457.66 Q1639.55 1454.1 1635.92 1454.1 M1635.92 1450.39 Q1641.73 1450.39 1644.78 1455 Q1647.86 1459.58 1647.86 1468.33 Q1647.86 1477.06 1644.78 1481.67 Q1641.73 1486.25 1635.92 1486.25 Q1630.11 1486.25 1627.03 1481.67 Q1623.97 1477.06 1623.97 1468.33 Q1623.97 1459.58 1627.03 1455 Q1630.11 1450.39 1635.92 1450.39 Z" fill="#000000" fill-rule="nonzero" fill-opacity="1" /><path clip-path="url(#clip520)" d="M1913.24 1481.64 L1929.56 1481.64 L1929.56 1485.58 L1907.62 1485.58 L1907.62 1481.64 Q1910.28 1478.89 1914.86 1474.26 Q1919.47 1469.61 1920.65 1468.27 Q1922.9 1465.74 1923.78 1464.01 Q1924.68 1462.25 1924.68 1460.56 Q1924.68 1457.8 1922.73 1456.07 Q1920.81 1454.33 1917.71 1454.33 Q1915.51 1454.33 1913.06 1455.09 Q1910.63 1455.86 1907.85 1457.41 L1907.85 1452.69 Q1910.67 1451.55 1913.13 1450.97 Q1915.58 1450.39 1917.62 1450.39 Q1922.99 1450.39 1926.18 1453.08 Q1929.38 1455.77 1929.38 1460.26 Q1929.38 1462.39 1928.57 1464.31 Q1927.78 1466.2 1925.67 1468.8 Q1925.1 1469.47 1921.99 1472.69 Q1918.89 1475.88 1913.24 1481.64 Z" fill="#000000" fill-rule="nonzero" fill-opacity="1" /><path clip-path="url(#clip520)" d="M1939.42 1451.02 L1957.78 1451.02 L1957.78 1454.96 L1943.71 1454.96 L1943.71 1463.43 Q1944.72 1463.08 1945.74 1462.92 Q1946.76 1462.73 1947.78 1462.73 Q1953.57 1462.73 1956.95 1465.9 Q1960.33 1469.08 1960.33 1474.49 Q1960.33 1480.07 1956.85 1483.17 Q1953.38 1486.25 1947.06 1486.25 Q1944.89 1486.25 1942.62 1485.88 Q1940.37 1485.51 1937.97 1484.77 L1937.97 1480.07 Q1940.05 1481.2 1942.27 1481.76 Q1944.49 1482.32 1946.97 1482.32 Q1950.97 1482.32 1953.31 1480.21 Q1955.65 1478.1 1955.65 1474.49 Q1955.65 1470.88 1953.31 1468.77 Q1950.97 1466.67 1946.97 1466.67 Q1945.1 1466.67 1943.22 1467.08 Q1941.37 1467.5 1939.42 1468.38 L1939.42 1451.02 Z" fill="#000000" fill-rule="nonzero" fill-opacity="1" /><path clip-path="url(#clip520)" d="M1979.54 1454.1 Q1975.93 1454.1 1974.1 1457.66 Q1972.29 1461.2 1972.29 1468.33 Q1972.29 1475.44 1974.1 1479.01 Q1975.93 1482.55 1979.54 1482.55 Q1983.17 1482.55 1984.98 1479.01 Q1986.81 1475.44 1986.81 1468.33 Q1986.81 1461.2 1984.98 1457.66 Q1983.17 1454.1 1979.54 1454.1 M1979.54 1450.39 Q1985.35 1450.39 1988.4 1455 Q1991.48 1459.58 1991.48 1468.33 Q1991.48 1477.06 1988.4 1481.67 Q1985.35 1486.25 1979.54 1486.25 Q1973.73 1486.25 1970.65 1481.67 Q1967.59 1477.06 1967.59 1468.33 Q1967.59 1459.58 1970.65 1455 Q1973.73 1450.39 1979.54 1450.39 Z" fill="#000000" fill-rule="nonzero" fill-opacity="1" /><path clip-path="url(#clip520)" d="M2266.93 1466.95 Q2270.29 1467.66 2272.17 1469.93 Q2274.06 1472.2 2274.06 1475.53 Q2274.06 1480.65 2270.54 1483.45 Q2267.03 1486.25 2260.54 1486.25 Q2258.37 1486.25 2256.05 1485.81 Q2253.76 1485.39 2251.31 1484.54 L2251.31 1480.02 Q2253.25 1481.16 2255.57 1481.74 Q2257.88 1482.32 2260.41 1482.32 Q2264.8 1482.32 2267.1 1480.58 Q2269.41 1478.84 2269.41 1475.53 Q2269.41 1472.48 2267.26 1470.77 Q2265.13 1469.03 2261.31 1469.03 L2257.28 1469.03 L2257.28 1465.19 L2261.49 1465.19 Q2264.94 1465.19 2266.77 1463.82 Q2268.6 1462.43 2268.6 1459.84 Q2268.6 1457.18 2266.7 1455.77 Q2264.83 1454.33 2261.31 1454.33 Q2259.39 1454.33 2257.19 1454.75 Q2254.99 1455.16 2252.35 1456.04 L2252.35 1451.88 Q2255.01 1451.14 2257.33 1450.77 Q2259.67 1450.39 2261.73 1450.39 Q2267.05 1450.39 2270.15 1452.83 Q2273.25 1455.23 2273.25 1459.35 Q2273.25 1462.22 2271.61 1464.21 Q2269.97 1466.18 2266.93 1466.95 Z" fill="#000000" fill-rule="nonzero" fill-opacity="1" /><path clip-path="url(#clip520)" d="M2292.93 1454.1 Q2289.32 1454.1 2287.49 1457.66 Q2285.68 1461.2 2285.68 1468.33 Q2285.68 1475.44 2287.49 1479.01 Q2289.32 1482.55 2292.93 1482.55 Q2296.56 1482.55 2298.37 1479.01 Q2300.2 1475.44 2300.2 1468.33 Q2300.2 1461.2 2298.37 1457.66 Q2296.56 1454.1 2292.93 1454.1 M2292.93 1450.39 Q2298.74 1450.39 2301.79 1455 Q2304.87 1459.58 2304.87 1468.33 Q2304.87 1477.06 2301.79 1481.67 Q2298.74 1486.25 2292.93 1486.25 Q2287.12 1486.25 2284.04 1481.67 Q2280.98 1477.06 2280.98 1468.33 Q2280.98 1459.58 2284.04 1455 Q2287.12 1450.39 2292.93 1450.39 Z" fill="#000000" fill-rule="nonzero" fill-opacity="1" /><path clip-path="url(#clip520)" d="M2323.09 1454.1 Q2319.48 1454.1 2317.65 1457.66 Q2315.85 1461.2 2315.85 1468.33 Q2315.85 1475.44 2317.65 1479.01 Q2319.48 1482.55 2323.09 1482.55 Q2326.73 1482.55 2328.53 1479.01 Q2330.36 1475.44 2330.36 1468.33 Q2330.36 1461.2 2328.53 1457.66 Q2326.73 1454.1 2323.09 1454.1 M2323.09 1450.39 Q2328.9 1450.39 2331.96 1455 Q2335.04 1459.58 2335.04 1468.33 Q2335.04 1477.06 2331.96 1481.67 Q2328.9 1486.25 2323.09 1486.25 Q2317.28 1486.25 2314.2 1481.67 Q2311.15 1477.06 2311.15 1468.33 Q2311.15 1459.58 2314.2 1455 Q2317.28 1450.39 2323.09 1450.39 Z" fill="#000000" fill-rule="nonzero" fill-opacity="1" /><path clip-path="url(#clip520)" d="M1301 1524.09 L1317.45 1568.04 L1311.25 1568.04 L1301.25 1541.69 L1288.97 1568.04 L1282.76 1568.04 L1298.39 1533.86 L1296.03 1527.56 Q1294.54 1523.55 1291.13 1523.55 L1288.08 1523.55 L1288.08 1518.52 L1291.8 1518.58 Q1298.99 1518.68 1301 1524.09 Z" fill="#000000" fill-rule="nonzero" fill-opacity="1" /><polyline clip-path="url(#clip520)" style="stroke:#000000; stroke-linecap:round; stroke-linejoin:round; stroke-width:4; stroke-opacity:1; fill:none" points="247.459,1423.18 247.459,123.472 "/>
<polyline clip-path="url(#clip520)" style="stroke:#000000; stroke-linecap:round; stroke-linejoin:round; stroke-width:4; stroke-opacity:1; fill:none" points="247.459,1231.01 266.356,1231.01 "/>
<polyline clip-path="url(#clip520)" style="stroke:#000000; stroke-linecap:round; stroke-linejoin:round; stroke-width:4; stroke-opacity:1; fill:none" points="247.459,942.012 266.356,942.012 "/>
<polyline clip-path="url(#clip520)" style="stroke:#000000; stroke-linecap:round; stroke-linejoin:round; stroke-width:4; stroke-opacity:1; fill:none" points="247.459,653.017 266.356,653.017 "/>
<polyline clip-path="url(#clip520)" style="stroke:#000000; stroke-linecap:round; stroke-linejoin:round; stroke-width:4; stroke-opacity:1; fill:none" points="247.459,364.022 266.356,364.022 "/>
<path clip-path="url(#clip520)" d="M155.278 1231.87 Q151.945 1231.87 150.024 1233.66 Q148.126 1235.44 148.126 1238.56 Q148.126 1241.69 150.024 1243.47 Q151.945 1245.25 155.278 1245.25 Q158.612 1245.25 160.533 1243.47 Q162.454 1241.67 162.454 1238.56 Q162.454 1235.44 160.533 1233.66 Q158.635 1231.87 155.278 1231.87 M150.603 1229.88 Q147.593 1229.14 145.904 1227.08 Q144.237 1225.02 144.237 1222.06 Q144.237 1217.92 147.177 1215.51 Q150.14 1213.1 155.278 1213.1 Q160.44 1213.1 163.38 1215.51 Q166.32 1217.92 166.32 1222.06 Q166.32 1225.02 164.63 1227.08 Q162.964 1229.14 159.978 1229.88 Q163.357 1230.67 165.232 1232.96 Q167.13 1235.25 167.13 1238.56 Q167.13 1243.59 164.052 1246.27 Q160.996 1248.96 155.278 1248.96 Q149.561 1248.96 146.482 1246.27 Q143.427 1243.59 143.427 1238.56 Q143.427 1235.25 145.325 1232.96 Q147.223 1230.67 150.603 1229.88 M148.89 1222.5 Q148.89 1225.18 150.556 1226.69 Q152.246 1228.19 155.278 1228.19 Q158.288 1228.19 159.978 1226.69 Q161.69 1225.18 161.69 1222.5 Q161.69 1219.81 159.978 1218.31 Q158.288 1216.81 155.278 1216.81 Q152.246 1216.81 150.556 1218.31 Q148.89 1219.81 148.89 1222.5 Z" fill="#000000" fill-rule="nonzero" fill-opacity="1" /><path clip-path="url(#clip520)" d="M175.44 1242.41 L180.325 1242.41 L180.325 1248.29 L175.44 1248.29 L175.44 1242.41 Z" fill="#000000" fill-rule="nonzero" fill-opacity="1" /><path clip-path="url(#clip520)" d="M190.556 1213.73 L208.912 1213.73 L208.912 1217.66 L194.838 1217.66 L194.838 1226.13 Q195.857 1225.79 196.875 1225.62 Q197.894 1225.44 198.912 1225.44 Q204.699 1225.44 208.079 1228.61 Q211.459 1231.78 211.459 1237.2 Q211.459 1242.78 207.987 1245.88 Q204.514 1248.96 198.195 1248.96 Q196.019 1248.96 193.75 1248.59 Q191.505 1248.22 189.098 1247.48 L189.098 1242.78 Q191.181 1243.91 193.403 1244.47 Q195.625 1245.02 198.102 1245.02 Q202.107 1245.02 204.445 1242.92 Q206.783 1240.81 206.783 1237.2 Q206.783 1233.59 204.445 1231.48 Q202.107 1229.37 198.102 1229.37 Q196.227 1229.37 194.352 1229.79 Q192.5 1230.21 190.556 1231.09 L190.556 1213.73 Z" fill="#000000" fill-rule="nonzero" fill-opacity="1" /><path clip-path="url(#clip520)" d="M144.422 958.574 L144.422 954.315 Q146.181 955.148 147.987 955.588 Q149.792 956.028 151.528 956.028 Q156.158 956.028 158.589 952.926 Q161.042 949.801 161.39 943.459 Q160.047 945.449 157.987 946.514 Q155.927 947.579 153.427 947.579 Q148.241 947.579 145.209 944.454 Q142.2 941.306 142.2 935.866 Q142.2 930.542 145.348 927.324 Q148.496 924.107 153.728 924.107 Q159.723 924.107 162.871 928.713 Q166.042 933.297 166.042 942.047 Q166.042 950.218 162.153 955.102 Q158.288 959.963 151.737 959.963 Q149.978 959.963 148.172 959.616 Q146.366 959.269 144.422 958.574 M153.728 943.922 Q156.876 943.922 158.704 941.769 Q160.556 939.616 160.556 935.866 Q160.556 932.139 158.704 929.986 Q156.876 927.811 153.728 927.811 Q150.579 927.811 148.728 929.986 Q146.899 932.139 146.899 935.866 Q146.899 939.616 148.728 941.769 Q150.579 943.922 153.728 943.922 Z" fill="#000000" fill-rule="nonzero" fill-opacity="1" /><path clip-path="url(#clip520)" d="M174.445 953.412 L179.329 953.412 L179.329 959.292 L174.445 959.292 L174.445 953.412 Z" fill="#000000" fill-rule="nonzero" fill-opacity="1" /><path clip-path="url(#clip520)" d="M199.514 927.811 Q195.903 927.811 194.075 931.375 Q192.269 934.917 192.269 942.047 Q192.269 949.153 194.075 952.718 Q195.903 956.259 199.514 956.259 Q203.149 956.259 204.954 952.718 Q206.783 949.153 206.783 942.047 Q206.783 934.917 204.954 931.375 Q203.149 927.811 199.514 927.811 M199.514 924.107 Q205.324 924.107 208.38 928.713 Q211.459 933.297 211.459 942.047 Q211.459 950.773 208.38 955.38 Q205.324 959.963 199.514 959.963 Q193.704 959.963 190.625 955.38 Q187.57 950.773 187.57 942.047 Q187.57 933.297 190.625 928.713 Q193.704 924.107 199.514 924.107 Z" fill="#000000" fill-rule="nonzero" fill-opacity="1" /><path clip-path="url(#clip520)" d="M145.417 669.579 L145.417 665.32 Q147.177 666.154 148.982 666.593 Q150.788 667.033 152.524 667.033 Q157.153 667.033 159.584 663.931 Q162.038 660.806 162.385 654.464 Q161.042 656.455 158.982 657.519 Q156.922 658.584 154.422 658.584 Q149.237 658.584 146.204 655.459 Q143.195 652.311 143.195 646.871 Q143.195 641.547 146.343 638.33 Q149.491 635.112 154.723 635.112 Q160.718 635.112 163.866 639.719 Q167.038 644.302 167.038 653.052 Q167.038 661.223 163.149 666.107 Q159.283 670.968 152.732 670.968 Q150.973 670.968 149.167 670.621 Q147.362 670.274 145.417 669.579 M154.723 654.927 Q157.871 654.927 159.7 652.774 Q161.552 650.621 161.552 646.871 Q161.552 643.144 159.7 640.992 Q157.871 638.816 154.723 638.816 Q151.575 638.816 149.723 640.992 Q147.894 643.144 147.894 646.871 Q147.894 650.621 149.723 652.774 Q151.575 654.927 154.723 654.927 Z" fill="#000000" fill-rule="nonzero" fill-opacity="1" /><path clip-path="url(#clip520)" d="M175.44 664.417 L180.325 664.417 L180.325 670.297 L175.44 670.297 L175.44 664.417 Z" fill="#000000" fill-rule="nonzero" fill-opacity="1" /><path clip-path="url(#clip520)" d="M190.556 635.737 L208.912 635.737 L208.912 639.672 L194.838 639.672 L194.838 648.144 Q195.857 647.797 196.875 647.635 Q197.894 647.45 198.912 647.45 Q204.699 647.45 208.079 650.621 Q211.459 653.793 211.459 659.209 Q211.459 664.788 207.987 667.89 Q204.514 670.968 198.195 670.968 Q196.019 670.968 193.75 670.598 Q191.505 670.228 189.098 669.487 L189.098 664.788 Q191.181 665.922 193.403 666.478 Q195.625 667.033 198.102 667.033 Q202.107 667.033 204.445 664.927 Q206.783 662.82 206.783 659.209 Q206.783 655.598 204.445 653.492 Q202.107 651.385 198.102 651.385 Q196.227 651.385 194.352 651.802 Q192.5 652.218 190.556 653.098 L190.556 635.737 Z" fill="#000000" fill-rule="nonzero" fill-opacity="1" /><path clip-path="url(#clip520)" d="M114.931 377.367 L122.57 377.367 L122.57 351.002 L114.26 352.668 L114.26 348.409 L122.524 346.742 L127.2 346.742 L127.2 377.367 L134.839 377.367 L134.839 381.302 L114.931 381.302 L114.931 377.367 Z" fill="#000000" fill-rule="nonzero" fill-opacity="1" /><path clip-path="url(#clip520)" d="M154.283 349.821 Q150.672 349.821 148.843 353.386 Q147.038 356.927 147.038 364.057 Q147.038 371.163 148.843 374.728 Q150.672 378.27 154.283 378.27 Q157.917 378.27 159.723 374.728 Q161.552 371.163 161.552 364.057 Q161.552 356.927 159.723 353.386 Q157.917 349.821 154.283 349.821 M154.283 346.117 Q160.093 346.117 163.149 350.724 Q166.227 355.307 166.227 364.057 Q166.227 372.784 163.149 377.39 Q160.093 381.974 154.283 381.974 Q148.473 381.974 145.394 377.39 Q142.339 372.784 142.339 364.057 Q142.339 355.307 145.394 350.724 Q148.473 346.117 154.283 346.117 Z" fill="#000000" fill-rule="nonzero" fill-opacity="1" /><path clip-path="url(#clip520)" d="M174.445 375.423 L179.329 375.423 L179.329 381.302 L174.445 381.302 L174.445 375.423 Z" fill="#000000" fill-rule="nonzero" fill-opacity="1" /><path clip-path="url(#clip520)" d="M199.514 349.821 Q195.903 349.821 194.075 353.386 Q192.269 356.927 192.269 364.057 Q192.269 371.163 194.075 374.728 Q195.903 378.27 199.514 378.27 Q203.149 378.27 204.954 374.728 Q206.783 371.163 206.783 364.057 Q206.783 356.927 204.954 353.386 Q203.149 349.821 199.514 349.821 M199.514 346.117 Q205.324 346.117 208.38 350.724 Q211.459 355.307 211.459 364.057 Q211.459 372.784 208.38 377.39 Q205.324 381.974 199.514 381.974 Q193.704 381.974 190.625 377.39 Q187.57 372.784 187.57 364.057 Q187.57 355.307 190.625 350.724 Q193.704 346.117 199.514 346.117 Z" fill="#000000" fill-rule="nonzero" fill-opacity="1" /><path clip-path="url(#clip520)" d="M16.4842 1061.85 L16.4842 1055.39 L45.3526 1055.39 Q52.9915 1055.39 56.3653 1052.62 Q59.7073 1049.85 59.7073 1043.65 Q59.7073 1037.47 56.3653 1034.7 Q52.9915 1031.93 45.3526 1031.93 L16.4842 1031.93 L16.4842 1025.47 L46.1484 1025.47 Q55.4423 1025.47 60.1847 1030.09 Q64.9272 1034.67 64.9272 1043.65 Q64.9272 1052.65 60.1847 1057.27 Q55.4423 1061.85 46.1484 1061.85 L16.4842 1061.85 Z" fill="#000000" fill-rule="nonzero" fill-opacity="1" /><path clip-path="url(#clip520)" d="M58.657 1008 L77.5631 1008 L77.5631 1013.89 L28.3562 1013.89 L28.3562 1008 L33.7671 1008 Q30.5842 1006.15 29.0564 1003.35 Q27.4968 1000.52 27.4968 996.603 Q27.4968 990.11 32.6531 986.068 Q37.8093 981.994 46.212 981.994 Q54.6147 981.994 59.771 986.068 Q64.9272 990.11 64.9272 996.603 Q64.9272 1000.52 63.3994 1003.35 Q61.8398 1006.15 58.657 1008 M46.212 988.073 Q39.7508 988.073 36.0905 990.747 Q32.3984 993.388 32.3984 998.035 Q32.3984 1002.68 36.0905 1005.36 Q39.7508 1008 46.212 1008 Q52.6732 1008 56.3653 1005.36 Q60.0256 1002.68 60.0256 998.035 Q60.0256 993.388 56.3653 990.747 Q52.6732 988.073 46.212 988.073 Z" fill="#000000" fill-rule="nonzero" fill-opacity="1" /><path clip-path="url(#clip520)" d="M58.657 966.621 L77.5631 966.621 L77.5631 972.509 L28.3562 972.509 L28.3562 966.621 L33.7671 966.621 Q30.5842 964.775 29.0564 961.974 Q27.4968 959.141 27.4968 955.226 Q27.4968 948.733 32.6531 944.691 Q37.8093 940.617 46.212 940.617 Q54.6147 940.617 59.771 944.691 Q64.9272 948.733 64.9272 955.226 Q64.9272 959.141 63.3994 961.974 Q61.8398 964.775 58.657 966.621 M46.212 946.696 Q39.7508 946.696 36.0905 949.37 Q32.3984 952.011 32.3984 956.658 Q32.3984 961.305 36.0905 963.979 Q39.7508 966.621 46.212 966.621 Q52.6732 966.621 56.3653 963.979 Q60.0256 961.305 60.0256 956.658 Q60.0256 952.011 56.3653 949.37 Q52.6732 946.696 46.212 946.696 Z" fill="#000000" fill-rule="nonzero" fill-opacity="1" /><path clip-path="url(#clip520)" d="M44.7161 900.417 L47.5806 900.417 L47.5806 927.344 Q53.6281 926.962 56.8109 923.716 Q59.9619 920.437 59.9619 914.613 Q59.9619 911.239 59.1344 908.088 Q58.3069 904.905 56.6518 901.786 L62.1899 901.786 Q63.5267 904.937 64.227 908.247 Q64.9272 911.557 64.9272 914.963 Q64.9272 923.493 59.9619 928.49 Q54.9967 933.455 46.5303 933.455 Q37.7774 933.455 32.6531 928.745 Q27.4968 924.002 27.4968 915.981 Q27.4968 908.788 32.1438 904.619 Q36.7589 900.417 44.7161 900.417 M42.9973 906.274 Q38.1912 906.337 35.3266 908.979 Q32.4621 911.589 32.4621 915.918 Q32.4621 920.819 35.2312 923.779 Q38.0002 926.708 43.0292 927.153 L42.9973 906.274 Z" fill="#000000" fill-rule="nonzero" fill-opacity="1" /><path clip-path="url(#clip520)" d="M33.8307 870.148 Q33.2578 871.135 33.0032 872.313 Q32.7167 873.459 32.7167 874.859 Q32.7167 879.824 35.9632 882.498 Q39.1779 885.14 45.2253 885.14 L64.0042 885.14 L64.0042 891.028 L28.3562 891.028 L28.3562 885.14 L33.8944 885.14 Q30.6479 883.294 29.0883 880.334 Q27.4968 877.373 27.4968 873.14 Q27.4968 872.536 27.5923 871.803 Q27.656 871.071 27.8151 870.18 L33.8307 870.148 Z" fill="#000000" fill-rule="nonzero" fill-opacity="1" /><path clip-path="url(#clip520)" d="M41.3104 836.601 L58.7206 836.601 L58.7206 826.289 Q58.7206 821.101 56.5881 818.618 Q54.4238 816.104 49.9996 816.104 Q45.5436 816.104 43.4429 818.618 Q41.3104 821.101 41.3104 826.289 L41.3104 836.601 M21.7677 836.601 L36.0905 836.601 L36.0905 827.084 Q36.0905 822.374 34.34 820.082 Q32.5576 817.759 28.9291 817.759 Q25.3325 817.759 23.5501 820.082 Q21.7677 822.374 21.7677 827.084 L21.7677 836.601 M16.4842 843.03 L16.4842 826.607 Q16.4842 819.255 19.5397 815.276 Q22.5952 811.297 28.2289 811.297 Q32.5894 811.297 35.1675 813.334 Q37.7456 815.371 38.3822 819.318 Q39.4007 814.576 42.6472 811.966 Q45.8619 809.324 50.6998 809.324 Q57.0655 809.324 60.5348 813.653 Q64.0042 817.981 64.0042 825.97 L64.0042 843.03 L16.4842 843.03 Z" fill="#000000" fill-rule="nonzero" fill-opacity="1" /><path clip-path="url(#clip520)" d="M32.4621 784.752 Q32.4621 789.463 36.1542 792.2 Q39.8145 794.938 46.212 794.938 Q52.6095 794.938 56.3017 792.232 Q59.9619 789.495 59.9619 784.752 Q59.9619 780.074 56.2698 777.336 Q52.5777 774.599 46.212 774.599 Q39.8781 774.599 36.186 777.336 Q32.4621 780.074 32.4621 784.752 M27.4968 784.752 Q27.4968 777.114 32.4621 772.753 Q37.4273 768.393 46.212 768.393 Q54.9649 768.393 59.9619 772.753 Q64.9272 777.114 64.9272 784.752 Q64.9272 792.423 59.9619 796.784 Q54.9649 801.112 46.212 801.112 Q37.4273 801.112 32.4621 796.784 Q27.4968 792.423 27.4968 784.752 Z" fill="#000000" fill-rule="nonzero" fill-opacity="1" /><path clip-path="url(#clip520)" d="M49.9359 759.29 L28.3562 759.29 L28.3562 753.433 L49.7131 753.433 Q54.7739 753.433 57.3202 751.46 Q59.8346 749.486 59.8346 745.54 Q59.8346 740.797 56.8109 738.06 Q53.7872 735.291 48.5673 735.291 L28.3562 735.291 L28.3562 729.434 L64.0042 729.434 L64.0042 735.291 L58.5296 735.291 Q61.7762 737.423 63.3676 740.256 Q64.9272 743.057 64.9272 746.781 Q64.9272 752.924 61.1078 756.107 Q57.2883 759.29 49.9359 759.29 M27.4968 744.553 L27.4968 744.553 Z" fill="#000000" fill-rule="nonzero" fill-opacity="1" /><path clip-path="url(#clip520)" d="M42.4881 687.739 L64.0042 687.739 L64.0042 693.596 L42.679 693.596 Q37.6183 693.596 35.1038 695.569 Q32.5894 697.542 32.5894 701.489 Q32.5894 706.231 35.6131 708.969 Q38.6368 711.706 43.8567 711.706 L64.0042 711.706 L64.0042 717.594 L28.3562 717.594 L28.3562 711.706 L33.8944 711.706 Q30.6797 709.605 29.0883 706.773 Q27.4968 703.908 27.4968 700.184 Q27.4968 694.041 31.3163 690.89 Q35.1038 687.739 42.4881 687.739 Z" fill="#000000" fill-rule="nonzero" fill-opacity="1" /><path clip-path="url(#clip520)" d="M33.7671 652.6 L14.479 652.6 L14.479 646.744 L64.0042 646.744 L64.0042 652.6 L58.657 652.6 Q61.8398 654.446 63.3994 657.279 Q64.9272 660.08 64.9272 664.027 Q64.9272 670.488 59.771 674.562 Q54.6147 678.604 46.212 678.604 Q37.8093 678.604 32.6531 674.562 Q27.4968 670.488 27.4968 664.027 Q27.4968 660.08 29.0564 657.279 Q30.5842 654.446 33.7671 652.6 M46.212 672.557 Q52.6732 672.557 56.3653 669.915 Q60.0256 667.241 60.0256 662.595 Q60.0256 657.948 56.3653 655.274 Q52.6732 652.6 46.212 652.6 Q39.7508 652.6 36.0905 655.274 Q32.3984 657.948 32.3984 662.595 Q32.3984 667.241 36.0905 669.915 Q39.7508 672.557 46.212 672.557 Z" fill="#000000" fill-rule="nonzero" fill-opacity="1" /><path clip-path="url(#clip520)" d="M32.4621 600.147 Q32.4621 604.858 36.1542 607.595 Q39.8145 610.332 46.212 610.332 Q52.6095 610.332 56.3017 607.627 Q59.9619 604.889 59.9619 600.147 Q59.9619 595.468 56.2698 592.731 Q52.5777 589.994 46.212 589.994 Q39.8781 589.994 36.186 592.731 Q32.4621 595.468 32.4621 600.147 M27.4968 600.147 Q27.4968 592.508 32.4621 588.148 Q37.4273 583.787 46.212 583.787 Q54.9649 583.787 59.9619 588.148 Q64.9272 592.508 64.9272 600.147 Q64.9272 607.818 59.9619 612.178 Q54.9649 616.507 46.212 616.507 Q37.4273 616.507 32.4621 612.178 Q27.4968 607.818 27.4968 600.147 Z" fill="#000000" fill-rule="nonzero" fill-opacity="1" /><path clip-path="url(#clip520)" d="M42.4881 544.447 L64.0042 544.447 L64.0042 550.303 L42.679 550.303 Q37.6183 550.303 35.1038 552.277 Q32.5894 554.25 32.5894 558.197 Q32.5894 562.939 35.6131 565.677 Q38.6368 568.414 43.8567 568.414 L64.0042 568.414 L64.0042 574.302 L28.3562 574.302 L28.3562 568.414 L33.8944 568.414 Q30.6797 566.313 29.0883 563.48 Q27.4968 560.616 27.4968 556.892 Q27.4968 550.749 31.3163 547.598 Q35.1038 544.447 42.4881 544.447 Z" fill="#000000" fill-rule="nonzero" fill-opacity="1" /><path clip-path="url(#clip520)" d="M57.5111 494.572 Q59.0389 493.426 59.0389 489.988 L59.0389 487.156 L64.0042 487.156 L64.0042 490.689 Q64.0042 496.418 60.9486 499.028 Q57.8294 501.638 51.0818 501.638 L34.2127 501.638 L34.2127 515.006 L28.3562 515.006 L28.3562 482.127 L34.2127 482.127 L34.2127 495.654 L51.4319 495.654 Q56.047 495.654 57.5111 494.572 Z" fill="#000000" fill-rule="nonzero" fill-opacity="1" /><path clip-path="url(#clip520)" d="M20.3991 495.431 L18.6485 497.245 Q18.0119 497.946 17.7255 498.455 Q17.4072 498.996 17.4072 499.41 Q17.4072 500.619 18.5848 501.192 Q19.7307 501.765 22.3406 501.829 L22.3406 505.807 Q18.0438 505.744 15.7203 504.12 Q13.365 502.497 13.365 499.601 Q13.365 498.391 13.8106 497.373 Q14.2562 496.354 15.3065 495.176 L17.0571 493.362 Q17.6936 492.662 18.0119 492.121 Q18.2984 491.612 18.2984 491.198 Q18.2984 489.988 17.1526 489.415 Q15.9749 488.843 13.365 488.779 L13.365 484.8 Q17.6618 484.864 20.0171 486.487 Q22.3406 488.11 22.3406 491.007 Q22.3406 492.216 21.895 493.235 Q21.4494 494.253 20.3991 495.431 Z" fill="#000000" fill-rule="nonzero" fill-opacity="1" /><path clip-path="url(#clip520)" d="M800.975 12.096 L809.198 12.096 L809.198 48.8377 Q809.198 58.5599 812.723 62.8538 Q816.247 67.1073 824.146 67.1073 Q832.005 67.1073 835.529 62.8538 Q839.054 58.5599 839.054 48.8377 L839.054 12.096 L847.277 12.096 L847.277 49.8504 Q847.277 61.6791 841.403 67.7149 Q835.57 73.7508 824.146 73.7508 Q812.682 73.7508 806.808 67.7149 Q800.975 61.6791 800.975 49.8504 L800.975 12.096 Z" fill="#000000" fill-rule="nonzero" fill-opacity="1" /><path clip-path="url(#clip520)" d="M869.516 65.7705 L869.516 89.8329 L862.022 89.8329 L862.022 27.2059 L869.516 27.2059 L869.516 34.0924 Q871.866 30.0415 875.431 28.0971 Q879.036 26.1121 884.019 26.1121 Q892.283 26.1121 897.427 32.6746 Q902.612 39.2371 902.612 49.9314 Q902.612 60.6258 897.427 67.1883 Q892.283 73.7508 884.019 73.7508 Q879.036 73.7508 875.431 71.8063 Q871.866 69.8214 869.516 65.7705 M894.875 49.9314 Q894.875 41.7081 891.472 37.0496 Q888.11 32.3505 882.196 32.3505 Q876.281 32.3505 872.879 37.0496 Q869.516 41.7081 869.516 49.9314 Q869.516 58.1548 872.879 62.8538 Q876.281 67.5124 882.196 67.5124 Q888.11 67.5124 891.472 62.8538 Q894.875 58.1548 894.875 49.9314 Z" fill="#000000" fill-rule="nonzero" fill-opacity="1" /><path clip-path="url(#clip520)" d="M922.178 65.7705 L922.178 89.8329 L914.684 89.8329 L914.684 27.2059 L922.178 27.2059 L922.178 34.0924 Q924.528 30.0415 928.093 28.0971 Q931.698 26.1121 936.68 26.1121 Q944.944 26.1121 950.089 32.6746 Q955.274 39.2371 955.274 49.9314 Q955.274 60.6258 950.089 67.1883 Q944.944 73.7508 936.68 73.7508 Q931.698 73.7508 928.093 71.8063 Q924.528 69.8214 922.178 65.7705 M947.537 49.9314 Q947.537 41.7081 944.134 37.0496 Q940.772 32.3505 934.858 32.3505 Q928.943 32.3505 925.54 37.0496 Q922.178 41.7081 922.178 49.9314 Q922.178 58.1548 925.54 62.8538 Q928.943 67.5124 934.858 67.5124 Q940.772 67.5124 944.134 62.8538 Q947.537 58.1548 947.537 49.9314 Z" fill="#000000" fill-rule="nonzero" fill-opacity="1" /><path clip-path="url(#clip520)" d="M1006.44 48.0275 L1006.44 51.6733 L972.166 51.6733 Q972.652 59.3701 976.784 63.421 Q980.957 67.4314 988.37 67.4314 Q992.664 67.4314 996.674 66.3781 Q1000.73 65.3249 1004.7 63.2184 L1004.7 70.267 Q1000.68 71.9684 996.472 72.8596 Q992.259 73.7508 987.924 73.7508 Q977.068 73.7508 970.708 67.4314 Q964.389 61.1119 964.389 50.3365 Q964.389 39.1965 970.384 32.6746 Q976.42 26.1121 986.628 26.1121 Q995.783 26.1121 1001.09 32.0264 Q1006.44 37.9003 1006.44 48.0275 M998.983 45.84 Q998.902 39.7232 995.54 36.0774 Q992.218 32.4315 986.709 32.4315 Q980.471 32.4315 976.703 35.9558 Q972.977 39.4801 972.409 45.8805 L998.983 45.84 Z" fill="#000000" fill-rule="nonzero" fill-opacity="1" /><path clip-path="url(#clip520)" d="M1044.96 34.1734 Q1043.71 33.4443 1042.21 33.1202 Q1040.75 32.7556 1038.97 32.7556 Q1032.65 32.7556 1029.24 36.8875 Q1025.88 40.9789 1025.88 48.6757 L1025.88 72.576 L1018.39 72.576 L1018.39 27.2059 L1025.88 27.2059 L1025.88 34.2544 Q1028.23 30.1225 1032 28.1376 Q1035.77 26.1121 1041.15 26.1121 Q1041.92 26.1121 1042.85 26.2337 Q1043.79 26.3147 1044.92 26.5172 L1044.96 34.1734 Z" fill="#000000" fill-rule="nonzero" fill-opacity="1" /><path clip-path="url(#clip520)" d="M1087.66 43.6931 L1087.66 65.8515 L1100.78 65.8515 Q1107.39 65.8515 1110.55 63.1374 Q1113.75 60.3828 1113.75 54.752 Q1113.75 49.0808 1110.55 46.4072 Q1107.39 43.6931 1100.78 43.6931 L1087.66 43.6931 M1087.66 18.8205 L1087.66 37.0496 L1099.77 37.0496 Q1105.77 37.0496 1108.68 34.8216 Q1111.64 32.5531 1111.64 27.935 Q1111.64 23.3575 1108.68 21.089 Q1105.77 18.8205 1099.77 18.8205 L1087.66 18.8205 M1079.47 12.096 L1100.38 12.096 Q1109.74 12.096 1114.8 15.9849 Q1119.86 19.8737 1119.86 27.0438 Q1119.86 32.5936 1117.27 35.8748 Q1114.68 39.156 1109.65 39.9662 Q1115.69 41.2625 1119.01 45.3944 Q1122.37 49.4858 1122.37 55.6432 Q1122.37 63.745 1116.86 68.1605 Q1111.36 72.576 1101.19 72.576 L1079.47 72.576 L1079.47 12.096 Z" fill="#000000" fill-rule="nonzero" fill-opacity="1" /><path clip-path="url(#clip520)" d="M1153.65 32.4315 Q1147.65 32.4315 1144.17 37.1306 Q1140.68 41.7891 1140.68 49.9314 Q1140.68 58.0738 1144.13 62.7728 Q1147.61 67.4314 1153.65 67.4314 Q1159.6 67.4314 1163.09 62.7323 Q1166.57 58.0333 1166.57 49.9314 Q1166.57 41.8701 1163.09 37.1711 Q1159.6 32.4315 1153.65 32.4315 M1153.65 26.1121 Q1163.37 26.1121 1168.92 32.4315 Q1174.47 38.7509 1174.47 49.9314 Q1174.47 61.0714 1168.92 67.4314 Q1163.37 73.7508 1153.65 73.7508 Q1143.88 73.7508 1138.33 67.4314 Q1132.83 61.0714 1132.83 49.9314 Q1132.83 38.7509 1138.33 32.4315 Q1143.88 26.1121 1153.65 26.1121 Z" fill="#000000" fill-rule="nonzero" fill-opacity="1" /><path clip-path="url(#clip520)" d="M1186.05 54.671 L1186.05 27.2059 L1193.51 27.2059 L1193.51 54.3874 Q1193.51 60.8284 1196.02 64.0691 Q1198.53 67.2693 1203.55 67.2693 Q1209.59 67.2693 1213.07 63.421 Q1216.6 59.5726 1216.6 52.9291 L1216.6 27.2059 L1224.05 27.2059 L1224.05 72.576 L1216.6 72.576 L1216.6 65.6084 Q1213.88 69.7404 1210.28 71.7658 Q1206.71 73.7508 1201.97 73.7508 Q1194.16 73.7508 1190.11 68.8897 Q1186.05 64.0286 1186.05 54.671 M1204.81 26.1121 L1204.81 26.1121 Z" fill="#000000" fill-rule="nonzero" fill-opacity="1" /><path clip-path="url(#clip520)" d="M1277.12 45.1919 L1277.12 72.576 L1269.66 72.576 L1269.66 45.4349 Q1269.66 38.994 1267.15 35.7938 Q1264.64 32.5936 1259.62 32.5936 Q1253.58 32.5936 1250.1 36.4419 Q1246.62 40.2903 1246.62 46.9338 L1246.62 72.576 L1239.12 72.576 L1239.12 27.2059 L1246.62 27.2059 L1246.62 34.2544 Q1249.29 30.163 1252.89 28.1376 Q1256.54 26.1121 1261.28 26.1121 Q1269.1 26.1121 1273.11 30.9732 Q1277.12 35.7938 1277.12 45.1919 Z" fill="#000000" fill-rule="nonzero" fill-opacity="1" /><path clip-path="url(#clip520)" d="M1321.84 34.0924 L1321.84 9.54393 L1329.29 9.54393 L1329.29 72.576 L1321.84 72.576 L1321.84 65.7705 Q1319.49 69.8214 1315.89 71.8063 Q1312.32 73.7508 1307.3 73.7508 Q1299.07 73.7508 1293.89 67.1883 Q1288.74 60.6258 1288.74 49.9314 Q1288.74 39.2371 1293.89 32.6746 Q1299.07 26.1121 1307.3 26.1121 Q1312.32 26.1121 1315.89 28.0971 Q1319.49 30.0415 1321.84 34.0924 M1296.44 49.9314 Q1296.44 58.1548 1299.8 62.8538 Q1303.21 67.5124 1309.12 67.5124 Q1315.03 67.5124 1318.44 62.8538 Q1321.84 58.1548 1321.84 49.9314 Q1321.84 41.7081 1318.44 37.0496 Q1315.03 32.3505 1309.12 32.3505 Q1303.21 32.3505 1299.8 37.0496 Q1296.44 41.7081 1296.44 49.9314 Z" fill="#000000" fill-rule="nonzero" fill-opacity="1" /><path clip-path="url(#clip520)" d="M1388.6 32.4315 Q1382.6 32.4315 1379.12 37.1306 Q1375.64 41.7891 1375.64 49.9314 Q1375.64 58.0738 1379.08 62.7728 Q1382.56 67.4314 1388.6 67.4314 Q1394.55 67.4314 1398.04 62.7323 Q1401.52 58.0333 1401.52 49.9314 Q1401.52 41.8701 1398.04 37.1711 Q1394.55 32.4315 1388.6 32.4315 M1388.6 26.1121 Q1398.32 26.1121 1403.87 32.4315 Q1409.42 38.7509 1409.42 49.9314 Q1409.42 61.0714 1403.87 67.4314 Q1398.32 73.7508 1388.6 73.7508 Q1378.84 73.7508 1373.29 67.4314 Q1367.78 61.0714 1367.78 49.9314 Q1367.78 38.7509 1373.29 32.4315 Q1378.84 26.1121 1388.6 26.1121 Z" fill="#000000" fill-rule="nonzero" fill-opacity="1" /><path clip-path="url(#clip520)" d="M1459.49 45.1919 L1459.49 72.576 L1452.04 72.576 L1452.04 45.4349 Q1452.04 38.994 1449.52 35.7938 Q1447.01 32.5936 1441.99 32.5936 Q1435.95 32.5936 1432.47 36.4419 Q1428.99 40.2903 1428.99 46.9338 L1428.99 72.576 L1421.49 72.576 L1421.49 27.2059 L1428.99 27.2059 L1428.99 34.2544 Q1431.66 30.163 1435.27 28.1376 Q1438.91 26.1121 1443.65 26.1121 Q1451.47 26.1121 1455.48 30.9732 Q1459.49 35.7938 1459.49 45.1919 Z" fill="#000000" fill-rule="nonzero" fill-opacity="1" /><path clip-path="url(#clip520)" d="M1522.97 64.3122 Q1524.43 66.2566 1528.8 66.2566 L1532.41 66.2566 L1532.41 72.576 L1527.91 72.576 Q1520.62 72.576 1517.3 68.6871 Q1513.97 64.7172 1513.97 56.1293 L1513.97 34.6595 L1496.96 34.6595 L1496.96 27.2059 L1538.81 27.2059 L1538.81 34.6595 L1521.59 34.6595 L1521.59 56.5749 Q1521.59 62.4487 1522.97 64.3122 Z" fill="#000000" fill-rule="nonzero" fill-opacity="1" /><path clip-path="url(#clip520)" d="M1521.87 17.0786 L1519.57 14.8506 Q1518.67 14.0404 1518.03 13.6759 Q1517.34 13.2708 1516.81 13.2708 Q1515.27 13.2708 1514.54 14.7696 Q1513.81 16.2279 1513.73 19.5497 L1508.67 19.5497 Q1508.75 14.0809 1510.82 11.1238 Q1512.88 8.12611 1516.57 8.12611 Q1518.11 8.12611 1519.4 8.69324 Q1520.7 9.26037 1522.2 10.5972 L1524.51 12.8252 Q1525.4 13.6353 1526.09 14.0404 Q1526.74 14.405 1527.26 14.405 Q1528.8 14.405 1529.53 12.9467 Q1530.26 11.4479 1530.34 8.12611 L1535.4 8.12611 Q1535.32 13.5948 1533.26 16.5925 Q1531.19 19.5497 1527.5 19.5497 Q1525.97 19.5497 1524.67 18.9825 Q1523.37 18.4154 1521.87 17.0786 Z" fill="#000000" fill-rule="nonzero" fill-opacity="1" /><path clip-path="url(#clip520)" d="M1578.95 62.2867 L1587.5 62.2867 L1587.5 69.2543 L1580.86 82.2172 L1575.63 82.2172 L1578.95 69.2543 L1578.95 62.2867 Z" fill="#000000" fill-rule="nonzero" fill-opacity="1" /><path clip-path="url(#clip520)" d="M1630.11 12.096 L1641.13 12.096 L1667.95 62.6918 L1667.95 12.096 L1675.89 12.096 L1675.89 72.576 L1664.87 72.576 L1638.05 21.9802 L1638.05 72.576 L1630.11 72.576 L1630.11 12.096 Z" fill="#000000" fill-rule="nonzero" fill-opacity="1" /><path clip-path="url(#clip520)" d="M1692.82 34.9026 L1744.75 34.9026 L1744.75 41.7081 L1692.82 41.7081 L1692.82 34.9026 M1692.82 51.4303 L1744.75 51.4303 L1744.75 58.3168 L1692.82 58.3168 L1692.82 51.4303 Z" fill="#000000" fill-rule="nonzero" fill-opacity="1" /><path clip-path="url(#clip520)" d="M1760.35 12.096 L1799.24 12.096 L1799.24 15.5798 L1777.28 72.576 L1768.74 72.576 L1789.4 18.9825 L1760.35 18.9825 L1760.35 12.096 Z" fill="#000000" fill-rule="nonzero" fill-opacity="1" /><polyline clip-path="url(#clip522)" style="stroke:#009af9; stroke-linecap:round; stroke-linejoin:round; stroke-width:8; stroke-opacity:1; fill:none" points="307.043,1386.4 313.915,1358.14 320.787,1334.02 327.66,1311.77 341.405,1268.68 348.277,1247.74 355.15,1227.08 362.022,824.315 368.894,1190.17 375.767,788.574 382.639,772.286 389.512,756.778 396.384,742.298 403.256,728.769 410.129,716.124 417.001,704.301 423.874,693.202 430.746,682.37 437.619,671.693 444.491,661.164 451.363,650.778 458.236,640.529 478.853,610.715 492.598,592.981 499.47,1003.84 506.343,577.295 513.215,570.146 520.088,563.421 526.96,557.086 540.705,544.778 554.45,532.695 561.322,526.734 568.195,951.266 581.939,509.352 588.812,503.921 602.557,493.642 609.429,488.776 616.302,484.083 623.174,479.555 630.046,475.185 636.919,470.967 643.791,466.894 664.408,455.227 671.281,451.399 678.153,447.594 685.026,892.953 691.898,440.055 698.771,436.32 705.643,432.607 719.388,425.257 733.133,418.25 753.75,408.52 760.622,405.471 774.367,399.645 781.24,396.862 808.729,386.528 822.474,381.801 829.347,379.539 836.219,377.333 843.091,375.141 849.964,372.958 856.836,370.785 863.709,368.62 870.581,366.465 877.453,364.319 884.326,362.182 891.198,360.053 898.071,357.933 904.943,355.822 911.816,353.718 918.688,824.833 925.56,349.537 939.305,345.388 953.05,341.27 973.667,335.152 980.54,333.14 987.412,331.166 994.285,329.229 1001.16,327.33 1008.03,325.466 1014.9,323.637 1021.77,321.842 1028.65,320.08 1035.52,318.351 1042.39,316.654 1056.14,313.35 1063.01,311.743 1083.63,307.091 1090.5,305.595 1097.37,304.125 1104.24,302.68 1117.99,299.865 1124.86,298.494 1166.1,290.693 1172.97,289.427 1179.84,288.165 1193.58,285.649 1200.46,284.397 1221.07,280.658 1234.82,251.295 1248.56,249.166 1255.44,248.132 1262.31,247.116 1269.18,272.23 1276.05,245.132 1296.67,242.259 1303.54,241.327 1310.42,240.406 1317.29,239.496 1324.16,238.597 1331.03,237.708 1337.91,236.829 1344.78,235.959 1351.65,235.099 1365.4,233.405 1372.27,232.571 1379.14,231.745 1386.01,715.832 1392.88,230.118 1399.76,229.315 1406.63,228.52 1413.5,681.134 1420.37,226.952 1427.25,226.178 1434.12,225.411 1440.99,224.651 1454.74,223.149 1461.61,222.408 1468.48,221.673 1475.35,220.943 1482.23,220.22 1489.1,219.502 1495.97,218.79 1502.84,218.084 1509.72,217.382 1523.46,215.996 1530.33,215.311 1537.21,214.63 1544.08,213.955 1550.95,668.994 1557.82,212.619 1564.7,211.958 1578.44,210.651 1585.31,210.003 1592.19,209.361 1599.06,208.723 1605.93,208.089 1612.8,207.459 1619.67,206.834 1626.55,206.213 1633.42,205.596 1640.29,204.982 1647.16,204.373 1654.04,203.768 1667.78,202.569 1674.65,201.976 1681.53,201.386 1688.4,200.799 1695.27,656.548 1709.02,199.062 1715.89,198.49 1722.76,197.921 1729.63,197.356 1736.51,196.794 1743.38,196.236 1750.25,195.68 1757.12,195.128 1764,650.722 1770.87,194.034 1784.61,192.952 1791.49,192.416 1805.23,191.353 1812.1,190.826 1818.98,190.301 1825.85,189.78 1832.72,189.262 1853.34,187.724 1867.08,186.712 1873.95,186.211 1887.7,185.215 1894.57,184.722 1915.19,183.257 1922.06,182.774 1935.81,181.815 1942.68,181.339 1949.55,180.866 1956.42,180.395 1963.3,179.927 1970.17,179.461 1977.04,178.998 1983.91,178.536 1990.79,178.078 1997.66,177.621 2011.4,176.715 2025.15,175.819 2038.89,174.931 2045.76,174.491 2059.51,173.617 2066.38,173.183 2080.13,172.322 2100.74,171.046 2107.62,170.625 2135.11,183.175 2148.85,165.615 2162.6,167.334 2190.09,165.737 2196.96,165.343 2210.7,164.562 2217.58,613.725 2224.45,162.727 2231.32,163.404 2251.94,162.265 2258.81,161.89 2265.68,161.516 2272.55,161.145 2279.43,160.74 2286.3,160.498 2293.17,160.256 "/>
</svg>
