<?xml version="1.0" encoding="utf-8"?>
<svg xmlns="http://www.w3.org/2000/svg" xmlns:xlink="http://www.w3.org/1999/xlink" width="600" height="400" viewBox="0 0 2400 1600">
<defs>
  <clipPath id="clip450">
    <rect x="0" y="0" width="2400" height="1600"/>
  </clipPath>
</defs>
<path clip-path="url(#clip450)" d="M0 1600 L2400 1600 L2400 8.88178e-14 L0 8.88178e-14  Z" fill="#ffffff" fill-rule="evenodd" fill-opacity="1"/>
<defs>
  <clipPath id="clip451">
    <rect x="480" y="0" width="1681" height="1600"/>
  </clipPath>
</defs>
<path clip-path="url(#clip450)" d="M247.459 1423.18 L2352.76 1423.18 L2352.76 123.472 L247.459 123.472  Z" fill="#ffffff" fill-rule="evenodd" fill-opacity="1"/>
<defs>
  <clipPath id="clip452">
    <rect x="247" y="123" width="2106" height="1301"/>
  </clipPath>
</defs>
<polyline clip-path="url(#clip452)" style="stroke:#000000; stroke-linecap:round; stroke-linejoin:round; stroke-width:2; stroke-opacity:0.1; fill:none" points="575.067,1423.18 575.067,123.472 "/>
<polyline clip-path="url(#clip452)" style="stroke:#000000; stroke-linecap:round; stroke-linejoin:round; stroke-width:2; stroke-opacity:0.1; fill:none" points="918.688,1423.18 918.688,123.472 "/>
<polyline clip-path="url(#clip452)" style="stroke:#000000; stroke-linecap:round; stroke-linejoin:round; stroke-width:2; stroke-opacity:0.1; fill:none" points="1262.31,1423.18 1262.31,123.472 "/>
<polyline clip-path="url(#clip452)" style="stroke:#000000; stroke-linecap:round; stroke-linejoin:round; stroke-width:2; stroke-opacity:0.1; fill:none" points="1605.93,1423.18 1605.93,123.472 "/>
<polyline clip-path="url(#clip452)" style="stroke:#000000; stroke-linecap:round; stroke-linejoin:round; stroke-width:2; stroke-opacity:0.1; fill:none" points="1949.55,1423.18 1949.55,123.472 "/>
<polyline clip-path="url(#clip452)" style="stroke:#000000; stroke-linecap:round; stroke-linejoin:round; stroke-width:2; stroke-opacity:0.1; fill:none" points="2293.17,1423.18 2293.17,123.472 "/>
<polyline clip-path="url(#clip452)" style="stroke:#000000; stroke-linecap:round; stroke-linejoin:round; stroke-width:2; stroke-opacity:0.1; fill:none" points="247.459,1231.01 2352.76,1231.01 "/>
<polyline clip-path="url(#clip452)" style="stroke:#000000; stroke-linecap:round; stroke-linejoin:round; stroke-width:2; stroke-opacity:0.1; fill:none" points="247.459,942.012 2352.76,942.012 "/>
<polyline clip-path="url(#clip452)" style="stroke:#000000; stroke-linecap:round; stroke-linejoin:round; stroke-width:2; stroke-opacity:0.1; fill:none" points="247.459,653.017 2352.76,653.017 "/>
<polyline clip-path="url(#clip452)" style="stroke:#000000; stroke-linecap:round; stroke-linejoin:round; stroke-width:2; stroke-opacity:0.1; fill:none" points="247.459,364.022 2352.76,364.022 "/>
<polyline clip-path="url(#clip450)" style="stroke:#000000; stroke-linecap:round; stroke-linejoin:round; stroke-width:4; stroke-opacity:1; fill:none" points="247.459,1423.18 2352.76,1423.18 "/>
<polyline clip-path="url(#clip450)" style="stroke:#000000; stroke-linecap:round; stroke-linejoin:round; stroke-width:4; stroke-opacity:1; fill:none" points="575.067,1423.18 575.067,1404.28 "/>
<polyline clip-path="url(#clip450)" style="stroke:#000000; stroke-linecap:round; stroke-linejoin:round; stroke-width:4; stroke-opacity:1; fill:none" points="918.688,1423.18 918.688,1404.28 "/>
<polyline clip-path="url(#clip450)" style="stroke:#000000; stroke-linecap:round; stroke-linejoin:round; stroke-width:4; stroke-opacity:1; fill:none" points="1262.31,1423.18 1262.31,1404.28 "/>
<polyline clip-path="url(#clip450)" style="stroke:#000000; stroke-linecap:round; stroke-linejoin:round; stroke-width:4; stroke-opacity:1; fill:none" points="1605.93,1423.18 1605.93,1404.28 "/>
<polyline clip-path="url(#clip450)" style="stroke:#000000; stroke-linecap:round; stroke-linejoin:round; stroke-width:4; stroke-opacity:1; fill:none" points="1949.55,1423.18 1949.55,1404.28 "/>
<polyline clip-path="url(#clip450)" style="stroke:#000000; stroke-linecap:round; stroke-linejoin:round; stroke-width:4; stroke-opacity:1; fill:none" points="2293.17,1423.18 2293.17,1404.28 "/>
<path clip-path="url(#clip450)" d="M549.766 1451.02 L568.123 1451.02 L568.123 1454.96 L554.049 1454.96 L554.049 1463.43 Q555.067 1463.08 556.086 1462.92 Q557.104 1462.73 558.123 1462.73 Q563.91 1462.73 567.289 1465.9 Q570.669 1469.08 570.669 1474.49 Q570.669 1480.07 567.197 1483.17 Q563.724 1486.25 557.405 1486.25 Q555.229 1486.25 552.961 1485.88 Q550.715 1485.51 548.308 1484.77 L548.308 1480.07 Q550.391 1481.2 552.613 1481.76 Q554.836 1482.32 557.312 1482.32 Q561.317 1482.32 563.655 1480.21 Q565.993 1478.1 565.993 1474.49 Q565.993 1470.88 563.655 1468.77 Q561.317 1466.67 557.312 1466.67 Q555.437 1466.67 553.562 1467.08 Q551.711 1467.5 549.766 1468.38 L549.766 1451.02 Z" fill="#000000" fill-rule="nonzero" fill-opacity="1" /><path clip-path="url(#clip450)" d="M589.882 1454.1 Q586.271 1454.1 584.442 1457.66 Q582.636 1461.2 582.636 1468.33 Q582.636 1475.44 584.442 1479.01 Q586.271 1482.55 589.882 1482.55 Q593.516 1482.55 595.322 1479.01 Q597.15 1475.44 597.15 1468.33 Q597.15 1461.2 595.322 1457.66 Q593.516 1454.1 589.882 1454.1 M589.882 1450.39 Q595.692 1450.39 598.747 1455 Q601.826 1459.58 601.826 1468.33 Q601.826 1477.06 598.747 1481.67 Q595.692 1486.25 589.882 1486.25 Q584.072 1486.25 580.993 1481.67 Q577.937 1477.06 577.937 1468.33 Q577.937 1459.58 580.993 1455 Q584.072 1450.39 589.882 1450.39 Z" fill="#000000" fill-rule="nonzero" fill-opacity="1" /><path clip-path="url(#clip450)" d="M878.295 1481.64 L885.934 1481.64 L885.934 1455.28 L877.623 1456.95 L877.623 1452.69 L885.887 1451.02 L890.563 1451.02 L890.563 1481.64 L898.202 1481.64 L898.202 1485.58 L878.295 1485.58 L878.295 1481.64 Z" fill="#000000" fill-rule="nonzero" fill-opacity="1" /><path clip-path="url(#clip450)" d="M917.646 1454.1 Q914.035 1454.1 912.207 1457.66 Q910.401 1461.2 910.401 1468.33 Q910.401 1475.44 912.207 1479.01 Q914.035 1482.55 917.646 1482.55 Q921.281 1482.55 923.086 1479.01 Q924.915 1475.44 924.915 1468.33 Q924.915 1461.2 923.086 1457.66 Q921.281 1454.1 917.646 1454.1 M917.646 1450.39 Q923.456 1450.39 926.512 1455 Q929.591 1459.58 929.591 1468.33 Q929.591 1477.06 926.512 1481.67 Q923.456 1486.25 917.646 1486.25 Q911.836 1486.25 908.757 1481.67 Q905.702 1477.06 905.702 1468.33 Q905.702 1459.58 908.757 1455 Q911.836 1450.39 917.646 1450.39 Z" fill="#000000" fill-rule="nonzero" fill-opacity="1" /><path clip-path="url(#clip450)" d="M947.808 1454.1 Q944.197 1454.1 942.368 1457.66 Q940.563 1461.2 940.563 1468.33 Q940.563 1475.44 942.368 1479.01 Q944.197 1482.55 947.808 1482.55 Q951.442 1482.55 953.248 1479.01 Q955.077 1475.44 955.077 1468.33 Q955.077 1461.2 953.248 1457.66 Q951.442 1454.1 947.808 1454.1 M947.808 1450.39 Q953.618 1450.39 956.674 1455 Q959.753 1459.58 959.753 1468.33 Q959.753 1477.06 956.674 1481.67 Q953.618 1486.25 947.808 1486.25 Q941.998 1486.25 938.919 1481.67 Q935.864 1477.06 935.864 1468.33 Q935.864 1459.58 938.919 1455 Q941.998 1450.39 947.808 1450.39 Z" fill="#000000" fill-rule="nonzero" fill-opacity="1" /><path clip-path="url(#clip450)" d="M1221.92 1481.64 L1229.55 1481.64 L1229.55 1455.28 L1221.24 1456.95 L1221.24 1452.69 L1229.51 1451.02 L1234.18 1451.02 L1234.18 1481.64 L1241.82 1481.64 L1241.82 1485.58 L1221.92 1485.58 L1221.92 1481.64 Z" fill="#000000" fill-rule="nonzero" fill-opacity="1" /><path clip-path="url(#clip450)" d="M1251.31 1451.02 L1269.67 1451.02 L1269.67 1454.96 L1255.6 1454.96 L1255.6 1463.43 Q1256.61 1463.08 1257.63 1462.92 Q1258.65 1462.73 1259.67 1462.73 Q1265.46 1462.73 1268.84 1465.9 Q1272.22 1469.08 1272.22 1474.49 Q1272.22 1480.07 1268.74 1483.17 Q1265.27 1486.25 1258.95 1486.25 Q1256.78 1486.25 1254.51 1485.88 Q1252.26 1485.51 1249.86 1484.77 L1249.86 1480.07 Q1251.94 1481.2 1254.16 1481.76 Q1256.38 1482.32 1258.86 1482.32 Q1262.86 1482.32 1265.2 1480.21 Q1267.54 1478.1 1267.54 1474.49 Q1267.54 1470.88 1265.2 1468.77 Q1262.86 1466.67 1258.86 1466.67 Q1256.98 1466.67 1255.11 1467.08 Q1253.26 1467.5 1251.31 1468.38 L1251.31 1451.02 Z" fill="#000000" fill-rule="nonzero" fill-opacity="1" /><path clip-path="url(#clip450)" d="M1291.43 1454.1 Q1287.82 1454.1 1285.99 1457.66 Q1284.18 1461.2 1284.18 1468.33 Q1284.18 1475.44 1285.99 1479.01 Q1287.82 1482.55 1291.43 1482.55 Q1295.06 1482.55 1296.87 1479.01 Q1298.7 1475.44 1298.7 1468.33 Q1298.7 1461.2 1296.87 1457.66 Q1295.06 1454.1 1291.43 1454.1 M1291.43 1450.39 Q1297.24 1450.39 1300.29 1455 Q1303.37 1459.58 1303.37 1468.33 Q1303.37 1477.06 1300.29 1481.67 Q1297.24 1486.25 1291.43 1486.25 Q1285.62 1486.25 1282.54 1481.67 Q1279.48 1477.06 1279.48 1468.33 Q1279.48 1459.58 1282.54 1455 Q1285.62 1450.39 1291.43 1450.39 Z" fill="#000000" fill-rule="nonzero" fill-opacity="1" /><path clip-path="url(#clip450)" d="M1569.62 1481.64 L1585.94 1481.64 L1585.94 1485.58 L1564 1485.58 L1564 1481.64 Q1566.66 1478.89 1571.24 1474.26 Q1575.85 1469.61 1577.03 1468.27 Q1579.28 1465.74 1580.15 1464.01 Q1581.06 1462.25 1581.06 1460.56 Q1581.06 1457.8 1579.11 1456.07 Q1577.19 1454.33 1574.09 1454.33 Q1571.89 1454.33 1569.44 1455.09 Q1567.01 1455.86 1564.23 1457.41 L1564.23 1452.69 Q1567.05 1451.55 1569.51 1450.97 Q1571.96 1450.39 1574 1450.39 Q1579.37 1450.39 1582.56 1453.08 Q1585.76 1455.77 1585.76 1460.26 Q1585.76 1462.39 1584.95 1464.31 Q1584.16 1466.2 1582.05 1468.8 Q1581.47 1469.47 1578.37 1472.69 Q1575.27 1475.88 1569.62 1481.64 Z" fill="#000000" fill-rule="nonzero" fill-opacity="1" /><path clip-path="url(#clip450)" d="M1605.76 1454.1 Q1602.15 1454.1 1600.32 1457.66 Q1598.51 1461.2 1598.51 1468.33 Q1598.51 1475.44 1600.32 1479.01 Q1602.15 1482.55 1605.76 1482.55 Q1609.39 1482.55 1611.2 1479.01 Q1613.02 1475.44 1613.02 1468.33 Q1613.02 1461.2 1611.2 1457.66 Q1609.39 1454.1 1605.76 1454.1 M1605.76 1450.39 Q1611.57 1450.39 1614.62 1455 Q1617.7 1459.58 1617.7 1468.33 Q1617.7 1477.06 1614.62 1481.67 Q1611.57 1486.25 1605.76 1486.25 Q1599.95 1486.25 1596.87 1481.67 Q1593.81 1477.06 1593.81 1468.33 Q1593.81 1459.58 1596.87 1455 Q1599.95 1450.39 1605.76 1450.39 Z" fill="#000000" fill-rule="nonzero" fill-opacity="1" /><path clip-path="url(#clip450)" d="M1635.92 1454.1 Q1632.31 1454.1 1630.48 1457.66 Q1628.67 1461.2 1628.67 1468.33 Q1628.67 1475.44 1630.48 1479.01 Q1632.31 1482.55 1635.92 1482.55 Q1639.55 1482.55 1641.36 1479.01 Q1643.19 1475.44 1643.19 1468.33 Q1643.19 1461.2 1641.36 1457.66 Q1639.55 1454.1 1635.92 1454.1 M1635.92 1450.39 Q1641.73 1450.39 1644.78 1455 Q1647.86 1459.58 1647.86 1468.33 Q1647.86 1477.06 1644.78 1481.67 Q1641.73 1486.25 1635.92 1486.25 Q1630.11 1486.25 1627.03 1481.67 Q1623.97 1477.06 1623.97 1468.33 Q1623.97 1459.58 1627.03 1455 Q1630.11 1450.39 1635.92 1450.39 Z" fill="#000000" fill-rule="nonzero" fill-opacity="1" /><path clip-path="url(#clip450)" d="M1913.24 1481.64 L1929.56 1481.64 L1929.56 1485.58 L1907.62 1485.58 L1907.62 1481.64 Q1910.28 1478.89 1914.86 1474.26 Q1919.47 1469.61 1920.65 1468.27 Q1922.9 1465.74 1923.78 1464.01 Q1924.68 1462.25 1924.68 1460.56 Q1924.68 1457.8 1922.73 1456.07 Q1920.81 1454.33 1917.71 1454.33 Q1915.51 1454.33 1913.06 1455.09 Q1910.63 1455.86 1907.85 1457.41 L1907.85 1452.69 Q1910.67 1451.55 1913.13 1450.97 Q1915.58 1450.39 1917.62 1450.39 Q1922.99 1450.39 1926.18 1453.08 Q1929.38 1455.77 1929.38 1460.26 Q1929.38 1462.39 1928.57 1464.31 Q1927.78 1466.2 1925.67 1468.8 Q1925.1 1469.47 1921.99 1472.69 Q1918.89 1475.88 1913.24 1481.64 Z" fill="#000000" fill-rule="nonzero" fill-opacity="1" /><path clip-path="url(#clip450)" d="M1939.42 1451.02 L1957.78 1451.02 L1957.78 1454.96 L1943.71 1454.96 L1943.71 1463.43 Q1944.72 1463.08 1945.74 1462.92 Q1946.76 1462.73 1947.78 1462.73 Q1953.57 1462.73 1956.95 1465.9 Q1960.33 1469.08 1960.33 1474.49 Q1960.33 1480.07 1956.85 1483.17 Q1953.38 1486.25 1947.06 1486.25 Q1944.89 1486.25 1942.62 1485.88 Q1940.37 1485.51 1937.97 1484.77 L1937.97 1480.07 Q1940.05 1481.2 1942.27 1481.76 Q1944.49 1482.32 1946.97 1482.32 Q1950.97 1482.32 1953.31 1480.21 Q1955.65 1478.1 1955.65 1474.49 Q1955.65 1470.88 1953.31 1468.77 Q1950.97 1466.67 1946.97 1466.67 Q1945.1 1466.67 1943.22 1467.08 Q1941.37 1467.5 1939.42 1468.38 L1939.42 1451.02 Z" fill="#000000" fill-rule="nonzero" fill-opacity="1" /><path clip-path="url(#clip450)" d="M1979.54 1454.1 Q1975.93 1454.1 1974.1 1457.66 Q1972.29 1461.2 1972.29 1468.33 Q1972.29 1475.44 1974.1 1479.01 Q1975.93 1482.55 1979.54 1482.55 Q1983.17 1482.55 1984.98 1479.01 Q1986.81 1475.44 1986.81 1468.33 Q1986.81 1461.2 1984.98 1457.66 Q1983.17 1454.1 1979.54 1454.1 M1979.54 1450.39 Q1985.35 1450.39 1988.4 1455 Q1991.48 1459.58 1991.48 1468.33 Q1991.48 1477.06 1988.4 1481.67 Q1985.35 1486.25 1979.54 1486.25 Q1973.73 1486.25 1970.65 1481.67 Q1967.59 1477.06 1967.59 1468.33 Q1967.59 1459.58 1970.65 1455 Q1973.73 1450.39 1979.54 1450.39 Z" fill="#000000" fill-rule="nonzero" fill-opacity="1" /><path clip-path="url(#clip450)" d="M2266.93 1466.95 Q2270.29 1467.66 2272.17 1469.93 Q2274.06 1472.2 2274.06 1475.53 Q2274.06 1480.65 2270.54 1483.45 Q2267.03 1486.25 2260.54 1486.25 Q2258.37 1486.25 2256.05 1485.81 Q2253.76 1485.39 2251.31 1484.54 L2251.31 1480.02 Q2253.25 1481.16 2255.57 1481.74 Q2257.88 1482.32 2260.41 1482.32 Q2264.8 1482.32 2267.1 1480.58 Q2269.41 1478.84 2269.41 1475.53 Q2269.41 1472.48 2267.26 1470.77 Q2265.13 1469.03 2261.31 1469.03 L2257.28 1469.03 L2257.28 1465.19 L2261.49 1465.19 Q2264.94 1465.19 2266.77 1463.82 Q2268.6 1462.43 2268.6 1459.84 Q2268.6 1457.18 2266.7 1455.77 Q2264.83 1454.33 2261.31 1454.33 Q2259.39 1454.33 2257.19 1454.75 Q2254.99 1455.16 2252.35 1456.04 L2252.35 1451.88 Q2255.01 1451.14 2257.33 1450.77 Q2259.67 1450.39 2261.73 1450.39 Q2267.05 1450.39 2270.15 1452.83 Q2273.25 1455.23 2273.25 1459.35 Q2273.25 1462.22 2271.61 1464.21 Q2269.97 1466.18 2266.93 1466.95 Z" fill="#000000" fill-rule="nonzero" fill-opacity="1" /><path clip-path="url(#clip450)" d="M2292.93 1454.1 Q2289.32 1454.1 2287.49 1457.66 Q2285.68 1461.2 2285.68 1468.33 Q2285.68 1475.44 2287.49 1479.01 Q2289.32 1482.55 2292.93 1482.55 Q2296.56 1482.55 2298.37 1479.01 Q2300.2 1475.44 2300.2 1468.33 Q2300.2 1461.2 2298.37 1457.66 Q2296.56 1454.1 2292.93 1454.1 M2292.93 1450.39 Q2298.74 1450.39 2301.79 1455 Q2304.87 1459.58 2304.87 1468.33 Q2304.87 1477.06 2301.79 1481.67 Q2298.74 1486.25 2292.93 1486.25 Q2287.12 1486.25 2284.04 1481.67 Q2280.98 1477.06 2280.98 1468.33 Q2280.98 1459.58 2284.04 1455 Q2287.12 1450.39 2292.93 1450.39 Z" fill="#000000" fill-rule="nonzero" fill-opacity="1" /><path clip-path="url(#clip450)" d="M2323.09 1454.1 Q2319.48 1454.1 2317.65 1457.66 Q2315.85 1461.2 2315.85 1468.33 Q2315.85 1475.44 2317.65 1479.01 Q2319.48 1482.55 2323.09 1482.55 Q2326.73 1482.55 2328.53 1479.01 Q2330.36 1475.44 2330.36 1468.33 Q2330.36 1461.2 2328.53 1457.66 Q2326.73 1454.1 2323.09 1454.1 M2323.09 1450.39 Q2328.9 1450.39 2331.96 1455 Q2335.04 1459.58 2335.04 1468.33 Q2335.04 1477.06 2331.96 1481.67 Q2328.9 1486.25 2323.09 1486.25 Q2317.28 1486.25 2314.2 1481.67 Q2311.15 1477.06 2311.15 1468.33 Q2311.15 1459.58 2314.2 1455 Q2317.28 1450.39 2323.09 1450.39 Z" fill="#000000" fill-rule="nonzero" fill-opacity="1" /><path clip-path="url(#clip450)" d="M1301 1524.09 L1317.45 1568.04 L1311.25 1568.04 L1301.25 1541.69 L1288.97 1568.04 L1282.76 1568.04 L1298.39 1533.86 L1296.03 1527.56 Q1294.54 1523.55 1291.13 1523.55 L1288.08 1523.55 L1288.08 1518.52 L1291.8 1518.58 Q1298.99 1518.68 1301 1524.09 Z" fill="#000000" fill-rule="nonzero" fill-opacity="1" /><polyline clip-path="url(#clip450)" style="stroke:#000000; stroke-linecap:round; stroke-linejoin:round; stroke-width:4; stroke-opacity:1; fill:none" points="247.459,1423.18 247.459,123.472 "/>
<polyline clip-path="url(#clip450)" style="stroke:#000000; stroke-linecap:round; stroke-linejoin:round; stroke-width:4; stroke-opacity:1; fill:none" points="247.459,1231.01 266.356,1231.01 "/>
<polyline clip-path="url(#clip450)" style="stroke:#000000; stroke-linecap:round; stroke-linejoin:round; stroke-width:4; stroke-opacity:1; fill:none" points="247.459,942.012 266.356,942.012 "/>
<polyline clip-path="url(#clip450)" style="stroke:#000000; stroke-linecap:round; stroke-linejoin:round; stroke-width:4; stroke-opacity:1; fill:none" points="247.459,653.017 266.356,653.017 "/>
<polyline clip-path="url(#clip450)" style="stroke:#000000; stroke-linecap:round; stroke-linejoin:round; stroke-width:4; stroke-opacity:1; fill:none" points="247.459,364.022 266.356,364.022 "/>
<path clip-path="url(#clip450)" d="M155.278 1231.87 Q151.945 1231.87 150.024 1233.66 Q148.126 1235.44 148.126 1238.56 Q148.126 1241.69 150.024 1243.47 Q151.945 1245.25 155.278 1245.25 Q158.612 1245.25 160.533 1243.47 Q162.454 1241.67 162.454 1238.56 Q162.454 1235.44 160.533 1233.66 Q158.635 1231.87 155.278 1231.87 M150.603 1229.88 Q147.593 1229.14 145.904 1227.08 Q144.237 1225.02 144.237 1222.06 Q144.237 1217.92 147.177 1215.51 Q150.14 1213.1 155.278 1213.1 Q160.44 1213.1 163.38 1215.51 Q166.32 1217.92 166.32 1222.06 Q166.32 1225.02 164.63 1227.08 Q162.964 1229.14 159.978 1229.88 Q163.357 1230.67 165.232 1232.96 Q167.13 1235.25 167.13 1238.56 Q167.13 1243.59 164.052 1246.27 Q160.996 1248.96 155.278 1248.96 Q149.561 1248.96 146.482 1246.27 Q143.427 1243.59 143.427 1238.56 Q143.427 1235.25 145.325 1232.96 Q147.223 1230.67 150.603 1229.88 M148.89 1222.5 Q148.89 1225.18 150.556 1226.69 Q152.246 1228.19 155.278 1228.19 Q158.288 1228.19 159.978 1226.69 Q161.69 1225.18 161.69 1222.5 Q161.69 1219.81 159.978 1218.31 Q158.288 1216.81 155.278 1216.81 Q152.246 1216.81 150.556 1218.31 Q148.89 1219.81 148.89 1222.5 Z" fill="#000000" fill-rule="nonzero" fill-opacity="1" /><path clip-path="url(#clip450)" d="M175.44 1242.41 L180.325 1242.41 L180.325 1248.29 L175.44 1248.29 L175.44 1242.41 Z" fill="#000000" fill-rule="nonzero" fill-opacity="1" /><path clip-path="url(#clip450)" d="M190.556 1213.73 L208.912 1213.73 L208.912 1217.66 L194.838 1217.66 L194.838 1226.13 Q195.857 1225.79 196.875 1225.62 Q197.894 1225.44 198.912 1225.44 Q204.699 1225.44 208.079 1228.61 Q211.459 1231.78 211.459 1237.2 Q211.459 1242.78 207.987 1245.88 Q204.514 1248.96 198.195 1248.96 Q196.019 1248.96 193.75 1248.59 Q191.505 1248.22 189.098 1247.48 L189.098 1242.78 Q191.181 1243.91 193.403 1244.47 Q195.625 1245.02 198.102 1245.02 Q202.107 1245.02 204.445 1242.92 Q206.783 1240.81 206.783 1237.2 Q206.783 1233.59 204.445 1231.48 Q202.107 1229.37 198.102 1229.37 Q196.227 1229.37 194.352 1229.79 Q192.5 1230.21 190.556 1231.09 L190.556 1213.73 Z" fill="#000000" fill-rule="nonzero" fill-opacity="1" /><path clip-path="url(#clip450)" d="M144.422 958.574 L144.422 954.315 Q146.181 955.148 147.987 955.588 Q149.792 956.028 151.528 956.028 Q156.158 956.028 158.589 952.926 Q161.042 949.801 161.39 943.459 Q160.047 945.449 157.987 946.514 Q155.927 947.579 153.427 947.579 Q148.241 947.579 145.209 944.454 Q142.2 941.306 142.2 935.866 Q142.2 930.542 145.348 927.324 Q148.496 924.107 153.728 924.107 Q159.723 924.107 162.871 928.713 Q166.042 933.297 166.042 942.047 Q166.042 950.218 162.153 955.102 Q158.288 959.963 151.737 959.963 Q149.978 959.963 148.172 959.616 Q146.366 959.269 144.422 958.574 M153.728 943.922 Q156.876 943.922 158.704 941.769 Q160.556 939.616 160.556 935.866 Q160.556 932.139 158.704 929.986 Q156.876 927.811 153.728 927.811 Q150.579 927.811 148.728 929.986 Q146.899 932.139 146.899 935.866 Q146.899 939.616 148.728 941.769 Q150.579 943.922 153.728 943.922 Z" fill="#000000" fill-rule="nonzero" fill-opacity="1" /><path clip-path="url(#clip450)" d="M174.445 953.412 L179.329 953.412 L179.329 959.292 L174.445 959.292 L174.445 953.412 Z" fill="#000000" fill-rule="nonzero" fill-opacity="1" /><path clip-path="url(#clip450)" d="M199.514 927.811 Q195.903 927.811 194.075 931.375 Q192.269 934.917 192.269 942.047 Q192.269 949.153 194.075 952.718 Q195.903 956.259 199.514 956.259 Q203.149 956.259 204.954 952.718 Q206.783 949.153 206.783 942.047 Q206.783 934.917 204.954 931.375 Q203.149 927.811 199.514 927.811 M199.514 924.107 Q205.324 924.107 208.38 928.713 Q211.459 933.297 211.459 942.047 Q211.459 950.773 208.38 955.38 Q205.324 959.963 199.514 959.963 Q193.704 959.963 190.625 955.38 Q187.57 950.773 187.57 942.047 Q187.57 933.297 190.625 928.713 Q193.704 924.107 199.514 924.107 Z" fill="#000000" fill-rule="nonzero" fill-opacity="1" /><path clip-path="url(#clip450)" d="M145.417 669.579 L145.417 665.32 Q147.177 666.154 148.982 666.593 Q150.788 667.033 152.524 667.033 Q157.153 667.033 159.584 663.931 Q162.038 660.806 162.385 654.464 Q161.042 656.455 158.982 657.519 Q156.922 658.584 154.422 658.584 Q149.237 658.584 146.204 655.459 Q143.195 652.311 143.195 646.871 Q143.195 641.547 146.343 638.33 Q149.491 635.112 154.723 635.112 Q160.718 635.112 163.866 639.719 Q167.038 644.302 167.038 653.052 Q167.038 661.223 163.149 666.107 Q159.283 670.968 152.732 670.968 Q150.973 670.968 149.167 670.621 Q147.362 670.274 145.417 669.579 M154.723 654.927 Q157.871 654.927 159.7 652.774 Q161.552 650.621 161.552 646.871 Q161.552 643.144 159.7 640.992 Q157.871 638.816 154.723 638.816 Q151.575 638.816 149.723 640.992 Q147.894 643.144 147.894 646.871 Q147.894 650.621 149.723 652.774 Q151.575 654.927 154.723 654.927 Z" fill="#000000" fill-rule="nonzero" fill-opacity="1" /><path clip-path="url(#clip450)" d="M175.44 664.417 L180.325 664.417 L180.325 670.297 L175.44 670.297 L175.44 664.417 Z" fill="#000000" fill-rule="nonzero" fill-opacity="1" /><path clip-path="url(#clip450)" d="M190.556 635.737 L208.912 635.737 L208.912 639.672 L194.838 639.672 L194.838 648.144 Q195.857 647.797 196.875 647.635 Q197.894 647.45 198.912 647.45 Q204.699 647.45 208.079 650.621 Q211.459 653.793 211.459 659.209 Q211.459 664.788 207.987 667.89 Q204.514 670.968 198.195 670.968 Q196.019 670.968 193.75 670.598 Q191.505 670.228 189.098 669.487 L189.098 664.788 Q191.181 665.922 193.403 666.478 Q195.625 667.033 198.102 667.033 Q202.107 667.033 204.445 664.927 Q206.783 662.82 206.783 659.209 Q206.783 655.598 204.445 653.492 Q202.107 651.385 198.102 651.385 Q196.227 651.385 194.352 651.802 Q192.5 652.218 190.556 653.098 L190.556 635.737 Z" fill="#000000" fill-rule="nonzero" fill-opacity="1" /><path clip-path="url(#clip450)" d="M114.931 377.367 L122.57 377.367 L122.57 351.002 L114.26 352.668 L114.26 348.409 L122.524 346.742 L127.2 346.742 L127.2 377.367 L134.839 377.367 L134.839 381.302 L114.931 381.302 L114.931 377.367 Z" fill="#000000" fill-rule="nonzero" fill-opacity="1" /><path clip-path="url(#clip450)" d="M154.283 349.821 Q150.672 349.821 148.843 353.386 Q147.038 356.927 147.038 364.057 Q147.038 371.163 148.843 374.728 Q150.672 378.27 154.283 378.27 Q157.917 378.27 159.723 374.728 Q161.552 371.163 161.552 364.057 Q161.552 356.927 159.723 353.386 Q157.917 349.821 154.283 349.821 M154.283 346.117 Q160.093 346.117 163.149 350.724 Q166.227 355.307 166.227 364.057 Q166.227 372.784 163.149 377.39 Q160.093 381.974 154.283 381.974 Q148.473 381.974 145.394 377.39 Q142.339 372.784 142.339 364.057 Q142.339 355.307 145.394 350.724 Q148.473 346.117 154.283 346.117 Z" fill="#000000" fill-rule="nonzero" fill-opacity="1" /><path clip-path="url(#clip450)" d="M174.445 375.423 L179.329 375.423 L179.329 381.302 L174.445 381.302 L174.445 375.423 Z" fill="#000000" fill-rule="nonzero" fill-opacity="1" /><path clip-path="url(#clip450)" d="M199.514 349.821 Q195.903 349.821 194.075 353.386 Q192.269 356.927 192.269 364.057 Q192.269 371.163 194.075 374.728 Q195.903 378.27 199.514 378.27 Q203.149 378.27 204.954 374.728 Q206.783 371.163 206.783 364.057 Q206.783 356.927 204.954 353.386 Q203.149 349.821 199.514 349.821 M199.514 346.117 Q205.324 346.117 208.38 350.724 Q211.459 355.307 211.459 364.057 Q211.459 372.784 208.38 377.39 Q205.324 381.974 199.514 381.974 Q193.704 381.974 190.625 377.39 Q187.57 372.784 187.57 364.057 Q187.57 355.307 190.625 350.724 Q193.704 346.117 199.514 346.117 Z" fill="#000000" fill-rule="nonzero" fill-opacity="1" /><path clip-path="url(#clip450)" d="M20.8447 920.342 Q20.8447 927.344 26.0645 931.482 Q31.2844 935.588 40.2919 935.588 Q49.2675 935.588 54.4874 931.482 Q59.7073 927.344 59.7073 920.342 Q59.7073 913.34 54.4874 909.266 Q49.2675 905.16 40.2919 905.16 Q31.2844 905.16 26.0645 909.266 Q20.8447 913.34 20.8447 920.342 M15.6248 920.342 Q15.6248 910.348 22.3406 904.364 Q29.0246 898.38 40.2919 898.38 Q51.5274 898.38 58.2432 904.364 Q64.9272 910.348 64.9272 920.342 Q64.9272 930.368 58.2432 936.384 Q51.5592 942.367 40.2919 942.367 Q29.0246 942.367 22.3406 936.384 Q15.6248 930.368 15.6248 920.342 Z" fill="#000000" fill-rule="nonzero" fill-opacity="1" /><path clip-path="url(#clip450)" d="M58.657 882.912 L77.5631 882.912 L77.5631 888.8 L28.3562 888.8 L28.3562 882.912 L33.7671 882.912 Q30.5842 881.066 29.0564 878.265 Q27.4968 875.432 27.4968 871.517 Q27.4968 865.024 32.6531 860.982 Q37.8093 856.908 46.212 856.908 Q54.6147 856.908 59.771 860.982 Q64.9272 865.024 64.9272 871.517 Q64.9272 875.432 63.3994 878.265 Q61.8398 881.066 58.657 882.912 M46.212 862.987 Q39.7508 862.987 36.0905 865.661 Q32.3984 868.302 32.3984 872.949 Q32.3984 877.596 36.0905 880.27 Q39.7508 882.912 46.212 882.912 Q52.6732 882.912 56.3653 880.27 Q60.0256 877.596 60.0256 872.949 Q60.0256 868.302 56.3653 865.661 Q52.6732 862.987 46.212 862.987 Z" fill="#000000" fill-rule="nonzero" fill-opacity="1" /><path clip-path="url(#clip450)" d="M18.2347 841.407 L28.3562 841.407 L28.3562 829.344 L32.9077 829.344 L32.9077 841.407 L52.2594 841.407 Q56.6199 841.407 57.8613 840.23 Q59.1026 839.02 59.1026 835.36 L59.1026 829.344 L64.0042 829.344 L64.0042 835.36 Q64.0042 842.139 61.4897 844.717 Q58.9434 847.295 52.2594 847.295 L32.9077 847.295 L32.9077 851.592 L28.3562 851.592 L28.3562 847.295 L18.2347 847.295 L18.2347 841.407 Z" fill="#000000" fill-rule="nonzero" fill-opacity="1" /><path clip-path="url(#clip450)" d="M28.3562 821.642 L28.3562 815.785 L64.0042 815.785 L64.0042 821.642 L28.3562 821.642 M14.479 821.642 L14.479 815.785 L21.895 815.785 L21.895 821.642 L14.479 821.642 Z" fill="#000000" fill-rule="nonzero" fill-opacity="1" /><path clip-path="url(#clip450)" d="M35.1993 775.777 Q31.2526 773.581 29.3747 770.525 Q27.4968 767.47 27.4968 763.332 Q27.4968 757.762 31.4117 754.738 Q35.2948 751.714 42.4881 751.714 L64.0042 751.714 L64.0042 757.603 L42.679 757.603 Q37.5546 757.603 35.072 759.417 Q32.5894 761.231 32.5894 764.955 Q32.5894 769.507 35.6131 772.148 Q38.6368 774.79 43.8567 774.79 L64.0042 774.79 L64.0042 780.678 L42.679 780.678 Q37.5228 780.678 35.072 782.493 Q32.5894 784.307 32.5894 788.094 Q32.5894 792.582 35.6449 795.224 Q38.6686 797.866 43.8567 797.866 L64.0042 797.866 L64.0042 803.754 L28.3562 803.754 L28.3562 797.866 L33.8944 797.866 Q30.616 795.861 29.0564 793.06 Q27.4968 790.259 27.4968 786.408 Q27.4968 782.524 29.4702 779.819 Q31.4436 777.082 35.1993 775.777 Z" fill="#000000" fill-rule="nonzero" fill-opacity="1" /><path clip-path="url(#clip450)" d="M46.0847 723.833 Q46.0847 730.93 47.7079 733.668 Q49.3312 736.405 53.2461 736.405 Q56.3653 736.405 58.2114 734.368 Q60.0256 732.299 60.0256 728.766 Q60.0256 723.896 56.5881 720.968 Q53.1188 718.008 47.3897 718.008 L46.0847 718.008 L46.0847 723.833 M43.6657 712.152 L64.0042 712.152 L64.0042 718.008 L58.5933 718.008 Q61.8398 720.013 63.3994 723.005 Q64.9272 725.997 64.9272 730.326 Q64.9272 735.8 61.8716 739.047 Q58.7843 742.261 53.6281 742.261 Q47.6125 742.261 44.5569 738.251 Q41.5014 734.209 41.5014 726.22 L41.5014 718.008 L40.9285 718.008 Q36.8862 718.008 34.6901 720.682 Q32.4621 723.323 32.4621 728.129 Q32.4621 731.185 33.1941 734.081 Q33.9262 736.978 35.3903 739.651 L29.9795 739.651 Q28.7381 736.437 28.1334 733.413 Q27.4968 730.389 27.4968 727.525 Q27.4968 719.79 31.5072 715.971 Q35.5176 712.152 43.6657 712.152 Z" fill="#000000" fill-rule="nonzero" fill-opacity="1" /><path clip-path="url(#clip450)" d="M14.479 700.089 L14.479 694.232 L64.0042 694.232 L64.0042 700.089 L14.479 700.089 Z" fill="#000000" fill-rule="nonzero" fill-opacity="1" /><path clip-path="url(#clip450)" d="M57.5111 643.784 Q59.0389 642.638 59.0389 639.201 L59.0389 636.368 L64.0042 636.368 L64.0042 639.901 Q64.0042 645.63 60.9486 648.24 Q57.8294 650.85 51.0818 650.85 L34.2127 650.85 L34.2127 664.218 L28.3562 664.218 L28.3562 631.339 L34.2127 631.339 L34.2127 644.866 L51.4319 644.866 Q56.047 644.866 57.5111 643.784 Z" fill="#000000" fill-rule="nonzero" fill-opacity="1" /><path clip-path="url(#clip450)" d="M42.4562 610.014 Q39.719 611.605 39.719 614.82 Q39.719 618.035 42.4562 619.626 Q45.1935 621.249 50.668 621.249 Q56.1743 621.249 58.9116 619.626 Q61.6488 618.035 61.6488 614.82 Q61.6488 611.605 58.9116 610.014 Q56.1743 608.391 50.668 608.391 Q45.1935 608.391 42.4562 610.014 M36.8862 614.82 Q36.8862 609.695 40.4192 606.99 Q43.9522 604.285 50.668 604.285 Q57.4157 604.285 60.9486 606.99 Q64.4816 609.695 64.4816 614.82 Q64.4816 619.976 60.9486 622.682 Q57.4157 625.387 50.668 625.387 Q43.9522 625.387 40.4192 622.682 Q36.8862 619.976 36.8862 614.82 Z" fill="#000000" fill-rule="nonzero" fill-opacity="1" /><path clip-path="url(#clip450)" d="M996.553 17.6457 Q987.641 17.6457 982.375 24.2892 Q977.149 30.9327 977.149 42.3968 Q977.149 53.8203 982.375 60.4638 Q987.641 67.1073 996.553 67.1073 Q1005.46 67.1073 1010.65 60.4638 Q1015.88 53.8203 1015.88 42.3968 Q1015.88 30.9327 1010.65 24.2892 Q1005.46 17.6457 996.553 17.6457 M996.553 11.0023 Q1009.27 11.0023 1016.89 19.5497 Q1024.5 28.0566 1024.5 42.3968 Q1024.5 56.6965 1016.89 65.2439 Q1009.27 73.7508 996.553 73.7508 Q983.792 73.7508 976.136 65.2439 Q968.521 56.737 968.521 42.3968 Q968.521 28.0566 976.136 19.5497 Q983.792 11.0023 996.553 11.0023 Z" fill="#000000" fill-rule="nonzero" fill-opacity="1" /><path clip-path="url(#clip450)" d="M1044.19 65.7705 L1044.19 89.8329 L1036.7 89.8329 L1036.7 27.2059 L1044.19 27.2059 L1044.19 34.0924 Q1046.54 30.0415 1050.11 28.0971 Q1053.71 26.1121 1058.69 26.1121 Q1066.96 26.1121 1072.1 32.6746 Q1077.29 39.2371 1077.29 49.9314 Q1077.29 60.6258 1072.1 67.1883 Q1066.96 73.7508 1058.69 73.7508 Q1053.71 73.7508 1050.11 71.8063 Q1046.54 69.8214 1044.19 65.7705 M1069.55 49.9314 Q1069.55 41.7081 1066.15 37.0496 Q1062.79 32.3505 1056.87 32.3505 Q1050.96 32.3505 1047.55 37.0496 Q1044.19 41.7081 1044.19 49.9314 Q1044.19 58.1548 1047.55 62.8538 Q1050.96 67.5124 1056.87 67.5124 Q1062.79 67.5124 1066.15 62.8538 Q1069.55 58.1548 1069.55 49.9314 Z" fill="#000000" fill-rule="nonzero" fill-opacity="1" /><path clip-path="url(#clip450)" d="M1097.02 14.324 L1097.02 27.2059 L1112.37 27.2059 L1112.37 32.9987 L1097.02 32.9987 L1097.02 57.6282 Q1097.02 63.1779 1098.51 64.7578 Q1100.05 66.3376 1104.71 66.3376 L1112.37 66.3376 L1112.37 72.576 L1104.71 72.576 Q1096.08 72.576 1092.8 69.3758 Q1089.52 66.1351 1089.52 57.6282 L1089.52 32.9987 L1084.05 32.9987 L1084.05 27.2059 L1089.52 27.2059 L1089.52 14.324 L1097.02 14.324 Z" fill="#000000" fill-rule="nonzero" fill-opacity="1" /><path clip-path="url(#clip450)" d="M1122.17 27.2059 L1129.63 27.2059 L1129.63 72.576 L1122.17 72.576 L1122.17 27.2059 M1122.17 9.54393 L1129.63 9.54393 L1129.63 18.9825 L1122.17 18.9825 L1122.17 9.54393 Z" fill="#000000" fill-rule="nonzero" fill-opacity="1" /><path clip-path="url(#clip450)" d="M1180.54 35.9153 Q1183.34 30.8922 1187.23 28.5022 Q1191.12 26.1121 1196.38 26.1121 Q1203.47 26.1121 1207.32 31.0947 Q1211.17 36.0368 1211.17 45.1919 L1211.17 72.576 L1203.68 72.576 L1203.68 45.4349 Q1203.68 38.913 1201.37 35.7533 Q1199.06 32.5936 1194.32 32.5936 Q1188.53 32.5936 1185.16 36.4419 Q1181.8 40.2903 1181.8 46.9338 L1181.8 72.576 L1174.31 72.576 L1174.31 45.4349 Q1174.31 38.8725 1172 35.7533 Q1169.69 32.5936 1164.87 32.5936 Q1159.16 32.5936 1155.79 36.4824 Q1152.43 40.3308 1152.43 46.9338 L1152.43 72.576 L1144.94 72.576 L1144.94 27.2059 L1152.43 27.2059 L1152.43 34.2544 Q1154.98 30.082 1158.55 28.0971 Q1162.11 26.1121 1167.01 26.1121 Q1171.96 26.1121 1175.4 28.6237 Q1178.88 31.1352 1180.54 35.9153 Z" fill="#000000" fill-rule="nonzero" fill-opacity="1" /><path clip-path="url(#clip450)" d="M1246.66 49.7694 Q1237.62 49.7694 1234.14 51.8354 Q1230.65 53.9013 1230.65 58.8839 Q1230.65 62.8538 1233.25 65.2034 Q1235.88 67.5124 1240.38 67.5124 Q1246.57 67.5124 1250.3 63.1374 Q1254.07 58.7219 1254.07 51.4303 L1254.07 49.7694 L1246.66 49.7694 M1261.52 46.6907 L1261.52 72.576 L1254.07 72.576 L1254.07 65.6895 Q1251.52 69.8214 1247.71 71.8063 Q1243.9 73.7508 1238.39 73.7508 Q1231.42 73.7508 1227.29 69.8619 Q1223.2 65.9325 1223.2 59.3701 Q1223.2 51.7138 1228.31 47.825 Q1233.45 43.9361 1243.62 43.9361 L1254.07 43.9361 L1254.07 43.2069 Q1254.07 38.0623 1250.67 35.2672 Q1247.3 32.4315 1241.19 32.4315 Q1237.3 32.4315 1233.61 33.3632 Q1229.93 34.295 1226.52 36.1584 L1226.52 29.2718 Q1230.61 27.692 1234.46 26.9223 Q1238.31 26.1121 1241.96 26.1121 Q1251.8 26.1121 1256.66 31.2163 Q1261.52 36.3204 1261.52 46.6907 Z" fill="#000000" fill-rule="nonzero" fill-opacity="1" /><path clip-path="url(#clip450)" d="M1276.88 9.54393 L1284.33 9.54393 L1284.33 72.576 L1276.88 72.576 L1276.88 9.54393 Z" fill="#000000" fill-rule="nonzero" fill-opacity="1" /><path clip-path="url(#clip450)" d="M1348.54 64.3122 Q1349.99 66.2566 1354.37 66.2566 L1357.97 66.2566 L1357.97 72.576 L1353.48 72.576 Q1346.19 72.576 1342.86 68.6871 Q1339.54 64.7172 1339.54 56.1293 L1339.54 34.6595 L1322.53 34.6595 L1322.53 27.2059 L1364.37 27.2059 L1364.37 34.6595 L1347.16 34.6595 L1347.16 56.5749 Q1347.16 62.4487 1348.54 64.3122 Z" fill="#000000" fill-rule="nonzero" fill-opacity="1" /><path clip-path="url(#clip450)" d="M1391.52 45.1514 Q1389.49 41.6676 1385.4 41.6676 Q1381.31 41.6676 1379.28 45.1514 Q1377.22 48.6352 1377.22 55.6027 Q1377.22 62.6108 1379.28 66.0946 Q1381.31 69.5783 1385.4 69.5783 Q1389.49 69.5783 1391.52 66.0946 Q1393.58 62.6108 1393.58 55.6027 Q1393.58 48.6352 1391.52 45.1514 M1385.4 38.0623 Q1391.92 38.0623 1395.36 42.5588 Q1398.81 47.0553 1398.81 55.6027 Q1398.81 64.1906 1395.36 68.6871 Q1391.92 73.1836 1385.4 73.1836 Q1378.84 73.1836 1375.39 68.6871 Q1371.95 64.1906 1371.95 55.6027 Q1371.95 47.0553 1375.39 42.5588 Q1378.84 38.0623 1385.4 38.0623 Z" fill="#000000" fill-rule="nonzero" fill-opacity="1" /><path clip-path="url(#clip450)" d="M1411.41 62.2867 L1419.95 62.2867 L1419.95 69.2543 L1413.31 82.2172 L1408.08 82.2172 L1411.41 69.2543 L1411.41 62.2867 Z" fill="#000000" fill-rule="nonzero" fill-opacity="1" /><path clip-path="url(#clip450)" d="M1462.57 12.096 L1473.59 12.096 L1500.4 62.6918 L1500.4 12.096 L1508.34 12.096 L1508.34 72.576 L1497.33 72.576 L1470.51 21.9802 L1470.51 72.576 L1462.57 72.576 L1462.57 12.096 Z" fill="#000000" fill-rule="nonzero" fill-opacity="1" /><path clip-path="url(#clip450)" d="M1525.28 34.9026 L1577.21 34.9026 L1577.21 41.7081 L1525.28 41.7081 L1525.28 34.9026 M1525.28 51.4303 L1577.21 51.4303 L1577.21 58.3168 L1525.28 58.3168 L1525.28 51.4303 Z" fill="#000000" fill-rule="nonzero" fill-opacity="1" /><path clip-path="url(#clip450)" d="M1592.81 12.096 L1631.69 12.096 L1631.69 15.5798 L1609.74 72.576 L1601.19 72.576 L1621.85 18.9825 L1592.81 18.9825 L1592.81 12.096 Z" fill="#000000" fill-rule="nonzero" fill-opacity="1" /><polyline clip-path="url(#clip452)" style="stroke:#009af9; stroke-linecap:round; stroke-linejoin:round; stroke-width:8; stroke-opacity:1; fill:none" points="307.043,1386.4 313.915,1358.14 320.787,1334.02 327.66,1311.77 341.405,1268.68 348.277,1247.74 355.15,1227.08 362.022,824.315 368.894,1190.17 375.767,788.574 382.639,772.286 389.512,756.778 396.384,742.298 403.256,728.769 410.129,716.124 417.001,704.301 423.874,693.202 430.746,682.37 437.619,671.693 444.491,661.164 451.363,650.778 458.236,640.529 478.853,610.715 492.598,592.981 499.47,1003.84 506.343,577.295 513.215,570.146 520.088,563.421 526.96,557.086 540.705,544.778 554.45,532.695 561.322,526.734 568.195,951.266 581.939,509.352 588.812,503.921 602.557,493.642 609.429,488.776 616.302,484.083 623.174,479.555 630.046,475.185 636.919,470.967 643.791,466.894 664.408,455.227 671.281,451.399 678.153,447.594 685.026,892.953 691.898,440.055 698.771,436.32 705.643,432.607 719.388,425.257 733.133,418.25 753.75,408.52 760.622,405.471 774.367,399.645 781.24,396.862 808.729,386.528 822.474,381.801 829.347,379.539 836.219,377.333 843.091,375.141 849.964,372.958 856.836,370.785 863.709,368.62 870.581,366.465 877.453,364.319 884.326,362.182 891.198,360.053 898.071,357.933 904.943,355.822 911.816,353.718 918.688,824.833 925.56,349.537 939.305,345.388 953.05,341.27 973.667,335.152 980.54,333.14 987.412,331.166 994.285,329.229 1001.16,327.33 1008.03,325.466 1014.9,323.637 1021.77,321.842 1028.65,320.08 1035.52,318.351 1042.39,316.654 1056.14,313.35 1063.01,311.743 1083.63,307.091 1090.5,305.595 1097.37,304.125 1104.24,302.68 1117.99,299.865 1124.86,298.494 1166.1,290.693 1172.97,289.427 1179.84,288.165 1193.58,285.649 1200.46,284.397 1221.07,280.658 1234.82,251.295 1248.56,249.166 1255.44,248.132 1262.31,247.116 1269.18,272.23 1276.05,245.132 1296.67,242.259 1303.54,241.327 1310.42,240.406 1317.29,239.496 1324.16,238.597 1331.03,237.708 1337.91,236.829 1344.78,235.959 1351.65,235.099 1365.4,233.405 1372.27,232.571 1379.14,231.745 1386.01,715.832 1392.88,230.118 1399.76,229.315 1406.63,228.52 1413.5,681.134 1420.37,226.952 1427.25,226.178 1434.12,225.411 1440.99,224.651 1454.74,223.149 1461.61,222.408 1468.48,221.673 1475.35,220.943 1482.23,220.22 1489.1,219.502 1495.97,218.79 1502.84,218.084 1509.72,217.382 1523.46,215.996 1530.33,215.311 1537.21,214.63 1544.08,213.955 1550.95,668.994 1557.82,212.619 1564.7,211.958 1578.44,210.651 1585.31,210.003 1592.19,209.361 1599.06,208.723 1605.93,208.089 1612.8,207.459 1619.67,206.834 1626.55,206.213 1633.42,205.596 1640.29,204.982 1647.16,204.373 1654.04,203.768 1667.78,202.569 1674.65,201.976 1681.53,201.386 1688.4,200.799 1695.27,656.548 1709.02,199.062 1715.89,198.49 1722.76,197.921 1729.63,197.356 1736.51,196.794 1743.38,196.236 1750.25,195.68 1757.12,195.128 1764,650.722 1770.87,194.034 1784.61,192.952 1791.49,192.416 1805.23,191.353 1812.1,190.826 1818.98,190.301 1825.85,189.78 1832.72,189.262 1853.34,187.724 1867.08,186.712 1873.95,186.211 1887.7,185.215 1894.57,184.722 1915.19,183.257 1922.06,182.774 1935.81,181.815 1942.68,181.339 1949.55,180.866 1956.42,180.395 1963.3,179.927 1970.17,179.461 1977.04,178.998 1983.91,178.536 1990.79,178.078 1997.66,177.621 2011.4,176.715 2025.15,175.819 2038.89,174.931 2045.76,174.491 2059.51,173.617 2066.38,173.183 2080.13,172.322 2100.74,171.046 2107.62,170.625 2135.11,183.175 2148.85,165.615 2162.6,167.334 2190.09,165.737 2196.96,165.343 2210.7,164.562 2217.58,613.725 2224.45,162.727 2231.32,163.404 2251.94,162.265 2258.81,161.89 2265.68,161.516 2272.55,161.145 2279.43,160.74 2286.3,160.498 2293.17,160.256 "/>
</svg>
