<?xml version="1.0" encoding="utf-8"?>
<svg xmlns="http://www.w3.org/2000/svg" xmlns:xlink="http://www.w3.org/1999/xlink" width="600" height="400" viewBox="0 0 2400 1600">
<defs>
  <clipPath id="clip880">
    <rect x="0" y="0" width="2400" height="1600"/>
  </clipPath>
</defs>
<path clip-path="url(#clip880)" d="M0 1600 L2400 1600 L2400 8.88178e-14 L0 8.88178e-14  Z" fill="#ffffff" fill-rule="evenodd" fill-opacity="1"/>
<defs>
  <clipPath id="clip881">
    <rect x="480" y="0" width="1681" height="1600"/>
  </clipPath>
</defs>
<path clip-path="url(#clip880)" d="M219.288 1423.18 L2352.76 1423.18 L2352.76 123.472 L219.288 123.472  Z" fill="#ffffff" fill-rule="evenodd" fill-opacity="1"/>
<defs>
  <clipPath id="clip882">
    <rect x="219" y="123" width="2134" height="1301"/>
  </clipPath>
</defs>
<polyline clip-path="url(#clip882)" style="stroke:#000000; stroke-linecap:round; stroke-linejoin:round; stroke-width:2; stroke-opacity:0.1; fill:none" points="245.555,1423.18 245.555,123.472 "/>
<polyline clip-path="url(#clip882)" style="stroke:#000000; stroke-linecap:round; stroke-linejoin:round; stroke-width:2; stroke-opacity:0.1; fill:none" points="927.828,1423.18 927.828,123.472 "/>
<polyline clip-path="url(#clip882)" style="stroke:#000000; stroke-linecap:round; stroke-linejoin:round; stroke-width:2; stroke-opacity:0.1; fill:none" points="1610.1,1423.18 1610.1,123.472 "/>
<polyline clip-path="url(#clip882)" style="stroke:#000000; stroke-linecap:round; stroke-linejoin:round; stroke-width:2; stroke-opacity:0.1; fill:none" points="2292.37,1423.18 2292.37,123.472 "/>
<polyline clip-path="url(#clip882)" style="stroke:#000000; stroke-linecap:round; stroke-linejoin:round; stroke-width:2; stroke-opacity:0.1; fill:none" points="219.288,1251.1 2352.76,1251.1 "/>
<polyline clip-path="url(#clip882)" style="stroke:#000000; stroke-linecap:round; stroke-linejoin:round; stroke-width:2; stroke-opacity:0.1; fill:none" points="219.288,1006.19 2352.76,1006.19 "/>
<polyline clip-path="url(#clip882)" style="stroke:#000000; stroke-linecap:round; stroke-linejoin:round; stroke-width:2; stroke-opacity:0.1; fill:none" points="219.288,761.271 2352.76,761.271 "/>
<polyline clip-path="url(#clip882)" style="stroke:#000000; stroke-linecap:round; stroke-linejoin:round; stroke-width:2; stroke-opacity:0.1; fill:none" points="219.288,516.356 2352.76,516.356 "/>
<polyline clip-path="url(#clip882)" style="stroke:#000000; stroke-linecap:round; stroke-linejoin:round; stroke-width:2; stroke-opacity:0.1; fill:none" points="219.288,271.44 2352.76,271.44 "/>
<polyline clip-path="url(#clip880)" style="stroke:#000000; stroke-linecap:round; stroke-linejoin:round; stroke-width:4; stroke-opacity:1; fill:none" points="219.288,1423.18 2352.76,1423.18 "/>
<polyline clip-path="url(#clip880)" style="stroke:#000000; stroke-linecap:round; stroke-linejoin:round; stroke-width:4; stroke-opacity:1; fill:none" points="245.555,1423.18 245.555,1404.28 "/>
<polyline clip-path="url(#clip880)" style="stroke:#000000; stroke-linecap:round; stroke-linejoin:round; stroke-width:4; stroke-opacity:1; fill:none" points="927.828,1423.18 927.828,1404.28 "/>
<polyline clip-path="url(#clip880)" style="stroke:#000000; stroke-linecap:round; stroke-linejoin:round; stroke-width:4; stroke-opacity:1; fill:none" points="1610.1,1423.18 1610.1,1404.28 "/>
<polyline clip-path="url(#clip880)" style="stroke:#000000; stroke-linecap:round; stroke-linejoin:round; stroke-width:4; stroke-opacity:1; fill:none" points="2292.37,1423.18 2292.37,1404.28 "/>
<path clip-path="url(#clip880)" d="M245.555 1454.1 Q241.944 1454.1 240.115 1457.66 Q238.31 1461.2 238.31 1468.33 Q238.31 1475.44 240.115 1479.01 Q241.944 1482.55 245.555 1482.55 Q249.189 1482.55 250.995 1479.01 Q252.824 1475.44 252.824 1468.33 Q252.824 1461.2 250.995 1457.66 Q249.189 1454.1 245.555 1454.1 M245.555 1450.39 Q251.365 1450.39 254.421 1455 Q257.499 1459.58 257.499 1468.33 Q257.499 1477.06 254.421 1481.67 Q251.365 1486.25 245.555 1486.25 Q239.745 1486.25 236.666 1481.67 Q233.611 1477.06 233.611 1468.33 Q233.611 1459.58 236.666 1455 Q239.745 1450.39 245.555 1450.39 Z" fill="#000000" fill-rule="nonzero" fill-opacity="1" /><path clip-path="url(#clip880)" d="M887.435 1481.64 L895.074 1481.64 L895.074 1455.28 L886.764 1456.95 L886.764 1452.69 L895.028 1451.02 L899.703 1451.02 L899.703 1481.64 L907.342 1481.64 L907.342 1485.58 L887.435 1485.58 L887.435 1481.64 Z" fill="#000000" fill-rule="nonzero" fill-opacity="1" /><path clip-path="url(#clip880)" d="M926.787 1454.1 Q923.176 1454.1 921.347 1457.66 Q919.541 1461.2 919.541 1468.33 Q919.541 1475.44 921.347 1479.01 Q923.176 1482.55 926.787 1482.55 Q930.421 1482.55 932.226 1479.01 Q934.055 1475.44 934.055 1468.33 Q934.055 1461.2 932.226 1457.66 Q930.421 1454.1 926.787 1454.1 M926.787 1450.39 Q932.597 1450.39 935.652 1455 Q938.731 1459.58 938.731 1468.33 Q938.731 1477.06 935.652 1481.67 Q932.597 1486.25 926.787 1486.25 Q920.976 1486.25 917.898 1481.67 Q914.842 1477.06 914.842 1468.33 Q914.842 1459.58 917.898 1455 Q920.976 1450.39 926.787 1450.39 Z" fill="#000000" fill-rule="nonzero" fill-opacity="1" /><path clip-path="url(#clip880)" d="M956.949 1454.1 Q953.337 1454.1 951.509 1457.66 Q949.703 1461.2 949.703 1468.33 Q949.703 1475.44 951.509 1479.01 Q953.337 1482.55 956.949 1482.55 Q960.583 1482.55 962.388 1479.01 Q964.217 1475.44 964.217 1468.33 Q964.217 1461.2 962.388 1457.66 Q960.583 1454.1 956.949 1454.1 M956.949 1450.39 Q962.759 1450.39 965.814 1455 Q968.893 1459.58 968.893 1468.33 Q968.893 1477.06 965.814 1481.67 Q962.759 1486.25 956.949 1486.25 Q951.138 1486.25 948.06 1481.67 Q945.004 1477.06 945.004 1468.33 Q945.004 1459.58 948.06 1455 Q951.138 1450.39 956.949 1450.39 Z" fill="#000000" fill-rule="nonzero" fill-opacity="1" /><path clip-path="url(#clip880)" d="M1573.79 1481.64 L1590.11 1481.64 L1590.11 1485.58 L1568.17 1485.58 L1568.17 1481.64 Q1570.83 1478.89 1575.41 1474.26 Q1580.02 1469.61 1581.2 1468.27 Q1583.45 1465.74 1584.33 1464.01 Q1585.23 1462.25 1585.23 1460.56 Q1585.23 1457.8 1583.28 1456.07 Q1581.36 1454.33 1578.26 1454.33 Q1576.06 1454.33 1573.61 1455.09 Q1571.18 1455.86 1568.4 1457.41 L1568.4 1452.69 Q1571.22 1451.55 1573.68 1450.97 Q1576.13 1450.39 1578.17 1450.39 Q1583.54 1450.39 1586.73 1453.08 Q1589.93 1455.77 1589.93 1460.26 Q1589.93 1462.39 1589.12 1464.31 Q1588.33 1466.2 1586.22 1468.8 Q1585.65 1469.47 1582.54 1472.69 Q1579.44 1475.88 1573.79 1481.64 Z" fill="#000000" fill-rule="nonzero" fill-opacity="1" /><path clip-path="url(#clip880)" d="M1609.93 1454.1 Q1606.32 1454.1 1604.49 1457.66 Q1602.68 1461.2 1602.68 1468.33 Q1602.68 1475.44 1604.49 1479.01 Q1606.32 1482.55 1609.93 1482.55 Q1613.56 1482.55 1615.37 1479.01 Q1617.2 1475.44 1617.2 1468.33 Q1617.2 1461.2 1615.37 1457.66 Q1613.56 1454.1 1609.93 1454.1 M1609.93 1450.39 Q1615.74 1450.39 1618.79 1455 Q1621.87 1459.58 1621.87 1468.33 Q1621.87 1477.06 1618.79 1481.67 Q1615.74 1486.25 1609.93 1486.25 Q1604.12 1486.25 1601.04 1481.67 Q1597.98 1477.06 1597.98 1468.33 Q1597.98 1459.58 1601.04 1455 Q1604.12 1450.39 1609.93 1450.39 Z" fill="#000000" fill-rule="nonzero" fill-opacity="1" /><path clip-path="url(#clip880)" d="M1640.09 1454.1 Q1636.48 1454.1 1634.65 1457.66 Q1632.84 1461.2 1632.84 1468.33 Q1632.84 1475.44 1634.65 1479.01 Q1636.48 1482.55 1640.09 1482.55 Q1643.72 1482.55 1645.53 1479.01 Q1647.36 1475.44 1647.36 1468.33 Q1647.36 1461.2 1645.53 1457.66 Q1643.72 1454.1 1640.09 1454.1 M1640.09 1450.39 Q1645.9 1450.39 1648.96 1455 Q1652.03 1459.58 1652.03 1468.33 Q1652.03 1477.06 1648.96 1481.67 Q1645.9 1486.25 1640.09 1486.25 Q1634.28 1486.25 1631.2 1481.67 Q1628.15 1477.06 1628.15 1468.33 Q1628.15 1459.58 1631.2 1455 Q1634.28 1450.39 1640.09 1450.39 Z" fill="#000000" fill-rule="nonzero" fill-opacity="1" /><path clip-path="url(#clip880)" d="M2266.14 1466.95 Q2269.49 1467.66 2271.37 1469.93 Q2273.27 1472.2 2273.27 1475.53 Q2273.27 1480.65 2269.75 1483.45 Q2266.23 1486.25 2259.75 1486.25 Q2257.57 1486.25 2255.26 1485.81 Q2252.97 1485.39 2250.51 1484.54 L2250.51 1480.02 Q2252.46 1481.16 2254.77 1481.74 Q2257.09 1482.32 2259.61 1482.32 Q2264.01 1482.32 2266.3 1480.58 Q2268.61 1478.84 2268.61 1475.53 Q2268.61 1472.48 2266.46 1470.77 Q2264.33 1469.03 2260.51 1469.03 L2256.48 1469.03 L2256.48 1465.19 L2260.7 1465.19 Q2264.15 1465.19 2265.97 1463.82 Q2267.8 1462.43 2267.8 1459.84 Q2267.8 1457.18 2265.9 1455.77 Q2264.03 1454.33 2260.51 1454.33 Q2258.59 1454.33 2256.39 1454.75 Q2254.19 1455.16 2251.55 1456.04 L2251.55 1451.88 Q2254.22 1451.14 2256.53 1450.77 Q2258.87 1450.39 2260.93 1450.39 Q2266.25 1450.39 2269.35 1452.83 Q2272.46 1455.23 2272.46 1459.35 Q2272.46 1462.22 2270.81 1464.21 Q2269.17 1466.18 2266.14 1466.95 Z" fill="#000000" fill-rule="nonzero" fill-opacity="1" /><path clip-path="url(#clip880)" d="M2292.13 1454.1 Q2288.52 1454.1 2286.69 1457.66 Q2284.89 1461.2 2284.89 1468.33 Q2284.89 1475.44 2286.69 1479.01 Q2288.52 1482.55 2292.13 1482.55 Q2295.77 1482.55 2297.57 1479.01 Q2299.4 1475.44 2299.4 1468.33 Q2299.4 1461.2 2297.57 1457.66 Q2295.77 1454.1 2292.13 1454.1 M2292.13 1450.39 Q2297.94 1450.39 2301 1455 Q2304.08 1459.58 2304.08 1468.33 Q2304.08 1477.06 2301 1481.67 Q2297.94 1486.25 2292.13 1486.25 Q2286.32 1486.25 2283.24 1481.67 Q2280.19 1477.06 2280.19 1468.33 Q2280.19 1459.58 2283.24 1455 Q2286.32 1450.39 2292.13 1450.39 Z" fill="#000000" fill-rule="nonzero" fill-opacity="1" /><path clip-path="url(#clip880)" d="M2322.29 1454.1 Q2318.68 1454.1 2316.85 1457.66 Q2315.05 1461.2 2315.05 1468.33 Q2315.05 1475.44 2316.85 1479.01 Q2318.68 1482.55 2322.29 1482.55 Q2325.93 1482.55 2327.73 1479.01 Q2329.56 1475.44 2329.56 1468.33 Q2329.56 1461.2 2327.73 1457.66 Q2325.93 1454.1 2322.29 1454.1 M2322.29 1450.39 Q2328.1 1450.39 2331.16 1455 Q2334.24 1459.58 2334.24 1468.33 Q2334.24 1477.06 2331.16 1481.67 Q2328.1 1486.25 2322.29 1486.25 Q2316.48 1486.25 2313.4 1481.67 Q2310.35 1477.06 2310.35 1468.33 Q2310.35 1459.58 2313.4 1455 Q2316.48 1450.39 2322.29 1450.39 Z" fill="#000000" fill-rule="nonzero" fill-opacity="1" /><path clip-path="url(#clip880)" d="M1286.91 1524.09 L1303.37 1568.04 L1297.16 1568.04 L1287.17 1541.69 L1274.88 1568.04 L1268.68 1568.04 L1284.3 1533.86 L1281.95 1527.56 Q1280.45 1523.55 1277.05 1523.55 L1273.99 1523.55 L1273.99 1518.52 L1277.71 1518.58 Q1284.91 1518.68 1286.91 1524.09 Z" fill="#000000" fill-rule="nonzero" fill-opacity="1" /><polyline clip-path="url(#clip880)" style="stroke:#000000; stroke-linecap:round; stroke-linejoin:round; stroke-width:4; stroke-opacity:1; fill:none" points="219.288,1423.18 219.288,123.472 "/>
<polyline clip-path="url(#clip880)" style="stroke:#000000; stroke-linecap:round; stroke-linejoin:round; stroke-width:4; stroke-opacity:1; fill:none" points="219.288,1251.1 238.185,1251.1 "/>
<polyline clip-path="url(#clip880)" style="stroke:#000000; stroke-linecap:round; stroke-linejoin:round; stroke-width:4; stroke-opacity:1; fill:none" points="219.288,1006.19 238.185,1006.19 "/>
<polyline clip-path="url(#clip880)" style="stroke:#000000; stroke-linecap:round; stroke-linejoin:round; stroke-width:4; stroke-opacity:1; fill:none" points="219.288,761.271 238.185,761.271 "/>
<polyline clip-path="url(#clip880)" style="stroke:#000000; stroke-linecap:round; stroke-linejoin:round; stroke-width:4; stroke-opacity:1; fill:none" points="219.288,516.356 238.185,516.356 "/>
<polyline clip-path="url(#clip880)" style="stroke:#000000; stroke-linecap:round; stroke-linejoin:round; stroke-width:4; stroke-opacity:1; fill:none" points="219.288,271.44 238.185,271.44 "/>
<path clip-path="url(#clip880)" d="M126.691 1249.24 Q123.543 1249.24 121.691 1251.39 Q119.862 1253.54 119.862 1257.29 Q119.862 1261.02 121.691 1263.2 Q123.543 1265.35 126.691 1265.35 Q129.839 1265.35 131.667 1263.2 Q133.519 1261.02 133.519 1257.29 Q133.519 1253.54 131.667 1251.39 Q129.839 1249.24 126.691 1249.24 M135.973 1234.59 L135.973 1238.85 Q134.214 1238.01 132.408 1237.57 Q130.626 1237.13 128.867 1237.13 Q124.237 1237.13 121.783 1240.26 Q119.353 1243.38 119.006 1249.7 Q120.371 1247.69 122.431 1246.62 Q124.492 1245.54 126.968 1245.54 Q132.177 1245.54 135.186 1248.71 Q138.218 1251.85 138.218 1257.29 Q138.218 1262.62 135.07 1265.84 Q131.922 1269.05 126.691 1269.05 Q120.695 1269.05 117.524 1264.47 Q114.353 1259.86 114.353 1251.14 Q114.353 1242.94 118.242 1238.08 Q122.13 1233.2 128.681 1233.2 Q130.441 1233.2 132.223 1233.54 Q134.029 1233.89 135.973 1234.59 Z" fill="#000000" fill-rule="nonzero" fill-opacity="1" /><path clip-path="url(#clip880)" d="M146.274 1262.5 L151.158 1262.5 L151.158 1268.38 L146.274 1268.38 L146.274 1262.5 Z" fill="#000000" fill-rule="nonzero" fill-opacity="1" /><path clip-path="url(#clip880)" d="M171.343 1236.9 Q167.732 1236.9 165.903 1240.47 Q164.098 1244.01 164.098 1251.14 Q164.098 1258.24 165.903 1261.81 Q167.732 1265.35 171.343 1265.35 Q174.977 1265.35 176.783 1261.81 Q178.612 1258.24 178.612 1251.14 Q178.612 1244.01 176.783 1240.47 Q174.977 1236.9 171.343 1236.9 M171.343 1233.2 Q177.153 1233.2 180.209 1237.8 Q183.288 1242.39 183.288 1251.14 Q183.288 1259.86 180.209 1264.47 Q177.153 1269.05 171.343 1269.05 Q165.533 1269.05 162.454 1264.47 Q159.399 1259.86 159.399 1251.14 Q159.399 1242.39 162.454 1237.8 Q165.533 1233.2 171.343 1233.2 Z" fill="#000000" fill-rule="nonzero" fill-opacity="1" /><path clip-path="url(#clip880)" d="M127.686 1004.32 Q124.538 1004.32 122.686 1006.48 Q120.857 1008.63 120.857 1012.38 Q120.857 1016.11 122.686 1018.28 Q124.538 1020.43 127.686 1020.43 Q130.834 1020.43 132.663 1018.28 Q134.515 1016.11 134.515 1012.38 Q134.515 1008.63 132.663 1006.48 Q130.834 1004.32 127.686 1004.32 M136.968 989.671 L136.968 993.93 Q135.209 993.096 133.404 992.657 Q131.621 992.217 129.862 992.217 Q125.232 992.217 122.779 995.342 Q120.348 998.467 120.001 1004.79 Q121.367 1002.77 123.427 1001.71 Q125.487 1000.62 127.964 1000.62 Q133.172 1000.62 136.181 1003.79 Q139.214 1006.94 139.214 1012.38 Q139.214 1017.7 136.066 1020.92 Q132.917 1024.14 127.686 1024.14 Q121.691 1024.14 118.519 1019.55 Q115.348 1014.95 115.348 1006.22 Q115.348 998.027 119.237 993.166 Q123.126 988.282 129.677 988.282 Q131.436 988.282 133.218 988.629 Q135.024 988.976 136.968 989.671 Z" fill="#000000" fill-rule="nonzero" fill-opacity="1" /><path clip-path="url(#clip880)" d="M147.269 1017.59 L152.153 1017.59 L152.153 1023.47 L147.269 1023.47 L147.269 1017.59 Z" fill="#000000" fill-rule="nonzero" fill-opacity="1" /><path clip-path="url(#clip880)" d="M162.385 988.907 L180.741 988.907 L180.741 992.842 L166.667 992.842 L166.667 1001.31 Q167.686 1000.97 168.704 1000.8 Q169.723 1000.62 170.741 1000.62 Q176.528 1000.62 179.908 1003.79 Q183.288 1006.96 183.288 1012.38 Q183.288 1017.96 179.815 1021.06 Q176.343 1024.14 170.024 1024.14 Q167.848 1024.14 165.579 1023.77 Q163.334 1023.4 160.927 1022.66 L160.927 1017.96 Q163.01 1019.09 165.232 1019.65 Q167.454 1020.2 169.931 1020.2 Q173.936 1020.2 176.274 1018.1 Q178.612 1015.99 178.612 1012.38 Q178.612 1008.77 176.274 1006.66 Q173.936 1004.55 169.931 1004.55 Q168.056 1004.55 166.181 1004.97 Q164.329 1005.39 162.385 1006.27 L162.385 988.907 Z" fill="#000000" fill-rule="nonzero" fill-opacity="1" /><path clip-path="url(#clip880)" d="M114.931 743.991 L137.154 743.991 L137.154 745.982 L124.607 778.551 L119.723 778.551 L131.529 747.926 L114.931 747.926 L114.931 743.991 Z" fill="#000000" fill-rule="nonzero" fill-opacity="1" /><path clip-path="url(#clip880)" d="M146.274 772.672 L151.158 772.672 L151.158 778.551 L146.274 778.551 L146.274 772.672 Z" fill="#000000" fill-rule="nonzero" fill-opacity="1" /><path clip-path="url(#clip880)" d="M171.343 747.07 Q167.732 747.07 165.903 750.635 Q164.098 754.176 164.098 761.306 Q164.098 768.412 165.903 771.977 Q167.732 775.519 171.343 775.519 Q174.977 775.519 176.783 771.977 Q178.612 768.412 178.612 761.306 Q178.612 754.176 176.783 750.635 Q174.977 747.07 171.343 747.07 M171.343 743.366 Q177.153 743.366 180.209 747.973 Q183.288 752.556 183.288 761.306 Q183.288 770.033 180.209 774.639 Q177.153 779.223 171.343 779.223 Q165.533 779.223 162.454 774.639 Q159.399 770.033 159.399 761.306 Q159.399 752.556 162.454 747.973 Q165.533 743.366 171.343 743.366 Z" fill="#000000" fill-rule="nonzero" fill-opacity="1" /><path clip-path="url(#clip880)" d="M115.927 499.076 L138.149 499.076 L138.149 501.067 L125.603 533.636 L120.718 533.636 L132.524 503.011 L115.927 503.011 L115.927 499.076 Z" fill="#000000" fill-rule="nonzero" fill-opacity="1" /><path clip-path="url(#clip880)" d="M147.269 527.756 L152.153 527.756 L152.153 533.636 L147.269 533.636 L147.269 527.756 Z" fill="#000000" fill-rule="nonzero" fill-opacity="1" /><path clip-path="url(#clip880)" d="M162.385 499.076 L180.741 499.076 L180.741 503.011 L166.667 503.011 L166.667 511.483 Q167.686 511.136 168.704 510.974 Q169.723 510.789 170.741 510.789 Q176.528 510.789 179.908 513.96 Q183.288 517.131 183.288 522.548 Q183.288 528.127 179.815 531.228 Q176.343 534.307 170.024 534.307 Q167.848 534.307 165.579 533.937 Q163.334 533.566 160.927 532.826 L160.927 528.127 Q163.01 529.261 165.232 529.816 Q167.454 530.372 169.931 530.372 Q173.936 530.372 176.274 528.265 Q178.612 526.159 178.612 522.548 Q178.612 518.937 176.274 516.83 Q173.936 514.724 169.931 514.724 Q168.056 514.724 166.181 515.141 Q164.329 515.557 162.385 516.437 L162.385 499.076 Z" fill="#000000" fill-rule="nonzero" fill-opacity="1" /><path clip-path="url(#clip880)" d="M126.112 272.308 Q122.779 272.308 120.857 274.091 Q118.959 275.873 118.959 278.998 Q118.959 282.123 120.857 283.906 Q122.779 285.688 126.112 285.688 Q129.445 285.688 131.367 283.906 Q133.288 282.1 133.288 278.998 Q133.288 275.873 131.367 274.091 Q129.468 272.308 126.112 272.308 M121.436 270.318 Q118.427 269.577 116.737 267.517 Q115.07 265.457 115.07 262.494 Q115.07 258.35 118.01 255.943 Q120.973 253.535 126.112 253.535 Q131.274 253.535 134.214 255.943 Q137.154 258.35 137.154 262.494 Q137.154 265.457 135.464 267.517 Q133.797 269.577 130.811 270.318 Q134.191 271.105 136.066 273.396 Q137.964 275.688 137.964 278.998 Q137.964 284.021 134.885 286.706 Q131.83 289.392 126.112 289.392 Q120.394 289.392 117.316 286.706 Q114.26 284.021 114.26 278.998 Q114.26 275.688 116.158 273.396 Q118.056 271.105 121.436 270.318 M119.723 262.933 Q119.723 265.619 121.39 267.123 Q123.08 268.628 126.112 268.628 Q129.121 268.628 130.811 267.123 Q132.524 265.619 132.524 262.933 Q132.524 260.248 130.811 258.744 Q129.121 257.239 126.112 257.239 Q123.08 257.239 121.39 258.744 Q119.723 260.248 119.723 262.933 Z" fill="#000000" fill-rule="nonzero" fill-opacity="1" /><path clip-path="url(#clip880)" d="M146.274 282.841 L151.158 282.841 L151.158 288.72 L146.274 288.72 L146.274 282.841 Z" fill="#000000" fill-rule="nonzero" fill-opacity="1" /><path clip-path="url(#clip880)" d="M171.343 257.239 Q167.732 257.239 165.903 260.804 Q164.098 264.346 164.098 271.475 Q164.098 278.582 165.903 282.146 Q167.732 285.688 171.343 285.688 Q174.977 285.688 176.783 282.146 Q178.612 278.582 178.612 271.475 Q178.612 264.346 176.783 260.804 Q174.977 257.239 171.343 257.239 M171.343 253.535 Q177.153 253.535 180.209 258.142 Q183.288 262.725 183.288 271.475 Q183.288 280.202 180.209 284.808 Q177.153 289.392 171.343 289.392 Q165.533 289.392 162.454 284.808 Q159.399 280.202 159.399 271.475 Q159.399 262.725 162.454 258.142 Q165.533 253.535 171.343 253.535 Z" fill="#000000" fill-rule="nonzero" fill-opacity="1" /><path clip-path="url(#clip880)" d="M16.4842 1061.85 L16.4842 1055.39 L45.3526 1055.39 Q52.9915 1055.39 56.3653 1052.62 Q59.7073 1049.85 59.7073 1043.65 Q59.7073 1037.47 56.3653 1034.7 Q52.9915 1031.93 45.3526 1031.93 L16.4842 1031.93 L16.4842 1025.47 L46.1484 1025.47 Q55.4423 1025.47 60.1847 1030.09 Q64.9272 1034.67 64.9272 1043.65 Q64.9272 1052.65 60.1847 1057.27 Q55.4423 1061.85 46.1484 1061.85 L16.4842 1061.85 Z" fill="#000000" fill-rule="nonzero" fill-opacity="1" /><path clip-path="url(#clip880)" d="M58.657 1008 L77.5631 1008 L77.5631 1013.89 L28.3562 1013.89 L28.3562 1008 L33.7671 1008 Q30.5842 1006.15 29.0564 1003.35 Q27.4968 1000.52 27.4968 996.603 Q27.4968 990.11 32.6531 986.068 Q37.8093 981.994 46.212 981.994 Q54.6147 981.994 59.771 986.068 Q64.9272 990.11 64.9272 996.603 Q64.9272 1000.52 63.3994 1003.35 Q61.8398 1006.15 58.657 1008 M46.212 988.073 Q39.7508 988.073 36.0905 990.747 Q32.3984 993.388 32.3984 998.035 Q32.3984 1002.68 36.0905 1005.36 Q39.7508 1008 46.212 1008 Q52.6732 1008 56.3653 1005.36 Q60.0256 1002.68 60.0256 998.035 Q60.0256 993.388 56.3653 990.747 Q52.6732 988.073 46.212 988.073 Z" fill="#000000" fill-rule="nonzero" fill-opacity="1" /><path clip-path="url(#clip880)" d="M58.657 966.621 L77.5631 966.621 L77.5631 972.509 L28.3562 972.509 L28.3562 966.621 L33.7671 966.621 Q30.5842 964.775 29.0564 961.974 Q27.4968 959.141 27.4968 955.226 Q27.4968 948.733 32.6531 944.691 Q37.8093 940.617 46.212 940.617 Q54.6147 940.617 59.771 944.691 Q64.9272 948.733 64.9272 955.226 Q64.9272 959.141 63.3994 961.974 Q61.8398 964.775 58.657 966.621 M46.212 946.696 Q39.7508 946.696 36.0905 949.37 Q32.3984 952.011 32.3984 956.658 Q32.3984 961.305 36.0905 963.979 Q39.7508 966.621 46.212 966.621 Q52.6732 966.621 56.3653 963.979 Q60.0256 961.305 60.0256 956.658 Q60.0256 952.011 56.3653 949.37 Q52.6732 946.696 46.212 946.696 Z" fill="#000000" fill-rule="nonzero" fill-opacity="1" /><path clip-path="url(#clip880)" d="M44.7161 900.417 L47.5806 900.417 L47.5806 927.344 Q53.6281 926.962 56.8109 923.716 Q59.9619 920.437 59.9619 914.613 Q59.9619 911.239 59.1344 908.088 Q58.3069 904.905 56.6518 901.786 L62.1899 901.786 Q63.5267 904.937 64.227 908.247 Q64.9272 911.557 64.9272 914.963 Q64.9272 923.493 59.9619 928.49 Q54.9967 933.455 46.5303 933.455 Q37.7774 933.455 32.6531 928.745 Q27.4968 924.002 27.4968 915.981 Q27.4968 908.788 32.1438 904.619 Q36.7589 900.417 44.7161 900.417 M42.9973 906.274 Q38.1912 906.337 35.3266 908.979 Q32.4621 911.589 32.4621 915.918 Q32.4621 920.819 35.2312 923.779 Q38.0002 926.708 43.0292 927.153 L42.9973 906.274 Z" fill="#000000" fill-rule="nonzero" fill-opacity="1" /><path clip-path="url(#clip880)" d="M33.8307 870.148 Q33.2578 871.135 33.0032 872.313 Q32.7167 873.459 32.7167 874.859 Q32.7167 879.824 35.9632 882.498 Q39.1779 885.14 45.2253 885.14 L64.0042 885.14 L64.0042 891.028 L28.3562 891.028 L28.3562 885.14 L33.8944 885.14 Q30.6479 883.294 29.0883 880.334 Q27.4968 877.373 27.4968 873.14 Q27.4968 872.536 27.5923 871.803 Q27.656 871.071 27.8151 870.18 L33.8307 870.148 Z" fill="#000000" fill-rule="nonzero" fill-opacity="1" /><path clip-path="url(#clip880)" d="M41.3104 836.601 L58.7206 836.601 L58.7206 826.289 Q58.7206 821.101 56.5881 818.618 Q54.4238 816.104 49.9996 816.104 Q45.5436 816.104 43.4429 818.618 Q41.3104 821.101 41.3104 826.289 L41.3104 836.601 M21.7677 836.601 L36.0905 836.601 L36.0905 827.084 Q36.0905 822.374 34.34 820.082 Q32.5576 817.759 28.9291 817.759 Q25.3325 817.759 23.5501 820.082 Q21.7677 822.374 21.7677 827.084 L21.7677 836.601 M16.4842 843.03 L16.4842 826.607 Q16.4842 819.255 19.5397 815.276 Q22.5952 811.297 28.2289 811.297 Q32.5894 811.297 35.1675 813.334 Q37.7456 815.371 38.3822 819.318 Q39.4007 814.576 42.6472 811.966 Q45.8619 809.324 50.6998 809.324 Q57.0655 809.324 60.5348 813.653 Q64.0042 817.981 64.0042 825.97 L64.0042 843.03 L16.4842 843.03 Z" fill="#000000" fill-rule="nonzero" fill-opacity="1" /><path clip-path="url(#clip880)" d="M32.4621 784.752 Q32.4621 789.463 36.1542 792.2 Q39.8145 794.938 46.212 794.938 Q52.6095 794.938 56.3017 792.232 Q59.9619 789.495 59.9619 784.752 Q59.9619 780.074 56.2698 777.336 Q52.5777 774.599 46.212 774.599 Q39.8781 774.599 36.186 777.336 Q32.4621 780.074 32.4621 784.752 M27.4968 784.752 Q27.4968 777.114 32.4621 772.753 Q37.4273 768.393 46.212 768.393 Q54.9649 768.393 59.9619 772.753 Q64.9272 777.114 64.9272 784.752 Q64.9272 792.423 59.9619 796.784 Q54.9649 801.112 46.212 801.112 Q37.4273 801.112 32.4621 796.784 Q27.4968 792.423 27.4968 784.752 Z" fill="#000000" fill-rule="nonzero" fill-opacity="1" /><path clip-path="url(#clip880)" d="M49.9359 759.29 L28.3562 759.29 L28.3562 753.433 L49.7131 753.433 Q54.7739 753.433 57.3202 751.46 Q59.8346 749.486 59.8346 745.54 Q59.8346 740.797 56.8109 738.06 Q53.7872 735.291 48.5673 735.291 L28.3562 735.291 L28.3562 729.434 L64.0042 729.434 L64.0042 735.291 L58.5296 735.291 Q61.7762 737.423 63.3676 740.256 Q64.9272 743.057 64.9272 746.781 Q64.9272 752.924 61.1078 756.107 Q57.2883 759.29 49.9359 759.29 M27.4968 744.553 L27.4968 744.553 Z" fill="#000000" fill-rule="nonzero" fill-opacity="1" /><path clip-path="url(#clip880)" d="M42.4881 687.739 L64.0042 687.739 L64.0042 693.596 L42.679 693.596 Q37.6183 693.596 35.1038 695.569 Q32.5894 697.542 32.5894 701.489 Q32.5894 706.231 35.6131 708.969 Q38.6368 711.706 43.8567 711.706 L64.0042 711.706 L64.0042 717.594 L28.3562 717.594 L28.3562 711.706 L33.8944 711.706 Q30.6797 709.605 29.0883 706.773 Q27.4968 703.908 27.4968 700.184 Q27.4968 694.041 31.3163 690.89 Q35.1038 687.739 42.4881 687.739 Z" fill="#000000" fill-rule="nonzero" fill-opacity="1" /><path clip-path="url(#clip880)" d="M33.7671 652.6 L14.479 652.6 L14.479 646.744 L64.0042 646.744 L64.0042 652.6 L58.657 652.6 Q61.8398 654.446 63.3994 657.279 Q64.9272 660.08 64.9272 664.027 Q64.9272 670.488 59.771 674.562 Q54.6147 678.604 46.212 678.604 Q37.8093 678.604 32.6531 674.562 Q27.4968 670.488 27.4968 664.027 Q27.4968 660.08 29.0564 657.279 Q30.5842 654.446 33.7671 652.6 M46.212 672.557 Q52.6732 672.557 56.3653 669.915 Q60.0256 667.241 60.0256 662.595 Q60.0256 657.948 56.3653 655.274 Q52.6732 652.6 46.212 652.6 Q39.7508 652.6 36.0905 655.274 Q32.3984 657.948 32.3984 662.595 Q32.3984 667.241 36.0905 669.915 Q39.7508 672.557 46.212 672.557 Z" fill="#000000" fill-rule="nonzero" fill-opacity="1" /><path clip-path="url(#clip880)" d="M32.4621 600.147 Q32.4621 604.858 36.1542 607.595 Q39.8145 610.332 46.212 610.332 Q52.6095 610.332 56.3017 607.627 Q59.9619 604.889 59.9619 600.147 Q59.9619 595.468 56.2698 592.731 Q52.5777 589.994 46.212 589.994 Q39.8781 589.994 36.186 592.731 Q32.4621 595.468 32.4621 600.147 M27.4968 600.147 Q27.4968 592.508 32.4621 588.148 Q37.4273 583.787 46.212 583.787 Q54.9649 583.787 59.9619 588.148 Q64.9272 592.508 64.9272 600.147 Q64.9272 607.818 59.9619 612.178 Q54.9649 616.507 46.212 616.507 Q37.4273 616.507 32.4621 612.178 Q27.4968 607.818 27.4968 600.147 Z" fill="#000000" fill-rule="nonzero" fill-opacity="1" /><path clip-path="url(#clip880)" d="M42.4881 544.447 L64.0042 544.447 L64.0042 550.303 L42.679 550.303 Q37.6183 550.303 35.1038 552.277 Q32.5894 554.25 32.5894 558.197 Q32.5894 562.939 35.6131 565.677 Q38.6368 568.414 43.8567 568.414 L64.0042 568.414 L64.0042 574.302 L28.3562 574.302 L28.3562 568.414 L33.8944 568.414 Q30.6797 566.313 29.0883 563.48 Q27.4968 560.616 27.4968 556.892 Q27.4968 550.749 31.3163 547.598 Q35.1038 544.447 42.4881 544.447 Z" fill="#000000" fill-rule="nonzero" fill-opacity="1" /><path clip-path="url(#clip880)" d="M57.5111 494.572 Q59.0389 493.426 59.0389 489.988 L59.0389 487.156 L64.0042 487.156 L64.0042 490.689 Q64.0042 496.418 60.9486 499.028 Q57.8294 501.638 51.0818 501.638 L34.2127 501.638 L34.2127 515.006 L28.3562 515.006 L28.3562 482.127 L34.2127 482.127 L34.2127 495.654 L51.4319 495.654 Q56.047 495.654 57.5111 494.572 Z" fill="#000000" fill-rule="nonzero" fill-opacity="1" /><path clip-path="url(#clip880)" d="M20.3991 495.431 L18.6485 497.245 Q18.0119 497.946 17.7255 498.455 Q17.4072 498.996 17.4072 499.41 Q17.4072 500.619 18.5848 501.192 Q19.7307 501.765 22.3406 501.829 L22.3406 505.807 Q18.0438 505.744 15.7203 504.12 Q13.365 502.497 13.365 499.601 Q13.365 498.391 13.8106 497.373 Q14.2562 496.354 15.3065 495.176 L17.0571 493.362 Q17.6936 492.662 18.0119 492.121 Q18.2984 491.612 18.2984 491.198 Q18.2984 489.988 17.1526 489.415 Q15.9749 488.843 13.365 488.779 L13.365 484.8 Q17.6618 484.864 20.0171 486.487 Q22.3406 488.11 22.3406 491.007 Q22.3406 492.216 21.895 493.235 Q21.4494 494.253 20.3991 495.431 Z" fill="#000000" fill-rule="nonzero" fill-opacity="1" /><path clip-path="url(#clip880)" d="M786.971 12.096 L795.194 12.096 L795.194 48.8377 Q795.194 58.5599 798.718 62.8538 Q802.242 67.1073 810.142 67.1073 Q818.001 67.1073 821.525 62.8538 Q825.049 58.5599 825.049 48.8377 L825.049 12.096 L833.272 12.096 L833.272 49.8504 Q833.272 61.6791 827.399 67.7149 Q821.565 73.7508 810.142 73.7508 Q798.678 73.7508 792.804 67.7149 Q786.971 61.6791 786.971 49.8504 L786.971 12.096 Z" fill="#000000" fill-rule="nonzero" fill-opacity="1" /><path clip-path="url(#clip880)" d="M855.512 65.7705 L855.512 89.8329 L848.018 89.8329 L848.018 27.2059 L855.512 27.2059 L855.512 34.0924 Q857.861 30.0415 861.426 28.0971 Q865.032 26.1121 870.014 26.1121 Q878.278 26.1121 883.423 32.6746 Q888.608 39.2371 888.608 49.9314 Q888.608 60.6258 883.423 67.1883 Q878.278 73.7508 870.014 73.7508 Q865.032 73.7508 861.426 71.8063 Q857.861 69.8214 855.512 65.7705 M880.871 49.9314 Q880.871 41.7081 877.468 37.0496 Q874.106 32.3505 868.191 32.3505 Q862.277 32.3505 858.874 37.0496 Q855.512 41.7081 855.512 49.9314 Q855.512 58.1548 858.874 62.8538 Q862.277 67.5124 868.191 67.5124 Q874.106 67.5124 877.468 62.8538 Q880.871 58.1548 880.871 49.9314 Z" fill="#000000" fill-rule="nonzero" fill-opacity="1" /><path clip-path="url(#clip880)" d="M908.174 65.7705 L908.174 89.8329 L900.679 89.8329 L900.679 27.2059 L908.174 27.2059 L908.174 34.0924 Q910.523 30.0415 914.088 28.0971 Q917.693 26.1121 922.676 26.1121 Q930.94 26.1121 936.084 32.6746 Q941.27 39.2371 941.27 49.9314 Q941.27 60.6258 936.084 67.1883 Q930.94 73.7508 922.676 73.7508 Q917.693 73.7508 914.088 71.8063 Q910.523 69.8214 908.174 65.7705 M933.532 49.9314 Q933.532 41.7081 930.13 37.0496 Q926.767 32.3505 920.853 32.3505 Q914.939 32.3505 911.536 37.0496 Q908.174 41.7081 908.174 49.9314 Q908.174 58.1548 911.536 62.8538 Q914.939 67.5124 920.853 67.5124 Q926.767 67.5124 930.13 62.8538 Q933.532 58.1548 933.532 49.9314 Z" fill="#000000" fill-rule="nonzero" fill-opacity="1" /><path clip-path="url(#clip880)" d="M992.432 48.0275 L992.432 51.6733 L958.162 51.6733 Q958.648 59.3701 962.78 63.421 Q966.952 67.4314 974.365 67.4314 Q978.659 67.4314 982.67 66.3781 Q986.721 65.3249 990.691 63.2184 L990.691 70.267 Q986.68 71.9684 982.467 72.8596 Q978.254 73.7508 973.92 73.7508 Q963.063 73.7508 956.703 67.4314 Q950.384 61.1119 950.384 50.3365 Q950.384 39.1965 956.379 32.6746 Q962.415 26.1121 972.624 26.1121 Q981.779 26.1121 987.085 32.0264 Q992.432 37.9003 992.432 48.0275 M984.979 45.84 Q984.898 39.7232 981.536 36.0774 Q978.214 32.4315 972.705 32.4315 Q966.466 32.4315 962.699 35.9558 Q958.972 39.4801 958.405 45.8805 L984.979 45.84 Z" fill="#000000" fill-rule="nonzero" fill-opacity="1" /><path clip-path="url(#clip880)" d="M1030.96 34.1734 Q1029.7 33.4443 1028.2 33.1202 Q1026.74 32.7556 1024.96 32.7556 Q1018.64 32.7556 1015.24 36.8875 Q1011.88 40.9789 1011.88 48.6757 L1011.88 72.576 L1004.38 72.576 L1004.38 27.2059 L1011.88 27.2059 L1011.88 34.2544 Q1014.23 30.1225 1017.99 28.1376 Q1021.76 26.1121 1027.15 26.1121 Q1027.92 26.1121 1028.85 26.2337 Q1029.78 26.3147 1030.92 26.5172 L1030.96 34.1734 Z" fill="#000000" fill-rule="nonzero" fill-opacity="1" /><path clip-path="url(#clip880)" d="M1073.65 43.6931 L1073.65 65.8515 L1086.78 65.8515 Q1093.38 65.8515 1096.54 63.1374 Q1099.74 60.3828 1099.74 54.752 Q1099.74 49.0808 1096.54 46.4072 Q1093.38 43.6931 1086.78 43.6931 L1073.65 43.6931 M1073.65 18.8205 L1073.65 37.0496 L1085.77 37.0496 Q1091.76 37.0496 1094.68 34.8216 Q1097.63 32.5531 1097.63 27.935 Q1097.63 23.3575 1094.68 21.089 Q1091.76 18.8205 1085.77 18.8205 L1073.65 18.8205 M1065.47 12.096 L1086.37 12.096 Q1095.73 12.096 1100.79 15.9849 Q1105.86 19.8737 1105.86 27.0438 Q1105.86 32.5936 1103.27 35.8748 Q1100.67 39.156 1095.65 39.9662 Q1101.69 41.2625 1105.01 45.3944 Q1108.37 49.4858 1108.37 55.6432 Q1108.37 63.745 1102.86 68.1605 Q1097.35 72.576 1087.18 72.576 L1065.47 72.576 L1065.47 12.096 Z" fill="#000000" fill-rule="nonzero" fill-opacity="1" /><path clip-path="url(#clip880)" d="M1139.64 32.4315 Q1133.65 32.4315 1130.16 37.1306 Q1126.68 41.7891 1126.68 49.9314 Q1126.68 58.0738 1130.12 62.7728 Q1133.61 67.4314 1139.64 67.4314 Q1145.6 67.4314 1149.08 62.7323 Q1152.56 58.0333 1152.56 49.9314 Q1152.56 41.8701 1149.08 37.1711 Q1145.6 32.4315 1139.64 32.4315 M1139.64 26.1121 Q1149.36 26.1121 1154.91 32.4315 Q1160.46 38.7509 1160.46 49.9314 Q1160.46 61.0714 1154.91 67.4314 Q1149.36 73.7508 1139.64 73.7508 Q1129.88 73.7508 1124.33 67.4314 Q1118.82 61.0714 1118.82 49.9314 Q1118.82 38.7509 1124.33 32.4315 Q1129.88 26.1121 1139.64 26.1121 Z" fill="#000000" fill-rule="nonzero" fill-opacity="1" /><path clip-path="url(#clip880)" d="M1172.05 54.671 L1172.05 27.2059 L1179.5 27.2059 L1179.5 54.3874 Q1179.5 60.8284 1182.01 64.0691 Q1184.53 67.2693 1189.55 67.2693 Q1195.59 67.2693 1199.07 63.421 Q1202.59 59.5726 1202.59 52.9291 L1202.59 27.2059 L1210.05 27.2059 L1210.05 72.576 L1202.59 72.576 L1202.59 65.6084 Q1199.88 69.7404 1196.27 71.7658 Q1192.71 73.7508 1187.97 73.7508 Q1180.15 73.7508 1176.1 68.8897 Q1172.05 64.0286 1172.05 54.671 M1190.81 26.1121 L1190.81 26.1121 Z" fill="#000000" fill-rule="nonzero" fill-opacity="1" /><path clip-path="url(#clip880)" d="M1263.11 45.1919 L1263.11 72.576 L1255.66 72.576 L1255.66 45.4349 Q1255.66 38.994 1253.15 35.7938 Q1250.64 32.5936 1245.61 32.5936 Q1239.58 32.5936 1236.09 36.4419 Q1232.61 40.2903 1232.61 46.9338 L1232.61 72.576 L1225.12 72.576 L1225.12 27.2059 L1232.61 27.2059 L1232.61 34.2544 Q1235.28 30.163 1238.89 28.1376 Q1242.54 26.1121 1247.27 26.1121 Q1255.09 26.1121 1259.1 30.9732 Q1263.11 35.7938 1263.11 45.1919 Z" fill="#000000" fill-rule="nonzero" fill-opacity="1" /><path clip-path="url(#clip880)" d="M1307.84 34.0924 L1307.84 9.54393 L1315.29 9.54393 L1315.29 72.576 L1307.84 72.576 L1307.84 65.7705 Q1305.49 69.8214 1301.88 71.8063 Q1298.32 73.7508 1293.29 73.7508 Q1285.07 73.7508 1279.88 67.1883 Q1274.74 60.6258 1274.74 49.9314 Q1274.74 39.2371 1279.88 32.6746 Q1285.07 26.1121 1293.29 26.1121 Q1298.32 26.1121 1301.88 28.0971 Q1305.49 30.0415 1307.84 34.0924 M1282.44 49.9314 Q1282.44 58.1548 1285.8 62.8538 Q1289.2 67.5124 1295.12 67.5124 Q1301.03 67.5124 1304.43 62.8538 Q1307.84 58.1548 1307.84 49.9314 Q1307.84 41.7081 1304.43 37.0496 Q1301.03 32.3505 1295.12 32.3505 Q1289.2 32.3505 1285.8 37.0496 Q1282.44 41.7081 1282.44 49.9314 Z" fill="#000000" fill-rule="nonzero" fill-opacity="1" /><path clip-path="url(#clip880)" d="M1374.59 32.4315 Q1368.6 32.4315 1365.12 37.1306 Q1361.63 41.7891 1361.63 49.9314 Q1361.63 58.0738 1365.08 62.7728 Q1368.56 67.4314 1374.59 67.4314 Q1380.55 67.4314 1384.03 62.7323 Q1387.52 58.0333 1387.52 49.9314 Q1387.52 41.8701 1384.03 37.1711 Q1380.55 32.4315 1374.59 32.4315 M1374.59 26.1121 Q1384.32 26.1121 1389.87 32.4315 Q1395.42 38.7509 1395.42 49.9314 Q1395.42 61.0714 1389.87 67.4314 Q1384.32 73.7508 1374.59 73.7508 Q1364.83 73.7508 1359.28 67.4314 Q1353.77 61.0714 1353.77 49.9314 Q1353.77 38.7509 1359.28 32.4315 Q1364.83 26.1121 1374.59 26.1121 Z" fill="#000000" fill-rule="nonzero" fill-opacity="1" /><path clip-path="url(#clip880)" d="M1445.49 45.1919 L1445.49 72.576 L1438.03 72.576 L1438.03 45.4349 Q1438.03 38.994 1435.52 35.7938 Q1433.01 32.5936 1427.99 32.5936 Q1421.95 32.5936 1418.47 36.4419 Q1414.98 40.2903 1414.98 46.9338 L1414.98 72.576 L1407.49 72.576 L1407.49 27.2059 L1414.98 27.2059 L1414.98 34.2544 Q1417.66 30.163 1421.26 28.1376 Q1424.91 26.1121 1429.65 26.1121 Q1437.46 26.1121 1441.48 30.9732 Q1445.49 35.7938 1445.49 45.1919 Z" fill="#000000" fill-rule="nonzero" fill-opacity="1" /><path clip-path="url(#clip880)" d="M1508.96 64.3122 Q1510.42 66.2566 1514.8 66.2566 L1518.4 66.2566 L1518.4 72.576 L1513.91 72.576 Q1506.61 72.576 1503.29 68.6871 Q1499.97 64.7172 1499.97 56.1293 L1499.97 34.6595 L1482.96 34.6595 L1482.96 27.2059 L1524.8 27.2059 L1524.8 34.6595 L1507.59 34.6595 L1507.59 56.5749 Q1507.59 62.4487 1508.96 64.3122 Z" fill="#000000" fill-rule="nonzero" fill-opacity="1" /><path clip-path="url(#clip880)" d="M1507.87 17.0786 L1505.56 14.8506 Q1504.67 14.0404 1504.02 13.6759 Q1503.33 13.2708 1502.81 13.2708 Q1501.27 13.2708 1500.54 14.7696 Q1499.81 16.2279 1499.73 19.5497 L1494.66 19.5497 Q1494.74 14.0809 1496.81 11.1238 Q1498.88 8.12611 1502.56 8.12611 Q1504.1 8.12611 1505.4 8.69324 Q1506.69 9.26037 1508.19 10.5972 L1510.5 12.8252 Q1511.39 13.6353 1512.08 14.0404 Q1512.73 14.405 1513.26 14.405 Q1514.8 14.405 1515.53 12.9467 Q1516.25 11.4479 1516.34 8.12611 L1521.4 8.12611 Q1521.32 13.5948 1519.25 16.5925 Q1517.19 19.5497 1513.5 19.5497 Q1511.96 19.5497 1510.66 18.9825 Q1509.37 18.4154 1507.87 17.0786 Z" fill="#000000" fill-rule="nonzero" fill-opacity="1" /><path clip-path="url(#clip880)" d="M1564.95 62.2867 L1573.49 62.2867 L1573.49 69.2543 L1566.85 82.2172 L1561.63 82.2172 L1564.95 69.2543 L1564.95 62.2867 Z" fill="#000000" fill-rule="nonzero" fill-opacity="1" /><path clip-path="url(#clip880)" d="M1616.11 12.096 L1627.13 12.096 L1653.95 62.6918 L1653.95 12.096 L1661.88 12.096 L1661.88 72.576 L1650.87 72.576 L1624.05 21.9802 L1624.05 72.576 L1616.11 72.576 L1616.11 12.096 Z" fill="#000000" fill-rule="nonzero" fill-opacity="1" /><path clip-path="url(#clip880)" d="M1678.82 34.9026 L1730.75 34.9026 L1730.75 41.7081 L1678.82 41.7081 L1678.82 34.9026 M1678.82 51.4303 L1730.75 51.4303 L1730.75 58.3168 L1678.82 58.3168 L1678.82 51.4303 Z" fill="#000000" fill-rule="nonzero" fill-opacity="1" /><path clip-path="url(#clip880)" d="M1748.49 12.096 L1780.62 12.096 L1780.62 18.9825 L1755.99 18.9825 L1755.99 33.8088 Q1757.77 33.2012 1759.55 32.9176 Q1761.33 32.5936 1763.12 32.5936 Q1773.24 32.5936 1779.16 38.1433 Q1785.07 43.6931 1785.07 53.1722 Q1785.07 62.9348 1779 68.3631 Q1772.92 73.7508 1761.86 73.7508 Q1758.05 73.7508 1754.08 73.1026 Q1750.15 72.4545 1745.94 71.1582 L1745.94 62.9348 Q1749.59 64.9198 1753.48 65.892 Q1757.36 66.8642 1761.7 66.8642 Q1768.71 66.8642 1772.8 63.1779 Q1776.89 59.4916 1776.89 53.1722 Q1776.89 46.8528 1772.8 43.1664 Q1768.71 39.4801 1761.7 39.4801 Q1758.42 39.4801 1755.14 40.2093 Q1751.9 40.9384 1748.49 42.4778 L1748.49 12.096 Z" fill="#000000" fill-rule="nonzero" fill-opacity="1" /><polyline clip-path="url(#clip882)" style="stroke:#009af9; stroke-linecap:round; stroke-linejoin:round; stroke-width:8; stroke-opacity:1; fill:none" points="279.669,1386.4 300.137,1263.28 320.605,1173 334.251,906.994 347.896,864.61 354.719,844.295 375.187,788.44 388.832,758.801 395.655,746.014 402.478,734.319 409.301,723.238 422.946,703.524 436.592,686.671 443.414,679.173 450.237,671.915 457.06,664.752 470.705,650.696 477.528,643.797 484.351,636.978 491.173,630.326 511.642,612.367 518.464,606.992 525.287,601.894 532.11,597.056 538.933,592.464 545.755,588.101 559.401,580.012 566.223,576.231 579.869,568.788 586.692,565.112 593.514,561.464 600.337,557.845 607.16,554.254 613.983,550.69 620.805,547.152 634.451,540.154 641.274,536.692 654.919,529.839 661.742,526.448 668.564,523.079 675.387,519.733 682.21,516.408 689.033,513.104 695.855,509.822 757.26,481.15 764.083,478.055 777.728,471.916 791.374,465.842 805.019,459.832 818.665,436.556 825.487,434.922 832.31,433.293 845.956,430.053 859.601,426.835 886.892,420.463 907.36,415.738 914.183,414.173 921.006,412.614 927.828,411.059 941.474,529.244 948.296,406.423 961.942,403.355 982.41,398.789 989.233,397.275 996.056,395.767 1009.7,392.762 1023.35,389.774 1036.99,386.803 1064.28,380.911 1071.11,379.448 1084.75,376.533 1091.57,375.082 1098.4,373.634 1105.22,372.19 1112.04,370.75 1125.69,367.881 1132.51,366.452 1139.33,365.026 1146.16,363.604 1152.98,362.186 1159.8,360.771 1166.62,359.36 1173.45,357.952 1180.27,356.548 1187.09,355.147 1193.91,353.749 1207.56,350.964 1214.38,349.577 1221.21,348.193 1228.03,346.812 1234.85,345.434 1241.67,344.059 1248.5,342.688 1255.32,341.32 1262.14,339.955 1275.79,337.234 1289.43,334.525 1296.26,333.175 1303.08,331.828 1309.9,330.485 1316.72,329.144 1337.19,325.138 1344.01,323.809 1350.84,322.483 1357.66,321.159 1364.48,319.838 1371.31,318.52 1378.13,317.205 1384.95,315.892 1391.77,314.582 1405.42,311.971 1412.24,310.669 1419.07,309.37 1432.71,306.779 1446.36,304.199 1460,301.63 1473.65,299.07 1480.47,297.794 1487.29,296.52 1500.94,293.981 1507.76,292.714 1514.58,291.451 1521.41,290.189 1535.05,287.674 1541.87,286.419 1548.7,285.167 1555.52,283.918 1562.34,282.67 1569.17,281.425 1582.81,278.942 1596.46,276.468 1603.28,275.235 1610.1,274.003 1616.92,272.774 1623.75,271.547 1630.57,270.322 1637.39,269.099 1644.22,267.879 1657.86,265.444 1664.68,264.23 1671.51,263.018 1678.33,261.808 1685.15,260.6 1691.97,259.394 1698.8,258.19 1705.62,256.988 1712.44,255.789 1719.27,254.591 1726.09,253.395 1732.91,252.202 1739.73,251.01 1746.56,249.82 1760.2,247.447 1767.02,246.263 1773.85,245.081 1780.67,243.901 1787.49,242.723 1794.32,241.547 1801.14,240.373 1814.78,238.03 1821.61,236.862 1828.43,235.695 1835.25,234.53 1842.07,233.367 1848.9,232.206 1855.72,231.046 1862.54,229.889 1869.37,228.733 1876.19,227.579 1883.01,226.427 1896.66,224.128 1903.48,222.981 1910.3,221.836 1917.12,220.692 1923.95,219.55 1930.77,218.411 1937.59,217.272 1944.42,216.136 1951.24,215.001 1958.06,213.868 1964.88,212.736 1971.71,211.606 1978.53,210.478 1985.35,209.352 1992.17,208.227 2019.47,203.744 2026.29,202.627 2033.11,201.512 2039.93,200.398 2046.76,199.287 2053.58,198.176 2060.4,197.067 2067.22,195.96 2080.87,193.75 2087.69,192.648 2101.34,190.447 2108.16,189.349 2114.98,188.253 2128.63,186.065 2135.45,184.973 2149.1,182.793 2155.92,181.706 2162.74,180.62 2169.57,179.535 2176.39,178.452 2183.21,177.37 2190.03,176.29 2203.68,174.134 2210.5,173.058 2217.32,171.984 2224.15,170.911 2230.97,169.839 2237.79,168.769 2244.62,167.7 2251.44,166.632 2258.26,165.566 2271.91,163.438 2278.73,162.376 2285.55,161.316 2292.37,160.256 "/>
</svg>
