<?xml version="1.0" encoding="utf-8"?>
<svg xmlns="http://www.w3.org/2000/svg" xmlns:xlink="http://www.w3.org/1999/xlink" width="600" height="400" viewBox="0 0 2400 1600">
<defs>
  <clipPath id="clip810">
    <rect x="0" y="0" width="2400" height="1600"/>
  </clipPath>
</defs>
<path clip-path="url(#clip810)" d="M0 1600 L2400 1600 L2400 8.88178e-14 L0 8.88178e-14  Z" fill="#ffffff" fill-rule="evenodd" fill-opacity="1"/>
<defs>
  <clipPath id="clip811">
    <rect x="480" y="0" width="1681" height="1600"/>
  </clipPath>
</defs>
<path clip-path="url(#clip810)" d="M219.288 1423.18 L2352.76 1423.18 L2352.76 123.472 L219.288 123.472  Z" fill="#ffffff" fill-rule="evenodd" fill-opacity="1"/>
<defs>
  <clipPath id="clip812">
    <rect x="219" y="123" width="2134" height="1301"/>
  </clipPath>
</defs>
<polyline clip-path="url(#clip812)" style="stroke:#000000; stroke-linecap:round; stroke-linejoin:round; stroke-width:2; stroke-opacity:0.1; fill:none" points="245.555,1423.18 245.555,123.472 "/>
<polyline clip-path="url(#clip812)" style="stroke:#000000; stroke-linecap:round; stroke-linejoin:round; stroke-width:2; stroke-opacity:0.1; fill:none" points="927.828,1423.18 927.828,123.472 "/>
<polyline clip-path="url(#clip812)" style="stroke:#000000; stroke-linecap:round; stroke-linejoin:round; stroke-width:2; stroke-opacity:0.1; fill:none" points="1610.1,1423.18 1610.1,123.472 "/>
<polyline clip-path="url(#clip812)" style="stroke:#000000; stroke-linecap:round; stroke-linejoin:round; stroke-width:2; stroke-opacity:0.1; fill:none" points="2292.37,1423.18 2292.37,123.472 "/>
<polyline clip-path="url(#clip812)" style="stroke:#000000; stroke-linecap:round; stroke-linejoin:round; stroke-width:2; stroke-opacity:0.1; fill:none" points="219.288,1251.1 2352.76,1251.1 "/>
<polyline clip-path="url(#clip812)" style="stroke:#000000; stroke-linecap:round; stroke-linejoin:round; stroke-width:2; stroke-opacity:0.1; fill:none" points="219.288,1006.19 2352.76,1006.19 "/>
<polyline clip-path="url(#clip812)" style="stroke:#000000; stroke-linecap:round; stroke-linejoin:round; stroke-width:2; stroke-opacity:0.1; fill:none" points="219.288,761.271 2352.76,761.271 "/>
<polyline clip-path="url(#clip812)" style="stroke:#000000; stroke-linecap:round; stroke-linejoin:round; stroke-width:2; stroke-opacity:0.1; fill:none" points="219.288,516.356 2352.76,516.356 "/>
<polyline clip-path="url(#clip812)" style="stroke:#000000; stroke-linecap:round; stroke-linejoin:round; stroke-width:2; stroke-opacity:0.1; fill:none" points="219.288,271.44 2352.76,271.44 "/>
<polyline clip-path="url(#clip810)" style="stroke:#000000; stroke-linecap:round; stroke-linejoin:round; stroke-width:4; stroke-opacity:1; fill:none" points="219.288,1423.18 2352.76,1423.18 "/>
<polyline clip-path="url(#clip810)" style="stroke:#000000; stroke-linecap:round; stroke-linejoin:round; stroke-width:4; stroke-opacity:1; fill:none" points="245.555,1423.18 245.555,1404.28 "/>
<polyline clip-path="url(#clip810)" style="stroke:#000000; stroke-linecap:round; stroke-linejoin:round; stroke-width:4; stroke-opacity:1; fill:none" points="927.828,1423.18 927.828,1404.28 "/>
<polyline clip-path="url(#clip810)" style="stroke:#000000; stroke-linecap:round; stroke-linejoin:round; stroke-width:4; stroke-opacity:1; fill:none" points="1610.1,1423.18 1610.1,1404.28 "/>
<polyline clip-path="url(#clip810)" style="stroke:#000000; stroke-linecap:round; stroke-linejoin:round; stroke-width:4; stroke-opacity:1; fill:none" points="2292.37,1423.18 2292.37,1404.28 "/>
<path clip-path="url(#clip810)" d="M245.555 1454.1 Q241.944 1454.1 240.115 1457.66 Q238.31 1461.2 238.31 1468.33 Q238.31 1475.44 240.115 1479.01 Q241.944 1482.55 245.555 1482.55 Q249.189 1482.55 250.995 1479.01 Q252.824 1475.44 252.824 1468.33 Q252.824 1461.2 250.995 1457.66 Q249.189 1454.1 245.555 1454.1 M245.555 1450.39 Q251.365 1450.39 254.421 1455 Q257.499 1459.58 257.499 1468.33 Q257.499 1477.06 254.421 1481.67 Q251.365 1486.25 245.555 1486.25 Q239.745 1486.25 236.666 1481.67 Q233.611 1477.06 233.611 1468.33 Q233.611 1459.58 236.666 1455 Q239.745 1450.39 245.555 1450.39 Z" fill="#000000" fill-rule="nonzero" fill-opacity="1" /><path clip-path="url(#clip810)" d="M887.435 1481.64 L895.074 1481.64 L895.074 1455.28 L886.764 1456.95 L886.764 1452.69 L895.028 1451.02 L899.703 1451.02 L899.703 1481.64 L907.342 1481.64 L907.342 1485.58 L887.435 1485.58 L887.435 1481.64 Z" fill="#000000" fill-rule="nonzero" fill-opacity="1" /><path clip-path="url(#clip810)" d="M926.787 1454.1 Q923.176 1454.1 921.347 1457.66 Q919.541 1461.2 919.541 1468.33 Q919.541 1475.44 921.347 1479.01 Q923.176 1482.55 926.787 1482.55 Q930.421 1482.55 932.226 1479.01 Q934.055 1475.44 934.055 1468.33 Q934.055 1461.2 932.226 1457.66 Q930.421 1454.1 926.787 1454.1 M926.787 1450.39 Q932.597 1450.39 935.652 1455 Q938.731 1459.58 938.731 1468.33 Q938.731 1477.06 935.652 1481.67 Q932.597 1486.25 926.787 1486.25 Q920.976 1486.25 917.898 1481.67 Q914.842 1477.06 914.842 1468.33 Q914.842 1459.58 917.898 1455 Q920.976 1450.39 926.787 1450.39 Z" fill="#000000" fill-rule="nonzero" fill-opacity="1" /><path clip-path="url(#clip810)" d="M956.949 1454.1 Q953.337 1454.1 951.509 1457.66 Q949.703 1461.2 949.703 1468.33 Q949.703 1475.44 951.509 1479.01 Q953.337 1482.55 956.949 1482.55 Q960.583 1482.55 962.388 1479.01 Q964.217 1475.44 964.217 1468.33 Q964.217 1461.2 962.388 1457.66 Q960.583 1454.1 956.949 1454.1 M956.949 1450.39 Q962.759 1450.39 965.814 1455 Q968.893 1459.58 968.893 1468.33 Q968.893 1477.06 965.814 1481.67 Q962.759 1486.25 956.949 1486.25 Q951.138 1486.25 948.06 1481.67 Q945.004 1477.06 945.004 1468.33 Q945.004 1459.58 948.06 1455 Q951.138 1450.39 956.949 1450.39 Z" fill="#000000" fill-rule="nonzero" fill-opacity="1" /><path clip-path="url(#clip810)" d="M1573.79 1481.64 L1590.11 1481.64 L1590.11 1485.58 L1568.17 1485.58 L1568.17 1481.64 Q1570.83 1478.89 1575.41 1474.26 Q1580.02 1469.61 1581.2 1468.27 Q1583.45 1465.74 1584.33 1464.01 Q1585.23 1462.25 1585.23 1460.56 Q1585.23 1457.8 1583.28 1456.07 Q1581.36 1454.33 1578.26 1454.33 Q1576.06 1454.33 1573.61 1455.09 Q1571.18 1455.86 1568.4 1457.41 L1568.4 1452.69 Q1571.22 1451.55 1573.68 1450.97 Q1576.13 1450.39 1578.17 1450.39 Q1583.54 1450.39 1586.73 1453.08 Q1589.93 1455.77 1589.93 1460.26 Q1589.93 1462.39 1589.12 1464.31 Q1588.33 1466.2 1586.22 1468.8 Q1585.65 1469.47 1582.54 1472.69 Q1579.44 1475.88 1573.79 1481.64 Z" fill="#000000" fill-rule="nonzero" fill-opacity="1" /><path clip-path="url(#clip810)" d="M1609.93 1454.1 Q1606.32 1454.1 1604.49 1457.66 Q1602.68 1461.2 1602.68 1468.33 Q1602.68 1475.44 1604.49 1479.01 Q1606.32 1482.55 1609.93 1482.55 Q1613.56 1482.55 1615.37 1479.01 Q1617.2 1475.44 1617.2 1468.33 Q1617.2 1461.2 1615.37 1457.66 Q1613.56 1454.1 1609.93 1454.1 M1609.93 1450.39 Q1615.74 1450.39 1618.79 1455 Q1621.87 1459.58 1621.87 1468.33 Q1621.87 1477.06 1618.79 1481.67 Q1615.74 1486.25 1609.93 1486.25 Q1604.12 1486.25 1601.04 1481.67 Q1597.98 1477.06 1597.98 1468.33 Q1597.98 1459.58 1601.04 1455 Q1604.12 1450.39 1609.93 1450.39 Z" fill="#000000" fill-rule="nonzero" fill-opacity="1" /><path clip-path="url(#clip810)" d="M1640.09 1454.1 Q1636.48 1454.1 1634.65 1457.66 Q1632.84 1461.2 1632.84 1468.33 Q1632.84 1475.44 1634.65 1479.01 Q1636.48 1482.55 1640.09 1482.55 Q1643.72 1482.55 1645.53 1479.01 Q1647.36 1475.44 1647.36 1468.33 Q1647.36 1461.2 1645.53 1457.66 Q1643.72 1454.1 1640.09 1454.1 M1640.09 1450.39 Q1645.9 1450.39 1648.96 1455 Q1652.03 1459.58 1652.03 1468.33 Q1652.03 1477.06 1648.96 1481.67 Q1645.9 1486.25 1640.09 1486.25 Q1634.28 1486.25 1631.2 1481.67 Q1628.15 1477.06 1628.15 1468.33 Q1628.15 1459.58 1631.2 1455 Q1634.28 1450.39 1640.09 1450.39 Z" fill="#000000" fill-rule="nonzero" fill-opacity="1" /><path clip-path="url(#clip810)" d="M2266.14 1466.95 Q2269.49 1467.66 2271.37 1469.93 Q2273.27 1472.2 2273.27 1475.53 Q2273.27 1480.65 2269.75 1483.45 Q2266.23 1486.25 2259.75 1486.25 Q2257.57 1486.25 2255.26 1485.81 Q2252.97 1485.39 2250.51 1484.54 L2250.51 1480.02 Q2252.46 1481.16 2254.77 1481.74 Q2257.09 1482.32 2259.61 1482.32 Q2264.01 1482.32 2266.3 1480.58 Q2268.61 1478.84 2268.61 1475.53 Q2268.61 1472.48 2266.46 1470.77 Q2264.33 1469.03 2260.51 1469.03 L2256.48 1469.03 L2256.48 1465.19 L2260.7 1465.19 Q2264.15 1465.19 2265.97 1463.82 Q2267.8 1462.43 2267.8 1459.84 Q2267.8 1457.18 2265.9 1455.77 Q2264.03 1454.33 2260.51 1454.33 Q2258.59 1454.33 2256.39 1454.75 Q2254.19 1455.16 2251.55 1456.04 L2251.55 1451.88 Q2254.22 1451.14 2256.53 1450.77 Q2258.87 1450.39 2260.93 1450.39 Q2266.25 1450.39 2269.35 1452.83 Q2272.46 1455.23 2272.46 1459.35 Q2272.46 1462.22 2270.81 1464.21 Q2269.17 1466.18 2266.14 1466.95 Z" fill="#000000" fill-rule="nonzero" fill-opacity="1" /><path clip-path="url(#clip810)" d="M2292.13 1454.1 Q2288.52 1454.1 2286.69 1457.66 Q2284.89 1461.2 2284.89 1468.33 Q2284.89 1475.44 2286.69 1479.01 Q2288.52 1482.55 2292.13 1482.55 Q2295.77 1482.55 2297.57 1479.01 Q2299.4 1475.44 2299.4 1468.33 Q2299.4 1461.2 2297.57 1457.66 Q2295.77 1454.1 2292.13 1454.1 M2292.13 1450.39 Q2297.94 1450.39 2301 1455 Q2304.08 1459.58 2304.08 1468.33 Q2304.08 1477.06 2301 1481.67 Q2297.94 1486.25 2292.13 1486.25 Q2286.32 1486.25 2283.24 1481.67 Q2280.19 1477.06 2280.19 1468.33 Q2280.19 1459.58 2283.24 1455 Q2286.32 1450.39 2292.13 1450.39 Z" fill="#000000" fill-rule="nonzero" fill-opacity="1" /><path clip-path="url(#clip810)" d="M2322.29 1454.1 Q2318.68 1454.1 2316.85 1457.66 Q2315.05 1461.2 2315.05 1468.33 Q2315.05 1475.44 2316.85 1479.01 Q2318.68 1482.55 2322.29 1482.55 Q2325.93 1482.55 2327.73 1479.01 Q2329.56 1475.44 2329.56 1468.33 Q2329.56 1461.2 2327.73 1457.66 Q2325.93 1454.1 2322.29 1454.1 M2322.29 1450.39 Q2328.1 1450.39 2331.16 1455 Q2334.24 1459.58 2334.24 1468.33 Q2334.24 1477.06 2331.16 1481.67 Q2328.1 1486.25 2322.29 1486.25 Q2316.48 1486.25 2313.4 1481.67 Q2310.35 1477.06 2310.35 1468.33 Q2310.35 1459.58 2313.4 1455 Q2316.48 1450.39 2322.29 1450.39 Z" fill="#000000" fill-rule="nonzero" fill-opacity="1" /><path clip-path="url(#clip810)" d="M1286.91 1524.09 L1303.37 1568.04 L1297.16 1568.04 L1287.17 1541.69 L1274.88 1568.04 L1268.68 1568.04 L1284.3 1533.86 L1281.95 1527.56 Q1280.45 1523.55 1277.05 1523.55 L1273.99 1523.55 L1273.99 1518.52 L1277.71 1518.58 Q1284.91 1518.68 1286.91 1524.09 Z" fill="#000000" fill-rule="nonzero" fill-opacity="1" /><polyline clip-path="url(#clip810)" style="stroke:#000000; stroke-linecap:round; stroke-linejoin:round; stroke-width:4; stroke-opacity:1; fill:none" points="219.288,1423.18 219.288,123.472 "/>
<polyline clip-path="url(#clip810)" style="stroke:#000000; stroke-linecap:round; stroke-linejoin:round; stroke-width:4; stroke-opacity:1; fill:none" points="219.288,1251.1 238.185,1251.1 "/>
<polyline clip-path="url(#clip810)" style="stroke:#000000; stroke-linecap:round; stroke-linejoin:round; stroke-width:4; stroke-opacity:1; fill:none" points="219.288,1006.19 238.185,1006.19 "/>
<polyline clip-path="url(#clip810)" style="stroke:#000000; stroke-linecap:round; stroke-linejoin:round; stroke-width:4; stroke-opacity:1; fill:none" points="219.288,761.271 238.185,761.271 "/>
<polyline clip-path="url(#clip810)" style="stroke:#000000; stroke-linecap:round; stroke-linejoin:round; stroke-width:4; stroke-opacity:1; fill:none" points="219.288,516.356 238.185,516.356 "/>
<polyline clip-path="url(#clip810)" style="stroke:#000000; stroke-linecap:round; stroke-linejoin:round; stroke-width:4; stroke-opacity:1; fill:none" points="219.288,271.44 238.185,271.44 "/>
<path clip-path="url(#clip810)" d="M126.691 1249.24 Q123.543 1249.24 121.691 1251.39 Q119.862 1253.54 119.862 1257.29 Q119.862 1261.02 121.691 1263.2 Q123.543 1265.35 126.691 1265.35 Q129.839 1265.35 131.667 1263.2 Q133.519 1261.02 133.519 1257.29 Q133.519 1253.54 131.667 1251.39 Q129.839 1249.24 126.691 1249.24 M135.973 1234.59 L135.973 1238.85 Q134.214 1238.01 132.408 1237.57 Q130.626 1237.13 128.867 1237.13 Q124.237 1237.13 121.783 1240.26 Q119.353 1243.38 119.006 1249.7 Q120.371 1247.69 122.431 1246.62 Q124.492 1245.54 126.968 1245.54 Q132.177 1245.54 135.186 1248.71 Q138.218 1251.85 138.218 1257.29 Q138.218 1262.62 135.07 1265.84 Q131.922 1269.05 126.691 1269.05 Q120.695 1269.05 117.524 1264.47 Q114.353 1259.86 114.353 1251.14 Q114.353 1242.94 118.242 1238.08 Q122.13 1233.2 128.681 1233.2 Q130.441 1233.2 132.223 1233.54 Q134.029 1233.89 135.973 1234.59 Z" fill="#000000" fill-rule="nonzero" fill-opacity="1" /><path clip-path="url(#clip810)" d="M146.274 1262.5 L151.158 1262.5 L151.158 1268.38 L146.274 1268.38 L146.274 1262.5 Z" fill="#000000" fill-rule="nonzero" fill-opacity="1" /><path clip-path="url(#clip810)" d="M171.343 1236.9 Q167.732 1236.9 165.903 1240.47 Q164.098 1244.01 164.098 1251.14 Q164.098 1258.24 165.903 1261.81 Q167.732 1265.35 171.343 1265.35 Q174.977 1265.35 176.783 1261.81 Q178.612 1258.24 178.612 1251.14 Q178.612 1244.01 176.783 1240.47 Q174.977 1236.9 171.343 1236.9 M171.343 1233.2 Q177.153 1233.2 180.209 1237.8 Q183.288 1242.39 183.288 1251.14 Q183.288 1259.86 180.209 1264.47 Q177.153 1269.05 171.343 1269.05 Q165.533 1269.05 162.454 1264.47 Q159.399 1259.86 159.399 1251.14 Q159.399 1242.39 162.454 1237.8 Q165.533 1233.2 171.343 1233.2 Z" fill="#000000" fill-rule="nonzero" fill-opacity="1" /><path clip-path="url(#clip810)" d="M127.686 1004.32 Q124.538 1004.32 122.686 1006.48 Q120.857 1008.63 120.857 1012.38 Q120.857 1016.11 122.686 1018.28 Q124.538 1020.43 127.686 1020.43 Q130.834 1020.43 132.663 1018.28 Q134.515 1016.11 134.515 1012.38 Q134.515 1008.63 132.663 1006.48 Q130.834 1004.32 127.686 1004.32 M136.968 989.671 L136.968 993.93 Q135.209 993.096 133.404 992.657 Q131.621 992.217 129.862 992.217 Q125.232 992.217 122.779 995.342 Q120.348 998.467 120.001 1004.79 Q121.367 1002.77 123.427 1001.71 Q125.487 1000.62 127.964 1000.62 Q133.172 1000.62 136.181 1003.79 Q139.214 1006.94 139.214 1012.38 Q139.214 1017.7 136.066 1020.92 Q132.917 1024.14 127.686 1024.14 Q121.691 1024.14 118.519 1019.55 Q115.348 1014.95 115.348 1006.22 Q115.348 998.027 119.237 993.166 Q123.126 988.282 129.677 988.282 Q131.436 988.282 133.218 988.629 Q135.024 988.976 136.968 989.671 Z" fill="#000000" fill-rule="nonzero" fill-opacity="1" /><path clip-path="url(#clip810)" d="M147.269 1017.59 L152.153 1017.59 L152.153 1023.47 L147.269 1023.47 L147.269 1017.59 Z" fill="#000000" fill-rule="nonzero" fill-opacity="1" /><path clip-path="url(#clip810)" d="M162.385 988.907 L180.741 988.907 L180.741 992.842 L166.667 992.842 L166.667 1001.31 Q167.686 1000.97 168.704 1000.8 Q169.723 1000.62 170.741 1000.62 Q176.528 1000.62 179.908 1003.79 Q183.288 1006.96 183.288 1012.38 Q183.288 1017.96 179.815 1021.06 Q176.343 1024.14 170.024 1024.14 Q167.848 1024.14 165.579 1023.77 Q163.334 1023.4 160.927 1022.66 L160.927 1017.96 Q163.01 1019.09 165.232 1019.65 Q167.454 1020.2 169.931 1020.2 Q173.936 1020.2 176.274 1018.1 Q178.612 1015.99 178.612 1012.38 Q178.612 1008.77 176.274 1006.66 Q173.936 1004.55 169.931 1004.55 Q168.056 1004.55 166.181 1004.97 Q164.329 1005.39 162.385 1006.27 L162.385 988.907 Z" fill="#000000" fill-rule="nonzero" fill-opacity="1" /><path clip-path="url(#clip810)" d="M114.931 743.991 L137.154 743.991 L137.154 745.982 L124.607 778.551 L119.723 778.551 L131.529 747.926 L114.931 747.926 L114.931 743.991 Z" fill="#000000" fill-rule="nonzero" fill-opacity="1" /><path clip-path="url(#clip810)" d="M146.274 772.672 L151.158 772.672 L151.158 778.551 L146.274 778.551 L146.274 772.672 Z" fill="#000000" fill-rule="nonzero" fill-opacity="1" /><path clip-path="url(#clip810)" d="M171.343 747.07 Q167.732 747.07 165.903 750.635 Q164.098 754.176 164.098 761.306 Q164.098 768.412 165.903 771.977 Q167.732 775.519 171.343 775.519 Q174.977 775.519 176.783 771.977 Q178.612 768.412 178.612 761.306 Q178.612 754.176 176.783 750.635 Q174.977 747.07 171.343 747.07 M171.343 743.366 Q177.153 743.366 180.209 747.973 Q183.288 752.556 183.288 761.306 Q183.288 770.033 180.209 774.639 Q177.153 779.223 171.343 779.223 Q165.533 779.223 162.454 774.639 Q159.399 770.033 159.399 761.306 Q159.399 752.556 162.454 747.973 Q165.533 743.366 171.343 743.366 Z" fill="#000000" fill-rule="nonzero" fill-opacity="1" /><path clip-path="url(#clip810)" d="M115.927 499.076 L138.149 499.076 L138.149 501.067 L125.603 533.636 L120.718 533.636 L132.524 503.011 L115.927 503.011 L115.927 499.076 Z" fill="#000000" fill-rule="nonzero" fill-opacity="1" /><path clip-path="url(#clip810)" d="M147.269 527.756 L152.153 527.756 L152.153 533.636 L147.269 533.636 L147.269 527.756 Z" fill="#000000" fill-rule="nonzero" fill-opacity="1" /><path clip-path="url(#clip810)" d="M162.385 499.076 L180.741 499.076 L180.741 503.011 L166.667 503.011 L166.667 511.483 Q167.686 511.136 168.704 510.974 Q169.723 510.789 170.741 510.789 Q176.528 510.789 179.908 513.96 Q183.288 517.131 183.288 522.548 Q183.288 528.127 179.815 531.228 Q176.343 534.307 170.024 534.307 Q167.848 534.307 165.579 533.937 Q163.334 533.566 160.927 532.826 L160.927 528.127 Q163.01 529.261 165.232 529.816 Q167.454 530.372 169.931 530.372 Q173.936 530.372 176.274 528.265 Q178.612 526.159 178.612 522.548 Q178.612 518.937 176.274 516.83 Q173.936 514.724 169.931 514.724 Q168.056 514.724 166.181 515.141 Q164.329 515.557 162.385 516.437 L162.385 499.076 Z" fill="#000000" fill-rule="nonzero" fill-opacity="1" /><path clip-path="url(#clip810)" d="M126.112 272.308 Q122.779 272.308 120.857 274.091 Q118.959 275.873 118.959 278.998 Q118.959 282.123 120.857 283.906 Q122.779 285.688 126.112 285.688 Q129.445 285.688 131.367 283.906 Q133.288 282.1 133.288 278.998 Q133.288 275.873 131.367 274.091 Q129.468 272.308 126.112 272.308 M121.436 270.318 Q118.427 269.577 116.737 267.517 Q115.07 265.457 115.07 262.494 Q115.07 258.35 118.01 255.943 Q120.973 253.535 126.112 253.535 Q131.274 253.535 134.214 255.943 Q137.154 258.35 137.154 262.494 Q137.154 265.457 135.464 267.517 Q133.797 269.577 130.811 270.318 Q134.191 271.105 136.066 273.396 Q137.964 275.688 137.964 278.998 Q137.964 284.021 134.885 286.706 Q131.83 289.392 126.112 289.392 Q120.394 289.392 117.316 286.706 Q114.26 284.021 114.26 278.998 Q114.26 275.688 116.158 273.396 Q118.056 271.105 121.436 270.318 M119.723 262.933 Q119.723 265.619 121.39 267.123 Q123.08 268.628 126.112 268.628 Q129.121 268.628 130.811 267.123 Q132.524 265.619 132.524 262.933 Q132.524 260.248 130.811 258.744 Q129.121 257.239 126.112 257.239 Q123.08 257.239 121.39 258.744 Q119.723 260.248 119.723 262.933 Z" fill="#000000" fill-rule="nonzero" fill-opacity="1" /><path clip-path="url(#clip810)" d="M146.274 282.841 L151.158 282.841 L151.158 288.72 L146.274 288.72 L146.274 282.841 Z" fill="#000000" fill-rule="nonzero" fill-opacity="1" /><path clip-path="url(#clip810)" d="M171.343 257.239 Q167.732 257.239 165.903 260.804 Q164.098 264.346 164.098 271.475 Q164.098 278.582 165.903 282.146 Q167.732 285.688 171.343 285.688 Q174.977 285.688 176.783 282.146 Q178.612 278.582 178.612 271.475 Q178.612 264.346 176.783 260.804 Q174.977 257.239 171.343 257.239 M171.343 253.535 Q177.153 253.535 180.209 258.142 Q183.288 262.725 183.288 271.475 Q183.288 280.202 180.209 284.808 Q177.153 289.392 171.343 289.392 Q165.533 289.392 162.454 284.808 Q159.399 280.202 159.399 271.475 Q159.399 262.725 162.454 258.142 Q165.533 253.535 171.343 253.535 Z" fill="#000000" fill-rule="nonzero" fill-opacity="1" /><path clip-path="url(#clip810)" d="M20.8447 920.342 Q20.8447 927.344 26.0645 931.482 Q31.2844 935.588 40.2919 935.588 Q49.2675 935.588 54.4874 931.482 Q59.7073 927.344 59.7073 920.342 Q59.7073 913.34 54.4874 909.266 Q49.2675 905.16 40.2919 905.16 Q31.2844 905.16 26.0645 909.266 Q20.8447 913.34 20.8447 920.342 M15.6248 920.342 Q15.6248 910.348 22.3406 904.364 Q29.0246 898.38 40.2919 898.38 Q51.5274 898.38 58.2432 904.364 Q64.9272 910.348 64.9272 920.342 Q64.9272 930.368 58.2432 936.384 Q51.5592 942.367 40.2919 942.367 Q29.0246 942.367 22.3406 936.384 Q15.6248 930.368 15.6248 920.342 Z" fill="#000000" fill-rule="nonzero" fill-opacity="1" /><path clip-path="url(#clip810)" d="M58.657 882.912 L77.5631 882.912 L77.5631 888.8 L28.3562 888.8 L28.3562 882.912 L33.7671 882.912 Q30.5842 881.066 29.0564 878.265 Q27.4968 875.432 27.4968 871.517 Q27.4968 865.024 32.6531 860.982 Q37.8093 856.908 46.212 856.908 Q54.6147 856.908 59.771 860.982 Q64.9272 865.024 64.9272 871.517 Q64.9272 875.432 63.3994 878.265 Q61.8398 881.066 58.657 882.912 M46.212 862.987 Q39.7508 862.987 36.0905 865.661 Q32.3984 868.302 32.3984 872.949 Q32.3984 877.596 36.0905 880.27 Q39.7508 882.912 46.212 882.912 Q52.6732 882.912 56.3653 880.27 Q60.0256 877.596 60.0256 872.949 Q60.0256 868.302 56.3653 865.661 Q52.6732 862.987 46.212 862.987 Z" fill="#000000" fill-rule="nonzero" fill-opacity="1" /><path clip-path="url(#clip810)" d="M18.2347 841.407 L28.3562 841.407 L28.3562 829.344 L32.9077 829.344 L32.9077 841.407 L52.2594 841.407 Q56.6199 841.407 57.8613 840.23 Q59.1026 839.02 59.1026 835.36 L59.1026 829.344 L64.0042 829.344 L64.0042 835.36 Q64.0042 842.139 61.4897 844.717 Q58.9434 847.295 52.2594 847.295 L32.9077 847.295 L32.9077 851.592 L28.3562 851.592 L28.3562 847.295 L18.2347 847.295 L18.2347 841.407 Z" fill="#000000" fill-rule="nonzero" fill-opacity="1" /><path clip-path="url(#clip810)" d="M28.3562 821.642 L28.3562 815.785 L64.0042 815.785 L64.0042 821.642 L28.3562 821.642 M14.479 821.642 L14.479 815.785 L21.895 815.785 L21.895 821.642 L14.479 821.642 Z" fill="#000000" fill-rule="nonzero" fill-opacity="1" /><path clip-path="url(#clip810)" d="M35.1993 775.777 Q31.2526 773.581 29.3747 770.525 Q27.4968 767.47 27.4968 763.332 Q27.4968 757.762 31.4117 754.738 Q35.2948 751.714 42.4881 751.714 L64.0042 751.714 L64.0042 757.603 L42.679 757.603 Q37.5546 757.603 35.072 759.417 Q32.5894 761.231 32.5894 764.955 Q32.5894 769.507 35.6131 772.148 Q38.6368 774.79 43.8567 774.79 L64.0042 774.79 L64.0042 780.678 L42.679 780.678 Q37.5228 780.678 35.072 782.493 Q32.5894 784.307 32.5894 788.094 Q32.5894 792.582 35.6449 795.224 Q38.6686 797.866 43.8567 797.866 L64.0042 797.866 L64.0042 803.754 L28.3562 803.754 L28.3562 797.866 L33.8944 797.866 Q30.616 795.861 29.0564 793.06 Q27.4968 790.259 27.4968 786.408 Q27.4968 782.524 29.4702 779.819 Q31.4436 777.082 35.1993 775.777 Z" fill="#000000" fill-rule="nonzero" fill-opacity="1" /><path clip-path="url(#clip810)" d="M46.0847 723.833 Q46.0847 730.93 47.7079 733.668 Q49.3312 736.405 53.2461 736.405 Q56.3653 736.405 58.2114 734.368 Q60.0256 732.299 60.0256 728.766 Q60.0256 723.896 56.5881 720.968 Q53.1188 718.008 47.3897 718.008 L46.0847 718.008 L46.0847 723.833 M43.6657 712.152 L64.0042 712.152 L64.0042 718.008 L58.5933 718.008 Q61.8398 720.013 63.3994 723.005 Q64.9272 725.997 64.9272 730.326 Q64.9272 735.8 61.8716 739.047 Q58.7843 742.261 53.6281 742.261 Q47.6125 742.261 44.5569 738.251 Q41.5014 734.209 41.5014 726.22 L41.5014 718.008 L40.9285 718.008 Q36.8862 718.008 34.6901 720.682 Q32.4621 723.323 32.4621 728.129 Q32.4621 731.185 33.1941 734.081 Q33.9262 736.978 35.3903 739.651 L29.9795 739.651 Q28.7381 736.437 28.1334 733.413 Q27.4968 730.389 27.4968 727.525 Q27.4968 719.79 31.5072 715.971 Q35.5176 712.152 43.6657 712.152 Z" fill="#000000" fill-rule="nonzero" fill-opacity="1" /><path clip-path="url(#clip810)" d="M14.479 700.089 L14.479 694.232 L64.0042 694.232 L64.0042 700.089 L14.479 700.089 Z" fill="#000000" fill-rule="nonzero" fill-opacity="1" /><path clip-path="url(#clip810)" d="M57.5111 643.784 Q59.0389 642.638 59.0389 639.201 L59.0389 636.368 L64.0042 636.368 L64.0042 639.901 Q64.0042 645.63 60.9486 648.24 Q57.8294 650.85 51.0818 650.85 L34.2127 650.85 L34.2127 664.218 L28.3562 664.218 L28.3562 631.339 L34.2127 631.339 L34.2127 644.866 L51.4319 644.866 Q56.047 644.866 57.5111 643.784 Z" fill="#000000" fill-rule="nonzero" fill-opacity="1" /><path clip-path="url(#clip810)" d="M42.4562 610.014 Q39.719 611.605 39.719 614.82 Q39.719 618.035 42.4562 619.626 Q45.1935 621.249 50.668 621.249 Q56.1743 621.249 58.9116 619.626 Q61.6488 618.035 61.6488 614.82 Q61.6488 611.605 58.9116 610.014 Q56.1743 608.391 50.668 608.391 Q45.1935 608.391 42.4562 610.014 M36.8862 614.82 Q36.8862 609.695 40.4192 606.99 Q43.9522 604.285 50.668 604.285 Q57.4157 604.285 60.9486 606.99 Q64.4816 609.695 64.4816 614.82 Q64.4816 619.976 60.9486 622.682 Q57.4157 625.387 50.668 625.387 Q43.9522 625.387 40.4192 622.682 Q36.8862 619.976 36.8862 614.82 Z" fill="#000000" fill-rule="nonzero" fill-opacity="1" /><path clip-path="url(#clip810)" d="M982.548 17.6457 Q973.636 17.6457 968.37 24.2892 Q963.144 30.9327 963.144 42.3968 Q963.144 53.8203 968.37 60.4638 Q973.636 67.1073 982.548 67.1073 Q991.46 67.1073 996.645 60.4638 Q1001.87 53.8203 1001.87 42.3968 Q1001.87 30.9327 996.645 24.2892 Q991.46 17.6457 982.548 17.6457 M982.548 11.0023 Q995.268 11.0023 1002.88 19.5497 Q1010.5 28.0566 1010.5 42.3968 Q1010.5 56.6965 1002.88 65.2439 Q995.268 73.7508 982.548 73.7508 Q969.788 73.7508 962.132 65.2439 Q954.516 56.737 954.516 42.3968 Q954.516 28.0566 962.132 19.5497 Q969.788 11.0023 982.548 11.0023 Z" fill="#000000" fill-rule="nonzero" fill-opacity="1" /><path clip-path="url(#clip810)" d="M1030.19 65.7705 L1030.19 89.8329 L1022.69 89.8329 L1022.69 27.2059 L1030.19 27.2059 L1030.19 34.0924 Q1032.54 30.0415 1036.1 28.0971 Q1039.71 26.1121 1044.69 26.1121 Q1052.95 26.1121 1058.1 32.6746 Q1063.28 39.2371 1063.28 49.9314 Q1063.28 60.6258 1058.1 67.1883 Q1052.95 73.7508 1044.69 73.7508 Q1039.71 73.7508 1036.1 71.8063 Q1032.54 69.8214 1030.19 65.7705 M1055.55 49.9314 Q1055.55 41.7081 1052.14 37.0496 Q1048.78 32.3505 1042.87 32.3505 Q1036.95 32.3505 1033.55 37.0496 Q1030.19 41.7081 1030.19 49.9314 Q1030.19 58.1548 1033.55 62.8538 Q1036.95 67.5124 1042.87 67.5124 Q1048.78 67.5124 1052.14 62.8538 Q1055.55 58.1548 1055.55 49.9314 Z" fill="#000000" fill-rule="nonzero" fill-opacity="1" /><path clip-path="url(#clip810)" d="M1083.01 14.324 L1083.01 27.2059 L1098.36 27.2059 L1098.36 32.9987 L1083.01 32.9987 L1083.01 57.6282 Q1083.01 63.1779 1084.51 64.7578 Q1086.05 66.3376 1090.71 66.3376 L1098.36 66.3376 L1098.36 72.576 L1090.71 72.576 Q1082.08 72.576 1078.8 69.3758 Q1075.52 66.1351 1075.52 57.6282 L1075.52 32.9987 L1070.05 32.9987 L1070.05 27.2059 L1075.52 27.2059 L1075.52 14.324 L1083.01 14.324 Z" fill="#000000" fill-rule="nonzero" fill-opacity="1" /><path clip-path="url(#clip810)" d="M1108.17 27.2059 L1115.62 27.2059 L1115.62 72.576 L1108.17 72.576 L1108.17 27.2059 M1108.17 9.54393 L1115.62 9.54393 L1115.62 18.9825 L1108.17 18.9825 L1108.17 9.54393 Z" fill="#000000" fill-rule="nonzero" fill-opacity="1" /><path clip-path="url(#clip810)" d="M1166.54 35.9153 Q1169.34 30.8922 1173.22 28.5022 Q1177.11 26.1121 1182.38 26.1121 Q1189.47 26.1121 1193.32 31.0947 Q1197.17 36.0368 1197.17 45.1919 L1197.17 72.576 L1189.67 72.576 L1189.67 45.4349 Q1189.67 38.913 1187.36 35.7533 Q1185.05 32.5936 1180.31 32.5936 Q1174.52 32.5936 1171.16 36.4419 Q1167.8 40.2903 1167.8 46.9338 L1167.8 72.576 L1160.3 72.576 L1160.3 45.4349 Q1160.3 38.8725 1157.99 35.7533 Q1155.68 32.5936 1150.86 32.5936 Q1145.15 32.5936 1141.79 36.4824 Q1138.43 40.3308 1138.43 46.9338 L1138.43 72.576 L1130.93 72.576 L1130.93 27.2059 L1138.43 27.2059 L1138.43 34.2544 Q1140.98 30.082 1144.54 28.0971 Q1148.11 26.1121 1153.01 26.1121 Q1157.95 26.1121 1161.4 28.6237 Q1164.88 31.1352 1166.54 35.9153 Z" fill="#000000" fill-rule="nonzero" fill-opacity="1" /><path clip-path="url(#clip810)" d="M1232.65 49.7694 Q1223.62 49.7694 1220.13 51.8354 Q1216.65 53.9013 1216.65 58.8839 Q1216.65 62.8538 1219.24 65.2034 Q1221.88 67.5124 1226.37 67.5124 Q1232.57 67.5124 1236.3 63.1374 Q1240.06 58.7219 1240.06 51.4303 L1240.06 49.7694 L1232.65 49.7694 M1247.52 46.6907 L1247.52 72.576 L1240.06 72.576 L1240.06 65.6895 Q1237.51 69.8214 1233.7 71.8063 Q1229.9 73.7508 1224.39 73.7508 Q1217.42 73.7508 1213.29 69.8619 Q1209.2 65.9325 1209.2 59.3701 Q1209.2 51.7138 1214.3 47.825 Q1219.45 43.9361 1229.61 43.9361 L1240.06 43.9361 L1240.06 43.2069 Q1240.06 38.0623 1236.66 35.2672 Q1233.3 32.4315 1227.18 32.4315 Q1223.29 32.4315 1219.61 33.3632 Q1215.92 34.295 1212.52 36.1584 L1212.52 29.2718 Q1216.61 27.692 1220.46 26.9223 Q1224.31 26.1121 1227.95 26.1121 Q1237.8 26.1121 1242.66 31.2163 Q1247.52 36.3204 1247.52 46.6907 Z" fill="#000000" fill-rule="nonzero" fill-opacity="1" /><path clip-path="url(#clip810)" d="M1262.87 9.54393 L1270.32 9.54393 L1270.32 72.576 L1262.87 72.576 L1262.87 9.54393 Z" fill="#000000" fill-rule="nonzero" fill-opacity="1" /><path clip-path="url(#clip810)" d="M1334.53 64.3122 Q1335.99 66.2566 1340.36 66.2566 L1343.97 66.2566 L1343.97 72.576 L1339.47 72.576 Q1332.18 72.576 1328.86 68.6871 Q1325.54 64.7172 1325.54 56.1293 L1325.54 34.6595 L1308.52 34.6595 L1308.52 27.2059 L1350.37 27.2059 L1350.37 34.6595 L1333.15 34.6595 L1333.15 56.5749 Q1333.15 62.4487 1334.53 64.3122 Z" fill="#000000" fill-rule="nonzero" fill-opacity="1" /><path clip-path="url(#clip810)" d="M1377.51 45.1514 Q1375.49 41.6676 1371.39 41.6676 Q1367.3 41.6676 1365.28 45.1514 Q1363.21 48.6352 1363.21 55.6027 Q1363.21 62.6108 1365.28 66.0946 Q1367.3 69.5783 1371.39 69.5783 Q1375.49 69.5783 1377.51 66.0946 Q1379.58 62.6108 1379.58 55.6027 Q1379.58 48.6352 1377.51 45.1514 M1371.39 38.0623 Q1377.92 38.0623 1381.36 42.5588 Q1384.8 47.0553 1384.8 55.6027 Q1384.8 64.1906 1381.36 68.6871 Q1377.92 73.1836 1371.39 73.1836 Q1364.83 73.1836 1361.39 68.6871 Q1357.95 64.1906 1357.95 55.6027 Q1357.95 47.0553 1361.39 42.5588 Q1364.83 38.0623 1371.39 38.0623 Z" fill="#000000" fill-rule="nonzero" fill-opacity="1" /><path clip-path="url(#clip810)" d="M1397.4 62.2867 L1405.95 62.2867 L1405.95 69.2543 L1399.31 82.2172 L1394.08 82.2172 L1397.4 69.2543 L1397.4 62.2867 Z" fill="#000000" fill-rule="nonzero" fill-opacity="1" /><path clip-path="url(#clip810)" d="M1448.56 12.096 L1459.58 12.096 L1486.4 62.6918 L1486.4 12.096 L1494.34 12.096 L1494.34 72.576 L1483.32 72.576 L1456.5 21.9802 L1456.5 72.576 L1448.56 72.576 L1448.56 12.096 Z" fill="#000000" fill-rule="nonzero" fill-opacity="1" /><path clip-path="url(#clip810)" d="M1511.27 34.9026 L1563.2 34.9026 L1563.2 41.7081 L1511.27 41.7081 L1511.27 34.9026 M1511.27 51.4303 L1563.2 51.4303 L1563.2 58.3168 L1511.27 58.3168 L1511.27 51.4303 Z" fill="#000000" fill-rule="nonzero" fill-opacity="1" /><path clip-path="url(#clip810)" d="M1580.95 12.096 L1613.07 12.096 L1613.07 18.9825 L1588.44 18.9825 L1588.44 33.8088 Q1590.22 33.2012 1592.01 32.9176 Q1593.79 32.5936 1595.57 32.5936 Q1605.7 32.5936 1611.61 38.1433 Q1617.53 43.6931 1617.53 53.1722 Q1617.53 62.9348 1611.45 68.3631 Q1605.37 73.7508 1594.32 73.7508 Q1590.51 73.7508 1586.54 73.1026 Q1582.61 72.4545 1578.4 71.1582 L1578.4 62.9348 Q1582.04 64.9198 1585.93 65.892 Q1589.82 66.8642 1594.15 66.8642 Q1601.16 66.8642 1605.25 63.1779 Q1609.34 59.4916 1609.34 53.1722 Q1609.34 46.8528 1605.25 43.1664 Q1601.16 39.4801 1594.15 39.4801 Q1590.87 39.4801 1587.59 40.2093 Q1584.35 40.9384 1580.95 42.4778 L1580.95 12.096 Z" fill="#000000" fill-rule="nonzero" fill-opacity="1" /><polyline clip-path="url(#clip812)" style="stroke:#009af9; stroke-linecap:round; stroke-linejoin:round; stroke-width:8; stroke-opacity:1; fill:none" points="279.669,1386.4 300.137,1263.28 320.605,1173 334.251,906.994 347.896,864.61 354.719,844.295 375.187,788.44 388.832,758.801 395.655,746.014 402.478,734.319 409.301,723.238 422.946,703.524 436.592,686.671 443.414,679.173 450.237,671.915 457.06,664.752 470.705,650.696 477.528,643.797 484.351,636.978 491.173,630.326 511.642,612.367 518.464,606.992 525.287,601.894 532.11,597.056 538.933,592.464 545.755,588.101 559.401,580.012 566.223,576.231 579.869,568.788 586.692,565.112 593.514,561.464 600.337,557.845 607.16,554.254 613.983,550.69 620.805,547.152 634.451,540.154 641.274,536.692 654.919,529.839 661.742,526.448 668.564,523.079 675.387,519.733 682.21,516.408 689.033,513.104 695.855,509.822 757.26,481.15 764.083,478.055 777.728,471.916 791.374,465.842 805.019,459.832 818.665,436.556 825.487,434.922 832.31,433.293 845.956,430.053 859.601,426.835 886.892,420.463 907.36,415.738 914.183,414.173 921.006,412.614 927.828,411.059 941.474,529.244 948.296,406.423 961.942,403.355 982.41,398.789 989.233,397.275 996.056,395.767 1009.7,392.762 1023.35,389.774 1036.99,386.803 1064.28,380.911 1071.11,379.448 1084.75,376.533 1091.57,375.082 1098.4,373.634 1105.22,372.19 1112.04,370.75 1125.69,367.881 1132.51,366.452 1139.33,365.026 1146.16,363.604 1152.98,362.186 1159.8,360.771 1166.62,359.36 1173.45,357.952 1180.27,356.548 1187.09,355.147 1193.91,353.749 1207.56,350.964 1214.38,349.577 1221.21,348.193 1228.03,346.812 1234.85,345.434 1241.67,344.059 1248.5,342.688 1255.32,341.32 1262.14,339.955 1275.79,337.234 1289.43,334.525 1296.26,333.175 1303.08,331.828 1309.9,330.485 1316.72,329.144 1337.19,325.138 1344.01,323.809 1350.84,322.483 1357.66,321.159 1364.48,319.838 1371.31,318.52 1378.13,317.205 1384.95,315.892 1391.77,314.582 1405.42,311.971 1412.24,310.669 1419.07,309.37 1432.71,306.779 1446.36,304.199 1460,301.63 1473.65,299.07 1480.47,297.794 1487.29,296.52 1500.94,293.981 1507.76,292.714 1514.58,291.451 1521.41,290.189 1535.05,287.674 1541.87,286.419 1548.7,285.167 1555.52,283.918 1562.34,282.67 1569.17,281.425 1582.81,278.942 1596.46,276.468 1603.28,275.235 1610.1,274.003 1616.92,272.774 1623.75,271.547 1630.57,270.322 1637.39,269.099 1644.22,267.879 1657.86,265.444 1664.68,264.23 1671.51,263.018 1678.33,261.808 1685.15,260.6 1691.97,259.394 1698.8,258.19 1705.62,256.988 1712.44,255.789 1719.27,254.591 1726.09,253.395 1732.91,252.202 1739.73,251.01 1746.56,249.82 1760.2,247.447 1767.02,246.263 1773.85,245.081 1780.67,243.901 1787.49,242.723 1794.32,241.547 1801.14,240.373 1814.78,238.03 1821.61,236.862 1828.43,235.695 1835.25,234.53 1842.07,233.367 1848.9,232.206 1855.72,231.046 1862.54,229.889 1869.37,228.733 1876.19,227.579 1883.01,226.427 1896.66,224.128 1903.48,222.981 1910.3,221.836 1917.12,220.692 1923.95,219.55 1930.77,218.411 1937.59,217.272 1944.42,216.136 1951.24,215.001 1958.06,213.868 1964.88,212.736 1971.71,211.606 1978.53,210.478 1985.35,209.352 1992.17,208.227 2019.47,203.744 2026.29,202.627 2033.11,201.512 2039.93,200.398 2046.76,199.287 2053.58,198.176 2060.4,197.067 2067.22,195.96 2080.87,193.75 2087.69,192.648 2101.34,190.447 2108.16,189.349 2114.98,188.253 2128.63,186.065 2135.45,184.973 2149.1,182.793 2155.92,181.706 2162.74,180.62 2169.57,179.535 2176.39,178.452 2183.21,177.37 2190.03,176.29 2203.68,174.134 2210.5,173.058 2217.32,171.984 2224.15,170.911 2230.97,169.839 2237.79,168.769 2244.62,167.7 2251.44,166.632 2258.26,165.566 2271.91,163.438 2278.73,162.376 2285.55,161.316 2292.37,160.256 "/>
</svg>
