<?xml version="1.0" encoding="utf-8"?>
<svg xmlns="http://www.w3.org/2000/svg" xmlns:xlink="http://www.w3.org/1999/xlink" width="1500" height="1000" viewBox="0 0 6000 4000">
<defs>
  <clipPath id="clip470">
    <rect x="0" y="0" width="6000" height="4000"/>
  </clipPath>
</defs>
<path clip-path="url(#clip470)" d="M0 4000 L6000 4000 L6000 2.22045e-13 L0 2.22045e-13  Z" fill="#ffffff" fill-rule="evenodd" fill-opacity="1"/>
<defs>
  <clipPath id="clip471">
    <rect x="1200" y="0" width="4201" height="4000"/>
  </clipPath>
</defs>
<path clip-path="url(#clip470)" d="M397.599 3657.45 L5811.02 3657.45 L5811.02 123.472 L397.599 123.472  Z" fill="#ffffff" fill-rule="evenodd" fill-opacity="1"/>
<defs>
  <clipPath id="clip472">
    <rect x="397" y="123" width="5414" height="3535"/>
  </clipPath>
</defs>
<polyline clip-path="url(#clip472)" style="stroke:#000000; stroke-linecap:round; stroke-linejoin:round; stroke-width:2; stroke-opacity:0.1; fill:none" points="397.599,3657.45 397.599,123.472 "/>
<polyline clip-path="url(#clip472)" style="stroke:#000000; stroke-linecap:round; stroke-linejoin:round; stroke-width:2; stroke-opacity:0.1; fill:none" points="1480.28,3657.45 1480.28,123.472 "/>
<polyline clip-path="url(#clip472)" style="stroke:#000000; stroke-linecap:round; stroke-linejoin:round; stroke-width:2; stroke-opacity:0.1; fill:none" points="2562.97,3657.45 2562.97,123.472 "/>
<polyline clip-path="url(#clip472)" style="stroke:#000000; stroke-linecap:round; stroke-linejoin:round; stroke-width:2; stroke-opacity:0.1; fill:none" points="3645.65,3657.45 3645.65,123.472 "/>
<polyline clip-path="url(#clip472)" style="stroke:#000000; stroke-linecap:round; stroke-linejoin:round; stroke-width:2; stroke-opacity:0.1; fill:none" points="4728.34,3657.45 4728.34,123.472 "/>
<polyline clip-path="url(#clip472)" style="stroke:#000000; stroke-linecap:round; stroke-linejoin:round; stroke-width:2; stroke-opacity:0.1; fill:none" points="5811.02,3657.45 5811.02,123.472 "/>
<polyline clip-path="url(#clip472)" style="stroke:#000000; stroke-linecap:round; stroke-linejoin:round; stroke-width:2; stroke-opacity:0.1; fill:none" points="397.599,3657.45 5811.02,3657.45 "/>
<polyline clip-path="url(#clip472)" style="stroke:#000000; stroke-linecap:round; stroke-linejoin:round; stroke-width:2; stroke-opacity:0.1; fill:none" points="397.599,2950.65 5811.02,2950.65 "/>
<polyline clip-path="url(#clip472)" style="stroke:#000000; stroke-linecap:round; stroke-linejoin:round; stroke-width:2; stroke-opacity:0.1; fill:none" points="397.599,2243.86 5811.02,2243.86 "/>
<polyline clip-path="url(#clip472)" style="stroke:#000000; stroke-linecap:round; stroke-linejoin:round; stroke-width:2; stroke-opacity:0.1; fill:none" points="397.599,1537.06 5811.02,1537.06 "/>
<polyline clip-path="url(#clip472)" style="stroke:#000000; stroke-linecap:round; stroke-linejoin:round; stroke-width:2; stroke-opacity:0.1; fill:none" points="397.599,830.267 5811.02,830.267 "/>
<polyline clip-path="url(#clip472)" style="stroke:#000000; stroke-linecap:round; stroke-linejoin:round; stroke-width:2; stroke-opacity:0.1; fill:none" points="397.599,123.472 5811.02,123.472 "/>
<polyline clip-path="url(#clip470)" style="stroke:#000000; stroke-linecap:round; stroke-linejoin:round; stroke-width:4; stroke-opacity:1; fill:none" points="397.599,3657.45 5811.02,3657.45 "/>
<polyline clip-path="url(#clip470)" style="stroke:#000000; stroke-linecap:round; stroke-linejoin:round; stroke-width:4; stroke-opacity:1; fill:none" points="397.599,3657.45 397.599,3638.55 "/>
<polyline clip-path="url(#clip470)" style="stroke:#000000; stroke-linecap:round; stroke-linejoin:round; stroke-width:4; stroke-opacity:1; fill:none" points="1480.28,3657.45 1480.28,3638.55 "/>
<polyline clip-path="url(#clip470)" style="stroke:#000000; stroke-linecap:round; stroke-linejoin:round; stroke-width:4; stroke-opacity:1; fill:none" points="2562.97,3657.45 2562.97,3638.55 "/>
<polyline clip-path="url(#clip470)" style="stroke:#000000; stroke-linecap:round; stroke-linejoin:round; stroke-width:4; stroke-opacity:1; fill:none" points="3645.65,3657.45 3645.65,3638.55 "/>
<polyline clip-path="url(#clip470)" style="stroke:#000000; stroke-linecap:round; stroke-linejoin:round; stroke-width:4; stroke-opacity:1; fill:none" points="4728.34,3657.45 4728.34,3638.55 "/>
<polyline clip-path="url(#clip470)" style="stroke:#000000; stroke-linecap:round; stroke-linejoin:round; stroke-width:4; stroke-opacity:1; fill:none" points="5811.02,3657.45 5811.02,3638.55 "/>
<path clip-path="url(#clip470)" d="M397.599 3717.17 Q393.987 3717.17 392.159 3720.73 Q390.353 3724.27 390.353 3731.4 Q390.353 3738.51 392.159 3742.07 Q393.987 3745.62 397.599 3745.62 Q401.233 3745.62 403.038 3742.07 Q404.867 3738.51 404.867 3731.4 Q404.867 3724.27 403.038 3720.73 Q401.233 3717.17 397.599 3717.17 M397.599 3713.46 Q403.409 3713.46 406.464 3718.07 Q409.543 3722.65 409.543 3731.4 Q409.543 3740.13 406.464 3744.74 Q403.409 3749.32 397.599 3749.32 Q391.788 3749.32 388.71 3744.74 Q385.654 3740.13 385.654 3731.4 Q385.654 3722.65 388.71 3718.07 Q391.788 3713.46 397.599 3713.46 Z" fill="#000000" fill-rule="nonzero" fill-opacity="1" /><path clip-path="url(#clip470)" d="M1459.06 3744.71 L1475.38 3744.71 L1475.38 3748.65 L1453.43 3748.65 L1453.43 3744.71 Q1456.09 3741.96 1460.68 3737.33 Q1465.28 3732.68 1466.46 3731.33 Q1468.71 3728.81 1469.59 3727.07 Q1470.49 3725.31 1470.49 3723.62 Q1470.49 3720.87 1468.55 3719.13 Q1466.63 3717.4 1463.52 3717.4 Q1461.33 3717.4 1458.87 3718.16 Q1456.44 3718.93 1453.66 3720.48 L1453.66 3715.75 Q1456.49 3714.62 1458.94 3714.04 Q1461.39 3713.46 1463.43 3713.46 Q1468.8 3713.46 1472 3716.15 Q1475.19 3718.83 1475.19 3723.32 Q1475.19 3725.45 1474.38 3727.37 Q1473.59 3729.27 1471.49 3731.87 Q1470.91 3732.54 1467.81 3735.75 Q1464.7 3738.95 1459.06 3744.71 Z" fill="#000000" fill-rule="nonzero" fill-opacity="1" /><path clip-path="url(#clip470)" d="M1495.19 3717.17 Q1491.58 3717.17 1489.75 3720.73 Q1487.95 3724.27 1487.95 3731.4 Q1487.95 3738.51 1489.75 3742.07 Q1491.58 3745.62 1495.19 3745.62 Q1498.83 3745.62 1500.63 3742.07 Q1502.46 3738.51 1502.46 3731.4 Q1502.46 3724.27 1500.63 3720.73 Q1498.83 3717.17 1495.19 3717.17 M1495.19 3713.46 Q1501 3713.46 1504.06 3718.07 Q1507.14 3722.65 1507.14 3731.4 Q1507.14 3740.13 1504.06 3744.74 Q1501 3749.32 1495.19 3749.32 Q1489.38 3749.32 1486.3 3744.74 Q1483.25 3740.13 1483.25 3731.4 Q1483.25 3722.65 1486.3 3718.07 Q1489.38 3713.46 1495.19 3713.46 Z" fill="#000000" fill-rule="nonzero" fill-opacity="1" /><path clip-path="url(#clip470)" d="M2551.14 3718.16 L2539.33 3736.61 L2551.14 3736.61 L2551.14 3718.16 M2549.91 3714.09 L2555.79 3714.09 L2555.79 3736.61 L2560.72 3736.61 L2560.72 3740.5 L2555.79 3740.5 L2555.79 3748.65 L2551.14 3748.65 L2551.14 3740.5 L2535.54 3740.5 L2535.54 3735.99 L2549.91 3714.09 Z" fill="#000000" fill-rule="nonzero" fill-opacity="1" /><path clip-path="url(#clip470)" d="M2578.45 3717.17 Q2574.84 3717.17 2573.01 3720.73 Q2571.21 3724.27 2571.21 3731.4 Q2571.21 3738.51 2573.01 3742.07 Q2574.84 3745.62 2578.45 3745.62 Q2582.09 3745.62 2583.89 3742.07 Q2585.72 3738.51 2585.72 3731.4 Q2585.72 3724.27 2583.89 3720.73 Q2582.09 3717.17 2578.45 3717.17 M2578.45 3713.46 Q2584.26 3713.46 2587.32 3718.07 Q2590.4 3722.65 2590.4 3731.4 Q2590.4 3740.13 2587.32 3744.74 Q2584.26 3749.32 2578.45 3749.32 Q2572.64 3749.32 2569.57 3744.74 Q2566.51 3740.13 2566.51 3731.4 Q2566.51 3722.65 2569.57 3718.07 Q2572.64 3713.46 2578.45 3713.46 Z" fill="#000000" fill-rule="nonzero" fill-opacity="1" /><path clip-path="url(#clip470)" d="M3631.06 3729.5 Q3627.91 3729.5 3626.06 3731.66 Q3624.23 3733.81 3624.23 3737.56 Q3624.23 3741.29 3626.06 3743.46 Q3627.91 3745.62 3631.06 3745.62 Q3634.21 3745.62 3636.04 3743.46 Q3637.89 3741.29 3637.89 3737.56 Q3637.89 3733.81 3636.04 3731.66 Q3634.21 3729.5 3631.06 3729.5 M3640.34 3714.85 L3640.34 3719.11 Q3638.58 3718.28 3636.78 3717.84 Q3634.99 3717.4 3633.23 3717.4 Q3628.61 3717.4 3626.15 3720.52 Q3623.72 3723.65 3623.37 3729.97 Q3624.74 3727.95 3626.8 3726.89 Q3628.86 3725.8 3631.34 3725.8 Q3636.54 3725.8 3639.55 3728.97 Q3642.59 3732.12 3642.59 3737.56 Q3642.59 3742.88 3639.44 3746.1 Q3636.29 3749.32 3631.06 3749.32 Q3625.06 3749.32 3621.89 3744.74 Q3618.72 3740.13 3618.72 3731.4 Q3618.72 3723.21 3622.61 3718.35 Q3626.5 3713.46 3633.05 3713.46 Q3634.81 3713.46 3636.59 3713.81 Q3638.4 3714.16 3640.34 3714.85 Z" fill="#000000" fill-rule="nonzero" fill-opacity="1" /><path clip-path="url(#clip470)" d="M3660.64 3717.17 Q3657.03 3717.17 3655.2 3720.73 Q3653.4 3724.27 3653.4 3731.4 Q3653.4 3738.51 3655.2 3742.07 Q3657.03 3745.62 3660.64 3745.62 Q3664.28 3745.62 3666.08 3742.07 Q3667.91 3738.51 3667.91 3731.4 Q3667.91 3724.27 3666.08 3720.73 Q3664.28 3717.17 3660.64 3717.17 M3660.64 3713.46 Q3666.45 3713.46 3669.51 3718.07 Q3672.59 3722.65 3672.59 3731.4 Q3672.59 3740.13 3669.51 3744.74 Q3666.45 3749.32 3660.64 3749.32 Q3654.83 3749.32 3651.75 3744.74 Q3648.7 3740.13 3648.7 3731.4 Q3648.7 3722.65 3651.75 3718.07 Q3654.83 3713.46 3660.64 3713.46 Z" fill="#000000" fill-rule="nonzero" fill-opacity="1" /><path clip-path="url(#clip470)" d="M4713.21 3732.24 Q4709.88 3732.24 4707.96 3734.02 Q4706.06 3735.8 4706.06 3738.93 Q4706.06 3742.05 4707.96 3743.83 Q4709.88 3745.62 4713.21 3745.62 Q4716.54 3745.62 4718.47 3743.83 Q4720.39 3742.03 4720.39 3738.93 Q4720.39 3735.8 4718.47 3734.02 Q4716.57 3732.24 4713.21 3732.24 M4708.54 3730.24 Q4705.53 3729.5 4703.84 3727.44 Q4702.17 3725.38 4702.17 3722.42 Q4702.17 3718.28 4705.11 3715.87 Q4708.07 3713.46 4713.21 3713.46 Q4718.37 3713.46 4721.31 3715.87 Q4724.25 3718.28 4724.25 3722.42 Q4724.25 3725.38 4722.56 3727.44 Q4720.9 3729.5 4717.91 3730.24 Q4721.29 3731.03 4723.17 3733.32 Q4725.06 3735.62 4725.06 3738.93 Q4725.06 3743.95 4721.98 3746.63 Q4718.93 3749.32 4713.21 3749.32 Q4707.49 3749.32 4704.42 3746.63 Q4701.36 3743.95 4701.36 3738.93 Q4701.36 3735.62 4703.26 3733.32 Q4705.16 3731.03 4708.54 3730.24 M4706.82 3722.86 Q4706.82 3725.55 4708.49 3727.05 Q4710.18 3728.56 4713.21 3728.56 Q4716.22 3728.56 4717.91 3727.05 Q4719.62 3725.55 4719.62 3722.86 Q4719.62 3720.18 4717.91 3718.67 Q4716.22 3717.17 4713.21 3717.17 Q4710.18 3717.17 4708.49 3718.67 Q4706.82 3720.18 4706.82 3722.86 Z" fill="#000000" fill-rule="nonzero" fill-opacity="1" /><path clip-path="url(#clip470)" d="M4743.37 3717.17 Q4739.76 3717.17 4737.93 3720.73 Q4736.13 3724.27 4736.13 3731.4 Q4736.13 3738.51 4737.93 3742.07 Q4739.76 3745.62 4743.37 3745.62 Q4747.01 3745.62 4748.81 3742.07 Q4750.64 3738.51 4750.64 3731.4 Q4750.64 3724.27 4748.81 3720.73 Q4747.01 3717.17 4743.37 3717.17 M4743.37 3713.46 Q4749.18 3713.46 4752.24 3718.07 Q4755.32 3722.65 4755.32 3731.4 Q4755.32 3740.13 4752.24 3744.74 Q4749.18 3749.32 4743.37 3749.32 Q4737.56 3749.32 4734.48 3744.74 Q4731.43 3740.13 4731.43 3731.4 Q4731.43 3722.65 4734.48 3718.07 Q4737.56 3713.46 4743.37 3713.46 Z" fill="#000000" fill-rule="nonzero" fill-opacity="1" /><path clip-path="url(#clip470)" d="M5770.63 3744.71 L5778.27 3744.71 L5778.27 3718.35 L5769.96 3720.01 L5769.96 3715.75 L5778.22 3714.09 L5782.9 3714.09 L5782.9 3744.71 L5790.54 3744.71 L5790.54 3748.65 L5770.63 3748.65 L5770.63 3744.71 Z" fill="#000000" fill-rule="nonzero" fill-opacity="1" /><path clip-path="url(#clip470)" d="M5809.98 3717.17 Q5806.37 3717.17 5804.54 3720.73 Q5802.74 3724.27 5802.74 3731.4 Q5802.74 3738.51 5804.54 3742.07 Q5806.37 3745.62 5809.98 3745.62 Q5813.62 3745.62 5815.42 3742.07 Q5817.25 3738.51 5817.25 3731.4 Q5817.25 3724.27 5815.42 3720.73 Q5813.62 3717.17 5809.98 3717.17 M5809.98 3713.46 Q5815.79 3713.46 5818.85 3718.07 Q5821.93 3722.65 5821.93 3731.4 Q5821.93 3740.13 5818.85 3744.74 Q5815.79 3749.32 5809.98 3749.32 Q5804.17 3749.32 5801.09 3744.74 Q5798.04 3740.13 5798.04 3731.4 Q5798.04 3722.65 5801.09 3718.07 Q5804.17 3713.46 5809.98 3713.46 Z" fill="#000000" fill-rule="nonzero" fill-opacity="1" /><path clip-path="url(#clip470)" d="M5840.14 3717.17 Q5836.53 3717.17 5834.7 3720.73 Q5832.9 3724.27 5832.9 3731.4 Q5832.9 3738.51 5834.7 3742.07 Q5836.53 3745.62 5840.14 3745.62 Q5843.78 3745.62 5845.58 3742.07 Q5847.41 3738.51 5847.41 3731.4 Q5847.41 3724.27 5845.58 3720.73 Q5843.78 3717.17 5840.14 3717.17 M5840.14 3713.46 Q5845.95 3713.46 5849.01 3718.07 Q5852.09 3722.65 5852.09 3731.4 Q5852.09 3740.13 5849.01 3744.74 Q5845.95 3749.32 5840.14 3749.32 Q5834.33 3749.32 5831.25 3744.74 Q5828.2 3740.13 5828.2 3731.4 Q5828.2 3722.65 5831.25 3718.07 Q5834.33 3713.46 5840.14 3713.46 Z" fill="#000000" fill-rule="nonzero" fill-opacity="1" /><path clip-path="url(#clip470)" d="M2978.68 3808.79 L3018.88 3808.79 L3018.88 3814.2 L3002.01 3814.2 L3002.01 3856.31 L2995.55 3856.31 L2995.55 3814.2 L2978.68 3814.2 L2978.68 3808.79 Z" fill="#000000" fill-rule="nonzero" fill-opacity="1" /><path clip-path="url(#clip470)" d="M3022.83 3820.66 L3028.69 3820.66 L3028.69 3856.31 L3022.83 3856.31 L3022.83 3820.66 M3022.83 3806.79 L3028.69 3806.79 L3028.69 3814.2 L3022.83 3814.2 L3022.83 3806.79 Z" fill="#000000" fill-rule="nonzero" fill-opacity="1" /><path clip-path="url(#clip470)" d="M3068.69 3827.51 Q3070.89 3823.56 3073.95 3821.68 Q3077 3819.8 3081.14 3819.8 Q3086.71 3819.8 3089.73 3823.72 Q3092.76 3827.6 3092.76 3834.8 L3092.76 3856.31 L3086.87 3856.31 L3086.87 3834.99 Q3086.87 3829.86 3085.05 3827.38 Q3083.24 3824.9 3079.52 3824.9 Q3074.97 3824.9 3072.32 3827.92 Q3069.68 3830.94 3069.68 3836.16 L3069.68 3856.31 L3063.79 3856.31 L3063.79 3834.99 Q3063.79 3829.83 3061.98 3827.38 Q3060.16 3824.9 3056.38 3824.9 Q3051.89 3824.9 3049.25 3827.95 Q3046.61 3830.98 3046.61 3836.16 L3046.61 3856.31 L3040.72 3856.31 L3040.72 3820.66 L3046.61 3820.66 L3046.61 3826.2 Q3048.61 3822.92 3051.41 3821.36 Q3054.21 3819.8 3058.06 3819.8 Q3061.95 3819.8 3064.65 3821.78 Q3067.39 3823.75 3068.69 3827.51 Z" fill="#000000" fill-rule="nonzero" fill-opacity="1" /><path clip-path="url(#clip470)" d="M3134.93 3837.02 L3134.93 3839.89 L3108 3839.89 Q3108.39 3845.94 3111.63 3849.12 Q3114.91 3852.27 3120.73 3852.27 Q3124.11 3852.27 3127.26 3851.44 Q3130.44 3850.61 3133.56 3848.96 L3133.56 3854.5 Q3130.41 3855.83 3127.1 3856.53 Q3123.79 3857.23 3120.38 3857.23 Q3111.85 3857.23 3106.86 3852.27 Q3101.89 3847.3 3101.89 3838.84 Q3101.89 3830.08 3106.6 3824.96 Q3111.35 3819.8 3119.37 3819.8 Q3126.56 3819.8 3130.73 3824.45 Q3134.93 3829.07 3134.93 3837.02 M3129.07 3835.3 Q3129.01 3830.5 3126.37 3827.63 Q3123.76 3824.77 3119.43 3824.77 Q3114.53 3824.77 3111.57 3827.54 Q3108.64 3830.31 3108.19 3835.34 L3129.07 3835.3 Z" fill="#000000" fill-rule="nonzero" fill-opacity="1" /><path clip-path="url(#clip470)" d="M3179.33 3806.85 Q3175.07 3814.17 3173 3821.33 Q3170.93 3828.49 3170.93 3835.85 Q3170.93 3843.2 3173 3850.42 Q3175.1 3857.62 3179.33 3864.91 L3174.24 3864.91 Q3169.46 3857.43 3167.08 3850.2 Q3164.72 3842.98 3164.72 3835.85 Q3164.72 3828.75 3167.08 3821.55 Q3169.43 3814.36 3174.24 3806.85 L3179.33 3806.85 Z" fill="#000000" fill-rule="nonzero" fill-opacity="1" /><path clip-path="url(#clip470)" d="M3196.49 3810.54 L3196.49 3820.66 L3208.55 3820.66 L3208.55 3825.22 L3196.49 3825.22 L3196.49 3844.57 Q3196.49 3848.93 3197.66 3850.17 Q3198.87 3851.41 3202.53 3851.41 L3208.55 3851.41 L3208.55 3856.31 L3202.53 3856.31 Q3195.75 3856.31 3193.18 3853.8 Q3190.6 3851.25 3190.6 3844.57 L3190.6 3825.22 L3186.3 3825.22 L3186.3 3820.66 L3190.6 3820.66 L3190.6 3810.54 L3196.49 3810.54 Z" fill="#000000" fill-rule="nonzero" fill-opacity="1" /><path clip-path="url(#clip470)" d="M3215.33 3806.85 L3220.42 3806.85 Q3225.2 3814.36 3227.55 3821.55 Q3229.94 3828.75 3229.94 3835.85 Q3229.94 3842.98 3227.55 3850.2 Q3225.2 3857.43 3220.42 3864.91 L3215.33 3864.91 Q3219.56 3857.62 3221.63 3850.42 Q3223.73 3843.2 3223.73 3835.85 Q3223.73 3828.49 3221.63 3821.33 Q3219.56 3814.17 3215.33 3806.85 Z" fill="#000000" fill-rule="nonzero" fill-opacity="1" /><polyline clip-path="url(#clip470)" style="stroke:#000000; stroke-linecap:round; stroke-linejoin:round; stroke-width:4; stroke-opacity:1; fill:none" points="397.599,3657.45 397.599,123.472 "/>
<polyline clip-path="url(#clip470)" style="stroke:#000000; stroke-linecap:round; stroke-linejoin:round; stroke-width:4; stroke-opacity:1; fill:none" points="397.599,3657.45 416.496,3657.45 "/>
<polyline clip-path="url(#clip470)" style="stroke:#000000; stroke-linecap:round; stroke-linejoin:round; stroke-width:4; stroke-opacity:1; fill:none" points="397.599,2950.65 416.496,2950.65 "/>
<polyline clip-path="url(#clip470)" style="stroke:#000000; stroke-linecap:round; stroke-linejoin:round; stroke-width:4; stroke-opacity:1; fill:none" points="397.599,2243.86 416.496,2243.86 "/>
<polyline clip-path="url(#clip470)" style="stroke:#000000; stroke-linecap:round; stroke-linejoin:round; stroke-width:4; stroke-opacity:1; fill:none" points="397.599,1537.06 416.496,1537.06 "/>
<polyline clip-path="url(#clip470)" style="stroke:#000000; stroke-linecap:round; stroke-linejoin:round; stroke-width:4; stroke-opacity:1; fill:none" points="397.599,830.267 416.496,830.267 "/>
<polyline clip-path="url(#clip470)" style="stroke:#000000; stroke-linecap:round; stroke-linejoin:round; stroke-width:4; stroke-opacity:1; fill:none" points="397.599,123.472 416.496,123.472 "/>
<path clip-path="url(#clip470)" d="M250.423 3643.25 Q246.812 3643.25 244.983 3646.81 Q243.178 3650.35 243.178 3657.48 Q243.178 3664.59 244.983 3668.15 Q246.812 3671.7 250.423 3671.7 Q254.057 3671.7 255.863 3668.15 Q257.691 3664.59 257.691 3657.48 Q257.691 3650.35 255.863 3646.81 Q254.057 3643.25 250.423 3643.25 M250.423 3639.54 Q256.233 3639.54 259.289 3644.15 Q262.367 3648.73 262.367 3657.48 Q262.367 3666.21 259.289 3670.82 Q256.233 3675.4 250.423 3675.4 Q244.613 3675.4 241.534 3670.82 Q238.479 3666.21 238.479 3657.48 Q238.479 3648.73 241.534 3644.15 Q244.613 3639.54 250.423 3639.54 Z" fill="#000000" fill-rule="nonzero" fill-opacity="1" /><path clip-path="url(#clip470)" d="M270.585 3668.85 L275.469 3668.85 L275.469 3674.73 L270.585 3674.73 L270.585 3668.85 Z" fill="#000000" fill-rule="nonzero" fill-opacity="1" /><path clip-path="url(#clip470)" d="M295.654 3643.25 Q292.043 3643.25 290.214 3646.81 Q288.409 3650.35 288.409 3657.48 Q288.409 3664.59 290.214 3668.15 Q292.043 3671.7 295.654 3671.7 Q299.288 3671.7 301.094 3668.15 Q302.923 3664.59 302.923 3657.48 Q302.923 3650.35 301.094 3646.81 Q299.288 3643.25 295.654 3643.25 M295.654 3639.54 Q301.464 3639.54 304.52 3644.15 Q307.599 3648.73 307.599 3657.48 Q307.599 3666.21 304.52 3670.82 Q301.464 3675.4 295.654 3675.4 Q289.844 3675.4 286.765 3670.82 Q283.71 3666.21 283.71 3657.48 Q283.71 3648.73 286.765 3644.15 Q289.844 3639.54 295.654 3639.54 Z" fill="#000000" fill-rule="nonzero" fill-opacity="1" /><path clip-path="url(#clip470)" d="M252.02 2936.45 Q248.409 2936.45 246.58 2940.02 Q244.775 2943.56 244.775 2950.69 Q244.775 2957.79 246.58 2961.36 Q248.409 2964.9 252.02 2964.9 Q255.654 2964.9 257.46 2961.36 Q259.289 2957.79 259.289 2950.69 Q259.289 2943.56 257.46 2940.02 Q255.654 2936.45 252.02 2936.45 M252.02 2932.75 Q257.83 2932.75 260.886 2937.35 Q263.965 2941.94 263.965 2950.69 Q263.965 2959.41 260.886 2964.02 Q257.83 2968.6 252.02 2968.6 Q246.21 2968.6 243.131 2964.02 Q240.076 2959.41 240.076 2950.69 Q240.076 2941.94 243.131 2937.35 Q246.21 2932.75 252.02 2932.75 Z" fill="#000000" fill-rule="nonzero" fill-opacity="1" /><path clip-path="url(#clip470)" d="M272.182 2962.05 L277.066 2962.05 L277.066 2967.93 L272.182 2967.93 L272.182 2962.05 Z" fill="#000000" fill-rule="nonzero" fill-opacity="1" /><path clip-path="url(#clip470)" d="M291.279 2964 L307.599 2964 L307.599 2967.93 L285.654 2967.93 L285.654 2964 Q288.316 2961.24 292.9 2956.61 Q297.506 2951.96 298.687 2950.62 Q300.932 2948.09 301.812 2946.36 Q302.714 2944.6 302.714 2942.91 Q302.714 2940.15 300.77 2938.42 Q298.849 2936.68 295.747 2936.68 Q293.548 2936.68 291.094 2937.45 Q288.663 2938.21 285.886 2939.76 L285.886 2935.04 Q288.71 2933.9 291.163 2933.33 Q293.617 2932.75 295.654 2932.75 Q301.025 2932.75 304.219 2935.43 Q307.413 2938.12 307.413 2942.61 Q307.413 2944.74 306.603 2946.66 Q305.816 2948.56 303.71 2951.15 Q303.131 2951.82 300.029 2955.04 Q296.927 2958.23 291.279 2964 Z" fill="#000000" fill-rule="nonzero" fill-opacity="1" /><path clip-path="url(#clip470)" d="M249.937 2229.66 Q246.326 2229.66 244.497 2233.22 Q242.691 2236.76 242.691 2243.89 Q242.691 2251 244.497 2254.56 Q246.326 2258.1 249.937 2258.1 Q253.571 2258.1 255.377 2254.56 Q257.205 2251 257.205 2243.89 Q257.205 2236.76 255.377 2233.22 Q253.571 2229.66 249.937 2229.66 M249.937 2225.95 Q255.747 2225.95 258.803 2230.56 Q261.881 2235.14 261.881 2243.89 Q261.881 2252.62 258.803 2257.23 Q255.747 2261.81 249.937 2261.81 Q244.127 2261.81 241.048 2257.23 Q237.992 2252.62 237.992 2243.89 Q237.992 2235.14 241.048 2230.56 Q244.127 2225.95 249.937 2225.95 Z" fill="#000000" fill-rule="nonzero" fill-opacity="1" /><path clip-path="url(#clip470)" d="M270.099 2255.26 L274.983 2255.26 L274.983 2261.14 L270.099 2261.14 L270.099 2255.26 Z" fill="#000000" fill-rule="nonzero" fill-opacity="1" /><path clip-path="url(#clip470)" d="M298.015 2230.65 L286.21 2249.1 L298.015 2249.1 L298.015 2230.65 M296.788 2226.58 L302.668 2226.58 L302.668 2249.1 L307.599 2249.1 L307.599 2252.99 L302.668 2252.99 L302.668 2261.14 L298.015 2261.14 L298.015 2252.99 L282.413 2252.99 L282.413 2248.48 L296.788 2226.58 Z" fill="#000000" fill-rule="nonzero" fill-opacity="1" /><path clip-path="url(#clip470)" d="M250.261 1522.86 Q246.65 1522.86 244.821 1526.43 Q243.016 1529.97 243.016 1537.1 Q243.016 1544.2 244.821 1547.77 Q246.65 1551.31 250.261 1551.31 Q253.895 1551.31 255.701 1547.77 Q257.529 1544.2 257.529 1537.1 Q257.529 1529.97 255.701 1526.43 Q253.895 1522.86 250.261 1522.86 M250.261 1519.16 Q256.071 1519.16 259.127 1523.76 Q262.205 1528.35 262.205 1537.1 Q262.205 1545.82 259.127 1550.43 Q256.071 1555.01 250.261 1555.01 Q244.451 1555.01 241.372 1550.43 Q238.317 1545.82 238.317 1537.1 Q238.317 1528.35 241.372 1523.76 Q244.451 1519.16 250.261 1519.16 Z" fill="#000000" fill-rule="nonzero" fill-opacity="1" /><path clip-path="url(#clip470)" d="M270.423 1548.46 L275.307 1548.46 L275.307 1554.34 L270.423 1554.34 L270.423 1548.46 Z" fill="#000000" fill-rule="nonzero" fill-opacity="1" /><path clip-path="url(#clip470)" d="M296.071 1535.2 Q292.923 1535.2 291.071 1537.35 Q289.242 1539.5 289.242 1543.25 Q289.242 1546.98 291.071 1549.16 Q292.923 1551.31 296.071 1551.31 Q299.219 1551.31 301.048 1549.16 Q302.9 1546.98 302.9 1543.25 Q302.9 1539.5 301.048 1537.35 Q299.219 1535.2 296.071 1535.2 M305.353 1520.55 L305.353 1524.81 Q303.594 1523.97 301.788 1523.53 Q300.006 1523.09 298.247 1523.09 Q293.617 1523.09 291.163 1526.22 Q288.733 1529.34 288.386 1535.66 Q289.751 1533.65 291.812 1532.58 Q293.872 1531.5 296.349 1531.5 Q301.557 1531.5 304.566 1534.67 Q307.599 1537.81 307.599 1543.25 Q307.599 1548.58 304.45 1551.8 Q301.302 1555.01 296.071 1555.01 Q290.075 1555.01 286.904 1550.43 Q283.733 1545.82 283.733 1537.1 Q283.733 1528.9 287.622 1524.04 Q291.511 1519.16 298.062 1519.16 Q299.821 1519.16 301.603 1519.5 Q303.409 1519.85 305.353 1520.55 Z" fill="#000000" fill-rule="nonzero" fill-opacity="1" /><path clip-path="url(#clip470)" d="M250.516 816.066 Q246.904 816.066 245.076 819.631 Q243.27 823.172 243.27 830.302 Q243.27 837.408 245.076 840.973 Q246.904 844.515 250.516 844.515 Q254.15 844.515 255.955 840.973 Q257.784 837.408 257.784 830.302 Q257.784 823.172 255.955 819.631 Q254.15 816.066 250.516 816.066 M250.516 812.362 Q256.326 812.362 259.381 816.969 Q262.46 821.552 262.46 830.302 Q262.46 839.029 259.381 843.635 Q256.326 848.219 250.516 848.219 Q244.705 848.219 241.627 843.635 Q238.571 839.029 238.571 830.302 Q238.571 821.552 241.627 816.969 Q244.705 812.362 250.516 812.362 Z" fill="#000000" fill-rule="nonzero" fill-opacity="1" /><path clip-path="url(#clip470)" d="M270.677 841.668 L275.562 841.668 L275.562 847.547 L270.677 847.547 L270.677 841.668 Z" fill="#000000" fill-rule="nonzero" fill-opacity="1" /><path clip-path="url(#clip470)" d="M295.747 831.135 Q292.413 831.135 290.492 832.918 Q288.594 834.7 288.594 837.825 Q288.594 840.95 290.492 842.732 Q292.413 844.515 295.747 844.515 Q299.08 844.515 301.001 842.732 Q302.923 840.927 302.923 837.825 Q302.923 834.7 301.001 832.918 Q299.103 831.135 295.747 831.135 M291.071 829.145 Q288.062 828.404 286.372 826.344 Q284.705 824.283 284.705 821.321 Q284.705 817.177 287.645 814.77 Q290.608 812.362 295.747 812.362 Q300.909 812.362 303.849 814.77 Q306.788 817.177 306.788 821.321 Q306.788 824.283 305.099 826.344 Q303.432 828.404 300.446 829.145 Q303.825 829.932 305.7 832.223 Q307.599 834.515 307.599 837.825 Q307.599 842.848 304.52 845.533 Q301.464 848.219 295.747 848.219 Q290.029 848.219 286.951 845.533 Q283.895 842.848 283.895 837.825 Q283.895 834.515 285.793 832.223 Q287.691 829.932 291.071 829.145 M289.358 821.76 Q289.358 824.445 291.025 825.95 Q292.714 827.455 295.747 827.455 Q298.756 827.455 300.446 825.95 Q302.159 824.445 302.159 821.76 Q302.159 819.075 300.446 817.571 Q298.756 816.066 295.747 816.066 Q292.714 816.066 291.025 817.571 Q289.358 819.075 289.358 821.76 Z" fill="#000000" fill-rule="nonzero" fill-opacity="1" /><path clip-path="url(#clip470)" d="M241.233 136.817 L248.872 136.817 L248.872 110.451 L240.562 112.118 L240.562 107.859 L248.826 106.192 L253.502 106.192 L253.502 136.817 L261.14 136.817 L261.14 140.752 L241.233 140.752 L241.233 136.817 Z" fill="#000000" fill-rule="nonzero" fill-opacity="1" /><path clip-path="url(#clip470)" d="M270.585 134.873 L275.469 134.873 L275.469 140.752 L270.585 140.752 L270.585 134.873 Z" fill="#000000" fill-rule="nonzero" fill-opacity="1" /><path clip-path="url(#clip470)" d="M295.654 109.271 Q292.043 109.271 290.214 112.836 Q288.409 116.377 288.409 123.507 Q288.409 130.613 290.214 134.178 Q292.043 137.72 295.654 137.72 Q299.288 137.72 301.094 134.178 Q302.923 130.613 302.923 123.507 Q302.923 116.377 301.094 112.836 Q299.288 109.271 295.654 109.271 M295.654 105.567 Q301.464 105.567 304.52 110.174 Q307.599 114.757 307.599 123.507 Q307.599 132.234 304.52 136.84 Q301.464 141.423 295.654 141.423 Q289.844 141.423 286.765 136.84 Q283.71 132.234 283.71 123.507 Q283.71 114.757 286.765 110.174 Q289.844 105.567 295.654 105.567 Z" fill="#000000" fill-rule="nonzero" fill-opacity="1" /><path clip-path="url(#clip470)" d="M87.776 2059.25 L94.0463 2059.25 Q92.2957 2062.91 91.4363 2066.15 Q90.5769 2069.4 90.5769 2072.42 Q90.5769 2077.68 92.614 2080.54 Q94.651 2083.37 98.4068 2083.37 Q101.558 2083.37 103.181 2081.49 Q104.772 2079.58 105.759 2074.3 L106.555 2070.42 Q107.924 2063.23 111.393 2059.82 Q114.83 2056.38 120.623 2056.38 Q127.53 2056.38 131.095 2061.03 Q134.659 2065.64 134.659 2074.59 Q134.659 2077.96 133.896 2081.78 Q133.132 2085.57 131.636 2089.64 L125.015 2089.64 Q127.212 2085.73 128.326 2081.97 Q129.44 2078.22 129.44 2074.59 Q129.44 2069.08 127.275 2066.09 Q125.111 2063.1 121.101 2063.1 Q117.599 2063.1 115.626 2065.26 Q113.653 2067.39 112.666 2072.3 L111.902 2076.21 Q110.47 2083.4 107.414 2086.62 Q104.359 2089.83 98.916 2089.83 Q92.614 2089.83 88.9855 2085.41 Q85.3571 2080.95 85.3571 2073.16 Q85.3571 2069.81 85.9618 2066.34 Q86.5666 2062.88 87.776 2059.25 Z" fill="#000000" fill-rule="nonzero" fill-opacity="1" /><path clip-path="url(#clip470)" d="M87.967 2040.82 L98.0885 2040.82 L98.0885 2028.75 L102.64 2028.75 L102.64 2040.82 L121.992 2040.82 Q126.352 2040.82 127.594 2039.64 Q128.835 2038.43 128.835 2034.77 L128.835 2028.75 L133.736 2028.75 L133.736 2034.77 Q133.736 2041.55 131.222 2044.13 Q128.676 2046.71 121.992 2046.71 L102.64 2046.71 L102.64 2051 L98.0885 2051 L98.0885 2046.71 L87.967 2046.71 L87.967 2040.82 Z" fill="#000000" fill-rule="nonzero" fill-opacity="1" /><path clip-path="url(#clip470)" d="M115.817 2004.85 Q115.817 2011.95 117.44 2014.69 Q119.063 2017.42 122.978 2017.42 Q126.098 2017.42 127.944 2015.39 Q129.758 2013.32 129.758 2009.79 Q129.758 2004.92 126.32 2001.99 Q122.851 1999.03 117.122 1999.03 L115.817 1999.03 L115.817 2004.85 M113.398 1993.17 L133.736 1993.17 L133.736 1999.03 L128.326 1999.03 Q131.572 2001.03 133.132 2004.02 Q134.659 2007.02 134.659 2011.34 Q134.659 2016.82 131.604 2020.07 Q128.517 2023.28 123.36 2023.28 Q117.345 2023.28 114.289 2019.27 Q111.234 2015.23 111.234 2007.24 L111.234 1999.03 L110.661 1999.03 Q106.619 1999.03 104.422 2001.7 Q102.194 2004.34 102.194 2009.15 Q102.194 2012.2 102.926 2015.1 Q103.658 2018 105.123 2020.67 L99.7117 2020.67 Q98.4704 2017.46 97.8657 2014.43 Q97.2291 2011.41 97.2291 2008.54 Q97.2291 2000.81 101.24 1996.99 Q105.25 1993.17 113.398 1993.17 Z" fill="#000000" fill-rule="nonzero" fill-opacity="1" /><path clip-path="url(#clip470)" d="M87.967 1975.31 L98.0885 1975.31 L98.0885 1963.25 L102.64 1963.25 L102.64 1975.31 L121.992 1975.31 Q126.352 1975.31 127.594 1974.14 Q128.835 1972.93 128.835 1969.27 L128.835 1963.25 L133.736 1963.25 L133.736 1969.27 Q133.736 1976.05 131.222 1978.62 Q128.676 1981.2 121.992 1981.2 L102.64 1981.2 L102.64 1985.5 L98.0885 1985.5 L98.0885 1981.2 L87.967 1981.2 L87.967 1975.31 Z" fill="#000000" fill-rule="nonzero" fill-opacity="1" /><path clip-path="url(#clip470)" d="M114.448 1925.06 L117.313 1925.06 L117.313 1951.98 Q123.36 1951.6 126.543 1948.36 Q129.694 1945.08 129.694 1939.25 Q129.694 1935.88 128.867 1932.73 Q128.039 1929.55 126.384 1926.43 L131.922 1926.43 Q133.259 1929.58 133.959 1932.89 Q134.659 1936.2 134.659 1939.6 Q134.659 1948.13 129.694 1953.13 Q124.729 1958.1 116.263 1958.1 Q107.51 1958.1 102.385 1953.38 Q97.2291 1948.64 97.2291 1940.62 Q97.2291 1933.43 101.876 1929.26 Q106.491 1925.06 114.448 1925.06 M112.73 1930.91 Q107.924 1930.98 105.059 1933.62 Q102.194 1936.23 102.194 1940.56 Q102.194 1945.46 104.963 1948.42 Q107.733 1951.35 112.761 1951.79 L112.73 1930.91 Z" fill="#000000" fill-rule="nonzero" fill-opacity="1" /><path clip-path="url(#clip470)" d="M133.736 1882.22 L86.2164 1900.36 L86.2164 1893.64 L126.225 1878.59 L86.2164 1863.5 L86.2164 1856.82 L133.736 1874.93 L133.736 1882.22 Z" fill="#000000" fill-rule="nonzero" fill-opacity="1" /><path clip-path="url(#clip470)" d="M115.817 1838.99 Q115.817 1846.09 117.44 1848.83 Q119.063 1851.57 122.978 1851.57 Q126.098 1851.57 127.944 1849.53 Q129.758 1847.46 129.758 1843.93 Q129.758 1839.06 126.32 1836.13 Q122.851 1833.17 117.122 1833.17 L115.817 1833.17 L115.817 1838.99 M113.398 1827.31 L133.736 1827.31 L133.736 1833.17 L128.326 1833.17 Q131.572 1835.17 133.132 1838.17 Q134.659 1841.16 134.659 1845.49 Q134.659 1850.96 131.604 1854.21 Q128.517 1857.42 123.36 1857.42 Q117.345 1857.42 114.289 1853.41 Q111.234 1849.37 111.234 1841.38 L111.234 1833.17 L110.661 1833.17 Q106.619 1833.17 104.422 1835.84 Q102.194 1838.48 102.194 1843.29 Q102.194 1846.35 102.926 1849.24 Q103.658 1852.14 105.123 1854.81 L99.7117 1854.81 Q98.4704 1851.6 97.8657 1848.57 Q97.2291 1845.55 97.2291 1842.69 Q97.2291 1834.95 101.24 1831.13 Q105.25 1827.31 113.398 1827.31 Z" fill="#000000" fill-rule="nonzero" fill-opacity="1" /><path clip-path="url(#clip470)" d="M84.2112 1815.25 L84.2112 1809.39 L133.736 1809.39 L133.736 1815.25 L84.2112 1815.25 Z" fill="#000000" fill-rule="nonzero" fill-opacity="1" /><path clip-path="url(#clip470)" d="M119.668 1797.74 L98.0885 1797.74 L98.0885 1791.89 L119.445 1791.89 Q124.506 1791.89 127.052 1789.91 Q129.567 1787.94 129.567 1783.99 Q129.567 1779.25 126.543 1776.51 Q123.519 1773.74 118.3 1773.74 L98.0885 1773.74 L98.0885 1767.89 L133.736 1767.89 L133.736 1773.74 L128.262 1773.74 Q131.508 1775.88 133.1 1778.71 Q134.659 1781.51 134.659 1785.23 Q134.659 1791.38 130.84 1794.56 Q127.021 1797.74 119.668 1797.74 M97.2291 1783.01 L97.2291 1783.01 Z" fill="#000000" fill-rule="nonzero" fill-opacity="1" /><path clip-path="url(#clip470)" d="M114.448 1725.33 L117.313 1725.33 L117.313 1752.26 Q123.36 1751.88 126.543 1748.63 Q129.694 1745.35 129.694 1739.53 Q129.694 1736.16 128.867 1733 Q128.039 1729.82 126.384 1726.7 L131.922 1726.7 Q133.259 1729.85 133.959 1733.16 Q134.659 1736.47 134.659 1739.88 Q134.659 1748.41 129.694 1753.41 Q124.729 1758.37 116.263 1758.37 Q107.51 1758.37 102.385 1753.66 Q97.2291 1748.92 97.2291 1740.9 Q97.2291 1733.7 101.876 1729.53 Q106.491 1725.33 114.448 1725.33 M112.73 1731.19 Q107.924 1731.25 105.059 1733.9 Q102.194 1736.51 102.194 1740.83 Q102.194 1745.74 104.963 1748.7 Q107.733 1751.62 112.761 1752.07 L112.73 1731.19 Z" fill="#000000" fill-rule="nonzero" fill-opacity="1" /><path clip-path="url(#clip470)" d="M99.1388 1693 L104.677 1693 Q103.404 1695.48 102.767 1698.15 Q102.131 1700.83 102.131 1703.69 Q102.131 1708.05 103.468 1710.25 Q104.804 1712.41 107.478 1712.41 Q109.515 1712.41 110.693 1710.85 Q111.838 1709.29 112.889 1704.58 L113.334 1702.58 Q114.671 1696.34 117.122 1693.73 Q119.541 1691.09 123.901 1691.09 Q128.867 1691.09 131.763 1695.03 Q134.659 1698.95 134.659 1705.82 Q134.659 1708.69 134.087 1711.81 Q133.545 1714.89 132.431 1718.33 L126.384 1718.33 Q128.071 1715.08 128.93 1711.93 Q129.758 1708.78 129.758 1705.7 Q129.758 1701.56 128.357 1699.33 Q126.925 1697.1 124.347 1697.1 Q121.96 1697.1 120.687 1698.72 Q119.414 1700.32 118.236 1705.76 L117.759 1707.8 Q116.613 1713.24 114.257 1715.66 Q111.87 1718.08 107.733 1718.08 Q102.704 1718.08 99.9664 1714.51 Q97.2291 1710.95 97.2291 1704.39 Q97.2291 1701.14 97.7065 1698.28 Q98.184 1695.41 99.1388 1693 Z" fill="#000000" fill-rule="nonzero" fill-opacity="1" /><path clip-path="url(#clip470)" d="M1866.09 16.7545 L1866.09 25.383 Q1861.96 21.5346 1857.26 19.6307 Q1852.6 17.7268 1847.34 17.7268 Q1836.97 17.7268 1831.46 24.0867 Q1825.95 30.4061 1825.95 42.3968 Q1825.95 54.3469 1831.46 60.7069 Q1836.97 67.0263 1847.34 67.0263 Q1852.6 67.0263 1857.26 65.1223 Q1861.96 63.2184 1866.09 59.3701 L1866.09 67.9175 Q1861.8 70.8341 1856.98 72.2924 Q1852.2 73.7508 1846.85 73.7508 Q1833.12 73.7508 1825.22 65.3654 Q1817.32 56.9395 1817.32 42.3968 Q1817.32 27.8135 1825.22 19.4281 Q1833.12 11.0023 1846.85 11.0023 Q1852.28 11.0023 1857.06 12.4606 Q1861.88 13.8784 1866.09 16.7545 Z" fill="#000000" fill-rule="nonzero" fill-opacity="1" /><path clip-path="url(#clip470)" d="M1870.34 12.096 L1921.51 12.096 L1921.51 18.9825 L1900.04 18.9825 L1900.04 72.576 L1891.81 72.576 L1891.81 18.9825 L1870.34 18.9825 L1870.34 12.096 Z" fill="#000000" fill-rule="nonzero" fill-opacity="1" /><path clip-path="url(#clip470)" d="M1929.41 12.096 L1941.6 12.096 L1957.03 53.2532 L1972.55 12.096 L1984.74 12.096 L1984.74 72.576 L1976.76 72.576 L1976.76 19.4686 L1961.17 60.9499 L1952.94 60.9499 L1937.35 19.4686 L1937.35 72.576 L1929.41 72.576 L1929.41 12.096 Z" fill="#000000" fill-rule="nonzero" fill-opacity="1" /><path clip-path="url(#clip470)" d="M2046.28 16.7545 L2046.28 25.383 Q2042.14 21.5346 2037.44 19.6307 Q2032.79 17.7268 2027.52 17.7268 Q2017.15 17.7268 2011.64 24.0867 Q2006.13 30.4061 2006.13 42.3968 Q2006.13 54.3469 2011.64 60.7069 Q2017.15 67.0263 2027.52 67.0263 Q2032.79 67.0263 2037.44 65.1223 Q2042.14 63.2184 2046.28 59.3701 L2046.28 67.9175 Q2041.98 70.8341 2037.16 72.2924 Q2032.38 73.7508 2027.03 73.7508 Q2013.3 73.7508 2005.4 65.3654 Q1997.5 56.9395 1997.5 42.3968 Q1997.5 27.8135 2005.4 19.4281 Q2013.3 11.0023 2027.03 11.0023 Q2032.46 11.0023 2037.24 12.4606 Q2042.06 13.8784 2046.28 16.7545 Z" fill="#000000" fill-rule="nonzero" fill-opacity="1" /><path clip-path="url(#clip470)" d="M2121.54 14.0809 L2121.54 22.0612 Q2116.88 19.8332 2112.75 18.7395 Q2108.62 17.6457 2104.77 17.6457 Q2098.09 17.6457 2094.44 20.2383 Q2090.84 22.8309 2090.84 27.611 Q2090.84 31.6214 2093.23 33.6873 Q2095.66 35.7128 2102.38 36.9686 L2107.32 37.9813 Q2116.48 39.7232 2120.81 44.1387 Q2125.19 48.5136 2125.19 55.8863 Q2125.19 64.6767 2119.27 69.2137 Q2113.4 73.7508 2102.02 73.7508 Q2097.72 73.7508 2092.86 72.7785 Q2088.04 71.8063 2082.86 69.9024 L2082.86 61.4765 Q2087.84 64.2716 2092.62 65.6895 Q2097.4 67.1073 2102.02 67.1073 Q2109.02 67.1073 2112.83 64.3527 Q2116.64 61.598 2116.64 56.4939 Q2116.64 52.0379 2113.89 49.5264 Q2111.17 47.0148 2104.93 45.759 L2099.95 44.7868 Q2090.8 42.9639 2086.7 39.075 Q2082.61 35.1862 2082.61 28.2591 Q2082.61 20.2383 2088.24 15.6203 Q2093.91 11.0023 2103.84 11.0023 Q2108.09 11.0023 2112.51 11.7719 Q2116.92 12.5416 2121.54 14.0809 Z" fill="#000000" fill-rule="nonzero" fill-opacity="1" /><path clip-path="url(#clip470)" d="M2137.62 27.2059 L2145.08 27.2059 L2145.08 72.576 L2137.62 72.576 L2137.62 27.2059 M2137.62 9.54393 L2145.08 9.54393 L2145.08 18.9825 L2137.62 18.9825 L2137.62 9.54393 Z" fill="#000000" fill-rule="nonzero" fill-opacity="1" /><path clip-path="url(#clip470)" d="M2196 35.9153 Q2198.79 30.8922 2202.68 28.5022 Q2206.57 26.1121 2211.84 26.1121 Q2218.93 26.1121 2222.77 31.0947 Q2226.62 36.0368 2226.62 45.1919 L2226.62 72.576 L2219.13 72.576 L2219.13 45.4349 Q2219.13 38.913 2216.82 35.7533 Q2214.51 32.5936 2209.77 32.5936 Q2203.98 32.5936 2200.62 36.4419 Q2197.25 40.2903 2197.25 46.9338 L2197.25 72.576 L2189.76 72.576 L2189.76 45.4349 Q2189.76 38.8725 2187.45 35.7533 Q2185.14 32.5936 2180.32 32.5936 Q2174.61 32.5936 2171.25 36.4824 Q2167.88 40.3308 2167.88 46.9338 L2167.88 72.576 L2160.39 72.576 L2160.39 27.2059 L2167.88 27.2059 L2167.88 34.2544 Q2170.44 30.082 2174 28.0971 Q2177.57 26.1121 2182.47 26.1121 Q2187.41 26.1121 2190.85 28.6237 Q2194.34 31.1352 2196 35.9153 Z" fill="#000000" fill-rule="nonzero" fill-opacity="1" /><path clip-path="url(#clip470)" d="M2240.72 54.671 L2240.72 27.2059 L2248.17 27.2059 L2248.17 54.3874 Q2248.17 60.8284 2250.68 64.0691 Q2253.2 67.2693 2258.22 67.2693 Q2264.25 67.2693 2267.74 63.421 Q2271.26 59.5726 2271.26 52.9291 L2271.26 27.2059 L2278.72 27.2059 L2278.72 72.576 L2271.26 72.576 L2271.26 65.6084 Q2268.55 69.7404 2264.94 71.7658 Q2261.38 73.7508 2256.64 73.7508 Q2248.82 73.7508 2244.77 68.8897 Q2240.72 64.0286 2240.72 54.671 M2259.47 26.1121 L2259.47 26.1121 Z" fill="#000000" fill-rule="nonzero" fill-opacity="1" /><path clip-path="url(#clip470)" d="M2294.07 9.54393 L2301.52 9.54393 L2301.52 72.576 L2294.07 72.576 L2294.07 9.54393 Z" fill="#000000" fill-rule="nonzero" fill-opacity="1" /><path clip-path="url(#clip470)" d="M2337.74 49.7694 Q2328.7 49.7694 2325.22 51.8354 Q2321.74 53.9013 2321.74 58.8839 Q2321.74 62.8538 2324.33 65.2034 Q2326.96 67.5124 2331.46 67.5124 Q2337.66 67.5124 2341.38 63.1374 Q2345.15 58.7219 2345.15 51.4303 L2345.15 49.7694 L2337.74 49.7694 M2352.61 46.6907 L2352.61 72.576 L2345.15 72.576 L2345.15 65.6895 Q2342.6 69.8214 2338.79 71.8063 Q2334.98 73.7508 2329.47 73.7508 Q2322.51 73.7508 2318.37 69.8619 Q2314.28 65.9325 2314.28 59.3701 Q2314.28 51.7138 2319.39 47.825 Q2324.53 43.9361 2334.7 43.9361 L2345.15 43.9361 L2345.15 43.2069 Q2345.15 38.0623 2341.75 35.2672 Q2338.39 32.4315 2332.27 32.4315 Q2328.38 32.4315 2324.69 33.3632 Q2321.01 34.295 2317.61 36.1584 L2317.61 29.2718 Q2321.7 27.692 2325.55 26.9223 Q2329.39 26.1121 2333.04 26.1121 Q2342.88 26.1121 2347.74 31.2163 Q2352.61 36.3204 2352.61 46.6907 Z" fill="#000000" fill-rule="nonzero" fill-opacity="1" /><path clip-path="url(#clip470)" d="M2375.33 14.324 L2375.33 27.2059 L2390.68 27.2059 L2390.68 32.9987 L2375.33 32.9987 L2375.33 57.6282 Q2375.33 63.1779 2376.83 64.7578 Q2378.37 66.3376 2383.03 66.3376 L2390.68 66.3376 L2390.68 72.576 L2383.03 72.576 Q2374.4 72.576 2371.12 69.3758 Q2367.84 66.1351 2367.84 57.6282 L2367.84 32.9987 L2362.37 32.9987 L2362.37 27.2059 L2367.84 27.2059 L2367.84 14.324 L2375.33 14.324 Z" fill="#000000" fill-rule="nonzero" fill-opacity="1" /><path clip-path="url(#clip470)" d="M2400.49 27.2059 L2407.94 27.2059 L2407.94 72.576 L2400.49 72.576 L2400.49 27.2059 M2400.49 9.54393 L2407.94 9.54393 L2407.94 18.9825 L2400.49 18.9825 L2400.49 9.54393 Z" fill="#000000" fill-rule="nonzero" fill-opacity="1" /><path clip-path="url(#clip470)" d="M2441.12 32.4315 Q2435.12 32.4315 2431.64 37.1306 Q2428.15 41.7891 2428.15 49.9314 Q2428.15 58.0738 2431.6 62.7728 Q2435.08 67.4314 2441.12 67.4314 Q2447.07 67.4314 2450.56 62.7323 Q2454.04 58.0333 2454.04 49.9314 Q2454.04 41.8701 2450.56 37.1711 Q2447.07 32.4315 2441.12 32.4315 M2441.12 26.1121 Q2450.84 26.1121 2456.39 32.4315 Q2461.94 38.7509 2461.94 49.9314 Q2461.94 61.0714 2456.39 67.4314 Q2450.84 73.7508 2441.12 73.7508 Q2431.35 73.7508 2425.8 67.4314 Q2420.3 61.0714 2420.3 49.9314 Q2420.3 38.7509 2425.8 32.4315 Q2431.35 26.1121 2441.12 26.1121 Z" fill="#000000" fill-rule="nonzero" fill-opacity="1" /><path clip-path="url(#clip470)" d="M2512.01 45.1919 L2512.01 72.576 L2504.55 72.576 L2504.55 45.4349 Q2504.55 38.994 2502.04 35.7938 Q2499.53 32.5936 2494.51 32.5936 Q2488.47 32.5936 2484.99 36.4419 Q2481.5 40.2903 2481.5 46.9338 L2481.5 72.576 L2474.01 72.576 L2474.01 27.2059 L2481.5 27.2059 L2481.5 34.2544 Q2484.18 30.163 2487.78 28.1376 Q2491.43 26.1121 2496.17 26.1121 Q2503.99 26.1121 2508 30.9732 Q2512.01 35.7938 2512.01 45.1919 Z" fill="#000000" fill-rule="nonzero" fill-opacity="1" /><path clip-path="url(#clip470)" d="M2549.48 46.5287 L2571.31 46.5287 L2571.31 53.1722 L2549.48 53.1722 L2549.48 46.5287 Z" fill="#000000" fill-rule="nonzero" fill-opacity="1" /><path clip-path="url(#clip470)" d="M2601.49 12.096 L2652.66 12.096 L2652.66 18.9825 L2631.19 18.9825 L2631.19 72.576 L2622.96 72.576 L2622.96 18.9825 L2601.49 18.9825 L2601.49 12.096 Z" fill="#000000" fill-rule="nonzero" fill-opacity="1" /><path clip-path="url(#clip470)" d="M2674.33 34.1734 Q2673.07 33.4443 2671.57 33.1202 Q2670.11 32.7556 2668.33 32.7556 Q2662.01 32.7556 2658.61 36.8875 Q2655.25 40.9789 2655.25 48.6757 L2655.25 72.576 L2647.75 72.576 L2647.75 27.2059 L2655.25 27.2059 L2655.25 34.2544 Q2657.6 30.1225 2661.36 28.1376 Q2665.13 26.1121 2670.52 26.1121 Q2671.29 26.1121 2672.22 26.2337 Q2673.15 26.3147 2674.29 26.5172 L2674.33 34.1734 Z" fill="#000000" fill-rule="nonzero" fill-opacity="1" /><path clip-path="url(#clip470)" d="M2702.77 49.7694 Q2693.73 49.7694 2690.25 51.8354 Q2686.76 53.9013 2686.76 58.8839 Q2686.76 62.8538 2689.36 65.2034 Q2691.99 67.5124 2696.49 67.5124 Q2702.68 67.5124 2706.41 63.1374 Q2710.18 58.7219 2710.18 51.4303 L2710.18 49.7694 L2702.77 49.7694 M2717.63 46.6907 L2717.63 72.576 L2710.18 72.576 L2710.18 65.6895 Q2707.63 69.8214 2703.82 71.8063 Q2700.01 73.7508 2694.5 73.7508 Q2687.53 73.7508 2683.4 69.8619 Q2679.31 65.9325 2679.31 59.3701 Q2679.31 51.7138 2684.41 47.825 Q2689.56 43.9361 2699.73 43.9361 L2710.18 43.9361 L2710.18 43.2069 Q2710.18 38.0623 2706.78 35.2672 Q2703.41 32.4315 2697.3 32.4315 Q2693.41 32.4315 2689.72 33.3632 Q2686.03 34.295 2682.63 36.1584 L2682.63 29.2718 Q2686.72 27.692 2690.57 26.9223 Q2694.42 26.1121 2698.07 26.1121 Q2707.91 26.1121 2712.77 31.2163 Q2717.63 36.3204 2717.63 46.6907 Z" fill="#000000" fill-rule="nonzero" fill-opacity="1" /><path clip-path="url(#clip470)" d="M2732.98 27.2059 L2740.44 27.2059 L2740.44 73.3862 Q2740.44 82.0551 2737.12 85.944 Q2733.84 89.8329 2726.5 89.8329 L2723.67 89.8329 L2723.67 83.5134 L2725.65 83.5134 Q2729.91 83.5134 2731.45 81.5285 Q2732.98 79.5841 2732.98 73.3862 L2732.98 27.2059 M2732.98 9.54393 L2740.44 9.54393 L2740.44 18.9825 L2732.98 18.9825 L2732.98 9.54393 Z" fill="#000000" fill-rule="nonzero" fill-opacity="1" /><path clip-path="url(#clip470)" d="M2794.84 48.0275 L2794.84 51.6733 L2760.57 51.6733 Q2761.06 59.3701 2765.19 63.421 Q2769.36 67.4314 2776.78 67.4314 Q2781.07 67.4314 2785.08 66.3781 Q2789.13 65.3249 2793.1 63.2184 L2793.1 70.267 Q2789.09 71.9684 2784.88 72.8596 Q2780.66 73.7508 2776.33 73.7508 Q2765.47 73.7508 2759.11 67.4314 Q2752.79 61.1119 2752.79 50.3365 Q2752.79 39.1965 2758.79 32.6746 Q2764.83 26.1121 2775.03 26.1121 Q2784.19 26.1121 2789.5 32.0264 Q2794.84 37.9003 2794.84 48.0275 M2787.39 45.84 Q2787.31 39.7232 2783.95 36.0774 Q2780.62 32.4315 2775.11 32.4315 Q2768.88 32.4315 2765.11 35.9558 Q2761.38 39.4801 2760.81 45.8805 L2787.39 45.84 Z" fill="#000000" fill-rule="nonzero" fill-opacity="1" /><path clip-path="url(#clip470)" d="M2839.73 28.9478 L2839.73 35.9153 Q2836.57 34.1734 2833.37 33.3227 Q2830.21 32.4315 2826.97 32.4315 Q2819.71 32.4315 2815.7 37.0496 Q2811.69 41.6271 2811.69 49.9314 Q2811.69 58.2358 2815.7 62.8538 Q2819.71 67.4314 2826.97 67.4314 Q2830.21 67.4314 2833.37 66.5807 Q2836.57 65.6895 2839.73 63.9476 L2839.73 70.8341 Q2836.61 72.2924 2833.24 73.0216 Q2829.92 73.7508 2826.16 73.7508 Q2815.91 73.7508 2809.87 67.3098 Q2803.84 60.8689 2803.84 49.9314 Q2803.84 38.832 2809.91 32.472 Q2816.03 26.1121 2826.64 26.1121 Q2830.09 26.1121 2833.37 26.8413 Q2836.65 27.5299 2839.73 28.9478 Z" fill="#000000" fill-rule="nonzero" fill-opacity="1" /><path clip-path="url(#clip470)" d="M2860.06 14.324 L2860.06 27.2059 L2875.41 27.2059 L2875.41 32.9987 L2860.06 32.9987 L2860.06 57.6282 Q2860.06 63.1779 2861.56 64.7578 Q2863.1 66.3376 2867.76 66.3376 L2875.41 66.3376 L2875.41 72.576 L2867.76 72.576 Q2859.13 72.576 2855.85 69.3758 Q2852.57 66.1351 2852.57 57.6282 L2852.57 32.9987 L2847.1 32.9987 L2847.1 27.2059 L2852.57 27.2059 L2852.57 14.324 L2860.06 14.324 Z" fill="#000000" fill-rule="nonzero" fill-opacity="1" /><path clip-path="url(#clip470)" d="M2902.8 32.4315 Q2896.8 32.4315 2893.32 37.1306 Q2889.84 41.7891 2889.84 49.9314 Q2889.84 58.0738 2893.28 62.7728 Q2896.76 67.4314 2902.8 67.4314 Q2908.75 67.4314 2912.24 62.7323 Q2915.72 58.0333 2915.72 49.9314 Q2915.72 41.8701 2912.24 37.1711 Q2908.75 32.4315 2902.8 32.4315 M2902.8 26.1121 Q2912.52 26.1121 2918.07 32.4315 Q2923.62 38.7509 2923.62 49.9314 Q2923.62 61.0714 2918.07 67.4314 Q2912.52 73.7508 2902.8 73.7508 Q2893.04 73.7508 2887.49 67.4314 Q2881.98 61.0714 2881.98 49.9314 Q2881.98 38.7509 2887.49 32.4315 Q2893.04 26.1121 2902.8 26.1121 Z" fill="#000000" fill-rule="nonzero" fill-opacity="1" /><path clip-path="url(#clip470)" d="M2962.27 34.1734 Q2961.01 33.4443 2959.51 33.1202 Q2958.05 32.7556 2956.27 32.7556 Q2949.95 32.7556 2946.55 36.8875 Q2943.19 40.9789 2943.19 48.6757 L2943.19 72.576 L2935.69 72.576 L2935.69 27.2059 L2943.19 27.2059 L2943.19 34.2544 Q2945.54 30.1225 2949.3 28.1376 Q2953.07 26.1121 2958.46 26.1121 Q2959.23 26.1121 2960.16 26.2337 Q2961.09 26.3147 2962.23 26.5172 L2962.27 34.1734 Z" fill="#000000" fill-rule="nonzero" fill-opacity="1" /><path clip-path="url(#clip470)" d="M2970.08 27.2059 L2977.54 27.2059 L2977.54 72.576 L2970.08 72.576 L2970.08 27.2059 M2970.08 9.54393 L2977.54 9.54393 L2977.54 18.9825 L2970.08 18.9825 L2970.08 9.54393 Z" fill="#000000" fill-rule="nonzero" fill-opacity="1" /><path clip-path="url(#clip470)" d="M3031.94 48.0275 L3031.94 51.6733 L2997.67 51.6733 Q2998.16 59.3701 3002.29 63.421 Q3006.46 67.4314 3013.87 67.4314 Q3018.17 67.4314 3022.18 66.3781 Q3026.23 65.3249 3030.2 63.2184 L3030.2 70.267 Q3026.19 71.9684 3021.98 72.8596 Q3017.76 73.7508 3013.43 73.7508 Q3002.57 73.7508 2996.21 67.4314 Q2989.89 61.1119 2989.89 50.3365 Q2989.89 39.1965 2995.89 32.6746 Q3001.92 26.1121 3012.13 26.1121 Q3021.29 26.1121 3026.59 32.0264 Q3031.94 37.9003 3031.94 48.0275 M3024.49 45.84 Q3024.41 39.7232 3021.04 36.0774 Q3017.72 32.4315 3012.21 32.4315 Q3005.98 32.4315 3002.21 35.9558 Q2998.48 39.4801 2997.91 45.8805 L3024.49 45.84 Z" fill="#000000" fill-rule="nonzero" fill-opacity="1" /><path clip-path="url(#clip470)" d="M3073.1 28.5427 L3073.1 35.5912 Q3069.94 33.9709 3066.54 33.1607 Q3063.13 32.3505 3059.49 32.3505 Q3053.94 32.3505 3051.14 34.0519 Q3048.39 35.7533 3048.39 39.156 Q3048.39 41.7486 3050.37 43.2475 Q3052.36 44.7058 3058.35 46.0426 L3060.91 46.6097 Q3068.85 48.3111 3072.17 51.4303 Q3075.53 54.509 3075.53 60.0587 Q3075.53 66.3781 3070.51 70.0644 Q3065.52 73.7508 3056.77 73.7508 Q3053.13 73.7508 3049.16 73.0216 Q3045.23 72.3329 3040.85 70.9151 L3040.85 63.2184 Q3044.99 65.3654 3049 66.4591 Q3053.01 67.5124 3056.94 67.5124 Q3062.2 67.5124 3065.04 65.73 Q3067.87 63.9071 3067.87 60.6258 Q3067.87 57.5877 3065.81 55.9673 Q3063.78 54.3469 3056.85 52.8481 L3054.26 52.2405 Q3047.34 50.7821 3044.26 47.7845 Q3041.18 44.7463 3041.18 39.4801 Q3041.18 33.0797 3045.71 29.5959 Q3050.25 26.1121 3058.6 26.1121 Q3062.73 26.1121 3066.37 26.7198 Q3070.02 27.3274 3073.1 28.5427 Z" fill="#000000" fill-rule="nonzero" fill-opacity="1" /><path clip-path="url(#clip470)" d="M3131.35 32.4315 Q3125.36 32.4315 3121.87 37.1306 Q3118.39 41.7891 3118.39 49.9314 Q3118.39 58.0738 3121.83 62.7728 Q3125.32 67.4314 3131.35 67.4314 Q3137.31 67.4314 3140.79 62.7323 Q3144.27 58.0333 3144.27 49.9314 Q3144.27 41.8701 3140.79 37.1711 Q3137.31 32.4315 3131.35 32.4315 M3131.35 26.1121 Q3141.07 26.1121 3146.62 32.4315 Q3152.17 38.7509 3152.17 49.9314 Q3152.17 61.0714 3146.62 67.4314 Q3141.07 73.7508 3131.35 73.7508 Q3121.59 73.7508 3116.04 67.4314 Q3110.53 61.0714 3110.53 49.9314 Q3110.53 38.7509 3116.04 32.4315 Q3121.59 26.1121 3131.35 26.1121 Z" fill="#000000" fill-rule="nonzero" fill-opacity="1" /><path clip-path="url(#clip470)" d="M3187.5 9.54393 L3187.5 15.7418 L3180.37 15.7418 Q3176.36 15.7418 3174.78 17.3622 Q3173.24 18.9825 3173.24 23.1955 L3173.24 27.2059 L3185.51 27.2059 L3185.51 32.9987 L3173.24 32.9987 L3173.24 72.576 L3165.74 72.576 L3165.74 32.9987 L3158.61 32.9987 L3158.61 27.2059 L3165.74 27.2059 L3165.74 24.0462 Q3165.74 16.471 3169.27 13.0277 Q3172.79 9.54393 3180.45 9.54393 L3187.5 9.54393 Z" fill="#000000" fill-rule="nonzero" fill-opacity="1" /><path clip-path="url(#clip470)" d="M3265.72 16.7545 L3265.72 25.383 Q3261.59 21.5346 3256.89 19.6307 Q3252.23 17.7268 3246.96 17.7268 Q3236.59 17.7268 3231.08 24.0867 Q3225.57 30.4061 3225.57 42.3968 Q3225.57 54.3469 3231.08 60.7069 Q3236.59 67.0263 3246.96 67.0263 Q3252.23 67.0263 3256.89 65.1223 Q3261.59 63.2184 3265.72 59.3701 L3265.72 67.9175 Q3261.43 70.8341 3256.6 72.2924 Q3251.82 73.7508 3246.48 73.7508 Q3232.75 73.7508 3224.85 65.3654 Q3216.95 56.9395 3216.95 42.3968 Q3216.95 27.8135 3224.85 19.4281 Q3232.75 11.0023 3246.48 11.0023 Q3251.91 11.0023 3256.69 12.4606 Q3261.51 13.8784 3265.72 16.7545 Z" fill="#000000" fill-rule="nonzero" fill-opacity="1" /><path clip-path="url(#clip470)" d="M3316.84 48.0275 L3316.84 51.6733 L3282.57 51.6733 Q3283.06 59.3701 3287.19 63.421 Q3291.36 67.4314 3298.77 67.4314 Q3303.07 67.4314 3307.08 66.3781 Q3311.13 65.3249 3315.1 63.2184 L3315.1 70.267 Q3311.09 71.9684 3306.88 72.8596 Q3302.66 73.7508 3298.33 73.7508 Q3287.47 73.7508 3281.11 67.4314 Q3274.79 61.1119 3274.79 50.3365 Q3274.79 39.1965 3280.79 32.6746 Q3286.82 26.1121 3297.03 26.1121 Q3306.19 26.1121 3311.49 32.0264 Q3316.84 37.9003 3316.84 48.0275 M3309.39 45.84 Q3309.31 39.7232 3305.94 36.0774 Q3302.62 32.4315 3297.11 32.4315 Q3290.88 32.4315 3287.11 35.9558 Q3283.38 39.4801 3282.81 45.8805 L3309.39 45.84 Z" fill="#000000" fill-rule="nonzero" fill-opacity="1" /><path clip-path="url(#clip470)" d="M3329.08 9.54393 L3336.53 9.54393 L3336.53 72.576 L3329.08 72.576 L3329.08 9.54393 Z" fill="#000000" fill-rule="nonzero" fill-opacity="1" /><path clip-path="url(#clip470)" d="M3352.13 9.54393 L3359.58 9.54393 L3359.58 72.576 L3352.13 72.576 L3352.13 9.54393 Z" fill="#000000" fill-rule="nonzero" fill-opacity="1" /><path clip-path="url(#clip470)" d="M3404.1 28.5427 L3404.1 35.5912 Q3400.94 33.9709 3397.54 33.1607 Q3394.13 32.3505 3390.49 32.3505 Q3384.94 32.3505 3382.14 34.0519 Q3379.39 35.7533 3379.39 39.156 Q3379.39 41.7486 3381.37 43.2475 Q3383.36 44.7058 3389.35 46.0426 L3391.91 46.6097 Q3399.84 48.3111 3403.17 51.4303 Q3406.53 54.509 3406.53 60.0587 Q3406.53 66.3781 3401.51 70.0644 Q3396.52 73.7508 3387.77 73.7508 Q3384.13 73.7508 3380.16 73.0216 Q3376.23 72.3329 3371.85 70.9151 L3371.85 63.2184 Q3375.98 65.3654 3380 66.4591 Q3384.01 67.5124 3387.94 67.5124 Q3393.2 67.5124 3396.04 65.73 Q3398.87 63.9071 3398.87 60.6258 Q3398.87 57.5877 3396.81 55.9673 Q3394.78 54.3469 3387.85 52.8481 L3385.26 52.2405 Q3378.33 50.7821 3375.26 47.7845 Q3372.18 44.7463 3372.18 39.4801 Q3372.18 33.0797 3376.71 29.5959 Q3381.25 26.1121 3389.6 26.1121 Q3393.73 26.1121 3397.37 26.7198 Q3401.02 27.3274 3404.1 28.5427 Z" fill="#000000" fill-rule="nonzero" fill-opacity="1" /><path clip-path="url(#clip470)" d="M3465.39 49.7694 Q3456.35 49.7694 3452.87 51.8354 Q3449.39 53.9013 3449.39 58.8839 Q3449.39 62.8538 3451.98 65.2034 Q3454.61 67.5124 3459.11 67.5124 Q3465.31 67.5124 3469.03 63.1374 Q3472.8 58.7219 3472.8 51.4303 L3472.8 49.7694 L3465.39 49.7694 M3480.26 46.6907 L3480.26 72.576 L3472.8 72.576 L3472.8 65.6895 Q3470.25 69.8214 3466.44 71.8063 Q3462.63 73.7508 3457.12 73.7508 Q3450.16 73.7508 3446.03 69.8619 Q3441.93 65.9325 3441.93 59.3701 Q3441.93 51.7138 3447.04 47.825 Q3452.18 43.9361 3462.35 43.9361 L3472.8 43.9361 L3472.8 43.2069 Q3472.8 38.0623 3469.4 35.2672 Q3466.04 32.4315 3459.92 32.4315 Q3456.03 32.4315 3452.34 33.3632 Q3448.66 34.295 3445.26 36.1584 L3445.26 29.2718 Q3449.35 27.692 3453.2 26.9223 Q3457.04 26.1121 3460.69 26.1121 Q3470.53 26.1121 3475.39 31.2163 Q3480.26 36.3204 3480.26 46.6907 Z" fill="#000000" fill-rule="nonzero" fill-opacity="1" /><path clip-path="url(#clip470)" d="M3542.6 49.7694 Q3533.57 49.7694 3530.08 51.8354 Q3526.6 53.9013 3526.6 58.8839 Q3526.6 62.8538 3529.19 65.2034 Q3531.82 67.5124 3536.32 67.5124 Q3542.52 67.5124 3546.24 63.1374 Q3550.01 58.7219 3550.01 51.4303 L3550.01 49.7694 L3542.6 49.7694 M3557.47 46.6907 L3557.47 72.576 L3550.01 72.576 L3550.01 65.6895 Q3547.46 69.8214 3543.65 71.8063 Q3539.84 73.7508 3534.33 73.7508 Q3527.37 73.7508 3523.24 69.8619 Q3519.14 65.9325 3519.14 59.3701 Q3519.14 51.7138 3524.25 47.825 Q3529.39 43.9361 3539.56 43.9361 L3550.01 43.9361 L3550.01 43.2069 Q3550.01 38.0623 3546.61 35.2672 Q3543.25 32.4315 3537.13 32.4315 Q3533.24 32.4315 3529.55 33.3632 Q3525.87 34.295 3522.47 36.1584 L3522.47 29.2718 Q3526.56 27.692 3530.41 26.9223 Q3534.25 26.1121 3537.9 26.1121 Q3547.74 26.1121 3552.6 31.2163 Q3557.47 36.3204 3557.47 46.6907 Z" fill="#000000" fill-rule="nonzero" fill-opacity="1" /><path clip-path="url(#clip470)" d="M3610.53 45.1919 L3610.53 72.576 L3603.08 72.576 L3603.08 45.4349 Q3603.08 38.994 3600.57 35.7938 Q3598.06 32.5936 3593.03 32.5936 Q3587 32.5936 3583.51 36.4419 Q3580.03 40.2903 3580.03 46.9338 L3580.03 72.576 L3572.53 72.576 L3572.53 27.2059 L3580.03 27.2059 L3580.03 34.2544 Q3582.7 30.163 3586.31 28.1376 Q3589.95 26.1121 3594.69 26.1121 Q3602.51 26.1121 3606.52 30.9732 Q3610.53 35.7938 3610.53 45.1919 Z" fill="#000000" fill-rule="nonzero" fill-opacity="1" /><path clip-path="url(#clip470)" d="M3655.25 34.0924 L3655.25 9.54393 L3662.71 9.54393 L3662.71 72.576 L3655.25 72.576 L3655.25 65.7705 Q3652.9 69.8214 3649.3 71.8063 Q3645.73 73.7508 3640.71 73.7508 Q3632.49 73.7508 3627.3 67.1883 Q3622.16 60.6258 3622.16 49.9314 Q3622.16 39.2371 3627.3 32.6746 Q3632.49 26.1121 3640.71 26.1121 Q3645.73 26.1121 3649.3 28.0971 Q3652.9 30.0415 3655.25 34.0924 M3629.86 49.9314 Q3629.86 58.1548 3633.22 62.8538 Q3636.62 67.5124 3642.53 67.5124 Q3648.45 67.5124 3651.85 62.8538 Q3655.25 58.1548 3655.25 49.9314 Q3655.25 41.7081 3651.85 37.0496 Q3648.45 32.3505 3642.53 32.3505 Q3636.62 32.3505 3633.22 37.0496 Q3629.86 41.7081 3629.86 49.9314 Z" fill="#000000" fill-rule="nonzero" fill-opacity="1" /><path clip-path="url(#clip470)" d="M3737 49.9314 Q3737 41.7081 3733.6 37.0496 Q3730.24 32.3505 3724.32 32.3505 Q3718.41 32.3505 3715.01 37.0496 Q3711.64 41.7081 3711.64 49.9314 Q3711.64 58.1548 3715.01 62.8538 Q3718.41 67.5124 3724.32 67.5124 Q3730.24 67.5124 3733.6 62.8538 Q3737 58.1548 3737 49.9314 M3711.64 34.0924 Q3713.99 30.0415 3717.56 28.0971 Q3721.16 26.1121 3726.15 26.1121 Q3734.41 26.1121 3739.55 32.6746 Q3744.74 39.2371 3744.74 49.9314 Q3744.74 60.6258 3739.55 67.1883 Q3734.41 73.7508 3726.15 73.7508 Q3721.16 73.7508 3717.56 71.8063 Q3713.99 69.8214 3711.64 65.7705 L3711.64 72.576 L3704.15 72.576 L3704.15 9.54393 L3711.64 9.54393 L3711.64 34.0924 Z" fill="#000000" fill-rule="nonzero" fill-opacity="1" /><path clip-path="url(#clip470)" d="M3759 29.6769 L3767.55 29.6769 L3767.55 39.9662 L3759 39.9662 L3759 29.6769 M3759 62.2867 L3767.55 62.2867 L3767.55 69.2543 L3760.9 82.2172 L3755.68 82.2172 L3759 69.2543 L3759 62.2867 Z" fill="#000000" fill-rule="nonzero" fill-opacity="1" /><path clip-path="url(#clip470)" d="M3811.74 12.096 L3822.76 12.096 L3849.58 62.6918 L3849.58 12.096 L3857.52 12.096 L3857.52 72.576 L3846.5 72.576 L3819.68 21.9802 L3819.68 72.576 L3811.74 72.576 L3811.74 12.096 Z" fill="#000000" fill-rule="nonzero" fill-opacity="1" /><path clip-path="url(#clip470)" d="M3874.45 34.9026 L3926.38 34.9026 L3926.38 41.7081 L3874.45 41.7081 L3874.45 34.9026 M3874.45 51.4303 L3926.38 51.4303 L3926.38 58.3168 L3874.45 58.3168 L3874.45 51.4303 Z" fill="#000000" fill-rule="nonzero" fill-opacity="1" /><path clip-path="url(#clip470)" d="M3944.12 12.096 L3976.25 12.096 L3976.25 18.9825 L3951.62 18.9825 L3951.62 33.8088 Q3953.4 33.2012 3955.18 32.9176 Q3956.97 32.5936 3958.75 32.5936 Q3968.88 32.5936 3974.79 38.1433 Q3980.7 43.6931 3980.7 53.1722 Q3980.7 62.9348 3974.63 68.3631 Q3968.55 73.7508 3957.49 73.7508 Q3953.68 73.7508 3949.71 73.1026 Q3945.79 72.4545 3941.57 71.1582 L3941.57 62.9348 Q3945.22 64.9198 3949.11 65.892 Q3953 66.8642 3957.33 66.8642 Q3964.34 66.8642 3968.43 63.1779 Q3972.52 59.4916 3972.52 53.1722 Q3972.52 46.8528 3968.43 43.1664 Q3964.34 39.4801 3957.33 39.4801 Q3954.05 39.4801 3950.77 40.2093 Q3947.53 40.9384 3944.12 42.4778 L3944.12 12.096 Z" fill="#000000" fill-rule="nonzero" fill-opacity="1" /><path clip-path="url(#clip470)" d="M3997.68 62.2867 L4006.22 62.2867 L4006.22 69.2543 L3999.58 82.2172 L3994.36 82.2172 L3997.68 69.2543 L3997.68 62.2867 Z" fill="#000000" fill-rule="nonzero" fill-opacity="1" /><path clip-path="url(#clip470)" d="M4066.38 16.633 L4087.32 72.576 L4079.42 72.576 L4066.7 39.0345 L4051.07 72.576 L4043.17 72.576 L4063.06 29.0693 L4060.06 21.0485 Q4058.16 15.9444 4053.82 15.9444 L4049.93 15.9444 L4049.93 9.54393 L4054.67 9.62495 Q4063.83 9.74648 4066.38 16.633 Z" fill="#000000" fill-rule="nonzero" fill-opacity="1" /><path clip-path="url(#clip470)" d="M4098.59 34.9026 L4150.52 34.9026 L4150.52 41.7081 L4098.59 41.7081 L4098.59 34.9026 M4098.59 51.4303 L4150.52 51.4303 L4150.52 58.3168 L4098.59 58.3168 L4098.59 51.4303 Z" fill="#000000" fill-rule="nonzero" fill-opacity="1" /><path clip-path="url(#clip470)" d="M4192.97 39.9662 Q4198.85 41.222 4202.13 45.1919 Q4205.45 49.1618 4205.45 54.9951 Q4205.45 63.9476 4199.29 68.8492 Q4193.13 73.7508 4181.79 73.7508 Q4177.98 73.7508 4173.93 72.9811 Q4169.92 72.2519 4165.63 70.7531 L4165.63 62.8538 Q4169.03 64.8388 4173.08 65.8515 Q4177.13 66.8642 4181.55 66.8642 Q4189.24 66.8642 4193.25 63.826 Q4197.31 60.7879 4197.31 54.9951 Q4197.31 49.6479 4193.54 46.6502 Q4189.81 43.612 4183.13 43.612 L4176.08 43.612 L4176.08 36.8875 L4183.45 36.8875 Q4189.49 36.8875 4192.69 34.4975 Q4195.89 32.067 4195.89 27.5299 Q4195.89 22.8714 4192.57 20.4004 Q4189.29 17.8888 4183.13 17.8888 Q4179.77 17.8888 4175.92 18.618 Q4172.07 19.3471 4167.45 20.8865 L4167.45 13.5948 Q4172.11 12.2985 4176.16 11.6504 Q4180.25 11.0023 4183.86 11.0023 Q4193.17 11.0023 4198.6 15.2557 Q4204.03 19.4686 4204.03 26.6793 Q4204.03 31.7024 4201.15 35.1862 Q4198.28 38.6294 4192.97 39.9662 Z" fill="#000000" fill-rule="nonzero" fill-opacity="1" /><path clip-path="url(#clip470)" d="M4238.46 17.4837 Q4232.14 17.4837 4228.94 23.7221 Q4225.78 29.92 4225.78 42.3968 Q4225.78 54.833 4228.94 61.0714 Q4232.14 67.2693 4238.46 67.2693 Q4244.82 67.2693 4247.98 61.0714 Q4251.18 54.833 4251.18 42.3968 Q4251.18 29.92 4247.98 23.7221 Q4244.82 17.4837 4238.46 17.4837 M4238.46 11.0023 Q4248.63 11.0023 4253.98 19.0636 Q4259.37 27.0843 4259.37 42.3968 Q4259.37 57.6687 4253.98 65.73 Q4248.63 73.7508 4238.46 73.7508 Q4228.3 73.7508 4222.91 65.73 Q4217.56 57.6687 4217.56 42.3968 Q4217.56 27.0843 4222.91 19.0636 Q4228.3 11.0023 4238.46 11.0023 Z" fill="#000000" fill-rule="nonzero" fill-opacity="1" /><path clip-path="url(#clip470)" d="M4291.25 17.4837 Q4284.93 17.4837 4281.73 23.7221 Q4278.57 29.92 4278.57 42.3968 Q4278.57 54.833 4281.73 61.0714 Q4284.93 67.2693 4291.25 67.2693 Q4297.61 67.2693 4300.77 61.0714 Q4303.97 54.833 4303.97 42.3968 Q4303.97 29.92 4300.77 23.7221 Q4297.61 17.4837 4291.25 17.4837 M4291.25 11.0023 Q4301.41 11.0023 4306.76 19.0636 Q4312.15 27.0843 4312.15 42.3968 Q4312.15 57.6687 4306.76 65.73 Q4301.41 73.7508 4291.25 73.7508 Q4281.08 73.7508 4275.69 65.73 Q4270.34 57.6687 4270.34 42.3968 Q4270.34 27.0843 4275.69 19.0636 Q4281.08 11.0023 4291.25 11.0023 Z" fill="#000000" fill-rule="nonzero" fill-opacity="1" /><path clip-path="url(#clip470)" d="M4326.53 62.2867 L4335.08 62.2867 L4335.08 72.576 L4326.53 72.576 L4326.53 62.2867 Z" fill="#000000" fill-rule="nonzero" fill-opacity="1" /><path clip-path="url(#clip470)" d="M4370.4 17.4837 Q4364.08 17.4837 4360.88 23.7221 Q4357.72 29.92 4357.72 42.3968 Q4357.72 54.833 4360.88 61.0714 Q4364.08 67.2693 4370.4 67.2693 Q4376.76 67.2693 4379.92 61.0714 Q4383.12 54.833 4383.12 42.3968 Q4383.12 29.92 4379.92 23.7221 Q4376.76 17.4837 4370.4 17.4837 M4370.4 11.0023 Q4380.57 11.0023 4385.92 19.0636 Q4391.3 27.0843 4391.3 42.3968 Q4391.3 57.6687 4385.92 65.73 Q4380.57 73.7508 4370.4 73.7508 Q4360.23 73.7508 4354.85 65.73 Q4349.5 57.6687 4349.5 42.3968 Q4349.5 27.0843 4354.85 19.0636 Q4360.23 11.0023 4370.4 11.0023 Z" fill="#000000" fill-rule="nonzero" fill-opacity="1" /><polyline clip-path="url(#clip472)" style="stroke:#0000ff; stroke-linecap:round; stroke-linejoin:round; stroke-width:8; stroke-opacity:1; fill:none" points="397.599,3657.45 5811.02,3657.45 "/>
<polyline clip-path="url(#clip472)" style="stroke:#ff0000; stroke-linecap:round; stroke-linejoin:round; stroke-width:8; stroke-opacity:1; fill:none" points="397.599,3657.45 5811.02,3657.45 "/>
<path clip-path="url(#clip470)" d="M4960.72 396.791 L5630.58 396.791 L5630.58 241.271 L4960.72 241.271  Z" fill="#ffffff" fill-rule="evenodd" fill-opacity="1"/>
<polyline clip-path="url(#clip470)" style="stroke:#000000; stroke-linecap:round; stroke-linejoin:round; stroke-width:4; stroke-opacity:1; fill:none" points="4960.72,396.791 5630.58,396.791 5630.58,241.271 4960.72,241.271 4960.72,396.791 "/>
<polyline clip-path="url(#clip470)" style="stroke:#0000ff; stroke-linecap:round; stroke-linejoin:round; stroke-width:8; stroke-opacity:1; fill:none" points="5020.86,293.111 5381.76,293.111 "/>
<path clip-path="url(#clip470)" d="M5469.78 278.493 L5469.78 283.424 Q5467.42 281.225 5464.73 280.137 Q5462.07 279.049 5459.06 279.049 Q5453.14 279.049 5449.99 282.683 Q5446.84 286.294 5446.84 293.146 Q5446.84 299.975 5449.99 303.609 Q5453.14 307.22 5459.06 307.22 Q5462.07 307.22 5464.73 306.132 Q5467.42 305.044 5469.78 302.845 L5469.78 307.729 Q5467.33 309.396 5464.57 310.229 Q5461.84 311.063 5458.78 311.063 Q5450.94 311.063 5446.42 306.271 Q5441.91 301.456 5441.91 293.146 Q5441.91 284.813 5446.42 280.021 Q5450.94 275.206 5458.78 275.206 Q5461.89 275.206 5464.62 276.04 Q5467.37 276.85 5469.78 278.493 Z" fill="#000000" fill-rule="nonzero" fill-opacity="1" /><path clip-path="url(#clip470)" d="M5498.99 296.364 L5498.99 298.447 L5479.41 298.447 Q5479.69 302.845 5482.05 305.16 Q5484.43 307.452 5488.67 307.452 Q5491.12 307.452 5493.41 306.85 Q5495.73 306.248 5498 305.044 L5498 309.072 Q5495.71 310.044 5493.3 310.553 Q5490.89 311.063 5488.41 311.063 Q5482.21 311.063 5478.58 307.452 Q5474.96 303.84 5474.96 297.683 Q5474.96 291.317 5478.39 287.591 Q5481.84 283.841 5487.67 283.841 Q5492.9 283.841 5495.94 287.22 Q5498.99 290.577 5498.99 296.364 M5494.73 295.114 Q5494.69 291.618 5492.77 289.535 Q5490.87 287.452 5487.72 287.452 Q5484.15 287.452 5482 289.465 Q5479.87 291.479 5479.55 295.137 L5494.73 295.114 Z" fill="#000000" fill-rule="nonzero" fill-opacity="1" /><path clip-path="url(#clip470)" d="M5505.98 274.373 L5510.24 274.373 L5510.24 310.391 L5505.98 310.391 L5505.98 274.373 Z" fill="#000000" fill-rule="nonzero" fill-opacity="1" /><path clip-path="url(#clip470)" d="M5519.15 274.373 L5523.41 274.373 L5523.41 310.391 L5519.15 310.391 L5519.15 274.373 Z" fill="#000000" fill-rule="nonzero" fill-opacity="1" /><path clip-path="url(#clip470)" d="M5559.18 297.359 Q5554.02 297.359 5552.02 298.54 Q5550.03 299.72 5550.03 302.567 Q5550.03 304.836 5551.52 306.178 Q5553.02 307.498 5555.59 307.498 Q5559.13 307.498 5561.26 304.998 Q5563.41 302.475 5563.41 298.308 L5563.41 297.359 L5559.18 297.359 M5567.67 295.6 L5567.67 310.391 L5563.41 310.391 L5563.41 306.456 Q5561.95 308.817 5559.78 309.951 Q5557.6 311.063 5554.45 311.063 Q5550.47 311.063 5548.11 308.84 Q5545.77 306.595 5545.77 302.845 Q5545.77 298.47 5548.69 296.248 Q5551.63 294.026 5557.44 294.026 L5563.41 294.026 L5563.41 293.609 Q5563.41 290.669 5561.47 289.072 Q5559.55 287.452 5556.05 287.452 Q5553.83 287.452 5551.72 287.984 Q5549.62 288.516 5547.67 289.581 L5547.67 285.646 Q5550.01 284.743 5552.21 284.303 Q5554.41 283.841 5556.49 283.841 Q5562.12 283.841 5564.89 286.757 Q5567.67 289.674 5567.67 295.6 Z" fill="#000000" fill-rule="nonzero" fill-opacity="1" /><polyline clip-path="url(#clip470)" style="stroke:#ff0000; stroke-linecap:round; stroke-linejoin:round; stroke-width:8; stroke-opacity:1; fill:none" points="5020.86,344.951 5381.76,344.951 "/>
<path clip-path="url(#clip470)" d="M5469.78 330.333 L5469.78 335.264 Q5467.42 333.065 5464.73 331.977 Q5462.07 330.889 5459.06 330.889 Q5453.14 330.889 5449.99 334.523 Q5446.84 338.134 5446.84 344.986 Q5446.84 351.815 5449.99 355.449 Q5453.14 359.06 5459.06 359.06 Q5462.07 359.06 5464.73 357.972 Q5467.42 356.884 5469.78 354.685 L5469.78 359.569 Q5467.33 361.236 5464.57 362.069 Q5461.84 362.903 5458.78 362.903 Q5450.94 362.903 5446.42 358.111 Q5441.91 353.296 5441.91 344.986 Q5441.91 336.653 5446.42 331.861 Q5450.94 327.046 5458.78 327.046 Q5461.89 327.046 5464.62 327.88 Q5467.37 328.69 5469.78 330.333 Z" fill="#000000" fill-rule="nonzero" fill-opacity="1" /><path clip-path="url(#clip470)" d="M5498.99 348.204 L5498.99 350.287 L5479.41 350.287 Q5479.69 354.685 5482.05 357 Q5484.43 359.292 5488.67 359.292 Q5491.12 359.292 5493.41 358.69 Q5495.73 358.088 5498 356.884 L5498 360.912 Q5495.71 361.884 5493.3 362.393 Q5490.89 362.903 5488.41 362.903 Q5482.21 362.903 5478.58 359.292 Q5474.96 355.68 5474.96 349.523 Q5474.96 343.157 5478.39 339.431 Q5481.84 335.681 5487.67 335.681 Q5492.9 335.681 5495.94 339.06 Q5498.99 342.417 5498.99 348.204 M5494.73 346.954 Q5494.69 343.458 5492.77 341.375 Q5490.87 339.292 5487.72 339.292 Q5484.15 339.292 5482 341.305 Q5479.87 343.319 5479.55 346.977 L5494.73 346.954 Z" fill="#000000" fill-rule="nonzero" fill-opacity="1" /><path clip-path="url(#clip470)" d="M5505.98 326.213 L5510.24 326.213 L5510.24 362.231 L5505.98 362.231 L5505.98 326.213 Z" fill="#000000" fill-rule="nonzero" fill-opacity="1" /><path clip-path="url(#clip470)" d="M5519.15 326.213 L5523.41 326.213 L5523.41 362.231 L5519.15 362.231 L5519.15 326.213 Z" fill="#000000" fill-rule="nonzero" fill-opacity="1" /><path clip-path="url(#clip470)" d="M5566.01 349.292 Q5566.01 344.593 5564.06 341.93 Q5562.14 339.245 5558.76 339.245 Q5555.38 339.245 5553.44 341.93 Q5551.52 344.593 5551.52 349.292 Q5551.52 353.991 5553.44 356.676 Q5555.38 359.338 5558.76 359.338 Q5562.14 359.338 5564.06 356.676 Q5566.01 353.991 5566.01 349.292 M5551.52 340.241 Q5552.86 337.926 5554.89 336.815 Q5556.95 335.681 5559.8 335.681 Q5564.52 335.681 5567.46 339.431 Q5570.43 343.18 5570.43 349.292 Q5570.43 355.403 5567.46 359.153 Q5564.52 362.903 5559.8 362.903 Q5556.95 362.903 5554.89 361.791 Q5552.86 360.657 5551.52 358.342 L5551.52 362.231 L5547.23 362.231 L5547.23 326.213 L5551.52 326.213 L5551.52 340.241 Z" fill="#000000" fill-rule="nonzero" fill-opacity="1" /></svg>
