<?xml version="1.0" encoding="utf-8"?>
<svg xmlns="http://www.w3.org/2000/svg" xmlns:xlink="http://www.w3.org/1999/xlink" width="600" height="400" viewBox="0 0 2400 1600">
<defs>
  <clipPath id="clip390">
    <rect x="0" y="0" width="2400" height="1600"/>
  </clipPath>
</defs>
<path clip-path="url(#clip390)" d="M0 1600 L2400 1600 L2400 8.88178e-14 L0 8.88178e-14  Z" fill="#ffffff" fill-rule="evenodd" fill-opacity="1"/>
<defs>
  <clipPath id="clip391">
    <rect x="480" y="0" width="1681" height="1600"/>
  </clipPath>
</defs>
<path clip-path="url(#clip390)" d="M174.126 1423.18 L2352.76 1423.18 L2352.76 123.472 L174.126 123.472  Z" fill="#ffffff" fill-rule="evenodd" fill-opacity="1"/>
<defs>
  <clipPath id="clip392">
    <rect x="174" y="123" width="2180" height="1301"/>
  </clipPath>
</defs>
<polyline clip-path="url(#clip392)" style="stroke:#000000; stroke-linecap:round; stroke-linejoin:round; stroke-width:2; stroke-opacity:0.1; fill:none" points="235.785,1423.18 235.785,123.472 "/>
<polyline clip-path="url(#clip392)" style="stroke:#000000; stroke-linecap:round; stroke-linejoin:round; stroke-width:2; stroke-opacity:0.1; fill:none" points="920.889,1423.18 920.889,123.472 "/>
<polyline clip-path="url(#clip392)" style="stroke:#000000; stroke-linecap:round; stroke-linejoin:round; stroke-width:2; stroke-opacity:0.1; fill:none" points="1605.99,1423.18 1605.99,123.472 "/>
<polyline clip-path="url(#clip392)" style="stroke:#000000; stroke-linecap:round; stroke-linejoin:round; stroke-width:2; stroke-opacity:0.1; fill:none" points="2291.1,1423.18 2291.1,123.472 "/>
<polyline clip-path="url(#clip392)" style="stroke:#000000; stroke-linecap:round; stroke-linejoin:round; stroke-width:2; stroke-opacity:0.1; fill:none" points="174.126,1382.57 2352.76,1382.57 "/>
<polyline clip-path="url(#clip392)" style="stroke:#000000; stroke-linecap:round; stroke-linejoin:round; stroke-width:2; stroke-opacity:0.1; fill:none" points="174.126,1025.55 2352.76,1025.55 "/>
<polyline clip-path="url(#clip392)" style="stroke:#000000; stroke-linecap:round; stroke-linejoin:round; stroke-width:2; stroke-opacity:0.1; fill:none" points="174.126,668.539 2352.76,668.539 "/>
<polyline clip-path="url(#clip392)" style="stroke:#000000; stroke-linecap:round; stroke-linejoin:round; stroke-width:2; stroke-opacity:0.1; fill:none" points="174.126,311.524 2352.76,311.524 "/>
<polyline clip-path="url(#clip390)" style="stroke:#000000; stroke-linecap:round; stroke-linejoin:round; stroke-width:4; stroke-opacity:1; fill:none" points="174.126,1423.18 2352.76,1423.18 "/>
<polyline clip-path="url(#clip390)" style="stroke:#000000; stroke-linecap:round; stroke-linejoin:round; stroke-width:4; stroke-opacity:1; fill:none" points="235.785,1423.18 235.785,1404.28 "/>
<polyline clip-path="url(#clip390)" style="stroke:#000000; stroke-linecap:round; stroke-linejoin:round; stroke-width:4; stroke-opacity:1; fill:none" points="920.889,1423.18 920.889,1404.28 "/>
<polyline clip-path="url(#clip390)" style="stroke:#000000; stroke-linecap:round; stroke-linejoin:round; stroke-width:4; stroke-opacity:1; fill:none" points="1605.99,1423.18 1605.99,1404.28 "/>
<polyline clip-path="url(#clip390)" style="stroke:#000000; stroke-linecap:round; stroke-linejoin:round; stroke-width:4; stroke-opacity:1; fill:none" points="2291.1,1423.18 2291.1,1404.28 "/>
<path clip-path="url(#clip390)" d="M235.785 1454.1 Q232.174 1454.1 230.345 1457.66 Q228.54 1461.2 228.54 1468.33 Q228.54 1475.44 230.345 1479.01 Q232.174 1482.55 235.785 1482.55 Q239.419 1482.55 241.225 1479.01 Q243.054 1475.44 243.054 1468.33 Q243.054 1461.2 241.225 1457.66 Q239.419 1454.1 235.785 1454.1 M235.785 1450.39 Q241.595 1450.39 244.651 1455 Q247.729 1459.58 247.729 1468.33 Q247.729 1477.06 244.651 1481.67 Q241.595 1486.25 235.785 1486.25 Q229.975 1486.25 226.896 1481.67 Q223.841 1477.06 223.841 1468.33 Q223.841 1459.58 226.896 1455 Q229.975 1450.39 235.785 1450.39 Z" fill="#000000" fill-rule="nonzero" fill-opacity="1" /><path clip-path="url(#clip390)" d="M880.496 1481.64 L888.134 1481.64 L888.134 1455.28 L879.824 1456.95 L879.824 1452.69 L888.088 1451.02 L892.764 1451.02 L892.764 1481.64 L900.403 1481.64 L900.403 1485.58 L880.496 1485.58 L880.496 1481.64 Z" fill="#000000" fill-rule="nonzero" fill-opacity="1" /><path clip-path="url(#clip390)" d="M919.847 1454.1 Q916.236 1454.1 914.407 1457.66 Q912.602 1461.2 912.602 1468.33 Q912.602 1475.44 914.407 1479.01 Q916.236 1482.55 919.847 1482.55 Q923.482 1482.55 925.287 1479.01 Q927.116 1475.44 927.116 1468.33 Q927.116 1461.2 925.287 1457.66 Q923.482 1454.1 919.847 1454.1 M919.847 1450.39 Q925.657 1450.39 928.713 1455 Q931.792 1459.58 931.792 1468.33 Q931.792 1477.06 928.713 1481.67 Q925.657 1486.25 919.847 1486.25 Q914.037 1486.25 910.958 1481.67 Q907.903 1477.06 907.903 1468.33 Q907.903 1459.58 910.958 1455 Q914.037 1450.39 919.847 1450.39 Z" fill="#000000" fill-rule="nonzero" fill-opacity="1" /><path clip-path="url(#clip390)" d="M950.009 1454.1 Q946.398 1454.1 944.569 1457.66 Q942.764 1461.2 942.764 1468.33 Q942.764 1475.44 944.569 1479.01 Q946.398 1482.55 950.009 1482.55 Q953.643 1482.55 955.449 1479.01 Q957.278 1475.44 957.278 1468.33 Q957.278 1461.2 955.449 1457.66 Q953.643 1454.1 950.009 1454.1 M950.009 1450.39 Q955.819 1450.39 958.875 1455 Q961.954 1459.58 961.954 1468.33 Q961.954 1477.06 958.875 1481.67 Q955.819 1486.25 950.009 1486.25 Q944.199 1486.25 941.12 1481.67 Q938.065 1477.06 938.065 1468.33 Q938.065 1459.58 941.12 1455 Q944.199 1450.39 950.009 1450.39 Z" fill="#000000" fill-rule="nonzero" fill-opacity="1" /><path clip-path="url(#clip390)" d="M1569.69 1481.64 L1586 1481.64 L1586 1485.58 L1564.06 1485.58 L1564.06 1481.64 Q1566.72 1478.89 1571.31 1474.26 Q1575.91 1469.61 1577.09 1468.27 Q1579.34 1465.74 1580.22 1464.01 Q1581.12 1462.25 1581.12 1460.56 Q1581.12 1457.8 1579.18 1456.07 Q1577.25 1454.33 1574.15 1454.33 Q1571.95 1454.33 1569.5 1455.09 Q1567.07 1455.86 1564.29 1457.41 L1564.29 1452.69 Q1567.12 1451.55 1569.57 1450.97 Q1572.02 1450.39 1574.06 1450.39 Q1579.43 1450.39 1582.62 1453.08 Q1585.82 1455.77 1585.82 1460.26 Q1585.82 1462.39 1585.01 1464.31 Q1584.22 1466.2 1582.12 1468.8 Q1581.54 1469.47 1578.44 1472.69 Q1575.33 1475.88 1569.69 1481.64 Z" fill="#000000" fill-rule="nonzero" fill-opacity="1" /><path clip-path="url(#clip390)" d="M1605.82 1454.1 Q1602.21 1454.1 1600.38 1457.66 Q1598.57 1461.2 1598.57 1468.33 Q1598.57 1475.44 1600.38 1479.01 Q1602.21 1482.55 1605.82 1482.55 Q1609.45 1482.55 1611.26 1479.01 Q1613.09 1475.44 1613.09 1468.33 Q1613.09 1461.2 1611.26 1457.66 Q1609.45 1454.1 1605.82 1454.1 M1605.82 1450.39 Q1611.63 1450.39 1614.68 1455 Q1617.76 1459.58 1617.76 1468.33 Q1617.76 1477.06 1614.68 1481.67 Q1611.63 1486.25 1605.82 1486.25 Q1600.01 1486.25 1596.93 1481.67 Q1593.87 1477.06 1593.87 1468.33 Q1593.87 1459.58 1596.93 1455 Q1600.01 1450.39 1605.82 1450.39 Z" fill="#000000" fill-rule="nonzero" fill-opacity="1" /><path clip-path="url(#clip390)" d="M1635.98 1454.1 Q1632.37 1454.1 1630.54 1457.66 Q1628.74 1461.2 1628.74 1468.33 Q1628.74 1475.44 1630.54 1479.01 Q1632.37 1482.55 1635.98 1482.55 Q1639.62 1482.55 1641.42 1479.01 Q1643.25 1475.44 1643.25 1468.33 Q1643.25 1461.2 1641.42 1457.66 Q1639.62 1454.1 1635.98 1454.1 M1635.98 1450.39 Q1641.79 1450.39 1644.85 1455 Q1647.93 1459.58 1647.93 1468.33 Q1647.93 1477.06 1644.85 1481.67 Q1641.79 1486.25 1635.98 1486.25 Q1630.17 1486.25 1627.09 1481.67 Q1624.04 1477.06 1624.04 1468.33 Q1624.04 1459.58 1627.09 1455 Q1630.17 1450.39 1635.98 1450.39 Z" fill="#000000" fill-rule="nonzero" fill-opacity="1" /><path clip-path="url(#clip390)" d="M2264.86 1466.95 Q2268.21 1467.66 2270.09 1469.93 Q2271.99 1472.2 2271.99 1475.53 Q2271.99 1480.65 2268.47 1483.45 Q2264.95 1486.25 2258.47 1486.25 Q2256.29 1486.25 2253.98 1485.81 Q2251.69 1485.39 2249.23 1484.54 L2249.23 1480.02 Q2251.18 1481.16 2253.49 1481.74 Q2255.81 1482.32 2258.33 1482.32 Q2262.73 1482.32 2265.02 1480.58 Q2267.34 1478.84 2267.34 1475.53 Q2267.34 1472.48 2265.18 1470.77 Q2263.05 1469.03 2259.23 1469.03 L2255.21 1469.03 L2255.21 1465.19 L2259.42 1465.19 Q2262.87 1465.19 2264.7 1463.82 Q2266.52 1462.43 2266.52 1459.84 Q2266.52 1457.18 2264.63 1455.77 Q2262.75 1454.33 2259.23 1454.33 Q2257.31 1454.33 2255.11 1454.75 Q2252.91 1455.16 2250.28 1456.04 L2250.28 1451.88 Q2252.94 1451.14 2255.25 1450.77 Q2257.59 1450.39 2259.65 1450.39 Q2264.97 1450.39 2268.08 1452.83 Q2271.18 1455.23 2271.18 1459.35 Q2271.18 1462.22 2269.53 1464.21 Q2267.89 1466.18 2264.86 1466.95 Z" fill="#000000" fill-rule="nonzero" fill-opacity="1" /><path clip-path="url(#clip390)" d="M2290.85 1454.1 Q2287.24 1454.1 2285.41 1457.66 Q2283.61 1461.2 2283.61 1468.33 Q2283.61 1475.44 2285.41 1479.01 Q2287.24 1482.55 2290.85 1482.55 Q2294.49 1482.55 2296.29 1479.01 Q2298.12 1475.44 2298.12 1468.33 Q2298.12 1461.2 2296.29 1457.66 Q2294.49 1454.1 2290.85 1454.1 M2290.85 1450.39 Q2296.66 1450.39 2299.72 1455 Q2302.8 1459.58 2302.8 1468.33 Q2302.8 1477.06 2299.72 1481.67 Q2296.66 1486.25 2290.85 1486.25 Q2285.04 1486.25 2281.96 1481.67 Q2278.91 1477.06 2278.91 1468.33 Q2278.91 1459.58 2281.96 1455 Q2285.04 1450.39 2290.85 1450.39 Z" fill="#000000" fill-rule="nonzero" fill-opacity="1" /><path clip-path="url(#clip390)" d="M2321.02 1454.1 Q2317.4 1454.1 2315.58 1457.66 Q2313.77 1461.2 2313.77 1468.33 Q2313.77 1475.44 2315.58 1479.01 Q2317.4 1482.55 2321.02 1482.55 Q2324.65 1482.55 2326.46 1479.01 Q2328.28 1475.44 2328.28 1468.33 Q2328.28 1461.2 2326.46 1457.66 Q2324.65 1454.1 2321.02 1454.1 M2321.02 1450.39 Q2326.83 1450.39 2329.88 1455 Q2332.96 1459.58 2332.96 1468.33 Q2332.96 1477.06 2329.88 1481.67 Q2326.83 1486.25 2321.02 1486.25 Q2315.21 1486.25 2312.13 1481.67 Q2309.07 1477.06 2309.07 1468.33 Q2309.07 1459.58 2312.13 1455 Q2315.21 1450.39 2321.02 1450.39 Z" fill="#000000" fill-rule="nonzero" fill-opacity="1" /><path clip-path="url(#clip390)" d="M1264.33 1524.09 L1280.79 1568.04 L1274.58 1568.04 L1264.59 1541.69 L1252.3 1568.04 L1246.09 1568.04 L1261.72 1533.86 L1259.37 1527.56 Q1257.87 1523.55 1254.47 1523.55 L1251.41 1523.55 L1251.41 1518.52 L1255.13 1518.58 Q1262.33 1518.68 1264.33 1524.09 Z" fill="#000000" fill-rule="nonzero" fill-opacity="1" /><polyline clip-path="url(#clip390)" style="stroke:#000000; stroke-linecap:round; stroke-linejoin:round; stroke-width:4; stroke-opacity:1; fill:none" points="174.126,1423.18 174.126,123.472 "/>
<polyline clip-path="url(#clip390)" style="stroke:#000000; stroke-linecap:round; stroke-linejoin:round; stroke-width:4; stroke-opacity:1; fill:none" points="174.126,1382.57 193.023,1382.57 "/>
<polyline clip-path="url(#clip390)" style="stroke:#000000; stroke-linecap:round; stroke-linejoin:round; stroke-width:4; stroke-opacity:1; fill:none" points="174.126,1025.55 193.023,1025.55 "/>
<polyline clip-path="url(#clip390)" style="stroke:#000000; stroke-linecap:round; stroke-linejoin:round; stroke-width:4; stroke-opacity:1; fill:none" points="174.126,668.539 193.023,668.539 "/>
<polyline clip-path="url(#clip390)" style="stroke:#000000; stroke-linecap:round; stroke-linejoin:round; stroke-width:4; stroke-opacity:1; fill:none" points="174.126,311.524 193.023,311.524 "/>
<path clip-path="url(#clip390)" d="M117.223 1365.29 L135.579 1365.29 L135.579 1369.22 L121.505 1369.22 L121.505 1377.69 Q122.524 1377.35 123.543 1377.19 Q124.561 1377 125.58 1377 Q131.367 1377 134.746 1380.17 Q138.126 1383.34 138.126 1388.76 Q138.126 1394.34 134.654 1397.44 Q131.181 1400.52 124.862 1400.52 Q122.686 1400.52 120.418 1400.15 Q118.172 1399.78 115.765 1399.04 L115.765 1394.34 Q117.848 1395.47 120.07 1396.03 Q122.293 1396.58 124.769 1396.58 Q128.774 1396.58 131.112 1394.48 Q133.45 1392.37 133.45 1388.76 Q133.45 1385.15 131.112 1383.04 Q128.774 1380.94 124.769 1380.94 Q122.894 1380.94 121.019 1381.35 Q119.168 1381.77 117.223 1382.65 L117.223 1365.29 Z" fill="#000000" fill-rule="nonzero" fill-opacity="1" /><path clip-path="url(#clip390)" d="M126.598 1023.69 Q123.45 1023.69 121.598 1025.84 Q119.769 1028 119.769 1031.75 Q119.769 1035.47 121.598 1037.65 Q123.45 1039.8 126.598 1039.8 Q129.746 1039.8 131.575 1037.65 Q133.427 1035.47 133.427 1031.75 Q133.427 1028 131.575 1025.84 Q129.746 1023.69 126.598 1023.69 M135.88 1009.04 L135.88 1013.3 Q134.121 1012.46 132.316 1012.02 Q130.533 1011.58 128.774 1011.58 Q124.144 1011.58 121.691 1014.71 Q119.26 1017.83 118.913 1024.15 Q120.279 1022.14 122.339 1021.07 Q124.399 1019.99 126.876 1019.99 Q132.084 1019.99 135.093 1023.16 Q138.126 1026.31 138.126 1031.75 Q138.126 1037.07 134.978 1040.29 Q131.83 1043.5 126.598 1043.5 Q120.603 1043.5 117.431 1038.92 Q114.26 1034.31 114.26 1025.59 Q114.26 1017.39 118.149 1012.53 Q122.038 1007.65 128.589 1007.65 Q130.348 1007.65 132.13 1008 Q133.936 1008.34 135.88 1009.04 Z" fill="#000000" fill-rule="nonzero" fill-opacity="1" /><path clip-path="url(#clip390)" d="M115.904 651.259 L138.126 651.259 L138.126 653.249 L125.58 685.819 L120.695 685.819 L132.501 655.194 L115.904 655.194 L115.904 651.259 Z" fill="#000000" fill-rule="nonzero" fill-opacity="1" /><path clip-path="url(#clip390)" d="M126.274 312.392 Q122.941 312.392 121.019 314.175 Q119.121 315.957 119.121 319.082 Q119.121 322.207 121.019 323.99 Q122.941 325.772 126.274 325.772 Q129.607 325.772 131.529 323.99 Q133.45 322.184 133.45 319.082 Q133.45 315.957 131.529 314.175 Q129.63 312.392 126.274 312.392 M121.598 310.402 Q118.589 309.661 116.899 307.601 Q115.232 305.541 115.232 302.578 Q115.232 298.434 118.172 296.027 Q121.135 293.619 126.274 293.619 Q131.436 293.619 134.376 296.027 Q137.316 298.434 137.316 302.578 Q137.316 305.541 135.626 307.601 Q133.959 309.661 130.973 310.402 Q134.353 311.189 136.228 313.48 Q138.126 315.772 138.126 319.082 Q138.126 324.105 135.047 326.79 Q131.992 329.476 126.274 329.476 Q120.556 329.476 117.478 326.79 Q114.422 324.105 114.422 319.082 Q114.422 315.772 116.32 313.48 Q118.218 311.189 121.598 310.402 M119.885 303.017 Q119.885 305.703 121.552 307.207 Q123.242 308.712 126.274 308.712 Q129.283 308.712 130.973 307.207 Q132.686 305.703 132.686 303.017 Q132.686 300.332 130.973 298.828 Q129.283 297.323 126.274 297.323 Q123.242 297.323 121.552 298.828 Q119.885 300.332 119.885 303.017 Z" fill="#000000" fill-rule="nonzero" fill-opacity="1" /><path clip-path="url(#clip390)" d="M20.8447 920.342 Q20.8447 927.344 26.0645 931.482 Q31.2844 935.588 40.2919 935.588 Q49.2675 935.588 54.4874 931.482 Q59.7073 927.344 59.7073 920.342 Q59.7073 913.34 54.4874 909.266 Q49.2675 905.16 40.2919 905.16 Q31.2844 905.16 26.0645 909.266 Q20.8447 913.34 20.8447 920.342 M15.6248 920.342 Q15.6248 910.348 22.3406 904.364 Q29.0246 898.38 40.2919 898.38 Q51.5274 898.38 58.2432 904.364 Q64.9272 910.348 64.9272 920.342 Q64.9272 930.368 58.2432 936.384 Q51.5592 942.367 40.2919 942.367 Q29.0246 942.367 22.3406 936.384 Q15.6248 930.368 15.6248 920.342 Z" fill="#000000" fill-rule="nonzero" fill-opacity="1" /><path clip-path="url(#clip390)" d="M58.657 882.912 L77.5631 882.912 L77.5631 888.8 L28.3562 888.8 L28.3562 882.912 L33.7671 882.912 Q30.5842 881.066 29.0564 878.265 Q27.4968 875.432 27.4968 871.517 Q27.4968 865.024 32.6531 860.982 Q37.8093 856.908 46.212 856.908 Q54.6147 856.908 59.771 860.982 Q64.9272 865.024 64.9272 871.517 Q64.9272 875.432 63.3994 878.265 Q61.8398 881.066 58.657 882.912 M46.212 862.987 Q39.7508 862.987 36.0905 865.661 Q32.3984 868.302 32.3984 872.949 Q32.3984 877.596 36.0905 880.27 Q39.7508 882.912 46.212 882.912 Q52.6732 882.912 56.3653 880.27 Q60.0256 877.596 60.0256 872.949 Q60.0256 868.302 56.3653 865.661 Q52.6732 862.987 46.212 862.987 Z" fill="#000000" fill-rule="nonzero" fill-opacity="1" /><path clip-path="url(#clip390)" d="M18.2347 841.407 L28.3562 841.407 L28.3562 829.344 L32.9077 829.344 L32.9077 841.407 L52.2594 841.407 Q56.6199 841.407 57.8613 840.23 Q59.1026 839.02 59.1026 835.36 L59.1026 829.344 L64.0042 829.344 L64.0042 835.36 Q64.0042 842.139 61.4897 844.717 Q58.9434 847.295 52.2594 847.295 L32.9077 847.295 L32.9077 851.592 L28.3562 851.592 L28.3562 847.295 L18.2347 847.295 L18.2347 841.407 Z" fill="#000000" fill-rule="nonzero" fill-opacity="1" /><path clip-path="url(#clip390)" d="M28.3562 821.642 L28.3562 815.785 L64.0042 815.785 L64.0042 821.642 L28.3562 821.642 M14.479 821.642 L14.479 815.785 L21.895 815.785 L21.895 821.642 L14.479 821.642 Z" fill="#000000" fill-rule="nonzero" fill-opacity="1" /><path clip-path="url(#clip390)" d="M35.1993 775.777 Q31.2526 773.581 29.3747 770.525 Q27.4968 767.47 27.4968 763.332 Q27.4968 757.762 31.4117 754.738 Q35.2948 751.714 42.4881 751.714 L64.0042 751.714 L64.0042 757.603 L42.679 757.603 Q37.5546 757.603 35.072 759.417 Q32.5894 761.231 32.5894 764.955 Q32.5894 769.507 35.6131 772.148 Q38.6368 774.79 43.8567 774.79 L64.0042 774.79 L64.0042 780.678 L42.679 780.678 Q37.5228 780.678 35.072 782.493 Q32.5894 784.307 32.5894 788.094 Q32.5894 792.582 35.6449 795.224 Q38.6686 797.866 43.8567 797.866 L64.0042 797.866 L64.0042 803.754 L28.3562 803.754 L28.3562 797.866 L33.8944 797.866 Q30.616 795.861 29.0564 793.06 Q27.4968 790.259 27.4968 786.408 Q27.4968 782.524 29.4702 779.819 Q31.4436 777.082 35.1993 775.777 Z" fill="#000000" fill-rule="nonzero" fill-opacity="1" /><path clip-path="url(#clip390)" d="M46.0847 723.833 Q46.0847 730.93 47.7079 733.668 Q49.3312 736.405 53.2461 736.405 Q56.3653 736.405 58.2114 734.368 Q60.0256 732.299 60.0256 728.766 Q60.0256 723.896 56.5881 720.968 Q53.1188 718.008 47.3897 718.008 L46.0847 718.008 L46.0847 723.833 M43.6657 712.152 L64.0042 712.152 L64.0042 718.008 L58.5933 718.008 Q61.8398 720.013 63.3994 723.005 Q64.9272 725.997 64.9272 730.326 Q64.9272 735.8 61.8716 739.047 Q58.7843 742.261 53.6281 742.261 Q47.6125 742.261 44.5569 738.251 Q41.5014 734.209 41.5014 726.22 L41.5014 718.008 L40.9285 718.008 Q36.8862 718.008 34.6901 720.682 Q32.4621 723.323 32.4621 728.129 Q32.4621 731.185 33.1941 734.081 Q33.9262 736.978 35.3903 739.651 L29.9795 739.651 Q28.7381 736.437 28.1334 733.413 Q27.4968 730.389 27.4968 727.525 Q27.4968 719.79 31.5072 715.971 Q35.5176 712.152 43.6657 712.152 Z" fill="#000000" fill-rule="nonzero" fill-opacity="1" /><path clip-path="url(#clip390)" d="M14.479 700.089 L14.479 694.232 L64.0042 694.232 L64.0042 700.089 L14.479 700.089 Z" fill="#000000" fill-rule="nonzero" fill-opacity="1" /><path clip-path="url(#clip390)" d="M57.5111 643.784 Q59.0389 642.638 59.0389 639.201 L59.0389 636.368 L64.0042 636.368 L64.0042 639.901 Q64.0042 645.63 60.9486 648.24 Q57.8294 650.85 51.0818 650.85 L34.2127 650.85 L34.2127 664.218 L28.3562 664.218 L28.3562 631.339 L34.2127 631.339 L34.2127 644.866 L51.4319 644.866 Q56.047 644.866 57.5111 643.784 Z" fill="#000000" fill-rule="nonzero" fill-opacity="1" /><path clip-path="url(#clip390)" d="M42.4562 610.014 Q39.719 611.605 39.719 614.82 Q39.719 618.035 42.4562 619.626 Q45.1935 621.249 50.668 621.249 Q56.1743 621.249 58.9116 619.626 Q61.6488 618.035 61.6488 614.82 Q61.6488 611.605 58.9116 610.014 Q56.1743 608.391 50.668 608.391 Q45.1935 608.391 42.4562 610.014 M36.8862 614.82 Q36.8862 609.695 40.4192 606.99 Q43.9522 604.285 50.668 604.285 Q57.4157 604.285 60.9486 606.99 Q64.4816 609.695 64.4816 614.82 Q64.4816 619.976 60.9486 622.682 Q57.4157 625.387 50.668 625.387 Q43.9522 625.387 40.4192 622.682 Q36.8862 619.976 36.8862 614.82 Z" fill="#000000" fill-rule="nonzero" fill-opacity="1" /><path clip-path="url(#clip390)" d="M959.967 17.6457 Q951.055 17.6457 945.789 24.2892 Q940.564 30.9327 940.564 42.3968 Q940.564 53.8203 945.789 60.4638 Q951.055 67.1073 959.967 67.1073 Q968.879 67.1073 974.064 60.4638 Q979.29 53.8203 979.29 42.3968 Q979.29 30.9327 974.064 24.2892 Q968.879 17.6457 959.967 17.6457 M959.967 11.0023 Q972.687 11.0023 980.303 19.5497 Q987.919 28.0566 987.919 42.3968 Q987.919 56.6965 980.303 65.2439 Q972.687 73.7508 959.967 73.7508 Q947.207 73.7508 939.551 65.2439 Q931.935 56.737 931.935 42.3968 Q931.935 28.0566 939.551 19.5497 Q947.207 11.0023 959.967 11.0023 Z" fill="#000000" fill-rule="nonzero" fill-opacity="1" /><path clip-path="url(#clip390)" d="M1007.61 65.7705 L1007.61 89.8329 L1000.11 89.8329 L1000.11 27.2059 L1007.61 27.2059 L1007.61 34.0924 Q1009.96 30.0415 1013.52 28.0971 Q1017.13 26.1121 1022.11 26.1121 Q1030.37 26.1121 1035.52 32.6746 Q1040.7 39.2371 1040.7 49.9314 Q1040.7 60.6258 1035.52 67.1883 Q1030.37 73.7508 1022.11 73.7508 Q1017.13 73.7508 1013.52 71.8063 Q1009.96 69.8214 1007.61 65.7705 M1032.96 49.9314 Q1032.96 41.7081 1029.56 37.0496 Q1026.2 32.3505 1020.29 32.3505 Q1014.37 32.3505 1010.97 37.0496 Q1007.61 41.7081 1007.61 49.9314 Q1007.61 58.1548 1010.97 62.8538 Q1014.37 67.5124 1020.29 67.5124 Q1026.2 67.5124 1029.56 62.8538 Q1032.96 58.1548 1032.96 49.9314 Z" fill="#000000" fill-rule="nonzero" fill-opacity="1" /><path clip-path="url(#clip390)" d="M1060.43 14.324 L1060.43 27.2059 L1075.78 27.2059 L1075.78 32.9987 L1060.43 32.9987 L1060.43 57.6282 Q1060.43 63.1779 1061.93 64.7578 Q1063.47 66.3376 1068.13 66.3376 L1075.78 66.3376 L1075.78 72.576 L1068.13 72.576 Q1059.5 72.576 1056.22 69.3758 Q1052.94 66.1351 1052.94 57.6282 L1052.94 32.9987 L1047.47 32.9987 L1047.47 27.2059 L1052.94 27.2059 L1052.94 14.324 L1060.43 14.324 Z" fill="#000000" fill-rule="nonzero" fill-opacity="1" /><path clip-path="url(#clip390)" d="M1085.59 27.2059 L1093.04 27.2059 L1093.04 72.576 L1085.59 72.576 L1085.59 27.2059 M1085.59 9.54393 L1093.04 9.54393 L1093.04 18.9825 L1085.59 18.9825 L1085.59 9.54393 Z" fill="#000000" fill-rule="nonzero" fill-opacity="1" /><path clip-path="url(#clip390)" d="M1143.96 35.9153 Q1146.75 30.8922 1150.64 28.5022 Q1154.53 26.1121 1159.8 26.1121 Q1166.89 26.1121 1170.74 31.0947 Q1174.58 36.0368 1174.58 45.1919 L1174.58 72.576 L1167.09 72.576 L1167.09 45.4349 Q1167.09 38.913 1164.78 35.7533 Q1162.47 32.5936 1157.73 32.5936 Q1151.94 32.5936 1148.58 36.4419 Q1145.22 40.2903 1145.22 46.9338 L1145.22 72.576 L1137.72 72.576 L1137.72 45.4349 Q1137.72 38.8725 1135.41 35.7533 Q1133.1 32.5936 1128.28 32.5936 Q1122.57 32.5936 1119.21 36.4824 Q1115.85 40.3308 1115.85 46.9338 L1115.85 72.576 L1108.35 72.576 L1108.35 27.2059 L1115.85 27.2059 L1115.85 34.2544 Q1118.4 30.082 1121.96 28.0971 Q1125.53 26.1121 1130.43 26.1121 Q1135.37 26.1121 1138.81 28.6237 Q1142.3 31.1352 1143.96 35.9153 Z" fill="#000000" fill-rule="nonzero" fill-opacity="1" /><path clip-path="url(#clip390)" d="M1210.07 49.7694 Q1201.04 49.7694 1197.55 51.8354 Q1194.07 53.9013 1194.07 58.8839 Q1194.07 62.8538 1196.66 65.2034 Q1199.29 67.5124 1203.79 67.5124 Q1209.99 67.5124 1213.72 63.1374 Q1217.48 58.7219 1217.48 51.4303 L1217.48 49.7694 L1210.07 49.7694 M1224.94 46.6907 L1224.94 72.576 L1217.48 72.576 L1217.48 65.6895 Q1214.93 69.8214 1211.12 71.8063 Q1207.32 73.7508 1201.81 73.7508 Q1194.84 73.7508 1190.71 69.8619 Q1186.62 65.9325 1186.62 59.3701 Q1186.62 51.7138 1191.72 47.825 Q1196.86 43.9361 1207.03 43.9361 L1217.48 43.9361 L1217.48 43.2069 Q1217.48 38.0623 1214.08 35.2672 Q1210.72 32.4315 1204.6 32.4315 Q1200.71 32.4315 1197.03 33.3632 Q1193.34 34.295 1189.94 36.1584 L1189.94 29.2718 Q1194.03 27.692 1197.88 26.9223 Q1201.73 26.1121 1205.37 26.1121 Q1215.21 26.1121 1220.08 31.2163 Q1224.94 36.3204 1224.94 46.6907 Z" fill="#000000" fill-rule="nonzero" fill-opacity="1" /><path clip-path="url(#clip390)" d="M1240.29 9.54393 L1247.74 9.54393 L1247.74 72.576 L1240.29 72.576 L1240.29 9.54393 Z" fill="#000000" fill-rule="nonzero" fill-opacity="1" /><path clip-path="url(#clip390)" d="M1311.95 64.3122 Q1313.41 66.2566 1317.78 66.2566 L1321.39 66.2566 L1321.39 72.576 L1316.89 72.576 Q1309.6 72.576 1306.28 68.6871 Q1302.96 64.7172 1302.96 56.1293 L1302.96 34.6595 L1285.94 34.6595 L1285.94 27.2059 L1327.79 27.2059 L1327.79 34.6595 L1310.57 34.6595 L1310.57 56.5749 Q1310.57 62.4487 1311.95 64.3122 Z" fill="#000000" fill-rule="nonzero" fill-opacity="1" /><path clip-path="url(#clip390)" d="M1354.93 45.1514 Q1352.91 41.6676 1348.81 41.6676 Q1344.72 41.6676 1342.7 45.1514 Q1340.63 48.6352 1340.63 55.6027 Q1340.63 62.6108 1342.7 66.0946 Q1344.72 69.5783 1348.81 69.5783 Q1352.91 69.5783 1354.93 66.0946 Q1357 62.6108 1357 55.6027 Q1357 48.6352 1354.93 45.1514 M1348.81 38.0623 Q1355.34 38.0623 1358.78 42.5588 Q1362.22 47.0553 1362.22 55.6027 Q1362.22 64.1906 1358.78 68.6871 Q1355.34 73.1836 1348.81 73.1836 Q1342.25 73.1836 1338.81 68.6871 Q1335.36 64.1906 1335.36 55.6027 Q1335.36 47.0553 1338.81 42.5588 Q1342.25 38.0623 1348.81 38.0623 Z" fill="#000000" fill-rule="nonzero" fill-opacity="1" /><path clip-path="url(#clip390)" d="M1374.82 62.2867 L1383.37 62.2867 L1383.37 69.2543 L1376.72 82.2172 L1371.5 82.2172 L1374.82 69.2543 L1374.82 62.2867 Z" fill="#000000" fill-rule="nonzero" fill-opacity="1" /><path clip-path="url(#clip390)" d="M1425.98 12.096 L1437 12.096 L1463.82 62.6918 L1463.82 12.096 L1471.76 12.096 L1471.76 72.576 L1460.74 72.576 L1433.92 21.9802 L1433.92 72.576 L1425.98 72.576 L1425.98 12.096 Z" fill="#000000" fill-rule="nonzero" fill-opacity="1" /><path clip-path="url(#clip390)" d="M1488.69 34.9026 L1540.62 34.9026 L1540.62 41.7081 L1488.69 41.7081 L1488.69 34.9026 M1488.69 51.4303 L1540.62 51.4303 L1540.62 58.3168 L1488.69 58.3168 L1488.69 51.4303 Z" fill="#000000" fill-rule="nonzero" fill-opacity="1" /><path clip-path="url(#clip390)" d="M1558.37 12.096 L1590.49 12.096 L1590.49 18.9825 L1565.86 18.9825 L1565.86 33.8088 Q1567.64 33.2012 1569.43 32.9176 Q1571.21 32.5936 1572.99 32.5936 Q1583.12 32.5936 1589.03 38.1433 Q1594.95 43.6931 1594.95 53.1722 Q1594.95 62.9348 1588.87 68.3631 Q1582.79 73.7508 1571.73 73.7508 Q1567.93 73.7508 1563.96 73.1026 Q1560.03 72.4545 1555.81 71.1582 L1555.81 62.9348 Q1559.46 64.9198 1563.35 65.892 Q1567.24 66.8642 1571.57 66.8642 Q1578.58 66.8642 1582.67 63.1779 Q1586.76 59.4916 1586.76 53.1722 Q1586.76 46.8528 1582.67 43.1664 Q1578.58 39.4801 1571.57 39.4801 Q1568.29 39.4801 1565.01 40.2093 Q1561.77 40.9384 1558.37 42.4778 L1558.37 12.096 Z" fill="#000000" fill-rule="nonzero" fill-opacity="1" /><polyline clip-path="url(#clip392)" style="stroke:#009af9; stroke-linecap:round; stroke-linejoin:round; stroke-width:8; stroke-opacity:1; fill:none" points="235.785,1386.4 242.636,1265.01 249.487,1280.97 256.338,1209.23 263.189,1159.66 270.04,1124.16 276.891,1093.03 283.742,1063.17 290.593,882.252 297.444,853.71 304.295,829.334 311.147,808.619 317.998,790.915 324.849,774.749 331.7,759.077 338.551,743.857 345.402,729.051 365.955,688.341 372.806,294.418 379.657,274.937 386.508,255.498 393.359,236.1 400.21,640.818 407.061,197.548 413.912,626.45 420.763,160.256 427.614,614.166 434.465,608.701 441.316,603.411 448.167,598.191 461.869,587.946 468.72,582.917 475.571,577.947 482.422,573.099 502.976,560.009 509.827,556.092 516.678,552.376 523.529,548.85 530.38,545.503 537.231,542.323 550.933,536.427 557.784,533.672 571.486,528.247 578.337,525.567 585.188,522.909 592.039,520.271 598.89,517.654 605.741,515.056 612.592,512.478 626.294,507.377 633.145,504.853 646.847,499.859 653.698,497.387 660.549,494.932 667.401,492.493 674.252,490.07 681.103,487.662 687.954,485.269 708.507,478.179 715.358,475.844 722.209,473.523 729.06,471.216 735.911,468.922 742.762,466.64 749.613,464.372 756.464,462.116 770.166,457.642 783.868,453.215 797.57,448.834 811.272,431.869 818.123,430.678 824.974,429.491 838.676,427.129 852.379,424.784 879.783,420.14 900.336,416.696 907.187,415.556 914.038,414.419 920.889,413.285 934.591,499.425 941.442,409.906 955.144,407.671 975.697,404.342 982.548,403.24 989.399,402.14 1003.1,399.95 1016.8,397.772 1030.51,395.607 1057.91,391.312 1064.76,390.246 1078.46,388.121 1085.31,387.064 1092.16,386.008 1099.02,384.956 1105.87,383.906 1119.57,381.815 1126.42,380.774 1133.27,379.735 1140.12,378.698 1146.97,377.665 1153.82,376.633 1160.68,375.605 1167.53,374.579 1174.38,373.555 1181.23,372.534 1188.08,371.516 1201.78,369.486 1208.63,368.474 1215.48,367.465 1222.33,366.459 1229.19,365.455 1236.04,364.453 1242.89,363.453 1249.74,362.456 1256.59,361.461 1270.29,359.478 1283.99,357.504 1290.84,356.52 1297.7,355.538 1304.55,354.559 1311.4,353.582 1331.95,350.662 1338.8,349.693 1345.65,348.727 1352.5,347.762 1359.36,346.799 1366.21,345.838 1373.06,344.88 1379.91,343.923 1386.76,342.968 1400.46,341.065 1407.31,340.116 1414.16,339.169 1427.87,337.281 1441.57,335.401 1455.27,333.528 1468.97,331.662 1475.82,330.732 1482.67,329.804 1496.38,327.953 1503.23,327.03 1510.08,326.109 1516.93,325.19 1530.63,323.356 1537.48,322.442 1544.33,321.529 1551.18,320.619 1558.04,319.709 1564.89,318.802 1578.59,316.992 1592.29,315.189 1599.14,314.29 1605.99,313.392 1612.84,312.496 1619.69,311.602 1626.55,310.709 1633.4,309.818 1640.25,308.928 1653.95,307.154 1660.8,306.269 1667.65,305.385 1674.5,304.503 1681.35,303.623 1688.21,302.744 1695.06,301.867 1701.91,300.991 1708.76,300.117 1715.61,299.244 1722.46,298.372 1729.31,297.502 1736.16,296.634 1743.01,295.767 1756.72,294.037 1763.57,293.174 1770.42,292.312 1777.27,291.452 1784.12,290.594 1790.97,289.737 1797.82,288.881 1811.52,287.173 1818.37,286.322 1825.23,285.471 1832.08,284.622 1838.93,283.774 1845.78,282.928 1852.63,282.083 1859.48,281.239 1866.33,280.397 1873.18,279.556 1880.03,278.716 1893.74,277.04 1900.59,276.204 1907.44,275.37 1914.29,274.536 1921.14,273.704 1927.99,272.873 1934.84,272.044 1941.69,271.215 1948.54,270.388 1955.4,269.562 1962.25,268.738 1969.1,267.914 1975.95,267.092 1982.8,266.271 1989.65,265.451 2017.06,262.184 2023.91,261.37 2030.76,260.557 2037.61,259.745 2044.46,258.935 2051.31,258.126 2058.16,257.317 2065.01,256.51 2078.71,254.9 2085.57,254.096 2099.27,252.492 2106.12,251.692 2112.97,250.893 2126.67,249.298 2133.52,248.502 2147.22,246.914 2154.08,246.121 2160.93,245.329 2167.78,244.539 2174.63,243.75 2181.48,242.961 2188.33,242.174 2202.03,240.602 2208.88,239.818 2215.74,239.035 2222.59,238.253 2229.44,237.472 2236.29,236.692 2243.14,235.913 2249.99,235.135 2256.84,234.358 2270.54,232.807 2277.39,232.033 2284.25,231.26 2291.1,230.488 "/>
</svg>
