<?xml version="1.0" encoding="utf-8"?>
<svg xmlns="http://www.w3.org/2000/svg" xmlns:xlink="http://www.w3.org/1999/xlink" width="1500" height="1000" viewBox="0 0 6000 4000">
<defs>
  <clipPath id="clip500">
    <rect x="0" y="0" width="6000" height="4000"/>
  </clipPath>
</defs>
<path clip-path="url(#clip500)" d="M0 4000 L6000 4000 L6000 2.22045e-13 L0 2.22045e-13  Z" fill="#ffffff" fill-rule="evenodd" fill-opacity="1"/>
<defs>
  <clipPath id="clip501">
    <rect x="1200" y="0" width="4201" height="4000"/>
  </clipPath>
</defs>
<path clip-path="url(#clip500)" d="M351.881 3657.45 L5811.02 3657.45 L5811.02 123.472 L351.881 123.472  Z" fill="#ffffff" fill-rule="evenodd" fill-opacity="1"/>
<defs>
  <clipPath id="clip502">
    <rect x="351" y="123" width="5460" height="3535"/>
  </clipPath>
</defs>
<polyline clip-path="url(#clip502)" style="stroke:#000000; stroke-linecap:round; stroke-linejoin:round; stroke-width:2; stroke-opacity:0.1; fill:none" points="351.881,3657.45 351.881,123.472 "/>
<polyline clip-path="url(#clip502)" style="stroke:#000000; stroke-linecap:round; stroke-linejoin:round; stroke-width:2; stroke-opacity:0.1; fill:none" points="1443.71,3657.45 1443.71,123.472 "/>
<polyline clip-path="url(#clip502)" style="stroke:#000000; stroke-linecap:round; stroke-linejoin:round; stroke-width:2; stroke-opacity:0.1; fill:none" points="2535.54,3657.45 2535.54,123.472 "/>
<polyline clip-path="url(#clip502)" style="stroke:#000000; stroke-linecap:round; stroke-linejoin:round; stroke-width:2; stroke-opacity:0.1; fill:none" points="3627.37,3657.45 3627.37,123.472 "/>
<polyline clip-path="url(#clip502)" style="stroke:#000000; stroke-linecap:round; stroke-linejoin:round; stroke-width:2; stroke-opacity:0.1; fill:none" points="4719.2,3657.45 4719.2,123.472 "/>
<polyline clip-path="url(#clip502)" style="stroke:#000000; stroke-linecap:round; stroke-linejoin:round; stroke-width:2; stroke-opacity:0.1; fill:none" points="5811.02,3657.45 5811.02,123.472 "/>
<polyline clip-path="url(#clip502)" style="stroke:#000000; stroke-linecap:round; stroke-linejoin:round; stroke-width:2; stroke-opacity:0.1; fill:none" points="351.881,3657.45 5811.02,3657.45 "/>
<polyline clip-path="url(#clip502)" style="stroke:#000000; stroke-linecap:round; stroke-linejoin:round; stroke-width:2; stroke-opacity:0.1; fill:none" points="351.881,2479.46 5811.02,2479.46 "/>
<polyline clip-path="url(#clip502)" style="stroke:#000000; stroke-linecap:round; stroke-linejoin:round; stroke-width:2; stroke-opacity:0.1; fill:none" points="351.881,1301.46 5811.02,1301.46 "/>
<polyline clip-path="url(#clip502)" style="stroke:#000000; stroke-linecap:round; stroke-linejoin:round; stroke-width:2; stroke-opacity:0.1; fill:none" points="351.881,123.472 5811.02,123.472 "/>
<polyline clip-path="url(#clip500)" style="stroke:#000000; stroke-linecap:round; stroke-linejoin:round; stroke-width:4; stroke-opacity:1; fill:none" points="351.881,3657.45 5811.02,3657.45 "/>
<polyline clip-path="url(#clip500)" style="stroke:#000000; stroke-linecap:round; stroke-linejoin:round; stroke-width:4; stroke-opacity:1; fill:none" points="351.881,3657.45 351.881,3638.55 "/>
<polyline clip-path="url(#clip500)" style="stroke:#000000; stroke-linecap:round; stroke-linejoin:round; stroke-width:4; stroke-opacity:1; fill:none" points="1443.71,3657.45 1443.71,3638.55 "/>
<polyline clip-path="url(#clip500)" style="stroke:#000000; stroke-linecap:round; stroke-linejoin:round; stroke-width:4; stroke-opacity:1; fill:none" points="2535.54,3657.45 2535.54,3638.55 "/>
<polyline clip-path="url(#clip500)" style="stroke:#000000; stroke-linecap:round; stroke-linejoin:round; stroke-width:4; stroke-opacity:1; fill:none" points="3627.37,3657.45 3627.37,3638.55 "/>
<polyline clip-path="url(#clip500)" style="stroke:#000000; stroke-linecap:round; stroke-linejoin:round; stroke-width:4; stroke-opacity:1; fill:none" points="4719.2,3657.45 4719.2,3638.55 "/>
<polyline clip-path="url(#clip500)" style="stroke:#000000; stroke-linecap:round; stroke-linejoin:round; stroke-width:4; stroke-opacity:1; fill:none" points="5811.02,3657.45 5811.02,3638.55 "/>
<path clip-path="url(#clip500)" d="M351.881 3717.17 Q348.27 3717.17 346.441 3720.73 Q344.636 3724.27 344.636 3731.4 Q344.636 3738.51 346.441 3742.07 Q348.27 3745.62 351.881 3745.62 Q355.515 3745.62 357.321 3742.07 Q359.15 3738.51 359.15 3731.4 Q359.15 3724.27 357.321 3720.73 Q355.515 3717.17 351.881 3717.17 M351.881 3713.46 Q357.691 3713.46 360.747 3718.07 Q363.826 3722.65 363.826 3731.4 Q363.826 3740.13 360.747 3744.74 Q357.691 3749.32 351.881 3749.32 Q346.071 3749.32 342.992 3744.74 Q339.937 3740.13 339.937 3731.4 Q339.937 3722.65 342.992 3718.07 Q346.071 3713.46 351.881 3713.46 Z" fill="#000000" fill-rule="nonzero" fill-opacity="1" /><path clip-path="url(#clip500)" d="M1422.48 3744.71 L1438.8 3744.71 L1438.8 3748.65 L1416.86 3748.65 L1416.86 3744.71 Q1419.52 3741.96 1424.1 3737.33 Q1428.71 3732.68 1429.89 3731.33 Q1432.14 3728.81 1433.02 3727.07 Q1433.92 3725.31 1433.92 3723.62 Q1433.92 3720.87 1431.97 3719.13 Q1430.05 3717.4 1426.95 3717.4 Q1424.75 3717.4 1422.3 3718.16 Q1419.87 3718.93 1417.09 3720.48 L1417.09 3715.75 Q1419.91 3714.62 1422.37 3714.04 Q1424.82 3713.46 1426.86 3713.46 Q1432.23 3713.46 1435.42 3716.15 Q1438.62 3718.83 1438.62 3723.32 Q1438.62 3725.45 1437.81 3727.37 Q1437.02 3729.27 1434.91 3731.87 Q1434.33 3732.54 1431.23 3735.75 Q1428.13 3738.95 1422.48 3744.71 Z" fill="#000000" fill-rule="nonzero" fill-opacity="1" /><path clip-path="url(#clip500)" d="M1458.62 3717.17 Q1455.01 3717.17 1453.18 3720.73 Q1451.37 3724.27 1451.37 3731.4 Q1451.37 3738.51 1453.18 3742.07 Q1455.01 3745.62 1458.62 3745.62 Q1462.25 3745.62 1464.06 3742.07 Q1465.89 3738.51 1465.89 3731.4 Q1465.89 3724.27 1464.06 3720.73 Q1462.25 3717.17 1458.62 3717.17 M1458.62 3713.46 Q1464.43 3713.46 1467.48 3718.07 Q1470.56 3722.65 1470.56 3731.4 Q1470.56 3740.13 1467.48 3744.74 Q1464.43 3749.32 1458.62 3749.32 Q1452.81 3749.32 1449.73 3744.74 Q1446.67 3740.13 1446.67 3731.4 Q1446.67 3722.65 1449.73 3718.07 Q1452.81 3713.46 1458.62 3713.46 Z" fill="#000000" fill-rule="nonzero" fill-opacity="1" /><path clip-path="url(#clip500)" d="M2523.71 3718.16 L2511.9 3736.61 L2523.71 3736.61 L2523.71 3718.16 M2522.48 3714.09 L2528.36 3714.09 L2528.36 3736.61 L2533.29 3736.61 L2533.29 3740.5 L2528.36 3740.5 L2528.36 3748.65 L2523.71 3748.65 L2523.71 3740.5 L2508.11 3740.5 L2508.11 3735.99 L2522.48 3714.09 Z" fill="#000000" fill-rule="nonzero" fill-opacity="1" /><path clip-path="url(#clip500)" d="M2551.02 3717.17 Q2547.41 3717.17 2545.58 3720.73 Q2543.78 3724.27 2543.78 3731.4 Q2543.78 3738.51 2545.58 3742.07 Q2547.41 3745.62 2551.02 3745.62 Q2554.66 3745.62 2556.46 3742.07 Q2558.29 3738.51 2558.29 3731.4 Q2558.29 3724.27 2556.46 3720.73 Q2554.66 3717.17 2551.02 3717.17 M2551.02 3713.46 Q2556.83 3713.46 2559.89 3718.07 Q2562.97 3722.65 2562.97 3731.4 Q2562.97 3740.13 2559.89 3744.74 Q2556.83 3749.32 2551.02 3749.32 Q2545.21 3749.32 2542.14 3744.74 Q2539.08 3740.13 2539.08 3731.4 Q2539.08 3722.65 2542.14 3718.07 Q2545.21 3713.46 2551.02 3713.46 Z" fill="#000000" fill-rule="nonzero" fill-opacity="1" /><path clip-path="url(#clip500)" d="M3612.77 3729.5 Q3609.62 3729.5 3607.77 3731.66 Q3605.94 3733.81 3605.94 3737.56 Q3605.94 3741.29 3607.77 3743.46 Q3609.62 3745.62 3612.77 3745.62 Q3615.92 3745.62 3617.75 3743.46 Q3619.6 3741.29 3619.6 3737.56 Q3619.6 3733.81 3617.75 3731.66 Q3615.92 3729.5 3612.77 3729.5 M3622.05 3714.85 L3622.05 3719.11 Q3620.29 3718.28 3618.49 3717.84 Q3616.71 3717.4 3614.95 3717.4 Q3610.32 3717.4 3607.86 3720.52 Q3605.43 3723.65 3605.09 3729.97 Q3606.45 3727.95 3608.51 3726.89 Q3610.57 3725.8 3613.05 3725.8 Q3618.26 3725.8 3621.27 3728.97 Q3624.3 3732.12 3624.3 3737.56 Q3624.3 3742.88 3621.15 3746.1 Q3618 3749.32 3612.77 3749.32 Q3606.78 3749.32 3603.61 3744.74 Q3600.43 3740.13 3600.43 3731.4 Q3600.43 3723.21 3604.32 3718.35 Q3608.21 3713.46 3614.76 3713.46 Q3616.52 3713.46 3618.3 3713.81 Q3620.11 3714.16 3622.05 3714.85 Z" fill="#000000" fill-rule="nonzero" fill-opacity="1" /><path clip-path="url(#clip500)" d="M3642.35 3717.17 Q3638.74 3717.17 3636.92 3720.73 Q3635.11 3724.27 3635.11 3731.4 Q3635.11 3738.51 3636.92 3742.07 Q3638.74 3745.62 3642.35 3745.62 Q3645.99 3745.62 3647.79 3742.07 Q3649.62 3738.51 3649.62 3731.4 Q3649.62 3724.27 3647.79 3720.73 Q3645.99 3717.17 3642.35 3717.17 M3642.35 3713.46 Q3648.17 3713.46 3651.22 3718.07 Q3654.3 3722.65 3654.3 3731.4 Q3654.3 3740.13 3651.22 3744.74 Q3648.17 3749.32 3642.35 3749.32 Q3636.54 3749.32 3633.47 3744.74 Q3630.41 3740.13 3630.41 3731.4 Q3630.41 3722.65 3633.47 3718.07 Q3636.54 3713.46 3642.35 3713.46 Z" fill="#000000" fill-rule="nonzero" fill-opacity="1" /><path clip-path="url(#clip500)" d="M4704.07 3732.24 Q4700.73 3732.24 4698.81 3734.02 Q4696.92 3735.8 4696.92 3738.93 Q4696.92 3742.05 4698.81 3743.83 Q4700.73 3745.62 4704.07 3745.62 Q4707.4 3745.62 4709.32 3743.83 Q4711.24 3742.03 4711.24 3738.93 Q4711.24 3735.8 4709.32 3734.02 Q4707.42 3732.24 4704.07 3732.24 M4699.39 3730.24 Q4696.38 3729.5 4694.69 3727.44 Q4693.03 3725.38 4693.03 3722.42 Q4693.03 3718.28 4695.97 3715.87 Q4698.93 3713.46 4704.07 3713.46 Q4709.23 3713.46 4712.17 3715.87 Q4715.11 3718.28 4715.11 3722.42 Q4715.11 3725.38 4713.42 3727.44 Q4711.75 3729.5 4708.77 3730.24 Q4712.15 3731.03 4714.02 3733.32 Q4715.92 3735.62 4715.92 3738.93 Q4715.92 3743.95 4712.84 3746.63 Q4709.79 3749.32 4704.07 3749.32 Q4698.35 3749.32 4695.27 3746.63 Q4692.22 3743.95 4692.22 3738.93 Q4692.22 3735.62 4694.11 3733.32 Q4696.01 3731.03 4699.39 3730.24 M4697.68 3722.86 Q4697.68 3725.55 4699.35 3727.05 Q4701.04 3728.56 4704.07 3728.56 Q4707.08 3728.56 4708.77 3727.05 Q4710.48 3725.55 4710.48 3722.86 Q4710.48 3720.18 4708.77 3718.67 Q4707.08 3717.17 4704.07 3717.17 Q4701.04 3717.17 4699.35 3718.67 Q4697.68 3720.18 4697.68 3722.86 Z" fill="#000000" fill-rule="nonzero" fill-opacity="1" /><path clip-path="url(#clip500)" d="M4734.23 3717.17 Q4730.62 3717.17 4728.79 3720.73 Q4726.98 3724.27 4726.98 3731.4 Q4726.98 3738.51 4728.79 3742.07 Q4730.62 3745.62 4734.23 3745.62 Q4737.86 3745.62 4739.67 3742.07 Q4741.5 3738.51 4741.5 3731.4 Q4741.5 3724.27 4739.67 3720.73 Q4737.86 3717.17 4734.23 3717.17 M4734.23 3713.46 Q4740.04 3713.46 4743.1 3718.07 Q4746.17 3722.65 4746.17 3731.4 Q4746.17 3740.13 4743.1 3744.74 Q4740.04 3749.32 4734.23 3749.32 Q4728.42 3749.32 4725.34 3744.74 Q4722.29 3740.13 4722.29 3731.4 Q4722.29 3722.65 4725.34 3718.07 Q4728.42 3713.46 4734.23 3713.46 Z" fill="#000000" fill-rule="nonzero" fill-opacity="1" /><path clip-path="url(#clip500)" d="M5770.63 3744.71 L5778.27 3744.71 L5778.27 3718.35 L5769.96 3720.01 L5769.96 3715.75 L5778.22 3714.09 L5782.9 3714.09 L5782.9 3744.71 L5790.54 3744.71 L5790.54 3748.65 L5770.63 3748.65 L5770.63 3744.71 Z" fill="#000000" fill-rule="nonzero" fill-opacity="1" /><path clip-path="url(#clip500)" d="M5809.98 3717.17 Q5806.37 3717.17 5804.54 3720.73 Q5802.74 3724.27 5802.74 3731.4 Q5802.74 3738.51 5804.54 3742.07 Q5806.37 3745.62 5809.98 3745.62 Q5813.62 3745.62 5815.42 3742.07 Q5817.25 3738.51 5817.25 3731.4 Q5817.25 3724.27 5815.42 3720.73 Q5813.62 3717.17 5809.98 3717.17 M5809.98 3713.46 Q5815.79 3713.46 5818.85 3718.07 Q5821.93 3722.65 5821.93 3731.4 Q5821.93 3740.13 5818.85 3744.74 Q5815.79 3749.32 5809.98 3749.32 Q5804.17 3749.32 5801.09 3744.74 Q5798.04 3740.13 5798.04 3731.4 Q5798.04 3722.65 5801.09 3718.07 Q5804.17 3713.46 5809.98 3713.46 Z" fill="#000000" fill-rule="nonzero" fill-opacity="1" /><path clip-path="url(#clip500)" d="M5840.14 3717.17 Q5836.53 3717.17 5834.7 3720.73 Q5832.9 3724.27 5832.9 3731.4 Q5832.9 3738.51 5834.7 3742.07 Q5836.53 3745.62 5840.14 3745.62 Q5843.78 3745.62 5845.58 3742.07 Q5847.41 3738.51 5847.41 3731.4 Q5847.41 3724.27 5845.58 3720.73 Q5843.78 3717.17 5840.14 3717.17 M5840.14 3713.46 Q5845.95 3713.46 5849.01 3718.07 Q5852.09 3722.65 5852.09 3731.4 Q5852.09 3740.13 5849.01 3744.74 Q5845.95 3749.32 5840.14 3749.32 Q5834.33 3749.32 5831.25 3744.74 Q5828.2 3740.13 5828.2 3731.4 Q5828.2 3722.65 5831.25 3718.07 Q5834.33 3713.46 5840.14 3713.46 Z" fill="#000000" fill-rule="nonzero" fill-opacity="1" /><path clip-path="url(#clip500)" d="M2955.83 3808.79 L2996.02 3808.79 L2996.02 3814.2 L2979.16 3814.2 L2979.16 3856.31 L2972.69 3856.31 L2972.69 3814.2 L2955.83 3814.2 L2955.83 3808.79 Z" fill="#000000" fill-rule="nonzero" fill-opacity="1" /><path clip-path="url(#clip500)" d="M2999.97 3820.66 L3005.83 3820.66 L3005.83 3856.31 L2999.97 3856.31 L2999.97 3820.66 M2999.97 3806.79 L3005.83 3806.79 L3005.83 3814.2 L2999.97 3814.2 L2999.97 3806.79 Z" fill="#000000" fill-rule="nonzero" fill-opacity="1" /><path clip-path="url(#clip500)" d="M3045.84 3827.51 Q3048.03 3823.56 3051.09 3821.68 Q3054.14 3819.8 3058.28 3819.8 Q3063.85 3819.8 3066.87 3823.72 Q3069.9 3827.6 3069.9 3834.8 L3069.9 3856.31 L3064.01 3856.31 L3064.01 3834.99 Q3064.01 3829.86 3062.2 3827.38 Q3060.38 3824.9 3056.66 3824.9 Q3052.11 3824.9 3049.46 3827.92 Q3046.82 3830.94 3046.82 3836.16 L3046.82 3856.31 L3040.93 3856.31 L3040.93 3834.99 Q3040.93 3829.83 3039.12 3827.38 Q3037.31 3824.9 3033.52 3824.9 Q3029.03 3824.9 3026.39 3827.95 Q3023.75 3830.98 3023.75 3836.16 L3023.75 3856.31 L3017.86 3856.31 L3017.86 3820.66 L3023.75 3820.66 L3023.75 3826.2 Q3025.75 3822.92 3028.55 3821.36 Q3031.35 3819.8 3035.21 3819.8 Q3039.09 3819.8 3041.79 3821.78 Q3044.53 3823.75 3045.84 3827.51 Z" fill="#000000" fill-rule="nonzero" fill-opacity="1" /><path clip-path="url(#clip500)" d="M3112.07 3837.02 L3112.07 3839.89 L3085.14 3839.89 Q3085.53 3845.94 3088.77 3849.12 Q3092.05 3852.27 3097.88 3852.27 Q3101.25 3852.27 3104.4 3851.44 Q3107.58 3850.61 3110.7 3848.96 L3110.7 3854.5 Q3107.55 3855.83 3104.24 3856.53 Q3100.93 3857.23 3097.53 3857.23 Q3089 3857.23 3084 3852.27 Q3079.03 3847.3 3079.03 3838.84 Q3079.03 3830.08 3083.74 3824.96 Q3088.49 3819.8 3096.51 3819.8 Q3103.7 3819.8 3107.87 3824.45 Q3112.07 3829.07 3112.07 3837.02 M3106.22 3835.3 Q3106.15 3830.5 3103.51 3827.63 Q3100.9 3824.77 3096.57 3824.77 Q3091.67 3824.77 3088.71 3827.54 Q3085.78 3830.31 3085.34 3835.34 L3106.22 3835.3 Z" fill="#000000" fill-rule="nonzero" fill-opacity="1" /><path clip-path="url(#clip500)" d="M3156.47 3806.85 Q3152.21 3814.17 3150.14 3821.33 Q3148.07 3828.49 3148.07 3835.85 Q3148.07 3843.2 3150.14 3850.42 Q3152.24 3857.62 3156.47 3864.91 L3151.38 3864.91 Q3146.61 3857.43 3144.22 3850.2 Q3141.86 3842.98 3141.86 3835.85 Q3141.86 3828.75 3144.22 3821.55 Q3146.57 3814.36 3151.38 3806.85 L3156.47 3806.85 Z" fill="#000000" fill-rule="nonzero" fill-opacity="1" /><path clip-path="url(#clip500)" d="M3173.63 3810.54 L3173.63 3820.66 L3185.69 3820.66 L3185.69 3825.22 L3173.63 3825.22 L3173.63 3844.57 Q3173.63 3848.93 3174.81 3850.17 Q3176.01 3851.41 3179.68 3851.41 L3185.69 3851.41 L3185.69 3856.31 L3179.68 3856.31 Q3172.9 3856.31 3170.32 3853.8 Q3167.74 3851.25 3167.74 3844.57 L3167.74 3825.22 L3163.44 3825.22 L3163.44 3820.66 L3167.74 3820.66 L3167.74 3810.54 L3173.63 3810.54 Z" fill="#000000" fill-rule="nonzero" fill-opacity="1" /><path clip-path="url(#clip500)" d="M3192.47 3806.85 L3197.56 3806.85 Q3202.34 3814.36 3204.69 3821.55 Q3207.08 3828.75 3207.08 3835.85 Q3207.08 3842.98 3204.69 3850.2 Q3202.34 3857.43 3197.56 3864.91 L3192.47 3864.91 Q3196.7 3857.62 3198.77 3850.42 Q3200.87 3843.2 3200.87 3835.85 Q3200.87 3828.49 3198.77 3821.33 Q3196.7 3814.17 3192.47 3806.85 Z" fill="#000000" fill-rule="nonzero" fill-opacity="1" /><polyline clip-path="url(#clip500)" style="stroke:#000000; stroke-linecap:round; stroke-linejoin:round; stroke-width:4; stroke-opacity:1; fill:none" points="351.881,3657.45 351.881,123.472 "/>
<polyline clip-path="url(#clip500)" style="stroke:#000000; stroke-linecap:round; stroke-linejoin:round; stroke-width:4; stroke-opacity:1; fill:none" points="351.881,3657.45 370.779,3657.45 "/>
<polyline clip-path="url(#clip500)" style="stroke:#000000; stroke-linecap:round; stroke-linejoin:round; stroke-width:4; stroke-opacity:1; fill:none" points="351.881,2479.46 370.779,2479.46 "/>
<polyline clip-path="url(#clip500)" style="stroke:#000000; stroke-linecap:round; stroke-linejoin:round; stroke-width:4; stroke-opacity:1; fill:none" points="351.881,1301.46 370.779,1301.46 "/>
<polyline clip-path="url(#clip500)" style="stroke:#000000; stroke-linecap:round; stroke-linejoin:round; stroke-width:4; stroke-opacity:1; fill:none" points="351.881,123.472 370.779,123.472 "/>
<path clip-path="url(#clip500)" d="M249.937 3643.25 Q246.326 3643.25 244.497 3646.81 Q242.691 3650.35 242.691 3657.48 Q242.691 3664.59 244.497 3668.15 Q246.326 3671.7 249.937 3671.7 Q253.571 3671.7 255.377 3668.15 Q257.205 3664.59 257.205 3657.48 Q257.205 3650.35 255.377 3646.81 Q253.571 3643.25 249.937 3643.25 M249.937 3639.54 Q255.747 3639.54 258.803 3644.15 Q261.881 3648.73 261.881 3657.48 Q261.881 3666.21 258.803 3670.82 Q255.747 3675.4 249.937 3675.4 Q244.127 3675.4 241.048 3670.82 Q237.992 3666.21 237.992 3657.48 Q237.992 3648.73 241.048 3644.15 Q244.127 3639.54 249.937 3639.54 Z" fill="#000000" fill-rule="nonzero" fill-opacity="1" /><path clip-path="url(#clip500)" d="M241.974 2492.8 L249.613 2492.8 L249.613 2466.43 L241.303 2468.1 L241.303 2463.84 L249.566 2462.18 L254.242 2462.18 L254.242 2492.8 L261.881 2492.8 L261.881 2496.74 L241.974 2496.74 L241.974 2492.8 Z" fill="#000000" fill-rule="nonzero" fill-opacity="1" /><path clip-path="url(#clip500)" d="M245.562 1314.81 L261.881 1314.81 L261.881 1318.74 L239.937 1318.74 L239.937 1314.81 Q242.599 1312.05 247.182 1307.42 Q251.789 1302.77 252.969 1301.43 Q255.215 1298.91 256.094 1297.17 Q256.997 1295.41 256.997 1293.72 Q256.997 1290.97 255.053 1289.23 Q253.131 1287.49 250.029 1287.49 Q247.83 1287.49 245.377 1288.26 Q242.946 1289.02 240.168 1290.57 L240.168 1285.85 Q242.992 1284.72 245.446 1284.14 Q247.9 1283.56 249.937 1283.56 Q255.307 1283.56 258.502 1286.24 Q261.696 1288.93 261.696 1293.42 Q261.696 1295.55 260.886 1297.47 Q260.099 1299.37 257.992 1301.96 Q257.414 1302.63 254.312 1305.85 Q251.21 1309.04 245.562 1314.81 Z" fill="#000000" fill-rule="nonzero" fill-opacity="1" /><path clip-path="url(#clip500)" d="M254.752 122.118 Q258.108 122.836 259.983 125.104 Q261.881 127.373 261.881 130.706 Q261.881 135.822 258.363 138.623 Q254.844 141.423 248.363 141.423 Q246.187 141.423 243.872 140.984 Q241.58 140.567 239.127 139.71 L239.127 135.197 Q241.071 136.331 243.386 136.91 Q245.701 137.488 248.224 137.488 Q252.622 137.488 254.914 135.752 Q257.228 134.016 257.228 130.706 Q257.228 127.65 255.076 125.937 Q252.946 124.201 249.127 124.201 L245.099 124.201 L245.099 120.359 L249.312 120.359 Q252.761 120.359 254.59 118.993 Q256.418 117.604 256.418 115.012 Q256.418 112.35 254.52 110.937 Q252.645 109.502 249.127 109.502 Q247.205 109.502 245.006 109.919 Q242.807 110.336 240.168 111.215 L240.168 107.049 Q242.83 106.308 245.145 105.937 Q247.483 105.567 249.543 105.567 Q254.867 105.567 257.969 107.998 Q261.071 110.405 261.071 114.525 Q261.071 117.396 259.428 119.386 Q257.784 121.354 254.752 122.118 Z" fill="#000000" fill-rule="nonzero" fill-opacity="1" /><path clip-path="url(#clip500)" d="M87.776 2059.25 L94.0463 2059.25 Q92.2957 2062.91 91.4363 2066.15 Q90.5769 2069.4 90.5769 2072.42 Q90.5769 2077.68 92.614 2080.54 Q94.651 2083.37 98.4068 2083.37 Q101.558 2083.37 103.181 2081.49 Q104.772 2079.58 105.759 2074.3 L106.555 2070.42 Q107.924 2063.23 111.393 2059.82 Q114.83 2056.38 120.623 2056.38 Q127.53 2056.38 131.095 2061.03 Q134.659 2065.64 134.659 2074.59 Q134.659 2077.96 133.896 2081.78 Q133.132 2085.57 131.636 2089.64 L125.015 2089.64 Q127.212 2085.73 128.326 2081.97 Q129.44 2078.22 129.44 2074.59 Q129.44 2069.08 127.275 2066.09 Q125.111 2063.1 121.101 2063.1 Q117.599 2063.1 115.626 2065.26 Q113.653 2067.39 112.666 2072.3 L111.902 2076.21 Q110.47 2083.4 107.414 2086.62 Q104.359 2089.83 98.916 2089.83 Q92.614 2089.83 88.9855 2085.41 Q85.3571 2080.95 85.3571 2073.16 Q85.3571 2069.81 85.9618 2066.34 Q86.5666 2062.88 87.776 2059.25 Z" fill="#000000" fill-rule="nonzero" fill-opacity="1" /><path clip-path="url(#clip500)" d="M87.967 2040.82 L98.0885 2040.82 L98.0885 2028.75 L102.64 2028.75 L102.64 2040.82 L121.992 2040.82 Q126.352 2040.82 127.594 2039.64 Q128.835 2038.43 128.835 2034.77 L128.835 2028.75 L133.736 2028.75 L133.736 2034.77 Q133.736 2041.55 131.222 2044.13 Q128.676 2046.71 121.992 2046.71 L102.64 2046.71 L102.64 2051 L98.0885 2051 L98.0885 2046.71 L87.967 2046.71 L87.967 2040.82 Z" fill="#000000" fill-rule="nonzero" fill-opacity="1" /><path clip-path="url(#clip500)" d="M115.817 2004.85 Q115.817 2011.95 117.44 2014.69 Q119.063 2017.42 122.978 2017.42 Q126.098 2017.42 127.944 2015.39 Q129.758 2013.32 129.758 2009.79 Q129.758 2004.92 126.32 2001.99 Q122.851 1999.03 117.122 1999.03 L115.817 1999.03 L115.817 2004.85 M113.398 1993.17 L133.736 1993.17 L133.736 1999.03 L128.326 1999.03 Q131.572 2001.03 133.132 2004.02 Q134.659 2007.02 134.659 2011.34 Q134.659 2016.82 131.604 2020.07 Q128.517 2023.28 123.36 2023.28 Q117.345 2023.28 114.289 2019.27 Q111.234 2015.23 111.234 2007.24 L111.234 1999.03 L110.661 1999.03 Q106.619 1999.03 104.422 2001.7 Q102.194 2004.34 102.194 2009.15 Q102.194 2012.2 102.926 2015.1 Q103.658 2018 105.123 2020.67 L99.7117 2020.67 Q98.4704 2017.46 97.8657 2014.43 Q97.2291 2011.41 97.2291 2008.54 Q97.2291 2000.81 101.24 1996.99 Q105.25 1993.17 113.398 1993.17 Z" fill="#000000" fill-rule="nonzero" fill-opacity="1" /><path clip-path="url(#clip500)" d="M87.967 1975.31 L98.0885 1975.31 L98.0885 1963.25 L102.64 1963.25 L102.64 1975.31 L121.992 1975.31 Q126.352 1975.31 127.594 1974.14 Q128.835 1972.93 128.835 1969.27 L128.835 1963.25 L133.736 1963.25 L133.736 1969.27 Q133.736 1976.05 131.222 1978.62 Q128.676 1981.2 121.992 1981.2 L102.64 1981.2 L102.64 1985.5 L98.0885 1985.5 L98.0885 1981.2 L87.967 1981.2 L87.967 1975.31 Z" fill="#000000" fill-rule="nonzero" fill-opacity="1" /><path clip-path="url(#clip500)" d="M114.448 1925.06 L117.313 1925.06 L117.313 1951.98 Q123.36 1951.6 126.543 1948.36 Q129.694 1945.08 129.694 1939.25 Q129.694 1935.88 128.867 1932.73 Q128.039 1929.55 126.384 1926.43 L131.922 1926.43 Q133.259 1929.58 133.959 1932.89 Q134.659 1936.2 134.659 1939.6 Q134.659 1948.13 129.694 1953.13 Q124.729 1958.1 116.263 1958.1 Q107.51 1958.1 102.385 1953.38 Q97.2291 1948.64 97.2291 1940.62 Q97.2291 1933.43 101.876 1929.26 Q106.491 1925.06 114.448 1925.06 M112.73 1930.91 Q107.924 1930.98 105.059 1933.62 Q102.194 1936.23 102.194 1940.56 Q102.194 1945.46 104.963 1948.42 Q107.733 1951.35 112.761 1951.79 L112.73 1930.91 Z" fill="#000000" fill-rule="nonzero" fill-opacity="1" /><path clip-path="url(#clip500)" d="M133.736 1882.22 L86.2164 1900.36 L86.2164 1893.64 L126.225 1878.59 L86.2164 1863.5 L86.2164 1856.82 L133.736 1874.93 L133.736 1882.22 Z" fill="#000000" fill-rule="nonzero" fill-opacity="1" /><path clip-path="url(#clip500)" d="M115.817 1838.99 Q115.817 1846.09 117.44 1848.83 Q119.063 1851.57 122.978 1851.57 Q126.098 1851.57 127.944 1849.53 Q129.758 1847.46 129.758 1843.93 Q129.758 1839.06 126.32 1836.13 Q122.851 1833.17 117.122 1833.17 L115.817 1833.17 L115.817 1838.99 M113.398 1827.31 L133.736 1827.31 L133.736 1833.17 L128.326 1833.17 Q131.572 1835.17 133.132 1838.17 Q134.659 1841.16 134.659 1845.49 Q134.659 1850.96 131.604 1854.21 Q128.517 1857.42 123.36 1857.42 Q117.345 1857.42 114.289 1853.41 Q111.234 1849.37 111.234 1841.38 L111.234 1833.17 L110.661 1833.17 Q106.619 1833.17 104.422 1835.84 Q102.194 1838.48 102.194 1843.29 Q102.194 1846.35 102.926 1849.24 Q103.658 1852.14 105.123 1854.81 L99.7117 1854.81 Q98.4704 1851.6 97.8657 1848.57 Q97.2291 1845.55 97.2291 1842.69 Q97.2291 1834.95 101.24 1831.13 Q105.25 1827.31 113.398 1827.31 Z" fill="#000000" fill-rule="nonzero" fill-opacity="1" /><path clip-path="url(#clip500)" d="M84.2112 1815.25 L84.2112 1809.39 L133.736 1809.39 L133.736 1815.25 L84.2112 1815.25 Z" fill="#000000" fill-rule="nonzero" fill-opacity="1" /><path clip-path="url(#clip500)" d="M119.668 1797.74 L98.0885 1797.74 L98.0885 1791.89 L119.445 1791.89 Q124.506 1791.89 127.052 1789.91 Q129.567 1787.94 129.567 1783.99 Q129.567 1779.25 126.543 1776.51 Q123.519 1773.74 118.3 1773.74 L98.0885 1773.74 L98.0885 1767.89 L133.736 1767.89 L133.736 1773.74 L128.262 1773.74 Q131.508 1775.88 133.1 1778.71 Q134.659 1781.51 134.659 1785.23 Q134.659 1791.38 130.84 1794.56 Q127.021 1797.74 119.668 1797.74 M97.2291 1783.01 L97.2291 1783.01 Z" fill="#000000" fill-rule="nonzero" fill-opacity="1" /><path clip-path="url(#clip500)" d="M114.448 1725.33 L117.313 1725.33 L117.313 1752.26 Q123.36 1751.88 126.543 1748.63 Q129.694 1745.35 129.694 1739.53 Q129.694 1736.16 128.867 1733 Q128.039 1729.82 126.384 1726.7 L131.922 1726.7 Q133.259 1729.85 133.959 1733.16 Q134.659 1736.47 134.659 1739.88 Q134.659 1748.41 129.694 1753.41 Q124.729 1758.37 116.263 1758.37 Q107.51 1758.37 102.385 1753.66 Q97.2291 1748.92 97.2291 1740.9 Q97.2291 1733.7 101.876 1729.53 Q106.491 1725.33 114.448 1725.33 M112.73 1731.19 Q107.924 1731.25 105.059 1733.9 Q102.194 1736.51 102.194 1740.83 Q102.194 1745.74 104.963 1748.7 Q107.733 1751.62 112.761 1752.07 L112.73 1731.19 Z" fill="#000000" fill-rule="nonzero" fill-opacity="1" /><path clip-path="url(#clip500)" d="M99.1388 1693 L104.677 1693 Q103.404 1695.48 102.767 1698.15 Q102.131 1700.83 102.131 1703.69 Q102.131 1708.05 103.468 1710.25 Q104.804 1712.41 107.478 1712.41 Q109.515 1712.41 110.693 1710.85 Q111.838 1709.29 112.889 1704.58 L113.334 1702.58 Q114.671 1696.34 117.122 1693.73 Q119.541 1691.09 123.901 1691.09 Q128.867 1691.09 131.763 1695.03 Q134.659 1698.95 134.659 1705.82 Q134.659 1708.69 134.087 1711.81 Q133.545 1714.89 132.431 1718.33 L126.384 1718.33 Q128.071 1715.08 128.93 1711.93 Q129.758 1708.78 129.758 1705.7 Q129.758 1701.56 128.357 1699.33 Q126.925 1697.1 124.347 1697.1 Q121.96 1697.1 120.687 1698.72 Q119.414 1700.32 118.236 1705.76 L117.759 1707.8 Q116.613 1713.24 114.257 1715.66 Q111.87 1718.08 107.733 1718.08 Q102.704 1718.08 99.9664 1714.51 Q97.2291 1710.95 97.2291 1704.39 Q97.2291 1701.14 97.7065 1698.28 Q98.184 1695.41 99.1388 1693 Z" fill="#000000" fill-rule="nonzero" fill-opacity="1" /><path clip-path="url(#clip500)" d="M1870.5 16.7545 L1870.5 25.383 Q1866.36 21.5346 1861.66 19.6307 Q1857.01 17.7268 1851.74 17.7268 Q1841.37 17.7268 1835.86 24.0867 Q1830.35 30.4061 1830.35 42.3968 Q1830.35 54.3469 1835.86 60.7069 Q1841.37 67.0263 1851.74 67.0263 Q1857.01 67.0263 1861.66 65.1223 Q1866.36 63.2184 1870.5 59.3701 L1870.5 67.9175 Q1866.2 70.8341 1861.38 72.2924 Q1856.6 73.7508 1851.25 73.7508 Q1837.52 73.7508 1829.62 65.3654 Q1821.72 56.9395 1821.72 42.3968 Q1821.72 27.8135 1829.62 19.4281 Q1837.52 11.0023 1851.25 11.0023 Q1856.68 11.0023 1861.46 12.4606 Q1866.28 13.8784 1870.5 16.7545 Z" fill="#000000" fill-rule="nonzero" fill-opacity="1" /><path clip-path="url(#clip500)" d="M1874.75 12.096 L1925.91 12.096 L1925.91 18.9825 L1904.44 18.9825 L1904.44 72.576 L1896.22 72.576 L1896.22 18.9825 L1874.75 18.9825 L1874.75 12.096 Z" fill="#000000" fill-rule="nonzero" fill-opacity="1" /><path clip-path="url(#clip500)" d="M1933.81 12.096 L1946 12.096 L1961.44 53.2532 L1976.95 12.096 L1989.15 12.096 L1989.15 72.576 L1981.17 72.576 L1981.17 19.4686 L1965.57 60.9499 L1957.35 60.9499 L1941.75 19.4686 L1941.75 72.576 L1933.81 72.576 L1933.81 12.096 Z" fill="#000000" fill-rule="nonzero" fill-opacity="1" /><path clip-path="url(#clip500)" d="M2050.68 16.7545 L2050.68 25.383 Q2046.55 21.5346 2041.85 19.6307 Q2037.19 17.7268 2031.92 17.7268 Q2021.55 17.7268 2016.04 24.0867 Q2010.54 30.4061 2010.54 42.3968 Q2010.54 54.3469 2016.04 60.7069 Q2021.55 67.0263 2031.92 67.0263 Q2037.19 67.0263 2041.85 65.1223 Q2046.55 63.2184 2050.68 59.3701 L2050.68 67.9175 Q2046.39 70.8341 2041.57 72.2924 Q2036.78 73.7508 2031.44 73.7508 Q2017.71 73.7508 2009.81 65.3654 Q2001.91 56.9395 2001.91 42.3968 Q2001.91 27.8135 2009.81 19.4281 Q2017.71 11.0023 2031.44 11.0023 Q2036.87 11.0023 2041.65 12.4606 Q2046.47 13.8784 2050.68 16.7545 Z" fill="#000000" fill-rule="nonzero" fill-opacity="1" /><path clip-path="url(#clip500)" d="M2125.95 14.0809 L2125.95 22.0612 Q2121.29 19.8332 2117.15 18.7395 Q2113.02 17.6457 2109.17 17.6457 Q2102.49 17.6457 2098.84 20.2383 Q2095.24 22.8309 2095.24 27.611 Q2095.24 31.6214 2097.63 33.6873 Q2100.06 35.7128 2106.78 36.9686 L2111.73 37.9813 Q2120.88 39.7232 2125.22 44.1387 Q2129.59 48.5136 2129.59 55.8863 Q2129.59 64.6767 2123.68 69.2137 Q2117.8 73.7508 2106.42 73.7508 Q2102.13 73.7508 2097.26 72.7785 Q2092.44 71.8063 2087.26 69.9024 L2087.26 61.4765 Q2092.24 64.2716 2097.02 65.6895 Q2101.8 67.1073 2106.42 67.1073 Q2113.43 67.1073 2117.24 64.3527 Q2121.04 61.598 2121.04 56.4939 Q2121.04 52.0379 2118.29 49.5264 Q2115.58 47.0148 2109.34 45.759 L2104.35 44.7868 Q2095.2 42.9639 2091.11 39.075 Q2087.02 35.1862 2087.02 28.2591 Q2087.02 20.2383 2092.65 15.6203 Q2098.32 11.0023 2108.24 11.0023 Q2112.5 11.0023 2116.91 11.7719 Q2121.33 12.5416 2125.95 14.0809 Z" fill="#000000" fill-rule="nonzero" fill-opacity="1" /><path clip-path="url(#clip500)" d="M2142.03 27.2059 L2149.48 27.2059 L2149.48 72.576 L2142.03 72.576 L2142.03 27.2059 M2142.03 9.54393 L2149.48 9.54393 L2149.48 18.9825 L2142.03 18.9825 L2142.03 9.54393 Z" fill="#000000" fill-rule="nonzero" fill-opacity="1" /><path clip-path="url(#clip500)" d="M2200.4 35.9153 Q2203.2 30.8922 2207.08 28.5022 Q2210.97 26.1121 2216.24 26.1121 Q2223.33 26.1121 2227.18 31.0947 Q2231.03 36.0368 2231.03 45.1919 L2231.03 72.576 L2223.53 72.576 L2223.53 45.4349 Q2223.53 38.913 2221.22 35.7533 Q2218.91 32.5936 2214.17 32.5936 Q2208.38 32.5936 2205.02 36.4419 Q2201.66 40.2903 2201.66 46.9338 L2201.66 72.576 L2194.16 72.576 L2194.16 45.4349 Q2194.16 38.8725 2191.85 35.7533 Q2189.54 32.5936 2184.72 32.5936 Q2179.01 32.5936 2175.65 36.4824 Q2172.29 40.3308 2172.29 46.9338 L2172.29 72.576 L2164.79 72.576 L2164.79 27.2059 L2172.29 27.2059 L2172.29 34.2544 Q2174.84 30.082 2178.4 28.0971 Q2181.97 26.1121 2186.87 26.1121 Q2191.81 26.1121 2195.26 28.6237 Q2198.74 31.1352 2200.4 35.9153 Z" fill="#000000" fill-rule="nonzero" fill-opacity="1" /><path clip-path="url(#clip500)" d="M2245.12 54.671 L2245.12 27.2059 L2252.58 27.2059 L2252.58 54.3874 Q2252.58 60.8284 2255.09 64.0691 Q2257.6 67.2693 2262.62 67.2693 Q2268.66 67.2693 2272.14 63.421 Q2275.67 59.5726 2275.67 52.9291 L2275.67 27.2059 L2283.12 27.2059 L2283.12 72.576 L2275.67 72.576 L2275.67 65.6084 Q2272.95 69.7404 2269.35 71.7658 Q2265.78 73.7508 2261.04 73.7508 Q2253.22 73.7508 2249.17 68.8897 Q2245.12 64.0286 2245.12 54.671 M2263.88 26.1121 L2263.88 26.1121 Z" fill="#000000" fill-rule="nonzero" fill-opacity="1" /><path clip-path="url(#clip500)" d="M2298.47 9.54393 L2305.93 9.54393 L2305.93 72.576 L2298.47 72.576 L2298.47 9.54393 Z" fill="#000000" fill-rule="nonzero" fill-opacity="1" /><path clip-path="url(#clip500)" d="M2342.14 49.7694 Q2333.11 49.7694 2329.62 51.8354 Q2326.14 53.9013 2326.14 58.8839 Q2326.14 62.8538 2328.73 65.2034 Q2331.37 67.5124 2335.86 67.5124 Q2342.06 67.5124 2345.79 63.1374 Q2349.56 58.7219 2349.56 51.4303 L2349.56 49.7694 L2342.14 49.7694 M2357.01 46.6907 L2357.01 72.576 L2349.56 72.576 L2349.56 65.6895 Q2347 69.8214 2343.2 71.8063 Q2339.39 73.7508 2333.88 73.7508 Q2326.91 73.7508 2322.78 69.8619 Q2318.69 65.9325 2318.69 59.3701 Q2318.69 51.7138 2323.79 47.825 Q2328.94 43.9361 2339.1 43.9361 L2349.56 43.9361 L2349.56 43.2069 Q2349.56 38.0623 2346.15 35.2672 Q2342.79 32.4315 2336.67 32.4315 Q2332.78 32.4315 2329.1 33.3632 Q2325.41 34.295 2322.01 36.1584 L2322.01 29.2718 Q2326.1 27.692 2329.95 26.9223 Q2333.8 26.1121 2337.44 26.1121 Q2347.29 26.1121 2352.15 31.2163 Q2357.01 36.3204 2357.01 46.6907 Z" fill="#000000" fill-rule="nonzero" fill-opacity="1" /><path clip-path="url(#clip500)" d="M2379.73 14.324 L2379.73 27.2059 L2395.09 27.2059 L2395.09 32.9987 L2379.73 32.9987 L2379.73 57.6282 Q2379.73 63.1779 2381.23 64.7578 Q2382.77 66.3376 2387.43 66.3376 L2395.09 66.3376 L2395.09 72.576 L2387.43 72.576 Q2378.8 72.576 2375.52 69.3758 Q2372.24 66.1351 2372.24 57.6282 L2372.24 32.9987 L2366.77 32.9987 L2366.77 27.2059 L2372.24 27.2059 L2372.24 14.324 L2379.73 14.324 Z" fill="#000000" fill-rule="nonzero" fill-opacity="1" /><path clip-path="url(#clip500)" d="M2404.89 27.2059 L2412.34 27.2059 L2412.34 72.576 L2404.89 72.576 L2404.89 27.2059 M2404.89 9.54393 L2412.34 9.54393 L2412.34 18.9825 L2404.89 18.9825 L2404.89 9.54393 Z" fill="#000000" fill-rule="nonzero" fill-opacity="1" /><path clip-path="url(#clip500)" d="M2445.52 32.4315 Q2439.53 32.4315 2436.04 37.1306 Q2432.56 41.7891 2432.56 49.9314 Q2432.56 58.0738 2436 62.7728 Q2439.49 67.4314 2445.52 67.4314 Q2451.48 67.4314 2454.96 62.7323 Q2458.44 58.0333 2458.44 49.9314 Q2458.44 41.8701 2454.96 37.1711 Q2451.48 32.4315 2445.52 32.4315 M2445.52 26.1121 Q2455.24 26.1121 2460.79 32.4315 Q2466.34 38.7509 2466.34 49.9314 Q2466.34 61.0714 2460.79 67.4314 Q2455.24 73.7508 2445.52 73.7508 Q2435.76 73.7508 2430.21 67.4314 Q2424.7 61.0714 2424.7 49.9314 Q2424.7 38.7509 2430.21 32.4315 Q2435.76 26.1121 2445.52 26.1121 Z" fill="#000000" fill-rule="nonzero" fill-opacity="1" /><path clip-path="url(#clip500)" d="M2516.41 45.1919 L2516.41 72.576 L2508.96 72.576 L2508.96 45.4349 Q2508.96 38.994 2506.45 35.7938 Q2503.94 32.5936 2498.91 32.5936 Q2492.88 32.5936 2489.39 36.4419 Q2485.91 40.2903 2485.91 46.9338 L2485.91 72.576 L2478.41 72.576 L2478.41 27.2059 L2485.91 27.2059 L2485.91 34.2544 Q2488.58 30.163 2492.19 28.1376 Q2495.83 26.1121 2500.57 26.1121 Q2508.39 26.1121 2512.4 30.9732 Q2516.41 35.7938 2516.41 45.1919 Z" fill="#000000" fill-rule="nonzero" fill-opacity="1" /><path clip-path="url(#clip500)" d="M2553.88 46.5287 L2575.72 46.5287 L2575.72 53.1722 L2553.88 53.1722 L2553.88 46.5287 Z" fill="#000000" fill-rule="nonzero" fill-opacity="1" /><path clip-path="url(#clip500)" d="M2605.9 12.096 L2657.06 12.096 L2657.06 18.9825 L2635.59 18.9825 L2635.59 72.576 L2627.37 72.576 L2627.37 18.9825 L2605.9 18.9825 L2605.9 12.096 Z" fill="#000000" fill-rule="nonzero" fill-opacity="1" /><path clip-path="url(#clip500)" d="M2678.73 34.1734 Q2677.48 33.4443 2675.98 33.1202 Q2674.52 32.7556 2672.74 32.7556 Q2666.42 32.7556 2663.01 36.8875 Q2659.65 40.9789 2659.65 48.6757 L2659.65 72.576 L2652.16 72.576 L2652.16 27.2059 L2659.65 27.2059 L2659.65 34.2544 Q2662 30.1225 2665.77 28.1376 Q2669.54 26.1121 2674.92 26.1121 Q2675.69 26.1121 2676.63 26.2337 Q2677.56 26.3147 2678.69 26.5172 L2678.73 34.1734 Z" fill="#000000" fill-rule="nonzero" fill-opacity="1" /><path clip-path="url(#clip500)" d="M2707.17 49.7694 Q2698.14 49.7694 2694.65 51.8354 Q2691.17 53.9013 2691.17 58.8839 Q2691.17 62.8538 2693.76 65.2034 Q2696.39 67.5124 2700.89 67.5124 Q2707.09 67.5124 2710.81 63.1374 Q2714.58 58.7219 2714.58 51.4303 L2714.58 49.7694 L2707.17 49.7694 M2722.04 46.6907 L2722.04 72.576 L2714.58 72.576 L2714.58 65.6895 Q2712.03 69.8214 2708.22 71.8063 Q2704.41 73.7508 2698.91 73.7508 Q2691.94 73.7508 2687.81 69.8619 Q2683.71 65.9325 2683.71 59.3701 Q2683.71 51.7138 2688.82 47.825 Q2693.96 43.9361 2704.13 43.9361 L2714.58 43.9361 L2714.58 43.2069 Q2714.58 38.0623 2711.18 35.2672 Q2707.82 32.4315 2701.7 32.4315 Q2697.81 32.4315 2694.13 33.3632 Q2690.44 34.295 2687.04 36.1584 L2687.04 29.2718 Q2691.13 27.692 2694.98 26.9223 Q2698.82 26.1121 2702.47 26.1121 Q2712.31 26.1121 2717.17 31.2163 Q2722.04 36.3204 2722.04 46.6907 Z" fill="#000000" fill-rule="nonzero" fill-opacity="1" /><path clip-path="url(#clip500)" d="M2737.39 27.2059 L2744.84 27.2059 L2744.84 73.3862 Q2744.84 82.0551 2741.52 85.944 Q2738.24 89.8329 2730.91 89.8329 L2728.07 89.8329 L2728.07 83.5134 L2730.06 83.5134 Q2734.31 83.5134 2735.85 81.5285 Q2737.39 79.5841 2737.39 73.3862 L2737.39 27.2059 M2737.39 9.54393 L2744.84 9.54393 L2744.84 18.9825 L2737.39 18.9825 L2737.39 9.54393 Z" fill="#000000" fill-rule="nonzero" fill-opacity="1" /><path clip-path="url(#clip500)" d="M2799.25 48.0275 L2799.25 51.6733 L2764.98 51.6733 Q2765.46 59.3701 2769.59 63.421 Q2773.77 67.4314 2781.18 67.4314 Q2785.47 67.4314 2789.48 66.3781 Q2793.53 65.3249 2797.5 63.2184 L2797.5 70.267 Q2793.49 71.9684 2789.28 72.8596 Q2785.07 73.7508 2780.73 73.7508 Q2769.88 73.7508 2763.52 67.4314 Q2757.2 61.1119 2757.2 50.3365 Q2757.2 39.1965 2763.19 32.6746 Q2769.23 26.1121 2779.44 26.1121 Q2788.59 26.1121 2793.9 32.0264 Q2799.25 37.9003 2799.25 48.0275 M2791.79 45.84 Q2791.71 39.7232 2788.35 36.0774 Q2785.03 32.4315 2779.52 32.4315 Q2773.28 32.4315 2769.51 35.9558 Q2765.79 39.4801 2765.22 45.8805 L2791.79 45.84 Z" fill="#000000" fill-rule="nonzero" fill-opacity="1" /><path clip-path="url(#clip500)" d="M2844.13 28.9478 L2844.13 35.9153 Q2840.97 34.1734 2837.77 33.3227 Q2834.61 32.4315 2831.37 32.4315 Q2824.12 32.4315 2820.11 37.0496 Q2816.1 41.6271 2816.1 49.9314 Q2816.1 58.2358 2820.11 62.8538 Q2824.12 67.4314 2831.37 67.4314 Q2834.61 67.4314 2837.77 66.5807 Q2840.97 65.6895 2844.13 63.9476 L2844.13 70.8341 Q2841.01 72.2924 2837.65 73.0216 Q2834.33 73.7508 2830.56 73.7508 Q2820.31 73.7508 2814.28 67.3098 Q2808.24 60.8689 2808.24 49.9314 Q2808.24 38.832 2814.32 32.472 Q2820.43 26.1121 2831.05 26.1121 Q2834.49 26.1121 2837.77 26.8413 Q2841.05 27.5299 2844.13 28.9478 Z" fill="#000000" fill-rule="nonzero" fill-opacity="1" /><path clip-path="url(#clip500)" d="M2864.47 14.324 L2864.47 27.2059 L2879.82 27.2059 L2879.82 32.9987 L2864.47 32.9987 L2864.47 57.6282 Q2864.47 63.1779 2865.96 64.7578 Q2867.5 66.3376 2872.16 66.3376 L2879.82 66.3376 L2879.82 72.576 L2872.16 72.576 Q2863.53 72.576 2860.25 69.3758 Q2856.97 66.1351 2856.97 57.6282 L2856.97 32.9987 L2851.5 32.9987 L2851.5 27.2059 L2856.97 27.2059 L2856.97 14.324 L2864.47 14.324 Z" fill="#000000" fill-rule="nonzero" fill-opacity="1" /><path clip-path="url(#clip500)" d="M2907.2 32.4315 Q2901.21 32.4315 2897.72 37.1306 Q2894.24 41.7891 2894.24 49.9314 Q2894.24 58.0738 2897.68 62.7728 Q2901.17 67.4314 2907.2 67.4314 Q2913.16 67.4314 2916.64 62.7323 Q2920.13 58.0333 2920.13 49.9314 Q2920.13 41.8701 2916.64 37.1711 Q2913.16 32.4315 2907.2 32.4315 M2907.2 26.1121 Q2916.92 26.1121 2922.47 32.4315 Q2928.02 38.7509 2928.02 49.9314 Q2928.02 61.0714 2922.47 67.4314 Q2916.92 73.7508 2907.2 73.7508 Q2897.44 73.7508 2891.89 67.4314 Q2886.38 61.0714 2886.38 49.9314 Q2886.38 38.7509 2891.89 32.4315 Q2897.44 26.1121 2907.2 26.1121 Z" fill="#000000" fill-rule="nonzero" fill-opacity="1" /><path clip-path="url(#clip500)" d="M2966.67 34.1734 Q2965.41 33.4443 2963.92 33.1202 Q2962.46 32.7556 2960.67 32.7556 Q2954.36 32.7556 2950.95 36.8875 Q2947.59 40.9789 2947.59 48.6757 L2947.59 72.576 L2940.1 72.576 L2940.1 27.2059 L2947.59 27.2059 L2947.59 34.2544 Q2949.94 30.1225 2953.71 28.1376 Q2957.47 26.1121 2962.86 26.1121 Q2963.63 26.1121 2964.56 26.2337 Q2965.5 26.3147 2966.63 26.5172 L2966.67 34.1734 Z" fill="#000000" fill-rule="nonzero" fill-opacity="1" /><path clip-path="url(#clip500)" d="M2974.49 27.2059 L2981.94 27.2059 L2981.94 72.576 L2974.49 72.576 L2974.49 27.2059 M2974.49 9.54393 L2981.94 9.54393 L2981.94 18.9825 L2974.49 18.9825 L2974.49 9.54393 Z" fill="#000000" fill-rule="nonzero" fill-opacity="1" /><path clip-path="url(#clip500)" d="M3036.35 48.0275 L3036.35 51.6733 L3002.07 51.6733 Q3002.56 59.3701 3006.69 63.421 Q3010.87 67.4314 3018.28 67.4314 Q3022.57 67.4314 3026.58 66.3781 Q3030.63 65.3249 3034.6 63.2184 L3034.6 70.267 Q3030.59 71.9684 3026.38 72.8596 Q3022.17 73.7508 3017.83 73.7508 Q3006.98 73.7508 3000.62 67.4314 Q2994.3 61.1119 2994.3 50.3365 Q2994.3 39.1965 3000.29 32.6746 Q3006.33 26.1121 3016.54 26.1121 Q3025.69 26.1121 3031 32.0264 Q3036.35 37.9003 3036.35 48.0275 M3028.89 45.84 Q3028.81 39.7232 3025.45 36.0774 Q3022.13 32.4315 3016.62 32.4315 Q3010.38 32.4315 3006.61 35.9558 Q3002.89 39.4801 3002.32 45.8805 L3028.89 45.84 Z" fill="#000000" fill-rule="nonzero" fill-opacity="1" /><path clip-path="url(#clip500)" d="M3077.5 28.5427 L3077.5 35.5912 Q3074.34 33.9709 3070.94 33.1607 Q3067.54 32.3505 3063.89 32.3505 Q3058.34 32.3505 3055.55 34.0519 Q3052.79 35.7533 3052.79 39.156 Q3052.79 41.7486 3054.78 43.2475 Q3056.76 44.7058 3062.76 46.0426 L3065.31 46.6097 Q3073.25 48.3111 3076.57 51.4303 Q3079.93 54.509 3079.93 60.0587 Q3079.93 66.3781 3074.91 70.0644 Q3069.93 73.7508 3061.18 73.7508 Q3057.53 73.7508 3053.56 73.0216 Q3049.63 72.3329 3045.26 70.9151 L3045.26 63.2184 Q3049.39 65.3654 3053.4 66.4591 Q3057.41 67.5124 3061.34 67.5124 Q3066.61 67.5124 3069.44 65.73 Q3072.28 63.9071 3072.28 60.6258 Q3072.28 57.5877 3070.21 55.9673 Q3068.19 54.3469 3061.26 52.8481 L3058.67 52.2405 Q3051.74 50.7821 3048.66 47.7845 Q3045.58 44.7463 3045.58 39.4801 Q3045.58 33.0797 3050.12 29.5959 Q3054.66 26.1121 3063 26.1121 Q3067.13 26.1121 3070.78 26.7198 Q3074.42 27.3274 3077.5 28.5427 Z" fill="#000000" fill-rule="nonzero" fill-opacity="1" /><path clip-path="url(#clip500)" d="M3135.75 32.4315 Q3129.76 32.4315 3126.28 37.1306 Q3122.79 41.7891 3122.79 49.9314 Q3122.79 58.0738 3126.24 62.7728 Q3129.72 67.4314 3135.75 67.4314 Q3141.71 67.4314 3145.19 62.7323 Q3148.68 58.0333 3148.68 49.9314 Q3148.68 41.8701 3145.19 37.1711 Q3141.71 32.4315 3135.75 32.4315 M3135.75 26.1121 Q3145.48 26.1121 3151.03 32.4315 Q3156.58 38.7509 3156.58 49.9314 Q3156.58 61.0714 3151.03 67.4314 Q3145.48 73.7508 3135.75 73.7508 Q3125.99 73.7508 3120.44 67.4314 Q3114.93 61.0714 3114.93 49.9314 Q3114.93 38.7509 3120.44 32.4315 Q3125.99 26.1121 3135.75 26.1121 Z" fill="#000000" fill-rule="nonzero" fill-opacity="1" /><path clip-path="url(#clip500)" d="M3191.9 9.54393 L3191.9 15.7418 L3184.77 15.7418 Q3180.76 15.7418 3179.18 17.3622 Q3177.64 18.9825 3177.64 23.1955 L3177.64 27.2059 L3189.92 27.2059 L3189.92 32.9987 L3177.64 32.9987 L3177.64 72.576 L3170.15 72.576 L3170.15 32.9987 L3163.02 32.9987 L3163.02 27.2059 L3170.15 27.2059 L3170.15 24.0462 Q3170.15 16.471 3173.67 13.0277 Q3177.2 9.54393 3184.85 9.54393 L3191.9 9.54393 Z" fill="#000000" fill-rule="nonzero" fill-opacity="1" /><path clip-path="url(#clip500)" d="M3270.12 16.7545 L3270.12 25.383 Q3265.99 21.5346 3261.29 19.6307 Q3256.63 17.7268 3251.37 17.7268 Q3241 17.7268 3235.49 24.0867 Q3229.98 30.4061 3229.98 42.3968 Q3229.98 54.3469 3235.49 60.7069 Q3241 67.0263 3251.37 67.0263 Q3256.63 67.0263 3261.29 65.1223 Q3265.99 63.2184 3270.12 59.3701 L3270.12 67.9175 Q3265.83 70.8341 3261.01 72.2924 Q3256.23 73.7508 3250.88 73.7508 Q3237.15 73.7508 3229.25 65.3654 Q3221.35 56.9395 3221.35 42.3968 Q3221.35 27.8135 3229.25 19.4281 Q3237.15 11.0023 3250.88 11.0023 Q3256.31 11.0023 3261.09 12.4606 Q3265.91 13.8784 3270.12 16.7545 Z" fill="#000000" fill-rule="nonzero" fill-opacity="1" /><path clip-path="url(#clip500)" d="M3321.25 48.0275 L3321.25 51.6733 L3286.98 51.6733 Q3287.46 59.3701 3291.59 63.421 Q3295.77 67.4314 3303.18 67.4314 Q3307.47 67.4314 3311.48 66.3781 Q3315.53 65.3249 3319.5 63.2184 L3319.5 70.267 Q3315.49 71.9684 3311.28 72.8596 Q3307.07 73.7508 3302.73 73.7508 Q3291.88 73.7508 3285.52 67.4314 Q3279.2 61.1119 3279.2 50.3365 Q3279.2 39.1965 3285.19 32.6746 Q3291.23 26.1121 3301.44 26.1121 Q3310.59 26.1121 3315.9 32.0264 Q3321.25 37.9003 3321.25 48.0275 M3313.79 45.84 Q3313.71 39.7232 3310.35 36.0774 Q3307.03 32.4315 3301.52 32.4315 Q3295.28 32.4315 3291.51 35.9558 Q3287.79 39.4801 3287.22 45.8805 L3313.79 45.84 Z" fill="#000000" fill-rule="nonzero" fill-opacity="1" /><path clip-path="url(#clip500)" d="M3333.48 9.54393 L3340.93 9.54393 L3340.93 72.576 L3333.48 72.576 L3333.48 9.54393 Z" fill="#000000" fill-rule="nonzero" fill-opacity="1" /><path clip-path="url(#clip500)" d="M3356.53 9.54393 L3363.98 9.54393 L3363.98 72.576 L3356.53 72.576 L3356.53 9.54393 Z" fill="#000000" fill-rule="nonzero" fill-opacity="1" /><path clip-path="url(#clip500)" d="M3408.5 28.5427 L3408.5 35.5912 Q3405.34 33.9709 3401.94 33.1607 Q3398.54 32.3505 3394.89 32.3505 Q3389.34 32.3505 3386.55 34.0519 Q3383.79 35.7533 3383.79 39.156 Q3383.79 41.7486 3385.78 43.2475 Q3387.76 44.7058 3393.76 46.0426 L3396.31 46.6097 Q3404.25 48.3111 3407.57 51.4303 Q3410.93 54.509 3410.93 60.0587 Q3410.93 66.3781 3405.91 70.0644 Q3400.93 73.7508 3392.18 73.7508 Q3388.53 73.7508 3384.56 73.0216 Q3380.63 72.3329 3376.26 70.9151 L3376.26 63.2184 Q3380.39 65.3654 3384.4 66.4591 Q3388.41 67.5124 3392.34 67.5124 Q3397.61 67.5124 3400.44 65.73 Q3403.28 63.9071 3403.28 60.6258 Q3403.28 57.5877 3401.21 55.9673 Q3399.19 54.3469 3392.26 52.8481 L3389.67 52.2405 Q3382.74 50.7821 3379.66 47.7845 Q3376.58 44.7463 3376.58 39.4801 Q3376.58 33.0797 3381.12 29.5959 Q3385.66 26.1121 3394 26.1121 Q3398.13 26.1121 3401.78 26.7198 Q3405.42 27.3274 3408.5 28.5427 Z" fill="#000000" fill-rule="nonzero" fill-opacity="1" /><path clip-path="url(#clip500)" d="M3469.79 49.7694 Q3460.76 49.7694 3457.28 51.8354 Q3453.79 53.9013 3453.79 58.8839 Q3453.79 62.8538 3456.38 65.2034 Q3459.02 67.5124 3463.51 67.5124 Q3469.71 67.5124 3473.44 63.1374 Q3477.21 58.7219 3477.21 51.4303 L3477.21 49.7694 L3469.79 49.7694 M3484.66 46.6907 L3484.66 72.576 L3477.21 72.576 L3477.21 65.6895 Q3474.65 69.8214 3470.85 71.8063 Q3467.04 73.7508 3461.53 73.7508 Q3454.56 73.7508 3450.43 69.8619 Q3446.34 65.9325 3446.34 59.3701 Q3446.34 51.7138 3451.44 47.825 Q3456.59 43.9361 3466.75 43.9361 L3477.21 43.9361 L3477.21 43.2069 Q3477.21 38.0623 3473.8 35.2672 Q3470.44 32.4315 3464.32 32.4315 Q3460.43 32.4315 3456.75 33.3632 Q3453.06 34.295 3449.66 36.1584 L3449.66 29.2718 Q3453.75 27.692 3457.6 26.9223 Q3461.45 26.1121 3465.09 26.1121 Q3474.94 26.1121 3479.8 31.2163 Q3484.66 36.3204 3484.66 46.6907 Z" fill="#000000" fill-rule="nonzero" fill-opacity="1" /><path clip-path="url(#clip500)" d="M3547 49.7694 Q3537.97 49.7694 3534.49 51.8354 Q3531 53.9013 3531 58.8839 Q3531 62.8538 3533.59 65.2034 Q3536.23 67.5124 3540.72 67.5124 Q3546.92 67.5124 3550.65 63.1374 Q3554.42 58.7219 3554.42 51.4303 L3554.42 49.7694 L3547 49.7694 M3561.87 46.6907 L3561.87 72.576 L3554.42 72.576 L3554.42 65.6895 Q3551.86 69.8214 3548.06 71.8063 Q3544.25 73.7508 3538.74 73.7508 Q3531.77 73.7508 3527.64 69.8619 Q3523.55 65.9325 3523.55 59.3701 Q3523.55 51.7138 3528.65 47.825 Q3533.8 43.9361 3543.96 43.9361 L3554.42 43.9361 L3554.42 43.2069 Q3554.42 38.0623 3551.01 35.2672 Q3547.65 32.4315 3541.53 32.4315 Q3537.64 32.4315 3533.96 33.3632 Q3530.27 34.295 3526.87 36.1584 L3526.87 29.2718 Q3530.96 27.692 3534.81 26.9223 Q3538.66 26.1121 3542.3 26.1121 Q3552.15 26.1121 3557.01 31.2163 Q3561.87 36.3204 3561.87 46.6907 Z" fill="#000000" fill-rule="nonzero" fill-opacity="1" /><path clip-path="url(#clip500)" d="M3614.94 45.1919 L3614.94 72.576 L3607.48 72.576 L3607.48 45.4349 Q3607.48 38.994 3604.97 35.7938 Q3602.46 32.5936 3597.44 32.5936 Q3591.4 32.5936 3587.92 36.4419 Q3584.43 40.2903 3584.43 46.9338 L3584.43 72.576 L3576.94 72.576 L3576.94 27.2059 L3584.43 27.2059 L3584.43 34.2544 Q3587.11 30.163 3590.71 28.1376 Q3594.36 26.1121 3599.1 26.1121 Q3606.92 26.1121 3610.93 30.9732 Q3614.94 35.7938 3614.94 45.1919 Z" fill="#000000" fill-rule="nonzero" fill-opacity="1" /><path clip-path="url(#clip500)" d="M3659.66 34.0924 L3659.66 9.54393 L3667.11 9.54393 L3667.11 72.576 L3659.66 72.576 L3659.66 65.7705 Q3657.31 69.8214 3653.7 71.8063 Q3650.14 73.7508 3645.12 73.7508 Q3636.89 73.7508 3631.71 67.1883 Q3626.56 60.6258 3626.56 49.9314 Q3626.56 39.2371 3631.71 32.6746 Q3636.89 26.1121 3645.12 26.1121 Q3650.14 26.1121 3653.7 28.0971 Q3657.31 30.0415 3659.66 34.0924 M3634.26 49.9314 Q3634.26 58.1548 3637.62 62.8538 Q3641.02 67.5124 3646.94 67.5124 Q3652.85 67.5124 3656.26 62.8538 Q3659.66 58.1548 3659.66 49.9314 Q3659.66 41.7081 3656.26 37.0496 Q3652.85 32.3505 3646.94 32.3505 Q3641.02 32.3505 3637.62 37.0496 Q3634.26 41.7081 3634.26 49.9314 Z" fill="#000000" fill-rule="nonzero" fill-opacity="1" /><path clip-path="url(#clip500)" d="M3741.41 49.9314 Q3741.41 41.7081 3738 37.0496 Q3734.64 32.3505 3728.73 32.3505 Q3722.81 32.3505 3719.41 37.0496 Q3716.05 41.7081 3716.05 49.9314 Q3716.05 58.1548 3719.41 62.8538 Q3722.81 67.5124 3728.73 67.5124 Q3734.64 67.5124 3738 62.8538 Q3741.41 58.1548 3741.41 49.9314 M3716.05 34.0924 Q3718.4 30.0415 3721.96 28.0971 Q3725.57 26.1121 3730.55 26.1121 Q3738.81 26.1121 3743.96 32.6746 Q3749.14 39.2371 3749.14 49.9314 Q3749.14 60.6258 3743.96 67.1883 Q3738.81 73.7508 3730.55 73.7508 Q3725.57 73.7508 3721.96 71.8063 Q3718.4 69.8214 3716.05 65.7705 L3716.05 72.576 L3708.55 72.576 L3708.55 9.54393 L3716.05 9.54393 L3716.05 34.0924 Z" fill="#000000" fill-rule="nonzero" fill-opacity="1" /><path clip-path="url(#clip500)" d="M3763.4 29.6769 L3771.95 29.6769 L3771.95 39.9662 L3763.4 39.9662 L3763.4 29.6769 M3763.4 62.2867 L3771.95 62.2867 L3771.95 69.2543 L3765.31 82.2172 L3760.08 82.2172 L3763.4 69.2543 L3763.4 62.2867 Z" fill="#000000" fill-rule="nonzero" fill-opacity="1" /><path clip-path="url(#clip500)" d="M3816.14 12.096 L3827.16 12.096 L3853.98 62.6918 L3853.98 12.096 L3861.92 12.096 L3861.92 72.576 L3850.9 72.576 L3824.08 21.9802 L3824.08 72.576 L3816.14 72.576 L3816.14 12.096 Z" fill="#000000" fill-rule="nonzero" fill-opacity="1" /><path clip-path="url(#clip500)" d="M3878.85 34.9026 L3930.79 34.9026 L3930.79 41.7081 L3878.85 41.7081 L3878.85 34.9026 M3878.85 51.4303 L3930.79 51.4303 L3930.79 58.3168 L3878.85 58.3168 L3878.85 51.4303 Z" fill="#000000" fill-rule="nonzero" fill-opacity="1" /><path clip-path="url(#clip500)" d="M3973.24 39.9662 Q3979.11 41.222 3982.39 45.1919 Q3985.72 49.1618 3985.72 54.9951 Q3985.72 63.9476 3979.56 68.8492 Q3973.4 73.7508 3962.06 73.7508 Q3958.25 73.7508 3954.2 72.9811 Q3950.19 72.2519 3945.9 70.7531 L3945.9 62.8538 Q3949.3 64.8388 3953.35 65.8515 Q3957.4 66.8642 3961.82 66.8642 Q3969.51 66.8642 3973.52 63.826 Q3977.57 60.7879 3977.57 54.9951 Q3977.57 49.6479 3973.81 46.6502 Q3970.08 43.612 3963.4 43.612 L3956.35 43.612 L3956.35 36.8875 L3963.72 36.8875 Q3969.75 36.8875 3972.96 34.4975 Q3976.16 32.067 3976.16 27.5299 Q3976.16 22.8714 3972.83 20.4004 Q3969.55 17.8888 3963.4 17.8888 Q3960.03 17.8888 3956.18 18.618 Q3952.34 19.3471 3947.72 20.8865 L3947.72 13.5948 Q3952.38 12.2985 3956.43 11.6504 Q3960.52 11.0023 3964.12 11.0023 Q3973.44 11.0023 3978.87 15.2557 Q3984.3 19.4686 3984.3 26.6793 Q3984.3 31.7024 3981.42 35.1862 Q3978.55 38.6294 3973.24 39.9662 Z" fill="#000000" fill-rule="nonzero" fill-opacity="1" /><path clip-path="url(#clip500)" d="M4002.08 62.2867 L4010.63 62.2867 L4010.63 69.2543 L4003.99 82.2172 L3998.76 82.2172 L4002.08 69.2543 L4002.08 62.2867 Z" fill="#000000" fill-rule="nonzero" fill-opacity="1" /><path clip-path="url(#clip500)" d="M4070.78 16.633 L4091.73 72.576 L4083.83 72.576 L4071.11 39.0345 L4055.47 72.576 L4047.57 72.576 L4067.46 29.0693 L4064.47 21.0485 Q4062.56 15.9444 4058.23 15.9444 L4054.34 15.9444 L4054.34 9.54393 L4059.08 9.62495 Q4068.23 9.74648 4070.78 16.633 Z" fill="#000000" fill-rule="nonzero" fill-opacity="1" /><path clip-path="url(#clip500)" d="M4102.99 34.9026 L4154.92 34.9026 L4154.92 41.7081 L4102.99 41.7081 L4102.99 34.9026 M4102.99 51.4303 L4154.92 51.4303 L4154.92 58.3168 L4102.99 58.3168 L4102.99 51.4303 Z" fill="#000000" fill-rule="nonzero" fill-opacity="1" /><path clip-path="url(#clip500)" d="M4179.63 65.6895 L4208.19 65.6895 L4208.19 72.576 L4169.79 72.576 L4169.79 65.6895 Q4174.45 60.8689 4182.47 52.7671 Q4190.53 44.6248 4192.6 42.2752 Q4196.52 37.8598 4198.06 34.8216 Q4199.64 31.7429 4199.64 28.7857 Q4199.64 23.9651 4196.24 20.927 Q4192.88 17.8888 4187.45 17.8888 Q4183.6 17.8888 4179.31 19.2256 Q4175.05 20.5624 4170.19 23.2765 L4170.19 15.0127 Q4175.14 13.0277 4179.43 12.015 Q4183.72 11.0023 4187.29 11.0023 Q4196.69 11.0023 4202.28 15.7013 Q4207.87 20.4004 4207.87 28.2591 Q4207.87 31.9859 4206.45 35.3482 Q4205.07 38.6699 4201.39 43.2069 Q4200.37 44.3817 4194.94 50.0125 Q4189.52 55.6027 4179.63 65.6895 Z" fill="#000000" fill-rule="nonzero" fill-opacity="1" /><path clip-path="url(#clip500)" d="M4225.45 12.096 L4257.57 12.096 L4257.57 18.9825 L4232.94 18.9825 L4232.94 33.8088 Q4234.72 33.2012 4236.51 32.9176 Q4238.29 32.5936 4240.07 32.5936 Q4250.2 32.5936 4256.11 38.1433 Q4262.03 43.6931 4262.03 53.1722 Q4262.03 62.9348 4255.95 68.3631 Q4249.87 73.7508 4238.82 73.7508 Q4235.01 73.7508 4231.04 73.1026 Q4227.11 72.4545 4222.9 71.1582 L4222.9 62.9348 Q4226.54 64.9198 4230.43 65.892 Q4234.32 66.8642 4238.65 66.8642 Q4245.66 66.8642 4249.75 63.1779 Q4253.84 59.4916 4253.84 53.1722 Q4253.84 46.8528 4249.75 43.1664 Q4245.66 39.4801 4238.65 39.4801 Q4235.37 39.4801 4232.09 40.2093 Q4228.85 40.9384 4225.45 42.4778 L4225.45 12.096 Z" fill="#000000" fill-rule="nonzero" fill-opacity="1" /><path clip-path="url(#clip500)" d="M4278.15 62.2867 L4286.7 62.2867 L4286.7 72.576 L4278.15 72.576 L4278.15 62.2867 Z" fill="#000000" fill-rule="nonzero" fill-opacity="1" /><path clip-path="url(#clip500)" d="M4304.6 12.096 L4336.73 12.096 L4336.73 18.9825 L4312.1 18.9825 L4312.1 33.8088 Q4313.88 33.2012 4315.66 32.9176 Q4317.44 32.5936 4319.23 32.5936 Q4329.35 32.5936 4335.27 38.1433 Q4341.18 43.6931 4341.18 53.1722 Q4341.18 62.9348 4335.11 68.3631 Q4329.03 73.7508 4317.97 73.7508 Q4314.16 73.7508 4310.19 73.1026 Q4306.26 72.4545 4302.05 71.1582 L4302.05 62.9348 Q4305.7 64.9198 4309.59 65.892 Q4313.47 66.8642 4317.81 66.8642 Q4324.82 66.8642 4328.91 63.1779 Q4333 59.4916 4333 53.1722 Q4333 46.8528 4328.91 43.1664 Q4324.82 39.4801 4317.81 39.4801 Q4314.53 39.4801 4311.25 40.2093 Q4308.01 40.9384 4304.6 42.4778 L4304.6 12.096 Z" fill="#000000" fill-rule="nonzero" fill-opacity="1" /><polyline clip-path="url(#clip502)" style="stroke:#0000ff; stroke-linecap:round; stroke-linejoin:round; stroke-width:8; stroke-opacity:1; fill:none" points="351.881,3657.45 527.265,3657.45 "/>
<polyline clip-path="url(#clip502)" style="stroke:#0000ff; stroke-linecap:round; stroke-linejoin:round; stroke-width:4; stroke-opacity:1; fill:none" stroke-dasharray="16, 10" points="527.265,3657.45 527.265,2479.46 "/>
<polyline clip-path="url(#clip502)" style="stroke:#0000ff; stroke-linecap:round; stroke-linejoin:round; stroke-width:8; stroke-opacity:1; fill:none" points="527.265,2479.46 535.448,2479.46 "/>
<polyline clip-path="url(#clip502)" style="stroke:#0000ff; stroke-linecap:round; stroke-linejoin:round; stroke-width:4; stroke-opacity:1; fill:none" stroke-dasharray="16, 10" points="535.448,2479.46 535.448,2479.46 "/>
<polyline clip-path="url(#clip502)" style="stroke:#0000ff; stroke-linecap:round; stroke-linejoin:round; stroke-width:8; stroke-opacity:1; fill:none" points="535.448,2479.46 659.132,2479.46 "/>
<polyline clip-path="url(#clip502)" style="stroke:#0000ff; stroke-linecap:round; stroke-linejoin:round; stroke-width:4; stroke-opacity:1; fill:none" stroke-dasharray="16, 10" points="659.132,2479.46 659.132,1301.46 "/>
<polyline clip-path="url(#clip502)" style="stroke:#0000ff; stroke-linecap:round; stroke-linejoin:round; stroke-width:8; stroke-opacity:1; fill:none" points="659.132,1301.46 671.964,1301.46 "/>
<polyline clip-path="url(#clip502)" style="stroke:#0000ff; stroke-linecap:round; stroke-linejoin:round; stroke-width:4; stroke-opacity:1; fill:none" stroke-dasharray="16, 10" points="671.964,1301.46 671.964,123.472 "/>
<polyline clip-path="url(#clip502)" style="stroke:#0000ff; stroke-linecap:round; stroke-linejoin:round; stroke-width:8; stroke-opacity:1; fill:none" points="671.964,123.472 1039.5,123.472 "/>
<polyline clip-path="url(#clip502)" style="stroke:#0000ff; stroke-linecap:round; stroke-linejoin:round; stroke-width:4; stroke-opacity:1; fill:none" stroke-dasharray="16, 10" points="1039.5,123.472 1039.5,1301.46 "/>
<polyline clip-path="url(#clip502)" style="stroke:#0000ff; stroke-linecap:round; stroke-linejoin:round; stroke-width:8; stroke-opacity:1; fill:none" points="1039.5,1301.46 1163.4,1301.46 "/>
<polyline clip-path="url(#clip502)" style="stroke:#0000ff; stroke-linecap:round; stroke-linejoin:round; stroke-width:4; stroke-opacity:1; fill:none" stroke-dasharray="16, 10" points="1163.4,1301.46 1163.4,123.472 "/>
<polyline clip-path="url(#clip502)" style="stroke:#0000ff; stroke-linecap:round; stroke-linejoin:round; stroke-width:8; stroke-opacity:1; fill:none" points="1163.4,123.472 1324.26,123.472 "/>
<polyline clip-path="url(#clip502)" style="stroke:#0000ff; stroke-linecap:round; stroke-linejoin:round; stroke-width:4; stroke-opacity:1; fill:none" stroke-dasharray="16, 10" points="1324.26,123.472 1324.26,1301.46 "/>
<polyline clip-path="url(#clip502)" style="stroke:#0000ff; stroke-linecap:round; stroke-linejoin:round; stroke-width:8; stroke-opacity:1; fill:none" points="1324.26,1301.46 1535.34,1301.46 "/>
<polyline clip-path="url(#clip502)" style="stroke:#0000ff; stroke-linecap:round; stroke-linejoin:round; stroke-width:4; stroke-opacity:1; fill:none" stroke-dasharray="16, 10" points="1535.34,1301.46 1535.34,123.472 "/>
<polyline clip-path="url(#clip502)" style="stroke:#0000ff; stroke-linecap:round; stroke-linejoin:round; stroke-width:8; stroke-opacity:1; fill:none" points="1535.34,123.472 1539.42,123.472 "/>
<polyline clip-path="url(#clip502)" style="stroke:#0000ff; stroke-linecap:round; stroke-linejoin:round; stroke-width:4; stroke-opacity:1; fill:none" stroke-dasharray="16, 10" points="1539.42,123.472 1539.42,123.472 "/>
<polyline clip-path="url(#clip502)" style="stroke:#0000ff; stroke-linecap:round; stroke-linejoin:round; stroke-width:8; stroke-opacity:1; fill:none" points="1539.42,123.472 2019.01,123.472 "/>
<polyline clip-path="url(#clip502)" style="stroke:#0000ff; stroke-linecap:round; stroke-linejoin:round; stroke-width:4; stroke-opacity:1; fill:none" stroke-dasharray="16, 10" points="2019.01,123.472 2019.01,123.472 "/>
<polyline clip-path="url(#clip502)" style="stroke:#0000ff; stroke-linecap:round; stroke-linejoin:round; stroke-width:8; stroke-opacity:1; fill:none" points="2019.01,123.472 2507.11,123.472 "/>
<polyline clip-path="url(#clip502)" style="stroke:#0000ff; stroke-linecap:round; stroke-linejoin:round; stroke-width:4; stroke-opacity:1; fill:none" stroke-dasharray="16, 10" points="2507.11,123.472 2507.11,123.472 "/>
<polyline clip-path="url(#clip502)" style="stroke:#0000ff; stroke-linecap:round; stroke-linejoin:round; stroke-width:8; stroke-opacity:1; fill:none" points="2507.11,123.472 2835.37,123.472 "/>
<polyline clip-path="url(#clip502)" style="stroke:#0000ff; stroke-linecap:round; stroke-linejoin:round; stroke-width:4; stroke-opacity:1; fill:none" stroke-dasharray="16, 10" points="2835.37,123.472 2835.37,123.472 "/>
<polyline clip-path="url(#clip502)" style="stroke:#0000ff; stroke-linecap:round; stroke-linejoin:round; stroke-width:8; stroke-opacity:1; fill:none" points="2835.37,123.472 2942.49,123.472 "/>
<polyline clip-path="url(#clip502)" style="stroke:#0000ff; stroke-linecap:round; stroke-linejoin:round; stroke-width:4; stroke-opacity:1; fill:none" stroke-dasharray="16, 10" points="2942.49,123.472 2942.49,123.472 "/>
<polyline clip-path="url(#clip502)" style="stroke:#0000ff; stroke-linecap:round; stroke-linejoin:round; stroke-width:8; stroke-opacity:1; fill:none" points="2942.49,123.472 3225.3,123.472 "/>
<polyline clip-path="url(#clip502)" style="stroke:#0000ff; stroke-linecap:round; stroke-linejoin:round; stroke-width:4; stroke-opacity:1; fill:none" stroke-dasharray="16, 10" points="3225.3,123.472 3225.3,123.472 "/>
<polyline clip-path="url(#clip502)" style="stroke:#0000ff; stroke-linecap:round; stroke-linejoin:round; stroke-width:8; stroke-opacity:1; fill:none" points="3225.3,123.472 3263.83,123.472 "/>
<polyline clip-path="url(#clip502)" style="stroke:#0000ff; stroke-linecap:round; stroke-linejoin:round; stroke-width:4; stroke-opacity:1; fill:none" stroke-dasharray="16, 10" points="3263.83,123.472 3263.83,123.472 "/>
<polyline clip-path="url(#clip502)" style="stroke:#0000ff; stroke-linecap:round; stroke-linejoin:round; stroke-width:8; stroke-opacity:1; fill:none" points="3263.83,123.472 3872.02,123.472 "/>
<polyline clip-path="url(#clip502)" style="stroke:#0000ff; stroke-linecap:round; stroke-linejoin:round; stroke-width:4; stroke-opacity:1; fill:none" stroke-dasharray="16, 10" points="3872.02,123.472 3872.02,123.472 "/>
<polyline clip-path="url(#clip502)" style="stroke:#0000ff; stroke-linecap:round; stroke-linejoin:round; stroke-width:8; stroke-opacity:1; fill:none" points="3872.02,123.472 4082.04,123.472 "/>
<polyline clip-path="url(#clip502)" style="stroke:#0000ff; stroke-linecap:round; stroke-linejoin:round; stroke-width:4; stroke-opacity:1; fill:none" stroke-dasharray="16, 10" points="4082.04,123.472 4082.04,123.472 "/>
<polyline clip-path="url(#clip502)" style="stroke:#0000ff; stroke-linecap:round; stroke-linejoin:round; stroke-width:8; stroke-opacity:1; fill:none" points="4082.04,123.472 4083.55,123.472 "/>
<polyline clip-path="url(#clip502)" style="stroke:#0000ff; stroke-linecap:round; stroke-linejoin:round; stroke-width:4; stroke-opacity:1; fill:none" stroke-dasharray="16, 10" points="4083.55,123.472 4083.55,1301.46 "/>
<polyline clip-path="url(#clip502)" style="stroke:#0000ff; stroke-linecap:round; stroke-linejoin:round; stroke-width:8; stroke-opacity:1; fill:none" points="4083.55,1301.46 4251.93,1301.46 "/>
<polyline clip-path="url(#clip502)" style="stroke:#0000ff; stroke-linecap:round; stroke-linejoin:round; stroke-width:4; stroke-opacity:1; fill:none" stroke-dasharray="16, 10" points="4251.93,1301.46 4251.93,2479.46 "/>
<polyline clip-path="url(#clip502)" style="stroke:#0000ff; stroke-linecap:round; stroke-linejoin:round; stroke-width:8; stroke-opacity:1; fill:none" points="4251.93,2479.46 4513.95,2479.46 "/>
<polyline clip-path="url(#clip502)" style="stroke:#0000ff; stroke-linecap:round; stroke-linejoin:round; stroke-width:4; stroke-opacity:1; fill:none" stroke-dasharray="16, 10" points="4513.95,2479.46 4513.95,2479.46 "/>
<polyline clip-path="url(#clip502)" style="stroke:#0000ff; stroke-linecap:round; stroke-linejoin:round; stroke-width:8; stroke-opacity:1; fill:none" points="4513.95,2479.46 4549.69,2479.46 "/>
<polyline clip-path="url(#clip502)" style="stroke:#0000ff; stroke-linecap:round; stroke-linejoin:round; stroke-width:4; stroke-opacity:1; fill:none" stroke-dasharray="16, 10" points="4549.69,2479.46 4549.69,2479.46 "/>
<polyline clip-path="url(#clip502)" style="stroke:#0000ff; stroke-linecap:round; stroke-linejoin:round; stroke-width:8; stroke-opacity:1; fill:none" points="4549.69,2479.46 4661.19,2479.46 "/>
<polyline clip-path="url(#clip502)" style="stroke:#0000ff; stroke-linecap:round; stroke-linejoin:round; stroke-width:4; stroke-opacity:1; fill:none" stroke-dasharray="16, 10" points="4661.19,2479.46 4661.19,2479.46 "/>
<polyline clip-path="url(#clip502)" style="stroke:#0000ff; stroke-linecap:round; stroke-linejoin:round; stroke-width:8; stroke-opacity:1; fill:none" points="4661.19,2479.46 4683.6,2479.46 "/>
<polyline clip-path="url(#clip502)" style="stroke:#0000ff; stroke-linecap:round; stroke-linejoin:round; stroke-width:4; stroke-opacity:1; fill:none" stroke-dasharray="16, 10" points="4683.6,2479.46 4683.6,2479.46 "/>
<polyline clip-path="url(#clip502)" style="stroke:#0000ff; stroke-linecap:round; stroke-linejoin:round; stroke-width:8; stroke-opacity:1; fill:none" points="4683.6,2479.46 5614.04,2479.46 "/>
<polyline clip-path="url(#clip502)" style="stroke:#0000ff; stroke-linecap:round; stroke-linejoin:round; stroke-width:4; stroke-opacity:1; fill:none" stroke-dasharray="16, 10" points="5614.04,2479.46 5614.04,2479.46 "/>
<polyline clip-path="url(#clip502)" style="stroke:#0000ff; stroke-linecap:round; stroke-linejoin:round; stroke-width:8; stroke-opacity:1; fill:none" points="5614.04,2479.46 5623.98,2479.46 "/>
<polyline clip-path="url(#clip502)" style="stroke:#0000ff; stroke-linecap:round; stroke-linejoin:round; stroke-width:4; stroke-opacity:1; fill:none" stroke-dasharray="16, 10" points="5623.98,2479.46 5623.98,2479.46 "/>
<polyline clip-path="url(#clip502)" style="stroke:#0000ff; stroke-linecap:round; stroke-linejoin:round; stroke-width:8; stroke-opacity:1; fill:none" points="5623.98,2479.46 5727.76,2479.46 "/>
<polyline clip-path="url(#clip502)" style="stroke:#0000ff; stroke-linecap:round; stroke-linejoin:round; stroke-width:4; stroke-opacity:1; fill:none" stroke-dasharray="16, 10" points="5727.76,2479.46 5727.76,3657.45 "/>
<polyline clip-path="url(#clip502)" style="stroke:#0000ff; stroke-linecap:round; stroke-linejoin:round; stroke-width:8; stroke-opacity:1; fill:none" points="5727.76,3657.45 5763.57,3657.45 "/>
<polyline clip-path="url(#clip502)" style="stroke:#0000ff; stroke-linecap:round; stroke-linejoin:round; stroke-width:4; stroke-opacity:1; fill:none" stroke-dasharray="16, 10" points="5763.57,3657.45 5763.57,3657.45 "/>
<polyline clip-path="url(#clip502)" style="stroke:#0000ff; stroke-linecap:round; stroke-linejoin:round; stroke-width:8; stroke-opacity:1; fill:none" points="5763.57,3657.45 5811.02,3657.45 "/>
<polyline clip-path="url(#clip502)" style="stroke:#ff0000; stroke-linecap:round; stroke-linejoin:round; stroke-width:8; stroke-opacity:1; fill:none" points="351.881,3657.45 527.265,3657.45 "/>
<polyline clip-path="url(#clip502)" style="stroke:#ff0000; stroke-linecap:round; stroke-linejoin:round; stroke-width:4; stroke-opacity:1; fill:none" stroke-dasharray="16, 10" points="527.265,3657.45 527.265,3657.45 "/>
<polyline clip-path="url(#clip502)" style="stroke:#ff0000; stroke-linecap:round; stroke-linejoin:round; stroke-width:8; stroke-opacity:1; fill:none" points="527.265,3657.45 535.448,3657.45 "/>
<polyline clip-path="url(#clip502)" style="stroke:#ff0000; stroke-linecap:round; stroke-linejoin:round; stroke-width:4; stroke-opacity:1; fill:none" stroke-dasharray="16, 10" points="535.448,3657.45 535.448,3657.45 "/>
<polyline clip-path="url(#clip502)" style="stroke:#ff0000; stroke-linecap:round; stroke-linejoin:round; stroke-width:8; stroke-opacity:1; fill:none" points="535.448,3657.45 659.132,3657.45 "/>
<polyline clip-path="url(#clip502)" style="stroke:#ff0000; stroke-linecap:round; stroke-linejoin:round; stroke-width:4; stroke-opacity:1; fill:none" stroke-dasharray="16, 10" points="659.132,3657.45 659.132,3657.45 "/>
<polyline clip-path="url(#clip502)" style="stroke:#ff0000; stroke-linecap:round; stroke-linejoin:round; stroke-width:8; stroke-opacity:1; fill:none" points="659.132,3657.45 671.964,3657.45 "/>
<polyline clip-path="url(#clip502)" style="stroke:#ff0000; stroke-linecap:round; stroke-linejoin:round; stroke-width:4; stroke-opacity:1; fill:none" stroke-dasharray="16, 10" points="671.964,3657.45 671.964,3657.45 "/>
<polyline clip-path="url(#clip502)" style="stroke:#ff0000; stroke-linecap:round; stroke-linejoin:round; stroke-width:8; stroke-opacity:1; fill:none" points="671.964,3657.45 1039.5,3657.45 "/>
<polyline clip-path="url(#clip502)" style="stroke:#ff0000; stroke-linecap:round; stroke-linejoin:round; stroke-width:4; stroke-opacity:1; fill:none" stroke-dasharray="16, 10" points="1039.5,3657.45 1039.5,3657.45 "/>
<polyline clip-path="url(#clip502)" style="stroke:#ff0000; stroke-linecap:round; stroke-linejoin:round; stroke-width:8; stroke-opacity:1; fill:none" points="1039.5,3657.45 1163.4,3657.45 "/>
<polyline clip-path="url(#clip502)" style="stroke:#ff0000; stroke-linecap:round; stroke-linejoin:round; stroke-width:4; stroke-opacity:1; fill:none" stroke-dasharray="16, 10" points="1163.4,3657.45 1163.4,3657.45 "/>
<polyline clip-path="url(#clip502)" style="stroke:#ff0000; stroke-linecap:round; stroke-linejoin:round; stroke-width:8; stroke-opacity:1; fill:none" points="1163.4,3657.45 1324.26,3657.45 "/>
<polyline clip-path="url(#clip502)" style="stroke:#ff0000; stroke-linecap:round; stroke-linejoin:round; stroke-width:4; stroke-opacity:1; fill:none" stroke-dasharray="16, 10" points="1324.26,3657.45 1324.26,3657.45 "/>
<polyline clip-path="url(#clip502)" style="stroke:#ff0000; stroke-linecap:round; stroke-linejoin:round; stroke-width:8; stroke-opacity:1; fill:none" points="1324.26,3657.45 1535.34,3657.45 "/>
<polyline clip-path="url(#clip502)" style="stroke:#ff0000; stroke-linecap:round; stroke-linejoin:round; stroke-width:4; stroke-opacity:1; fill:none" stroke-dasharray="16, 10" points="1535.34,3657.45 1535.34,3657.45 "/>
<polyline clip-path="url(#clip502)" style="stroke:#ff0000; stroke-linecap:round; stroke-linejoin:round; stroke-width:8; stroke-opacity:1; fill:none" points="1535.34,3657.45 1539.42,3657.45 "/>
<polyline clip-path="url(#clip502)" style="stroke:#ff0000; stroke-linecap:round; stroke-linejoin:round; stroke-width:4; stroke-opacity:1; fill:none" stroke-dasharray="16, 10" points="1539.42,3657.45 1539.42,3657.45 "/>
<polyline clip-path="url(#clip502)" style="stroke:#ff0000; stroke-linecap:round; stroke-linejoin:round; stroke-width:8; stroke-opacity:1; fill:none" points="1539.42,3657.45 2019.01,3657.45 "/>
<polyline clip-path="url(#clip502)" style="stroke:#ff0000; stroke-linecap:round; stroke-linejoin:round; stroke-width:4; stroke-opacity:1; fill:none" stroke-dasharray="16, 10" points="2019.01,3657.45 2019.01,2479.46 "/>
<polyline clip-path="url(#clip502)" style="stroke:#ff0000; stroke-linecap:round; stroke-linejoin:round; stroke-width:8; stroke-opacity:1; fill:none" points="2019.01,2479.46 2507.11,2479.46 "/>
<polyline clip-path="url(#clip502)" style="stroke:#ff0000; stroke-linecap:round; stroke-linejoin:round; stroke-width:4; stroke-opacity:1; fill:none" stroke-dasharray="16, 10" points="2507.11,2479.46 2507.11,2479.46 "/>
<polyline clip-path="url(#clip502)" style="stroke:#ff0000; stroke-linecap:round; stroke-linejoin:round; stroke-width:8; stroke-opacity:1; fill:none" points="2507.11,2479.46 2835.37,2479.46 "/>
<polyline clip-path="url(#clip502)" style="stroke:#ff0000; stroke-linecap:round; stroke-linejoin:round; stroke-width:4; stroke-opacity:1; fill:none" stroke-dasharray="16, 10" points="2835.37,2479.46 2835.37,2479.46 "/>
<polyline clip-path="url(#clip502)" style="stroke:#ff0000; stroke-linecap:round; stroke-linejoin:round; stroke-width:8; stroke-opacity:1; fill:none" points="2835.37,2479.46 2942.49,2479.46 "/>
<polyline clip-path="url(#clip502)" style="stroke:#ff0000; stroke-linecap:round; stroke-linejoin:round; stroke-width:4; stroke-opacity:1; fill:none" stroke-dasharray="16, 10" points="2942.49,2479.46 2942.49,2479.46 "/>
<polyline clip-path="url(#clip502)" style="stroke:#ff0000; stroke-linecap:round; stroke-linejoin:round; stroke-width:8; stroke-opacity:1; fill:none" points="2942.49,2479.46 3225.3,2479.46 "/>
<polyline clip-path="url(#clip502)" style="stroke:#ff0000; stroke-linecap:round; stroke-linejoin:round; stroke-width:4; stroke-opacity:1; fill:none" stroke-dasharray="16, 10" points="3225.3,2479.46 3225.3,1301.46 "/>
<polyline clip-path="url(#clip502)" style="stroke:#ff0000; stroke-linecap:round; stroke-linejoin:round; stroke-width:8; stroke-opacity:1; fill:none" points="3225.3,1301.46 3263.83,1301.46 "/>
<polyline clip-path="url(#clip502)" style="stroke:#ff0000; stroke-linecap:round; stroke-linejoin:round; stroke-width:4; stroke-opacity:1; fill:none" stroke-dasharray="16, 10" points="3263.83,1301.46 3263.83,123.472 "/>
<polyline clip-path="url(#clip502)" style="stroke:#ff0000; stroke-linecap:round; stroke-linejoin:round; stroke-width:8; stroke-opacity:1; fill:none" points="3263.83,123.472 3872.02,123.472 "/>
<polyline clip-path="url(#clip502)" style="stroke:#ff0000; stroke-linecap:round; stroke-linejoin:round; stroke-width:4; stroke-opacity:1; fill:none" stroke-dasharray="16, 10" points="3872.02,123.472 3872.02,123.472 "/>
<polyline clip-path="url(#clip502)" style="stroke:#ff0000; stroke-linecap:round; stroke-linejoin:round; stroke-width:8; stroke-opacity:1; fill:none" points="3872.02,123.472 4082.04,123.472 "/>
<polyline clip-path="url(#clip502)" style="stroke:#ff0000; stroke-linecap:round; stroke-linejoin:round; stroke-width:4; stroke-opacity:1; fill:none" stroke-dasharray="16, 10" points="4082.04,123.472 4082.04,1301.46 "/>
<polyline clip-path="url(#clip502)" style="stroke:#ff0000; stroke-linecap:round; stroke-linejoin:round; stroke-width:8; stroke-opacity:1; fill:none" points="4082.04,1301.46 4083.55,1301.46 "/>
<polyline clip-path="url(#clip502)" style="stroke:#ff0000; stroke-linecap:round; stroke-linejoin:round; stroke-width:4; stroke-opacity:1; fill:none" stroke-dasharray="16, 10" points="4083.55,1301.46 4083.55,1301.46 "/>
<polyline clip-path="url(#clip502)" style="stroke:#ff0000; stroke-linecap:round; stroke-linejoin:round; stroke-width:8; stroke-opacity:1; fill:none" points="4083.55,1301.46 4251.93,1301.46 "/>
<polyline clip-path="url(#clip502)" style="stroke:#ff0000; stroke-linecap:round; stroke-linejoin:round; stroke-width:4; stroke-opacity:1; fill:none" stroke-dasharray="16, 10" points="4251.93,1301.46 4251.93,1301.46 "/>
<polyline clip-path="url(#clip502)" style="stroke:#ff0000; stroke-linecap:round; stroke-linejoin:round; stroke-width:8; stroke-opacity:1; fill:none" points="4251.93,1301.46 4513.95,1301.46 "/>
<polyline clip-path="url(#clip502)" style="stroke:#ff0000; stroke-linecap:round; stroke-linejoin:round; stroke-width:4; stroke-opacity:1; fill:none" stroke-dasharray="16, 10" points="4513.95,1301.46 4513.95,1301.46 "/>
<polyline clip-path="url(#clip502)" style="stroke:#ff0000; stroke-linecap:round; stroke-linejoin:round; stroke-width:8; stroke-opacity:1; fill:none" points="4513.95,1301.46 4549.69,1301.46 "/>
<polyline clip-path="url(#clip502)" style="stroke:#ff0000; stroke-linecap:round; stroke-linejoin:round; stroke-width:4; stroke-opacity:1; fill:none" stroke-dasharray="16, 10" points="4549.69,1301.46 4549.69,2479.46 "/>
<polyline clip-path="url(#clip502)" style="stroke:#ff0000; stroke-linecap:round; stroke-linejoin:round; stroke-width:8; stroke-opacity:1; fill:none" points="4549.69,2479.46 4661.19,2479.46 "/>
<polyline clip-path="url(#clip502)" style="stroke:#ff0000; stroke-linecap:round; stroke-linejoin:round; stroke-width:4; stroke-opacity:1; fill:none" stroke-dasharray="16, 10" points="4661.19,2479.46 4661.19,2479.46 "/>
<polyline clip-path="url(#clip502)" style="stroke:#ff0000; stroke-linecap:round; stroke-linejoin:round; stroke-width:8; stroke-opacity:1; fill:none" points="4661.19,2479.46 4683.6,2479.46 "/>
<polyline clip-path="url(#clip502)" style="stroke:#ff0000; stroke-linecap:round; stroke-linejoin:round; stroke-width:4; stroke-opacity:1; fill:none" stroke-dasharray="16, 10" points="4683.6,2479.46 4683.6,2479.46 "/>
<polyline clip-path="url(#clip502)" style="stroke:#ff0000; stroke-linecap:round; stroke-linejoin:round; stroke-width:8; stroke-opacity:1; fill:none" points="4683.6,2479.46 5614.04,2479.46 "/>
<polyline clip-path="url(#clip502)" style="stroke:#ff0000; stroke-linecap:round; stroke-linejoin:round; stroke-width:4; stroke-opacity:1; fill:none" stroke-dasharray="16, 10" points="5614.04,2479.46 5614.04,1301.46 "/>
<polyline clip-path="url(#clip502)" style="stroke:#ff0000; stroke-linecap:round; stroke-linejoin:round; stroke-width:8; stroke-opacity:1; fill:none" points="5614.04,1301.46 5623.98,1301.46 "/>
<polyline clip-path="url(#clip502)" style="stroke:#ff0000; stroke-linecap:round; stroke-linejoin:round; stroke-width:4; stroke-opacity:1; fill:none" stroke-dasharray="16, 10" points="5623.98,1301.46 5623.98,1301.46 "/>
<polyline clip-path="url(#clip502)" style="stroke:#ff0000; stroke-linecap:round; stroke-linejoin:round; stroke-width:8; stroke-opacity:1; fill:none" points="5623.98,1301.46 5727.76,1301.46 "/>
<polyline clip-path="url(#clip502)" style="stroke:#ff0000; stroke-linecap:round; stroke-linejoin:round; stroke-width:4; stroke-opacity:1; fill:none" stroke-dasharray="16, 10" points="5727.76,1301.46 5727.76,1301.46 "/>
<polyline clip-path="url(#clip502)" style="stroke:#ff0000; stroke-linecap:round; stroke-linejoin:round; stroke-width:8; stroke-opacity:1; fill:none" points="5727.76,1301.46 5763.57,1301.46 "/>
<polyline clip-path="url(#clip502)" style="stroke:#ff0000; stroke-linecap:round; stroke-linejoin:round; stroke-width:4; stroke-opacity:1; fill:none" stroke-dasharray="16, 10" points="5763.57,1301.46 5763.57,2479.46 "/>
<polyline clip-path="url(#clip502)" style="stroke:#ff0000; stroke-linecap:round; stroke-linejoin:round; stroke-width:8; stroke-opacity:1; fill:none" points="5763.57,2479.46 5811.02,2479.46 "/>
<path clip-path="url(#clip500)" d="M4954.62 396.791 L5629.05 396.791 L5629.05 241.271 L4954.62 241.271  Z" fill="#ffffff" fill-rule="evenodd" fill-opacity="1"/>
<polyline clip-path="url(#clip500)" style="stroke:#000000; stroke-linecap:round; stroke-linejoin:round; stroke-width:4; stroke-opacity:1; fill:none" points="4954.62,396.791 5629.05,396.791 5629.05,241.271 4954.62,241.271 4954.62,396.791 "/>
<polyline clip-path="url(#clip500)" style="stroke:#0000ff; stroke-linecap:round; stroke-linejoin:round; stroke-width:8; stroke-opacity:1; fill:none" points="5015.28,293.111 5379.22,293.111 "/>
<path clip-path="url(#clip500)" d="M5467.75 278.493 L5467.75 283.424 Q5465.39 281.225 5462.7 280.137 Q5460.04 279.049 5457.03 279.049 Q5451.1 279.049 5447.96 282.683 Q5444.81 286.294 5444.81 293.146 Q5444.81 299.975 5447.96 303.609 Q5451.1 307.22 5457.03 307.22 Q5460.04 307.22 5462.7 306.132 Q5465.39 305.044 5467.75 302.845 L5467.75 307.729 Q5465.29 309.396 5462.54 310.229 Q5459.81 311.063 5456.75 311.063 Q5448.9 311.063 5444.39 306.271 Q5439.88 301.456 5439.88 293.146 Q5439.88 284.813 5444.39 280.021 Q5448.9 275.206 5456.75 275.206 Q5459.85 275.206 5462.59 276.04 Q5465.34 276.85 5467.75 278.493 Z" fill="#000000" fill-rule="nonzero" fill-opacity="1" /><path clip-path="url(#clip500)" d="M5496.96 296.364 L5496.96 298.447 L5477.38 298.447 Q5477.65 302.845 5480.02 305.16 Q5482.4 307.452 5486.64 307.452 Q5489.09 307.452 5491.38 306.85 Q5493.7 306.248 5495.96 305.044 L5495.96 309.072 Q5493.67 310.044 5491.27 310.553 Q5488.86 311.063 5486.38 311.063 Q5480.18 311.063 5476.54 307.452 Q5472.93 303.84 5472.93 297.683 Q5472.93 291.317 5476.36 287.591 Q5479.81 283.841 5485.64 283.841 Q5490.87 283.841 5493.9 287.22 Q5496.96 290.577 5496.96 296.364 M5492.7 295.114 Q5492.65 291.618 5490.73 289.535 Q5488.84 287.452 5485.69 287.452 Q5482.12 287.452 5479.97 289.465 Q5477.84 291.479 5477.52 295.137 L5492.7 295.114 Z" fill="#000000" fill-rule="nonzero" fill-opacity="1" /><path clip-path="url(#clip500)" d="M5503.95 274.373 L5508.21 274.373 L5508.21 310.391 L5503.95 310.391 L5503.95 274.373 Z" fill="#000000" fill-rule="nonzero" fill-opacity="1" /><path clip-path="url(#clip500)" d="M5517.12 274.373 L5521.38 274.373 L5521.38 310.391 L5517.12 310.391 L5517.12 274.373 Z" fill="#000000" fill-rule="nonzero" fill-opacity="1" /><path clip-path="url(#clip500)" d="M5557.15 297.359 Q5551.98 297.359 5549.99 298.54 Q5548 299.72 5548 302.567 Q5548 304.836 5549.48 306.178 Q5550.99 307.498 5553.56 307.498 Q5557.1 307.498 5559.23 304.998 Q5561.38 302.475 5561.38 298.308 L5561.38 297.359 L5557.15 297.359 M5565.64 295.6 L5565.64 310.391 L5561.38 310.391 L5561.38 306.456 Q5559.92 308.817 5557.75 309.951 Q5555.57 311.063 5552.42 311.063 Q5548.44 311.063 5546.08 308.84 Q5543.74 306.595 5543.74 302.845 Q5543.74 298.47 5546.66 296.248 Q5549.6 294.026 5555.41 294.026 L5561.38 294.026 L5561.38 293.609 Q5561.38 290.669 5559.44 289.072 Q5557.52 287.452 5554.02 287.452 Q5551.8 287.452 5549.69 287.984 Q5547.58 288.516 5545.64 289.581 L5545.64 285.646 Q5547.98 284.743 5550.18 284.303 Q5552.38 283.841 5554.46 283.841 Q5560.08 283.841 5562.86 286.757 Q5565.64 289.674 5565.64 295.6 Z" fill="#000000" fill-rule="nonzero" fill-opacity="1" /><polyline clip-path="url(#clip500)" style="stroke:#ff0000; stroke-linecap:round; stroke-linejoin:round; stroke-width:8; stroke-opacity:1; fill:none" points="5015.28,344.951 5379.22,344.951 "/>
<path clip-path="url(#clip500)" d="M5467.75 330.333 L5467.75 335.264 Q5465.39 333.065 5462.7 331.977 Q5460.04 330.889 5457.03 330.889 Q5451.1 330.889 5447.96 334.523 Q5444.81 338.134 5444.81 344.986 Q5444.81 351.815 5447.96 355.449 Q5451.1 359.06 5457.03 359.06 Q5460.04 359.06 5462.7 357.972 Q5465.39 356.884 5467.75 354.685 L5467.75 359.569 Q5465.29 361.236 5462.54 362.069 Q5459.81 362.903 5456.75 362.903 Q5448.9 362.903 5444.39 358.111 Q5439.88 353.296 5439.88 344.986 Q5439.88 336.653 5444.39 331.861 Q5448.9 327.046 5456.75 327.046 Q5459.85 327.046 5462.59 327.88 Q5465.34 328.69 5467.75 330.333 Z" fill="#000000" fill-rule="nonzero" fill-opacity="1" /><path clip-path="url(#clip500)" d="M5496.96 348.204 L5496.96 350.287 L5477.38 350.287 Q5477.65 354.685 5480.02 357 Q5482.4 359.292 5486.64 359.292 Q5489.09 359.292 5491.38 358.69 Q5493.7 358.088 5495.96 356.884 L5495.96 360.912 Q5493.67 361.884 5491.27 362.393 Q5488.86 362.903 5486.38 362.903 Q5480.18 362.903 5476.54 359.292 Q5472.93 355.68 5472.93 349.523 Q5472.93 343.157 5476.36 339.431 Q5479.81 335.681 5485.64 335.681 Q5490.87 335.681 5493.9 339.06 Q5496.96 342.417 5496.96 348.204 M5492.7 346.954 Q5492.65 343.458 5490.73 341.375 Q5488.84 339.292 5485.69 339.292 Q5482.12 339.292 5479.97 341.305 Q5477.84 343.319 5477.52 346.977 L5492.7 346.954 Z" fill="#000000" fill-rule="nonzero" fill-opacity="1" /><path clip-path="url(#clip500)" d="M5503.95 326.213 L5508.21 326.213 L5508.21 362.231 L5503.95 362.231 L5503.95 326.213 Z" fill="#000000" fill-rule="nonzero" fill-opacity="1" /><path clip-path="url(#clip500)" d="M5517.12 326.213 L5521.38 326.213 L5521.38 362.231 L5517.12 362.231 L5517.12 326.213 Z" fill="#000000" fill-rule="nonzero" fill-opacity="1" /><path clip-path="url(#clip500)" d="M5563.97 349.292 Q5563.97 344.593 5562.03 341.93 Q5560.11 339.245 5556.73 339.245 Q5553.35 339.245 5551.4 341.93 Q5549.48 344.593 5549.48 349.292 Q5549.48 353.991 5551.4 356.676 Q5553.35 359.338 5556.73 359.338 Q5560.11 359.338 5562.03 356.676 Q5563.97 353.991 5563.97 349.292 M5549.48 340.241 Q5550.83 337.926 5552.86 336.815 Q5554.92 335.681 5557.77 335.681 Q5562.49 335.681 5565.43 339.431 Q5568.4 343.18 5568.4 349.292 Q5568.4 355.403 5565.43 359.153 Q5562.49 362.903 5557.77 362.903 Q5554.92 362.903 5552.86 361.791 Q5550.83 360.657 5549.48 358.342 L5549.48 362.231 L5545.2 362.231 L5545.2 326.213 L5549.48 326.213 L5549.48 340.241 Z" fill="#000000" fill-rule="nonzero" fill-opacity="1" /></svg>
