<?xml version="1.0" encoding="utf-8"?>
<svg xmlns="http://www.w3.org/2000/svg" xmlns:xlink="http://www.w3.org/1999/xlink" width="1500" height="1000" viewBox="0 0 6000 4000">
<defs>
  <clipPath id="clip170">
    <rect x="0" y="0" width="6000" height="4000"/>
  </clipPath>
</defs>
<path clip-path="url(#clip170)" d="M0 4000 L6000 4000 L6000 2.22045e-13 L0 2.22045e-13  Z" fill="#ffffff" fill-rule="evenodd" fill-opacity="1"/>
<defs>
  <clipPath id="clip171">
    <rect x="1200" y="0" width="4201" height="4000"/>
  </clipPath>
</defs>
<path clip-path="url(#clip170)" d="M351.881 3657.45 L5811.02 3657.45 L5811.02 123.472 L351.881 123.472  Z" fill="#ffffff" fill-rule="evenodd" fill-opacity="1"/>
<defs>
  <clipPath id="clip172">
    <rect x="351" y="123" width="5460" height="3535"/>
  </clipPath>
</defs>
<polyline clip-path="url(#clip172)" style="stroke:#000000; stroke-linecap:round; stroke-linejoin:round; stroke-width:2; stroke-opacity:0.1; fill:none" points="351.881,3657.45 351.881,123.472 "/>
<polyline clip-path="url(#clip172)" style="stroke:#000000; stroke-linecap:round; stroke-linejoin:round; stroke-width:2; stroke-opacity:0.1; fill:none" points="1443.71,3657.45 1443.71,123.472 "/>
<polyline clip-path="url(#clip172)" style="stroke:#000000; stroke-linecap:round; stroke-linejoin:round; stroke-width:2; stroke-opacity:0.1; fill:none" points="2535.54,3657.45 2535.54,123.472 "/>
<polyline clip-path="url(#clip172)" style="stroke:#000000; stroke-linecap:round; stroke-linejoin:round; stroke-width:2; stroke-opacity:0.1; fill:none" points="3627.37,3657.45 3627.37,123.472 "/>
<polyline clip-path="url(#clip172)" style="stroke:#000000; stroke-linecap:round; stroke-linejoin:round; stroke-width:2; stroke-opacity:0.1; fill:none" points="4719.2,3657.45 4719.2,123.472 "/>
<polyline clip-path="url(#clip172)" style="stroke:#000000; stroke-linecap:round; stroke-linejoin:round; stroke-width:2; stroke-opacity:0.1; fill:none" points="5811.02,3657.45 5811.02,123.472 "/>
<polyline clip-path="url(#clip172)" style="stroke:#000000; stroke-linecap:round; stroke-linejoin:round; stroke-width:2; stroke-opacity:0.1; fill:none" points="351.881,3657.45 5811.02,3657.45 "/>
<polyline clip-path="url(#clip172)" style="stroke:#000000; stroke-linecap:round; stroke-linejoin:round; stroke-width:2; stroke-opacity:0.1; fill:none" points="351.881,2479.46 5811.02,2479.46 "/>
<polyline clip-path="url(#clip172)" style="stroke:#000000; stroke-linecap:round; stroke-linejoin:round; stroke-width:2; stroke-opacity:0.1; fill:none" points="351.881,1301.46 5811.02,1301.46 "/>
<polyline clip-path="url(#clip172)" style="stroke:#000000; stroke-linecap:round; stroke-linejoin:round; stroke-width:2; stroke-opacity:0.1; fill:none" points="351.881,123.472 5811.02,123.472 "/>
<polyline clip-path="url(#clip170)" style="stroke:#000000; stroke-linecap:round; stroke-linejoin:round; stroke-width:4; stroke-opacity:1; fill:none" points="351.881,3657.45 5811.02,3657.45 "/>
<polyline clip-path="url(#clip170)" style="stroke:#000000; stroke-linecap:round; stroke-linejoin:round; stroke-width:4; stroke-opacity:1; fill:none" points="351.881,3657.45 351.881,3638.55 "/>
<polyline clip-path="url(#clip170)" style="stroke:#000000; stroke-linecap:round; stroke-linejoin:round; stroke-width:4; stroke-opacity:1; fill:none" points="1443.71,3657.45 1443.71,3638.55 "/>
<polyline clip-path="url(#clip170)" style="stroke:#000000; stroke-linecap:round; stroke-linejoin:round; stroke-width:4; stroke-opacity:1; fill:none" points="2535.54,3657.45 2535.54,3638.55 "/>
<polyline clip-path="url(#clip170)" style="stroke:#000000; stroke-linecap:round; stroke-linejoin:round; stroke-width:4; stroke-opacity:1; fill:none" points="3627.37,3657.45 3627.37,3638.55 "/>
<polyline clip-path="url(#clip170)" style="stroke:#000000; stroke-linecap:round; stroke-linejoin:round; stroke-width:4; stroke-opacity:1; fill:none" points="4719.2,3657.45 4719.2,3638.55 "/>
<polyline clip-path="url(#clip170)" style="stroke:#000000; stroke-linecap:round; stroke-linejoin:round; stroke-width:4; stroke-opacity:1; fill:none" points="5811.02,3657.45 5811.02,3638.55 "/>
<path clip-path="url(#clip170)" d="M351.881 3717.17 Q348.27 3717.17 346.441 3720.73 Q344.636 3724.27 344.636 3731.4 Q344.636 3738.51 346.441 3742.07 Q348.27 3745.62 351.881 3745.62 Q355.515 3745.62 357.321 3742.07 Q359.15 3738.51 359.15 3731.4 Q359.15 3724.27 357.321 3720.73 Q355.515 3717.17 351.881 3717.17 M351.881 3713.46 Q357.691 3713.46 360.747 3718.07 Q363.826 3722.65 363.826 3731.4 Q363.826 3740.13 360.747 3744.74 Q357.691 3749.32 351.881 3749.32 Q346.071 3749.32 342.992 3744.74 Q339.937 3740.13 339.937 3731.4 Q339.937 3722.65 342.992 3718.07 Q346.071 3713.46 351.881 3713.46 Z" fill="#000000" fill-rule="nonzero" fill-opacity="1" /><path clip-path="url(#clip170)" d="M1422.48 3744.71 L1438.8 3744.71 L1438.8 3748.65 L1416.86 3748.65 L1416.86 3744.71 Q1419.52 3741.96 1424.1 3737.33 Q1428.71 3732.68 1429.89 3731.33 Q1432.14 3728.81 1433.02 3727.07 Q1433.92 3725.31 1433.92 3723.62 Q1433.92 3720.87 1431.97 3719.13 Q1430.05 3717.4 1426.95 3717.4 Q1424.75 3717.4 1422.3 3718.16 Q1419.87 3718.93 1417.09 3720.48 L1417.09 3715.75 Q1419.91 3714.62 1422.37 3714.04 Q1424.82 3713.46 1426.86 3713.46 Q1432.23 3713.46 1435.42 3716.15 Q1438.62 3718.83 1438.62 3723.32 Q1438.62 3725.45 1437.81 3727.37 Q1437.02 3729.27 1434.91 3731.87 Q1434.33 3732.54 1431.23 3735.75 Q1428.13 3738.95 1422.48 3744.71 Z" fill="#000000" fill-rule="nonzero" fill-opacity="1" /><path clip-path="url(#clip170)" d="M1458.62 3717.17 Q1455.01 3717.17 1453.18 3720.73 Q1451.37 3724.27 1451.37 3731.4 Q1451.37 3738.51 1453.18 3742.07 Q1455.01 3745.62 1458.62 3745.62 Q1462.25 3745.62 1464.06 3742.07 Q1465.89 3738.51 1465.89 3731.4 Q1465.89 3724.27 1464.06 3720.73 Q1462.25 3717.17 1458.62 3717.17 M1458.62 3713.46 Q1464.43 3713.46 1467.48 3718.07 Q1470.56 3722.65 1470.56 3731.4 Q1470.56 3740.13 1467.48 3744.74 Q1464.43 3749.32 1458.62 3749.32 Q1452.81 3749.32 1449.73 3744.74 Q1446.67 3740.13 1446.67 3731.4 Q1446.67 3722.65 1449.73 3718.07 Q1452.81 3713.46 1458.62 3713.46 Z" fill="#000000" fill-rule="nonzero" fill-opacity="1" /><path clip-path="url(#clip170)" d="M2523.71 3718.16 L2511.9 3736.61 L2523.71 3736.61 L2523.71 3718.16 M2522.48 3714.09 L2528.36 3714.09 L2528.36 3736.61 L2533.29 3736.61 L2533.29 3740.5 L2528.36 3740.5 L2528.36 3748.65 L2523.71 3748.65 L2523.71 3740.5 L2508.11 3740.5 L2508.11 3735.99 L2522.48 3714.09 Z" fill="#000000" fill-rule="nonzero" fill-opacity="1" /><path clip-path="url(#clip170)" d="M2551.02 3717.17 Q2547.41 3717.17 2545.58 3720.73 Q2543.78 3724.27 2543.78 3731.4 Q2543.78 3738.51 2545.58 3742.07 Q2547.41 3745.62 2551.02 3745.62 Q2554.66 3745.62 2556.46 3742.07 Q2558.29 3738.51 2558.29 3731.4 Q2558.29 3724.27 2556.46 3720.73 Q2554.66 3717.17 2551.02 3717.17 M2551.02 3713.46 Q2556.83 3713.46 2559.89 3718.07 Q2562.97 3722.65 2562.97 3731.4 Q2562.97 3740.13 2559.89 3744.74 Q2556.83 3749.32 2551.02 3749.32 Q2545.21 3749.32 2542.14 3744.74 Q2539.08 3740.13 2539.08 3731.4 Q2539.08 3722.65 2542.14 3718.07 Q2545.21 3713.46 2551.02 3713.46 Z" fill="#000000" fill-rule="nonzero" fill-opacity="1" /><path clip-path="url(#clip170)" d="M3612.77 3729.5 Q3609.62 3729.5 3607.77 3731.66 Q3605.94 3733.81 3605.94 3737.56 Q3605.94 3741.29 3607.77 3743.46 Q3609.62 3745.62 3612.77 3745.62 Q3615.92 3745.62 3617.75 3743.46 Q3619.6 3741.29 3619.6 3737.56 Q3619.6 3733.81 3617.75 3731.66 Q3615.92 3729.5 3612.77 3729.5 M3622.05 3714.85 L3622.05 3719.11 Q3620.29 3718.28 3618.49 3717.84 Q3616.71 3717.4 3614.95 3717.4 Q3610.32 3717.4 3607.86 3720.52 Q3605.43 3723.65 3605.09 3729.97 Q3606.45 3727.95 3608.51 3726.89 Q3610.57 3725.8 3613.05 3725.8 Q3618.26 3725.8 3621.27 3728.97 Q3624.3 3732.12 3624.3 3737.56 Q3624.3 3742.88 3621.15 3746.1 Q3618 3749.32 3612.77 3749.32 Q3606.78 3749.32 3603.61 3744.74 Q3600.43 3740.13 3600.43 3731.4 Q3600.43 3723.21 3604.32 3718.35 Q3608.21 3713.46 3614.76 3713.46 Q3616.52 3713.46 3618.3 3713.81 Q3620.11 3714.16 3622.05 3714.85 Z" fill="#000000" fill-rule="nonzero" fill-opacity="1" /><path clip-path="url(#clip170)" d="M3642.35 3717.17 Q3638.74 3717.17 3636.92 3720.73 Q3635.11 3724.27 3635.11 3731.4 Q3635.11 3738.51 3636.92 3742.07 Q3638.74 3745.62 3642.35 3745.62 Q3645.99 3745.62 3647.79 3742.07 Q3649.62 3738.51 3649.62 3731.4 Q3649.62 3724.27 3647.79 3720.73 Q3645.99 3717.17 3642.35 3717.17 M3642.35 3713.46 Q3648.17 3713.46 3651.22 3718.07 Q3654.3 3722.65 3654.3 3731.4 Q3654.3 3740.13 3651.22 3744.74 Q3648.17 3749.32 3642.35 3749.32 Q3636.54 3749.32 3633.47 3744.74 Q3630.41 3740.13 3630.41 3731.4 Q3630.41 3722.65 3633.47 3718.07 Q3636.54 3713.46 3642.35 3713.46 Z" fill="#000000" fill-rule="nonzero" fill-opacity="1" /><path clip-path="url(#clip170)" d="M4704.07 3732.24 Q4700.73 3732.24 4698.81 3734.02 Q4696.92 3735.8 4696.92 3738.93 Q4696.92 3742.05 4698.81 3743.83 Q4700.73 3745.62 4704.07 3745.62 Q4707.4 3745.62 4709.32 3743.83 Q4711.24 3742.03 4711.24 3738.93 Q4711.24 3735.8 4709.32 3734.02 Q4707.42 3732.24 4704.07 3732.24 M4699.39 3730.24 Q4696.38 3729.5 4694.69 3727.44 Q4693.03 3725.38 4693.03 3722.42 Q4693.03 3718.28 4695.97 3715.87 Q4698.93 3713.46 4704.07 3713.46 Q4709.23 3713.46 4712.17 3715.87 Q4715.11 3718.28 4715.11 3722.42 Q4715.11 3725.38 4713.42 3727.44 Q4711.75 3729.5 4708.77 3730.24 Q4712.15 3731.03 4714.02 3733.32 Q4715.92 3735.62 4715.92 3738.93 Q4715.92 3743.95 4712.84 3746.63 Q4709.79 3749.32 4704.07 3749.32 Q4698.35 3749.32 4695.27 3746.63 Q4692.22 3743.95 4692.22 3738.93 Q4692.22 3735.62 4694.11 3733.32 Q4696.01 3731.03 4699.39 3730.24 M4697.68 3722.86 Q4697.68 3725.55 4699.35 3727.05 Q4701.04 3728.56 4704.07 3728.56 Q4707.08 3728.56 4708.77 3727.05 Q4710.48 3725.55 4710.48 3722.86 Q4710.48 3720.18 4708.77 3718.67 Q4707.08 3717.17 4704.07 3717.17 Q4701.04 3717.17 4699.35 3718.67 Q4697.68 3720.18 4697.68 3722.86 Z" fill="#000000" fill-rule="nonzero" fill-opacity="1" /><path clip-path="url(#clip170)" d="M4734.23 3717.17 Q4730.62 3717.17 4728.79 3720.73 Q4726.98 3724.27 4726.98 3731.4 Q4726.98 3738.51 4728.79 3742.07 Q4730.62 3745.62 4734.23 3745.62 Q4737.86 3745.62 4739.67 3742.07 Q4741.5 3738.51 4741.5 3731.4 Q4741.5 3724.27 4739.67 3720.73 Q4737.86 3717.17 4734.23 3717.17 M4734.23 3713.46 Q4740.04 3713.46 4743.1 3718.07 Q4746.17 3722.65 4746.17 3731.4 Q4746.17 3740.13 4743.1 3744.74 Q4740.04 3749.32 4734.23 3749.32 Q4728.42 3749.32 4725.34 3744.74 Q4722.29 3740.13 4722.29 3731.4 Q4722.29 3722.65 4725.34 3718.07 Q4728.42 3713.46 4734.23 3713.46 Z" fill="#000000" fill-rule="nonzero" fill-opacity="1" /><path clip-path="url(#clip170)" d="M5770.63 3744.71 L5778.27 3744.71 L5778.27 3718.35 L5769.96 3720.01 L5769.96 3715.75 L5778.22 3714.09 L5782.9 3714.09 L5782.9 3744.71 L5790.54 3744.71 L5790.54 3748.65 L5770.63 3748.65 L5770.63 3744.71 Z" fill="#000000" fill-rule="nonzero" fill-opacity="1" /><path clip-path="url(#clip170)" d="M5809.98 3717.17 Q5806.37 3717.17 5804.54 3720.73 Q5802.74 3724.27 5802.74 3731.4 Q5802.74 3738.51 5804.54 3742.07 Q5806.37 3745.62 5809.98 3745.62 Q5813.62 3745.62 5815.42 3742.07 Q5817.25 3738.51 5817.25 3731.4 Q5817.25 3724.27 5815.42 3720.73 Q5813.62 3717.17 5809.98 3717.17 M5809.98 3713.46 Q5815.79 3713.46 5818.85 3718.07 Q5821.93 3722.65 5821.93 3731.4 Q5821.93 3740.13 5818.85 3744.74 Q5815.79 3749.32 5809.98 3749.32 Q5804.17 3749.32 5801.09 3744.74 Q5798.04 3740.13 5798.04 3731.4 Q5798.04 3722.65 5801.09 3718.07 Q5804.17 3713.46 5809.98 3713.46 Z" fill="#000000" fill-rule="nonzero" fill-opacity="1" /><path clip-path="url(#clip170)" d="M5840.14 3717.17 Q5836.53 3717.17 5834.7 3720.73 Q5832.9 3724.27 5832.9 3731.4 Q5832.9 3738.51 5834.7 3742.07 Q5836.53 3745.62 5840.14 3745.62 Q5843.78 3745.62 5845.58 3742.07 Q5847.41 3738.51 5847.41 3731.4 Q5847.41 3724.27 5845.58 3720.73 Q5843.78 3717.17 5840.14 3717.17 M5840.14 3713.46 Q5845.95 3713.46 5849.01 3718.07 Q5852.09 3722.65 5852.09 3731.4 Q5852.09 3740.13 5849.01 3744.74 Q5845.95 3749.32 5840.14 3749.32 Q5834.33 3749.32 5831.25 3744.74 Q5828.2 3740.13 5828.2 3731.4 Q5828.2 3722.65 5831.25 3718.07 Q5834.33 3713.46 5840.14 3713.46 Z" fill="#000000" fill-rule="nonzero" fill-opacity="1" /><path clip-path="url(#clip170)" d="M2955.83 3808.79 L2996.02 3808.79 L2996.02 3814.2 L2979.16 3814.2 L2979.16 3856.31 L2972.69 3856.31 L2972.69 3814.2 L2955.83 3814.2 L2955.83 3808.79 Z" fill="#000000" fill-rule="nonzero" fill-opacity="1" /><path clip-path="url(#clip170)" d="M2999.97 3820.66 L3005.83 3820.66 L3005.83 3856.31 L2999.97 3856.31 L2999.97 3820.66 M2999.97 3806.79 L3005.83 3806.79 L3005.83 3814.2 L2999.97 3814.2 L2999.97 3806.79 Z" fill="#000000" fill-rule="nonzero" fill-opacity="1" /><path clip-path="url(#clip170)" d="M3045.84 3827.51 Q3048.03 3823.56 3051.09 3821.68 Q3054.14 3819.8 3058.28 3819.8 Q3063.85 3819.8 3066.87 3823.72 Q3069.9 3827.6 3069.9 3834.8 L3069.9 3856.31 L3064.01 3856.31 L3064.01 3834.99 Q3064.01 3829.86 3062.2 3827.38 Q3060.38 3824.9 3056.66 3824.9 Q3052.11 3824.9 3049.46 3827.92 Q3046.82 3830.94 3046.82 3836.16 L3046.82 3856.31 L3040.93 3856.31 L3040.93 3834.99 Q3040.93 3829.83 3039.12 3827.38 Q3037.31 3824.9 3033.52 3824.9 Q3029.03 3824.9 3026.39 3827.95 Q3023.75 3830.98 3023.75 3836.16 L3023.75 3856.31 L3017.86 3856.31 L3017.86 3820.66 L3023.75 3820.66 L3023.75 3826.2 Q3025.75 3822.92 3028.55 3821.36 Q3031.35 3819.8 3035.21 3819.8 Q3039.09 3819.8 3041.79 3821.78 Q3044.53 3823.75 3045.84 3827.51 Z" fill="#000000" fill-rule="nonzero" fill-opacity="1" /><path clip-path="url(#clip170)" d="M3112.07 3837.02 L3112.07 3839.89 L3085.14 3839.89 Q3085.53 3845.94 3088.77 3849.12 Q3092.05 3852.27 3097.88 3852.27 Q3101.25 3852.27 3104.4 3851.44 Q3107.58 3850.61 3110.7 3848.96 L3110.7 3854.5 Q3107.55 3855.83 3104.24 3856.53 Q3100.93 3857.23 3097.53 3857.23 Q3089 3857.23 3084 3852.27 Q3079.03 3847.3 3079.03 3838.84 Q3079.03 3830.08 3083.74 3824.96 Q3088.49 3819.8 3096.51 3819.8 Q3103.7 3819.8 3107.87 3824.45 Q3112.07 3829.07 3112.07 3837.02 M3106.22 3835.3 Q3106.15 3830.5 3103.51 3827.63 Q3100.9 3824.77 3096.57 3824.77 Q3091.67 3824.77 3088.71 3827.54 Q3085.78 3830.31 3085.34 3835.34 L3106.22 3835.3 Z" fill="#000000" fill-rule="nonzero" fill-opacity="1" /><path clip-path="url(#clip170)" d="M3156.47 3806.85 Q3152.21 3814.17 3150.14 3821.33 Q3148.07 3828.49 3148.07 3835.85 Q3148.07 3843.2 3150.14 3850.42 Q3152.24 3857.62 3156.47 3864.91 L3151.38 3864.91 Q3146.61 3857.43 3144.22 3850.2 Q3141.86 3842.98 3141.86 3835.85 Q3141.86 3828.75 3144.22 3821.55 Q3146.57 3814.36 3151.38 3806.85 L3156.47 3806.85 Z" fill="#000000" fill-rule="nonzero" fill-opacity="1" /><path clip-path="url(#clip170)" d="M3173.63 3810.54 L3173.63 3820.66 L3185.69 3820.66 L3185.69 3825.22 L3173.63 3825.22 L3173.63 3844.57 Q3173.63 3848.93 3174.81 3850.17 Q3176.01 3851.41 3179.68 3851.41 L3185.69 3851.41 L3185.69 3856.31 L3179.68 3856.31 Q3172.9 3856.31 3170.32 3853.8 Q3167.74 3851.25 3167.74 3844.57 L3167.74 3825.22 L3163.44 3825.22 L3163.44 3820.66 L3167.74 3820.66 L3167.74 3810.54 L3173.63 3810.54 Z" fill="#000000" fill-rule="nonzero" fill-opacity="1" /><path clip-path="url(#clip170)" d="M3192.47 3806.85 L3197.56 3806.85 Q3202.34 3814.36 3204.69 3821.55 Q3207.08 3828.75 3207.08 3835.85 Q3207.08 3842.98 3204.69 3850.2 Q3202.34 3857.43 3197.56 3864.91 L3192.47 3864.91 Q3196.7 3857.62 3198.77 3850.42 Q3200.87 3843.2 3200.87 3835.85 Q3200.87 3828.49 3198.77 3821.33 Q3196.7 3814.17 3192.47 3806.85 Z" fill="#000000" fill-rule="nonzero" fill-opacity="1" /><polyline clip-path="url(#clip170)" style="stroke:#000000; stroke-linecap:round; stroke-linejoin:round; stroke-width:4; stroke-opacity:1; fill:none" points="351.881,3657.45 351.881,123.472 "/>
<polyline clip-path="url(#clip170)" style="stroke:#000000; stroke-linecap:round; stroke-linejoin:round; stroke-width:4; stroke-opacity:1; fill:none" points="351.881,3657.45 370.779,3657.45 "/>
<polyline clip-path="url(#clip170)" style="stroke:#000000; stroke-linecap:round; stroke-linejoin:round; stroke-width:4; stroke-opacity:1; fill:none" points="351.881,2479.46 370.779,2479.46 "/>
<polyline clip-path="url(#clip170)" style="stroke:#000000; stroke-linecap:round; stroke-linejoin:round; stroke-width:4; stroke-opacity:1; fill:none" points="351.881,1301.46 370.779,1301.46 "/>
<polyline clip-path="url(#clip170)" style="stroke:#000000; stroke-linecap:round; stroke-linejoin:round; stroke-width:4; stroke-opacity:1; fill:none" points="351.881,123.472 370.779,123.472 "/>
<path clip-path="url(#clip170)" d="M249.937 3643.25 Q246.326 3643.25 244.497 3646.81 Q242.691 3650.35 242.691 3657.48 Q242.691 3664.59 244.497 3668.15 Q246.326 3671.7 249.937 3671.7 Q253.571 3671.7 255.377 3668.15 Q257.205 3664.59 257.205 3657.48 Q257.205 3650.35 255.377 3646.81 Q253.571 3643.25 249.937 3643.25 M249.937 3639.54 Q255.747 3639.54 258.803 3644.15 Q261.881 3648.73 261.881 3657.48 Q261.881 3666.21 258.803 3670.82 Q255.747 3675.4 249.937 3675.4 Q244.127 3675.4 241.048 3670.82 Q237.992 3666.21 237.992 3657.48 Q237.992 3648.73 241.048 3644.15 Q244.127 3639.54 249.937 3639.54 Z" fill="#000000" fill-rule="nonzero" fill-opacity="1" /><path clip-path="url(#clip170)" d="M241.974 2492.8 L249.613 2492.8 L249.613 2466.43 L241.303 2468.1 L241.303 2463.84 L249.566 2462.18 L254.242 2462.18 L254.242 2492.8 L261.881 2492.8 L261.881 2496.74 L241.974 2496.74 L241.974 2492.8 Z" fill="#000000" fill-rule="nonzero" fill-opacity="1" /><path clip-path="url(#clip170)" d="M245.562 1314.81 L261.881 1314.81 L261.881 1318.74 L239.937 1318.74 L239.937 1314.81 Q242.599 1312.05 247.182 1307.42 Q251.789 1302.77 252.969 1301.43 Q255.215 1298.91 256.094 1297.17 Q256.997 1295.41 256.997 1293.72 Q256.997 1290.97 255.053 1289.23 Q253.131 1287.49 250.029 1287.49 Q247.83 1287.49 245.377 1288.26 Q242.946 1289.02 240.168 1290.57 L240.168 1285.85 Q242.992 1284.72 245.446 1284.14 Q247.9 1283.56 249.937 1283.56 Q255.307 1283.56 258.502 1286.24 Q261.696 1288.93 261.696 1293.42 Q261.696 1295.55 260.886 1297.47 Q260.099 1299.37 257.992 1301.96 Q257.414 1302.63 254.312 1305.85 Q251.21 1309.04 245.562 1314.81 Z" fill="#000000" fill-rule="nonzero" fill-opacity="1" /><path clip-path="url(#clip170)" d="M254.752 122.118 Q258.108 122.836 259.983 125.104 Q261.881 127.373 261.881 130.706 Q261.881 135.822 258.363 138.623 Q254.844 141.423 248.363 141.423 Q246.187 141.423 243.872 140.984 Q241.58 140.567 239.127 139.71 L239.127 135.197 Q241.071 136.331 243.386 136.91 Q245.701 137.488 248.224 137.488 Q252.622 137.488 254.914 135.752 Q257.228 134.016 257.228 130.706 Q257.228 127.65 255.076 125.937 Q252.946 124.201 249.127 124.201 L245.099 124.201 L245.099 120.359 L249.312 120.359 Q252.761 120.359 254.59 118.993 Q256.418 117.604 256.418 115.012 Q256.418 112.35 254.52 110.937 Q252.645 109.502 249.127 109.502 Q247.205 109.502 245.006 109.919 Q242.807 110.336 240.168 111.215 L240.168 107.049 Q242.83 106.308 245.145 105.937 Q247.483 105.567 249.543 105.567 Q254.867 105.567 257.969 107.998 Q261.071 110.405 261.071 114.525 Q261.071 117.396 259.428 119.386 Q257.784 121.354 254.752 122.118 Z" fill="#000000" fill-rule="nonzero" fill-opacity="1" /><path clip-path="url(#clip170)" d="M87.776 2059.25 L94.0463 2059.25 Q92.2957 2062.91 91.4363 2066.15 Q90.5769 2069.4 90.5769 2072.42 Q90.5769 2077.68 92.614 2080.54 Q94.651 2083.37 98.4068 2083.37 Q101.558 2083.37 103.181 2081.49 Q104.772 2079.58 105.759 2074.3 L106.555 2070.42 Q107.924 2063.23 111.393 2059.82 Q114.83 2056.38 120.623 2056.38 Q127.53 2056.38 131.095 2061.03 Q134.659 2065.64 134.659 2074.59 Q134.659 2077.96 133.896 2081.78 Q133.132 2085.57 131.636 2089.64 L125.015 2089.64 Q127.212 2085.73 128.326 2081.97 Q129.44 2078.22 129.44 2074.59 Q129.44 2069.08 127.275 2066.09 Q125.111 2063.1 121.101 2063.1 Q117.599 2063.1 115.626 2065.26 Q113.653 2067.39 112.666 2072.3 L111.902 2076.21 Q110.47 2083.4 107.414 2086.62 Q104.359 2089.83 98.916 2089.83 Q92.614 2089.83 88.9855 2085.41 Q85.3571 2080.95 85.3571 2073.16 Q85.3571 2069.81 85.9618 2066.34 Q86.5666 2062.88 87.776 2059.25 Z" fill="#000000" fill-rule="nonzero" fill-opacity="1" /><path clip-path="url(#clip170)" d="M87.967 2040.82 L98.0885 2040.82 L98.0885 2028.75 L102.64 2028.75 L102.64 2040.82 L121.992 2040.82 Q126.352 2040.82 127.594 2039.64 Q128.835 2038.43 128.835 2034.77 L128.835 2028.75 L133.736 2028.75 L133.736 2034.77 Q133.736 2041.55 131.222 2044.13 Q128.676 2046.71 121.992 2046.71 L102.64 2046.71 L102.64 2051 L98.0885 2051 L98.0885 2046.71 L87.967 2046.71 L87.967 2040.82 Z" fill="#000000" fill-rule="nonzero" fill-opacity="1" /><path clip-path="url(#clip170)" d="M115.817 2004.85 Q115.817 2011.95 117.44 2014.69 Q119.063 2017.42 122.978 2017.42 Q126.098 2017.42 127.944 2015.39 Q129.758 2013.32 129.758 2009.79 Q129.758 2004.92 126.32 2001.99 Q122.851 1999.03 117.122 1999.03 L115.817 1999.03 L115.817 2004.85 M113.398 1993.17 L133.736 1993.17 L133.736 1999.03 L128.326 1999.03 Q131.572 2001.03 133.132 2004.02 Q134.659 2007.02 134.659 2011.34 Q134.659 2016.82 131.604 2020.07 Q128.517 2023.28 123.36 2023.28 Q117.345 2023.28 114.289 2019.27 Q111.234 2015.23 111.234 2007.24 L111.234 1999.03 L110.661 1999.03 Q106.619 1999.03 104.422 2001.7 Q102.194 2004.34 102.194 2009.15 Q102.194 2012.2 102.926 2015.1 Q103.658 2018 105.123 2020.67 L99.7117 2020.67 Q98.4704 2017.46 97.8657 2014.43 Q97.2291 2011.41 97.2291 2008.54 Q97.2291 2000.81 101.24 1996.99 Q105.25 1993.17 113.398 1993.17 Z" fill="#000000" fill-rule="nonzero" fill-opacity="1" /><path clip-path="url(#clip170)" d="M87.967 1975.31 L98.0885 1975.31 L98.0885 1963.25 L102.64 1963.25 L102.64 1975.31 L121.992 1975.31 Q126.352 1975.31 127.594 1974.14 Q128.835 1972.93 128.835 1969.27 L128.835 1963.25 L133.736 1963.25 L133.736 1969.27 Q133.736 1976.05 131.222 1978.62 Q128.676 1981.2 121.992 1981.2 L102.64 1981.2 L102.64 1985.5 L98.0885 1985.5 L98.0885 1981.2 L87.967 1981.2 L87.967 1975.31 Z" fill="#000000" fill-rule="nonzero" fill-opacity="1" /><path clip-path="url(#clip170)" d="M114.448 1925.06 L117.313 1925.06 L117.313 1951.98 Q123.36 1951.6 126.543 1948.36 Q129.694 1945.08 129.694 1939.25 Q129.694 1935.88 128.867 1932.73 Q128.039 1929.55 126.384 1926.43 L131.922 1926.43 Q133.259 1929.58 133.959 1932.89 Q134.659 1936.2 134.659 1939.6 Q134.659 1948.13 129.694 1953.13 Q124.729 1958.1 116.263 1958.1 Q107.51 1958.1 102.385 1953.38 Q97.2291 1948.64 97.2291 1940.62 Q97.2291 1933.43 101.876 1929.26 Q106.491 1925.06 114.448 1925.06 M112.73 1930.91 Q107.924 1930.98 105.059 1933.62 Q102.194 1936.23 102.194 1940.56 Q102.194 1945.46 104.963 1948.42 Q107.733 1951.35 112.761 1951.79 L112.73 1930.91 Z" fill="#000000" fill-rule="nonzero" fill-opacity="1" /><path clip-path="url(#clip170)" d="M133.736 1882.22 L86.2164 1900.36 L86.2164 1893.64 L126.225 1878.59 L86.2164 1863.5 L86.2164 1856.82 L133.736 1874.93 L133.736 1882.22 Z" fill="#000000" fill-rule="nonzero" fill-opacity="1" /><path clip-path="url(#clip170)" d="M115.817 1838.99 Q115.817 1846.09 117.44 1848.83 Q119.063 1851.57 122.978 1851.57 Q126.098 1851.57 127.944 1849.53 Q129.758 1847.46 129.758 1843.93 Q129.758 1839.06 126.32 1836.13 Q122.851 1833.17 117.122 1833.17 L115.817 1833.17 L115.817 1838.99 M113.398 1827.31 L133.736 1827.31 L133.736 1833.17 L128.326 1833.17 Q131.572 1835.17 133.132 1838.17 Q134.659 1841.16 134.659 1845.49 Q134.659 1850.96 131.604 1854.21 Q128.517 1857.42 123.36 1857.42 Q117.345 1857.42 114.289 1853.41 Q111.234 1849.37 111.234 1841.38 L111.234 1833.17 L110.661 1833.17 Q106.619 1833.17 104.422 1835.84 Q102.194 1838.48 102.194 1843.29 Q102.194 1846.35 102.926 1849.24 Q103.658 1852.14 105.123 1854.81 L99.7117 1854.81 Q98.4704 1851.6 97.8657 1848.57 Q97.2291 1845.55 97.2291 1842.69 Q97.2291 1834.95 101.24 1831.13 Q105.25 1827.31 113.398 1827.31 Z" fill="#000000" fill-rule="nonzero" fill-opacity="1" /><path clip-path="url(#clip170)" d="M84.2112 1815.25 L84.2112 1809.39 L133.736 1809.39 L133.736 1815.25 L84.2112 1815.25 Z" fill="#000000" fill-rule="nonzero" fill-opacity="1" /><path clip-path="url(#clip170)" d="M119.668 1797.74 L98.0885 1797.74 L98.0885 1791.89 L119.445 1791.89 Q124.506 1791.89 127.052 1789.91 Q129.567 1787.94 129.567 1783.99 Q129.567 1779.25 126.543 1776.51 Q123.519 1773.74 118.3 1773.74 L98.0885 1773.74 L98.0885 1767.89 L133.736 1767.89 L133.736 1773.74 L128.262 1773.74 Q131.508 1775.88 133.1 1778.71 Q134.659 1781.51 134.659 1785.23 Q134.659 1791.38 130.84 1794.56 Q127.021 1797.74 119.668 1797.74 M97.2291 1783.01 L97.2291 1783.01 Z" fill="#000000" fill-rule="nonzero" fill-opacity="1" /><path clip-path="url(#clip170)" d="M114.448 1725.33 L117.313 1725.33 L117.313 1752.26 Q123.36 1751.88 126.543 1748.63 Q129.694 1745.35 129.694 1739.53 Q129.694 1736.16 128.867 1733 Q128.039 1729.82 126.384 1726.7 L131.922 1726.7 Q133.259 1729.85 133.959 1733.16 Q134.659 1736.47 134.659 1739.88 Q134.659 1748.41 129.694 1753.41 Q124.729 1758.37 116.263 1758.37 Q107.51 1758.37 102.385 1753.66 Q97.2291 1748.92 97.2291 1740.9 Q97.2291 1733.7 101.876 1729.53 Q106.491 1725.33 114.448 1725.33 M112.73 1731.19 Q107.924 1731.25 105.059 1733.9 Q102.194 1736.51 102.194 1740.83 Q102.194 1745.74 104.963 1748.7 Q107.733 1751.62 112.761 1752.07 L112.73 1731.19 Z" fill="#000000" fill-rule="nonzero" fill-opacity="1" /><path clip-path="url(#clip170)" d="M99.1388 1693 L104.677 1693 Q103.404 1695.48 102.767 1698.15 Q102.131 1700.83 102.131 1703.69 Q102.131 1708.05 103.468 1710.25 Q104.804 1712.41 107.478 1712.41 Q109.515 1712.41 110.693 1710.85 Q111.838 1709.29 112.889 1704.58 L113.334 1702.58 Q114.671 1696.34 117.122 1693.73 Q119.541 1691.09 123.901 1691.09 Q128.867 1691.09 131.763 1695.03 Q134.659 1698.95 134.659 1705.82 Q134.659 1708.69 134.087 1711.81 Q133.545 1714.89 132.431 1718.33 L126.384 1718.33 Q128.071 1715.08 128.93 1711.93 Q129.758 1708.78 129.758 1705.7 Q129.758 1701.56 128.357 1699.33 Q126.925 1697.1 124.347 1697.1 Q121.96 1697.1 120.687 1698.72 Q119.414 1700.32 118.236 1705.76 L117.759 1707.8 Q116.613 1713.24 114.257 1715.66 Q111.87 1718.08 107.733 1718.08 Q102.704 1718.08 99.9664 1714.51 Q97.2291 1710.95 97.2291 1704.39 Q97.2291 1701.14 97.7065 1698.28 Q98.184 1695.41 99.1388 1693 Z" fill="#000000" fill-rule="nonzero" fill-opacity="1" /><path clip-path="url(#clip170)" d="M1897.09 16.7545 L1897.09 25.383 Q1892.96 21.5346 1888.26 19.6307 Q1883.6 17.7268 1878.33 17.7268 Q1867.96 17.7268 1862.45 24.0867 Q1856.95 30.4061 1856.95 42.3968 Q1856.95 54.3469 1862.45 60.7069 Q1867.96 67.0263 1878.33 67.0263 Q1883.6 67.0263 1888.26 65.1223 Q1892.96 63.2184 1897.09 59.3701 L1897.09 67.9175 Q1892.8 70.8341 1887.98 72.2924 Q1883.19 73.7508 1877.85 73.7508 Q1864.12 73.7508 1856.22 65.3654 Q1848.32 56.9395 1848.32 42.3968 Q1848.32 27.8135 1856.22 19.4281 Q1864.12 11.0023 1877.85 11.0023 Q1883.28 11.0023 1888.06 12.4606 Q1892.88 13.8784 1897.09 16.7545 Z" fill="#000000" fill-rule="nonzero" fill-opacity="1" /><path clip-path="url(#clip170)" d="M1901.34 12.096 L1952.51 12.096 L1952.51 18.9825 L1931.04 18.9825 L1931.04 72.576 L1922.81 72.576 L1922.81 18.9825 L1901.34 18.9825 L1901.34 12.096 Z" fill="#000000" fill-rule="nonzero" fill-opacity="1" /><path clip-path="url(#clip170)" d="M1960.41 12.096 L1972.6 12.096 L1988.03 53.2532 L2003.55 12.096 L2015.74 12.096 L2015.74 72.576 L2007.76 72.576 L2007.76 19.4686 L1992.16 60.9499 L1983.94 60.9499 L1968.34 19.4686 L1968.34 72.576 L1960.41 72.576 L1960.41 12.096 Z" fill="#000000" fill-rule="nonzero" fill-opacity="1" /><path clip-path="url(#clip170)" d="M2077.27 16.7545 L2077.27 25.383 Q2073.14 21.5346 2068.44 19.6307 Q2063.78 17.7268 2058.52 17.7268 Q2048.15 17.7268 2042.64 24.0867 Q2037.13 30.4061 2037.13 42.3968 Q2037.13 54.3469 2042.64 60.7069 Q2048.15 67.0263 2058.52 67.0263 Q2063.78 67.0263 2068.44 65.1223 Q2073.14 63.2184 2077.27 59.3701 L2077.27 67.9175 Q2072.98 70.8341 2068.16 72.2924 Q2063.38 73.7508 2058.03 73.7508 Q2044.3 73.7508 2036.4 65.3654 Q2028.5 56.9395 2028.5 42.3968 Q2028.5 27.8135 2036.4 19.4281 Q2044.3 11.0023 2058.03 11.0023 Q2063.46 11.0023 2068.24 12.4606 Q2073.06 13.8784 2077.27 16.7545 Z" fill="#000000" fill-rule="nonzero" fill-opacity="1" /><path clip-path="url(#clip170)" d="M2152.54 14.0809 L2152.54 22.0612 Q2147.88 19.8332 2143.75 18.7395 Q2139.62 17.6457 2135.77 17.6457 Q2129.08 17.6457 2125.44 20.2383 Q2121.83 22.8309 2121.83 27.611 Q2121.83 31.6214 2124.22 33.6873 Q2126.65 35.7128 2133.38 36.9686 L2138.32 37.9813 Q2147.48 39.7232 2151.81 44.1387 Q2156.19 48.5136 2156.19 55.8863 Q2156.19 64.6767 2150.27 69.2137 Q2144.4 73.7508 2133.01 73.7508 Q2128.72 73.7508 2123.86 72.7785 Q2119.04 71.8063 2113.85 69.9024 L2113.85 61.4765 Q2118.84 64.2716 2123.62 65.6895 Q2128.4 67.1073 2133.01 67.1073 Q2140.02 67.1073 2143.83 64.3527 Q2147.64 61.598 2147.64 56.4939 Q2147.64 52.0379 2144.88 49.5264 Q2142.17 47.0148 2135.93 45.759 L2130.95 44.7868 Q2121.79 42.9639 2117.7 39.075 Q2113.61 35.1862 2113.61 28.2591 Q2113.61 20.2383 2119.24 15.6203 Q2124.91 11.0023 2134.84 11.0023 Q2139.09 11.0023 2143.51 11.7719 Q2147.92 12.5416 2152.54 14.0809 Z" fill="#000000" fill-rule="nonzero" fill-opacity="1" /><path clip-path="url(#clip170)" d="M2168.62 27.2059 L2176.08 27.2059 L2176.08 72.576 L2168.62 72.576 L2168.62 27.2059 M2168.62 9.54393 L2176.08 9.54393 L2176.08 18.9825 L2168.62 18.9825 L2168.62 9.54393 Z" fill="#000000" fill-rule="nonzero" fill-opacity="1" /><path clip-path="url(#clip170)" d="M2227 35.9153 Q2229.79 30.8922 2233.68 28.5022 Q2237.57 26.1121 2242.83 26.1121 Q2249.92 26.1121 2253.77 31.0947 Q2257.62 36.0368 2257.62 45.1919 L2257.62 72.576 L2250.13 72.576 L2250.13 45.4349 Q2250.13 38.913 2247.82 35.7533 Q2245.51 32.5936 2240.77 32.5936 Q2234.98 32.5936 2231.61 36.4419 Q2228.25 40.2903 2228.25 46.9338 L2228.25 72.576 L2220.76 72.576 L2220.76 45.4349 Q2220.76 38.8725 2218.45 35.7533 Q2216.14 32.5936 2211.32 32.5936 Q2205.61 32.5936 2202.24 36.4824 Q2198.88 40.3308 2198.88 46.9338 L2198.88 72.576 L2191.39 72.576 L2191.39 27.2059 L2198.88 27.2059 L2198.88 34.2544 Q2201.43 30.082 2205 28.0971 Q2208.56 26.1121 2213.47 26.1121 Q2218.41 26.1121 2221.85 28.6237 Q2225.33 31.1352 2227 35.9153 Z" fill="#000000" fill-rule="nonzero" fill-opacity="1" /><path clip-path="url(#clip170)" d="M2271.72 54.671 L2271.72 27.2059 L2279.17 27.2059 L2279.17 54.3874 Q2279.17 60.8284 2281.68 64.0691 Q2284.19 67.2693 2289.22 67.2693 Q2295.25 67.2693 2298.74 63.421 Q2302.26 59.5726 2302.26 52.9291 L2302.26 27.2059 L2309.71 27.2059 L2309.71 72.576 L2302.26 72.576 L2302.26 65.6084 Q2299.55 69.7404 2295.94 71.7658 Q2292.38 73.7508 2287.64 73.7508 Q2279.82 73.7508 2275.77 68.8897 Q2271.72 64.0286 2271.72 54.671 M2290.47 26.1121 L2290.47 26.1121 Z" fill="#000000" fill-rule="nonzero" fill-opacity="1" /><path clip-path="url(#clip170)" d="M2325.07 9.54393 L2332.52 9.54393 L2332.52 72.576 L2325.07 72.576 L2325.07 9.54393 Z" fill="#000000" fill-rule="nonzero" fill-opacity="1" /><path clip-path="url(#clip170)" d="M2368.74 49.7694 Q2359.7 49.7694 2356.22 51.8354 Q2352.74 53.9013 2352.74 58.8839 Q2352.74 62.8538 2355.33 65.2034 Q2357.96 67.5124 2362.46 67.5124 Q2368.66 67.5124 2372.38 63.1374 Q2376.15 58.7219 2376.15 51.4303 L2376.15 49.7694 L2368.74 49.7694 M2383.6 46.6907 L2383.6 72.576 L2376.15 72.576 L2376.15 65.6895 Q2373.6 69.8214 2369.79 71.8063 Q2365.98 73.7508 2360.47 73.7508 Q2353.5 73.7508 2349.37 69.8619 Q2345.28 65.9325 2345.28 59.3701 Q2345.28 51.7138 2350.39 47.825 Q2355.53 43.9361 2365.7 43.9361 L2376.15 43.9361 L2376.15 43.2069 Q2376.15 38.0623 2372.75 35.2672 Q2369.38 32.4315 2363.27 32.4315 Q2359.38 32.4315 2355.69 33.3632 Q2352.01 34.295 2348.6 36.1584 L2348.6 29.2718 Q2352.69 27.692 2356.54 26.9223 Q2360.39 26.1121 2364.04 26.1121 Q2373.88 26.1121 2378.74 31.2163 Q2383.6 36.3204 2383.6 46.6907 Z" fill="#000000" fill-rule="nonzero" fill-opacity="1" /><path clip-path="url(#clip170)" d="M2406.33 14.324 L2406.33 27.2059 L2421.68 27.2059 L2421.68 32.9987 L2406.33 32.9987 L2406.33 57.6282 Q2406.33 63.1779 2407.83 64.7578 Q2409.37 66.3376 2414.03 66.3376 L2421.68 66.3376 L2421.68 72.576 L2414.03 72.576 Q2405.4 72.576 2402.12 69.3758 Q2398.83 66.1351 2398.83 57.6282 L2398.83 32.9987 L2393.37 32.9987 L2393.37 27.2059 L2398.83 27.2059 L2398.83 14.324 L2406.33 14.324 Z" fill="#000000" fill-rule="nonzero" fill-opacity="1" /><path clip-path="url(#clip170)" d="M2431.48 27.2059 L2438.94 27.2059 L2438.94 72.576 L2431.48 72.576 L2431.48 27.2059 M2431.48 9.54393 L2438.94 9.54393 L2438.94 18.9825 L2431.48 18.9825 L2431.48 9.54393 Z" fill="#000000" fill-rule="nonzero" fill-opacity="1" /><path clip-path="url(#clip170)" d="M2472.12 32.4315 Q2466.12 32.4315 2462.64 37.1306 Q2459.15 41.7891 2459.15 49.9314 Q2459.15 58.0738 2462.6 62.7728 Q2466.08 67.4314 2472.12 67.4314 Q2478.07 67.4314 2481.55 62.7323 Q2485.04 58.0333 2485.04 49.9314 Q2485.04 41.8701 2481.55 37.1711 Q2478.07 32.4315 2472.12 32.4315 M2472.12 26.1121 Q2481.84 26.1121 2487.39 32.4315 Q2492.94 38.7509 2492.94 49.9314 Q2492.94 61.0714 2487.39 67.4314 Q2481.84 73.7508 2472.12 73.7508 Q2462.35 73.7508 2456.8 67.4314 Q2451.29 61.0714 2451.29 49.9314 Q2451.29 38.7509 2456.8 32.4315 Q2462.35 26.1121 2472.12 26.1121 Z" fill="#000000" fill-rule="nonzero" fill-opacity="1" /><path clip-path="url(#clip170)" d="M2543.01 45.1919 L2543.01 72.576 L2535.55 72.576 L2535.55 45.4349 Q2535.55 38.994 2533.04 35.7938 Q2530.53 32.5936 2525.51 32.5936 Q2519.47 32.5936 2515.99 36.4419 Q2512.5 40.2903 2512.5 46.9338 L2512.5 72.576 L2505.01 72.576 L2505.01 27.2059 L2512.5 27.2059 L2512.5 34.2544 Q2515.18 30.163 2518.78 28.1376 Q2522.43 26.1121 2527.17 26.1121 Q2534.99 26.1121 2539 30.9732 Q2543.01 35.7938 2543.01 45.1919 Z" fill="#000000" fill-rule="nonzero" fill-opacity="1" /><path clip-path="url(#clip170)" d="M2580.48 46.5287 L2602.31 46.5287 L2602.31 53.1722 L2580.48 53.1722 L2580.48 46.5287 Z" fill="#000000" fill-rule="nonzero" fill-opacity="1" /><path clip-path="url(#clip170)" d="M2632.49 12.096 L2683.65 12.096 L2683.65 18.9825 L2662.18 18.9825 L2662.18 72.576 L2653.96 72.576 L2653.96 18.9825 L2632.49 18.9825 L2632.49 12.096 Z" fill="#000000" fill-rule="nonzero" fill-opacity="1" /><path clip-path="url(#clip170)" d="M2705.33 34.1734 Q2704.07 33.4443 2702.57 33.1202 Q2701.11 32.7556 2699.33 32.7556 Q2693.01 32.7556 2689.61 36.8875 Q2686.25 40.9789 2686.25 48.6757 L2686.25 72.576 L2678.75 72.576 L2678.75 27.2059 L2686.25 27.2059 L2686.25 34.2544 Q2688.6 30.1225 2692.36 28.1376 Q2696.13 26.1121 2701.52 26.1121 Q2702.29 26.1121 2703.22 26.2337 Q2704.15 26.3147 2705.29 26.5172 L2705.33 34.1734 Z" fill="#000000" fill-rule="nonzero" fill-opacity="1" /><path clip-path="url(#clip170)" d="M2733.76 49.7694 Q2724.73 49.7694 2721.25 51.8354 Q2717.76 53.9013 2717.76 58.8839 Q2717.76 62.8538 2720.35 65.2034 Q2722.99 67.5124 2727.48 67.5124 Q2733.68 67.5124 2737.41 63.1374 Q2741.18 58.7219 2741.18 51.4303 L2741.18 49.7694 L2733.76 49.7694 M2748.63 46.6907 L2748.63 72.576 L2741.18 72.576 L2741.18 65.6895 Q2738.62 69.8214 2734.82 71.8063 Q2731.01 73.7508 2725.5 73.7508 Q2718.53 73.7508 2714.4 69.8619 Q2710.31 65.9325 2710.31 59.3701 Q2710.31 51.7138 2715.41 47.825 Q2720.56 43.9361 2730.73 43.9361 L2741.18 43.9361 L2741.18 43.2069 Q2741.18 38.0623 2737.77 35.2672 Q2734.41 32.4315 2728.29 32.4315 Q2724.41 32.4315 2720.72 33.3632 Q2717.03 34.295 2713.63 36.1584 L2713.63 29.2718 Q2717.72 27.692 2721.57 26.9223 Q2725.42 26.1121 2729.06 26.1121 Q2738.91 26.1121 2743.77 31.2163 Q2748.63 36.3204 2748.63 46.6907 Z" fill="#000000" fill-rule="nonzero" fill-opacity="1" /><path clip-path="url(#clip170)" d="M2763.98 27.2059 L2771.44 27.2059 L2771.44 73.3862 Q2771.44 82.0551 2768.11 85.944 Q2764.83 89.8329 2757.5 89.8329 L2754.67 89.8329 L2754.67 83.5134 L2756.65 83.5134 Q2760.9 83.5134 2762.44 81.5285 Q2763.98 79.5841 2763.98 73.3862 L2763.98 27.2059 M2763.98 9.54393 L2771.44 9.54393 L2771.44 18.9825 L2763.98 18.9825 L2763.98 9.54393 Z" fill="#000000" fill-rule="nonzero" fill-opacity="1" /><path clip-path="url(#clip170)" d="M2825.84 48.0275 L2825.84 51.6733 L2791.57 51.6733 Q2792.06 59.3701 2796.19 63.421 Q2800.36 67.4314 2807.77 67.4314 Q2812.07 67.4314 2816.08 66.3781 Q2820.13 65.3249 2824.1 63.2184 L2824.1 70.267 Q2820.09 71.9684 2815.88 72.8596 Q2811.66 73.7508 2807.33 73.7508 Q2796.47 73.7508 2790.11 67.4314 Q2783.79 61.1119 2783.79 50.3365 Q2783.79 39.1965 2789.79 32.6746 Q2795.82 26.1121 2806.03 26.1121 Q2815.19 26.1121 2820.49 32.0264 Q2825.84 37.9003 2825.84 48.0275 M2818.39 45.84 Q2818.31 39.7232 2814.94 36.0774 Q2811.62 32.4315 2806.11 32.4315 Q2799.87 32.4315 2796.11 35.9558 Q2792.38 39.4801 2791.81 45.8805 L2818.39 45.84 Z" fill="#000000" fill-rule="nonzero" fill-opacity="1" /><path clip-path="url(#clip170)" d="M2870.72 28.9478 L2870.72 35.9153 Q2867.56 34.1734 2864.36 33.3227 Q2861.2 32.4315 2857.96 32.4315 Q2850.71 32.4315 2846.7 37.0496 Q2842.69 41.6271 2842.69 49.9314 Q2842.69 58.2358 2846.7 62.8538 Q2850.71 67.4314 2857.96 67.4314 Q2861.2 67.4314 2864.36 66.5807 Q2867.56 65.6895 2870.72 63.9476 L2870.72 70.8341 Q2867.61 72.2924 2864.24 73.0216 Q2860.92 73.7508 2857.15 73.7508 Q2846.91 73.7508 2840.87 67.3098 Q2834.83 60.8689 2834.83 49.9314 Q2834.83 38.832 2840.91 32.472 Q2847.03 26.1121 2857.64 26.1121 Q2861.08 26.1121 2864.36 26.8413 Q2867.65 27.5299 2870.72 28.9478 Z" fill="#000000" fill-rule="nonzero" fill-opacity="1" /><path clip-path="url(#clip170)" d="M2891.06 14.324 L2891.06 27.2059 L2906.41 27.2059 L2906.41 32.9987 L2891.06 32.9987 L2891.06 57.6282 Q2891.06 63.1779 2892.56 64.7578 Q2894.1 66.3376 2898.76 66.3376 L2906.41 66.3376 L2906.41 72.576 L2898.76 72.576 Q2890.13 72.576 2886.85 69.3758 Q2883.57 66.1351 2883.57 57.6282 L2883.57 32.9987 L2878.1 32.9987 L2878.1 27.2059 L2883.57 27.2059 L2883.57 14.324 L2891.06 14.324 Z" fill="#000000" fill-rule="nonzero" fill-opacity="1" /><path clip-path="url(#clip170)" d="M2933.8 32.4315 Q2927.8 32.4315 2924.32 37.1306 Q2920.83 41.7891 2920.83 49.9314 Q2920.83 58.0738 2924.28 62.7728 Q2927.76 67.4314 2933.8 67.4314 Q2939.75 67.4314 2943.24 62.7323 Q2946.72 58.0333 2946.72 49.9314 Q2946.72 41.8701 2943.24 37.1711 Q2939.75 32.4315 2933.8 32.4315 M2933.8 26.1121 Q2943.52 26.1121 2949.07 32.4315 Q2954.62 38.7509 2954.62 49.9314 Q2954.62 61.0714 2949.07 67.4314 Q2943.52 73.7508 2933.8 73.7508 Q2924.03 73.7508 2918.48 67.4314 Q2912.98 61.0714 2912.98 49.9314 Q2912.98 38.7509 2918.48 32.4315 Q2924.03 26.1121 2933.8 26.1121 Z" fill="#000000" fill-rule="nonzero" fill-opacity="1" /><path clip-path="url(#clip170)" d="M2993.26 34.1734 Q2992.01 33.4443 2990.51 33.1202 Q2989.05 32.7556 2987.27 32.7556 Q2980.95 32.7556 2977.55 36.8875 Q2974.18 40.9789 2974.18 48.6757 L2974.18 72.576 L2966.69 72.576 L2966.69 27.2059 L2974.18 27.2059 L2974.18 34.2544 Q2976.53 30.1225 2980.3 28.1376 Q2984.07 26.1121 2989.46 26.1121 Q2990.23 26.1121 2991.16 26.2337 Q2992.09 26.3147 2993.22 26.5172 L2993.26 34.1734 Z" fill="#000000" fill-rule="nonzero" fill-opacity="1" /><path clip-path="url(#clip170)" d="M3001.08 27.2059 L3008.54 27.2059 L3008.54 72.576 L3001.08 72.576 L3001.08 27.2059 M3001.08 9.54393 L3008.54 9.54393 L3008.54 18.9825 L3001.08 18.9825 L3001.08 9.54393 Z" fill="#000000" fill-rule="nonzero" fill-opacity="1" /><path clip-path="url(#clip170)" d="M3062.94 48.0275 L3062.94 51.6733 L3028.67 51.6733 Q3029.16 59.3701 3033.29 63.421 Q3037.46 67.4314 3044.87 67.4314 Q3049.17 67.4314 3053.18 66.3781 Q3057.23 65.3249 3061.2 63.2184 L3061.2 70.267 Q3057.19 71.9684 3052.97 72.8596 Q3048.76 73.7508 3044.43 73.7508 Q3033.57 73.7508 3027.21 67.4314 Q3020.89 61.1119 3020.89 50.3365 Q3020.89 39.1965 3026.89 32.6746 Q3032.92 26.1121 3043.13 26.1121 Q3052.29 26.1121 3057.59 32.0264 Q3062.94 37.9003 3062.94 48.0275 M3055.49 45.84 Q3055.41 39.7232 3052.04 36.0774 Q3048.72 32.4315 3043.21 32.4315 Q3036.97 32.4315 3033.21 35.9558 Q3029.48 39.4801 3028.91 45.8805 L3055.49 45.84 Z" fill="#000000" fill-rule="nonzero" fill-opacity="1" /><path clip-path="url(#clip170)" d="M3104.1 28.5427 L3104.1 35.5912 Q3100.94 33.9709 3097.53 33.1607 Q3094.13 32.3505 3090.49 32.3505 Q3084.94 32.3505 3082.14 34.0519 Q3079.39 35.7533 3079.39 39.156 Q3079.39 41.7486 3081.37 43.2475 Q3083.36 44.7058 3089.35 46.0426 L3091.9 46.6097 Q3099.84 48.3111 3103.17 51.4303 Q3106.53 54.509 3106.53 60.0587 Q3106.53 66.3781 3101.5 70.0644 Q3096.52 73.7508 3087.77 73.7508 Q3084.13 73.7508 3080.16 73.0216 Q3076.23 72.3329 3071.85 70.9151 L3071.85 63.2184 Q3075.98 65.3654 3079.99 66.4591 Q3084 67.5124 3087.93 67.5124 Q3093.2 67.5124 3096.04 65.73 Q3098.87 63.9071 3098.87 60.6258 Q3098.87 57.5877 3096.81 55.9673 Q3094.78 54.3469 3087.85 52.8481 L3085.26 52.2405 Q3078.33 50.7821 3075.25 47.7845 Q3072.18 44.7463 3072.18 39.4801 Q3072.18 33.0797 3076.71 29.5959 Q3081.25 26.1121 3089.59 26.1121 Q3093.73 26.1121 3097.37 26.7198 Q3101.02 27.3274 3104.1 28.5427 Z" fill="#000000" fill-rule="nonzero" fill-opacity="1" /><path clip-path="url(#clip170)" d="M3162.35 32.4315 Q3156.35 32.4315 3152.87 37.1306 Q3149.39 41.7891 3149.39 49.9314 Q3149.39 58.0738 3152.83 62.7728 Q3156.31 67.4314 3162.35 67.4314 Q3168.3 67.4314 3171.79 62.7323 Q3175.27 58.0333 3175.27 49.9314 Q3175.27 41.8701 3171.79 37.1711 Q3168.3 32.4315 3162.35 32.4315 M3162.35 26.1121 Q3172.07 26.1121 3177.62 32.4315 Q3183.17 38.7509 3183.17 49.9314 Q3183.17 61.0714 3177.62 67.4314 Q3172.07 73.7508 3162.35 73.7508 Q3152.59 73.7508 3147.04 67.4314 Q3141.53 61.0714 3141.53 49.9314 Q3141.53 38.7509 3147.04 32.4315 Q3152.59 26.1121 3162.35 26.1121 Z" fill="#000000" fill-rule="nonzero" fill-opacity="1" /><path clip-path="url(#clip170)" d="M3218.49 9.54393 L3218.49 15.7418 L3211.36 15.7418 Q3207.35 15.7418 3205.77 17.3622 Q3204.24 18.9825 3204.24 23.1955 L3204.24 27.2059 L3216.51 27.2059 L3216.51 32.9987 L3204.24 32.9987 L3204.24 72.576 L3196.74 72.576 L3196.74 32.9987 L3189.61 32.9987 L3189.61 27.2059 L3196.74 27.2059 L3196.74 24.0462 Q3196.74 16.471 3200.27 13.0277 Q3203.79 9.54393 3211.45 9.54393 L3218.49 9.54393 Z" fill="#000000" fill-rule="nonzero" fill-opacity="1" /><path clip-path="url(#clip170)" d="M3296.72 16.7545 L3296.72 25.383 Q3292.59 21.5346 3287.89 19.6307 Q3283.23 17.7268 3277.96 17.7268 Q3267.59 17.7268 3262.08 24.0867 Q3256.57 30.4061 3256.57 42.3968 Q3256.57 54.3469 3262.08 60.7069 Q3267.59 67.0263 3277.96 67.0263 Q3283.23 67.0263 3287.89 65.1223 Q3292.59 63.2184 3296.72 59.3701 L3296.72 67.9175 Q3292.42 70.8341 3287.6 72.2924 Q3282.82 73.7508 3277.48 73.7508 Q3263.74 73.7508 3255.84 65.3654 Q3247.94 56.9395 3247.94 42.3968 Q3247.94 27.8135 3255.84 19.4281 Q3263.74 11.0023 3277.48 11.0023 Q3282.9 11.0023 3287.68 12.4606 Q3292.5 13.8784 3296.72 16.7545 Z" fill="#000000" fill-rule="nonzero" fill-opacity="1" /><path clip-path="url(#clip170)" d="M3347.84 48.0275 L3347.84 51.6733 L3313.57 51.6733 Q3314.06 59.3701 3318.19 63.421 Q3322.36 67.4314 3329.77 67.4314 Q3334.07 67.4314 3338.08 66.3781 Q3342.13 65.3249 3346.1 63.2184 L3346.1 70.267 Q3342.09 71.9684 3337.87 72.8596 Q3333.66 73.7508 3329.33 73.7508 Q3318.47 73.7508 3312.11 67.4314 Q3305.79 61.1119 3305.79 50.3365 Q3305.79 39.1965 3311.79 32.6746 Q3317.82 26.1121 3328.03 26.1121 Q3337.19 26.1121 3342.49 32.0264 Q3347.84 37.9003 3347.84 48.0275 M3340.39 45.84 Q3340.31 39.7232 3336.94 36.0774 Q3333.62 32.4315 3328.11 32.4315 Q3321.87 32.4315 3318.11 35.9558 Q3314.38 39.4801 3313.81 45.8805 L3340.39 45.84 Z" fill="#000000" fill-rule="nonzero" fill-opacity="1" /><path clip-path="url(#clip170)" d="M3360.07 9.54393 L3367.53 9.54393 L3367.53 72.576 L3360.07 72.576 L3360.07 9.54393 Z" fill="#000000" fill-rule="nonzero" fill-opacity="1" /><path clip-path="url(#clip170)" d="M3383.12 9.54393 L3390.58 9.54393 L3390.58 72.576 L3383.12 72.576 L3383.12 9.54393 Z" fill="#000000" fill-rule="nonzero" fill-opacity="1" /><path clip-path="url(#clip170)" d="M3435.1 28.5427 L3435.1 35.5912 Q3431.94 33.9709 3428.53 33.1607 Q3425.13 32.3505 3421.49 32.3505 Q3415.94 32.3505 3413.14 34.0519 Q3410.39 35.7533 3410.39 39.156 Q3410.39 41.7486 3412.37 43.2475 Q3414.36 44.7058 3420.35 46.0426 L3422.9 46.6097 Q3430.84 48.3111 3434.16 51.4303 Q3437.53 54.509 3437.53 60.0587 Q3437.53 66.3781 3432.5 70.0644 Q3427.52 73.7508 3418.77 73.7508 Q3415.13 73.7508 3411.16 73.0216 Q3407.23 72.3329 3402.85 70.9151 L3402.85 63.2184 Q3406.98 65.3654 3410.99 66.4591 Q3415 67.5124 3418.93 67.5124 Q3424.2 67.5124 3427.04 65.73 Q3429.87 63.9071 3429.87 60.6258 Q3429.87 57.5877 3427.8 55.9673 Q3425.78 54.3469 3418.85 52.8481 L3416.26 52.2405 Q3409.33 50.7821 3406.25 47.7845 Q3403.18 44.7463 3403.18 39.4801 Q3403.18 33.0797 3407.71 29.5959 Q3412.25 26.1121 3420.59 26.1121 Q3424.73 26.1121 3428.37 26.7198 Q3432.02 27.3274 3435.1 28.5427 Z" fill="#000000" fill-rule="nonzero" fill-opacity="1" /><path clip-path="url(#clip170)" d="M3496.39 49.7694 Q3487.35 49.7694 3483.87 51.8354 Q3480.39 53.9013 3480.39 58.8839 Q3480.39 62.8538 3482.98 65.2034 Q3485.61 67.5124 3490.11 67.5124 Q3496.31 67.5124 3500.03 63.1374 Q3503.8 58.7219 3503.8 51.4303 L3503.8 49.7694 L3496.39 49.7694 M3511.25 46.6907 L3511.25 72.576 L3503.8 72.576 L3503.8 65.6895 Q3501.25 69.8214 3497.44 71.8063 Q3493.63 73.7508 3488.12 73.7508 Q3481.16 73.7508 3477.02 69.8619 Q3472.93 65.9325 3472.93 59.3701 Q3472.93 51.7138 3478.04 47.825 Q3483.18 43.9361 3493.35 43.9361 L3503.8 43.9361 L3503.8 43.2069 Q3503.8 38.0623 3500.4 35.2672 Q3497.03 32.4315 3490.92 32.4315 Q3487.03 32.4315 3483.34 33.3632 Q3479.66 34.295 3476.25 36.1584 L3476.25 29.2718 Q3480.34 27.692 3484.19 26.9223 Q3488.04 26.1121 3491.69 26.1121 Q3501.53 26.1121 3506.39 31.2163 Q3511.25 36.3204 3511.25 46.6907 Z" fill="#000000" fill-rule="nonzero" fill-opacity="1" /><path clip-path="url(#clip170)" d="M3573.6 49.7694 Q3564.56 49.7694 3561.08 51.8354 Q3557.6 53.9013 3557.6 58.8839 Q3557.6 62.8538 3560.19 65.2034 Q3562.82 67.5124 3567.32 67.5124 Q3573.52 67.5124 3577.24 63.1374 Q3581.01 58.7219 3581.01 51.4303 L3581.01 49.7694 L3573.6 49.7694 M3588.46 46.6907 L3588.46 72.576 L3581.01 72.576 L3581.01 65.6895 Q3578.46 69.8214 3574.65 71.8063 Q3570.84 73.7508 3565.33 73.7508 Q3558.37 73.7508 3554.23 69.8619 Q3550.14 65.9325 3550.14 59.3701 Q3550.14 51.7138 3555.25 47.825 Q3560.39 43.9361 3570.56 43.9361 L3581.01 43.9361 L3581.01 43.2069 Q3581.01 38.0623 3577.61 35.2672 Q3574.24 32.4315 3568.13 32.4315 Q3564.24 32.4315 3560.55 33.3632 Q3556.87 34.295 3553.46 36.1584 L3553.46 29.2718 Q3557.56 27.692 3561.4 26.9223 Q3565.25 26.1121 3568.9 26.1121 Q3578.74 26.1121 3583.6 31.2163 Q3588.46 36.3204 3588.46 46.6907 Z" fill="#000000" fill-rule="nonzero" fill-opacity="1" /><path clip-path="url(#clip170)" d="M3641.53 45.1919 L3641.53 72.576 L3634.08 72.576 L3634.08 45.4349 Q3634.08 38.994 3631.57 35.7938 Q3629.05 32.5936 3624.03 32.5936 Q3617.99 32.5936 3614.51 36.4419 Q3611.03 40.2903 3611.03 46.9338 L3611.03 72.576 L3603.53 72.576 L3603.53 27.2059 L3611.03 27.2059 L3611.03 34.2544 Q3613.7 30.163 3617.31 28.1376 Q3620.95 26.1121 3625.69 26.1121 Q3633.51 26.1121 3637.52 30.9732 Q3641.53 35.7938 3641.53 45.1919 Z" fill="#000000" fill-rule="nonzero" fill-opacity="1" /><path clip-path="url(#clip170)" d="M3686.25 34.0924 L3686.25 9.54393 L3693.71 9.54393 L3693.71 72.576 L3686.25 72.576 L3686.25 65.7705 Q3683.9 69.8214 3680.3 71.8063 Q3676.73 73.7508 3671.71 73.7508 Q3663.49 73.7508 3658.3 67.1883 Q3653.16 60.6258 3653.16 49.9314 Q3653.16 39.2371 3658.3 32.6746 Q3663.49 26.1121 3671.71 26.1121 Q3676.73 26.1121 3680.3 28.0971 Q3683.9 30.0415 3686.25 34.0924 M3660.85 49.9314 Q3660.85 58.1548 3664.22 62.8538 Q3667.62 67.5124 3673.53 67.5124 Q3679.45 67.5124 3682.85 62.8538 Q3686.25 58.1548 3686.25 49.9314 Q3686.25 41.7081 3682.85 37.0496 Q3679.45 32.3505 3673.53 32.3505 Q3667.62 32.3505 3664.22 37.0496 Q3660.85 41.7081 3660.85 49.9314 Z" fill="#000000" fill-rule="nonzero" fill-opacity="1" /><path clip-path="url(#clip170)" d="M3768 49.9314 Q3768 41.7081 3764.6 37.0496 Q3761.23 32.3505 3755.32 32.3505 Q3749.41 32.3505 3746 37.0496 Q3742.64 41.7081 3742.64 49.9314 Q3742.64 58.1548 3746 62.8538 Q3749.41 67.5124 3755.32 67.5124 Q3761.23 67.5124 3764.6 62.8538 Q3768 58.1548 3768 49.9314 M3742.64 34.0924 Q3744.99 30.0415 3748.56 28.0971 Q3752.16 26.1121 3757.14 26.1121 Q3765.41 26.1121 3770.55 32.6746 Q3775.74 39.2371 3775.74 49.9314 Q3775.74 60.6258 3770.55 67.1883 Q3765.41 73.7508 3757.14 73.7508 Q3752.16 73.7508 3748.56 71.8063 Q3744.99 69.8214 3742.64 65.7705 L3742.64 72.576 L3735.15 72.576 L3735.15 9.54393 L3742.64 9.54393 L3742.64 34.0924 Z" fill="#000000" fill-rule="nonzero" fill-opacity="1" /><path clip-path="url(#clip170)" d="M3790 29.6769 L3798.54 29.6769 L3798.54 39.9662 L3790 39.9662 L3790 29.6769 M3790 62.2867 L3798.54 62.2867 L3798.54 69.2543 L3791.9 82.2172 L3786.67 82.2172 L3790 69.2543 L3790 62.2867 Z" fill="#000000" fill-rule="nonzero" fill-opacity="1" /><path clip-path="url(#clip170)" d="M3842.74 12.096 L3853.76 12.096 L3880.57 62.6918 L3880.57 12.096 L3888.51 12.096 L3888.51 72.576 L3877.5 72.576 L3850.68 21.9802 L3850.68 72.576 L3842.74 72.576 L3842.74 12.096 Z" fill="#000000" fill-rule="nonzero" fill-opacity="1" /><path clip-path="url(#clip170)" d="M3905.45 34.9026 L3957.38 34.9026 L3957.38 41.7081 L3905.45 41.7081 L3905.45 34.9026 M3905.45 51.4303 L3957.38 51.4303 L3957.38 58.3168 L3905.45 58.3168 L3905.45 51.4303 Z" fill="#000000" fill-rule="nonzero" fill-opacity="1" /><path clip-path="url(#clip170)" d="M3999.83 39.9662 Q4005.71 41.222 4008.99 45.1919 Q4012.31 49.1618 4012.31 54.9951 Q4012.31 63.9476 4006.15 68.8492 Q3999.99 73.7508 3988.65 73.7508 Q3984.84 73.7508 3980.79 72.9811 Q3976.78 72.2519 3972.49 70.7531 L3972.49 62.8538 Q3975.89 64.8388 3979.94 65.8515 Q3983.99 66.8642 3988.41 66.8642 Q3996.11 66.8642 4000.12 63.826 Q4004.17 60.7879 4004.17 54.9951 Q4004.17 49.6479 4000.4 46.6502 Q3996.67 43.612 3989.99 43.612 L3982.94 43.612 L3982.94 36.8875 L3990.31 36.8875 Q3996.35 36.8875 3999.55 34.4975 Q4002.75 32.067 4002.75 27.5299 Q4002.75 22.8714 3999.43 20.4004 Q3996.15 17.8888 3989.99 17.8888 Q3986.63 17.8888 3982.78 18.618 Q3978.93 19.3471 3974.31 20.8865 L3974.31 13.5948 Q3978.97 12.2985 3983.02 11.6504 Q3987.11 11.0023 3990.72 11.0023 Q4000.04 11.0023 4005.46 15.2557 Q4010.89 19.4686 4010.89 26.6793 Q4010.89 31.7024 4008.02 35.1862 Q4005.14 38.6294 3999.83 39.9662 Z" fill="#000000" fill-rule="nonzero" fill-opacity="1" /><path clip-path="url(#clip170)" d="M4028.68 62.2867 L4037.22 62.2867 L4037.22 69.2543 L4030.58 82.2172 L4025.35 82.2172 L4028.68 69.2543 L4028.68 62.2867 Z" fill="#000000" fill-rule="nonzero" fill-opacity="1" /><path clip-path="url(#clip170)" d="M4097.38 16.633 L4118.32 72.576 L4110.42 72.576 L4097.7 39.0345 L4082.07 72.576 L4074.17 72.576 L4094.06 29.0693 L4091.06 21.0485 Q4089.16 15.9444 4084.82 15.9444 L4080.93 15.9444 L4080.93 9.54393 L4085.67 9.62495 Q4094.83 9.74648 4097.38 16.633 Z" fill="#000000" fill-rule="nonzero" fill-opacity="1" /><path clip-path="url(#clip170)" d="M4129.58 34.9026 L4181.52 34.9026 L4181.52 41.7081 L4129.58 41.7081 L4129.58 34.9026 M4129.58 51.4303 L4181.52 51.4303 L4181.52 58.3168 L4129.58 58.3168 L4129.58 51.4303 Z" fill="#000000" fill-rule="nonzero" fill-opacity="1" /><path clip-path="url(#clip170)" d="M4216.68 17.4837 Q4210.36 17.4837 4207.16 23.7221 Q4204 29.92 4204 42.3968 Q4204 54.833 4207.16 61.0714 Q4210.36 67.2693 4216.68 67.2693 Q4223.04 67.2693 4226.2 61.0714 Q4229.4 54.833 4229.4 42.3968 Q4229.4 29.92 4226.2 23.7221 Q4223.04 17.4837 4216.68 17.4837 M4216.68 11.0023 Q4226.85 11.0023 4232.19 19.0636 Q4237.58 27.0843 4237.58 42.3968 Q4237.58 57.6687 4232.19 65.73 Q4226.85 73.7508 4216.68 73.7508 Q4206.51 73.7508 4201.12 65.73 Q4195.78 57.6687 4195.78 42.3968 Q4195.78 27.0843 4201.12 19.0636 Q4206.51 11.0023 4216.68 11.0023 Z" fill="#000000" fill-rule="nonzero" fill-opacity="1" /><path clip-path="url(#clip170)" d="M4251.96 62.2867 L4260.51 62.2867 L4260.51 72.576 L4251.96 72.576 L4251.96 62.2867 Z" fill="#000000" fill-rule="nonzero" fill-opacity="1" /><path clip-path="url(#clip170)" d="M4279.75 65.6895 L4293.12 65.6895 L4293.12 19.5497 L4278.58 22.4663 L4278.58 15.0127 L4293.04 12.096 L4301.22 12.096 L4301.22 65.6895 L4314.59 65.6895 L4314.59 72.576 L4279.75 72.576 L4279.75 65.6895 Z" fill="#000000" fill-rule="nonzero" fill-opacity="1" /><polyline clip-path="url(#clip172)" style="stroke:#0000ff; stroke-linecap:round; stroke-linejoin:round; stroke-width:8; stroke-opacity:1; fill:none" points="351.881,3657.45 355.035,3657.45 "/>
<polyline clip-path="url(#clip172)" style="stroke:#0000ff; stroke-linecap:round; stroke-linejoin:round; stroke-width:4; stroke-opacity:1; fill:none" stroke-dasharray="16, 10" points="355.035,3657.45 355.035,3657.45 "/>
<polyline clip-path="url(#clip172)" style="stroke:#0000ff; stroke-linecap:round; stroke-linejoin:round; stroke-width:8; stroke-opacity:1; fill:none" points="355.035,3657.45 420.385,3657.45 "/>
<polyline clip-path="url(#clip172)" style="stroke:#0000ff; stroke-linecap:round; stroke-linejoin:round; stroke-width:4; stroke-opacity:1; fill:none" stroke-dasharray="16, 10" points="420.385,3657.45 420.385,3657.45 "/>
<polyline clip-path="url(#clip172)" style="stroke:#0000ff; stroke-linecap:round; stroke-linejoin:round; stroke-width:8; stroke-opacity:1; fill:none" points="420.385,3657.45 488.312,3657.45 "/>
<polyline clip-path="url(#clip172)" style="stroke:#0000ff; stroke-linecap:round; stroke-linejoin:round; stroke-width:4; stroke-opacity:1; fill:none" stroke-dasharray="16, 10" points="488.312,3657.45 488.312,3657.45 "/>
<polyline clip-path="url(#clip172)" style="stroke:#0000ff; stroke-linecap:round; stroke-linejoin:round; stroke-width:8; stroke-opacity:1; fill:none" points="488.312,3657.45 679.961,3657.45 "/>
<polyline clip-path="url(#clip172)" style="stroke:#0000ff; stroke-linecap:round; stroke-linejoin:round; stroke-width:4; stroke-opacity:1; fill:none" stroke-dasharray="16, 10" points="679.961,3657.45 679.961,2479.46 "/>
<polyline clip-path="url(#clip172)" style="stroke:#0000ff; stroke-linecap:round; stroke-linejoin:round; stroke-width:8; stroke-opacity:1; fill:none" points="679.961,2479.46 905.183,2479.46 "/>
<polyline clip-path="url(#clip172)" style="stroke:#0000ff; stroke-linecap:round; stroke-linejoin:round; stroke-width:4; stroke-opacity:1; fill:none" stroke-dasharray="16, 10" points="905.183,2479.46 905.183,2479.46 "/>
<polyline clip-path="url(#clip172)" style="stroke:#0000ff; stroke-linecap:round; stroke-linejoin:round; stroke-width:8; stroke-opacity:1; fill:none" points="905.183,2479.46 1556.46,2479.46 "/>
<polyline clip-path="url(#clip172)" style="stroke:#0000ff; stroke-linecap:round; stroke-linejoin:round; stroke-width:4; stroke-opacity:1; fill:none" stroke-dasharray="16, 10" points="1556.46,2479.46 1556.46,2479.46 "/>
<polyline clip-path="url(#clip172)" style="stroke:#0000ff; stroke-linecap:round; stroke-linejoin:round; stroke-width:8; stroke-opacity:1; fill:none" points="1556.46,2479.46 1833.91,2479.46 "/>
<polyline clip-path="url(#clip172)" style="stroke:#0000ff; stroke-linecap:round; stroke-linejoin:round; stroke-width:4; stroke-opacity:1; fill:none" stroke-dasharray="16, 10" points="1833.91,2479.46 1833.91,2479.46 "/>
<polyline clip-path="url(#clip172)" style="stroke:#0000ff; stroke-linecap:round; stroke-linejoin:round; stroke-width:8; stroke-opacity:1; fill:none" points="1833.91,2479.46 2104.38,2479.46 "/>
<polyline clip-path="url(#clip172)" style="stroke:#0000ff; stroke-linecap:round; stroke-linejoin:round; stroke-width:4; stroke-opacity:1; fill:none" stroke-dasharray="16, 10" points="2104.38,2479.46 2104.38,1301.46 "/>
<polyline clip-path="url(#clip172)" style="stroke:#0000ff; stroke-linecap:round; stroke-linejoin:round; stroke-width:8; stroke-opacity:1; fill:none" points="2104.38,1301.46 2209.82,1301.46 "/>
<polyline clip-path="url(#clip172)" style="stroke:#0000ff; stroke-linecap:round; stroke-linejoin:round; stroke-width:4; stroke-opacity:1; fill:none" stroke-dasharray="16, 10" points="2209.82,1301.46 2209.82,2479.46 "/>
<polyline clip-path="url(#clip172)" style="stroke:#0000ff; stroke-linecap:round; stroke-linejoin:round; stroke-width:8; stroke-opacity:1; fill:none" points="2209.82,2479.46 2234.45,2479.46 "/>
<polyline clip-path="url(#clip172)" style="stroke:#0000ff; stroke-linecap:round; stroke-linejoin:round; stroke-width:4; stroke-opacity:1; fill:none" stroke-dasharray="16, 10" points="2234.45,2479.46 2234.45,2479.46 "/>
<polyline clip-path="url(#clip172)" style="stroke:#0000ff; stroke-linecap:round; stroke-linejoin:round; stroke-width:8; stroke-opacity:1; fill:none" points="2234.45,2479.46 2356.67,2479.46 "/>
<polyline clip-path="url(#clip172)" style="stroke:#0000ff; stroke-linecap:round; stroke-linejoin:round; stroke-width:4; stroke-opacity:1; fill:none" stroke-dasharray="16, 10" points="2356.67,2479.46 2356.67,2479.46 "/>
<polyline clip-path="url(#clip172)" style="stroke:#0000ff; stroke-linecap:round; stroke-linejoin:round; stroke-width:8; stroke-opacity:1; fill:none" points="2356.67,2479.46 2472.85,2479.46 "/>
<polyline clip-path="url(#clip172)" style="stroke:#0000ff; stroke-linecap:round; stroke-linejoin:round; stroke-width:4; stroke-opacity:1; fill:none" stroke-dasharray="16, 10" points="2472.85,2479.46 2472.85,1301.46 "/>
<polyline clip-path="url(#clip172)" style="stroke:#0000ff; stroke-linecap:round; stroke-linejoin:round; stroke-width:8; stroke-opacity:1; fill:none" points="2472.85,1301.46 2574.03,1301.46 "/>
<polyline clip-path="url(#clip172)" style="stroke:#0000ff; stroke-linecap:round; stroke-linejoin:round; stroke-width:4; stroke-opacity:1; fill:none" stroke-dasharray="16, 10" points="2574.03,1301.46 2574.03,1301.46 "/>
<polyline clip-path="url(#clip172)" style="stroke:#0000ff; stroke-linecap:round; stroke-linejoin:round; stroke-width:8; stroke-opacity:1; fill:none" points="2574.03,1301.46 2680.74,1301.46 "/>
<polyline clip-path="url(#clip172)" style="stroke:#0000ff; stroke-linecap:round; stroke-linejoin:round; stroke-width:4; stroke-opacity:1; fill:none" stroke-dasharray="16, 10" points="2680.74,1301.46 2680.74,1301.46 "/>
<polyline clip-path="url(#clip172)" style="stroke:#0000ff; stroke-linecap:round; stroke-linejoin:round; stroke-width:8; stroke-opacity:1; fill:none" points="2680.74,1301.46 2684.37,1301.46 "/>
<polyline clip-path="url(#clip172)" style="stroke:#0000ff; stroke-linecap:round; stroke-linejoin:round; stroke-width:4; stroke-opacity:1; fill:none" stroke-dasharray="16, 10" points="2684.37,1301.46 2684.37,1301.46 "/>
<polyline clip-path="url(#clip172)" style="stroke:#0000ff; stroke-linecap:round; stroke-linejoin:round; stroke-width:8; stroke-opacity:1; fill:none" points="2684.37,1301.46 2792.06,1301.46 "/>
<polyline clip-path="url(#clip172)" style="stroke:#0000ff; stroke-linecap:round; stroke-linejoin:round; stroke-width:4; stroke-opacity:1; fill:none" stroke-dasharray="16, 10" points="2792.06,1301.46 2792.06,2479.46 "/>
<polyline clip-path="url(#clip172)" style="stroke:#0000ff; stroke-linecap:round; stroke-linejoin:round; stroke-width:8; stroke-opacity:1; fill:none" points="2792.06,2479.46 2821.46,2479.46 "/>
<polyline clip-path="url(#clip172)" style="stroke:#0000ff; stroke-linecap:round; stroke-linejoin:round; stroke-width:4; stroke-opacity:1; fill:none" stroke-dasharray="16, 10" points="2821.46,2479.46 2821.46,2479.46 "/>
<polyline clip-path="url(#clip172)" style="stroke:#0000ff; stroke-linecap:round; stroke-linejoin:round; stroke-width:8; stroke-opacity:1; fill:none" points="2821.46,2479.46 2991.7,2479.46 "/>
<polyline clip-path="url(#clip172)" style="stroke:#0000ff; stroke-linecap:round; stroke-linejoin:round; stroke-width:4; stroke-opacity:1; fill:none" stroke-dasharray="16, 10" points="2991.7,2479.46 2991.7,1301.46 "/>
<polyline clip-path="url(#clip172)" style="stroke:#0000ff; stroke-linecap:round; stroke-linejoin:round; stroke-width:8; stroke-opacity:1; fill:none" points="2991.7,1301.46 2993.08,1301.46 "/>
<polyline clip-path="url(#clip172)" style="stroke:#0000ff; stroke-linecap:round; stroke-linejoin:round; stroke-width:4; stroke-opacity:1; fill:none" stroke-dasharray="16, 10" points="2993.08,1301.46 2993.08,1301.46 "/>
<polyline clip-path="url(#clip172)" style="stroke:#0000ff; stroke-linecap:round; stroke-linejoin:round; stroke-width:8; stroke-opacity:1; fill:none" points="2993.08,1301.46 2995.44,1301.46 "/>
<polyline clip-path="url(#clip172)" style="stroke:#0000ff; stroke-linecap:round; stroke-linejoin:round; stroke-width:4; stroke-opacity:1; fill:none" stroke-dasharray="16, 10" points="2995.44,1301.46 2995.44,1301.46 "/>
<polyline clip-path="url(#clip172)" style="stroke:#0000ff; stroke-linecap:round; stroke-linejoin:round; stroke-width:8; stroke-opacity:1; fill:none" points="2995.44,1301.46 3120.17,1301.46 "/>
<polyline clip-path="url(#clip172)" style="stroke:#0000ff; stroke-linecap:round; stroke-linejoin:round; stroke-width:4; stroke-opacity:1; fill:none" stroke-dasharray="16, 10" points="3120.17,1301.46 3120.17,2479.46 "/>
<polyline clip-path="url(#clip172)" style="stroke:#0000ff; stroke-linecap:round; stroke-linejoin:round; stroke-width:8; stroke-opacity:1; fill:none" points="3120.17,2479.46 3280.78,2479.46 "/>
<polyline clip-path="url(#clip172)" style="stroke:#0000ff; stroke-linecap:round; stroke-linejoin:round; stroke-width:4; stroke-opacity:1; fill:none" stroke-dasharray="16, 10" points="3280.78,2479.46 3280.78,2479.46 "/>
<polyline clip-path="url(#clip172)" style="stroke:#0000ff; stroke-linecap:round; stroke-linejoin:round; stroke-width:8; stroke-opacity:1; fill:none" points="3280.78,2479.46 3475.51,2479.46 "/>
<polyline clip-path="url(#clip172)" style="stroke:#0000ff; stroke-linecap:round; stroke-linejoin:round; stroke-width:4; stroke-opacity:1; fill:none" stroke-dasharray="16, 10" points="3475.51,2479.46 3475.51,1301.46 "/>
<polyline clip-path="url(#clip172)" style="stroke:#0000ff; stroke-linecap:round; stroke-linejoin:round; stroke-width:8; stroke-opacity:1; fill:none" points="3475.51,1301.46 3476.6,1301.46 "/>
<polyline clip-path="url(#clip172)" style="stroke:#0000ff; stroke-linecap:round; stroke-linejoin:round; stroke-width:4; stroke-opacity:1; fill:none" stroke-dasharray="16, 10" points="3476.6,1301.46 3476.6,1301.46 "/>
<polyline clip-path="url(#clip172)" style="stroke:#0000ff; stroke-linecap:round; stroke-linejoin:round; stroke-width:8; stroke-opacity:1; fill:none" points="3476.6,1301.46 3596.07,1301.46 "/>
<polyline clip-path="url(#clip172)" style="stroke:#0000ff; stroke-linecap:round; stroke-linejoin:round; stroke-width:4; stroke-opacity:1; fill:none" stroke-dasharray="16, 10" points="3596.07,1301.46 3596.07,1301.46 "/>
<polyline clip-path="url(#clip172)" style="stroke:#0000ff; stroke-linecap:round; stroke-linejoin:round; stroke-width:8; stroke-opacity:1; fill:none" points="3596.07,1301.46 3616.44,1301.46 "/>
<polyline clip-path="url(#clip172)" style="stroke:#0000ff; stroke-linecap:round; stroke-linejoin:round; stroke-width:4; stroke-opacity:1; fill:none" stroke-dasharray="16, 10" points="3616.44,1301.46 3616.44,2479.46 "/>
<polyline clip-path="url(#clip172)" style="stroke:#0000ff; stroke-linecap:round; stroke-linejoin:round; stroke-width:8; stroke-opacity:1; fill:none" points="3616.44,2479.46 3644.7,2479.46 "/>
<polyline clip-path="url(#clip172)" style="stroke:#0000ff; stroke-linecap:round; stroke-linejoin:round; stroke-width:4; stroke-opacity:1; fill:none" stroke-dasharray="16, 10" points="3644.7,2479.46 3644.7,3657.45 "/>
<polyline clip-path="url(#clip172)" style="stroke:#0000ff; stroke-linecap:round; stroke-linejoin:round; stroke-width:8; stroke-opacity:1; fill:none" points="3644.7,3657.45 3644.99,3657.45 "/>
<polyline clip-path="url(#clip172)" style="stroke:#0000ff; stroke-linecap:round; stroke-linejoin:round; stroke-width:4; stroke-opacity:1; fill:none" stroke-dasharray="16, 10" points="3644.99,3657.45 3644.99,3657.45 "/>
<polyline clip-path="url(#clip172)" style="stroke:#0000ff; stroke-linecap:round; stroke-linejoin:round; stroke-width:8; stroke-opacity:1; fill:none" points="3644.99,3657.45 3773.18,3657.45 "/>
<polyline clip-path="url(#clip172)" style="stroke:#0000ff; stroke-linecap:round; stroke-linejoin:round; stroke-width:4; stroke-opacity:1; fill:none" stroke-dasharray="16, 10" points="3773.18,3657.45 3773.18,3657.45 "/>
<polyline clip-path="url(#clip172)" style="stroke:#0000ff; stroke-linecap:round; stroke-linejoin:round; stroke-width:8; stroke-opacity:1; fill:none" points="3773.18,3657.45 3925.88,3657.45 "/>
<polyline clip-path="url(#clip172)" style="stroke:#0000ff; stroke-linecap:round; stroke-linejoin:round; stroke-width:4; stroke-opacity:1; fill:none" stroke-dasharray="16, 10" points="3925.88,3657.45 3925.88,2479.46 "/>
<polyline clip-path="url(#clip172)" style="stroke:#0000ff; stroke-linecap:round; stroke-linejoin:round; stroke-width:8; stroke-opacity:1; fill:none" points="3925.88,2479.46 3991.19,2479.46 "/>
<polyline clip-path="url(#clip172)" style="stroke:#0000ff; stroke-linecap:round; stroke-linejoin:round; stroke-width:4; stroke-opacity:1; fill:none" stroke-dasharray="16, 10" points="3991.19,2479.46 3991.19,3657.45 "/>
<polyline clip-path="url(#clip172)" style="stroke:#0000ff; stroke-linecap:round; stroke-linejoin:round; stroke-width:8; stroke-opacity:1; fill:none" points="3991.19,3657.45 4272.2,3657.45 "/>
<polyline clip-path="url(#clip172)" style="stroke:#0000ff; stroke-linecap:round; stroke-linejoin:round; stroke-width:4; stroke-opacity:1; fill:none" stroke-dasharray="16, 10" points="4272.2,3657.45 4272.2,2479.46 "/>
<polyline clip-path="url(#clip172)" style="stroke:#0000ff; stroke-linecap:round; stroke-linejoin:round; stroke-width:8; stroke-opacity:1; fill:none" points="4272.2,2479.46 4691.4,2479.46 "/>
<polyline clip-path="url(#clip172)" style="stroke:#0000ff; stroke-linecap:round; stroke-linejoin:round; stroke-width:4; stroke-opacity:1; fill:none" stroke-dasharray="16, 10" points="4691.4,2479.46 4691.4,3657.45 "/>
<polyline clip-path="url(#clip172)" style="stroke:#0000ff; stroke-linecap:round; stroke-linejoin:round; stroke-width:8; stroke-opacity:1; fill:none" points="4691.4,3657.45 5161.51,3657.45 "/>
<polyline clip-path="url(#clip172)" style="stroke:#0000ff; stroke-linecap:round; stroke-linejoin:round; stroke-width:4; stroke-opacity:1; fill:none" stroke-dasharray="16, 10" points="5161.51,3657.45 5161.51,3657.45 "/>
<polyline clip-path="url(#clip172)" style="stroke:#0000ff; stroke-linecap:round; stroke-linejoin:round; stroke-width:8; stroke-opacity:1; fill:none" points="5161.51,3657.45 5218.16,3657.45 "/>
<polyline clip-path="url(#clip172)" style="stroke:#0000ff; stroke-linecap:round; stroke-linejoin:round; stroke-width:4; stroke-opacity:1; fill:none" stroke-dasharray="16, 10" points="5218.16,3657.45 5218.16,3657.45 "/>
<polyline clip-path="url(#clip172)" style="stroke:#0000ff; stroke-linecap:round; stroke-linejoin:round; stroke-width:8; stroke-opacity:1; fill:none" points="5218.16,3657.45 5309.72,3657.45 "/>
<polyline clip-path="url(#clip172)" style="stroke:#0000ff; stroke-linecap:round; stroke-linejoin:round; stroke-width:4; stroke-opacity:1; fill:none" stroke-dasharray="16, 10" points="5309.72,3657.45 5309.72,3657.45 "/>
<polyline clip-path="url(#clip172)" style="stroke:#0000ff; stroke-linecap:round; stroke-linejoin:round; stroke-width:8; stroke-opacity:1; fill:none" points="5309.72,3657.45 5345.89,3657.45 "/>
<polyline clip-path="url(#clip172)" style="stroke:#0000ff; stroke-linecap:round; stroke-linejoin:round; stroke-width:4; stroke-opacity:1; fill:none" stroke-dasharray="16, 10" points="5345.89,3657.45 5345.89,2479.46 "/>
<polyline clip-path="url(#clip172)" style="stroke:#0000ff; stroke-linecap:round; stroke-linejoin:round; stroke-width:8; stroke-opacity:1; fill:none" points="5345.89,2479.46 5450.2,2479.46 "/>
<polyline clip-path="url(#clip172)" style="stroke:#0000ff; stroke-linecap:round; stroke-linejoin:round; stroke-width:4; stroke-opacity:1; fill:none" stroke-dasharray="16, 10" points="5450.2,2479.46 5450.2,1301.46 "/>
<polyline clip-path="url(#clip172)" style="stroke:#0000ff; stroke-linecap:round; stroke-linejoin:round; stroke-width:8; stroke-opacity:1; fill:none" points="5450.2,1301.46 5454.5,1301.46 "/>
<polyline clip-path="url(#clip172)" style="stroke:#0000ff; stroke-linecap:round; stroke-linejoin:round; stroke-width:4; stroke-opacity:1; fill:none" stroke-dasharray="16, 10" points="5454.5,1301.46 5454.5,2479.46 "/>
<polyline clip-path="url(#clip172)" style="stroke:#0000ff; stroke-linecap:round; stroke-linejoin:round; stroke-width:8; stroke-opacity:1; fill:none" points="5454.5,2479.46 5558.89,2479.46 "/>
<polyline clip-path="url(#clip172)" style="stroke:#0000ff; stroke-linecap:round; stroke-linejoin:round; stroke-width:4; stroke-opacity:1; fill:none" stroke-dasharray="16, 10" points="5558.89,2479.46 5558.89,2479.46 "/>
<polyline clip-path="url(#clip172)" style="stroke:#0000ff; stroke-linecap:round; stroke-linejoin:round; stroke-width:8; stroke-opacity:1; fill:none" points="5558.89,2479.46 5811.02,2479.46 "/>
<polyline clip-path="url(#clip172)" style="stroke:#ff0000; stroke-linecap:round; stroke-linejoin:round; stroke-width:8; stroke-opacity:1; fill:none" points="351.881,3657.45 355.035,3657.45 "/>
<polyline clip-path="url(#clip172)" style="stroke:#ff0000; stroke-linecap:round; stroke-linejoin:round; stroke-width:4; stroke-opacity:1; fill:none" stroke-dasharray="16, 10" points="355.035,3657.45 355.035,2479.46 "/>
<polyline clip-path="url(#clip172)" style="stroke:#ff0000; stroke-linecap:round; stroke-linejoin:round; stroke-width:8; stroke-opacity:1; fill:none" points="355.035,2479.46 420.385,2479.46 "/>
<polyline clip-path="url(#clip172)" style="stroke:#ff0000; stroke-linecap:round; stroke-linejoin:round; stroke-width:4; stroke-opacity:1; fill:none" stroke-dasharray="16, 10" points="420.385,2479.46 420.385,3657.45 "/>
<polyline clip-path="url(#clip172)" style="stroke:#ff0000; stroke-linecap:round; stroke-linejoin:round; stroke-width:8; stroke-opacity:1; fill:none" points="420.385,3657.45 488.312,3657.45 "/>
<polyline clip-path="url(#clip172)" style="stroke:#ff0000; stroke-linecap:round; stroke-linejoin:round; stroke-width:4; stroke-opacity:1; fill:none" stroke-dasharray="16, 10" points="488.312,3657.45 488.312,2479.46 "/>
<polyline clip-path="url(#clip172)" style="stroke:#ff0000; stroke-linecap:round; stroke-linejoin:round; stroke-width:8; stroke-opacity:1; fill:none" points="488.312,2479.46 679.961,2479.46 "/>
<polyline clip-path="url(#clip172)" style="stroke:#ff0000; stroke-linecap:round; stroke-linejoin:round; stroke-width:4; stroke-opacity:1; fill:none" stroke-dasharray="16, 10" points="679.961,2479.46 679.961,2479.46 "/>
<polyline clip-path="url(#clip172)" style="stroke:#ff0000; stroke-linecap:round; stroke-linejoin:round; stroke-width:8; stroke-opacity:1; fill:none" points="679.961,2479.46 905.183,2479.46 "/>
<polyline clip-path="url(#clip172)" style="stroke:#ff0000; stroke-linecap:round; stroke-linejoin:round; stroke-width:4; stroke-opacity:1; fill:none" stroke-dasharray="16, 10" points="905.183,2479.46 905.183,1301.46 "/>
<polyline clip-path="url(#clip172)" style="stroke:#ff0000; stroke-linecap:round; stroke-linejoin:round; stroke-width:8; stroke-opacity:1; fill:none" points="905.183,1301.46 1556.46,1301.46 "/>
<polyline clip-path="url(#clip172)" style="stroke:#ff0000; stroke-linecap:round; stroke-linejoin:round; stroke-width:4; stroke-opacity:1; fill:none" stroke-dasharray="16, 10" points="1556.46,1301.46 1556.46,123.472 "/>
<polyline clip-path="url(#clip172)" style="stroke:#ff0000; stroke-linecap:round; stroke-linejoin:round; stroke-width:8; stroke-opacity:1; fill:none" points="1556.46,123.472 1833.91,123.472 "/>
<polyline clip-path="url(#clip172)" style="stroke:#ff0000; stroke-linecap:round; stroke-linejoin:round; stroke-width:4; stroke-opacity:1; fill:none" stroke-dasharray="16, 10" points="1833.91,123.472 1833.91,1301.46 "/>
<polyline clip-path="url(#clip172)" style="stroke:#ff0000; stroke-linecap:round; stroke-linejoin:round; stroke-width:8; stroke-opacity:1; fill:none" points="1833.91,1301.46 2104.38,1301.46 "/>
<polyline clip-path="url(#clip172)" style="stroke:#ff0000; stroke-linecap:round; stroke-linejoin:round; stroke-width:4; stroke-opacity:1; fill:none" stroke-dasharray="16, 10" points="2104.38,1301.46 2104.38,1301.46 "/>
<polyline clip-path="url(#clip172)" style="stroke:#ff0000; stroke-linecap:round; stroke-linejoin:round; stroke-width:8; stroke-opacity:1; fill:none" points="2104.38,1301.46 2209.82,1301.46 "/>
<polyline clip-path="url(#clip172)" style="stroke:#ff0000; stroke-linecap:round; stroke-linejoin:round; stroke-width:4; stroke-opacity:1; fill:none" stroke-dasharray="16, 10" points="2209.82,1301.46 2209.82,1301.46 "/>
<polyline clip-path="url(#clip172)" style="stroke:#ff0000; stroke-linecap:round; stroke-linejoin:round; stroke-width:8; stroke-opacity:1; fill:none" points="2209.82,1301.46 2234.45,1301.46 "/>
<polyline clip-path="url(#clip172)" style="stroke:#ff0000; stroke-linecap:round; stroke-linejoin:round; stroke-width:4; stroke-opacity:1; fill:none" stroke-dasharray="16, 10" points="2234.45,1301.46 2234.45,2479.46 "/>
<polyline clip-path="url(#clip172)" style="stroke:#ff0000; stroke-linecap:round; stroke-linejoin:round; stroke-width:8; stroke-opacity:1; fill:none" points="2234.45,2479.46 2356.67,2479.46 "/>
<polyline clip-path="url(#clip172)" style="stroke:#ff0000; stroke-linecap:round; stroke-linejoin:round; stroke-width:4; stroke-opacity:1; fill:none" stroke-dasharray="16, 10" points="2356.67,2479.46 2356.67,3657.45 "/>
<polyline clip-path="url(#clip172)" style="stroke:#ff0000; stroke-linecap:round; stroke-linejoin:round; stroke-width:8; stroke-opacity:1; fill:none" points="2356.67,3657.45 2472.85,3657.45 "/>
<polyline clip-path="url(#clip172)" style="stroke:#ff0000; stroke-linecap:round; stroke-linejoin:round; stroke-width:4; stroke-opacity:1; fill:none" stroke-dasharray="16, 10" points="2472.85,3657.45 2472.85,3657.45 "/>
<polyline clip-path="url(#clip172)" style="stroke:#ff0000; stroke-linecap:round; stroke-linejoin:round; stroke-width:8; stroke-opacity:1; fill:none" points="2472.85,3657.45 2574.03,3657.45 "/>
<polyline clip-path="url(#clip172)" style="stroke:#ff0000; stroke-linecap:round; stroke-linejoin:round; stroke-width:4; stroke-opacity:1; fill:none" stroke-dasharray="16, 10" points="2574.03,3657.45 2574.03,3657.45 "/>
<polyline clip-path="url(#clip172)" style="stroke:#ff0000; stroke-linecap:round; stroke-linejoin:round; stroke-width:8; stroke-opacity:1; fill:none" points="2574.03,3657.45 2680.74,3657.45 "/>
<polyline clip-path="url(#clip172)" style="stroke:#ff0000; stroke-linecap:round; stroke-linejoin:round; stroke-width:4; stroke-opacity:1; fill:none" stroke-dasharray="16, 10" points="2680.74,3657.45 2680.74,2479.46 "/>
<polyline clip-path="url(#clip172)" style="stroke:#ff0000; stroke-linecap:round; stroke-linejoin:round; stroke-width:8; stroke-opacity:1; fill:none" points="2680.74,2479.46 2684.37,2479.46 "/>
<polyline clip-path="url(#clip172)" style="stroke:#ff0000; stroke-linecap:round; stroke-linejoin:round; stroke-width:4; stroke-opacity:1; fill:none" stroke-dasharray="16, 10" points="2684.37,2479.46 2684.37,3657.45 "/>
<polyline clip-path="url(#clip172)" style="stroke:#ff0000; stroke-linecap:round; stroke-linejoin:round; stroke-width:8; stroke-opacity:1; fill:none" points="2684.37,3657.45 2792.06,3657.45 "/>
<polyline clip-path="url(#clip172)" style="stroke:#ff0000; stroke-linecap:round; stroke-linejoin:round; stroke-width:4; stroke-opacity:1; fill:none" stroke-dasharray="16, 10" points="2792.06,3657.45 2792.06,3657.45 "/>
<polyline clip-path="url(#clip172)" style="stroke:#ff0000; stroke-linecap:round; stroke-linejoin:round; stroke-width:8; stroke-opacity:1; fill:none" points="2792.06,3657.45 2821.46,3657.45 "/>
<polyline clip-path="url(#clip172)" style="stroke:#ff0000; stroke-linecap:round; stroke-linejoin:round; stroke-width:4; stroke-opacity:1; fill:none" stroke-dasharray="16, 10" points="2821.46,3657.45 2821.46,3657.45 "/>
<polyline clip-path="url(#clip172)" style="stroke:#ff0000; stroke-linecap:round; stroke-linejoin:round; stroke-width:8; stroke-opacity:1; fill:none" points="2821.46,3657.45 2991.7,3657.45 "/>
<polyline clip-path="url(#clip172)" style="stroke:#ff0000; stroke-linecap:round; stroke-linejoin:round; stroke-width:4; stroke-opacity:1; fill:none" stroke-dasharray="16, 10" points="2991.7,3657.45 2991.7,3657.45 "/>
<polyline clip-path="url(#clip172)" style="stroke:#ff0000; stroke-linecap:round; stroke-linejoin:round; stroke-width:8; stroke-opacity:1; fill:none" points="2991.7,3657.45 2993.08,3657.45 "/>
<polyline clip-path="url(#clip172)" style="stroke:#ff0000; stroke-linecap:round; stroke-linejoin:round; stroke-width:4; stroke-opacity:1; fill:none" stroke-dasharray="16, 10" points="2993.08,3657.45 2993.08,2479.46 "/>
<polyline clip-path="url(#clip172)" style="stroke:#ff0000; stroke-linecap:round; stroke-linejoin:round; stroke-width:8; stroke-opacity:1; fill:none" points="2993.08,2479.46 2995.44,2479.46 "/>
<polyline clip-path="url(#clip172)" style="stroke:#ff0000; stroke-linecap:round; stroke-linejoin:round; stroke-width:4; stroke-opacity:1; fill:none" stroke-dasharray="16, 10" points="2995.44,2479.46 2995.44,3657.45 "/>
<polyline clip-path="url(#clip172)" style="stroke:#ff0000; stroke-linecap:round; stroke-linejoin:round; stroke-width:8; stroke-opacity:1; fill:none" points="2995.44,3657.45 3120.17,3657.45 "/>
<polyline clip-path="url(#clip172)" style="stroke:#ff0000; stroke-linecap:round; stroke-linejoin:round; stroke-width:4; stroke-opacity:1; fill:none" stroke-dasharray="16, 10" points="3120.17,3657.45 3120.17,3657.45 "/>
<polyline clip-path="url(#clip172)" style="stroke:#ff0000; stroke-linecap:round; stroke-linejoin:round; stroke-width:8; stroke-opacity:1; fill:none" points="3120.17,3657.45 3280.78,3657.45 "/>
<polyline clip-path="url(#clip172)" style="stroke:#ff0000; stroke-linecap:round; stroke-linejoin:round; stroke-width:4; stroke-opacity:1; fill:none" stroke-dasharray="16, 10" points="3280.78,3657.45 3280.78,2479.46 "/>
<polyline clip-path="url(#clip172)" style="stroke:#ff0000; stroke-linecap:round; stroke-linejoin:round; stroke-width:8; stroke-opacity:1; fill:none" points="3280.78,2479.46 3475.51,2479.46 "/>
<polyline clip-path="url(#clip172)" style="stroke:#ff0000; stroke-linecap:round; stroke-linejoin:round; stroke-width:4; stroke-opacity:1; fill:none" stroke-dasharray="16, 10" points="3475.51,2479.46 3475.51,2479.46 "/>
<polyline clip-path="url(#clip172)" style="stroke:#ff0000; stroke-linecap:round; stroke-linejoin:round; stroke-width:8; stroke-opacity:1; fill:none" points="3475.51,2479.46 3476.6,2479.46 "/>
<polyline clip-path="url(#clip172)" style="stroke:#ff0000; stroke-linecap:round; stroke-linejoin:round; stroke-width:4; stroke-opacity:1; fill:none" stroke-dasharray="16, 10" points="3476.6,2479.46 3476.6,2479.46 "/>
<polyline clip-path="url(#clip172)" style="stroke:#ff0000; stroke-linecap:round; stroke-linejoin:round; stroke-width:8; stroke-opacity:1; fill:none" points="3476.6,2479.46 3596.07,2479.46 "/>
<polyline clip-path="url(#clip172)" style="stroke:#ff0000; stroke-linecap:round; stroke-linejoin:round; stroke-width:4; stroke-opacity:1; fill:none" stroke-dasharray="16, 10" points="3596.07,2479.46 3596.07,2479.46 "/>
<polyline clip-path="url(#clip172)" style="stroke:#ff0000; stroke-linecap:round; stroke-linejoin:round; stroke-width:8; stroke-opacity:1; fill:none" points="3596.07,2479.46 3616.44,2479.46 "/>
<polyline clip-path="url(#clip172)" style="stroke:#ff0000; stroke-linecap:round; stroke-linejoin:round; stroke-width:4; stroke-opacity:1; fill:none" stroke-dasharray="16, 10" points="3616.44,2479.46 3616.44,2479.46 "/>
<polyline clip-path="url(#clip172)" style="stroke:#ff0000; stroke-linecap:round; stroke-linejoin:round; stroke-width:8; stroke-opacity:1; fill:none" points="3616.44,2479.46 3644.7,2479.46 "/>
<polyline clip-path="url(#clip172)" style="stroke:#ff0000; stroke-linecap:round; stroke-linejoin:round; stroke-width:4; stroke-opacity:1; fill:none" stroke-dasharray="16, 10" points="3644.7,2479.46 3644.7,2479.46 "/>
<polyline clip-path="url(#clip172)" style="stroke:#ff0000; stroke-linecap:round; stroke-linejoin:round; stroke-width:8; stroke-opacity:1; fill:none" points="3644.7,2479.46 3644.99,2479.46 "/>
<polyline clip-path="url(#clip172)" style="stroke:#ff0000; stroke-linecap:round; stroke-linejoin:round; stroke-width:4; stroke-opacity:1; fill:none" stroke-dasharray="16, 10" points="3644.99,2479.46 3644.99,3657.45 "/>
<polyline clip-path="url(#clip172)" style="stroke:#ff0000; stroke-linecap:round; stroke-linejoin:round; stroke-width:8; stroke-opacity:1; fill:none" points="3644.99,3657.45 3773.18,3657.45 "/>
<polyline clip-path="url(#clip172)" style="stroke:#ff0000; stroke-linecap:round; stroke-linejoin:round; stroke-width:4; stroke-opacity:1; fill:none" stroke-dasharray="16, 10" points="3773.18,3657.45 3773.18,3657.45 "/>
<polyline clip-path="url(#clip172)" style="stroke:#ff0000; stroke-linecap:round; stroke-linejoin:round; stroke-width:8; stroke-opacity:1; fill:none" points="3773.18,3657.45 3925.88,3657.45 "/>
<polyline clip-path="url(#clip172)" style="stroke:#ff0000; stroke-linecap:round; stroke-linejoin:round; stroke-width:4; stroke-opacity:1; fill:none" stroke-dasharray="16, 10" points="3925.88,3657.45 3925.88,3657.45 "/>
<polyline clip-path="url(#clip172)" style="stroke:#ff0000; stroke-linecap:round; stroke-linejoin:round; stroke-width:8; stroke-opacity:1; fill:none" points="3925.88,3657.45 3991.19,3657.45 "/>
<polyline clip-path="url(#clip172)" style="stroke:#ff0000; stroke-linecap:round; stroke-linejoin:round; stroke-width:4; stroke-opacity:1; fill:none" stroke-dasharray="16, 10" points="3991.19,3657.45 3991.19,3657.45 "/>
<polyline clip-path="url(#clip172)" style="stroke:#ff0000; stroke-linecap:round; stroke-linejoin:round; stroke-width:8; stroke-opacity:1; fill:none" points="3991.19,3657.45 4272.2,3657.45 "/>
<polyline clip-path="url(#clip172)" style="stroke:#ff0000; stroke-linecap:round; stroke-linejoin:round; stroke-width:4; stroke-opacity:1; fill:none" stroke-dasharray="16, 10" points="4272.2,3657.45 4272.2,3657.45 "/>
<polyline clip-path="url(#clip172)" style="stroke:#ff0000; stroke-linecap:round; stroke-linejoin:round; stroke-width:8; stroke-opacity:1; fill:none" points="4272.2,3657.45 4691.4,3657.45 "/>
<polyline clip-path="url(#clip172)" style="stroke:#ff0000; stroke-linecap:round; stroke-linejoin:round; stroke-width:4; stroke-opacity:1; fill:none" stroke-dasharray="16, 10" points="4691.4,3657.45 4691.4,3657.45 "/>
<polyline clip-path="url(#clip172)" style="stroke:#ff0000; stroke-linecap:round; stroke-linejoin:round; stroke-width:8; stroke-opacity:1; fill:none" points="4691.4,3657.45 5161.51,3657.45 "/>
<polyline clip-path="url(#clip172)" style="stroke:#ff0000; stroke-linecap:round; stroke-linejoin:round; stroke-width:4; stroke-opacity:1; fill:none" stroke-dasharray="16, 10" points="5161.51,3657.45 5161.51,2479.46 "/>
<polyline clip-path="url(#clip172)" style="stroke:#ff0000; stroke-linecap:round; stroke-linejoin:round; stroke-width:8; stroke-opacity:1; fill:none" points="5161.51,2479.46 5218.16,2479.46 "/>
<polyline clip-path="url(#clip172)" style="stroke:#ff0000; stroke-linecap:round; stroke-linejoin:round; stroke-width:4; stroke-opacity:1; fill:none" stroke-dasharray="16, 10" points="5218.16,2479.46 5218.16,3657.45 "/>
<polyline clip-path="url(#clip172)" style="stroke:#ff0000; stroke-linecap:round; stroke-linejoin:round; stroke-width:8; stroke-opacity:1; fill:none" points="5218.16,3657.45 5309.72,3657.45 "/>
<polyline clip-path="url(#clip172)" style="stroke:#ff0000; stroke-linecap:round; stroke-linejoin:round; stroke-width:4; stroke-opacity:1; fill:none" stroke-dasharray="16, 10" points="5309.72,3657.45 5309.72,3657.45 "/>
<polyline clip-path="url(#clip172)" style="stroke:#ff0000; stroke-linecap:round; stroke-linejoin:round; stroke-width:8; stroke-opacity:1; fill:none" points="5309.72,3657.45 5345.89,3657.45 "/>
<polyline clip-path="url(#clip172)" style="stroke:#ff0000; stroke-linecap:round; stroke-linejoin:round; stroke-width:4; stroke-opacity:1; fill:none" stroke-dasharray="16, 10" points="5345.89,3657.45 5345.89,3657.45 "/>
<polyline clip-path="url(#clip172)" style="stroke:#ff0000; stroke-linecap:round; stroke-linejoin:round; stroke-width:8; stroke-opacity:1; fill:none" points="5345.89,3657.45 5450.2,3657.45 "/>
<polyline clip-path="url(#clip172)" style="stroke:#ff0000; stroke-linecap:round; stroke-linejoin:round; stroke-width:4; stroke-opacity:1; fill:none" stroke-dasharray="16, 10" points="5450.2,3657.45 5450.2,3657.45 "/>
<polyline clip-path="url(#clip172)" style="stroke:#ff0000; stroke-linecap:round; stroke-linejoin:round; stroke-width:8; stroke-opacity:1; fill:none" points="5450.2,3657.45 5454.5,3657.45 "/>
<polyline clip-path="url(#clip172)" style="stroke:#ff0000; stroke-linecap:round; stroke-linejoin:round; stroke-width:4; stroke-opacity:1; fill:none" stroke-dasharray="16, 10" points="5454.5,3657.45 5454.5,3657.45 "/>
<polyline clip-path="url(#clip172)" style="stroke:#ff0000; stroke-linecap:round; stroke-linejoin:round; stroke-width:8; stroke-opacity:1; fill:none" points="5454.5,3657.45 5558.89,3657.45 "/>
<polyline clip-path="url(#clip172)" style="stroke:#ff0000; stroke-linecap:round; stroke-linejoin:round; stroke-width:4; stroke-opacity:1; fill:none" stroke-dasharray="16, 10" points="5558.89,3657.45 5558.89,2479.46 "/>
<polyline clip-path="url(#clip172)" style="stroke:#ff0000; stroke-linecap:round; stroke-linejoin:round; stroke-width:8; stroke-opacity:1; fill:none" points="5558.89,2479.46 5811.02,2479.46 "/>
<path clip-path="url(#clip170)" d="M4954.62 396.791 L5629.05 396.791 L5629.05 241.271 L4954.62 241.271  Z" fill="#ffffff" fill-rule="evenodd" fill-opacity="1"/>
<polyline clip-path="url(#clip170)" style="stroke:#000000; stroke-linecap:round; stroke-linejoin:round; stroke-width:4; stroke-opacity:1; fill:none" points="4954.62,396.791 5629.05,396.791 5629.05,241.271 4954.62,241.271 4954.62,396.791 "/>
<polyline clip-path="url(#clip170)" style="stroke:#0000ff; stroke-linecap:round; stroke-linejoin:round; stroke-width:8; stroke-opacity:1; fill:none" points="5015.28,293.111 5379.22,293.111 "/>
<path clip-path="url(#clip170)" d="M5467.75 278.493 L5467.75 283.424 Q5465.39 281.225 5462.7 280.137 Q5460.04 279.049 5457.03 279.049 Q5451.1 279.049 5447.96 282.683 Q5444.81 286.294 5444.81 293.146 Q5444.81 299.975 5447.96 303.609 Q5451.1 307.22 5457.03 307.22 Q5460.04 307.22 5462.7 306.132 Q5465.39 305.044 5467.75 302.845 L5467.75 307.729 Q5465.29 309.396 5462.54 310.229 Q5459.81 311.063 5456.75 311.063 Q5448.9 311.063 5444.39 306.271 Q5439.88 301.456 5439.88 293.146 Q5439.88 284.813 5444.39 280.021 Q5448.9 275.206 5456.75 275.206 Q5459.85 275.206 5462.59 276.04 Q5465.34 276.85 5467.75 278.493 Z" fill="#000000" fill-rule="nonzero" fill-opacity="1" /><path clip-path="url(#clip170)" d="M5496.96 296.364 L5496.96 298.447 L5477.38 298.447 Q5477.65 302.845 5480.02 305.16 Q5482.4 307.452 5486.64 307.452 Q5489.09 307.452 5491.38 306.85 Q5493.7 306.248 5495.96 305.044 L5495.96 309.072 Q5493.67 310.044 5491.27 310.553 Q5488.86 311.063 5486.38 311.063 Q5480.18 311.063 5476.54 307.452 Q5472.93 303.84 5472.93 297.683 Q5472.93 291.317 5476.36 287.591 Q5479.81 283.841 5485.64 283.841 Q5490.87 283.841 5493.9 287.22 Q5496.96 290.577 5496.96 296.364 M5492.7 295.114 Q5492.65 291.618 5490.73 289.535 Q5488.84 287.452 5485.69 287.452 Q5482.12 287.452 5479.97 289.465 Q5477.84 291.479 5477.52 295.137 L5492.7 295.114 Z" fill="#000000" fill-rule="nonzero" fill-opacity="1" /><path clip-path="url(#clip170)" d="M5503.95 274.373 L5508.21 274.373 L5508.21 310.391 L5503.95 310.391 L5503.95 274.373 Z" fill="#000000" fill-rule="nonzero" fill-opacity="1" /><path clip-path="url(#clip170)" d="M5517.12 274.373 L5521.38 274.373 L5521.38 310.391 L5517.12 310.391 L5517.12 274.373 Z" fill="#000000" fill-rule="nonzero" fill-opacity="1" /><path clip-path="url(#clip170)" d="M5557.15 297.359 Q5551.98 297.359 5549.99 298.54 Q5548 299.72 5548 302.567 Q5548 304.836 5549.48 306.178 Q5550.99 307.498 5553.56 307.498 Q5557.1 307.498 5559.23 304.998 Q5561.38 302.475 5561.38 298.308 L5561.38 297.359 L5557.15 297.359 M5565.64 295.6 L5565.64 310.391 L5561.38 310.391 L5561.38 306.456 Q5559.92 308.817 5557.75 309.951 Q5555.57 311.063 5552.42 311.063 Q5548.44 311.063 5546.08 308.84 Q5543.74 306.595 5543.74 302.845 Q5543.74 298.47 5546.66 296.248 Q5549.6 294.026 5555.41 294.026 L5561.38 294.026 L5561.38 293.609 Q5561.38 290.669 5559.44 289.072 Q5557.52 287.452 5554.02 287.452 Q5551.8 287.452 5549.69 287.984 Q5547.58 288.516 5545.64 289.581 L5545.64 285.646 Q5547.98 284.743 5550.18 284.303 Q5552.38 283.841 5554.46 283.841 Q5560.08 283.841 5562.86 286.757 Q5565.64 289.674 5565.64 295.6 Z" fill="#000000" fill-rule="nonzero" fill-opacity="1" /><polyline clip-path="url(#clip170)" style="stroke:#ff0000; stroke-linecap:round; stroke-linejoin:round; stroke-width:8; stroke-opacity:1; fill:none" points="5015.28,344.951 5379.22,344.951 "/>
<path clip-path="url(#clip170)" d="M5467.75 330.333 L5467.75 335.264 Q5465.39 333.065 5462.7 331.977 Q5460.04 330.889 5457.03 330.889 Q5451.1 330.889 5447.96 334.523 Q5444.81 338.134 5444.81 344.986 Q5444.81 351.815 5447.96 355.449 Q5451.1 359.06 5457.03 359.06 Q5460.04 359.06 5462.7 357.972 Q5465.39 356.884 5467.75 354.685 L5467.75 359.569 Q5465.29 361.236 5462.54 362.069 Q5459.81 362.903 5456.75 362.903 Q5448.9 362.903 5444.39 358.111 Q5439.88 353.296 5439.88 344.986 Q5439.88 336.653 5444.39 331.861 Q5448.9 327.046 5456.75 327.046 Q5459.85 327.046 5462.59 327.88 Q5465.34 328.69 5467.75 330.333 Z" fill="#000000" fill-rule="nonzero" fill-opacity="1" /><path clip-path="url(#clip170)" d="M5496.96 348.204 L5496.96 350.287 L5477.38 350.287 Q5477.65 354.685 5480.02 357 Q5482.4 359.292 5486.64 359.292 Q5489.09 359.292 5491.38 358.69 Q5493.7 358.088 5495.96 356.884 L5495.96 360.912 Q5493.67 361.884 5491.27 362.393 Q5488.86 362.903 5486.38 362.903 Q5480.18 362.903 5476.54 359.292 Q5472.93 355.68 5472.93 349.523 Q5472.93 343.157 5476.36 339.431 Q5479.81 335.681 5485.64 335.681 Q5490.87 335.681 5493.9 339.06 Q5496.96 342.417 5496.96 348.204 M5492.7 346.954 Q5492.65 343.458 5490.73 341.375 Q5488.84 339.292 5485.69 339.292 Q5482.12 339.292 5479.97 341.305 Q5477.84 343.319 5477.52 346.977 L5492.7 346.954 Z" fill="#000000" fill-rule="nonzero" fill-opacity="1" /><path clip-path="url(#clip170)" d="M5503.95 326.213 L5508.21 326.213 L5508.21 362.231 L5503.95 362.231 L5503.95 326.213 Z" fill="#000000" fill-rule="nonzero" fill-opacity="1" /><path clip-path="url(#clip170)" d="M5517.12 326.213 L5521.38 326.213 L5521.38 362.231 L5517.12 362.231 L5517.12 326.213 Z" fill="#000000" fill-rule="nonzero" fill-opacity="1" /><path clip-path="url(#clip170)" d="M5563.97 349.292 Q5563.97 344.593 5562.03 341.93 Q5560.11 339.245 5556.73 339.245 Q5553.35 339.245 5551.4 341.93 Q5549.48 344.593 5549.48 349.292 Q5549.48 353.991 5551.4 356.676 Q5553.35 359.338 5556.73 359.338 Q5560.11 359.338 5562.03 356.676 Q5563.97 353.991 5563.97 349.292 M5549.48 340.241 Q5550.83 337.926 5552.86 336.815 Q5554.92 335.681 5557.77 335.681 Q5562.49 335.681 5565.43 339.431 Q5568.4 343.18 5568.4 349.292 Q5568.4 355.403 5565.43 359.153 Q5562.49 362.903 5557.77 362.903 Q5554.92 362.903 5552.86 361.791 Q5550.83 360.657 5549.48 358.342 L5549.48 362.231 L5545.2 362.231 L5545.2 326.213 L5549.48 326.213 L5549.48 340.241 Z" fill="#000000" fill-rule="nonzero" fill-opacity="1" /></svg>
