<?xml version="1.0" encoding="utf-8"?>
<svg xmlns="http://www.w3.org/2000/svg" xmlns:xlink="http://www.w3.org/1999/xlink" width="600" height="400" viewBox="0 0 2400 1600">
<defs>
  <clipPath id="clip600">
    <rect x="0" y="0" width="2400" height="1600"/>
  </clipPath>
</defs>
<path clip-path="url(#clip600)" d="M0 1600 L2400 1600 L2400 8.88178e-14 L0 8.88178e-14  Z" fill="#ffffff" fill-rule="evenodd" fill-opacity="1"/>
<defs>
  <clipPath id="clip601">
    <rect x="480" y="0" width="1681" height="1600"/>
  </clipPath>
</defs>
<path clip-path="url(#clip600)" d="M249.542 1423.18 L2352.76 1423.18 L2352.76 47.2441 L249.542 47.2441  Z" fill="#ffffff" fill-rule="evenodd" fill-opacity="1"/>
<defs>
  <clipPath id="clip602">
    <rect x="249" y="47" width="2104" height="1377"/>
  </clipPath>
</defs>
<polyline clip-path="url(#clip602)" style="stroke:#000000; stroke-linecap:round; stroke-linejoin:round; stroke-width:2; stroke-opacity:0.1; fill:none" points="309.067,1423.18 309.067,47.2441 "/>
<polyline clip-path="url(#clip602)" style="stroke:#000000; stroke-linecap:round; stroke-linejoin:round; stroke-width:2; stroke-opacity:0.1; fill:none" points="705.9,1423.18 705.9,47.2441 "/>
<polyline clip-path="url(#clip602)" style="stroke:#000000; stroke-linecap:round; stroke-linejoin:round; stroke-width:2; stroke-opacity:0.1; fill:none" points="1102.73,1423.18 1102.73,47.2441 "/>
<polyline clip-path="url(#clip602)" style="stroke:#000000; stroke-linecap:round; stroke-linejoin:round; stroke-width:2; stroke-opacity:0.1; fill:none" points="1499.57,1423.18 1499.57,47.2441 "/>
<polyline clip-path="url(#clip602)" style="stroke:#000000; stroke-linecap:round; stroke-linejoin:round; stroke-width:2; stroke-opacity:0.1; fill:none" points="1896.4,1423.18 1896.4,47.2441 "/>
<polyline clip-path="url(#clip602)" style="stroke:#000000; stroke-linecap:round; stroke-linejoin:round; stroke-width:2; stroke-opacity:0.1; fill:none" points="2293.23,1423.18 2293.23,47.2441 "/>
<polyline clip-path="url(#clip602)" style="stroke:#000000; stroke-linecap:round; stroke-linejoin:round; stroke-width:2; stroke-opacity:0.1; fill:none" points="249.542,1373.19 2352.76,1373.19 "/>
<polyline clip-path="url(#clip602)" style="stroke:#000000; stroke-linecap:round; stroke-linejoin:round; stroke-width:2; stroke-opacity:0.1; fill:none" points="249.542,1133.16 2352.76,1133.16 "/>
<polyline clip-path="url(#clip602)" style="stroke:#000000; stroke-linecap:round; stroke-linejoin:round; stroke-width:2; stroke-opacity:0.1; fill:none" points="249.542,893.137 2352.76,893.137 "/>
<polyline clip-path="url(#clip602)" style="stroke:#000000; stroke-linecap:round; stroke-linejoin:round; stroke-width:2; stroke-opacity:0.1; fill:none" points="249.542,653.111 2352.76,653.111 "/>
<polyline clip-path="url(#clip602)" style="stroke:#000000; stroke-linecap:round; stroke-linejoin:round; stroke-width:2; stroke-opacity:0.1; fill:none" points="249.542,413.085 2352.76,413.085 "/>
<polyline clip-path="url(#clip602)" style="stroke:#000000; stroke-linecap:round; stroke-linejoin:round; stroke-width:2; stroke-opacity:0.1; fill:none" points="249.542,173.06 2352.76,173.06 "/>
<polyline clip-path="url(#clip600)" style="stroke:#000000; stroke-linecap:round; stroke-linejoin:round; stroke-width:4; stroke-opacity:1; fill:none" points="249.542,1423.18 2352.76,1423.18 "/>
<polyline clip-path="url(#clip600)" style="stroke:#000000; stroke-linecap:round; stroke-linejoin:round; stroke-width:4; stroke-opacity:1; fill:none" points="309.067,1423.18 309.067,1404.28 "/>
<polyline clip-path="url(#clip600)" style="stroke:#000000; stroke-linecap:round; stroke-linejoin:round; stroke-width:4; stroke-opacity:1; fill:none" points="705.9,1423.18 705.9,1404.28 "/>
<polyline clip-path="url(#clip600)" style="stroke:#000000; stroke-linecap:round; stroke-linejoin:round; stroke-width:4; stroke-opacity:1; fill:none" points="1102.73,1423.18 1102.73,1404.28 "/>
<polyline clip-path="url(#clip600)" style="stroke:#000000; stroke-linecap:round; stroke-linejoin:round; stroke-width:4; stroke-opacity:1; fill:none" points="1499.57,1423.18 1499.57,1404.28 "/>
<polyline clip-path="url(#clip600)" style="stroke:#000000; stroke-linecap:round; stroke-linejoin:round; stroke-width:4; stroke-opacity:1; fill:none" points="1896.4,1423.18 1896.4,1404.28 "/>
<polyline clip-path="url(#clip600)" style="stroke:#000000; stroke-linecap:round; stroke-linejoin:round; stroke-width:4; stroke-opacity:1; fill:none" points="2293.23,1423.18 2293.23,1404.28 "/>
<path clip-path="url(#clip600)" d="M303.72 1481.64 L320.039 1481.64 L320.039 1485.58 L298.095 1485.58 L298.095 1481.64 Q300.757 1478.89 305.34 1474.26 Q309.947 1469.61 311.127 1468.27 Q313.372 1465.74 314.252 1464.01 Q315.155 1462.25 315.155 1460.56 Q315.155 1457.8 313.21 1456.07 Q311.289 1454.33 308.187 1454.33 Q305.988 1454.33 303.535 1455.09 Q301.104 1455.86 298.326 1457.41 L298.326 1452.69 Q301.15 1451.55 303.604 1450.97 Q306.058 1450.39 308.095 1450.39 Q313.465 1450.39 316.66 1453.08 Q319.854 1455.77 319.854 1460.26 Q319.854 1462.39 319.044 1464.31 Q318.257 1466.2 316.15 1468.8 Q315.572 1469.47 312.47 1472.69 Q309.368 1475.88 303.72 1481.64 Z" fill="#000000" fill-rule="nonzero" fill-opacity="1" /><path clip-path="url(#clip600)" d="M710.147 1466.95 Q713.504 1467.66 715.379 1469.93 Q717.277 1472.2 717.277 1475.53 Q717.277 1480.65 713.759 1483.45 Q710.24 1486.25 703.759 1486.25 Q701.583 1486.25 699.268 1485.81 Q696.976 1485.39 694.523 1484.54 L694.523 1480.02 Q696.467 1481.16 698.782 1481.74 Q701.097 1482.32 703.62 1482.32 Q708.018 1482.32 710.309 1480.58 Q712.624 1478.84 712.624 1475.53 Q712.624 1472.48 710.471 1470.77 Q708.342 1469.03 704.522 1469.03 L700.495 1469.03 L700.495 1465.19 L704.708 1465.19 Q708.157 1465.19 709.985 1463.82 Q711.814 1462.43 711.814 1459.84 Q711.814 1457.18 709.916 1455.77 Q708.041 1454.33 704.522 1454.33 Q702.601 1454.33 700.402 1454.75 Q698.203 1455.16 695.564 1456.04 L695.564 1451.88 Q698.226 1451.14 700.541 1450.77 Q702.879 1450.39 704.939 1450.39 Q710.263 1450.39 713.365 1452.83 Q716.467 1455.23 716.467 1459.35 Q716.467 1462.22 714.823 1464.21 Q713.18 1466.18 710.147 1466.95 Z" fill="#000000" fill-rule="nonzero" fill-opacity="1" /><path clip-path="url(#clip600)" d="M1105.74 1455.09 L1093.94 1473.54 L1105.74 1473.54 L1105.74 1455.09 M1104.51 1451.02 L1110.39 1451.02 L1110.39 1473.54 L1115.33 1473.54 L1115.33 1477.43 L1110.39 1477.43 L1110.39 1485.58 L1105.74 1485.58 L1105.74 1477.43 L1090.14 1477.43 L1090.14 1472.92 L1104.51 1451.02 Z" fill="#000000" fill-rule="nonzero" fill-opacity="1" /><path clip-path="url(#clip600)" d="M1489.84 1451.02 L1508.2 1451.02 L1508.2 1454.96 L1494.13 1454.96 L1494.13 1463.43 Q1495.14 1463.08 1496.16 1462.92 Q1497.18 1462.73 1498.2 1462.73 Q1503.99 1462.73 1507.37 1465.9 Q1510.75 1469.08 1510.75 1474.49 Q1510.75 1480.07 1507.27 1483.17 Q1503.8 1486.25 1497.48 1486.25 Q1495.31 1486.25 1493.04 1485.88 Q1490.79 1485.51 1488.38 1484.77 L1488.38 1480.07 Q1490.47 1481.2 1492.69 1481.76 Q1494.91 1482.32 1497.39 1482.32 Q1501.39 1482.32 1503.73 1480.21 Q1506.07 1478.1 1506.07 1474.49 Q1506.07 1470.88 1503.73 1468.77 Q1501.39 1466.67 1497.39 1466.67 Q1495.51 1466.67 1493.64 1467.08 Q1491.79 1467.5 1489.84 1468.38 L1489.84 1451.02 Z" fill="#000000" fill-rule="nonzero" fill-opacity="1" /><path clip-path="url(#clip600)" d="M1896.8 1466.44 Q1893.66 1466.44 1891.8 1468.59 Q1889.97 1470.74 1889.97 1474.49 Q1889.97 1478.22 1891.8 1480.39 Q1893.66 1482.55 1896.8 1482.55 Q1899.95 1482.55 1901.78 1480.39 Q1903.63 1478.22 1903.63 1474.49 Q1903.63 1470.74 1901.78 1468.59 Q1899.95 1466.44 1896.8 1466.44 M1906.09 1451.78 L1906.09 1456.04 Q1904.33 1455.21 1902.52 1454.77 Q1900.74 1454.33 1898.98 1454.33 Q1894.35 1454.33 1891.9 1457.45 Q1889.47 1460.58 1889.12 1466.9 Q1890.48 1464.89 1892.54 1463.82 Q1894.6 1462.73 1897.08 1462.73 Q1902.29 1462.73 1905.3 1465.9 Q1908.33 1469.05 1908.33 1474.49 Q1908.33 1479.82 1905.18 1483.03 Q1902.03 1486.25 1896.8 1486.25 Q1890.81 1486.25 1887.64 1481.67 Q1884.47 1477.06 1884.47 1468.33 Q1884.47 1460.14 1888.35 1455.28 Q1892.24 1450.39 1898.79 1450.39 Q1900.55 1450.39 1902.34 1450.74 Q1904.14 1451.09 1906.09 1451.78 Z" fill="#000000" fill-rule="nonzero" fill-opacity="1" /><path clip-path="url(#clip600)" d="M2282.12 1451.02 L2304.34 1451.02 L2304.34 1453.01 L2291.8 1485.58 L2286.91 1485.58 L2298.72 1454.96 L2282.12 1454.96 L2282.12 1451.02 Z" fill="#000000" fill-rule="nonzero" fill-opacity="1" /><path clip-path="url(#clip600)" d="M1283.17 1520.52 L1291.82 1520.52 L1312.89 1560.28 L1312.89 1520.52 L1319.13 1520.52 L1319.13 1568.04 L1310.47 1568.04 L1289.4 1528.29 L1289.4 1568.04 L1283.17 1568.04 L1283.17 1520.52 Z" fill="#000000" fill-rule="nonzero" fill-opacity="1" /><polyline clip-path="url(#clip600)" style="stroke:#000000; stroke-linecap:round; stroke-linejoin:round; stroke-width:4; stroke-opacity:1; fill:none" points="249.542,1423.18 249.542,47.2441 "/>
<polyline clip-path="url(#clip600)" style="stroke:#000000; stroke-linecap:round; stroke-linejoin:round; stroke-width:4; stroke-opacity:1; fill:none" points="249.542,1373.19 268.44,1373.19 "/>
<polyline clip-path="url(#clip600)" style="stroke:#000000; stroke-linecap:round; stroke-linejoin:round; stroke-width:4; stroke-opacity:1; fill:none" points="249.542,1133.16 268.44,1133.16 "/>
<polyline clip-path="url(#clip600)" style="stroke:#000000; stroke-linecap:round; stroke-linejoin:round; stroke-width:4; stroke-opacity:1; fill:none" points="249.542,893.137 268.44,893.137 "/>
<polyline clip-path="url(#clip600)" style="stroke:#000000; stroke-linecap:round; stroke-linejoin:round; stroke-width:4; stroke-opacity:1; fill:none" points="249.542,653.111 268.44,653.111 "/>
<polyline clip-path="url(#clip600)" style="stroke:#000000; stroke-linecap:round; stroke-linejoin:round; stroke-width:4; stroke-opacity:1; fill:none" points="249.542,413.085 268.44,413.085 "/>
<polyline clip-path="url(#clip600)" style="stroke:#000000; stroke-linecap:round; stroke-linejoin:round; stroke-width:4; stroke-opacity:1; fill:none" points="249.542,173.06 268.44,173.06 "/>
<path clip-path="url(#clip600)" d="M127.2 1358.99 Q123.589 1358.99 121.76 1362.55 Q119.955 1366.09 119.955 1373.22 Q119.955 1380.33 121.76 1383.89 Q123.589 1387.44 127.2 1387.44 Q130.834 1387.44 132.64 1383.89 Q134.468 1380.33 134.468 1373.22 Q134.468 1366.09 132.64 1362.55 Q130.834 1358.99 127.2 1358.99 M127.2 1355.28 Q133.01 1355.28 136.066 1359.89 Q139.144 1364.47 139.144 1373.22 Q139.144 1381.95 136.066 1386.56 Q133.01 1391.14 127.2 1391.14 Q121.39 1391.14 118.311 1386.56 Q115.256 1381.95 115.256 1373.22 Q115.256 1364.47 118.311 1359.89 Q121.39 1355.28 127.2 1355.28 Z" fill="#000000" fill-rule="nonzero" fill-opacity="1" /><path clip-path="url(#clip600)" d="M147.362 1384.59 L152.246 1384.59 L152.246 1390.47 L147.362 1390.47 L147.362 1384.59 Z" fill="#000000" fill-rule="nonzero" fill-opacity="1" /><path clip-path="url(#clip600)" d="M172.431 1358.99 Q168.82 1358.99 166.991 1362.55 Q165.186 1366.09 165.186 1373.22 Q165.186 1380.33 166.991 1383.89 Q168.82 1387.44 172.431 1387.44 Q176.065 1387.44 177.871 1383.89 Q179.7 1380.33 179.7 1373.22 Q179.7 1366.09 177.871 1362.55 Q176.065 1358.99 172.431 1358.99 M172.431 1355.28 Q178.241 1355.28 181.297 1359.89 Q184.376 1364.47 184.376 1373.22 Q184.376 1381.95 181.297 1386.56 Q178.241 1391.14 172.431 1391.14 Q166.621 1391.14 163.542 1386.56 Q160.487 1381.95 160.487 1373.22 Q160.487 1364.47 163.542 1359.89 Q166.621 1355.28 172.431 1355.28 Z" fill="#000000" fill-rule="nonzero" fill-opacity="1" /><path clip-path="url(#clip600)" d="M192.639 1355.91 L210.996 1355.91 L210.996 1359.84 L196.922 1359.84 L196.922 1368.32 Q197.94 1367.97 198.959 1367.81 Q199.977 1367.62 200.996 1367.62 Q206.783 1367.62 210.162 1370.79 Q213.542 1373.96 213.542 1379.38 Q213.542 1384.96 210.07 1388.06 Q206.598 1391.14 200.278 1391.14 Q198.102 1391.14 195.834 1390.77 Q193.588 1390.4 191.181 1389.66 L191.181 1384.96 Q193.264 1386.09 195.487 1386.65 Q197.709 1387.2 200.186 1387.2 Q204.19 1387.2 206.528 1385.1 Q208.866 1382.99 208.866 1379.38 Q208.866 1375.77 206.528 1373.66 Q204.19 1371.56 200.186 1371.56 Q198.311 1371.56 196.436 1371.97 Q194.584 1372.39 192.639 1373.27 L192.639 1355.91 Z" fill="#000000" fill-rule="nonzero" fill-opacity="1" /><path clip-path="url(#clip600)" d="M126.205 1118.96 Q122.593 1118.96 120.765 1122.53 Q118.959 1126.07 118.959 1133.2 Q118.959 1140.3 120.765 1143.87 Q122.593 1147.41 126.205 1147.41 Q129.839 1147.41 131.644 1143.87 Q133.473 1140.3 133.473 1133.2 Q133.473 1126.07 131.644 1122.53 Q129.839 1118.96 126.205 1118.96 M126.205 1115.26 Q132.015 1115.26 135.07 1119.86 Q138.149 1124.45 138.149 1133.2 Q138.149 1141.92 135.07 1146.53 Q132.015 1151.11 126.205 1151.11 Q120.394 1151.11 117.316 1146.53 Q114.26 1141.92 114.26 1133.2 Q114.26 1124.45 117.316 1119.86 Q120.394 1115.26 126.205 1115.26 Z" fill="#000000" fill-rule="nonzero" fill-opacity="1" /><path clip-path="url(#clip600)" d="M146.366 1144.56 L151.251 1144.56 L151.251 1150.44 L146.366 1150.44 L146.366 1144.56 Z" fill="#000000" fill-rule="nonzero" fill-opacity="1" /><path clip-path="url(#clip600)" d="M162.246 1146.51 L169.885 1146.51 L169.885 1120.14 L161.575 1121.81 L161.575 1117.55 L169.839 1115.88 L174.514 1115.88 L174.514 1146.51 L182.153 1146.51 L182.153 1150.44 L162.246 1150.44 L162.246 1146.51 Z" fill="#000000" fill-rule="nonzero" fill-opacity="1" /><path clip-path="url(#clip600)" d="M201.598 1118.96 Q197.987 1118.96 196.158 1122.53 Q194.352 1126.07 194.352 1133.2 Q194.352 1140.3 196.158 1143.87 Q197.987 1147.41 201.598 1147.41 Q205.232 1147.41 207.037 1143.87 Q208.866 1140.3 208.866 1133.2 Q208.866 1126.07 207.037 1122.53 Q205.232 1118.96 201.598 1118.96 M201.598 1115.26 Q207.408 1115.26 210.463 1119.86 Q213.542 1124.45 213.542 1133.2 Q213.542 1141.92 210.463 1146.53 Q207.408 1151.11 201.598 1151.11 Q195.787 1151.11 192.709 1146.53 Q189.653 1141.92 189.653 1133.2 Q189.653 1124.45 192.709 1119.86 Q195.787 1115.26 201.598 1115.26 Z" fill="#000000" fill-rule="nonzero" fill-opacity="1" /><path clip-path="url(#clip600)" d="M127.2 878.936 Q123.589 878.936 121.76 882.5 Q119.955 886.042 119.955 893.172 Q119.955 900.278 121.76 903.843 Q123.589 907.384 127.2 907.384 Q130.834 907.384 132.64 903.843 Q134.468 900.278 134.468 893.172 Q134.468 886.042 132.64 882.5 Q130.834 878.936 127.2 878.936 M127.2 875.232 Q133.01 875.232 136.066 879.838 Q139.144 884.422 139.144 893.172 Q139.144 901.898 136.066 906.505 Q133.01 911.088 127.2 911.088 Q121.39 911.088 118.311 906.505 Q115.256 901.898 115.256 893.172 Q115.256 884.422 118.311 879.838 Q121.39 875.232 127.2 875.232 Z" fill="#000000" fill-rule="nonzero" fill-opacity="1" /><path clip-path="url(#clip600)" d="M147.362 904.537 L152.246 904.537 L152.246 910.417 L147.362 910.417 L147.362 904.537 Z" fill="#000000" fill-rule="nonzero" fill-opacity="1" /><path clip-path="url(#clip600)" d="M163.241 906.482 L170.88 906.482 L170.88 880.116 L162.57 881.783 L162.57 877.524 L170.834 875.857 L175.51 875.857 L175.51 906.482 L183.149 906.482 L183.149 910.417 L163.241 910.417 L163.241 906.482 Z" fill="#000000" fill-rule="nonzero" fill-opacity="1" /><path clip-path="url(#clip600)" d="M192.639 875.857 L210.996 875.857 L210.996 879.792 L196.922 879.792 L196.922 888.264 Q197.94 887.917 198.959 887.755 Q199.977 887.57 200.996 887.57 Q206.783 887.57 210.162 890.741 Q213.542 893.912 213.542 899.329 Q213.542 904.908 210.07 908.009 Q206.598 911.088 200.278 911.088 Q198.102 911.088 195.834 910.718 Q193.588 910.347 191.181 909.607 L191.181 904.908 Q193.264 906.042 195.487 906.597 Q197.709 907.153 200.186 907.153 Q204.19 907.153 206.528 905.047 Q208.866 902.94 208.866 899.329 Q208.866 895.718 206.528 893.611 Q204.19 891.505 200.186 891.505 Q198.311 891.505 196.436 891.922 Q194.584 892.338 192.639 893.218 L192.639 875.857 Z" fill="#000000" fill-rule="nonzero" fill-opacity="1" /><path clip-path="url(#clip600)" d="M126.205 638.91 Q122.593 638.91 120.765 642.475 Q118.959 646.016 118.959 653.146 Q118.959 660.252 120.765 663.817 Q122.593 667.359 126.205 667.359 Q129.839 667.359 131.644 663.817 Q133.473 660.252 133.473 653.146 Q133.473 646.016 131.644 642.475 Q129.839 638.91 126.205 638.91 M126.205 635.206 Q132.015 635.206 135.07 639.813 Q138.149 644.396 138.149 653.146 Q138.149 661.873 135.07 666.479 Q132.015 671.062 126.205 671.062 Q120.394 671.062 117.316 666.479 Q114.26 661.873 114.26 653.146 Q114.26 644.396 117.316 639.813 Q120.394 635.206 126.205 635.206 Z" fill="#000000" fill-rule="nonzero" fill-opacity="1" /><path clip-path="url(#clip600)" d="M146.366 664.512 L151.251 664.512 L151.251 670.391 L146.366 670.391 L146.366 664.512 Z" fill="#000000" fill-rule="nonzero" fill-opacity="1" /><path clip-path="url(#clip600)" d="M165.464 666.456 L181.783 666.456 L181.783 670.391 L159.839 670.391 L159.839 666.456 Q162.501 663.701 167.084 659.072 Q171.69 654.419 172.871 653.076 Q175.116 650.553 175.996 648.817 Q176.899 647.058 176.899 645.368 Q176.899 642.614 174.954 640.877 Q173.033 639.141 169.931 639.141 Q167.732 639.141 165.278 639.905 Q162.848 640.669 160.07 642.22 L160.07 637.498 Q162.894 636.364 165.348 635.785 Q167.802 635.206 169.839 635.206 Q175.209 635.206 178.403 637.891 Q181.598 640.576 181.598 645.067 Q181.598 647.197 180.788 649.118 Q180.001 651.016 177.894 653.609 Q177.315 654.28 174.214 657.498 Q171.112 660.692 165.464 666.456 Z" fill="#000000" fill-rule="nonzero" fill-opacity="1" /><path clip-path="url(#clip600)" d="M201.598 638.91 Q197.987 638.91 196.158 642.475 Q194.352 646.016 194.352 653.146 Q194.352 660.252 196.158 663.817 Q197.987 667.359 201.598 667.359 Q205.232 667.359 207.037 663.817 Q208.866 660.252 208.866 653.146 Q208.866 646.016 207.037 642.475 Q205.232 638.91 201.598 638.91 M201.598 635.206 Q207.408 635.206 210.463 639.813 Q213.542 644.396 213.542 653.146 Q213.542 661.873 210.463 666.479 Q207.408 671.062 201.598 671.062 Q195.787 671.062 192.709 666.479 Q189.653 661.873 189.653 653.146 Q189.653 644.396 192.709 639.813 Q195.787 635.206 201.598 635.206 Z" fill="#000000" fill-rule="nonzero" fill-opacity="1" /><path clip-path="url(#clip600)" d="M127.2 398.884 Q123.589 398.884 121.76 402.449 Q119.955 405.991 119.955 413.12 Q119.955 420.227 121.76 423.791 Q123.589 427.333 127.2 427.333 Q130.834 427.333 132.64 423.791 Q134.468 420.227 134.468 413.12 Q134.468 405.991 132.64 402.449 Q130.834 398.884 127.2 398.884 M127.2 395.18 Q133.01 395.18 136.066 399.787 Q139.144 404.37 139.144 413.12 Q139.144 421.847 136.066 426.453 Q133.01 431.037 127.2 431.037 Q121.39 431.037 118.311 426.453 Q115.256 421.847 115.256 413.12 Q115.256 404.37 118.311 399.787 Q121.39 395.18 127.2 395.18 Z" fill="#000000" fill-rule="nonzero" fill-opacity="1" /><path clip-path="url(#clip600)" d="M147.362 424.486 L152.246 424.486 L152.246 430.365 L147.362 430.365 L147.362 424.486 Z" fill="#000000" fill-rule="nonzero" fill-opacity="1" /><path clip-path="url(#clip600)" d="M166.459 426.43 L182.778 426.43 L182.778 430.365 L160.834 430.365 L160.834 426.43 Q163.496 423.676 168.079 419.046 Q172.686 414.393 173.866 413.051 Q176.112 410.528 176.991 408.791 Q177.894 407.032 177.894 405.342 Q177.894 402.588 175.95 400.852 Q174.028 399.116 170.927 399.116 Q168.727 399.116 166.274 399.879 Q163.843 400.643 161.065 402.194 L161.065 397.472 Q163.89 396.338 166.343 395.759 Q168.797 395.18 170.834 395.18 Q176.204 395.18 179.399 397.866 Q182.593 400.551 182.593 405.041 Q182.593 407.171 181.783 409.092 Q180.996 410.991 178.889 413.583 Q178.311 414.254 175.209 417.472 Q172.107 420.666 166.459 426.43 Z" fill="#000000" fill-rule="nonzero" fill-opacity="1" /><path clip-path="url(#clip600)" d="M192.639 395.805 L210.996 395.805 L210.996 399.741 L196.922 399.741 L196.922 408.213 Q197.94 407.866 198.959 407.703 Q199.977 407.518 200.996 407.518 Q206.783 407.518 210.162 410.69 Q213.542 413.861 213.542 419.278 Q213.542 424.856 210.07 427.958 Q206.598 431.037 200.278 431.037 Q198.102 431.037 195.834 430.666 Q193.588 430.296 191.181 429.555 L191.181 424.856 Q193.264 425.99 195.487 426.546 Q197.709 427.102 200.186 427.102 Q204.19 427.102 206.528 424.995 Q208.866 422.889 208.866 419.278 Q208.866 415.666 206.528 413.56 Q204.19 411.453 200.186 411.453 Q198.311 411.453 196.436 411.87 Q194.584 412.287 192.639 413.166 L192.639 395.805 Z" fill="#000000" fill-rule="nonzero" fill-opacity="1" /><path clip-path="url(#clip600)" d="M126.205 158.858 Q122.593 158.858 120.765 162.423 Q118.959 165.965 118.959 173.094 Q118.959 180.201 120.765 183.766 Q122.593 187.307 126.205 187.307 Q129.839 187.307 131.644 183.766 Q133.473 180.201 133.473 173.094 Q133.473 165.965 131.644 162.423 Q129.839 158.858 126.205 158.858 M126.205 155.155 Q132.015 155.155 135.07 159.761 Q138.149 164.344 138.149 173.094 Q138.149 181.821 135.07 186.428 Q132.015 191.011 126.205 191.011 Q120.394 191.011 117.316 186.428 Q114.26 181.821 114.26 173.094 Q114.26 164.344 117.316 159.761 Q120.394 155.155 126.205 155.155 Z" fill="#000000" fill-rule="nonzero" fill-opacity="1" /><path clip-path="url(#clip600)" d="M146.366 184.46 L151.251 184.46 L151.251 190.34 L146.366 190.34 L146.366 184.46 Z" fill="#000000" fill-rule="nonzero" fill-opacity="1" /><path clip-path="url(#clip600)" d="M175.602 171.706 Q178.959 172.423 180.834 174.692 Q182.732 176.96 182.732 180.293 Q182.732 185.409 179.214 188.21 Q175.695 191.011 169.214 191.011 Q167.038 191.011 164.723 190.571 Q162.431 190.155 159.978 189.298 L159.978 184.784 Q161.922 185.918 164.237 186.497 Q166.552 187.076 169.075 187.076 Q173.473 187.076 175.764 185.34 Q178.079 183.604 178.079 180.293 Q178.079 177.238 175.926 175.525 Q173.797 173.789 169.977 173.789 L165.95 173.789 L165.95 169.946 L170.163 169.946 Q173.612 169.946 175.44 168.581 Q177.269 167.192 177.269 164.599 Q177.269 161.937 175.371 160.525 Q173.496 159.09 169.977 159.09 Q168.056 159.09 165.857 159.507 Q163.658 159.923 161.019 160.803 L161.019 156.636 Q163.681 155.895 165.996 155.525 Q168.334 155.155 170.394 155.155 Q175.718 155.155 178.82 157.585 Q181.922 159.993 181.922 164.113 Q181.922 166.983 180.278 168.974 Q178.635 170.942 175.602 171.706 Z" fill="#000000" fill-rule="nonzero" fill-opacity="1" /><path clip-path="url(#clip600)" d="M201.598 158.858 Q197.987 158.858 196.158 162.423 Q194.352 165.965 194.352 173.094 Q194.352 180.201 196.158 183.766 Q197.987 187.307 201.598 187.307 Q205.232 187.307 207.037 183.766 Q208.866 180.201 208.866 173.094 Q208.866 165.965 207.037 162.423 Q205.232 158.858 201.598 158.858 M201.598 155.155 Q207.408 155.155 210.463 159.761 Q213.542 164.344 213.542 173.094 Q213.542 181.821 210.463 186.428 Q207.408 191.011 201.598 191.011 Q195.787 191.011 192.709 186.428 Q189.653 181.821 189.653 173.094 Q189.653 164.344 192.709 159.761 Q195.787 155.155 201.598 155.155 Z" fill="#000000" fill-rule="nonzero" fill-opacity="1" /><path clip-path="url(#clip600)" d="M57.2247 839.323 L44.4614 839.323 L44.4614 849.827 L39.1779 849.827 L39.1779 832.957 L59.58 832.957 Q62.2218 836.681 63.5904 841.169 Q64.9272 845.657 64.9272 850.75 Q64.9272 861.89 58.4342 868.192 Q51.9093 874.462 40.2919 874.462 Q28.6427 874.462 22.1496 868.192 Q15.6248 861.89 15.6248 850.75 Q15.6248 846.103 16.7706 841.933 Q17.9164 837.732 20.1444 834.199 L26.9876 834.199 Q23.9639 837.764 22.4361 841.774 Q20.9083 845.784 20.9083 850.208 Q20.9083 858.929 25.7781 863.322 Q30.6479 867.682 40.2919 867.682 Q49.9041 867.682 54.7739 863.322 Q59.6436 858.929 59.6436 850.208 Q59.6436 846.803 59.0707 844.129 Q58.466 841.456 57.2247 839.323 Z" fill="#000000" fill-rule="nonzero" fill-opacity="1" /><path clip-path="url(#clip600)" d="M33.8307 800.811 Q33.2578 801.797 33.0032 802.975 Q32.7167 804.121 32.7167 805.521 Q32.7167 810.486 35.9632 813.16 Q39.1779 815.802 45.2253 815.802 L64.0042 815.802 L64.0042 821.69 L28.3562 821.69 L28.3562 815.802 L33.8944 815.802 Q30.6479 813.956 29.0883 810.996 Q27.4968 808.036 27.4968 803.802 Q27.4968 803.198 27.5923 802.466 Q27.656 801.734 27.8151 800.842 L33.8307 800.811 Z" fill="#000000" fill-rule="nonzero" fill-opacity="1" /><path clip-path="url(#clip600)" d="M46.0847 778.467 Q46.0847 785.565 47.7079 788.302 Q49.3312 791.039 53.2461 791.039 Q56.3653 791.039 58.2114 789.002 Q60.0256 786.933 60.0256 783.4 Q60.0256 778.531 56.5881 775.602 Q53.1188 772.642 47.3897 772.642 L46.0847 772.642 L46.0847 778.467 M43.6657 766.786 L64.0042 766.786 L64.0042 772.642 L58.5933 772.642 Q61.8398 774.648 63.3994 777.639 Q64.9272 780.631 64.9272 784.96 Q64.9272 790.434 61.8716 793.681 Q58.7843 796.896 53.6281 796.896 Q47.6125 796.896 44.5569 792.885 Q41.5014 788.843 41.5014 780.854 L41.5014 772.642 L40.9285 772.642 Q36.8862 772.642 34.6901 775.316 Q32.4621 777.958 32.4621 782.764 Q32.4621 785.819 33.1941 788.716 Q33.9262 791.612 35.3903 794.286 L29.9795 794.286 Q28.7381 791.071 28.1334 788.047 Q27.4968 785.024 27.4968 782.159 Q27.4968 774.425 31.5072 770.605 Q35.5176 766.786 43.6657 766.786 Z" fill="#000000" fill-rule="nonzero" fill-opacity="1" /><path clip-path="url(#clip600)" d="M33.7671 731.265 L14.479 731.265 L14.479 725.409 L64.0042 725.409 L64.0042 731.265 L58.657 731.265 Q61.8398 733.111 63.3994 735.944 Q64.9272 738.745 64.9272 742.692 Q64.9272 749.153 59.771 753.227 Q54.6147 757.269 46.212 757.269 Q37.8093 757.269 32.6531 753.227 Q27.4968 749.153 27.4968 742.692 Q27.4968 738.745 29.0564 735.944 Q30.5842 733.111 33.7671 731.265 M46.212 751.222 Q52.6732 751.222 56.3653 748.58 Q60.0256 745.906 60.0256 741.259 Q60.0256 736.612 56.3653 733.939 Q52.6732 731.265 46.212 731.265 Q39.7508 731.265 36.0905 733.939 Q32.3984 736.612 32.3984 741.259 Q32.3984 745.906 36.0905 748.58 Q39.7508 751.222 46.212 751.222 Z" fill="#000000" fill-rule="nonzero" fill-opacity="1" /><path clip-path="url(#clip600)" d="M28.3562 713.346 L28.3562 707.489 L64.0042 707.489 L64.0042 713.346 L28.3562 713.346 M14.479 713.346 L14.479 707.489 L21.895 707.489 L21.895 713.346 L14.479 713.346 Z" fill="#000000" fill-rule="nonzero" fill-opacity="1" /><path clip-path="url(#clip600)" d="M44.7161 664.744 L47.5806 664.744 L47.5806 691.671 Q53.6281 691.289 56.8109 688.042 Q59.9619 684.764 59.9619 678.939 Q59.9619 675.565 59.1344 672.414 Q58.3069 669.231 56.6518 666.112 L62.1899 666.112 Q63.5267 669.263 64.227 672.573 Q64.9272 675.884 64.9272 679.289 Q64.9272 687.819 59.9619 692.816 Q54.9967 697.782 46.5303 697.782 Q37.7774 697.782 32.6531 693.071 Q27.4968 688.329 27.4968 680.308 Q27.4968 673.115 32.1438 668.945 Q36.7589 664.744 44.7161 664.744 M42.9973 670.6 Q38.1912 670.664 35.3266 673.305 Q32.4621 675.915 32.4621 680.244 Q32.4621 685.146 35.2312 688.106 Q38.0002 691.034 43.0292 691.48 L42.9973 670.6 Z" fill="#000000" fill-rule="nonzero" fill-opacity="1" /><path clip-path="url(#clip600)" d="M42.4881 625.499 L64.0042 625.499 L64.0042 631.355 L42.679 631.355 Q37.6183 631.355 35.1038 633.329 Q32.5894 635.302 32.5894 639.249 Q32.5894 643.991 35.6131 646.729 Q38.6368 649.466 43.8567 649.466 L64.0042 649.466 L64.0042 655.354 L28.3562 655.354 L28.3562 649.466 L33.8944 649.466 Q30.6797 647.365 29.0883 644.532 Q27.4968 641.668 27.4968 637.944 Q27.4968 631.801 31.3163 628.65 Q35.1038 625.499 42.4881 625.499 Z" fill="#000000" fill-rule="nonzero" fill-opacity="1" /><path clip-path="url(#clip600)" d="M18.2347 608.025 L28.3562 608.025 L28.3562 595.962 L32.9077 595.962 L32.9077 608.025 L52.2594 608.025 Q56.6199 608.025 57.8613 606.847 Q59.1026 605.638 59.1026 601.978 L59.1026 595.962 L64.0042 595.962 L64.0042 601.978 Q64.0042 608.757 61.4897 611.335 Q58.9434 613.913 52.2594 613.913 L32.9077 613.913 L32.9077 618.21 L28.3562 618.21 L28.3562 613.913 L18.2347 613.913 L18.2347 608.025 Z" fill="#000000" fill-rule="nonzero" fill-opacity="1" /><line clip-path="url(#clip602)" x1="309.067" y1="115.231" x2="293.067" y2="99.2305" style="stroke:#000000; stroke-width:3.2; stroke-opacity:1"/>
<line clip-path="url(#clip602)" x1="309.067" y1="115.231" x2="293.067" y2="131.231" style="stroke:#000000; stroke-width:3.2; stroke-opacity:1"/>
<line clip-path="url(#clip602)" x1="309.067" y1="115.231" x2="325.067" y2="131.231" style="stroke:#000000; stroke-width:3.2; stroke-opacity:1"/>
<line clip-path="url(#clip602)" x1="309.067" y1="115.231" x2="325.067" y2="99.2305" style="stroke:#000000; stroke-width:3.2; stroke-opacity:1"/>
<line clip-path="url(#clip602)" x1="705.9" y1="690.587" x2="689.9" y2="674.587" style="stroke:#000000; stroke-width:3.2; stroke-opacity:1"/>
<line clip-path="url(#clip602)" x1="705.9" y1="690.587" x2="689.9" y2="706.587" style="stroke:#000000; stroke-width:3.2; stroke-opacity:1"/>
<line clip-path="url(#clip602)" x1="705.9" y1="690.587" x2="721.9" y2="706.587" style="stroke:#000000; stroke-width:3.2; stroke-opacity:1"/>
<line clip-path="url(#clip602)" x1="705.9" y1="690.587" x2="721.9" y2="674.587" style="stroke:#000000; stroke-width:3.2; stroke-opacity:1"/>
<line clip-path="url(#clip602)" x1="1102.73" y1="1083.98" x2="1086.73" y2="1067.98" style="stroke:#000000; stroke-width:3.2; stroke-opacity:1"/>
<line clip-path="url(#clip602)" x1="1102.73" y1="1083.98" x2="1086.73" y2="1099.98" style="stroke:#000000; stroke-width:3.2; stroke-opacity:1"/>
<line clip-path="url(#clip602)" x1="1102.73" y1="1083.98" x2="1118.73" y2="1099.98" style="stroke:#000000; stroke-width:3.2; stroke-opacity:1"/>
<line clip-path="url(#clip602)" x1="1102.73" y1="1083.98" x2="1118.73" y2="1067.98" style="stroke:#000000; stroke-width:3.2; stroke-opacity:1"/>
<line clip-path="url(#clip602)" x1="1499.57" y1="1299.73" x2="1483.57" y2="1283.73" style="stroke:#000000; stroke-width:3.2; stroke-opacity:1"/>
<line clip-path="url(#clip602)" x1="1499.57" y1="1299.73" x2="1483.57" y2="1315.73" style="stroke:#000000; stroke-width:3.2; stroke-opacity:1"/>
<line clip-path="url(#clip602)" x1="1499.57" y1="1299.73" x2="1515.57" y2="1315.73" style="stroke:#000000; stroke-width:3.2; stroke-opacity:1"/>
<line clip-path="url(#clip602)" x1="1499.57" y1="1299.73" x2="1515.57" y2="1283.73" style="stroke:#000000; stroke-width:3.2; stroke-opacity:1"/>
<line clip-path="url(#clip602)" x1="1896.4" y1="1360.86" x2="1880.4" y2="1344.86" style="stroke:#000000; stroke-width:3.2; stroke-opacity:1"/>
<line clip-path="url(#clip602)" x1="1896.4" y1="1360.86" x2="1880.4" y2="1376.86" style="stroke:#000000; stroke-width:3.2; stroke-opacity:1"/>
<line clip-path="url(#clip602)" x1="1896.4" y1="1360.86" x2="1912.4" y2="1376.86" style="stroke:#000000; stroke-width:3.2; stroke-opacity:1"/>
<line clip-path="url(#clip602)" x1="1896.4" y1="1360.86" x2="1912.4" y2="1344.86" style="stroke:#000000; stroke-width:3.2; stroke-opacity:1"/>
<line clip-path="url(#clip602)" x1="2293.23" y1="1366.81" x2="2277.23" y2="1350.81" style="stroke:#000000; stroke-width:3.2; stroke-opacity:1"/>
<line clip-path="url(#clip602)" x1="2293.23" y1="1366.81" x2="2277.23" y2="1382.81" style="stroke:#000000; stroke-width:3.2; stroke-opacity:1"/>
<line clip-path="url(#clip602)" x1="2293.23" y1="1366.81" x2="2309.23" y2="1382.81" style="stroke:#000000; stroke-width:3.2; stroke-opacity:1"/>
<line clip-path="url(#clip602)" x1="2293.23" y1="1366.81" x2="2309.23" y2="1350.81" style="stroke:#000000; stroke-width:3.2; stroke-opacity:1"/>
<polyline clip-path="url(#clip602)" style="stroke:#e26f46; stroke-linecap:round; stroke-linejoin:round; stroke-width:4; stroke-opacity:1; fill:none" stroke-dasharray="16, 10" points="309.067,86.1857 329.109,142.79 349.151,195.995 369.193,246.078 389.235,293.29 409.277,337.855 429.319,379.977 449.361,419.838 469.403,457.605 489.446,493.428 509.488,527.445 529.53,559.78 549.572,590.547 569.614,619.85 589.656,647.785 609.698,674.44 629.74,699.895 649.782,724.224 669.824,747.496 689.866,769.773 709.908,791.115 729.95,811.575 749.992,831.203 770.034,850.046 790.076,868.147 810.118,885.546 830.161,902.281 850.203,918.386 870.245,933.895 890.287,948.837 910.329,963.242 930.371,977.135 950.413,990.542 970.455,1003.49 990.497,1015.99 1010.54,1028.07 1030.58,1039.76 1050.62,1051.06 1070.67,1061.99 1090.71,1072.58 1110.75,1082.83 1130.79,1092.77 1150.83,1102.4 1170.88,1111.74 1190.92,1120.79 1210.96,1129.58 1231,1138.12 1251.04,1146.4 1271.09,1154.45 1291.13,1162.27 1311.17,1169.87 1331.21,1177.26 1351.25,1184.45 1371.3,1191.44 1391.34,1198.25 1411.38,1204.87 1431.42,1211.32 1451.46,1217.61 1471.51,1223.73 1491.55,1229.7 1511.59,1235.52 1531.63,1241.19 1551.67,1246.72 1571.72,1252.12 1591.76,1257.38 1611.8,1262.52 1631.84,1267.54 1651.89,1272.44 1671.93,1277.23 1691.97,1281.9 1712.01,1286.47 1732.05,1290.93 1752.1,1295.3 1772.14,1299.56 1792.18,1303.74 1812.22,1307.82 1832.26,1311.81 1852.31,1315.72 1872.35,1319.54 1892.39,1323.28 1912.43,1326.95 1932.47,1330.53 1952.52,1334.05 1972.56,1337.49 1992.6,1340.86 2012.64,1344.16 2032.68,1347.4 2052.73,1350.58 2072.77,1353.69 2092.81,1356.74 2112.85,1359.73 2132.89,1362.66 2152.94,1365.54 2172.98,1368.36 2193.02,1371.13 2213.06,1373.85 2233.1,1376.52 2253.15,1379.14 2273.19,1381.71 2293.23,1384.24 "/>
<path clip-path="url(#clip600)" d="M1603.12 248.629 L2282.65 248.629 L2282.65 93.1086 L1603.12 93.1086  Z" fill="#ffffff" fill-rule="evenodd" fill-opacity="1"/>
<polyline clip-path="url(#clip600)" style="stroke:#000000; stroke-linecap:round; stroke-linejoin:round; stroke-width:4; stroke-opacity:1; fill:none" points="1603.12,248.629 2282.65,248.629 2282.65,93.1086 1603.12,93.1086 1603.12,248.629 "/>
<line clip-path="url(#clip600)" x1="1696.59" y1="144.949" x2="1673.84" y2="122.193" style="stroke:#000000; stroke-width:4.55111; stroke-opacity:1"/>
<line clip-path="url(#clip600)" x1="1696.59" y1="144.949" x2="1673.84" y2="167.704" style="stroke:#000000; stroke-width:4.55111; stroke-opacity:1"/>
<line clip-path="url(#clip600)" x1="1696.59" y1="144.949" x2="1719.35" y2="167.704" style="stroke:#000000; stroke-width:4.55111; stroke-opacity:1"/>
<line clip-path="url(#clip600)" x1="1696.59" y1="144.949" x2="1719.35" y2="122.193" style="stroke:#000000; stroke-width:4.55111; stroke-opacity:1"/>
<path clip-path="url(#clip600)" d="M1806.09 130.84 Q1801 130.84 1797.99 134.636 Q1795 138.432 1795 144.983 Q1795 151.511 1797.99 155.307 Q1801 159.104 1806.09 159.104 Q1811.18 159.104 1814.14 155.307 Q1817.13 151.511 1817.13 144.983 Q1817.13 138.432 1814.14 134.636 Q1811.18 130.84 1806.09 130.84 M1806.09 127.044 Q1813.36 127.044 1817.71 131.928 Q1822.06 136.789 1822.06 144.983 Q1822.06 153.155 1817.71 158.039 Q1813.36 162.9 1806.09 162.9 Q1798.8 162.9 1794.42 158.039 Q1790.07 153.178 1790.07 144.983 Q1790.07 136.789 1794.42 131.928 Q1798.8 127.044 1806.09 127.044 Z" fill="#000000" fill-rule="nonzero" fill-opacity="1" /><path clip-path="url(#clip600)" d="M1847.8 149.289 Q1847.8 144.59 1845.86 141.928 Q1843.93 139.243 1840.56 139.243 Q1837.18 139.243 1835.23 141.928 Q1833.31 144.59 1833.31 149.289 Q1833.31 153.988 1835.23 156.673 Q1837.18 159.335 1840.56 159.335 Q1843.93 159.335 1845.86 156.673 Q1847.8 153.988 1847.8 149.289 M1833.31 140.238 Q1834.65 137.923 1836.69 136.812 Q1838.75 135.678 1841.6 135.678 Q1846.32 135.678 1849.26 139.428 Q1852.22 143.178 1852.22 149.289 Q1852.22 155.4 1849.26 159.15 Q1846.32 162.9 1841.6 162.9 Q1838.75 162.9 1836.69 161.789 Q1834.65 160.655 1833.31 158.34 L1833.31 162.229 L1829.03 162.229 L1829.03 126.21 L1833.31 126.21 L1833.31 140.238 Z" fill="#000000" fill-rule="nonzero" fill-opacity="1" /><path clip-path="url(#clip600)" d="M1875.81 137.067 L1875.81 141.094 Q1874 140.169 1872.06 139.706 Q1870.12 139.243 1868.03 139.243 Q1864.86 139.243 1863.26 140.215 Q1861.69 141.187 1861.69 143.131 Q1861.69 144.613 1862.82 145.469 Q1863.96 146.303 1867.38 147.067 L1868.84 147.391 Q1873.38 148.363 1875.28 150.145 Q1877.2 151.905 1877.2 155.076 Q1877.2 158.687 1874.33 160.793 Q1871.48 162.9 1866.48 162.9 Q1864.4 162.9 1862.13 162.483 Q1859.88 162.09 1857.38 161.28 L1857.38 156.881 Q1859.74 158.108 1862.04 158.733 Q1864.33 159.335 1866.57 159.335 Q1869.58 159.335 1871.2 158.317 Q1872.82 157.275 1872.82 155.4 Q1872.82 153.664 1871.64 152.738 Q1870.49 151.812 1866.53 150.956 L1865.05 150.608 Q1861.09 149.775 1859.33 148.062 Q1857.57 146.326 1857.57 143.317 Q1857.57 139.659 1860.16 137.669 Q1862.75 135.678 1867.52 135.678 Q1869.88 135.678 1871.97 136.025 Q1874.05 136.372 1875.81 137.067 Z" fill="#000000" fill-rule="nonzero" fill-opacity="1" /><path clip-path="url(#clip600)" d="M1906.16 148.201 L1906.16 150.284 L1886.57 150.284 Q1886.85 154.682 1889.21 156.997 Q1891.6 159.289 1895.83 159.289 Q1898.29 159.289 1900.58 158.687 Q1902.89 158.085 1905.16 156.881 L1905.16 160.909 Q1902.87 161.881 1900.46 162.391 Q1898.05 162.9 1895.58 162.9 Q1889.37 162.9 1885.74 159.289 Q1882.13 155.678 1882.13 149.52 Q1882.13 143.155 1885.55 139.428 Q1889 135.678 1894.84 135.678 Q1900.07 135.678 1903.1 139.057 Q1906.16 142.414 1906.16 148.201 M1901.9 146.951 Q1901.85 143.456 1899.93 141.372 Q1898.03 139.289 1894.88 139.289 Q1891.32 139.289 1889.17 141.303 Q1887.04 143.317 1886.71 146.974 L1901.9 146.951 Z" fill="#000000" fill-rule="nonzero" fill-opacity="1" /><path clip-path="url(#clip600)" d="M1928.17 140.284 Q1927.45 139.868 1926.6 139.682 Q1925.76 139.474 1924.74 139.474 Q1921.13 139.474 1919.19 141.835 Q1917.27 144.173 1917.27 148.571 L1917.27 162.229 L1912.99 162.229 L1912.99 136.303 L1917.27 136.303 L1917.27 140.331 Q1918.61 137.969 1920.76 136.835 Q1922.92 135.678 1925.99 135.678 Q1926.43 135.678 1926.97 135.747 Q1927.5 135.794 1928.15 135.909 L1928.17 140.284 Z" fill="#000000" fill-rule="nonzero" fill-opacity="1" /><path clip-path="url(#clip600)" d="M1929.58 136.303 L1934.1 136.303 L1942.2 158.062 L1950.3 136.303 L1954.81 136.303 L1945.09 162.229 L1939.3 162.229 L1929.58 136.303 Z" fill="#000000" fill-rule="nonzero" fill-opacity="1" /><path clip-path="url(#clip600)" d="M1982.87 148.201 L1982.87 150.284 L1963.29 150.284 Q1963.56 154.682 1965.92 156.997 Q1968.31 159.289 1972.55 159.289 Q1975 159.289 1977.29 158.687 Q1979.61 158.085 1981.87 156.881 L1981.87 160.909 Q1979.58 161.881 1977.17 162.391 Q1974.77 162.9 1972.29 162.9 Q1966.09 162.9 1962.45 159.289 Q1958.84 155.678 1958.84 149.52 Q1958.84 143.155 1962.27 139.428 Q1965.72 135.678 1971.55 135.678 Q1976.78 135.678 1979.81 139.057 Q1982.87 142.414 1982.87 148.201 M1978.61 146.951 Q1978.56 143.456 1976.64 141.372 Q1974.74 139.289 1971.6 139.289 Q1968.03 139.289 1965.88 141.303 Q1963.75 143.317 1963.42 146.974 L1978.61 146.951 Z" fill="#000000" fill-rule="nonzero" fill-opacity="1" /><path clip-path="url(#clip600)" d="M2006.92 140.238 L2006.92 126.21 L2011.18 126.21 L2011.18 162.229 L2006.92 162.229 L2006.92 158.34 Q2005.58 160.655 2003.52 161.789 Q2001.48 162.9 1998.61 162.9 Q1993.91 162.9 1990.95 159.15 Q1988.01 155.4 1988.01 149.289 Q1988.01 143.178 1990.95 139.428 Q1993.91 135.678 1998.61 135.678 Q2001.48 135.678 2003.52 136.812 Q2005.58 137.923 2006.92 140.238 M1992.41 149.289 Q1992.41 153.988 1994.33 156.673 Q1996.27 159.335 1999.65 159.335 Q2003.03 159.335 2004.98 156.673 Q2006.92 153.988 2006.92 149.289 Q2006.92 144.59 2004.98 141.928 Q2003.03 139.243 1999.65 139.243 Q1996.27 139.243 1994.33 141.928 Q1992.41 144.59 1992.41 149.289 Z" fill="#000000" fill-rule="nonzero" fill-opacity="1" /><path clip-path="url(#clip600)" d="M2058.77 157.298 L2058.77 148.016 L2051.13 148.016 L2051.13 144.173 L2063.4 144.173 L2063.4 159.011 Q2060.69 160.932 2057.43 161.928 Q2054.17 162.9 2050.46 162.9 Q2042.36 162.9 2037.78 158.178 Q2033.22 153.432 2033.22 144.983 Q2033.22 136.511 2037.78 131.789 Q2042.36 127.044 2050.46 127.044 Q2053.84 127.044 2056.87 127.877 Q2059.93 128.71 2062.5 130.331 L2062.5 135.307 Q2059.91 133.108 2056.99 131.997 Q2054.07 130.886 2050.85 130.886 Q2044.51 130.886 2041.32 134.428 Q2038.15 137.969 2038.15 144.983 Q2038.15 151.974 2041.32 155.516 Q2044.51 159.057 2050.85 159.057 Q2053.33 159.057 2055.28 158.641 Q2057.22 158.201 2058.77 157.298 Z" fill="#000000" fill-rule="nonzero" fill-opacity="1" /><path clip-path="url(#clip600)" d="M2086.78 140.284 Q2086.06 139.868 2085.21 139.682 Q2084.37 139.474 2083.35 139.474 Q2079.74 139.474 2077.8 141.835 Q2075.88 144.173 2075.88 148.571 L2075.88 162.229 L2071.6 162.229 L2071.6 136.303 L2075.88 136.303 L2075.88 140.331 Q2077.22 137.969 2079.37 136.835 Q2081.53 135.678 2084.6 135.678 Q2085.04 135.678 2085.58 135.747 Q2086.11 135.794 2086.76 135.909 L2086.78 140.284 Z" fill="#000000" fill-rule="nonzero" fill-opacity="1" /><path clip-path="url(#clip600)" d="M2103.03 149.196 Q2097.87 149.196 2095.88 150.377 Q2093.89 151.557 2093.89 154.405 Q2093.89 156.673 2095.37 158.016 Q2096.87 159.335 2099.44 159.335 Q2102.98 159.335 2105.11 156.835 Q2107.27 154.312 2107.27 150.145 L2107.27 149.196 L2103.03 149.196 M2111.53 147.437 L2111.53 162.229 L2107.27 162.229 L2107.27 158.293 Q2105.81 160.655 2103.63 161.789 Q2101.46 162.9 2098.31 162.9 Q2094.33 162.9 2091.97 160.678 Q2089.63 158.432 2089.63 154.682 Q2089.63 150.307 2092.54 148.085 Q2095.48 145.863 2101.29 145.863 L2107.27 145.863 L2107.27 145.446 Q2107.27 142.507 2105.32 140.909 Q2103.4 139.289 2099.91 139.289 Q2097.68 139.289 2095.58 139.821 Q2093.47 140.354 2091.53 141.419 L2091.53 137.483 Q2093.86 136.581 2096.06 136.141 Q2098.26 135.678 2100.35 135.678 Q2105.97 135.678 2108.75 138.594 Q2111.53 141.511 2111.53 147.437 Z" fill="#000000" fill-rule="nonzero" fill-opacity="1" /><path clip-path="url(#clip600)" d="M2137.36 140.238 L2137.36 126.21 L2141.62 126.21 L2141.62 162.229 L2137.36 162.229 L2137.36 158.34 Q2136.02 160.655 2133.96 161.789 Q2131.92 162.9 2129.05 162.9 Q2124.35 162.9 2121.39 159.15 Q2118.45 155.4 2118.45 149.289 Q2118.45 143.178 2121.39 139.428 Q2124.35 135.678 2129.05 135.678 Q2131.92 135.678 2133.96 136.812 Q2136.02 137.923 2137.36 140.238 M2122.85 149.289 Q2122.85 153.988 2124.77 156.673 Q2126.71 159.335 2130.09 159.335 Q2133.47 159.335 2135.41 156.673 Q2137.36 153.988 2137.36 149.289 Q2137.36 144.59 2135.41 141.928 Q2133.47 139.243 2130.09 139.243 Q2126.71 139.243 2124.77 141.928 Q2122.85 144.59 2122.85 149.289 Z" fill="#000000" fill-rule="nonzero" fill-opacity="1" /><path clip-path="url(#clip600)" d="M2150.39 136.303 L2154.65 136.303 L2154.65 162.229 L2150.39 162.229 L2150.39 136.303 M2150.39 126.21 L2154.65 126.21 L2154.65 131.604 L2150.39 131.604 L2150.39 126.21 Z" fill="#000000" fill-rule="nonzero" fill-opacity="1" /><path clip-path="url(#clip600)" d="M2185.74 148.201 L2185.74 150.284 L2166.16 150.284 Q2166.43 154.682 2168.79 156.997 Q2171.18 159.289 2175.41 159.289 Q2177.87 159.289 2180.16 158.687 Q2182.47 158.085 2184.74 156.881 L2184.74 160.909 Q2182.45 161.881 2180.04 162.391 Q2177.64 162.9 2175.16 162.9 Q2168.96 162.9 2165.32 159.289 Q2161.71 155.678 2161.71 149.52 Q2161.71 143.155 2165.14 139.428 Q2168.59 135.678 2174.42 135.678 Q2179.65 135.678 2182.68 139.057 Q2185.74 142.414 2185.74 148.201 M2181.48 146.951 Q2181.43 143.456 2179.51 141.372 Q2177.61 139.289 2174.47 139.289 Q2170.9 139.289 2168.75 141.303 Q2166.62 143.317 2166.29 146.974 L2181.48 146.951 Z" fill="#000000" fill-rule="nonzero" fill-opacity="1" /><path clip-path="url(#clip600)" d="M2214.28 146.581 L2214.28 162.229 L2210.02 162.229 L2210.02 146.719 Q2210.02 143.039 2208.59 141.21 Q2207.15 139.382 2204.28 139.382 Q2200.83 139.382 2198.84 141.581 Q2196.85 143.78 2196.85 147.576 L2196.85 162.229 L2192.57 162.229 L2192.57 136.303 L2196.85 136.303 L2196.85 140.331 Q2198.38 137.993 2200.44 136.835 Q2202.52 135.678 2205.23 135.678 Q2209.7 135.678 2211.99 138.456 Q2214.28 141.21 2214.28 146.581 Z" fill="#000000" fill-rule="nonzero" fill-opacity="1" /><path clip-path="url(#clip600)" d="M2226.99 128.942 L2226.99 136.303 L2235.76 136.303 L2235.76 139.613 L2226.99 139.613 L2226.99 153.687 Q2226.99 156.858 2227.84 157.761 Q2228.72 158.664 2231.39 158.664 L2235.76 158.664 L2235.76 162.229 L2231.39 162.229 Q2226.46 162.229 2224.58 160.4 Q2222.71 158.548 2222.71 153.687 L2222.71 139.613 L2219.58 139.613 L2219.58 136.303 L2222.71 136.303 L2222.71 128.942 L2226.99 128.942 Z" fill="#000000" fill-rule="nonzero" fill-opacity="1" /><path clip-path="url(#clip600)" d="M2257.89 137.067 L2257.89 141.094 Q2256.09 140.169 2254.14 139.706 Q2252.2 139.243 2250.11 139.243 Q2246.94 139.243 2245.34 140.215 Q2243.77 141.187 2243.77 143.131 Q2243.77 144.613 2244.9 145.469 Q2246.04 146.303 2249.46 147.067 L2250.92 147.391 Q2255.46 148.363 2257.36 150.145 Q2259.28 151.905 2259.28 155.076 Q2259.28 158.687 2256.41 160.793 Q2253.56 162.9 2248.56 162.9 Q2246.48 162.9 2244.21 162.483 Q2241.97 162.09 2239.47 161.28 L2239.47 156.881 Q2241.83 158.108 2244.12 158.733 Q2246.41 159.335 2248.65 159.335 Q2251.66 159.335 2253.28 158.317 Q2254.9 157.275 2254.9 155.4 Q2254.9 153.664 2253.72 152.738 Q2252.57 151.812 2248.61 150.956 L2247.13 150.608 Q2243.17 149.775 2241.41 148.062 Q2239.65 146.326 2239.65 143.317 Q2239.65 139.659 2242.24 137.669 Q2244.84 135.678 2249.6 135.678 Q2251.96 135.678 2254.05 136.025 Q2256.13 136.372 2257.89 137.067 Z" fill="#000000" fill-rule="nonzero" fill-opacity="1" /><polyline clip-path="url(#clip600)" style="stroke:#e26f46; stroke-linecap:round; stroke-linejoin:round; stroke-width:4; stroke-opacity:1; fill:none" stroke-dasharray="16, 10" points="1626.49,196.789 1766.7,196.789 "/>
<path clip-path="url(#clip600)" d="M1794.75 183.351 L1794.75 196.337 L1800.62 196.337 Q1803.89 196.337 1805.67 194.647 Q1807.45 192.958 1807.45 189.833 Q1807.45 186.731 1805.67 185.041 Q1803.89 183.351 1800.62 183.351 L1794.75 183.351 M1790.07 179.509 L1800.62 179.509 Q1806.43 179.509 1809.4 182.147 Q1812.38 184.763 1812.38 189.833 Q1812.38 194.948 1809.4 197.564 Q1806.43 200.18 1800.62 200.18 L1794.75 200.18 L1794.75 214.069 L1790.07 214.069 L1790.07 179.509 Z" fill="#000000" fill-rule="nonzero" fill-opacity="1" /><path clip-path="url(#clip600)" d="M1826.83 191.129 Q1823.4 191.129 1821.41 193.814 Q1819.42 196.476 1819.42 201.129 Q1819.42 205.782 1821.39 208.467 Q1823.38 211.129 1826.83 211.129 Q1830.23 211.129 1832.22 208.444 Q1834.21 205.758 1834.21 201.129 Q1834.21 196.522 1832.22 193.837 Q1830.23 191.129 1826.83 191.129 M1826.83 187.518 Q1832.38 187.518 1835.56 191.129 Q1838.73 194.74 1838.73 201.129 Q1838.73 207.495 1835.56 211.129 Q1832.38 214.74 1826.83 214.74 Q1821.25 214.74 1818.08 211.129 Q1814.93 207.495 1814.93 201.129 Q1814.93 194.74 1818.08 191.129 Q1821.25 187.518 1826.83 187.518 Z" fill="#000000" fill-rule="nonzero" fill-opacity="1" /><path clip-path="url(#clip600)" d="M1843.31 188.143 L1847.57 188.143 L1852.89 208.374 L1858.19 188.143 L1863.22 188.143 L1868.54 208.374 L1873.84 188.143 L1878.1 188.143 L1871.32 214.069 L1866.3 214.069 L1860.72 192.819 L1855.12 214.069 L1850.09 214.069 L1843.31 188.143 Z" fill="#000000" fill-rule="nonzero" fill-opacity="1" /><path clip-path="url(#clip600)" d="M1906.74 200.041 L1906.74 202.124 L1887.15 202.124 Q1887.43 206.522 1889.79 208.837 Q1892.18 211.129 1896.41 211.129 Q1898.86 211.129 1901.16 210.527 Q1903.47 209.925 1905.74 208.721 L1905.74 212.749 Q1903.45 213.721 1901.04 214.231 Q1898.63 214.74 1896.16 214.74 Q1889.95 214.74 1886.32 211.129 Q1882.71 207.518 1882.71 201.36 Q1882.71 194.995 1886.13 191.268 Q1889.58 187.518 1895.42 187.518 Q1900.65 187.518 1903.68 190.897 Q1906.74 194.254 1906.74 200.041 M1902.48 198.791 Q1902.43 195.296 1900.51 193.212 Q1898.61 191.129 1895.46 191.129 Q1891.9 191.129 1889.74 193.143 Q1887.62 195.157 1887.29 198.814 L1902.48 198.791 Z" fill="#000000" fill-rule="nonzero" fill-opacity="1" /><path clip-path="url(#clip600)" d="M1928.75 192.124 Q1928.03 191.708 1927.18 191.522 Q1926.34 191.314 1925.32 191.314 Q1921.71 191.314 1919.77 193.675 Q1917.85 196.013 1917.85 200.411 L1917.85 214.069 L1913.56 214.069 L1913.56 188.143 L1917.85 188.143 L1917.85 192.171 Q1919.19 189.809 1921.34 188.675 Q1923.49 187.518 1926.57 187.518 Q1927.01 187.518 1927.55 187.587 Q1928.08 187.634 1928.73 187.749 L1928.75 192.124 Z" fill="#000000" fill-rule="nonzero" fill-opacity="1" /><path clip-path="url(#clip600)" d="M1928.03 199.184 L1940.51 199.184 L1940.51 202.981 L1928.03 202.981 L1928.03 199.184 Z" fill="#000000" fill-rule="nonzero" fill-opacity="1" /><path clip-path="url(#clip600)" d="M1947.29 178.05 L1951.55 178.05 L1951.55 214.069 L1947.29 214.069 L1947.29 178.05 Z" fill="#000000" fill-rule="nonzero" fill-opacity="1" /><path clip-path="url(#clip600)" d="M1972.24 201.036 Q1967.08 201.036 1965.09 202.217 Q1963.1 203.397 1963.1 206.245 Q1963.1 208.513 1964.58 209.856 Q1966.09 211.175 1968.66 211.175 Q1972.2 211.175 1974.33 208.675 Q1976.48 206.152 1976.48 201.985 L1976.48 201.036 L1972.24 201.036 M1980.74 199.277 L1980.74 214.069 L1976.48 214.069 L1976.48 210.133 Q1975.02 212.495 1972.85 213.629 Q1970.67 214.74 1967.52 214.74 Q1963.54 214.74 1961.18 212.518 Q1958.84 210.272 1958.84 206.522 Q1958.84 202.147 1961.76 199.925 Q1964.7 197.703 1970.51 197.703 L1976.48 197.703 L1976.48 197.286 Q1976.48 194.347 1974.54 192.749 Q1972.61 191.129 1969.12 191.129 Q1966.9 191.129 1964.79 191.661 Q1962.68 192.194 1960.74 193.259 L1960.74 189.323 Q1963.08 188.421 1965.28 187.981 Q1967.48 187.518 1969.56 187.518 Q1975.18 187.518 1977.96 190.434 Q1980.74 193.351 1980.74 199.277 Z" fill="#000000" fill-rule="nonzero" fill-opacity="1" /><path clip-path="url(#clip600)" d="M1987.04 188.143 L1991.3 188.143 L1996.62 208.374 L2001.92 188.143 L2006.94 188.143 L2012.27 208.374 L2017.57 188.143 L2021.83 188.143 L2015.04 214.069 L2010.02 214.069 L2004.44 192.819 L1998.84 214.069 L1993.82 214.069 L1987.04 188.143 Z" fill="#000000" fill-rule="nonzero" fill-opacity="1" /><path clip-path="url(#clip600)" d="M2043.54 179.509 L2063.4 179.509 L2063.4 183.444 L2048.22 183.444 L2048.22 193.629 L2061.92 193.629 L2061.92 197.564 L2048.22 197.564 L2048.22 214.069 L2043.54 214.069 L2043.54 179.509 Z" fill="#000000" fill-rule="nonzero" fill-opacity="1" /><path clip-path="url(#clip600)" d="M2067.17 188.143 L2071.43 188.143 L2071.43 214.069 L2067.17 214.069 L2067.17 188.143 M2067.17 178.05 L2071.43 178.05 L2071.43 183.444 L2067.17 183.444 L2067.17 178.05 Z" fill="#000000" fill-rule="nonzero" fill-opacity="1" /><path clip-path="url(#clip600)" d="M2084.56 180.782 L2084.56 188.143 L2093.33 188.143 L2093.33 191.453 L2084.56 191.453 L2084.56 205.527 Q2084.56 208.698 2085.41 209.601 Q2086.29 210.504 2088.96 210.504 L2093.33 210.504 L2093.33 214.069 L2088.96 214.069 Q2084.03 214.069 2082.15 212.24 Q2080.28 210.388 2080.28 205.527 L2080.28 191.453 L2077.15 191.453 L2077.15 188.143 L2080.28 188.143 L2080.28 180.782 L2084.56 180.782 Z" fill="#000000" fill-rule="nonzero" fill-opacity="1" /></svg>
