<?xml version="1.0" encoding="utf-8"?>
<svg xmlns="http://www.w3.org/2000/svg" xmlns:xlink="http://www.w3.org/1999/xlink" width="600" height="400" viewBox="0 0 2400 1600">
<defs>
  <clipPath id="clip980">
    <rect x="0" y="0" width="2400" height="1600"/>
  </clipPath>
</defs>
<path clip-path="url(#clip980)" d="M0 1600 L2400 1600 L2400 8.88178e-14 L0 8.88178e-14  Z" fill="#ffffff" fill-rule="evenodd" fill-opacity="1"/>
<defs>
  <clipPath id="clip981">
    <rect x="480" y="0" width="1681" height="1600"/>
  </clipPath>
</defs>
<path clip-path="url(#clip980)" d="M249.542 1423.18 L2352.76 1423.18 L2352.76 123.472 L249.542 123.472  Z" fill="#ffffff" fill-rule="evenodd" fill-opacity="1"/>
<defs>
  <clipPath id="clip982">
    <rect x="249" y="123" width="2104" height="1301"/>
  </clipPath>
</defs>
<polyline clip-path="url(#clip982)" style="stroke:#000000; stroke-linecap:round; stroke-linejoin:round; stroke-width:2; stroke-opacity:0.1; fill:none" points="309.067,1423.18 309.067,123.472 "/>
<polyline clip-path="url(#clip982)" style="stroke:#000000; stroke-linecap:round; stroke-linejoin:round; stroke-width:2; stroke-opacity:0.1; fill:none" points="705.9,1423.18 705.9,123.472 "/>
<polyline clip-path="url(#clip982)" style="stroke:#000000; stroke-linecap:round; stroke-linejoin:round; stroke-width:2; stroke-opacity:0.1; fill:none" points="1102.73,1423.18 1102.73,123.472 "/>
<polyline clip-path="url(#clip982)" style="stroke:#000000; stroke-linecap:round; stroke-linejoin:round; stroke-width:2; stroke-opacity:0.1; fill:none" points="1499.57,1423.18 1499.57,123.472 "/>
<polyline clip-path="url(#clip982)" style="stroke:#000000; stroke-linecap:round; stroke-linejoin:round; stroke-width:2; stroke-opacity:0.1; fill:none" points="1896.4,1423.18 1896.4,123.472 "/>
<polyline clip-path="url(#clip982)" style="stroke:#000000; stroke-linecap:round; stroke-linejoin:round; stroke-width:2; stroke-opacity:0.1; fill:none" points="2293.23,1423.18 2293.23,123.472 "/>
<polyline clip-path="url(#clip982)" style="stroke:#000000; stroke-linecap:round; stroke-linejoin:round; stroke-width:2; stroke-opacity:0.1; fill:none" points="249.542,1296.9 2352.76,1296.9 "/>
<polyline clip-path="url(#clip982)" style="stroke:#000000; stroke-linecap:round; stroke-linejoin:round; stroke-width:2; stroke-opacity:0.1; fill:none" points="249.542,1084.92 2352.76,1084.92 "/>
<polyline clip-path="url(#clip982)" style="stroke:#000000; stroke-linecap:round; stroke-linejoin:round; stroke-width:2; stroke-opacity:0.1; fill:none" points="249.542,872.935 2352.76,872.935 "/>
<polyline clip-path="url(#clip982)" style="stroke:#000000; stroke-linecap:round; stroke-linejoin:round; stroke-width:2; stroke-opacity:0.1; fill:none" points="249.542,660.95 2352.76,660.95 "/>
<polyline clip-path="url(#clip982)" style="stroke:#000000; stroke-linecap:round; stroke-linejoin:round; stroke-width:2; stroke-opacity:0.1; fill:none" points="249.542,448.966 2352.76,448.966 "/>
<polyline clip-path="url(#clip982)" style="stroke:#000000; stroke-linecap:round; stroke-linejoin:round; stroke-width:2; stroke-opacity:0.1; fill:none" points="249.542,236.981 2352.76,236.981 "/>
<polyline clip-path="url(#clip980)" style="stroke:#000000; stroke-linecap:round; stroke-linejoin:round; stroke-width:4; stroke-opacity:1; fill:none" points="249.542,1423.18 2352.76,1423.18 "/>
<polyline clip-path="url(#clip980)" style="stroke:#000000; stroke-linecap:round; stroke-linejoin:round; stroke-width:4; stroke-opacity:1; fill:none" points="309.067,1423.18 309.067,1404.28 "/>
<polyline clip-path="url(#clip980)" style="stroke:#000000; stroke-linecap:round; stroke-linejoin:round; stroke-width:4; stroke-opacity:1; fill:none" points="705.9,1423.18 705.9,1404.28 "/>
<polyline clip-path="url(#clip980)" style="stroke:#000000; stroke-linecap:round; stroke-linejoin:round; stroke-width:4; stroke-opacity:1; fill:none" points="1102.73,1423.18 1102.73,1404.28 "/>
<polyline clip-path="url(#clip980)" style="stroke:#000000; stroke-linecap:round; stroke-linejoin:round; stroke-width:4; stroke-opacity:1; fill:none" points="1499.57,1423.18 1499.57,1404.28 "/>
<polyline clip-path="url(#clip980)" style="stroke:#000000; stroke-linecap:round; stroke-linejoin:round; stroke-width:4; stroke-opacity:1; fill:none" points="1896.4,1423.18 1896.4,1404.28 "/>
<polyline clip-path="url(#clip980)" style="stroke:#000000; stroke-linecap:round; stroke-linejoin:round; stroke-width:4; stroke-opacity:1; fill:none" points="2293.23,1423.18 2293.23,1404.28 "/>
<path clip-path="url(#clip980)" d="M303.72 1481.64 L320.039 1481.64 L320.039 1485.58 L298.095 1485.58 L298.095 1481.64 Q300.757 1478.89 305.34 1474.26 Q309.947 1469.61 311.127 1468.27 Q313.372 1465.74 314.252 1464.01 Q315.155 1462.25 315.155 1460.56 Q315.155 1457.8 313.21 1456.07 Q311.289 1454.33 308.187 1454.33 Q305.988 1454.33 303.535 1455.09 Q301.104 1455.86 298.326 1457.41 L298.326 1452.69 Q301.15 1451.55 303.604 1450.97 Q306.058 1450.39 308.095 1450.39 Q313.465 1450.39 316.66 1453.08 Q319.854 1455.77 319.854 1460.26 Q319.854 1462.39 319.044 1464.31 Q318.257 1466.2 316.15 1468.8 Q315.572 1469.47 312.47 1472.69 Q309.368 1475.88 303.72 1481.64 Z" fill="#000000" fill-rule="nonzero" fill-opacity="1" /><path clip-path="url(#clip980)" d="M710.147 1466.95 Q713.504 1467.66 715.379 1469.93 Q717.277 1472.2 717.277 1475.53 Q717.277 1480.65 713.759 1483.45 Q710.24 1486.25 703.759 1486.25 Q701.583 1486.25 699.268 1485.81 Q696.976 1485.39 694.523 1484.54 L694.523 1480.02 Q696.467 1481.16 698.782 1481.74 Q701.097 1482.32 703.62 1482.32 Q708.018 1482.32 710.309 1480.58 Q712.624 1478.84 712.624 1475.53 Q712.624 1472.48 710.471 1470.77 Q708.342 1469.03 704.522 1469.03 L700.495 1469.03 L700.495 1465.19 L704.708 1465.19 Q708.157 1465.19 709.985 1463.82 Q711.814 1462.43 711.814 1459.84 Q711.814 1457.18 709.916 1455.77 Q708.041 1454.33 704.522 1454.33 Q702.601 1454.33 700.402 1454.75 Q698.203 1455.16 695.564 1456.04 L695.564 1451.88 Q698.226 1451.14 700.541 1450.77 Q702.879 1450.39 704.939 1450.39 Q710.263 1450.39 713.365 1452.83 Q716.467 1455.23 716.467 1459.35 Q716.467 1462.22 714.823 1464.21 Q713.18 1466.18 710.147 1466.95 Z" fill="#000000" fill-rule="nonzero" fill-opacity="1" /><path clip-path="url(#clip980)" d="M1105.74 1455.09 L1093.94 1473.54 L1105.74 1473.54 L1105.74 1455.09 M1104.51 1451.02 L1110.39 1451.02 L1110.39 1473.54 L1115.33 1473.54 L1115.33 1477.43 L1110.39 1477.43 L1110.39 1485.58 L1105.74 1485.58 L1105.74 1477.43 L1090.14 1477.43 L1090.14 1472.92 L1104.51 1451.02 Z" fill="#000000" fill-rule="nonzero" fill-opacity="1" /><path clip-path="url(#clip980)" d="M1489.84 1451.02 L1508.2 1451.02 L1508.2 1454.96 L1494.13 1454.96 L1494.13 1463.43 Q1495.14 1463.08 1496.16 1462.92 Q1497.18 1462.73 1498.2 1462.73 Q1503.99 1462.73 1507.37 1465.9 Q1510.75 1469.08 1510.75 1474.49 Q1510.75 1480.07 1507.27 1483.17 Q1503.8 1486.25 1497.48 1486.25 Q1495.31 1486.25 1493.04 1485.88 Q1490.79 1485.51 1488.38 1484.77 L1488.38 1480.07 Q1490.47 1481.2 1492.69 1481.76 Q1494.91 1482.32 1497.39 1482.32 Q1501.39 1482.32 1503.73 1480.21 Q1506.07 1478.1 1506.07 1474.49 Q1506.07 1470.88 1503.73 1468.77 Q1501.39 1466.67 1497.39 1466.67 Q1495.51 1466.67 1493.64 1467.08 Q1491.79 1467.5 1489.84 1468.38 L1489.84 1451.02 Z" fill="#000000" fill-rule="nonzero" fill-opacity="1" /><path clip-path="url(#clip980)" d="M1896.8 1466.44 Q1893.66 1466.44 1891.8 1468.59 Q1889.97 1470.74 1889.97 1474.49 Q1889.97 1478.22 1891.8 1480.39 Q1893.66 1482.55 1896.8 1482.55 Q1899.95 1482.55 1901.78 1480.39 Q1903.63 1478.22 1903.63 1474.49 Q1903.63 1470.74 1901.78 1468.59 Q1899.95 1466.44 1896.8 1466.44 M1906.09 1451.78 L1906.09 1456.04 Q1904.33 1455.21 1902.52 1454.77 Q1900.74 1454.33 1898.98 1454.33 Q1894.35 1454.33 1891.9 1457.45 Q1889.47 1460.58 1889.12 1466.9 Q1890.48 1464.89 1892.54 1463.82 Q1894.6 1462.73 1897.08 1462.73 Q1902.29 1462.73 1905.3 1465.9 Q1908.33 1469.05 1908.33 1474.49 Q1908.33 1479.82 1905.18 1483.03 Q1902.03 1486.25 1896.8 1486.25 Q1890.81 1486.25 1887.64 1481.67 Q1884.47 1477.06 1884.47 1468.33 Q1884.47 1460.14 1888.35 1455.28 Q1892.24 1450.39 1898.79 1450.39 Q1900.55 1450.39 1902.34 1450.74 Q1904.14 1451.09 1906.09 1451.78 Z" fill="#000000" fill-rule="nonzero" fill-opacity="1" /><path clip-path="url(#clip980)" d="M2282.12 1451.02 L2304.34 1451.02 L2304.34 1453.01 L2291.8 1485.58 L2286.91 1485.58 L2298.72 1454.96 L2282.12 1454.96 L2282.12 1451.02 Z" fill="#000000" fill-rule="nonzero" fill-opacity="1" /><path clip-path="url(#clip980)" d="M1283.17 1520.52 L1291.82 1520.52 L1312.89 1560.28 L1312.89 1520.52 L1319.13 1520.52 L1319.13 1568.04 L1310.47 1568.04 L1289.4 1528.29 L1289.4 1568.04 L1283.17 1568.04 L1283.17 1520.52 Z" fill="#000000" fill-rule="nonzero" fill-opacity="1" /><polyline clip-path="url(#clip980)" style="stroke:#000000; stroke-linecap:round; stroke-linejoin:round; stroke-width:4; stroke-opacity:1; fill:none" points="249.542,1423.18 249.542,123.472 "/>
<polyline clip-path="url(#clip980)" style="stroke:#000000; stroke-linecap:round; stroke-linejoin:round; stroke-width:4; stroke-opacity:1; fill:none" points="249.542,1296.9 268.44,1296.9 "/>
<polyline clip-path="url(#clip980)" style="stroke:#000000; stroke-linecap:round; stroke-linejoin:round; stroke-width:4; stroke-opacity:1; fill:none" points="249.542,1084.92 268.44,1084.92 "/>
<polyline clip-path="url(#clip980)" style="stroke:#000000; stroke-linecap:round; stroke-linejoin:round; stroke-width:4; stroke-opacity:1; fill:none" points="249.542,872.935 268.44,872.935 "/>
<polyline clip-path="url(#clip980)" style="stroke:#000000; stroke-linecap:round; stroke-linejoin:round; stroke-width:4; stroke-opacity:1; fill:none" points="249.542,660.95 268.44,660.95 "/>
<polyline clip-path="url(#clip980)" style="stroke:#000000; stroke-linecap:round; stroke-linejoin:round; stroke-width:4; stroke-opacity:1; fill:none" points="249.542,448.966 268.44,448.966 "/>
<polyline clip-path="url(#clip980)" style="stroke:#000000; stroke-linecap:round; stroke-linejoin:round; stroke-width:4; stroke-opacity:1; fill:none" points="249.542,236.981 268.44,236.981 "/>
<path clip-path="url(#clip980)" d="M127.2 1282.7 Q123.589 1282.7 121.76 1286.27 Q119.955 1289.81 119.955 1296.94 Q119.955 1304.05 121.76 1307.61 Q123.589 1311.15 127.2 1311.15 Q130.834 1311.15 132.64 1307.61 Q134.468 1304.05 134.468 1296.94 Q134.468 1289.81 132.64 1286.27 Q130.834 1282.7 127.2 1282.7 M127.2 1279 Q133.01 1279 136.066 1283.61 Q139.144 1288.19 139.144 1296.94 Q139.144 1305.67 136.066 1310.27 Q133.01 1314.86 127.2 1314.86 Q121.39 1314.86 118.311 1310.27 Q115.256 1305.67 115.256 1296.94 Q115.256 1288.19 118.311 1283.61 Q121.39 1279 127.2 1279 Z" fill="#000000" fill-rule="nonzero" fill-opacity="1" /><path clip-path="url(#clip980)" d="M147.362 1308.3 L152.246 1308.3 L152.246 1314.18 L147.362 1314.18 L147.362 1308.3 Z" fill="#000000" fill-rule="nonzero" fill-opacity="1" /><path clip-path="url(#clip980)" d="M172.431 1282.7 Q168.82 1282.7 166.991 1286.27 Q165.186 1289.81 165.186 1296.94 Q165.186 1304.05 166.991 1307.61 Q168.82 1311.15 172.431 1311.15 Q176.065 1311.15 177.871 1307.61 Q179.7 1304.05 179.7 1296.94 Q179.7 1289.81 177.871 1286.27 Q176.065 1282.7 172.431 1282.7 M172.431 1279 Q178.241 1279 181.297 1283.61 Q184.376 1288.19 184.376 1296.94 Q184.376 1305.67 181.297 1310.27 Q178.241 1314.86 172.431 1314.86 Q166.621 1314.86 163.542 1310.27 Q160.487 1305.67 160.487 1296.94 Q160.487 1288.19 163.542 1283.61 Q166.621 1279 172.431 1279 Z" fill="#000000" fill-rule="nonzero" fill-opacity="1" /><path clip-path="url(#clip980)" d="M192.639 1279.62 L210.996 1279.62 L210.996 1283.56 L196.922 1283.56 L196.922 1292.03 Q197.94 1291.68 198.959 1291.52 Q199.977 1291.34 200.996 1291.34 Q206.783 1291.34 210.162 1294.51 Q213.542 1297.68 213.542 1303.1 Q213.542 1308.67 210.07 1311.78 Q206.598 1314.86 200.278 1314.86 Q198.102 1314.86 195.834 1314.49 Q193.588 1314.11 191.181 1313.37 L191.181 1308.67 Q193.264 1309.81 195.487 1310.36 Q197.709 1310.92 200.186 1310.92 Q204.19 1310.92 206.528 1308.81 Q208.866 1306.71 208.866 1303.1 Q208.866 1299.49 206.528 1297.38 Q204.19 1295.27 200.186 1295.27 Q198.311 1295.27 196.436 1295.69 Q194.584 1296.11 192.639 1296.99 L192.639 1279.62 Z" fill="#000000" fill-rule="nonzero" fill-opacity="1" /><path clip-path="url(#clip980)" d="M126.205 1070.72 Q122.593 1070.72 120.765 1074.28 Q118.959 1077.82 118.959 1084.95 Q118.959 1092.06 120.765 1095.63 Q122.593 1099.17 126.205 1099.17 Q129.839 1099.17 131.644 1095.63 Q133.473 1092.06 133.473 1084.95 Q133.473 1077.82 131.644 1074.28 Q129.839 1070.72 126.205 1070.72 M126.205 1067.01 Q132.015 1067.01 135.07 1071.62 Q138.149 1076.2 138.149 1084.95 Q138.149 1093.68 135.07 1098.29 Q132.015 1102.87 126.205 1102.87 Q120.394 1102.87 117.316 1098.29 Q114.26 1093.68 114.26 1084.95 Q114.26 1076.2 117.316 1071.62 Q120.394 1067.01 126.205 1067.01 Z" fill="#000000" fill-rule="nonzero" fill-opacity="1" /><path clip-path="url(#clip980)" d="M146.366 1096.32 L151.251 1096.32 L151.251 1102.2 L146.366 1102.2 L146.366 1096.32 Z" fill="#000000" fill-rule="nonzero" fill-opacity="1" /><path clip-path="url(#clip980)" d="M162.246 1098.26 L169.885 1098.26 L169.885 1071.9 L161.575 1073.57 L161.575 1069.31 L169.839 1067.64 L174.514 1067.64 L174.514 1098.26 L182.153 1098.26 L182.153 1102.2 L162.246 1102.2 L162.246 1098.26 Z" fill="#000000" fill-rule="nonzero" fill-opacity="1" /><path clip-path="url(#clip980)" d="M201.598 1070.72 Q197.987 1070.72 196.158 1074.28 Q194.352 1077.82 194.352 1084.95 Q194.352 1092.06 196.158 1095.63 Q197.987 1099.17 201.598 1099.17 Q205.232 1099.17 207.037 1095.63 Q208.866 1092.06 208.866 1084.95 Q208.866 1077.82 207.037 1074.28 Q205.232 1070.72 201.598 1070.72 M201.598 1067.01 Q207.408 1067.01 210.463 1071.62 Q213.542 1076.2 213.542 1084.95 Q213.542 1093.68 210.463 1098.29 Q207.408 1102.87 201.598 1102.87 Q195.787 1102.87 192.709 1098.29 Q189.653 1093.68 189.653 1084.95 Q189.653 1076.2 192.709 1071.62 Q195.787 1067.01 201.598 1067.01 Z" fill="#000000" fill-rule="nonzero" fill-opacity="1" /><path clip-path="url(#clip980)" d="M127.2 858.734 Q123.589 858.734 121.76 862.298 Q119.955 865.84 119.955 872.97 Q119.955 880.076 121.76 883.641 Q123.589 887.183 127.2 887.183 Q130.834 887.183 132.64 883.641 Q134.468 880.076 134.468 872.97 Q134.468 865.84 132.64 862.298 Q130.834 858.734 127.2 858.734 M127.2 855.03 Q133.01 855.03 136.066 859.636 Q139.144 864.22 139.144 872.97 Q139.144 881.697 136.066 886.303 Q133.01 890.886 127.2 890.886 Q121.39 890.886 118.311 886.303 Q115.256 881.697 115.256 872.97 Q115.256 864.22 118.311 859.636 Q121.39 855.03 127.2 855.03 Z" fill="#000000" fill-rule="nonzero" fill-opacity="1" /><path clip-path="url(#clip980)" d="M147.362 884.335 L152.246 884.335 L152.246 890.215 L147.362 890.215 L147.362 884.335 Z" fill="#000000" fill-rule="nonzero" fill-opacity="1" /><path clip-path="url(#clip980)" d="M163.241 886.28 L170.88 886.28 L170.88 859.914 L162.57 861.581 L162.57 857.322 L170.834 855.655 L175.51 855.655 L175.51 886.28 L183.149 886.28 L183.149 890.215 L163.241 890.215 L163.241 886.28 Z" fill="#000000" fill-rule="nonzero" fill-opacity="1" /><path clip-path="url(#clip980)" d="M192.639 855.655 L210.996 855.655 L210.996 859.59 L196.922 859.59 L196.922 868.062 Q197.94 867.715 198.959 867.553 Q199.977 867.368 200.996 867.368 Q206.783 867.368 210.162 870.539 Q213.542 873.71 213.542 879.127 Q213.542 884.706 210.07 887.808 Q206.598 890.886 200.278 890.886 Q198.102 890.886 195.834 890.516 Q193.588 890.146 191.181 889.405 L191.181 884.706 Q193.264 885.84 195.487 886.396 Q197.709 886.951 200.186 886.951 Q204.19 886.951 206.528 884.845 Q208.866 882.738 208.866 879.127 Q208.866 875.516 206.528 873.41 Q204.19 871.303 200.186 871.303 Q198.311 871.303 196.436 871.72 Q194.584 872.136 192.639 873.016 L192.639 855.655 Z" fill="#000000" fill-rule="nonzero" fill-opacity="1" /><path clip-path="url(#clip980)" d="M126.205 646.749 Q122.593 646.749 120.765 650.314 Q118.959 653.856 118.959 660.985 Q118.959 668.092 120.765 671.656 Q122.593 675.198 126.205 675.198 Q129.839 675.198 131.644 671.656 Q133.473 668.092 133.473 660.985 Q133.473 653.856 131.644 650.314 Q129.839 646.749 126.205 646.749 M126.205 643.045 Q132.015 643.045 135.07 647.652 Q138.149 652.235 138.149 660.985 Q138.149 669.712 135.07 674.318 Q132.015 678.902 126.205 678.902 Q120.394 678.902 117.316 674.318 Q114.26 669.712 114.26 660.985 Q114.26 652.235 117.316 647.652 Q120.394 643.045 126.205 643.045 Z" fill="#000000" fill-rule="nonzero" fill-opacity="1" /><path clip-path="url(#clip980)" d="M146.366 672.351 L151.251 672.351 L151.251 678.23 L146.366 678.23 L146.366 672.351 Z" fill="#000000" fill-rule="nonzero" fill-opacity="1" /><path clip-path="url(#clip980)" d="M165.464 674.295 L181.783 674.295 L181.783 678.23 L159.839 678.23 L159.839 674.295 Q162.501 671.541 167.084 666.911 Q171.69 662.258 172.871 660.916 Q175.116 658.393 175.996 656.656 Q176.899 654.897 176.899 653.207 Q176.899 650.453 174.954 648.717 Q173.033 646.981 169.931 646.981 Q167.732 646.981 165.278 647.744 Q162.848 648.508 160.07 650.059 L160.07 645.337 Q162.894 644.203 165.348 643.624 Q167.802 643.045 169.839 643.045 Q175.209 643.045 178.403 645.731 Q181.598 648.416 181.598 652.906 Q181.598 655.036 180.788 656.957 Q180.001 658.856 177.894 661.448 Q177.315 662.119 174.214 665.337 Q171.112 668.531 165.464 674.295 Z" fill="#000000" fill-rule="nonzero" fill-opacity="1" /><path clip-path="url(#clip980)" d="M201.598 646.749 Q197.987 646.749 196.158 650.314 Q194.352 653.856 194.352 660.985 Q194.352 668.092 196.158 671.656 Q197.987 675.198 201.598 675.198 Q205.232 675.198 207.037 671.656 Q208.866 668.092 208.866 660.985 Q208.866 653.856 207.037 650.314 Q205.232 646.749 201.598 646.749 M201.598 643.045 Q207.408 643.045 210.463 647.652 Q213.542 652.235 213.542 660.985 Q213.542 669.712 210.463 674.318 Q207.408 678.902 201.598 678.902 Q195.787 678.902 192.709 674.318 Q189.653 669.712 189.653 660.985 Q189.653 652.235 192.709 647.652 Q195.787 643.045 201.598 643.045 Z" fill="#000000" fill-rule="nonzero" fill-opacity="1" /><path clip-path="url(#clip980)" d="M127.2 434.765 Q123.589 434.765 121.76 438.329 Q119.955 441.871 119.955 449.001 Q119.955 456.107 121.76 459.672 Q123.589 463.213 127.2 463.213 Q130.834 463.213 132.64 459.672 Q134.468 456.107 134.468 449.001 Q134.468 441.871 132.64 438.329 Q130.834 434.765 127.2 434.765 M127.2 431.061 Q133.01 431.061 136.066 435.667 Q139.144 440.251 139.144 449.001 Q139.144 457.727 136.066 462.334 Q133.01 466.917 127.2 466.917 Q121.39 466.917 118.311 462.334 Q115.256 457.727 115.256 449.001 Q115.256 440.251 118.311 435.667 Q121.39 431.061 127.2 431.061 Z" fill="#000000" fill-rule="nonzero" fill-opacity="1" /><path clip-path="url(#clip980)" d="M147.362 460.366 L152.246 460.366 L152.246 466.246 L147.362 466.246 L147.362 460.366 Z" fill="#000000" fill-rule="nonzero" fill-opacity="1" /><path clip-path="url(#clip980)" d="M166.459 462.311 L182.778 462.311 L182.778 466.246 L160.834 466.246 L160.834 462.311 Q163.496 459.556 168.079 454.926 Q172.686 450.274 173.866 448.931 Q176.112 446.408 176.991 444.672 Q177.894 442.913 177.894 441.223 Q177.894 438.468 175.95 436.732 Q174.028 434.996 170.927 434.996 Q168.727 434.996 166.274 435.76 Q163.843 436.524 161.065 438.075 L161.065 433.352 Q163.89 432.218 166.343 431.64 Q168.797 431.061 170.834 431.061 Q176.204 431.061 179.399 433.746 Q182.593 436.431 182.593 440.922 Q182.593 443.051 181.783 444.973 Q180.996 446.871 178.889 449.463 Q178.311 450.135 175.209 453.352 Q172.107 456.547 166.459 462.311 Z" fill="#000000" fill-rule="nonzero" fill-opacity="1" /><path clip-path="url(#clip980)" d="M192.639 431.686 L210.996 431.686 L210.996 435.621 L196.922 435.621 L196.922 444.093 Q197.94 443.746 198.959 443.584 Q199.977 443.399 200.996 443.399 Q206.783 443.399 210.162 446.57 Q213.542 449.741 213.542 455.158 Q213.542 460.737 210.07 463.838 Q206.598 466.917 200.278 466.917 Q198.102 466.917 195.834 466.547 Q193.588 466.176 191.181 465.436 L191.181 460.737 Q193.264 461.871 195.487 462.426 Q197.709 462.982 200.186 462.982 Q204.19 462.982 206.528 460.875 Q208.866 458.769 208.866 455.158 Q208.866 451.547 206.528 449.44 Q204.19 447.334 200.186 447.334 Q198.311 447.334 196.436 447.751 Q194.584 448.167 192.639 449.047 L192.639 431.686 Z" fill="#000000" fill-rule="nonzero" fill-opacity="1" /><path clip-path="url(#clip980)" d="M126.205 222.78 Q122.593 222.78 120.765 226.345 Q118.959 229.886 118.959 237.016 Q118.959 244.122 120.765 247.687 Q122.593 251.229 126.205 251.229 Q129.839 251.229 131.644 247.687 Q133.473 244.122 133.473 237.016 Q133.473 229.886 131.644 226.345 Q129.839 222.78 126.205 222.78 M126.205 219.076 Q132.015 219.076 135.07 223.683 Q138.149 228.266 138.149 237.016 Q138.149 245.743 135.07 250.349 Q132.015 254.933 126.205 254.933 Q120.394 254.933 117.316 250.349 Q114.26 245.743 114.26 237.016 Q114.26 228.266 117.316 223.683 Q120.394 219.076 126.205 219.076 Z" fill="#000000" fill-rule="nonzero" fill-opacity="1" /><path clip-path="url(#clip980)" d="M146.366 248.382 L151.251 248.382 L151.251 254.261 L146.366 254.261 L146.366 248.382 Z" fill="#000000" fill-rule="nonzero" fill-opacity="1" /><path clip-path="url(#clip980)" d="M175.602 235.627 Q178.959 236.345 180.834 238.613 Q182.732 240.882 182.732 244.215 Q182.732 249.331 179.214 252.132 Q175.695 254.933 169.214 254.933 Q167.038 254.933 164.723 254.493 Q162.431 254.076 159.978 253.22 L159.978 248.706 Q161.922 249.84 164.237 250.419 Q166.552 250.997 169.075 250.997 Q173.473 250.997 175.764 249.261 Q178.079 247.525 178.079 244.215 Q178.079 241.159 175.926 239.446 Q173.797 237.71 169.977 237.71 L165.95 237.71 L165.95 233.868 L170.163 233.868 Q173.612 233.868 175.44 232.502 Q177.269 231.113 177.269 228.521 Q177.269 225.859 175.371 224.447 Q173.496 223.011 169.977 223.011 Q168.056 223.011 165.857 223.428 Q163.658 223.845 161.019 224.724 L161.019 220.558 Q163.681 219.817 165.996 219.447 Q168.334 219.076 170.394 219.076 Q175.718 219.076 178.82 221.507 Q181.922 223.914 181.922 228.035 Q181.922 230.905 180.278 232.896 Q178.635 234.863 175.602 235.627 Z" fill="#000000" fill-rule="nonzero" fill-opacity="1" /><path clip-path="url(#clip980)" d="M201.598 222.78 Q197.987 222.78 196.158 226.345 Q194.352 229.886 194.352 237.016 Q194.352 244.122 196.158 247.687 Q197.987 251.229 201.598 251.229 Q205.232 251.229 207.037 247.687 Q208.866 244.122 208.866 237.016 Q208.866 229.886 207.037 226.345 Q205.232 222.78 201.598 222.78 M201.598 219.076 Q207.408 219.076 210.463 223.683 Q213.542 228.266 213.542 237.016 Q213.542 245.743 210.463 250.349 Q207.408 254.933 201.598 254.933 Q195.787 254.933 192.709 250.349 Q189.653 245.743 189.653 237.016 Q189.653 228.266 192.709 223.683 Q195.787 219.076 201.598 219.076 Z" fill="#000000" fill-rule="nonzero" fill-opacity="1" /><path clip-path="url(#clip980)" d="M57.2247 877.437 L44.4614 877.437 L44.4614 887.941 L39.1779 887.941 L39.1779 871.071 L59.58 871.071 Q62.2218 874.795 63.5904 879.283 Q64.9272 883.771 64.9272 888.864 Q64.9272 900.004 58.4342 906.306 Q51.9093 912.576 40.2919 912.576 Q28.6427 912.576 22.1496 906.306 Q15.6248 900.004 15.6248 888.864 Q15.6248 884.217 16.7706 880.047 Q17.9164 875.846 20.1444 872.313 L26.9876 872.313 Q23.9639 875.878 22.4361 879.888 Q20.9083 883.898 20.9083 888.322 Q20.9083 897.043 25.7781 901.436 Q30.6479 905.796 40.2919 905.796 Q49.9041 905.796 54.7739 901.436 Q59.6436 897.043 59.6436 888.322 Q59.6436 884.917 59.0707 882.243 Q58.466 879.57 57.2247 877.437 Z" fill="#000000" fill-rule="nonzero" fill-opacity="1" /><path clip-path="url(#clip980)" d="M33.8307 838.925 Q33.2578 839.911 33.0032 841.089 Q32.7167 842.235 32.7167 843.635 Q32.7167 848.6 35.9632 851.274 Q39.1779 853.916 45.2253 853.916 L64.0042 853.916 L64.0042 859.804 L28.3562 859.804 L28.3562 853.916 L33.8944 853.916 Q30.6479 852.07 29.0883 849.11 Q27.4968 846.15 27.4968 841.916 Q27.4968 841.312 27.5923 840.58 Q27.656 839.848 27.8151 838.956 L33.8307 838.925 Z" fill="#000000" fill-rule="nonzero" fill-opacity="1" /><path clip-path="url(#clip980)" d="M46.0847 816.581 Q46.0847 823.679 47.7079 826.416 Q49.3312 829.153 53.2461 829.153 Q56.3653 829.153 58.2114 827.116 Q60.0256 825.047 60.0256 821.514 Q60.0256 816.645 56.5881 813.716 Q53.1188 810.756 47.3897 810.756 L46.0847 810.756 L46.0847 816.581 M43.6657 804.9 L64.0042 804.9 L64.0042 810.756 L58.5933 810.756 Q61.8398 812.762 63.3994 815.753 Q64.9272 818.745 64.9272 823.074 Q64.9272 828.548 61.8716 831.795 Q58.7843 835.01 53.6281 835.01 Q47.6125 835.01 44.5569 830.999 Q41.5014 826.957 41.5014 818.968 L41.5014 810.756 L40.9285 810.756 Q36.8862 810.756 34.6901 813.43 Q32.4621 816.072 32.4621 820.878 Q32.4621 823.933 33.1941 826.83 Q33.9262 829.726 35.3903 832.4 L29.9795 832.4 Q28.7381 829.185 28.1334 826.161 Q27.4968 823.138 27.4968 820.273 Q27.4968 812.539 31.5072 808.719 Q35.5176 804.9 43.6657 804.9 Z" fill="#000000" fill-rule="nonzero" fill-opacity="1" /><path clip-path="url(#clip980)" d="M33.7671 769.379 L14.479 769.379 L14.479 763.523 L64.0042 763.523 L64.0042 769.379 L58.657 769.379 Q61.8398 771.225 63.3994 774.058 Q64.9272 776.859 64.9272 780.806 Q64.9272 787.267 59.771 791.341 Q54.6147 795.383 46.212 795.383 Q37.8093 795.383 32.6531 791.341 Q27.4968 787.267 27.4968 780.806 Q27.4968 776.859 29.0564 774.058 Q30.5842 771.225 33.7671 769.379 M46.212 789.336 Q52.6732 789.336 56.3653 786.694 Q60.0256 784.02 60.0256 779.373 Q60.0256 774.726 56.3653 772.053 Q52.6732 769.379 46.212 769.379 Q39.7508 769.379 36.0905 772.053 Q32.3984 774.726 32.3984 779.373 Q32.3984 784.02 36.0905 786.694 Q39.7508 789.336 46.212 789.336 Z" fill="#000000" fill-rule="nonzero" fill-opacity="1" /><path clip-path="url(#clip980)" d="M28.3562 751.46 L28.3562 745.603 L64.0042 745.603 L64.0042 751.46 L28.3562 751.46 M14.479 751.46 L14.479 745.603 L21.895 745.603 L21.895 751.46 L14.479 751.46 Z" fill="#000000" fill-rule="nonzero" fill-opacity="1" /><path clip-path="url(#clip980)" d="M44.7161 702.858 L47.5806 702.858 L47.5806 729.785 Q53.6281 729.403 56.8109 726.156 Q59.9619 722.878 59.9619 717.053 Q59.9619 713.679 59.1344 710.528 Q58.3069 707.345 56.6518 704.226 L62.1899 704.226 Q63.5267 707.377 64.227 710.687 Q64.9272 713.998 64.9272 717.403 Q64.9272 725.933 59.9619 730.93 Q54.9967 735.896 46.5303 735.896 Q37.7774 735.896 32.6531 731.185 Q27.4968 726.443 27.4968 718.422 Q27.4968 711.229 32.1438 707.059 Q36.7589 702.858 44.7161 702.858 M42.9973 708.714 Q38.1912 708.778 35.3266 711.419 Q32.4621 714.029 32.4621 718.358 Q32.4621 723.26 35.2312 726.22 Q38.0002 729.148 43.0292 729.594 L42.9973 708.714 Z" fill="#000000" fill-rule="nonzero" fill-opacity="1" /><path clip-path="url(#clip980)" d="M42.4881 663.613 L64.0042 663.613 L64.0042 669.469 L42.679 669.469 Q37.6183 669.469 35.1038 671.443 Q32.5894 673.416 32.5894 677.363 Q32.5894 682.105 35.6131 684.843 Q38.6368 687.58 43.8567 687.58 L64.0042 687.58 L64.0042 693.468 L28.3562 693.468 L28.3562 687.58 L33.8944 687.58 Q30.6797 685.479 29.0883 682.646 Q27.4968 679.782 27.4968 676.058 Q27.4968 669.915 31.3163 666.764 Q35.1038 663.613 42.4881 663.613 Z" fill="#000000" fill-rule="nonzero" fill-opacity="1" /><path clip-path="url(#clip980)" d="M18.2347 646.139 L28.3562 646.139 L28.3562 634.076 L32.9077 634.076 L32.9077 646.139 L52.2594 646.139 Q56.6199 646.139 57.8613 644.962 Q59.1026 643.752 59.1026 640.092 L59.1026 634.076 L64.0042 634.076 L64.0042 640.092 Q64.0042 646.871 61.4897 649.449 Q58.9434 652.027 52.2594 652.027 L32.9077 652.027 L32.9077 656.324 L28.3562 656.324 L28.3562 652.027 L18.2347 652.027 L18.2347 646.139 Z" fill="#000000" fill-rule="nonzero" fill-opacity="1" /><path clip-path="url(#clip980)" d="M785.894 63.9476 L785.894 47.7034 L772.526 47.7034 L772.526 40.9789 L793.996 40.9789 L793.996 66.9452 Q789.256 70.3075 783.545 72.0494 Q777.833 73.7508 771.351 73.7508 Q757.173 73.7508 749.153 65.4869 Q741.172 57.1826 741.172 42.3968 Q741.172 27.5705 749.153 19.3066 Q757.173 11.0023 771.351 11.0023 Q777.266 11.0023 782.572 12.4606 Q787.92 13.9189 792.416 16.7545 L792.416 25.464 Q787.879 21.6156 782.775 19.6712 Q777.671 17.7268 772.04 17.7268 Q760.941 17.7268 755.35 23.9246 Q749.801 30.1225 749.801 42.3968 Q749.801 54.6305 755.35 60.8284 Q760.941 67.0263 772.04 67.0263 Q776.375 67.0263 779.777 66.2971 Q783.18 65.5274 785.894 63.9476 Z" fill="#000000" fill-rule="nonzero" fill-opacity="1" /><path clip-path="url(#clip980)" d="M834.91 34.1734 Q833.654 33.4443 832.156 33.1202 Q830.697 32.7556 828.915 32.7556 Q822.595 32.7556 819.193 36.8875 Q815.83 40.9789 815.83 48.6757 L815.83 72.576 L808.336 72.576 L808.336 27.2059 L815.83 27.2059 L815.83 34.2544 Q818.18 30.1225 821.947 28.1376 Q825.715 26.1121 831.102 26.1121 Q831.872 26.1121 832.804 26.2337 Q833.735 26.3147 834.87 26.5172 L834.91 34.1734 Z" fill="#000000" fill-rule="nonzero" fill-opacity="1" /><path clip-path="url(#clip980)" d="M863.347 49.7694 Q854.314 49.7694 850.83 51.8354 Q847.346 53.9013 847.346 58.8839 Q847.346 62.8538 849.939 65.2034 Q852.572 67.5124 857.069 67.5124 Q863.266 67.5124 866.993 63.1374 Q870.761 58.7219 870.761 51.4303 L870.761 49.7694 L863.347 49.7694 M878.214 46.6907 L878.214 72.576 L870.761 72.576 L870.761 65.6895 Q868.209 69.8214 864.401 71.8063 Q860.593 73.7508 855.084 73.7508 Q848.116 73.7508 843.984 69.8619 Q839.893 65.9325 839.893 59.3701 Q839.893 51.7138 844.997 47.825 Q850.142 43.9361 860.309 43.9361 L870.761 43.9361 L870.761 43.2069 Q870.761 38.0623 867.358 35.2672 Q863.996 32.4315 857.879 32.4315 Q853.99 32.4315 850.304 33.3632 Q846.617 34.295 843.215 36.1584 L843.215 29.2718 Q847.306 27.692 851.154 26.9223 Q855.003 26.1121 858.648 26.1121 Q868.492 26.1121 873.353 31.2163 Q878.214 36.3204 878.214 46.6907 Z" fill="#000000" fill-rule="nonzero" fill-opacity="1" /><path clip-path="url(#clip980)" d="M923.422 34.0924 L923.422 9.54393 L930.876 9.54393 L930.876 72.576 L923.422 72.576 L923.422 65.7705 Q921.073 69.8214 917.468 71.8063 Q913.903 73.7508 908.88 73.7508 Q900.656 73.7508 895.471 67.1883 Q890.327 60.6258 890.327 49.9314 Q890.327 39.2371 895.471 32.6746 Q900.656 26.1121 908.88 26.1121 Q913.903 26.1121 917.468 28.0971 Q921.073 30.0415 923.422 34.0924 M898.023 49.9314 Q898.023 58.1548 901.385 62.8538 Q904.788 67.5124 910.703 67.5124 Q916.617 67.5124 920.02 62.8538 Q923.422 58.1548 923.422 49.9314 Q923.422 41.7081 920.02 37.0496 Q916.617 32.3505 910.703 32.3505 Q904.788 32.3505 901.385 37.0496 Q898.023 41.7081 898.023 49.9314 Z" fill="#000000" fill-rule="nonzero" fill-opacity="1" /><path clip-path="url(#clip980)" d="M946.229 27.2059 L953.683 27.2059 L953.683 72.576 L946.229 72.576 L946.229 27.2059 M946.229 9.54393 L953.683 9.54393 L953.683 18.9825 L946.229 18.9825 L946.229 9.54393 Z" fill="#000000" fill-rule="nonzero" fill-opacity="1" /><path clip-path="url(#clip980)" d="M1008.09 48.0275 L1008.09 51.6733 L973.816 51.6733 Q974.302 59.3701 978.434 63.421 Q982.606 67.4314 990.019 67.4314 Q994.313 67.4314 998.324 66.3781 Q1002.37 65.3249 1006.34 63.2184 L1006.34 70.267 Q1002.33 71.9684 998.121 72.8596 Q993.908 73.7508 989.574 73.7508 Q978.717 73.7508 972.357 67.4314 Q966.038 61.1119 966.038 50.3365 Q966.038 39.1965 972.033 32.6746 Q978.069 26.1121 988.277 26.1121 Q997.432 26.1121 1002.74 32.0264 Q1008.09 37.9003 1008.09 48.0275 M1000.63 45.84 Q1000.55 39.7232 997.189 36.0774 Q993.868 32.4315 988.358 32.4315 Q982.12 32.4315 978.353 35.9558 Q974.626 39.4801 974.059 45.8805 L1000.63 45.84 Z" fill="#000000" fill-rule="nonzero" fill-opacity="1" /><path clip-path="url(#clip980)" d="M1058.03 45.1919 L1058.03 72.576 L1050.58 72.576 L1050.58 45.4349 Q1050.58 38.994 1048.07 35.7938 Q1045.56 32.5936 1040.53 32.5936 Q1034.5 32.5936 1031.01 36.4419 Q1027.53 40.2903 1027.53 46.9338 L1027.53 72.576 L1020.04 72.576 L1020.04 27.2059 L1027.53 27.2059 L1027.53 34.2544 Q1030.2 30.163 1033.81 28.1376 Q1037.46 26.1121 1042.19 26.1121 Q1050.01 26.1121 1054.02 30.9732 Q1058.03 35.7938 1058.03 45.1919 Z" fill="#000000" fill-rule="nonzero" fill-opacity="1" /><path clip-path="url(#clip980)" d="M1080.27 14.324 L1080.27 27.2059 L1095.63 27.2059 L1095.63 32.9987 L1080.27 32.9987 L1080.27 57.6282 Q1080.27 63.1779 1081.77 64.7578 Q1083.31 66.3376 1087.97 66.3376 L1095.63 66.3376 L1095.63 72.576 L1087.97 72.576 Q1079.34 72.576 1076.06 69.3758 Q1072.78 66.1351 1072.78 57.6282 L1072.78 32.9987 L1067.31 32.9987 L1067.31 27.2059 L1072.78 27.2059 L1072.78 14.324 L1080.27 14.324 Z" fill="#000000" fill-rule="nonzero" fill-opacity="1" /><path clip-path="url(#clip980)" d="M1152.42 49.7694 Q1143.39 49.7694 1139.9 51.8354 Q1136.42 53.9013 1136.42 58.8839 Q1136.42 62.8538 1139.01 65.2034 Q1141.64 67.5124 1146.14 67.5124 Q1152.34 67.5124 1156.07 63.1374 Q1159.83 58.7219 1159.83 51.4303 L1159.83 49.7694 L1152.42 49.7694 M1167.29 46.6907 L1167.29 72.576 L1159.83 72.576 L1159.83 65.6895 Q1157.28 69.8214 1153.47 71.8063 Q1149.67 73.7508 1144.16 73.7508 Q1137.19 73.7508 1133.06 69.8619 Q1128.97 65.9325 1128.97 59.3701 Q1128.97 51.7138 1134.07 47.825 Q1139.21 43.9361 1149.38 43.9361 L1159.83 43.9361 L1159.83 43.2069 Q1159.83 38.0623 1156.43 35.2672 Q1153.07 32.4315 1146.95 32.4315 Q1143.06 32.4315 1139.38 33.3632 Q1135.69 34.295 1132.29 36.1584 L1132.29 29.2718 Q1136.38 27.692 1140.23 26.9223 Q1144.08 26.1121 1147.72 26.1121 Q1157.56 26.1121 1162.43 31.2163 Q1167.29 36.3204 1167.29 46.6907 Z" fill="#000000" fill-rule="nonzero" fill-opacity="1" /><path clip-path="url(#clip980)" d="M1211.56 28.5427 L1211.56 35.5912 Q1208.4 33.9709 1205 33.1607 Q1201.6 32.3505 1197.95 32.3505 Q1192.4 32.3505 1189.61 34.0519 Q1186.85 35.7533 1186.85 39.156 Q1186.85 41.7486 1188.84 43.2475 Q1190.82 44.7058 1196.82 46.0426 L1199.37 46.6097 Q1207.31 48.3111 1210.63 51.4303 Q1213.99 54.509 1213.99 60.0587 Q1213.99 66.3781 1208.97 70.0644 Q1203.99 73.7508 1195.24 73.7508 Q1191.59 73.7508 1187.62 73.0216 Q1183.69 72.3329 1179.32 70.9151 L1179.32 63.2184 Q1183.45 65.3654 1187.46 66.4591 Q1191.47 67.5124 1195.4 67.5124 Q1200.67 67.5124 1203.5 65.73 Q1206.34 63.9071 1206.34 60.6258 Q1206.34 57.5877 1204.27 55.9673 Q1202.25 54.3469 1195.32 52.8481 L1192.73 52.2405 Q1185.8 50.7821 1182.72 47.7845 Q1179.64 44.7463 1179.64 39.4801 Q1179.64 33.0797 1184.18 29.5959 Q1188.72 26.1121 1197.06 26.1121 Q1201.19 26.1121 1204.84 26.7198 Q1208.48 27.3274 1211.56 28.5427 Z" fill="#000000" fill-rule="nonzero" fill-opacity="1" /><path clip-path="url(#clip980)" d="M1272.85 49.7694 Q1263.82 49.7694 1260.34 51.8354 Q1256.85 53.9013 1256.85 58.8839 Q1256.85 62.8538 1259.44 65.2034 Q1262.08 67.5124 1266.57 67.5124 Q1272.77 67.5124 1276.5 63.1374 Q1280.27 58.7219 1280.27 51.4303 L1280.27 49.7694 L1272.85 49.7694 M1287.72 46.6907 L1287.72 72.576 L1280.27 72.576 L1280.27 65.6895 Q1277.71 69.8214 1273.91 71.8063 Q1270.1 73.7508 1264.59 73.7508 Q1257.62 73.7508 1253.49 69.8619 Q1249.4 65.9325 1249.4 59.3701 Q1249.4 51.7138 1254.5 47.825 Q1259.65 43.9361 1269.82 43.9361 L1280.27 43.9361 L1280.27 43.2069 Q1280.27 38.0623 1276.86 35.2672 Q1273.5 32.4315 1267.38 32.4315 Q1263.5 32.4315 1259.81 33.3632 Q1256.12 34.295 1252.72 36.1584 L1252.72 29.2718 Q1256.81 27.692 1260.66 26.9223 Q1264.51 26.1121 1268.15 26.1121 Q1278 26.1121 1282.86 31.2163 Q1287.72 36.3204 1287.72 46.6907 Z" fill="#000000" fill-rule="nonzero" fill-opacity="1" /><path clip-path="url(#clip980)" d="M1329.77 12.096 L1364.53 12.096 L1364.53 18.9825 L1337.95 18.9825 L1337.95 36.8065 L1361.93 36.8065 L1361.93 43.6931 L1337.95 43.6931 L1337.95 72.576 L1329.77 72.576 L1329.77 12.096 Z" fill="#000000" fill-rule="nonzero" fill-opacity="1" /><path clip-path="url(#clip980)" d="M1371.86 54.671 L1371.86 27.2059 L1379.31 27.2059 L1379.31 54.3874 Q1379.31 60.8284 1381.82 64.0691 Q1384.33 67.2693 1389.36 67.2693 Q1395.39 67.2693 1398.88 63.421 Q1402.4 59.5726 1402.4 52.9291 L1402.4 27.2059 L1409.85 27.2059 L1409.85 72.576 L1402.4 72.576 L1402.4 65.6084 Q1399.69 69.7404 1396.08 71.7658 Q1392.52 73.7508 1387.78 73.7508 Q1379.96 73.7508 1375.91 68.8897 Q1371.86 64.0286 1371.86 54.671 M1390.61 26.1121 L1390.61 26.1121 Z" fill="#000000" fill-rule="nonzero" fill-opacity="1" /><path clip-path="url(#clip980)" d="M1462.92 45.1919 L1462.92 72.576 L1455.47 72.576 L1455.47 45.4349 Q1455.47 38.994 1452.96 35.7938 Q1450.45 32.5936 1445.42 32.5936 Q1439.39 32.5936 1435.9 36.4419 Q1432.42 40.2903 1432.42 46.9338 L1432.42 72.576 L1424.92 72.576 L1424.92 27.2059 L1432.42 27.2059 L1432.42 34.2544 Q1435.09 30.163 1438.7 28.1376 Q1442.34 26.1121 1447.08 26.1121 Q1454.9 26.1121 1458.91 30.9732 Q1462.92 35.7938 1462.92 45.1919 Z" fill="#000000" fill-rule="nonzero" fill-opacity="1" /><path clip-path="url(#clip980)" d="M1510.44 28.9478 L1510.44 35.9153 Q1507.28 34.1734 1504.08 33.3227 Q1500.92 32.4315 1497.68 32.4315 Q1490.43 32.4315 1486.42 37.0496 Q1482.41 41.6271 1482.41 49.9314 Q1482.41 58.2358 1486.42 62.8538 Q1490.43 67.4314 1497.68 67.4314 Q1500.92 67.4314 1504.08 66.5807 Q1507.28 65.6895 1510.44 63.9476 L1510.44 70.8341 Q1507.32 72.2924 1503.96 73.0216 Q1500.64 73.7508 1496.87 73.7508 Q1486.62 73.7508 1480.58 67.3098 Q1474.55 60.8689 1474.55 49.9314 Q1474.55 38.832 1480.62 32.472 Q1486.74 26.1121 1497.35 26.1121 Q1500.8 26.1121 1504.08 26.8413 Q1507.36 27.5299 1510.44 28.9478 Z" fill="#000000" fill-rule="nonzero" fill-opacity="1" /><path clip-path="url(#clip980)" d="M1530.77 14.324 L1530.77 27.2059 L1546.13 27.2059 L1546.13 32.9987 L1530.77 32.9987 L1530.77 57.6282 Q1530.77 63.1779 1532.27 64.7578 Q1533.81 66.3376 1538.47 66.3376 L1546.13 66.3376 L1546.13 72.576 L1538.47 72.576 Q1529.84 72.576 1526.56 69.3758 Q1523.28 66.1351 1523.28 57.6282 L1523.28 32.9987 L1517.81 32.9987 L1517.81 27.2059 L1523.28 27.2059 L1523.28 14.324 L1530.77 14.324 Z" fill="#000000" fill-rule="nonzero" fill-opacity="1" /><path clip-path="url(#clip980)" d="M1555.93 27.2059 L1563.38 27.2059 L1563.38 72.576 L1555.93 72.576 L1555.93 27.2059 M1555.93 9.54393 L1563.38 9.54393 L1563.38 18.9825 L1555.93 18.9825 L1555.93 9.54393 Z" fill="#000000" fill-rule="nonzero" fill-opacity="1" /><path clip-path="url(#clip980)" d="M1596.56 32.4315 Q1590.57 32.4315 1587.08 37.1306 Q1583.6 41.7891 1583.6 49.9314 Q1583.6 58.0738 1587.04 62.7728 Q1590.53 67.4314 1596.56 67.4314 Q1602.52 67.4314 1606 62.7323 Q1609.48 58.0333 1609.48 49.9314 Q1609.48 41.8701 1606 37.1711 Q1602.52 32.4315 1596.56 32.4315 M1596.56 26.1121 Q1606.28 26.1121 1611.83 32.4315 Q1617.38 38.7509 1617.38 49.9314 Q1617.38 61.0714 1611.83 67.4314 Q1606.28 73.7508 1596.56 73.7508 Q1586.8 73.7508 1581.25 67.4314 Q1575.74 61.0714 1575.74 49.9314 Q1575.74 38.7509 1581.25 32.4315 Q1586.8 26.1121 1596.56 26.1121 Z" fill="#000000" fill-rule="nonzero" fill-opacity="1" /><path clip-path="url(#clip980)" d="M1667.45 45.1919 L1667.45 72.576 L1660 72.576 L1660 45.4349 Q1660 38.994 1657.49 35.7938 Q1654.98 32.5936 1649.95 32.5936 Q1643.92 32.5936 1640.43 36.4419 Q1636.95 40.2903 1636.95 46.9338 L1636.95 72.576 L1629.45 72.576 L1629.45 27.2059 L1636.95 27.2059 L1636.95 34.2544 Q1639.62 30.163 1643.23 28.1376 Q1646.87 26.1121 1651.61 26.1121 Q1659.43 26.1121 1663.44 30.9732 Q1667.45 35.7938 1667.45 45.1919 Z" fill="#000000" fill-rule="nonzero" fill-opacity="1" /><path clip-path="url(#clip980)" d="M1726.27 32.4315 Q1720.28 32.4315 1716.79 37.1306 Q1713.31 41.7891 1713.31 49.9314 Q1713.31 58.0738 1716.75 62.7728 Q1720.24 67.4314 1726.27 67.4314 Q1732.23 67.4314 1735.71 62.7323 Q1739.19 58.0333 1739.19 49.9314 Q1739.19 41.8701 1735.71 37.1711 Q1732.23 32.4315 1726.27 32.4315 M1726.27 26.1121 Q1735.99 26.1121 1741.54 32.4315 Q1747.09 38.7509 1747.09 49.9314 Q1747.09 61.0714 1741.54 67.4314 Q1735.99 73.7508 1726.27 73.7508 Q1716.51 73.7508 1710.96 67.4314 Q1705.45 61.0714 1705.45 49.9314 Q1705.45 38.7509 1710.96 32.4315 Q1716.51 26.1121 1726.27 26.1121 Z" fill="#000000" fill-rule="nonzero" fill-opacity="1" /><path clip-path="url(#clip980)" d="M1782.42 9.54393 L1782.42 15.7418 L1775.29 15.7418 Q1771.28 15.7418 1769.7 17.3622 Q1768.16 18.9825 1768.16 23.1955 L1768.16 27.2059 L1780.43 27.2059 L1780.43 32.9987 L1768.16 32.9987 L1768.16 72.576 L1760.66 72.576 L1760.66 32.9987 L1753.53 32.9987 L1753.53 27.2059 L1760.66 27.2059 L1760.66 24.0462 Q1760.66 16.471 1764.19 13.0277 Q1767.71 9.54393 1775.37 9.54393 L1782.42 9.54393 Z" fill="#000000" fill-rule="nonzero" fill-opacity="1" /><path clip-path="url(#clip980)" d="M1815.35 12.096 L1826.37 12.096 L1853.19 62.6918 L1853.19 12.096 L1861.13 12.096 L1861.13 72.576 L1850.11 72.576 L1823.29 21.9802 L1823.29 72.576 L1815.35 72.576 L1815.35 12.096 Z" fill="#000000" fill-rule="nonzero" fill-opacity="1" /><line clip-path="url(#clip982)" x1="309.067" y1="185.908" x2="293.067" y2="169.908" style="stroke:#000000; stroke-width:3.2; stroke-opacity:1"/>
<line clip-path="url(#clip982)" x1="309.067" y1="185.908" x2="293.067" y2="201.908" style="stroke:#000000; stroke-width:3.2; stroke-opacity:1"/>
<line clip-path="url(#clip982)" x1="309.067" y1="185.908" x2="325.067" y2="201.908" style="stroke:#000000; stroke-width:3.2; stroke-opacity:1"/>
<line clip-path="url(#clip982)" x1="309.067" y1="185.908" x2="325.067" y2="169.908" style="stroke:#000000; stroke-width:3.2; stroke-opacity:1"/>
<line clip-path="url(#clip982)" x1="705.9" y1="694.048" x2="689.9" y2="678.048" style="stroke:#000000; stroke-width:3.2; stroke-opacity:1"/>
<line clip-path="url(#clip982)" x1="705.9" y1="694.048" x2="689.9" y2="710.048" style="stroke:#000000; stroke-width:3.2; stroke-opacity:1"/>
<line clip-path="url(#clip982)" x1="705.9" y1="694.048" x2="721.9" y2="710.048" style="stroke:#000000; stroke-width:3.2; stroke-opacity:1"/>
<line clip-path="url(#clip982)" x1="705.9" y1="694.048" x2="721.9" y2="678.048" style="stroke:#000000; stroke-width:3.2; stroke-opacity:1"/>
<line clip-path="url(#clip982)" x1="1102.73" y1="1041.48" x2="1086.73" y2="1025.48" style="stroke:#000000; stroke-width:3.2; stroke-opacity:1"/>
<line clip-path="url(#clip982)" x1="1102.73" y1="1041.48" x2="1086.73" y2="1057.48" style="stroke:#000000; stroke-width:3.2; stroke-opacity:1"/>
<line clip-path="url(#clip982)" x1="1102.73" y1="1041.48" x2="1118.73" y2="1057.48" style="stroke:#000000; stroke-width:3.2; stroke-opacity:1"/>
<line clip-path="url(#clip982)" x1="1102.73" y1="1041.48" x2="1118.73" y2="1025.48" style="stroke:#000000; stroke-width:3.2; stroke-opacity:1"/>
<line clip-path="url(#clip982)" x1="1499.57" y1="1232.03" x2="1483.57" y2="1216.03" style="stroke:#000000; stroke-width:3.2; stroke-opacity:1"/>
<line clip-path="url(#clip982)" x1="1499.57" y1="1232.03" x2="1483.57" y2="1248.03" style="stroke:#000000; stroke-width:3.2; stroke-opacity:1"/>
<line clip-path="url(#clip982)" x1="1499.57" y1="1232.03" x2="1515.57" y2="1248.03" style="stroke:#000000; stroke-width:3.2; stroke-opacity:1"/>
<line clip-path="url(#clip982)" x1="1499.57" y1="1232.03" x2="1515.57" y2="1216.03" style="stroke:#000000; stroke-width:3.2; stroke-opacity:1"/>
<line clip-path="url(#clip982)" x1="1896.4" y1="1286.01" x2="1880.4" y2="1270.01" style="stroke:#000000; stroke-width:3.2; stroke-opacity:1"/>
<line clip-path="url(#clip982)" x1="1896.4" y1="1286.01" x2="1880.4" y2="1302.01" style="stroke:#000000; stroke-width:3.2; stroke-opacity:1"/>
<line clip-path="url(#clip982)" x1="1896.4" y1="1286.01" x2="1912.4" y2="1302.01" style="stroke:#000000; stroke-width:3.2; stroke-opacity:1"/>
<line clip-path="url(#clip982)" x1="1896.4" y1="1286.01" x2="1912.4" y2="1270.01" style="stroke:#000000; stroke-width:3.2; stroke-opacity:1"/>
<line clip-path="url(#clip982)" x1="2293.23" y1="1291.27" x2="2277.23" y2="1275.27" style="stroke:#000000; stroke-width:3.2; stroke-opacity:1"/>
<line clip-path="url(#clip982)" x1="2293.23" y1="1291.27" x2="2277.23" y2="1307.27" style="stroke:#000000; stroke-width:3.2; stroke-opacity:1"/>
<line clip-path="url(#clip982)" x1="2293.23" y1="1291.27" x2="2309.23" y2="1307.27" style="stroke:#000000; stroke-width:3.2; stroke-opacity:1"/>
<line clip-path="url(#clip982)" x1="2293.23" y1="1291.27" x2="2309.23" y2="1275.27" style="stroke:#000000; stroke-width:3.2; stroke-opacity:1"/>
<polyline clip-path="url(#clip982)" style="stroke:#e26f46; stroke-linecap:round; stroke-linejoin:round; stroke-width:4; stroke-opacity:1; fill:none" stroke-dasharray="16, 10" points="309.067,160.256 329.109,210.248 349.151,257.237 369.193,301.469 389.235,343.165 409.277,382.524 429.319,419.725 449.361,454.929 469.403,488.284 489.446,519.923 509.488,549.965 529.53,578.522 549.572,605.695 569.614,631.575 589.656,656.247 609.698,679.787 629.74,702.268 649.782,723.755 669.824,744.308 689.866,763.983 709.908,782.832 729.95,800.901 749.992,818.236 770.034,834.878 790.076,850.864 810.118,866.231 830.161,881.011 850.203,895.235 870.245,908.932 890.287,922.128 910.329,934.85 930.371,947.12 950.413,958.961 970.455,970.393 990.497,981.436 1010.54,992.108 1030.58,1002.43 1050.62,1012.41 1070.67,1022.07 1090.71,1031.42 1110.75,1040.47 1130.79,1049.25 1150.83,1057.75 1170.88,1066 1190.92,1074 1210.96,1081.76 1231,1089.29 1251.04,1096.61 1271.09,1103.72 1291.13,1110.62 1311.17,1117.34 1331.21,1123.86 1351.25,1130.21 1371.3,1136.39 1391.34,1142.4 1411.38,1148.25 1431.42,1153.95 1451.46,1159.5 1471.51,1164.91 1491.55,1170.18 1511.59,1175.32 1531.63,1180.33 1551.67,1185.21 1571.72,1189.98 1591.76,1194.63 1611.8,1199.17 1631.84,1203.6 1651.89,1207.93 1671.93,1212.15 1691.97,1216.28 1712.01,1220.32 1732.05,1224.26 1752.1,1228.11 1772.14,1231.88 1792.18,1235.57 1812.22,1239.17 1832.26,1242.7 1852.31,1246.15 1872.35,1249.52 1892.39,1252.83 1912.43,1256.06 1932.47,1259.23 1952.52,1262.34 1972.56,1265.37 1992.6,1268.35 2012.64,1271.27 2032.68,1274.13 2052.73,1276.93 2072.77,1279.68 2092.81,1282.37 2112.85,1285.02 2132.89,1287.61 2152.94,1290.15 2172.98,1292.64 2193.02,1295.09 2213.06,1297.49 2233.1,1299.85 2253.15,1302.16 2273.19,1304.43 2293.23,1306.66 "/>
<polyline clip-path="url(#clip982)" style="stroke:#3da44d; stroke-linecap:round; stroke-linejoin:round; stroke-width:4; stroke-opacity:1; fill:none" stroke-dasharray="2, 4" points="309.067,198.683 329.109,229.675 349.151,259.933 369.193,289.476 389.235,318.32 409.277,346.482 429.319,373.977 449.361,400.822 469.403,427.032 489.446,452.623 509.488,477.608 529.53,502.002 549.572,525.818 569.614,549.072 589.656,571.775 609.698,593.942 629.74,615.584 649.782,636.714 669.824,657.345 689.866,677.487 709.908,697.153 729.95,716.354 749.992,735.1 770.034,753.404 790.076,771.274 810.118,788.721 830.161,805.756 850.203,822.388 870.245,838.627 890.287,854.481 910.329,869.96 930.371,885.073 950.413,899.829 970.455,914.236 990.497,928.302 1010.54,942.035 1030.58,955.443 1050.62,968.535 1070.67,981.316 1090.71,993.795 1110.75,1005.98 1130.79,1017.88 1150.83,1029.49 1170.88,1040.83 1190.92,1051.9 1210.96,1062.71 1231,1073.26 1251.04,1083.57 1271.09,1093.63 1291.13,1103.45 1311.17,1113.04 1331.21,1122.41 1351.25,1131.55 1371.3,1140.47 1391.34,1149.19 1411.38,1157.7 1431.42,1166 1451.46,1174.11 1471.51,1182.03 1491.55,1189.76 1511.59,1197.31 1531.63,1204.68 1551.67,1211.88 1571.72,1218.9 1591.76,1225.76 1611.8,1232.46 1631.84,1239 1651.89,1245.38 1671.93,1251.62 1691.97,1257.7 1712.01,1263.64 1732.05,1269.44 1752.1,1275.11 1772.14,1280.64 1792.18,1286.04 1812.22,1291.31 1832.26,1296.45 1852.31,1301.48 1872.35,1306.39 1892.39,1311.18 1912.43,1315.85 1932.47,1320.42 1952.52,1324.88 1972.56,1329.23 1992.6,1333.48 2012.64,1337.63 2032.68,1341.68 2052.73,1345.63 2072.77,1349.5 2092.81,1353.27 2112.85,1356.95 2132.89,1360.54 2152.94,1364.05 2172.98,1367.48 2193.02,1370.82 2213.06,1374.09 2233.1,1377.28 2253.15,1380.39 2273.19,1383.43 2293.23,1386.4 "/>
<path clip-path="url(#clip980)" d="M1563.21 374.156 L2282.65 374.156 L2282.65 166.796 L1563.21 166.796  Z" fill="#ffffff" fill-rule="evenodd" fill-opacity="1"/>
<polyline clip-path="url(#clip980)" style="stroke:#000000; stroke-linecap:round; stroke-linejoin:round; stroke-width:4; stroke-opacity:1; fill:none" points="1563.21,374.156 2282.65,374.156 2282.65,166.796 1563.21,166.796 1563.21,374.156 "/>
<line clip-path="url(#clip980)" x1="1656.69" y1="218.636" x2="1633.93" y2="195.88" style="stroke:#000000; stroke-width:4.55111; stroke-opacity:1"/>
<line clip-path="url(#clip980)" x1="1656.69" y1="218.636" x2="1633.93" y2="241.391" style="stroke:#000000; stroke-width:4.55111; stroke-opacity:1"/>
<line clip-path="url(#clip980)" x1="1656.69" y1="218.636" x2="1679.44" y2="241.391" style="stroke:#000000; stroke-width:4.55111; stroke-opacity:1"/>
<line clip-path="url(#clip980)" x1="1656.69" y1="218.636" x2="1679.44" y2="195.88" style="stroke:#000000; stroke-width:4.55111; stroke-opacity:1"/>
<path clip-path="url(#clip980)" d="M1766.18 204.527 Q1761.09 204.527 1758.08 208.323 Q1755.09 212.12 1755.09 218.67 Q1755.09 225.198 1758.08 228.994 Q1761.09 232.791 1766.18 232.791 Q1771.27 232.791 1774.24 228.994 Q1777.22 225.198 1777.22 218.67 Q1777.22 212.12 1774.24 208.323 Q1771.27 204.527 1766.18 204.527 M1766.18 200.731 Q1773.45 200.731 1777.8 205.615 Q1782.15 210.476 1782.15 218.67 Q1782.15 226.842 1777.8 231.726 Q1773.45 236.587 1766.18 236.587 Q1758.89 236.587 1754.51 231.726 Q1750.16 226.865 1750.16 218.67 Q1750.16 210.476 1754.51 205.615 Q1758.89 200.731 1766.18 200.731 Z" fill="#000000" fill-rule="nonzero" fill-opacity="1" /><path clip-path="url(#clip980)" d="M1807.89 222.976 Q1807.89 218.277 1805.95 215.615 Q1804.03 212.93 1800.65 212.93 Q1797.27 212.93 1795.32 215.615 Q1793.4 218.277 1793.4 222.976 Q1793.4 227.675 1795.32 230.36 Q1797.27 233.022 1800.65 233.022 Q1804.03 233.022 1805.95 230.36 Q1807.89 227.675 1807.89 222.976 M1793.4 213.925 Q1794.75 211.61 1796.78 210.499 Q1798.84 209.365 1801.69 209.365 Q1806.41 209.365 1809.35 213.115 Q1812.31 216.865 1812.31 222.976 Q1812.31 229.087 1809.35 232.837 Q1806.41 236.587 1801.69 236.587 Q1798.84 236.587 1796.78 235.476 Q1794.75 234.342 1793.4 232.027 L1793.4 235.916 L1789.12 235.916 L1789.12 199.897 L1793.4 199.897 L1793.4 213.925 Z" fill="#000000" fill-rule="nonzero" fill-opacity="1" /><path clip-path="url(#clip980)" d="M1835.9 210.754 L1835.9 214.782 Q1834.1 213.856 1832.15 213.393 Q1830.21 212.93 1828.12 212.93 Q1824.95 212.93 1823.36 213.902 Q1821.78 214.874 1821.78 216.819 Q1821.78 218.3 1822.92 219.157 Q1824.05 219.99 1827.48 220.754 L1828.93 221.078 Q1833.47 222.05 1835.37 223.832 Q1837.29 225.592 1837.29 228.763 Q1837.29 232.374 1834.42 234.481 Q1831.57 236.587 1826.57 236.587 Q1824.49 236.587 1822.22 236.17 Q1819.98 235.777 1817.48 234.967 L1817.48 230.569 Q1819.84 231.795 1822.13 232.42 Q1824.42 233.022 1826.67 233.022 Q1829.68 233.022 1831.3 232.004 Q1832.92 230.962 1832.92 229.087 Q1832.92 227.351 1831.74 226.425 Q1830.58 225.499 1826.62 224.643 L1825.14 224.295 Q1821.18 223.462 1819.42 221.749 Q1817.66 220.013 1817.66 217.004 Q1817.66 213.346 1820.25 211.356 Q1822.85 209.365 1827.62 209.365 Q1829.98 209.365 1832.06 209.712 Q1834.14 210.059 1835.9 210.754 Z" fill="#000000" fill-rule="nonzero" fill-opacity="1" /><path clip-path="url(#clip980)" d="M1866.25 221.888 L1866.25 223.971 L1846.67 223.971 Q1846.94 228.369 1849.31 230.684 Q1851.69 232.976 1855.93 232.976 Q1858.38 232.976 1860.67 232.374 Q1862.99 231.772 1865.25 230.569 L1865.25 234.596 Q1862.96 235.568 1860.56 236.078 Q1858.15 236.587 1855.67 236.587 Q1849.47 236.587 1845.83 232.976 Q1842.22 229.365 1842.22 223.207 Q1842.22 216.842 1845.65 213.115 Q1849.1 209.365 1854.93 209.365 Q1860.16 209.365 1863.19 212.745 Q1866.25 216.101 1866.25 221.888 M1861.99 220.638 Q1861.94 217.143 1860.02 215.059 Q1858.12 212.976 1854.98 212.976 Q1851.41 212.976 1849.26 214.99 Q1847.13 217.004 1846.81 220.661 L1861.99 220.638 Z" fill="#000000" fill-rule="nonzero" fill-opacity="1" /><path clip-path="url(#clip980)" d="M1888.26 213.971 Q1887.55 213.555 1886.69 213.37 Q1885.86 213.161 1884.84 213.161 Q1881.23 213.161 1879.28 215.522 Q1877.36 217.86 1877.36 222.258 L1877.36 235.916 L1873.08 235.916 L1873.08 209.99 L1877.36 209.99 L1877.36 214.018 Q1878.7 211.657 1880.86 210.522 Q1883.01 209.365 1886.09 209.365 Q1886.53 209.365 1887.06 209.434 Q1887.59 209.481 1888.24 209.596 L1888.26 213.971 Z" fill="#000000" fill-rule="nonzero" fill-opacity="1" /><path clip-path="url(#clip980)" d="M1889.68 209.99 L1894.19 209.99 L1902.29 231.749 L1910.39 209.99 L1914.91 209.99 L1905.18 235.916 L1899.4 235.916 L1889.68 209.99 Z" fill="#000000" fill-rule="nonzero" fill-opacity="1" /><path clip-path="url(#clip980)" d="M1942.96 221.888 L1942.96 223.971 L1923.38 223.971 Q1923.66 228.369 1926.02 230.684 Q1928.4 232.976 1932.64 232.976 Q1935.09 232.976 1937.38 232.374 Q1939.7 231.772 1941.97 230.569 L1941.97 234.596 Q1939.67 235.568 1937.27 236.078 Q1934.86 236.587 1932.38 236.587 Q1926.18 236.587 1922.55 232.976 Q1918.93 229.365 1918.93 223.207 Q1918.93 216.842 1922.36 213.115 Q1925.81 209.365 1931.64 209.365 Q1936.87 209.365 1939.91 212.745 Q1942.96 216.101 1942.96 221.888 M1938.7 220.638 Q1938.66 217.143 1936.74 215.059 Q1934.84 212.976 1931.69 212.976 Q1928.12 212.976 1925.97 214.99 Q1923.84 217.004 1923.52 220.661 L1938.7 220.638 Z" fill="#000000" fill-rule="nonzero" fill-opacity="1" /><path clip-path="url(#clip980)" d="M1967.01 213.925 L1967.01 199.897 L1971.27 199.897 L1971.27 235.916 L1967.01 235.916 L1967.01 232.027 Q1965.67 234.342 1963.61 235.476 Q1961.57 236.587 1958.7 236.587 Q1954 236.587 1951.04 232.837 Q1948.1 229.087 1948.1 222.976 Q1948.1 216.865 1951.04 213.115 Q1954 209.365 1958.7 209.365 Q1961.57 209.365 1963.61 210.499 Q1965.67 211.61 1967.01 213.925 M1952.5 222.976 Q1952.5 227.675 1954.42 230.36 Q1956.36 233.022 1959.74 233.022 Q1963.12 233.022 1965.07 230.36 Q1967.01 227.675 1967.01 222.976 Q1967.01 218.277 1965.07 215.615 Q1963.12 212.93 1959.74 212.93 Q1956.36 212.93 1954.42 215.615 Q1952.5 218.277 1952.5 222.976 Z" fill="#000000" fill-rule="nonzero" fill-opacity="1" /><path clip-path="url(#clip980)" d="M2018.86 230.985 L2018.86 221.703 L2011.23 221.703 L2011.23 217.86 L2023.49 217.86 L2023.49 232.698 Q2020.79 234.619 2017.52 235.615 Q2014.26 236.587 2010.55 236.587 Q2002.45 236.587 1997.87 231.865 Q1993.31 227.119 1993.31 218.67 Q1993.31 210.198 1997.87 205.476 Q2002.45 200.731 2010.55 200.731 Q2013.93 200.731 2016.97 201.564 Q2020.02 202.397 2022.59 204.018 L2022.59 208.995 Q2020 206.796 2017.08 205.684 Q2014.17 204.573 2010.95 204.573 Q2004.61 204.573 2001.41 208.115 Q1998.24 211.657 1998.24 218.67 Q1998.24 225.661 2001.41 229.203 Q2004.61 232.744 2010.95 232.744 Q2013.42 232.744 2015.37 232.328 Q2017.31 231.888 2018.86 230.985 Z" fill="#000000" fill-rule="nonzero" fill-opacity="1" /><path clip-path="url(#clip980)" d="M2046.87 213.971 Q2046.16 213.555 2045.3 213.37 Q2044.47 213.161 2043.45 213.161 Q2039.84 213.161 2037.89 215.522 Q2035.97 217.86 2035.97 222.258 L2035.97 235.916 L2031.69 235.916 L2031.69 209.99 L2035.97 209.99 L2035.97 214.018 Q2037.31 211.657 2039.47 210.522 Q2041.62 209.365 2044.7 209.365 Q2045.14 209.365 2045.67 209.434 Q2046.2 209.481 2046.85 209.596 L2046.87 213.971 Z" fill="#000000" fill-rule="nonzero" fill-opacity="1" /><path clip-path="url(#clip980)" d="M2063.12 222.883 Q2057.96 222.883 2055.97 224.064 Q2053.98 225.244 2053.98 228.092 Q2053.98 230.36 2055.46 231.703 Q2056.97 233.022 2059.54 233.022 Q2063.08 233.022 2065.21 230.522 Q2067.36 227.999 2067.36 223.832 L2067.36 222.883 L2063.12 222.883 M2071.62 221.124 L2071.62 235.916 L2067.36 235.916 L2067.36 231.981 Q2065.9 234.342 2063.73 235.476 Q2061.55 236.587 2058.4 236.587 Q2054.42 236.587 2052.06 234.365 Q2049.72 232.119 2049.72 228.369 Q2049.72 223.994 2052.64 221.772 Q2055.58 219.55 2061.39 219.55 L2067.36 219.55 L2067.36 219.133 Q2067.36 216.194 2065.42 214.596 Q2063.49 212.976 2060 212.976 Q2057.78 212.976 2055.67 213.508 Q2053.56 214.041 2051.62 215.106 L2051.62 211.17 Q2053.96 210.268 2056.16 209.828 Q2058.35 209.365 2060.44 209.365 Q2066.06 209.365 2068.84 212.282 Q2071.62 215.198 2071.62 221.124 Z" fill="#000000" fill-rule="nonzero" fill-opacity="1" /><path clip-path="url(#clip980)" d="M2097.45 213.925 L2097.45 199.897 L2101.71 199.897 L2101.71 235.916 L2097.45 235.916 L2097.45 232.027 Q2096.11 234.342 2094.05 235.476 Q2092.01 236.587 2089.14 236.587 Q2084.44 236.587 2081.48 232.837 Q2078.54 229.087 2078.54 222.976 Q2078.54 216.865 2081.48 213.115 Q2084.44 209.365 2089.14 209.365 Q2092.01 209.365 2094.05 210.499 Q2096.11 211.61 2097.45 213.925 M2082.94 222.976 Q2082.94 227.675 2084.86 230.36 Q2086.8 233.022 2090.18 233.022 Q2093.56 233.022 2095.51 230.36 Q2097.45 227.675 2097.45 222.976 Q2097.45 218.277 2095.51 215.615 Q2093.56 212.93 2090.18 212.93 Q2086.8 212.93 2084.86 215.615 Q2082.94 218.277 2082.94 222.976 Z" fill="#000000" fill-rule="nonzero" fill-opacity="1" /><path clip-path="url(#clip980)" d="M2110.48 209.99 L2114.74 209.99 L2114.74 235.916 L2110.48 235.916 L2110.48 209.99 M2110.48 199.897 L2114.74 199.897 L2114.74 205.291 L2110.48 205.291 L2110.48 199.897 Z" fill="#000000" fill-rule="nonzero" fill-opacity="1" /><path clip-path="url(#clip980)" d="M2145.83 221.888 L2145.83 223.971 L2126.25 223.971 Q2126.53 228.369 2128.89 230.684 Q2131.27 232.976 2135.51 232.976 Q2137.96 232.976 2140.25 232.374 Q2142.57 231.772 2144.84 230.569 L2144.84 234.596 Q2142.54 235.568 2140.14 236.078 Q2137.73 236.587 2135.25 236.587 Q2129.05 236.587 2125.41 232.976 Q2121.8 229.365 2121.8 223.207 Q2121.8 216.842 2125.23 213.115 Q2128.68 209.365 2134.51 209.365 Q2139.74 209.365 2142.78 212.745 Q2145.83 216.101 2145.83 221.888 M2141.57 220.638 Q2141.53 217.143 2139.6 215.059 Q2137.71 212.976 2134.56 212.976 Q2130.99 212.976 2128.84 214.99 Q2126.71 217.004 2126.39 220.661 L2141.57 220.638 Z" fill="#000000" fill-rule="nonzero" fill-opacity="1" /><path clip-path="url(#clip980)" d="M2174.37 220.268 L2174.37 235.916 L2170.11 235.916 L2170.11 220.407 Q2170.11 216.726 2168.68 214.897 Q2167.24 213.069 2164.37 213.069 Q2160.92 213.069 2158.93 215.268 Q2156.94 217.467 2156.94 221.263 L2156.94 235.916 L2152.66 235.916 L2152.66 209.99 L2156.94 209.99 L2156.94 214.018 Q2158.47 211.68 2160.53 210.522 Q2162.61 209.365 2165.32 209.365 Q2169.79 209.365 2172.08 212.143 Q2174.37 214.897 2174.37 220.268 Z" fill="#000000" fill-rule="nonzero" fill-opacity="1" /><path clip-path="url(#clip980)" d="M2187.08 202.629 L2187.08 209.99 L2195.85 209.99 L2195.85 213.3 L2187.08 213.3 L2187.08 227.374 Q2187.08 230.545 2187.94 231.448 Q2188.82 232.351 2191.48 232.351 L2195.85 232.351 L2195.85 235.916 L2191.48 235.916 Q2186.55 235.916 2184.67 234.087 Q2182.8 232.235 2182.8 227.374 L2182.8 213.3 L2179.67 213.3 L2179.67 209.99 L2182.8 209.99 L2182.8 202.629 L2187.08 202.629 Z" fill="#000000" fill-rule="nonzero" fill-opacity="1" /><path clip-path="url(#clip980)" d="M2217.98 210.754 L2217.98 214.782 Q2216.18 213.856 2214.23 213.393 Q2212.29 212.93 2210.21 212.93 Q2207.03 212.93 2205.44 213.902 Q2203.86 214.874 2203.86 216.819 Q2203.86 218.3 2205 219.157 Q2206.13 219.99 2209.56 220.754 L2211.02 221.078 Q2215.55 222.05 2217.45 223.832 Q2219.37 225.592 2219.37 228.763 Q2219.37 232.374 2216.5 234.481 Q2213.65 236.587 2208.66 236.587 Q2206.57 236.587 2204.3 236.17 Q2202.06 235.777 2199.56 234.967 L2199.56 230.569 Q2201.92 231.795 2204.21 232.42 Q2206.5 233.022 2208.75 233.022 Q2211.76 233.022 2213.38 232.004 Q2215 230.962 2215 229.087 Q2215 227.351 2213.82 226.425 Q2212.66 225.499 2208.7 224.643 L2207.22 224.295 Q2203.26 223.462 2201.5 221.749 Q2199.74 220.013 2199.74 217.004 Q2199.74 213.346 2202.34 211.356 Q2204.93 209.365 2209.7 209.365 Q2212.06 209.365 2214.14 209.712 Q2216.22 210.059 2217.98 210.754 Z" fill="#000000" fill-rule="nonzero" fill-opacity="1" /><polyline clip-path="url(#clip980)" style="stroke:#e26f46; stroke-linecap:round; stroke-linejoin:round; stroke-width:4; stroke-opacity:1; fill:none" stroke-dasharray="16, 10" points="1586.58,270.476 1726.79,270.476 "/>
<path clip-path="url(#clip980)" d="M1754.84 257.038 L1754.84 270.024 L1760.72 270.024 Q1763.98 270.024 1765.76 268.335 Q1767.55 266.645 1767.55 263.52 Q1767.55 260.418 1765.76 258.728 Q1763.98 257.038 1760.72 257.038 L1754.84 257.038 M1750.16 253.196 L1760.72 253.196 Q1766.53 253.196 1769.49 255.835 Q1772.48 258.45 1772.48 263.52 Q1772.48 268.635 1769.49 271.251 Q1766.53 273.867 1760.72 273.867 L1754.84 273.867 L1754.84 287.756 L1750.16 287.756 L1750.16 253.196 Z" fill="#000000" fill-rule="nonzero" fill-opacity="1" /><path clip-path="url(#clip980)" d="M1786.92 264.816 Q1783.5 264.816 1781.5 267.501 Q1779.51 270.163 1779.51 274.816 Q1779.51 279.469 1781.48 282.154 Q1783.47 284.816 1786.92 284.816 Q1790.32 284.816 1792.31 282.131 Q1794.31 279.446 1794.31 274.816 Q1794.31 270.21 1792.31 267.524 Q1790.32 264.816 1786.92 264.816 M1786.92 261.205 Q1792.48 261.205 1795.65 264.816 Q1798.82 268.427 1798.82 274.816 Q1798.82 281.182 1795.65 284.816 Q1792.48 288.427 1786.92 288.427 Q1781.34 288.427 1778.17 284.816 Q1775.02 281.182 1775.02 274.816 Q1775.02 268.427 1778.17 264.816 Q1781.34 261.205 1786.92 261.205 Z" fill="#000000" fill-rule="nonzero" fill-opacity="1" /><path clip-path="url(#clip980)" d="M1803.4 261.83 L1807.66 261.83 L1812.99 282.061 L1818.29 261.83 L1823.31 261.83 L1828.63 282.061 L1833.93 261.83 L1838.19 261.83 L1831.41 287.756 L1826.39 287.756 L1820.81 266.506 L1815.21 287.756 L1810.18 287.756 L1803.4 261.83 Z" fill="#000000" fill-rule="nonzero" fill-opacity="1" /><path clip-path="url(#clip980)" d="M1866.83 273.728 L1866.83 275.811 L1847.24 275.811 Q1847.52 280.209 1849.88 282.524 Q1852.27 284.816 1856.5 284.816 Q1858.96 284.816 1861.25 284.214 Q1863.56 283.612 1865.83 282.409 L1865.83 286.436 Q1863.54 287.408 1861.13 287.918 Q1858.73 288.427 1856.25 288.427 Q1850.05 288.427 1846.41 284.816 Q1842.8 281.205 1842.8 275.047 Q1842.8 268.682 1846.23 264.955 Q1849.68 261.205 1855.51 261.205 Q1860.74 261.205 1863.77 264.585 Q1866.83 267.941 1866.83 273.728 M1862.57 272.478 Q1862.52 268.983 1860.6 266.899 Q1858.7 264.816 1855.56 264.816 Q1851.99 264.816 1849.84 266.83 Q1847.71 268.844 1847.38 272.501 L1862.57 272.478 Z" fill="#000000" fill-rule="nonzero" fill-opacity="1" /><path clip-path="url(#clip980)" d="M1888.84 265.811 Q1888.12 265.395 1887.27 265.21 Q1886.43 265.001 1885.42 265.001 Q1881.8 265.001 1879.86 267.362 Q1877.94 269.7 1877.94 274.098 L1877.94 287.756 L1873.66 287.756 L1873.66 261.83 L1877.94 261.83 L1877.94 265.858 Q1879.28 263.497 1881.43 262.362 Q1883.59 261.205 1886.67 261.205 Q1887.11 261.205 1887.64 261.274 Q1888.17 261.321 1888.82 261.436 L1888.84 265.811 Z" fill="#000000" fill-rule="nonzero" fill-opacity="1" /><path clip-path="url(#clip980)" d="M1888.12 272.872 L1900.6 272.872 L1900.6 276.668 L1888.12 276.668 L1888.12 272.872 Z" fill="#000000" fill-rule="nonzero" fill-opacity="1" /><path clip-path="url(#clip980)" d="M1907.38 251.737 L1911.64 251.737 L1911.64 287.756 L1907.38 287.756 L1907.38 251.737 Z" fill="#000000" fill-rule="nonzero" fill-opacity="1" /><path clip-path="url(#clip980)" d="M1932.34 274.723 Q1927.18 274.723 1925.18 275.904 Q1923.19 277.084 1923.19 279.932 Q1923.19 282.2 1924.68 283.543 Q1926.18 284.862 1928.75 284.862 Q1932.29 284.862 1934.42 282.362 Q1936.57 279.839 1936.57 275.672 L1936.57 274.723 L1932.34 274.723 M1940.83 272.964 L1940.83 287.756 L1936.57 287.756 L1936.57 283.821 Q1935.11 286.182 1932.94 287.316 Q1930.76 288.427 1927.61 288.427 Q1923.63 288.427 1921.27 286.205 Q1918.93 283.959 1918.93 280.209 Q1918.93 275.834 1921.85 273.612 Q1924.79 271.39 1930.6 271.39 L1936.57 271.39 L1936.57 270.973 Q1936.57 268.034 1934.63 266.436 Q1932.71 264.816 1929.21 264.816 Q1926.99 264.816 1924.88 265.348 Q1922.78 265.881 1920.83 266.946 L1920.83 263.01 Q1923.17 262.108 1925.37 261.668 Q1927.57 261.205 1929.65 261.205 Q1935.28 261.205 1938.05 264.122 Q1940.83 267.038 1940.83 272.964 Z" fill="#000000" fill-rule="nonzero" fill-opacity="1" /><path clip-path="url(#clip980)" d="M1947.13 261.83 L1951.39 261.83 L1956.71 282.061 L1962.01 261.83 L1967.04 261.83 L1972.36 282.061 L1977.66 261.83 L1981.92 261.83 L1975.14 287.756 L1970.11 287.756 L1964.54 266.506 L1958.93 287.756 L1953.91 287.756 L1947.13 261.83 Z" fill="#000000" fill-rule="nonzero" fill-opacity="1" /><path clip-path="url(#clip980)" d="M2003.63 253.196 L2023.49 253.196 L2023.49 257.131 L2008.31 257.131 L2008.31 267.316 L2022.01 267.316 L2022.01 271.251 L2008.31 271.251 L2008.31 287.756 L2003.63 287.756 L2003.63 253.196 Z" fill="#000000" fill-rule="nonzero" fill-opacity="1" /><path clip-path="url(#clip980)" d="M2027.27 261.83 L2031.53 261.83 L2031.53 287.756 L2027.27 287.756 L2027.27 261.83 M2027.27 251.737 L2031.53 251.737 L2031.53 257.131 L2027.27 257.131 L2027.27 251.737 Z" fill="#000000" fill-rule="nonzero" fill-opacity="1" /><path clip-path="url(#clip980)" d="M2044.65 254.469 L2044.65 261.83 L2053.42 261.83 L2053.42 265.14 L2044.65 265.14 L2044.65 279.214 Q2044.65 282.385 2045.51 283.288 Q2046.39 284.191 2049.05 284.191 L2053.42 284.191 L2053.42 287.756 L2049.05 287.756 Q2044.12 287.756 2042.24 285.927 Q2040.37 284.075 2040.37 279.214 L2040.37 265.14 L2037.24 265.14 L2037.24 261.83 L2040.37 261.83 L2040.37 254.469 L2044.65 254.469 Z" fill="#000000" fill-rule="nonzero" fill-opacity="1" /><polyline clip-path="url(#clip980)" style="stroke:#3da44d; stroke-linecap:round; stroke-linejoin:round; stroke-width:4; stroke-opacity:1; fill:none" stroke-dasharray="2, 4" points="1586.58,322.316 1726.79,322.316 "/>
<path clip-path="url(#clip980)" d="M1750.16 305.036 L1772.01 305.036 L1772.01 308.971 L1754.84 308.971 L1754.84 319.202 L1771.3 319.202 L1771.3 323.137 L1754.84 323.137 L1754.84 335.661 L1772.43 335.661 L1772.43 339.596 L1750.16 339.596 L1750.16 305.036 Z" fill="#000000" fill-rule="nonzero" fill-opacity="1" /><path clip-path="url(#clip980)" d="M1801.48 313.67 L1792.11 326.286 L1801.97 339.596 L1796.94 339.596 L1789.4 329.411 L1781.85 339.596 L1776.83 339.596 L1786.9 326.031 L1777.69 313.67 L1782.71 313.67 L1789.58 322.906 L1796.46 313.67 L1801.48 313.67 Z" fill="#000000" fill-rule="nonzero" fill-opacity="1" /><path clip-path="url(#clip980)" d="M1812.11 335.707 L1812.11 349.457 L1807.82 349.457 L1807.82 313.67 L1812.11 313.67 L1812.11 317.605 Q1813.45 315.29 1815.49 314.179 Q1817.55 313.045 1820.39 313.045 Q1825.12 313.045 1828.06 316.795 Q1831.02 320.545 1831.02 326.656 Q1831.02 332.767 1828.06 336.517 Q1825.12 340.267 1820.39 340.267 Q1817.55 340.267 1815.49 339.156 Q1813.45 338.022 1812.11 335.707 M1826.6 326.656 Q1826.6 321.957 1824.65 319.295 Q1822.73 316.61 1819.35 316.61 Q1815.97 316.61 1814.03 319.295 Q1812.11 321.957 1812.11 326.656 Q1812.11 331.355 1814.03 334.04 Q1815.97 336.702 1819.35 336.702 Q1822.73 336.702 1824.65 334.04 Q1826.6 331.355 1826.6 326.656 Z" fill="#000000" fill-rule="nonzero" fill-opacity="1" /><path clip-path="url(#clip980)" d="M1848.12 316.656 Q1844.7 316.656 1842.71 319.341 Q1840.72 322.003 1840.72 326.656 Q1840.72 331.309 1842.68 333.994 Q1844.68 336.656 1848.12 336.656 Q1851.53 336.656 1853.52 333.971 Q1855.51 331.286 1855.51 326.656 Q1855.51 322.05 1853.52 319.364 Q1851.53 316.656 1848.12 316.656 M1848.12 313.045 Q1853.68 313.045 1856.85 316.656 Q1860.02 320.267 1860.02 326.656 Q1860.02 333.022 1856.85 336.656 Q1853.68 340.267 1848.12 340.267 Q1842.55 340.267 1839.37 336.656 Q1836.23 333.022 1836.23 326.656 Q1836.23 320.267 1839.37 316.656 Q1842.55 313.045 1848.12 313.045 Z" fill="#000000" fill-rule="nonzero" fill-opacity="1" /><path clip-path="url(#clip980)" d="M1888.63 323.948 L1888.63 339.596 L1884.37 339.596 L1884.37 324.087 Q1884.37 320.406 1882.94 318.577 Q1881.5 316.749 1878.63 316.749 Q1875.18 316.749 1873.19 318.948 Q1871.2 321.147 1871.2 324.943 L1871.2 339.596 L1866.92 339.596 L1866.92 313.67 L1871.2 313.67 L1871.2 317.698 Q1872.73 315.36 1874.79 314.202 Q1876.87 313.045 1879.58 313.045 Q1884.05 313.045 1886.34 315.823 Q1888.63 318.577 1888.63 323.948 Z" fill="#000000" fill-rule="nonzero" fill-opacity="1" /><path clip-path="url(#clip980)" d="M1919.3 325.568 L1919.3 327.651 L1899.72 327.651 Q1900 332.049 1902.36 334.364 Q1904.74 336.656 1908.98 336.656 Q1911.43 336.656 1913.73 336.054 Q1916.04 335.452 1918.31 334.249 L1918.31 338.276 Q1916.02 339.248 1913.61 339.758 Q1911.2 340.267 1908.73 340.267 Q1902.52 340.267 1898.89 336.656 Q1895.28 333.045 1895.28 326.887 Q1895.28 320.522 1898.7 316.795 Q1902.15 313.045 1907.99 313.045 Q1913.22 313.045 1916.25 316.425 Q1919.3 319.781 1919.3 325.568 M1915.05 324.318 Q1915 320.823 1913.08 318.739 Q1911.18 316.656 1908.03 316.656 Q1904.47 316.656 1902.31 318.67 Q1900.18 320.684 1899.86 324.341 L1915.05 324.318 Z" fill="#000000" fill-rule="nonzero" fill-opacity="1" /><path clip-path="url(#clip980)" d="M1947.85 323.948 L1947.85 339.596 L1943.59 339.596 L1943.59 324.087 Q1943.59 320.406 1942.15 318.577 Q1940.72 316.749 1937.85 316.749 Q1934.4 316.749 1932.41 318.948 Q1930.42 321.147 1930.42 324.943 L1930.42 339.596 L1926.13 339.596 L1926.13 313.67 L1930.42 313.67 L1930.42 317.698 Q1931.94 315.36 1934 314.202 Q1936.09 313.045 1938.8 313.045 Q1943.26 313.045 1945.55 315.823 Q1947.85 318.577 1947.85 323.948 Z" fill="#000000" fill-rule="nonzero" fill-opacity="1" /><path clip-path="url(#clip980)" d="M1960.55 306.309 L1960.55 313.67 L1969.33 313.67 L1969.33 316.98 L1960.55 316.98 L1960.55 331.054 Q1960.55 334.225 1961.41 335.128 Q1962.29 336.031 1964.95 336.031 L1969.33 336.031 L1969.33 339.596 L1964.95 339.596 Q1960.02 339.596 1958.15 337.767 Q1956.27 335.915 1956.27 331.054 L1956.27 316.98 L1953.15 316.98 L1953.15 313.67 L1956.27 313.67 L1956.27 306.309 L1960.55 306.309 Z" fill="#000000" fill-rule="nonzero" fill-opacity="1" /><path clip-path="url(#clip980)" d="M1974.93 313.67 L1979.19 313.67 L1979.19 339.596 L1974.93 339.596 L1974.93 313.67 M1974.93 303.577 L1979.19 303.577 L1979.19 308.971 L1974.93 308.971 L1974.93 303.577 Z" fill="#000000" fill-rule="nonzero" fill-opacity="1" /><path clip-path="url(#clip980)" d="M1999.88 326.563 Q1994.72 326.563 1992.73 327.744 Q1990.74 328.924 1990.74 331.772 Q1990.74 334.04 1992.22 335.383 Q1993.73 336.702 1996.3 336.702 Q1999.84 336.702 2001.97 334.202 Q2004.12 331.679 2004.12 327.512 L2004.12 326.563 L1999.88 326.563 M2008.38 324.804 L2008.38 339.596 L2004.12 339.596 L2004.12 335.661 Q2002.66 338.022 2000.48 339.156 Q1998.31 340.267 1995.16 340.267 Q1991.18 340.267 1988.82 338.045 Q1986.48 335.799 1986.48 332.049 Q1986.48 327.674 1989.4 325.452 Q1992.34 323.23 1998.15 323.23 L2004.12 323.23 L2004.12 322.813 Q2004.12 319.874 2002.17 318.276 Q2000.25 316.656 1996.76 316.656 Q1994.54 316.656 1992.43 317.188 Q1990.32 317.721 1988.38 318.786 L1988.38 314.85 Q1990.72 313.948 1992.92 313.508 Q1995.11 313.045 1997.2 313.045 Q2002.82 313.045 2005.6 315.962 Q2008.38 318.878 2008.38 324.804 Z" fill="#000000" fill-rule="nonzero" fill-opacity="1" /><path clip-path="url(#clip980)" d="M2017.15 303.577 L2021.41 303.577 L2021.41 339.596 L2017.15 339.596 L2017.15 303.577 Z" fill="#000000" fill-rule="nonzero" fill-opacity="1" /><path clip-path="url(#clip980)" d="M2050.25 308.878 L2050.25 335.753 L2055.9 335.753 Q2063.05 335.753 2066.36 332.512 Q2069.7 329.272 2069.7 322.281 Q2069.7 315.337 2066.36 312.119 Q2063.05 308.878 2055.9 308.878 L2050.25 308.878 M2045.58 305.036 L2055.18 305.036 Q2065.23 305.036 2069.93 309.226 Q2074.63 313.392 2074.63 322.281 Q2074.63 331.216 2069.91 335.406 Q2065.18 339.596 2055.18 339.596 L2045.58 339.596 L2045.58 305.036 Z" fill="#000000" fill-rule="nonzero" fill-opacity="1" /><path clip-path="url(#clip980)" d="M2104.07 325.568 L2104.07 327.651 L2084.49 327.651 Q2084.77 332.049 2087.13 334.364 Q2089.51 336.656 2093.75 336.656 Q2096.2 336.656 2098.49 336.054 Q2100.81 335.452 2103.08 334.249 L2103.08 338.276 Q2100.79 339.248 2098.38 339.758 Q2095.97 340.267 2093.49 340.267 Q2087.29 340.267 2083.66 336.656 Q2080.04 333.045 2080.04 326.887 Q2080.04 320.522 2083.47 316.795 Q2086.92 313.045 2092.75 313.045 Q2097.98 313.045 2101.02 316.425 Q2104.07 319.781 2104.07 325.568 M2099.81 324.318 Q2099.77 320.823 2097.85 318.739 Q2095.95 316.656 2092.8 316.656 Q2089.23 316.656 2087.08 318.67 Q2084.95 320.684 2084.63 324.341 L2099.81 324.318 Z" fill="#000000" fill-rule="nonzero" fill-opacity="1" /><path clip-path="url(#clip980)" d="M2129.72 314.665 L2129.72 318.647 Q2127.91 317.651 2126.09 317.165 Q2124.28 316.656 2122.43 316.656 Q2118.29 316.656 2115.99 319.295 Q2113.7 321.911 2113.7 326.656 Q2113.7 331.401 2115.99 334.04 Q2118.29 336.656 2122.43 336.656 Q2124.28 336.656 2126.09 336.17 Q2127.91 335.661 2129.72 334.665 L2129.72 338.6 Q2127.94 339.434 2126.02 339.85 Q2124.12 340.267 2121.97 340.267 Q2116.11 340.267 2112.66 336.586 Q2109.21 332.906 2109.21 326.656 Q2109.21 320.313 2112.68 316.679 Q2116.18 313.045 2122.24 313.045 Q2124.21 313.045 2126.09 313.462 Q2127.96 313.855 2129.72 314.665 Z" fill="#000000" fill-rule="nonzero" fill-opacity="1" /><path clip-path="url(#clip980)" d="M2148.91 326.563 Q2143.75 326.563 2141.76 327.744 Q2139.77 328.924 2139.77 331.772 Q2139.77 334.04 2141.25 335.383 Q2142.75 336.702 2145.32 336.702 Q2148.86 336.702 2150.99 334.202 Q2153.15 331.679 2153.15 327.512 L2153.15 326.563 L2148.91 326.563 M2157.41 324.804 L2157.41 339.596 L2153.15 339.596 L2153.15 335.661 Q2151.69 338.022 2149.51 339.156 Q2147.34 340.267 2144.19 340.267 Q2140.21 340.267 2137.85 338.045 Q2135.51 335.799 2135.51 332.049 Q2135.51 327.674 2138.42 325.452 Q2141.36 323.23 2147.17 323.23 L2153.15 323.23 L2153.15 322.813 Q2153.15 319.874 2151.2 318.276 Q2149.28 316.656 2145.78 316.656 Q2143.56 316.656 2141.46 317.188 Q2139.35 317.721 2137.41 318.786 L2137.41 314.85 Q2139.74 313.948 2141.94 313.508 Q2144.14 313.045 2146.22 313.045 Q2151.85 313.045 2154.63 315.962 Q2157.41 318.878 2157.41 324.804 Z" fill="#000000" fill-rule="nonzero" fill-opacity="1" /><path clip-path="url(#clip980)" d="M2176.97 342.003 Q2175.16 346.633 2173.45 348.045 Q2171.73 349.457 2168.86 349.457 L2165.46 349.457 L2165.46 345.892 L2167.96 345.892 Q2169.72 345.892 2170.69 345.059 Q2171.66 344.225 2172.85 341.123 L2173.61 339.179 L2163.12 313.67 L2167.64 313.67 L2175.74 333.948 L2183.84 313.67 L2188.35 313.67 L2176.97 342.003 Z" fill="#000000" fill-rule="nonzero" fill-opacity="1" /><path clip-path="url(#clip980)" d="M2209.49 305.036 L2229.35 305.036 L2229.35 308.971 L2214.16 308.971 L2214.16 319.156 L2227.87 319.156 L2227.87 323.091 L2214.16 323.091 L2214.16 339.596 L2209.49 339.596 L2209.49 305.036 Z" fill="#000000" fill-rule="nonzero" fill-opacity="1" /><path clip-path="url(#clip980)" d="M2233.12 313.67 L2237.38 313.67 L2237.38 339.596 L2233.12 339.596 L2233.12 313.67 M2233.12 303.577 L2237.38 303.577 L2237.38 308.971 L2233.12 308.971 L2233.12 303.577 Z" fill="#000000" fill-rule="nonzero" fill-opacity="1" /><path clip-path="url(#clip980)" d="M2250.51 306.309 L2250.51 313.67 L2259.28 313.67 L2259.28 316.98 L2250.51 316.98 L2250.51 331.054 Q2250.51 334.225 2251.36 335.128 Q2252.24 336.031 2254.9 336.031 L2259.28 336.031 L2259.28 339.596 L2254.9 339.596 Q2249.97 339.596 2248.1 337.767 Q2246.22 335.915 2246.22 331.054 L2246.22 316.98 L2243.1 316.98 L2243.1 313.67 L2246.22 313.67 L2246.22 306.309 L2250.51 306.309 Z" fill="#000000" fill-rule="nonzero" fill-opacity="1" /></svg>
