<?xml version="1.0" encoding="utf-8"?>
<svg xmlns="http://www.w3.org/2000/svg" xmlns:xlink="http://www.w3.org/1999/xlink" width="600" height="400" viewBox="0 0 2400 1600">
<defs>
  <clipPath id="clip200">
    <rect x="0" y="0" width="2400" height="1600"/>
  </clipPath>
</defs>
<path clip-path="url(#clip200)" d="M0 1600 L2400 1600 L2400 8.88178e-14 L0 8.88178e-14  Z" fill="#ffffff" fill-rule="evenodd" fill-opacity="1"/>
<defs>
  <clipPath id="clip201">
    <rect x="480" y="0" width="1681" height="1600"/>
  </clipPath>
</defs>
<path clip-path="url(#clip200)" d="M175.445 1423.18 L2352.76 1423.18 L2352.76 123.472 L175.445 123.472  Z" fill="#ffffff" fill-rule="evenodd" fill-opacity="1"/>
<defs>
  <clipPath id="clip202">
    <rect x="175" y="123" width="2178" height="1301"/>
  </clipPath>
</defs>
<polyline clip-path="url(#clip202)" style="stroke:#000000; stroke-linecap:round; stroke-linejoin:round; stroke-width:2; stroke-opacity:0.1; fill:none" points="237.067,1423.18 237.067,123.472 "/>
<polyline clip-path="url(#clip202)" style="stroke:#000000; stroke-linecap:round; stroke-linejoin:round; stroke-width:2; stroke-opacity:0.1; fill:none" points="921.756,1423.18 921.756,123.472 "/>
<polyline clip-path="url(#clip202)" style="stroke:#000000; stroke-linecap:round; stroke-linejoin:round; stroke-width:2; stroke-opacity:0.1; fill:none" points="1606.45,1423.18 1606.45,123.472 "/>
<polyline clip-path="url(#clip202)" style="stroke:#000000; stroke-linecap:round; stroke-linejoin:round; stroke-width:2; stroke-opacity:0.1; fill:none" points="2291.13,1423.18 2291.13,123.472 "/>
<polyline clip-path="url(#clip202)" style="stroke:#000000; stroke-linecap:round; stroke-linejoin:round; stroke-width:2; stroke-opacity:0.1; fill:none" points="175.445,1321.22 2352.76,1321.22 "/>
<polyline clip-path="url(#clip202)" style="stroke:#000000; stroke-linecap:round; stroke-linejoin:round; stroke-width:2; stroke-opacity:0.1; fill:none" points="175.445,1009.85 2352.76,1009.85 "/>
<polyline clip-path="url(#clip202)" style="stroke:#000000; stroke-linecap:round; stroke-linejoin:round; stroke-width:2; stroke-opacity:0.1; fill:none" points="175.445,698.49 2352.76,698.49 "/>
<polyline clip-path="url(#clip202)" style="stroke:#000000; stroke-linecap:round; stroke-linejoin:round; stroke-width:2; stroke-opacity:0.1; fill:none" points="175.445,387.125 2352.76,387.125 "/>
<polyline clip-path="url(#clip200)" style="stroke:#000000; stroke-linecap:round; stroke-linejoin:round; stroke-width:4; stroke-opacity:1; fill:none" points="175.445,1423.18 2352.76,1423.18 "/>
<polyline clip-path="url(#clip200)" style="stroke:#000000; stroke-linecap:round; stroke-linejoin:round; stroke-width:4; stroke-opacity:1; fill:none" points="237.067,1423.18 237.067,1404.28 "/>
<polyline clip-path="url(#clip200)" style="stroke:#000000; stroke-linecap:round; stroke-linejoin:round; stroke-width:4; stroke-opacity:1; fill:none" points="921.756,1423.18 921.756,1404.28 "/>
<polyline clip-path="url(#clip200)" style="stroke:#000000; stroke-linecap:round; stroke-linejoin:round; stroke-width:4; stroke-opacity:1; fill:none" points="1606.45,1423.18 1606.45,1404.28 "/>
<polyline clip-path="url(#clip200)" style="stroke:#000000; stroke-linecap:round; stroke-linejoin:round; stroke-width:4; stroke-opacity:1; fill:none" points="2291.13,1423.18 2291.13,1404.28 "/>
<path clip-path="url(#clip200)" d="M237.067 1454.1 Q233.456 1454.1 231.627 1457.66 Q229.822 1461.2 229.822 1468.33 Q229.822 1475.44 231.627 1479.01 Q233.456 1482.55 237.067 1482.55 Q240.701 1482.55 242.507 1479.01 Q244.336 1475.44 244.336 1468.33 Q244.336 1461.2 242.507 1457.66 Q240.701 1454.1 237.067 1454.1 M237.067 1450.39 Q242.877 1450.39 245.933 1455 Q249.012 1459.58 249.012 1468.33 Q249.012 1477.06 245.933 1481.67 Q242.877 1486.25 237.067 1486.25 Q231.257 1486.25 228.178 1481.67 Q225.123 1477.06 225.123 1468.33 Q225.123 1459.58 228.178 1455 Q231.257 1450.39 237.067 1450.39 Z" fill="#000000" fill-rule="nonzero" fill-opacity="1" /><path clip-path="url(#clip200)" d="M881.363 1481.64 L889.002 1481.64 L889.002 1455.28 L880.692 1456.95 L880.692 1452.69 L888.955 1451.02 L893.631 1451.02 L893.631 1481.64 L901.27 1481.64 L901.27 1485.58 L881.363 1485.58 L881.363 1481.64 Z" fill="#000000" fill-rule="nonzero" fill-opacity="1" /><path clip-path="url(#clip200)" d="M920.714 1454.1 Q917.103 1454.1 915.275 1457.66 Q913.469 1461.2 913.469 1468.33 Q913.469 1475.44 915.275 1479.01 Q917.103 1482.55 920.714 1482.55 Q924.349 1482.55 926.154 1479.01 Q927.983 1475.44 927.983 1468.33 Q927.983 1461.2 926.154 1457.66 Q924.349 1454.1 920.714 1454.1 M920.714 1450.39 Q926.525 1450.39 929.58 1455 Q932.659 1459.58 932.659 1468.33 Q932.659 1477.06 929.58 1481.67 Q926.525 1486.25 920.714 1486.25 Q914.904 1486.25 911.826 1481.67 Q908.77 1477.06 908.77 1468.33 Q908.77 1459.58 911.826 1455 Q914.904 1450.39 920.714 1450.39 Z" fill="#000000" fill-rule="nonzero" fill-opacity="1" /><path clip-path="url(#clip200)" d="M950.876 1454.1 Q947.265 1454.1 945.437 1457.66 Q943.631 1461.2 943.631 1468.33 Q943.631 1475.44 945.437 1479.01 Q947.265 1482.55 950.876 1482.55 Q954.511 1482.55 956.316 1479.01 Q958.145 1475.44 958.145 1468.33 Q958.145 1461.2 956.316 1457.66 Q954.511 1454.1 950.876 1454.1 M950.876 1450.39 Q956.686 1450.39 959.742 1455 Q962.821 1459.58 962.821 1468.33 Q962.821 1477.06 959.742 1481.67 Q956.686 1486.25 950.876 1486.25 Q945.066 1486.25 941.987 1481.67 Q938.932 1477.06 938.932 1468.33 Q938.932 1459.58 941.987 1455 Q945.066 1450.39 950.876 1450.39 Z" fill="#000000" fill-rule="nonzero" fill-opacity="1" /><path clip-path="url(#clip200)" d="M1570.14 1481.64 L1586.46 1481.64 L1586.46 1485.58 L1564.51 1485.58 L1564.51 1481.64 Q1567.17 1478.89 1571.76 1474.26 Q1576.36 1469.61 1577.54 1468.27 Q1579.79 1465.74 1580.67 1464.01 Q1581.57 1462.25 1581.57 1460.56 Q1581.57 1457.8 1579.63 1456.07 Q1577.71 1454.33 1574.6 1454.33 Q1572.41 1454.33 1569.95 1455.09 Q1567.52 1455.86 1564.74 1457.41 L1564.74 1452.69 Q1567.57 1451.55 1570.02 1450.97 Q1572.48 1450.39 1574.51 1450.39 Q1579.88 1450.39 1583.08 1453.08 Q1586.27 1455.77 1586.27 1460.26 Q1586.27 1462.39 1585.46 1464.31 Q1584.67 1466.2 1582.57 1468.8 Q1581.99 1469.47 1578.89 1472.69 Q1575.79 1475.88 1570.14 1481.64 Z" fill="#000000" fill-rule="nonzero" fill-opacity="1" /><path clip-path="url(#clip200)" d="M1606.27 1454.1 Q1602.66 1454.1 1600.83 1457.66 Q1599.03 1461.2 1599.03 1468.33 Q1599.03 1475.44 1600.83 1479.01 Q1602.66 1482.55 1606.27 1482.55 Q1609.91 1482.55 1611.71 1479.01 Q1613.54 1475.44 1613.54 1468.33 Q1613.54 1461.2 1611.71 1457.66 Q1609.91 1454.1 1606.27 1454.1 M1606.27 1450.39 Q1612.08 1450.39 1615.14 1455 Q1618.22 1459.58 1618.22 1468.33 Q1618.22 1477.06 1615.14 1481.67 Q1612.08 1486.25 1606.27 1486.25 Q1600.46 1486.25 1597.38 1481.67 Q1594.33 1477.06 1594.33 1468.33 Q1594.33 1459.58 1597.38 1455 Q1600.46 1450.39 1606.27 1450.39 Z" fill="#000000" fill-rule="nonzero" fill-opacity="1" /><path clip-path="url(#clip200)" d="M1636.43 1454.1 Q1632.82 1454.1 1630.99 1457.66 Q1629.19 1461.2 1629.19 1468.33 Q1629.19 1475.44 1630.99 1479.01 Q1632.82 1482.55 1636.43 1482.55 Q1640.07 1482.55 1641.87 1479.01 Q1643.7 1475.44 1643.7 1468.33 Q1643.7 1461.2 1641.87 1457.66 Q1640.07 1454.1 1636.43 1454.1 M1636.43 1450.39 Q1642.24 1450.39 1645.3 1455 Q1648.38 1459.58 1648.38 1468.33 Q1648.38 1477.06 1645.3 1481.67 Q1642.24 1486.25 1636.43 1486.25 Q1630.62 1486.25 1627.54 1481.67 Q1624.49 1477.06 1624.49 1468.33 Q1624.49 1459.58 1627.54 1455 Q1630.62 1450.39 1636.43 1450.39 Z" fill="#000000" fill-rule="nonzero" fill-opacity="1" /><path clip-path="url(#clip200)" d="M2264.9 1466.95 Q2268.25 1467.66 2270.13 1469.93 Q2272.03 1472.2 2272.03 1475.53 Q2272.03 1480.65 2268.51 1483.45 Q2264.99 1486.25 2258.51 1486.25 Q2256.33 1486.25 2254.02 1485.81 Q2251.72 1485.39 2249.27 1484.54 L2249.27 1480.02 Q2251.22 1481.16 2253.53 1481.74 Q2255.84 1482.32 2258.37 1482.32 Q2262.77 1482.32 2265.06 1480.58 Q2267.37 1478.84 2267.37 1475.53 Q2267.37 1472.48 2265.22 1470.77 Q2263.09 1469.03 2259.27 1469.03 L2255.24 1469.03 L2255.24 1465.19 L2259.46 1465.19 Q2262.9 1465.19 2264.73 1463.82 Q2266.56 1462.43 2266.56 1459.84 Q2266.56 1457.18 2264.66 1455.77 Q2262.79 1454.33 2259.27 1454.33 Q2257.35 1454.33 2255.15 1454.75 Q2252.95 1455.16 2250.31 1456.04 L2250.31 1451.88 Q2252.97 1451.14 2255.29 1450.77 Q2257.63 1450.39 2259.69 1450.39 Q2265.01 1450.39 2268.11 1452.83 Q2271.22 1455.23 2271.22 1459.35 Q2271.22 1462.22 2269.57 1464.21 Q2267.93 1466.18 2264.9 1466.95 Z" fill="#000000" fill-rule="nonzero" fill-opacity="1" /><path clip-path="url(#clip200)" d="M2290.89 1454.1 Q2287.28 1454.1 2285.45 1457.66 Q2283.65 1461.2 2283.65 1468.33 Q2283.65 1475.44 2285.45 1479.01 Q2287.28 1482.55 2290.89 1482.55 Q2294.53 1482.55 2296.33 1479.01 Q2298.16 1475.44 2298.16 1468.33 Q2298.16 1461.2 2296.33 1457.66 Q2294.53 1454.1 2290.89 1454.1 M2290.89 1450.39 Q2296.7 1450.39 2299.76 1455 Q2302.84 1459.58 2302.84 1468.33 Q2302.84 1477.06 2299.76 1481.67 Q2296.7 1486.25 2290.89 1486.25 Q2285.08 1486.25 2282 1481.67 Q2278.95 1477.06 2278.95 1468.33 Q2278.95 1459.58 2282 1455 Q2285.08 1450.39 2290.89 1450.39 Z" fill="#000000" fill-rule="nonzero" fill-opacity="1" /><path clip-path="url(#clip200)" d="M2321.05 1454.1 Q2317.44 1454.1 2315.61 1457.66 Q2313.81 1461.2 2313.81 1468.33 Q2313.81 1475.44 2315.61 1479.01 Q2317.44 1482.55 2321.05 1482.55 Q2324.69 1482.55 2326.49 1479.01 Q2328.32 1475.44 2328.32 1468.33 Q2328.32 1461.2 2326.49 1457.66 Q2324.69 1454.1 2321.05 1454.1 M2321.05 1450.39 Q2326.86 1450.39 2329.92 1455 Q2333 1459.58 2333 1468.33 Q2333 1477.06 2329.92 1481.67 Q2326.86 1486.25 2321.05 1486.25 Q2315.24 1486.25 2312.16 1481.67 Q2309.11 1477.06 2309.11 1468.33 Q2309.11 1459.58 2312.16 1455 Q2315.24 1450.39 2321.05 1450.39 Z" fill="#000000" fill-rule="nonzero" fill-opacity="1" /><path clip-path="url(#clip200)" d="M1264.99 1524.09 L1281.45 1568.04 L1275.24 1568.04 L1265.25 1541.69 L1252.96 1568.04 L1246.75 1568.04 L1262.38 1533.86 L1260.03 1527.56 Q1258.53 1523.55 1255.12 1523.55 L1252.07 1523.55 L1252.07 1518.52 L1255.79 1518.58 Q1262.99 1518.68 1264.99 1524.09 Z" fill="#000000" fill-rule="nonzero" fill-opacity="1" /><polyline clip-path="url(#clip200)" style="stroke:#000000; stroke-linecap:round; stroke-linejoin:round; stroke-width:4; stroke-opacity:1; fill:none" points="175.445,1423.18 175.445,123.472 "/>
<polyline clip-path="url(#clip200)" style="stroke:#000000; stroke-linecap:round; stroke-linejoin:round; stroke-width:4; stroke-opacity:1; fill:none" points="175.445,1321.22 194.343,1321.22 "/>
<polyline clip-path="url(#clip200)" style="stroke:#000000; stroke-linecap:round; stroke-linejoin:round; stroke-width:4; stroke-opacity:1; fill:none" points="175.445,1009.85 194.343,1009.85 "/>
<polyline clip-path="url(#clip200)" style="stroke:#000000; stroke-linecap:round; stroke-linejoin:round; stroke-width:4; stroke-opacity:1; fill:none" points="175.445,698.49 194.343,698.49 "/>
<polyline clip-path="url(#clip200)" style="stroke:#000000; stroke-linecap:round; stroke-linejoin:round; stroke-width:4; stroke-opacity:1; fill:none" points="175.445,387.125 194.343,387.125 "/>
<path clip-path="url(#clip200)" d="M123.126 1334.56 L139.445 1334.56 L139.445 1338.5 L117.501 1338.5 L117.501 1334.56 Q120.163 1331.81 124.746 1327.18 Q129.353 1322.53 130.533 1321.18 Q132.779 1318.66 133.658 1316.93 Q134.561 1315.17 134.561 1313.48 Q134.561 1310.72 132.617 1308.99 Q130.695 1307.25 127.593 1307.25 Q125.394 1307.25 122.941 1308.01 Q120.51 1308.78 117.732 1310.33 L117.732 1305.61 Q120.556 1304.47 123.01 1303.89 Q125.464 1303.31 127.501 1303.31 Q132.871 1303.31 136.066 1306 Q139.26 1308.68 139.26 1313.18 Q139.26 1315.3 138.45 1317.23 Q137.663 1319.12 135.556 1321.72 Q134.978 1322.39 131.876 1325.61 Q128.774 1328.8 123.126 1334.56 Z" fill="#000000" fill-rule="nonzero" fill-opacity="1" /><path clip-path="url(#clip200)" d="M129.862 996.648 L118.056 1015.1 L129.862 1015.1 L129.862 996.648 M128.635 992.574 L134.515 992.574 L134.515 1015.1 L139.445 1015.1 L139.445 1018.99 L134.515 1018.99 L134.515 1027.13 L129.862 1027.13 L129.862 1018.99 L114.26 1018.99 L114.26 1014.47 L128.635 992.574 Z" fill="#000000" fill-rule="nonzero" fill-opacity="1" /><path clip-path="url(#clip200)" d="M127.917 696.626 Q124.769 696.626 122.918 698.779 Q121.089 700.932 121.089 704.682 Q121.089 708.409 122.918 710.585 Q124.769 712.737 127.917 712.737 Q131.066 712.737 132.894 710.585 Q134.746 708.409 134.746 704.682 Q134.746 700.932 132.894 698.779 Q131.066 696.626 127.917 696.626 M137.2 681.974 L137.2 686.233 Q135.441 685.399 133.635 684.96 Q131.853 684.52 130.093 684.52 Q125.464 684.52 123.01 687.645 Q120.58 690.77 120.232 697.089 Q121.598 695.075 123.658 694.011 Q125.718 692.923 128.195 692.923 Q133.404 692.923 136.413 696.094 Q139.445 699.242 139.445 704.682 Q139.445 710.006 136.297 713.223 Q133.149 716.441 127.917 716.441 Q121.922 716.441 118.751 711.858 Q115.58 707.251 115.58 698.524 Q115.58 690.33 119.468 685.469 Q123.357 680.585 129.908 680.585 Q131.667 680.585 133.45 680.932 Q135.255 681.279 137.2 681.974 Z" fill="#000000" fill-rule="nonzero" fill-opacity="1" /><path clip-path="url(#clip200)" d="M127.593 387.993 Q124.26 387.993 122.339 389.775 Q120.441 391.558 120.441 394.683 Q120.441 397.808 122.339 399.59 Q124.26 401.373 127.593 401.373 Q130.927 401.373 132.848 399.59 Q134.769 397.785 134.769 394.683 Q134.769 391.558 132.848 389.775 Q130.95 387.993 127.593 387.993 M122.918 386.002 Q119.908 385.262 118.218 383.201 Q116.552 381.141 116.552 378.178 Q116.552 374.035 119.492 371.627 Q122.455 369.22 127.593 369.22 Q132.755 369.22 135.695 371.627 Q138.635 374.035 138.635 378.178 Q138.635 381.141 136.945 383.201 Q135.279 385.262 132.292 386.002 Q135.672 386.789 137.547 389.081 Q139.445 391.373 139.445 394.683 Q139.445 399.706 136.367 402.391 Q133.311 405.076 127.593 405.076 Q121.876 405.076 118.797 402.391 Q115.742 399.706 115.742 394.683 Q115.742 391.373 117.64 389.081 Q119.538 386.789 122.918 386.002 M121.205 378.618 Q121.205 381.303 122.871 382.808 Q124.561 384.313 127.593 384.313 Q130.603 384.313 132.292 382.808 Q134.005 381.303 134.005 378.618 Q134.005 375.933 132.292 374.428 Q130.603 372.924 127.593 372.924 Q124.561 372.924 122.871 374.428 Q121.205 375.933 121.205 378.618 Z" fill="#000000" fill-rule="nonzero" fill-opacity="1" /><path clip-path="url(#clip200)" d="M20.8447 920.342 Q20.8447 927.344 26.0645 931.482 Q31.2844 935.588 40.2919 935.588 Q49.2675 935.588 54.4874 931.482 Q59.7073 927.344 59.7073 920.342 Q59.7073 913.34 54.4874 909.266 Q49.2675 905.16 40.2919 905.16 Q31.2844 905.16 26.0645 909.266 Q20.8447 913.34 20.8447 920.342 M15.6248 920.342 Q15.6248 910.348 22.3406 904.364 Q29.0246 898.38 40.2919 898.38 Q51.5274 898.38 58.2432 904.364 Q64.9272 910.348 64.9272 920.342 Q64.9272 930.368 58.2432 936.384 Q51.5592 942.367 40.2919 942.367 Q29.0246 942.367 22.3406 936.384 Q15.6248 930.368 15.6248 920.342 Z" fill="#000000" fill-rule="nonzero" fill-opacity="1" /><path clip-path="url(#clip200)" d="M58.657 882.912 L77.5631 882.912 L77.5631 888.8 L28.3562 888.8 L28.3562 882.912 L33.7671 882.912 Q30.5842 881.066 29.0564 878.265 Q27.4968 875.432 27.4968 871.517 Q27.4968 865.024 32.6531 860.982 Q37.8093 856.908 46.212 856.908 Q54.6147 856.908 59.771 860.982 Q64.9272 865.024 64.9272 871.517 Q64.9272 875.432 63.3994 878.265 Q61.8398 881.066 58.657 882.912 M46.212 862.987 Q39.7508 862.987 36.0905 865.661 Q32.3984 868.302 32.3984 872.949 Q32.3984 877.596 36.0905 880.27 Q39.7508 882.912 46.212 882.912 Q52.6732 882.912 56.3653 880.27 Q60.0256 877.596 60.0256 872.949 Q60.0256 868.302 56.3653 865.661 Q52.6732 862.987 46.212 862.987 Z" fill="#000000" fill-rule="nonzero" fill-opacity="1" /><path clip-path="url(#clip200)" d="M18.2347 841.407 L28.3562 841.407 L28.3562 829.344 L32.9077 829.344 L32.9077 841.407 L52.2594 841.407 Q56.6199 841.407 57.8613 840.23 Q59.1026 839.02 59.1026 835.36 L59.1026 829.344 L64.0042 829.344 L64.0042 835.36 Q64.0042 842.139 61.4897 844.717 Q58.9434 847.295 52.2594 847.295 L32.9077 847.295 L32.9077 851.592 L28.3562 851.592 L28.3562 847.295 L18.2347 847.295 L18.2347 841.407 Z" fill="#000000" fill-rule="nonzero" fill-opacity="1" /><path clip-path="url(#clip200)" d="M28.3562 821.642 L28.3562 815.785 L64.0042 815.785 L64.0042 821.642 L28.3562 821.642 M14.479 821.642 L14.479 815.785 L21.895 815.785 L21.895 821.642 L14.479 821.642 Z" fill="#000000" fill-rule="nonzero" fill-opacity="1" /><path clip-path="url(#clip200)" d="M35.1993 775.777 Q31.2526 773.581 29.3747 770.525 Q27.4968 767.47 27.4968 763.332 Q27.4968 757.762 31.4117 754.738 Q35.2948 751.714 42.4881 751.714 L64.0042 751.714 L64.0042 757.603 L42.679 757.603 Q37.5546 757.603 35.072 759.417 Q32.5894 761.231 32.5894 764.955 Q32.5894 769.507 35.6131 772.148 Q38.6368 774.79 43.8567 774.79 L64.0042 774.79 L64.0042 780.678 L42.679 780.678 Q37.5228 780.678 35.072 782.493 Q32.5894 784.307 32.5894 788.094 Q32.5894 792.582 35.6449 795.224 Q38.6686 797.866 43.8567 797.866 L64.0042 797.866 L64.0042 803.754 L28.3562 803.754 L28.3562 797.866 L33.8944 797.866 Q30.616 795.861 29.0564 793.06 Q27.4968 790.259 27.4968 786.408 Q27.4968 782.524 29.4702 779.819 Q31.4436 777.082 35.1993 775.777 Z" fill="#000000" fill-rule="nonzero" fill-opacity="1" /><path clip-path="url(#clip200)" d="M46.0847 723.833 Q46.0847 730.93 47.7079 733.668 Q49.3312 736.405 53.2461 736.405 Q56.3653 736.405 58.2114 734.368 Q60.0256 732.299 60.0256 728.766 Q60.0256 723.896 56.5881 720.968 Q53.1188 718.008 47.3897 718.008 L46.0847 718.008 L46.0847 723.833 M43.6657 712.152 L64.0042 712.152 L64.0042 718.008 L58.5933 718.008 Q61.8398 720.013 63.3994 723.005 Q64.9272 725.997 64.9272 730.326 Q64.9272 735.8 61.8716 739.047 Q58.7843 742.261 53.6281 742.261 Q47.6125 742.261 44.5569 738.251 Q41.5014 734.209 41.5014 726.22 L41.5014 718.008 L40.9285 718.008 Q36.8862 718.008 34.6901 720.682 Q32.4621 723.323 32.4621 728.129 Q32.4621 731.185 33.1941 734.081 Q33.9262 736.978 35.3903 739.651 L29.9795 739.651 Q28.7381 736.437 28.1334 733.413 Q27.4968 730.389 27.4968 727.525 Q27.4968 719.79 31.5072 715.971 Q35.5176 712.152 43.6657 712.152 Z" fill="#000000" fill-rule="nonzero" fill-opacity="1" /><path clip-path="url(#clip200)" d="M14.479 700.089 L14.479 694.232 L64.0042 694.232 L64.0042 700.089 L14.479 700.089 Z" fill="#000000" fill-rule="nonzero" fill-opacity="1" /><path clip-path="url(#clip200)" d="M57.5111 643.784 Q59.0389 642.638 59.0389 639.201 L59.0389 636.368 L64.0042 636.368 L64.0042 639.901 Q64.0042 645.63 60.9486 648.24 Q57.8294 650.85 51.0818 650.85 L34.2127 650.85 L34.2127 664.218 L28.3562 664.218 L28.3562 631.339 L34.2127 631.339 L34.2127 644.866 L51.4319 644.866 Q56.047 644.866 57.5111 643.784 Z" fill="#000000" fill-rule="nonzero" fill-opacity="1" /><path clip-path="url(#clip200)" d="M42.4562 610.014 Q39.719 611.605 39.719 614.82 Q39.719 618.035 42.4562 619.626 Q45.1935 621.249 50.668 621.249 Q56.1743 621.249 58.9116 619.626 Q61.6488 618.035 61.6488 614.82 Q61.6488 611.605 58.9116 610.014 Q56.1743 608.391 50.668 608.391 Q45.1935 608.391 42.4562 610.014 M36.8862 614.82 Q36.8862 609.695 40.4192 606.99 Q43.9522 604.285 50.668 604.285 Q57.4157 604.285 60.9486 606.99 Q64.4816 609.695 64.4816 614.82 Q64.4816 619.976 60.9486 622.682 Q57.4157 625.387 50.668 625.387 Q43.9522 625.387 40.4192 622.682 Q36.8862 619.976 36.8862 614.82 Z" fill="#000000" fill-rule="nonzero" fill-opacity="1" /><path clip-path="url(#clip200)" d="M961.154 17.6457 Q952.242 17.6457 946.976 24.2892 Q941.75 30.9327 941.75 42.3968 Q941.75 53.8203 946.976 60.4638 Q952.242 67.1073 961.154 67.1073 Q970.066 67.1073 975.251 60.4638 Q980.476 53.8203 980.476 42.3968 Q980.476 30.9327 975.251 24.2892 Q970.066 17.6457 961.154 17.6457 M961.154 11.0023 Q973.874 11.0023 981.489 19.5497 Q989.105 28.0566 989.105 42.3968 Q989.105 56.6965 981.489 65.2439 Q973.874 73.7508 961.154 73.7508 Q948.393 73.7508 940.737 65.2439 Q933.121 56.737 933.121 42.3968 Q933.121 28.0566 940.737 19.5497 Q948.393 11.0023 961.154 11.0023 Z" fill="#000000" fill-rule="nonzero" fill-opacity="1" /><path clip-path="url(#clip200)" d="M1008.79 65.7705 L1008.79 89.8329 L1001.3 89.8329 L1001.3 27.2059 L1008.79 27.2059 L1008.79 34.0924 Q1011.14 30.0415 1014.71 28.0971 Q1018.31 26.1121 1023.29 26.1121 Q1031.56 26.1121 1036.7 32.6746 Q1041.89 39.2371 1041.89 49.9314 Q1041.89 60.6258 1036.7 67.1883 Q1031.56 73.7508 1023.29 73.7508 Q1018.31 73.7508 1014.71 71.8063 Q1011.14 69.8214 1008.79 65.7705 M1034.15 49.9314 Q1034.15 41.7081 1030.75 37.0496 Q1027.39 32.3505 1021.47 32.3505 Q1015.56 32.3505 1012.15 37.0496 Q1008.79 41.7081 1008.79 49.9314 Q1008.79 58.1548 1012.15 62.8538 Q1015.56 67.5124 1021.47 67.5124 Q1027.39 67.5124 1030.75 62.8538 Q1034.15 58.1548 1034.15 49.9314 Z" fill="#000000" fill-rule="nonzero" fill-opacity="1" /><path clip-path="url(#clip200)" d="M1061.62 14.324 L1061.62 27.2059 L1076.97 27.2059 L1076.97 32.9987 L1061.62 32.9987 L1061.62 57.6282 Q1061.62 63.1779 1063.11 64.7578 Q1064.65 66.3376 1069.31 66.3376 L1076.97 66.3376 L1076.97 72.576 L1069.31 72.576 Q1060.68 72.576 1057.4 69.3758 Q1054.12 66.1351 1054.12 57.6282 L1054.12 32.9987 L1048.65 32.9987 L1048.65 27.2059 L1054.12 27.2059 L1054.12 14.324 L1061.62 14.324 Z" fill="#000000" fill-rule="nonzero" fill-opacity="1" /><path clip-path="url(#clip200)" d="M1086.77 27.2059 L1094.23 27.2059 L1094.23 72.576 L1086.77 72.576 L1086.77 27.2059 M1086.77 9.54393 L1094.23 9.54393 L1094.23 18.9825 L1086.77 18.9825 L1086.77 9.54393 Z" fill="#000000" fill-rule="nonzero" fill-opacity="1" /><path clip-path="url(#clip200)" d="M1145.15 35.9153 Q1147.94 30.8922 1151.83 28.5022 Q1155.72 26.1121 1160.98 26.1121 Q1168.07 26.1121 1171.92 31.0947 Q1175.77 36.0368 1175.77 45.1919 L1175.77 72.576 L1168.28 72.576 L1168.28 45.4349 Q1168.28 38.913 1165.97 35.7533 Q1163.66 32.5936 1158.92 32.5936 Q1153.13 32.5936 1149.76 36.4419 Q1146.4 40.2903 1146.4 46.9338 L1146.4 72.576 L1138.91 72.576 L1138.91 45.4349 Q1138.91 38.8725 1136.6 35.7533 Q1134.29 32.5936 1129.47 32.5936 Q1123.76 32.5936 1120.39 36.4824 Q1117.03 40.3308 1117.03 46.9338 L1117.03 72.576 L1109.54 72.576 L1109.54 27.2059 L1117.03 27.2059 L1117.03 34.2544 Q1119.58 30.082 1123.15 28.0971 Q1126.71 26.1121 1131.62 26.1121 Q1136.56 26.1121 1140 28.6237 Q1143.48 31.1352 1145.15 35.9153 Z" fill="#000000" fill-rule="nonzero" fill-opacity="1" /><path clip-path="url(#clip200)" d="M1211.26 49.7694 Q1202.22 49.7694 1198.74 51.8354 Q1195.26 53.9013 1195.26 58.8839 Q1195.26 62.8538 1197.85 65.2034 Q1200.48 67.5124 1204.98 67.5124 Q1211.18 67.5124 1214.9 63.1374 Q1218.67 58.7219 1218.67 51.4303 L1218.67 49.7694 L1211.26 49.7694 M1226.12 46.6907 L1226.12 72.576 L1218.67 72.576 L1218.67 65.6895 Q1216.12 69.8214 1212.31 71.8063 Q1208.5 73.7508 1202.99 73.7508 Q1196.03 73.7508 1191.89 69.8619 Q1187.8 65.9325 1187.8 59.3701 Q1187.8 51.7138 1192.91 47.825 Q1198.05 43.9361 1208.22 43.9361 L1218.67 43.9361 L1218.67 43.2069 Q1218.67 38.0623 1215.27 35.2672 Q1211.9 32.4315 1205.79 32.4315 Q1201.9 32.4315 1198.21 33.3632 Q1194.53 34.295 1191.12 36.1584 L1191.12 29.2718 Q1195.21 27.692 1199.06 26.9223 Q1202.91 26.1121 1206.56 26.1121 Q1216.4 26.1121 1221.26 31.2163 Q1226.12 36.3204 1226.12 46.6907 Z" fill="#000000" fill-rule="nonzero" fill-opacity="1" /><path clip-path="url(#clip200)" d="M1241.48 9.54393 L1248.93 9.54393 L1248.93 72.576 L1241.48 72.576 L1241.48 9.54393 Z" fill="#000000" fill-rule="nonzero" fill-opacity="1" /><path clip-path="url(#clip200)" d="M1313.14 64.3122 Q1314.6 66.2566 1318.97 66.2566 L1322.58 66.2566 L1322.58 72.576 L1318.08 72.576 Q1310.79 72.576 1307.47 68.6871 Q1304.14 64.7172 1304.14 56.1293 L1304.14 34.6595 L1287.13 34.6595 L1287.13 27.2059 L1328.98 27.2059 L1328.98 34.6595 L1311.76 34.6595 L1311.76 56.5749 Q1311.76 62.4487 1313.14 64.3122 Z" fill="#000000" fill-rule="nonzero" fill-opacity="1" /><path clip-path="url(#clip200)" d="M1356.12 45.1514 Q1354.09 41.6676 1350 41.6676 Q1345.91 41.6676 1343.88 45.1514 Q1341.82 48.6352 1341.82 55.6027 Q1341.82 62.6108 1343.88 66.0946 Q1345.91 69.5783 1350 69.5783 Q1354.09 69.5783 1356.12 66.0946 Q1358.18 62.6108 1358.18 55.6027 Q1358.18 48.6352 1356.12 45.1514 M1350 38.0623 Q1356.52 38.0623 1359.97 42.5588 Q1363.41 47.0553 1363.41 55.6027 Q1363.41 64.1906 1359.97 68.6871 Q1356.52 73.1836 1350 73.1836 Q1343.44 73.1836 1339.99 68.6871 Q1336.55 64.1906 1336.55 55.6027 Q1336.55 47.0553 1339.99 42.5588 Q1343.44 38.0623 1350 38.0623 Z" fill="#000000" fill-rule="nonzero" fill-opacity="1" /><path clip-path="url(#clip200)" d="M1376.01 62.2867 L1384.55 62.2867 L1384.55 69.2543 L1377.91 82.2172 L1372.69 82.2172 L1376.01 69.2543 L1376.01 62.2867 Z" fill="#000000" fill-rule="nonzero" fill-opacity="1" /><path clip-path="url(#clip200)" d="M1427.17 12.096 L1438.19 12.096 L1465.01 62.6918 L1465.01 12.096 L1472.94 12.096 L1472.94 72.576 L1461.93 72.576 L1435.11 21.9802 L1435.11 72.576 L1427.17 72.576 L1427.17 12.096 Z" fill="#000000" fill-rule="nonzero" fill-opacity="1" /><path clip-path="url(#clip200)" d="M1489.88 34.9026 L1541.81 34.9026 L1541.81 41.7081 L1489.88 41.7081 L1489.88 34.9026 M1489.88 51.4303 L1541.81 51.4303 L1541.81 58.3168 L1489.88 58.3168 L1489.88 51.4303 Z" fill="#000000" fill-rule="nonzero" fill-opacity="1" /><path clip-path="url(#clip200)" d="M1566.52 65.6895 L1595.08 65.6895 L1595.08 72.576 L1556.68 72.576 L1556.68 65.6895 Q1561.34 60.8689 1569.36 52.7671 Q1577.42 44.6248 1579.48 42.2752 Q1583.41 37.8598 1584.95 34.8216 Q1586.53 31.7429 1586.53 28.7857 Q1586.53 23.9651 1583.13 20.927 Q1579.77 17.8888 1574.34 17.8888 Q1570.49 17.8888 1566.2 19.2256 Q1561.94 20.5624 1557.08 23.2765 L1557.08 15.0127 Q1562.02 13.0277 1566.32 12.015 Q1570.61 11.0023 1574.18 11.0023 Q1583.58 11.0023 1589.17 15.7013 Q1594.76 20.4004 1594.76 28.2591 Q1594.76 31.9859 1593.34 35.3482 Q1591.96 38.6699 1588.27 43.2069 Q1587.26 44.3817 1581.83 50.0125 Q1576.41 55.6027 1566.52 65.6895 Z" fill="#000000" fill-rule="nonzero" fill-opacity="1" /><polyline clip-path="url(#clip202)" style="stroke:#009af9; stroke-linecap:round; stroke-linejoin:round; stroke-width:8; stroke-opacity:1; fill:none" points="237.067,1386.4 243.914,1352.65 250.761,1320.77 257.608,1295.12 271.302,1260.68 278.149,1198.9 284.995,1231.88 291.842,1218.95 298.689,1206.8 305.536,1194.27 319.23,1174.62 326.077,1165.41 332.924,1156.55 339.771,1146.27 346.617,1139.76 353.464,1130.43 374.005,1107.87 380.852,1100.53 387.699,1093.27 394.546,1086.08 401.393,1078.95 408.239,1071.87 415.086,1064.86 421.933,1057.89 428.78,1050.96 435.627,1044.12 442.474,1037.4 449.321,1032.33 456.168,1024.26 463.015,1017.84 469.861,1011.52 476.708,881.938 483.555,999.128 490.402,993.059 497.249,992.656 504.096,987.285 510.943,975.315 517.79,969.545 531.483,958.207 545.177,956.367 552.024,941.671 558.871,936.276 572.565,925.652 579.412,932.097 593.105,910.105 599.952,918.098 606.799,913.518 613.646,908.979 620.493,904.48 627.34,900.02 634.187,895.598 641.034,875.452 647.881,886.863 654.727,882.549 661.574,878.27 668.421,874.024 682.115,865.629 688.962,861.48 695.809,838.232 702.656,853.271 716.349,845.18 730.043,816.072 736.89,833.252 743.737,829.33 750.584,803.138 757.431,798.883 777.971,810.097 784.818,806.322 805.359,795.136 819.053,787.789 825.9,784.147 832.747,780.526 839.593,776.925 846.44,773.345 887.522,752.668 949.144,724.284 955.991,721.284 962.837,718.311 983.378,709.551 990.225,706.681 1010.77,698.214 1031.31,689.951 1065.54,676.597 1079.23,671.393 1120.32,656.216 1134.01,651.294 1147.7,646.436 1154.55,644.031 1202.48,627.614 1229.87,618.543 1250.41,611.877 1264.1,607.497 1277.79,603.166 1291.49,598.882 1318.88,590.453 1353.11,580.163 1359.96,578.137 1401.04,566.19 1414.73,562.286 1435.27,556.499 1448.97,552.686 1476.35,545.166 1483.2,543.308 1490.05,541.457 1537.98,528.733 1544.82,526.947 1565.36,521.633 1585.9,516.386 1592.75,514.652 1606.45,511.205 1640.68,502.707 1661.22,497.689 1668.07,496.029 1702.3,487.827 1709.15,486.205 1722.84,482.98 1736.54,479.778 1805,464.117 1811.85,462.581 1873.47,448.997 1928.25,437.264 1969.33,428.663 1976.18,427.246 1996.72,423.019 2017.26,418.833 2024.11,417.446 2030.95,416.063 2037.8,414.685 2065.19,409.212 2072.03,407.854 2085.73,405.151 2099.42,402.463 2147.35,393.179 2181.58,386.66 2222.67,378.958 2236.36,177.548 2277.44,368.883 2284.29,367.639 2291.13,160.256 "/>
</svg>
