<?xml version="1.0" encoding="utf-8"?>
<svg xmlns="http://www.w3.org/2000/svg" xmlns:xlink="http://www.w3.org/1999/xlink" width="600" height="400" viewBox="0 0 2400 1600">
<defs>
  <clipPath id="clip400">
    <rect x="0" y="0" width="2400" height="1600"/>
  </clipPath>
</defs>
<path clip-path="url(#clip400)" d="M0 1600 L2400 1600 L2400 8.88178e-14 L0 8.88178e-14  Z" fill="#ffffff" fill-rule="evenodd" fill-opacity="1"/>
<defs>
  <clipPath id="clip401">
    <rect x="480" y="0" width="1681" height="1600"/>
  </clipPath>
</defs>
<path clip-path="url(#clip400)" d="M175.445 1423.18 L2352.76 1423.18 L2352.76 123.472 L175.445 123.472  Z" fill="#ffffff" fill-rule="evenodd" fill-opacity="1"/>
<defs>
  <clipPath id="clip402">
    <rect x="175" y="123" width="2178" height="1301"/>
  </clipPath>
</defs>
<polyline clip-path="url(#clip402)" style="stroke:#000000; stroke-linecap:round; stroke-linejoin:round; stroke-width:2; stroke-opacity:0.1; fill:none" points="237.067,1423.18 237.067,123.472 "/>
<polyline clip-path="url(#clip402)" style="stroke:#000000; stroke-linecap:round; stroke-linejoin:round; stroke-width:2; stroke-opacity:0.1; fill:none" points="921.756,1423.18 921.756,123.472 "/>
<polyline clip-path="url(#clip402)" style="stroke:#000000; stroke-linecap:round; stroke-linejoin:round; stroke-width:2; stroke-opacity:0.1; fill:none" points="1606.45,1423.18 1606.45,123.472 "/>
<polyline clip-path="url(#clip402)" style="stroke:#000000; stroke-linecap:round; stroke-linejoin:round; stroke-width:2; stroke-opacity:0.1; fill:none" points="2291.13,1423.18 2291.13,123.472 "/>
<polyline clip-path="url(#clip402)" style="stroke:#000000; stroke-linecap:round; stroke-linejoin:round; stroke-width:2; stroke-opacity:0.1; fill:none" points="175.445,1321.22 2352.76,1321.22 "/>
<polyline clip-path="url(#clip402)" style="stroke:#000000; stroke-linecap:round; stroke-linejoin:round; stroke-width:2; stroke-opacity:0.1; fill:none" points="175.445,1009.85 2352.76,1009.85 "/>
<polyline clip-path="url(#clip402)" style="stroke:#000000; stroke-linecap:round; stroke-linejoin:round; stroke-width:2; stroke-opacity:0.1; fill:none" points="175.445,698.49 2352.76,698.49 "/>
<polyline clip-path="url(#clip402)" style="stroke:#000000; stroke-linecap:round; stroke-linejoin:round; stroke-width:2; stroke-opacity:0.1; fill:none" points="175.445,387.125 2352.76,387.125 "/>
<polyline clip-path="url(#clip400)" style="stroke:#000000; stroke-linecap:round; stroke-linejoin:round; stroke-width:4; stroke-opacity:1; fill:none" points="175.445,1423.18 2352.76,1423.18 "/>
<polyline clip-path="url(#clip400)" style="stroke:#000000; stroke-linecap:round; stroke-linejoin:round; stroke-width:4; stroke-opacity:1; fill:none" points="237.067,1423.18 237.067,1404.28 "/>
<polyline clip-path="url(#clip400)" style="stroke:#000000; stroke-linecap:round; stroke-linejoin:round; stroke-width:4; stroke-opacity:1; fill:none" points="921.756,1423.18 921.756,1404.28 "/>
<polyline clip-path="url(#clip400)" style="stroke:#000000; stroke-linecap:round; stroke-linejoin:round; stroke-width:4; stroke-opacity:1; fill:none" points="1606.45,1423.18 1606.45,1404.28 "/>
<polyline clip-path="url(#clip400)" style="stroke:#000000; stroke-linecap:round; stroke-linejoin:round; stroke-width:4; stroke-opacity:1; fill:none" points="2291.13,1423.18 2291.13,1404.28 "/>
<path clip-path="url(#clip400)" d="M237.067 1454.1 Q233.456 1454.1 231.627 1457.66 Q229.822 1461.2 229.822 1468.33 Q229.822 1475.44 231.627 1479.01 Q233.456 1482.55 237.067 1482.55 Q240.701 1482.55 242.507 1479.01 Q244.336 1475.44 244.336 1468.33 Q244.336 1461.2 242.507 1457.66 Q240.701 1454.1 237.067 1454.1 M237.067 1450.39 Q242.877 1450.39 245.933 1455 Q249.012 1459.58 249.012 1468.33 Q249.012 1477.06 245.933 1481.67 Q242.877 1486.25 237.067 1486.25 Q231.257 1486.25 228.178 1481.67 Q225.123 1477.06 225.123 1468.33 Q225.123 1459.58 228.178 1455 Q231.257 1450.39 237.067 1450.39 Z" fill="#000000" fill-rule="nonzero" fill-opacity="1" /><path clip-path="url(#clip400)" d="M881.363 1481.64 L889.002 1481.64 L889.002 1455.28 L880.692 1456.95 L880.692 1452.69 L888.955 1451.02 L893.631 1451.02 L893.631 1481.64 L901.27 1481.64 L901.27 1485.58 L881.363 1485.58 L881.363 1481.64 Z" fill="#000000" fill-rule="nonzero" fill-opacity="1" /><path clip-path="url(#clip400)" d="M920.714 1454.1 Q917.103 1454.1 915.275 1457.66 Q913.469 1461.2 913.469 1468.33 Q913.469 1475.44 915.275 1479.01 Q917.103 1482.55 920.714 1482.55 Q924.349 1482.55 926.154 1479.01 Q927.983 1475.44 927.983 1468.33 Q927.983 1461.2 926.154 1457.66 Q924.349 1454.1 920.714 1454.1 M920.714 1450.39 Q926.525 1450.39 929.58 1455 Q932.659 1459.58 932.659 1468.33 Q932.659 1477.06 929.58 1481.67 Q926.525 1486.25 920.714 1486.25 Q914.904 1486.25 911.826 1481.67 Q908.77 1477.06 908.77 1468.33 Q908.77 1459.58 911.826 1455 Q914.904 1450.39 920.714 1450.39 Z" fill="#000000" fill-rule="nonzero" fill-opacity="1" /><path clip-path="url(#clip400)" d="M950.876 1454.1 Q947.265 1454.1 945.437 1457.66 Q943.631 1461.2 943.631 1468.33 Q943.631 1475.44 945.437 1479.01 Q947.265 1482.55 950.876 1482.55 Q954.511 1482.55 956.316 1479.01 Q958.145 1475.44 958.145 1468.33 Q958.145 1461.2 956.316 1457.66 Q954.511 1454.1 950.876 1454.1 M950.876 1450.39 Q956.686 1450.39 959.742 1455 Q962.821 1459.58 962.821 1468.33 Q962.821 1477.06 959.742 1481.67 Q956.686 1486.25 950.876 1486.25 Q945.066 1486.25 941.987 1481.67 Q938.932 1477.06 938.932 1468.33 Q938.932 1459.58 941.987 1455 Q945.066 1450.39 950.876 1450.39 Z" fill="#000000" fill-rule="nonzero" fill-opacity="1" /><path clip-path="url(#clip400)" d="M1570.14 1481.64 L1586.46 1481.64 L1586.46 1485.58 L1564.51 1485.58 L1564.51 1481.64 Q1567.17 1478.89 1571.76 1474.26 Q1576.36 1469.61 1577.54 1468.27 Q1579.79 1465.74 1580.67 1464.01 Q1581.57 1462.25 1581.57 1460.56 Q1581.57 1457.8 1579.63 1456.07 Q1577.71 1454.33 1574.6 1454.33 Q1572.41 1454.33 1569.95 1455.09 Q1567.52 1455.86 1564.74 1457.41 L1564.74 1452.69 Q1567.57 1451.55 1570.02 1450.97 Q1572.48 1450.39 1574.51 1450.39 Q1579.88 1450.39 1583.08 1453.08 Q1586.27 1455.77 1586.27 1460.26 Q1586.27 1462.39 1585.46 1464.31 Q1584.67 1466.2 1582.57 1468.8 Q1581.99 1469.47 1578.89 1472.69 Q1575.79 1475.88 1570.14 1481.64 Z" fill="#000000" fill-rule="nonzero" fill-opacity="1" /><path clip-path="url(#clip400)" d="M1606.27 1454.1 Q1602.66 1454.1 1600.83 1457.66 Q1599.03 1461.2 1599.03 1468.33 Q1599.03 1475.44 1600.83 1479.01 Q1602.66 1482.55 1606.27 1482.55 Q1609.91 1482.55 1611.71 1479.01 Q1613.54 1475.44 1613.54 1468.33 Q1613.54 1461.2 1611.71 1457.66 Q1609.91 1454.1 1606.27 1454.1 M1606.27 1450.39 Q1612.08 1450.39 1615.14 1455 Q1618.22 1459.58 1618.22 1468.33 Q1618.22 1477.06 1615.14 1481.67 Q1612.08 1486.25 1606.27 1486.25 Q1600.46 1486.25 1597.38 1481.67 Q1594.33 1477.06 1594.33 1468.33 Q1594.33 1459.58 1597.38 1455 Q1600.46 1450.39 1606.27 1450.39 Z" fill="#000000" fill-rule="nonzero" fill-opacity="1" /><path clip-path="url(#clip400)" d="M1636.43 1454.1 Q1632.82 1454.1 1630.99 1457.66 Q1629.19 1461.2 1629.19 1468.33 Q1629.19 1475.44 1630.99 1479.01 Q1632.82 1482.55 1636.43 1482.55 Q1640.07 1482.55 1641.87 1479.01 Q1643.7 1475.44 1643.7 1468.33 Q1643.7 1461.2 1641.87 1457.66 Q1640.07 1454.1 1636.43 1454.1 M1636.43 1450.39 Q1642.24 1450.39 1645.3 1455 Q1648.38 1459.58 1648.38 1468.33 Q1648.38 1477.06 1645.3 1481.67 Q1642.24 1486.25 1636.43 1486.25 Q1630.62 1486.25 1627.54 1481.67 Q1624.49 1477.06 1624.49 1468.33 Q1624.49 1459.58 1627.54 1455 Q1630.62 1450.39 1636.43 1450.39 Z" fill="#000000" fill-rule="nonzero" fill-opacity="1" /><path clip-path="url(#clip400)" d="M2264.9 1466.95 Q2268.25 1467.66 2270.13 1469.93 Q2272.03 1472.2 2272.03 1475.53 Q2272.03 1480.65 2268.51 1483.45 Q2264.99 1486.25 2258.51 1486.25 Q2256.33 1486.25 2254.02 1485.81 Q2251.72 1485.39 2249.27 1484.54 L2249.27 1480.02 Q2251.22 1481.16 2253.53 1481.74 Q2255.84 1482.32 2258.37 1482.32 Q2262.77 1482.32 2265.06 1480.58 Q2267.37 1478.84 2267.37 1475.53 Q2267.37 1472.48 2265.22 1470.77 Q2263.09 1469.03 2259.27 1469.03 L2255.24 1469.03 L2255.24 1465.19 L2259.46 1465.19 Q2262.9 1465.19 2264.73 1463.82 Q2266.56 1462.43 2266.56 1459.84 Q2266.56 1457.18 2264.66 1455.77 Q2262.79 1454.33 2259.27 1454.33 Q2257.35 1454.33 2255.15 1454.75 Q2252.95 1455.16 2250.31 1456.04 L2250.31 1451.88 Q2252.97 1451.14 2255.29 1450.77 Q2257.63 1450.39 2259.69 1450.39 Q2265.01 1450.39 2268.11 1452.83 Q2271.22 1455.23 2271.22 1459.35 Q2271.22 1462.22 2269.57 1464.21 Q2267.93 1466.18 2264.9 1466.95 Z" fill="#000000" fill-rule="nonzero" fill-opacity="1" /><path clip-path="url(#clip400)" d="M2290.89 1454.1 Q2287.28 1454.1 2285.45 1457.66 Q2283.65 1461.2 2283.65 1468.33 Q2283.65 1475.44 2285.45 1479.01 Q2287.28 1482.55 2290.89 1482.55 Q2294.53 1482.55 2296.33 1479.01 Q2298.16 1475.44 2298.16 1468.33 Q2298.16 1461.2 2296.33 1457.66 Q2294.53 1454.1 2290.89 1454.1 M2290.89 1450.39 Q2296.7 1450.39 2299.76 1455 Q2302.84 1459.58 2302.84 1468.33 Q2302.84 1477.06 2299.76 1481.67 Q2296.7 1486.25 2290.89 1486.25 Q2285.08 1486.25 2282 1481.67 Q2278.95 1477.06 2278.95 1468.33 Q2278.95 1459.58 2282 1455 Q2285.08 1450.39 2290.89 1450.39 Z" fill="#000000" fill-rule="nonzero" fill-opacity="1" /><path clip-path="url(#clip400)" d="M2321.05 1454.1 Q2317.44 1454.1 2315.61 1457.66 Q2313.81 1461.2 2313.81 1468.33 Q2313.81 1475.44 2315.61 1479.01 Q2317.44 1482.55 2321.05 1482.55 Q2324.69 1482.55 2326.49 1479.01 Q2328.32 1475.44 2328.32 1468.33 Q2328.32 1461.2 2326.49 1457.66 Q2324.69 1454.1 2321.05 1454.1 M2321.05 1450.39 Q2326.86 1450.39 2329.92 1455 Q2333 1459.58 2333 1468.33 Q2333 1477.06 2329.92 1481.67 Q2326.86 1486.25 2321.05 1486.25 Q2315.24 1486.25 2312.16 1481.67 Q2309.11 1477.06 2309.11 1468.33 Q2309.11 1459.58 2312.16 1455 Q2315.24 1450.39 2321.05 1450.39 Z" fill="#000000" fill-rule="nonzero" fill-opacity="1" /><path clip-path="url(#clip400)" d="M1264.99 1524.09 L1281.45 1568.04 L1275.24 1568.04 L1265.25 1541.69 L1252.96 1568.04 L1246.75 1568.04 L1262.38 1533.86 L1260.03 1527.56 Q1258.53 1523.55 1255.12 1523.55 L1252.07 1523.55 L1252.07 1518.52 L1255.79 1518.58 Q1262.99 1518.68 1264.99 1524.09 Z" fill="#000000" fill-rule="nonzero" fill-opacity="1" /><polyline clip-path="url(#clip400)" style="stroke:#000000; stroke-linecap:round; stroke-linejoin:round; stroke-width:4; stroke-opacity:1; fill:none" points="175.445,1423.18 175.445,123.472 "/>
<polyline clip-path="url(#clip400)" style="stroke:#000000; stroke-linecap:round; stroke-linejoin:round; stroke-width:4; stroke-opacity:1; fill:none" points="175.445,1321.22 194.343,1321.22 "/>
<polyline clip-path="url(#clip400)" style="stroke:#000000; stroke-linecap:round; stroke-linejoin:round; stroke-width:4; stroke-opacity:1; fill:none" points="175.445,1009.85 194.343,1009.85 "/>
<polyline clip-path="url(#clip400)" style="stroke:#000000; stroke-linecap:round; stroke-linejoin:round; stroke-width:4; stroke-opacity:1; fill:none" points="175.445,698.49 194.343,698.49 "/>
<polyline clip-path="url(#clip400)" style="stroke:#000000; stroke-linecap:round; stroke-linejoin:round; stroke-width:4; stroke-opacity:1; fill:none" points="175.445,387.125 194.343,387.125 "/>
<path clip-path="url(#clip400)" d="M123.126 1334.56 L139.445 1334.56 L139.445 1338.5 L117.501 1338.5 L117.501 1334.56 Q120.163 1331.81 124.746 1327.18 Q129.353 1322.53 130.533 1321.18 Q132.779 1318.66 133.658 1316.93 Q134.561 1315.17 134.561 1313.48 Q134.561 1310.72 132.617 1308.99 Q130.695 1307.25 127.593 1307.25 Q125.394 1307.25 122.941 1308.01 Q120.51 1308.78 117.732 1310.33 L117.732 1305.61 Q120.556 1304.47 123.01 1303.89 Q125.464 1303.31 127.501 1303.31 Q132.871 1303.31 136.066 1306 Q139.26 1308.68 139.26 1313.18 Q139.26 1315.3 138.45 1317.23 Q137.663 1319.12 135.556 1321.72 Q134.978 1322.39 131.876 1325.61 Q128.774 1328.8 123.126 1334.56 Z" fill="#000000" fill-rule="nonzero" fill-opacity="1" /><path clip-path="url(#clip400)" d="M129.862 996.648 L118.056 1015.1 L129.862 1015.1 L129.862 996.648 M128.635 992.574 L134.515 992.574 L134.515 1015.1 L139.445 1015.1 L139.445 1018.99 L134.515 1018.99 L134.515 1027.13 L129.862 1027.13 L129.862 1018.99 L114.26 1018.99 L114.26 1014.47 L128.635 992.574 Z" fill="#000000" fill-rule="nonzero" fill-opacity="1" /><path clip-path="url(#clip400)" d="M127.917 696.626 Q124.769 696.626 122.918 698.779 Q121.089 700.932 121.089 704.682 Q121.089 708.409 122.918 710.585 Q124.769 712.737 127.917 712.737 Q131.066 712.737 132.894 710.585 Q134.746 708.409 134.746 704.682 Q134.746 700.932 132.894 698.779 Q131.066 696.626 127.917 696.626 M137.2 681.974 L137.2 686.233 Q135.441 685.399 133.635 684.96 Q131.853 684.52 130.093 684.52 Q125.464 684.52 123.01 687.645 Q120.58 690.77 120.232 697.089 Q121.598 695.075 123.658 694.011 Q125.718 692.923 128.195 692.923 Q133.404 692.923 136.413 696.094 Q139.445 699.242 139.445 704.682 Q139.445 710.006 136.297 713.223 Q133.149 716.441 127.917 716.441 Q121.922 716.441 118.751 711.858 Q115.58 707.251 115.58 698.524 Q115.58 690.33 119.468 685.469 Q123.357 680.585 129.908 680.585 Q131.667 680.585 133.45 680.932 Q135.255 681.279 137.2 681.974 Z" fill="#000000" fill-rule="nonzero" fill-opacity="1" /><path clip-path="url(#clip400)" d="M127.593 387.993 Q124.26 387.993 122.339 389.775 Q120.441 391.558 120.441 394.683 Q120.441 397.808 122.339 399.59 Q124.26 401.373 127.593 401.373 Q130.927 401.373 132.848 399.59 Q134.769 397.785 134.769 394.683 Q134.769 391.558 132.848 389.775 Q130.95 387.993 127.593 387.993 M122.918 386.002 Q119.908 385.262 118.218 383.201 Q116.552 381.141 116.552 378.178 Q116.552 374.035 119.492 371.627 Q122.455 369.22 127.593 369.22 Q132.755 369.22 135.695 371.627 Q138.635 374.035 138.635 378.178 Q138.635 381.141 136.945 383.201 Q135.279 385.262 132.292 386.002 Q135.672 386.789 137.547 389.081 Q139.445 391.373 139.445 394.683 Q139.445 399.706 136.367 402.391 Q133.311 405.076 127.593 405.076 Q121.876 405.076 118.797 402.391 Q115.742 399.706 115.742 394.683 Q115.742 391.373 117.64 389.081 Q119.538 386.789 122.918 386.002 M121.205 378.618 Q121.205 381.303 122.871 382.808 Q124.561 384.313 127.593 384.313 Q130.603 384.313 132.292 382.808 Q134.005 381.303 134.005 378.618 Q134.005 375.933 132.292 374.428 Q130.603 372.924 127.593 372.924 Q124.561 372.924 122.871 374.428 Q121.205 375.933 121.205 378.618 Z" fill="#000000" fill-rule="nonzero" fill-opacity="1" /><path clip-path="url(#clip400)" d="M16.4842 1061.85 L16.4842 1055.39 L45.3526 1055.39 Q52.9915 1055.39 56.3653 1052.62 Q59.7073 1049.85 59.7073 1043.65 Q59.7073 1037.47 56.3653 1034.7 Q52.9915 1031.93 45.3526 1031.93 L16.4842 1031.93 L16.4842 1025.47 L46.1484 1025.47 Q55.4423 1025.47 60.1847 1030.09 Q64.9272 1034.67 64.9272 1043.65 Q64.9272 1052.65 60.1847 1057.27 Q55.4423 1061.85 46.1484 1061.85 L16.4842 1061.85 Z" fill="#000000" fill-rule="nonzero" fill-opacity="1" /><path clip-path="url(#clip400)" d="M58.657 1008 L77.5631 1008 L77.5631 1013.89 L28.3562 1013.89 L28.3562 1008 L33.7671 1008 Q30.5842 1006.15 29.0564 1003.35 Q27.4968 1000.52 27.4968 996.603 Q27.4968 990.11 32.6531 986.068 Q37.8093 981.994 46.212 981.994 Q54.6147 981.994 59.771 986.068 Q64.9272 990.11 64.9272 996.603 Q64.9272 1000.52 63.3994 1003.35 Q61.8398 1006.15 58.657 1008 M46.212 988.073 Q39.7508 988.073 36.0905 990.747 Q32.3984 993.388 32.3984 998.035 Q32.3984 1002.68 36.0905 1005.36 Q39.7508 1008 46.212 1008 Q52.6732 1008 56.3653 1005.36 Q60.0256 1002.68 60.0256 998.035 Q60.0256 993.388 56.3653 990.747 Q52.6732 988.073 46.212 988.073 Z" fill="#000000" fill-rule="nonzero" fill-opacity="1" /><path clip-path="url(#clip400)" d="M58.657 966.621 L77.5631 966.621 L77.5631 972.509 L28.3562 972.509 L28.3562 966.621 L33.7671 966.621 Q30.5842 964.775 29.0564 961.974 Q27.4968 959.141 27.4968 955.226 Q27.4968 948.733 32.6531 944.691 Q37.8093 940.617 46.212 940.617 Q54.6147 940.617 59.771 944.691 Q64.9272 948.733 64.9272 955.226 Q64.9272 959.141 63.3994 961.974 Q61.8398 964.775 58.657 966.621 M46.212 946.696 Q39.7508 946.696 36.0905 949.37 Q32.3984 952.011 32.3984 956.658 Q32.3984 961.305 36.0905 963.979 Q39.7508 966.621 46.212 966.621 Q52.6732 966.621 56.3653 963.979 Q60.0256 961.305 60.0256 956.658 Q60.0256 952.011 56.3653 949.37 Q52.6732 946.696 46.212 946.696 Z" fill="#000000" fill-rule="nonzero" fill-opacity="1" /><path clip-path="url(#clip400)" d="M44.7161 900.417 L47.5806 900.417 L47.5806 927.344 Q53.6281 926.962 56.8109 923.716 Q59.9619 920.437 59.9619 914.613 Q59.9619 911.239 59.1344 908.088 Q58.3069 904.905 56.6518 901.786 L62.1899 901.786 Q63.5267 904.937 64.227 908.247 Q64.9272 911.557 64.9272 914.963 Q64.9272 923.493 59.9619 928.49 Q54.9967 933.455 46.5303 933.455 Q37.7774 933.455 32.6531 928.745 Q27.4968 924.002 27.4968 915.981 Q27.4968 908.788 32.1438 904.619 Q36.7589 900.417 44.7161 900.417 M42.9973 906.274 Q38.1912 906.337 35.3266 908.979 Q32.4621 911.589 32.4621 915.918 Q32.4621 920.819 35.2312 923.779 Q38.0002 926.708 43.0292 927.153 L42.9973 906.274 Z" fill="#000000" fill-rule="nonzero" fill-opacity="1" /><path clip-path="url(#clip400)" d="M33.8307 870.148 Q33.2578 871.135 33.0032 872.313 Q32.7167 873.459 32.7167 874.859 Q32.7167 879.824 35.9632 882.498 Q39.1779 885.14 45.2253 885.14 L64.0042 885.14 L64.0042 891.028 L28.3562 891.028 L28.3562 885.14 L33.8944 885.14 Q30.6479 883.294 29.0883 880.334 Q27.4968 877.373 27.4968 873.14 Q27.4968 872.536 27.5923 871.803 Q27.656 871.071 27.8151 870.18 L33.8307 870.148 Z" fill="#000000" fill-rule="nonzero" fill-opacity="1" /><path clip-path="url(#clip400)" d="M41.3104 836.601 L58.7206 836.601 L58.7206 826.289 Q58.7206 821.101 56.5881 818.618 Q54.4238 816.104 49.9996 816.104 Q45.5436 816.104 43.4429 818.618 Q41.3104 821.101 41.3104 826.289 L41.3104 836.601 M21.7677 836.601 L36.0905 836.601 L36.0905 827.084 Q36.0905 822.374 34.34 820.082 Q32.5576 817.759 28.9291 817.759 Q25.3325 817.759 23.5501 820.082 Q21.7677 822.374 21.7677 827.084 L21.7677 836.601 M16.4842 843.03 L16.4842 826.607 Q16.4842 819.255 19.5397 815.276 Q22.5952 811.297 28.2289 811.297 Q32.5894 811.297 35.1675 813.334 Q37.7456 815.371 38.3822 819.318 Q39.4007 814.576 42.6472 811.966 Q45.8619 809.324 50.6998 809.324 Q57.0655 809.324 60.5348 813.653 Q64.0042 817.981 64.0042 825.97 L64.0042 843.03 L16.4842 843.03 Z" fill="#000000" fill-rule="nonzero" fill-opacity="1" /><path clip-path="url(#clip400)" d="M32.4621 784.752 Q32.4621 789.463 36.1542 792.2 Q39.8145 794.938 46.212 794.938 Q52.6095 794.938 56.3017 792.232 Q59.9619 789.495 59.9619 784.752 Q59.9619 780.074 56.2698 777.336 Q52.5777 774.599 46.212 774.599 Q39.8781 774.599 36.186 777.336 Q32.4621 780.074 32.4621 784.752 M27.4968 784.752 Q27.4968 777.114 32.4621 772.753 Q37.4273 768.393 46.212 768.393 Q54.9649 768.393 59.9619 772.753 Q64.9272 777.114 64.9272 784.752 Q64.9272 792.423 59.9619 796.784 Q54.9649 801.112 46.212 801.112 Q37.4273 801.112 32.4621 796.784 Q27.4968 792.423 27.4968 784.752 Z" fill="#000000" fill-rule="nonzero" fill-opacity="1" /><path clip-path="url(#clip400)" d="M49.9359 759.29 L28.3562 759.29 L28.3562 753.433 L49.7131 753.433 Q54.7739 753.433 57.3202 751.46 Q59.8346 749.486 59.8346 745.54 Q59.8346 740.797 56.8109 738.06 Q53.7872 735.291 48.5673 735.291 L28.3562 735.291 L28.3562 729.434 L64.0042 729.434 L64.0042 735.291 L58.5296 735.291 Q61.7762 737.423 63.3676 740.256 Q64.9272 743.057 64.9272 746.781 Q64.9272 752.924 61.1078 756.107 Q57.2883 759.29 49.9359 759.29 M27.4968 744.553 L27.4968 744.553 Z" fill="#000000" fill-rule="nonzero" fill-opacity="1" /><path clip-path="url(#clip400)" d="M42.4881 687.739 L64.0042 687.739 L64.0042 693.596 L42.679 693.596 Q37.6183 693.596 35.1038 695.569 Q32.5894 697.542 32.5894 701.489 Q32.5894 706.231 35.6131 708.969 Q38.6368 711.706 43.8567 711.706 L64.0042 711.706 L64.0042 717.594 L28.3562 717.594 L28.3562 711.706 L33.8944 711.706 Q30.6797 709.605 29.0883 706.773 Q27.4968 703.908 27.4968 700.184 Q27.4968 694.041 31.3163 690.89 Q35.1038 687.739 42.4881 687.739 Z" fill="#000000" fill-rule="nonzero" fill-opacity="1" /><path clip-path="url(#clip400)" d="M33.7671 652.6 L14.479 652.6 L14.479 646.744 L64.0042 646.744 L64.0042 652.6 L58.657 652.6 Q61.8398 654.446 63.3994 657.279 Q64.9272 660.08 64.9272 664.027 Q64.9272 670.488 59.771 674.562 Q54.6147 678.604 46.212 678.604 Q37.8093 678.604 32.6531 674.562 Q27.4968 670.488 27.4968 664.027 Q27.4968 660.08 29.0564 657.279 Q30.5842 654.446 33.7671 652.6 M46.212 672.557 Q52.6732 672.557 56.3653 669.915 Q60.0256 667.241 60.0256 662.595 Q60.0256 657.948 56.3653 655.274 Q52.6732 652.6 46.212 652.6 Q39.7508 652.6 36.0905 655.274 Q32.3984 657.948 32.3984 662.595 Q32.3984 667.241 36.0905 669.915 Q39.7508 672.557 46.212 672.557 Z" fill="#000000" fill-rule="nonzero" fill-opacity="1" /><path clip-path="url(#clip400)" d="M32.4621 600.147 Q32.4621 604.858 36.1542 607.595 Q39.8145 610.332 46.212 610.332 Q52.6095 610.332 56.3017 607.627 Q59.9619 604.889 59.9619 600.147 Q59.9619 595.468 56.2698 592.731 Q52.5777 589.994 46.212 589.994 Q39.8781 589.994 36.186 592.731 Q32.4621 595.468 32.4621 600.147 M27.4968 600.147 Q27.4968 592.508 32.4621 588.148 Q37.4273 583.787 46.212 583.787 Q54.9649 583.787 59.9619 588.148 Q64.9272 592.508 64.9272 600.147 Q64.9272 607.818 59.9619 612.178 Q54.9649 616.507 46.212 616.507 Q37.4273 616.507 32.4621 612.178 Q27.4968 607.818 27.4968 600.147 Z" fill="#000000" fill-rule="nonzero" fill-opacity="1" /><path clip-path="url(#clip400)" d="M42.4881 544.447 L64.0042 544.447 L64.0042 550.303 L42.679 550.303 Q37.6183 550.303 35.1038 552.277 Q32.5894 554.25 32.5894 558.197 Q32.5894 562.939 35.6131 565.677 Q38.6368 568.414 43.8567 568.414 L64.0042 568.414 L64.0042 574.302 L28.3562 574.302 L28.3562 568.414 L33.8944 568.414 Q30.6797 566.313 29.0883 563.48 Q27.4968 560.616 27.4968 556.892 Q27.4968 550.749 31.3163 547.598 Q35.1038 544.447 42.4881 544.447 Z" fill="#000000" fill-rule="nonzero" fill-opacity="1" /><path clip-path="url(#clip400)" d="M57.5111 494.572 Q59.0389 493.426 59.0389 489.988 L59.0389 487.156 L64.0042 487.156 L64.0042 490.689 Q64.0042 496.418 60.9486 499.028 Q57.8294 501.638 51.0818 501.638 L34.2127 501.638 L34.2127 515.006 L28.3562 515.006 L28.3562 482.127 L34.2127 482.127 L34.2127 495.654 L51.4319 495.654 Q56.047 495.654 57.5111 494.572 Z" fill="#000000" fill-rule="nonzero" fill-opacity="1" /><path clip-path="url(#clip400)" d="M20.3991 495.431 L18.6485 497.245 Q18.0119 497.946 17.7255 498.455 Q17.4072 498.996 17.4072 499.41 Q17.4072 500.619 18.5848 501.192 Q19.7307 501.765 22.3406 501.829 L22.3406 505.807 Q18.0438 505.744 15.7203 504.12 Q13.365 502.497 13.365 499.601 Q13.365 498.391 13.8106 497.373 Q14.2562 496.354 15.3065 495.176 L17.0571 493.362 Q17.6936 492.662 18.0119 492.121 Q18.2984 491.612 18.2984 491.198 Q18.2984 489.988 17.1526 489.415 Q15.9749 488.843 13.365 488.779 L13.365 484.8 Q17.6618 484.864 20.0171 486.487 Q22.3406 488.11 22.3406 491.007 Q22.3406 492.216 21.895 493.235 Q21.4494 494.253 20.3991 495.431 Z" fill="#000000" fill-rule="nonzero" fill-opacity="1" /><path clip-path="url(#clip400)" d="M765.576 12.096 L773.799 12.096 L773.799 48.8377 Q773.799 58.5599 777.324 62.8538 Q780.848 67.1073 788.747 67.1073 Q796.606 67.1073 800.13 62.8538 Q803.655 58.5599 803.655 48.8377 L803.655 12.096 L811.878 12.096 L811.878 49.8504 Q811.878 61.6791 806.004 67.7149 Q800.171 73.7508 788.747 73.7508 Q777.283 73.7508 771.409 67.7149 Q765.576 61.6791 765.576 49.8504 L765.576 12.096 Z" fill="#000000" fill-rule="nonzero" fill-opacity="1" /><path clip-path="url(#clip400)" d="M834.117 65.7705 L834.117 89.8329 L826.623 89.8329 L826.623 27.2059 L834.117 27.2059 L834.117 34.0924 Q836.467 30.0415 840.032 28.0971 Q843.637 26.1121 848.62 26.1121 Q856.883 26.1121 862.028 32.6746 Q867.213 39.2371 867.213 49.9314 Q867.213 60.6258 862.028 67.1883 Q856.883 73.7508 848.62 73.7508 Q843.637 73.7508 840.032 71.8063 Q836.467 69.8214 834.117 65.7705 M859.476 49.9314 Q859.476 41.7081 856.073 37.0496 Q852.711 32.3505 846.797 32.3505 Q840.882 32.3505 837.48 37.0496 Q834.117 41.7081 834.117 49.9314 Q834.117 58.1548 837.48 62.8538 Q840.882 67.5124 846.797 67.5124 Q852.711 67.5124 856.073 62.8538 Q859.476 58.1548 859.476 49.9314 Z" fill="#000000" fill-rule="nonzero" fill-opacity="1" /><path clip-path="url(#clip400)" d="M886.779 65.7705 L886.779 89.8329 L879.285 89.8329 L879.285 27.2059 L886.779 27.2059 L886.779 34.0924 Q889.129 30.0415 892.693 28.0971 Q896.299 26.1121 901.281 26.1121 Q909.545 26.1121 914.69 32.6746 Q919.875 39.2371 919.875 49.9314 Q919.875 60.6258 914.69 67.1883 Q909.545 73.7508 901.281 73.7508 Q896.299 73.7508 892.693 71.8063 Q889.129 69.8214 886.779 65.7705 M912.138 49.9314 Q912.138 41.7081 908.735 37.0496 Q905.373 32.3505 899.458 32.3505 Q893.544 32.3505 890.141 37.0496 Q886.779 41.7081 886.779 49.9314 Q886.779 58.1548 890.141 62.8538 Q893.544 67.5124 899.458 67.5124 Q905.373 67.5124 908.735 62.8538 Q912.138 58.1548 912.138 49.9314 Z" fill="#000000" fill-rule="nonzero" fill-opacity="1" /><path clip-path="url(#clip400)" d="M971.038 48.0275 L971.038 51.6733 L936.767 51.6733 Q937.253 59.3701 941.385 63.421 Q945.558 67.4314 952.971 67.4314 Q957.265 67.4314 961.275 66.3781 Q965.326 65.3249 969.296 63.2184 L969.296 70.267 Q965.286 71.9684 961.073 72.8596 Q956.86 73.7508 952.525 73.7508 Q941.669 73.7508 935.309 67.4314 Q928.99 61.1119 928.99 50.3365 Q928.99 39.1965 934.985 32.6746 Q941.021 26.1121 951.229 26.1121 Q960.384 26.1121 965.691 32.0264 Q971.038 37.9003 971.038 48.0275 M963.584 45.84 Q963.503 39.7232 960.141 36.0774 Q956.819 32.4315 951.31 32.4315 Q945.072 32.4315 941.304 35.9558 Q937.577 39.4801 937.01 45.8805 L963.584 45.84 Z" fill="#000000" fill-rule="nonzero" fill-opacity="1" /><path clip-path="url(#clip400)" d="M1009.56 34.1734 Q1008.31 33.4443 1006.81 33.1202 Q1005.35 32.7556 1003.57 32.7556 Q997.247 32.7556 993.844 36.8875 Q990.482 40.9789 990.482 48.6757 L990.482 72.576 L982.988 72.576 L982.988 27.2059 L990.482 27.2059 L990.482 34.2544 Q992.832 30.1225 996.599 28.1376 Q1000.37 26.1121 1005.75 26.1121 Q1006.52 26.1121 1007.46 26.2337 Q1008.39 26.3147 1009.52 26.5172 L1009.56 34.1734 Z" fill="#000000" fill-rule="nonzero" fill-opacity="1" /><path clip-path="url(#clip400)" d="M1052.26 43.6931 L1052.26 65.8515 L1065.38 65.8515 Q1071.99 65.8515 1075.15 63.1374 Q1078.35 60.3828 1078.35 54.752 Q1078.35 49.0808 1075.15 46.4072 Q1071.99 43.6931 1065.38 43.6931 L1052.26 43.6931 M1052.26 18.8205 L1052.26 37.0496 L1064.37 37.0496 Q1070.37 37.0496 1073.28 34.8216 Q1076.24 32.5531 1076.24 27.935 Q1076.24 23.3575 1073.28 21.089 Q1070.37 18.8205 1064.37 18.8205 L1052.26 18.8205 M1044.08 12.096 L1064.98 12.096 Q1074.34 12.096 1079.4 15.9849 Q1084.46 19.8737 1084.46 27.0438 Q1084.46 32.5936 1081.87 35.8748 Q1079.28 39.156 1074.25 39.9662 Q1080.29 41.2625 1083.61 45.3944 Q1086.97 49.4858 1086.97 55.6432 Q1086.97 63.745 1081.47 68.1605 Q1075.96 72.576 1065.79 72.576 L1044.08 72.576 L1044.08 12.096 Z" fill="#000000" fill-rule="nonzero" fill-opacity="1" /><path clip-path="url(#clip400)" d="M1118.25 32.4315 Q1112.25 32.4315 1108.77 37.1306 Q1105.28 41.7891 1105.28 49.9314 Q1105.28 58.0738 1108.73 62.7728 Q1112.21 67.4314 1118.25 67.4314 Q1124.2 67.4314 1127.69 62.7323 Q1131.17 58.0333 1131.17 49.9314 Q1131.17 41.8701 1127.69 37.1711 Q1124.2 32.4315 1118.25 32.4315 M1118.25 26.1121 Q1127.97 26.1121 1133.52 32.4315 Q1139.07 38.7509 1139.07 49.9314 Q1139.07 61.0714 1133.52 67.4314 Q1127.97 73.7508 1118.25 73.7508 Q1108.49 73.7508 1102.94 67.4314 Q1097.43 61.0714 1097.43 49.9314 Q1097.43 38.7509 1102.94 32.4315 Q1108.49 26.1121 1118.25 26.1121 Z" fill="#000000" fill-rule="nonzero" fill-opacity="1" /><path clip-path="url(#clip400)" d="M1150.65 54.671 L1150.65 27.2059 L1158.11 27.2059 L1158.11 54.3874 Q1158.11 60.8284 1160.62 64.0691 Q1163.13 67.2693 1168.15 67.2693 Q1174.19 67.2693 1177.67 63.421 Q1181.2 59.5726 1181.2 52.9291 L1181.2 27.2059 L1188.65 27.2059 L1188.65 72.576 L1181.2 72.576 L1181.2 65.6084 Q1178.48 69.7404 1174.88 71.7658 Q1171.31 73.7508 1166.58 73.7508 Q1158.76 73.7508 1154.71 68.8897 Q1150.65 64.0286 1150.65 54.671 M1169.41 26.1121 L1169.41 26.1121 Z" fill="#000000" fill-rule="nonzero" fill-opacity="1" /><path clip-path="url(#clip400)" d="M1241.72 45.1919 L1241.72 72.576 L1234.27 72.576 L1234.27 45.4349 Q1234.27 38.994 1231.75 35.7938 Q1229.24 32.5936 1224.22 32.5936 Q1218.18 32.5936 1214.7 36.4419 Q1211.22 40.2903 1211.22 46.9338 L1211.22 72.576 L1203.72 72.576 L1203.72 27.2059 L1211.22 27.2059 L1211.22 34.2544 Q1213.89 30.163 1217.49 28.1376 Q1221.14 26.1121 1225.88 26.1121 Q1233.7 26.1121 1237.71 30.9732 Q1241.72 35.7938 1241.72 45.1919 Z" fill="#000000" fill-rule="nonzero" fill-opacity="1" /><path clip-path="url(#clip400)" d="M1286.44 34.0924 L1286.44 9.54393 L1293.89 9.54393 L1293.89 72.576 L1286.44 72.576 L1286.44 65.7705 Q1284.09 69.8214 1280.49 71.8063 Q1276.92 73.7508 1271.9 73.7508 Q1263.68 73.7508 1258.49 67.1883 Q1253.35 60.6258 1253.35 49.9314 Q1253.35 39.2371 1258.49 32.6746 Q1263.68 26.1121 1271.9 26.1121 Q1276.92 26.1121 1280.49 28.0971 Q1284.09 30.0415 1286.44 34.0924 M1261.04 49.9314 Q1261.04 58.1548 1264.4 62.8538 Q1267.81 67.5124 1273.72 67.5124 Q1279.64 67.5124 1283.04 62.8538 Q1286.44 58.1548 1286.44 49.9314 Q1286.44 41.7081 1283.04 37.0496 Q1279.64 32.3505 1273.72 32.3505 Q1267.81 32.3505 1264.4 37.0496 Q1261.04 41.7081 1261.04 49.9314 Z" fill="#000000" fill-rule="nonzero" fill-opacity="1" /><path clip-path="url(#clip400)" d="M1353.2 32.4315 Q1347.2 32.4315 1343.72 37.1306 Q1340.24 41.7891 1340.24 49.9314 Q1340.24 58.0738 1343.68 62.7728 Q1347.16 67.4314 1353.2 67.4314 Q1359.16 67.4314 1362.64 62.7323 Q1366.12 58.0333 1366.12 49.9314 Q1366.12 41.8701 1362.64 37.1711 Q1359.16 32.4315 1353.2 32.4315 M1353.2 26.1121 Q1362.92 26.1121 1368.47 32.4315 Q1374.02 38.7509 1374.02 49.9314 Q1374.02 61.0714 1368.47 67.4314 Q1362.92 73.7508 1353.2 73.7508 Q1343.44 73.7508 1337.89 67.4314 Q1332.38 61.0714 1332.38 49.9314 Q1332.38 38.7509 1337.89 32.4315 Q1343.44 26.1121 1353.2 26.1121 Z" fill="#000000" fill-rule="nonzero" fill-opacity="1" /><path clip-path="url(#clip400)" d="M1424.09 45.1919 L1424.09 72.576 L1416.64 72.576 L1416.64 45.4349 Q1416.64 38.994 1414.13 35.7938 Q1411.61 32.5936 1406.59 32.5936 Q1400.56 32.5936 1397.07 36.4419 Q1393.59 40.2903 1393.59 46.9338 L1393.59 72.576 L1386.09 72.576 L1386.09 27.2059 L1393.59 27.2059 L1393.59 34.2544 Q1396.26 30.163 1399.87 28.1376 Q1403.51 26.1121 1408.25 26.1121 Q1416.07 26.1121 1420.08 30.9732 Q1424.09 35.7938 1424.09 45.1919 Z" fill="#000000" fill-rule="nonzero" fill-opacity="1" /><path clip-path="url(#clip400)" d="M1487.57 64.3122 Q1489.03 66.2566 1493.4 66.2566 L1497.01 66.2566 L1497.01 72.576 L1492.51 72.576 Q1485.22 72.576 1481.9 68.6871 Q1478.58 64.7172 1478.58 56.1293 L1478.58 34.6595 L1461.56 34.6595 L1461.56 27.2059 L1503.41 27.2059 L1503.41 34.6595 L1486.19 34.6595 L1486.19 56.5749 Q1486.19 62.4487 1487.57 64.3122 Z" fill="#000000" fill-rule="nonzero" fill-opacity="1" /><path clip-path="url(#clip400)" d="M1486.47 17.0786 L1484.17 14.8506 Q1483.27 14.0404 1482.63 13.6759 Q1481.94 13.2708 1481.41 13.2708 Q1479.87 13.2708 1479.14 14.7696 Q1478.41 16.2279 1478.33 19.5497 L1473.27 19.5497 Q1473.35 14.0809 1475.42 11.1238 Q1477.48 8.12611 1481.17 8.12611 Q1482.71 8.12611 1484 8.69324 Q1485.3 9.26037 1486.8 10.5972 L1489.11 12.8252 Q1490 13.6353 1490.69 14.0404 Q1491.34 14.405 1491.86 14.405 Q1493.4 14.405 1494.13 12.9467 Q1494.86 11.4479 1494.94 8.12611 L1500 8.12611 Q1499.92 13.5948 1497.86 16.5925 Q1495.79 19.5497 1492.11 19.5497 Q1490.57 19.5497 1489.27 18.9825 Q1487.97 18.4154 1486.47 17.0786 Z" fill="#000000" fill-rule="nonzero" fill-opacity="1" /><path clip-path="url(#clip400)" d="M1543.55 62.2867 L1552.1 62.2867 L1552.1 69.2543 L1545.46 82.2172 L1540.23 82.2172 L1543.55 69.2543 L1543.55 62.2867 Z" fill="#000000" fill-rule="nonzero" fill-opacity="1" /><path clip-path="url(#clip400)" d="M1594.72 12.096 L1605.73 12.096 L1632.55 62.6918 L1632.55 12.096 L1640.49 12.096 L1640.49 72.576 L1629.47 72.576 L1602.65 21.9802 L1602.65 72.576 L1594.72 72.576 L1594.72 12.096 Z" fill="#000000" fill-rule="nonzero" fill-opacity="1" /><path clip-path="url(#clip400)" d="M1657.42 34.9026 L1709.36 34.9026 L1709.36 41.7081 L1657.42 41.7081 L1657.42 34.9026 M1657.42 51.4303 L1709.36 51.4303 L1709.36 58.3168 L1657.42 58.3168 L1657.42 51.4303 Z" fill="#000000" fill-rule="nonzero" fill-opacity="1" /><path clip-path="url(#clip400)" d="M1734.07 65.6895 L1762.63 65.6895 L1762.63 72.576 L1724.22 72.576 L1724.22 65.6895 Q1728.88 60.8689 1736.9 52.7671 Q1744.96 44.6248 1747.03 42.2752 Q1750.96 37.8598 1752.5 34.8216 Q1754.08 31.7429 1754.08 28.7857 Q1754.08 23.9651 1750.67 20.927 Q1747.31 17.8888 1741.88 17.8888 Q1738.04 17.8888 1733.74 19.2256 Q1729.49 20.5624 1724.63 23.2765 L1724.63 15.0127 Q1729.57 13.0277 1733.86 12.015 Q1738.16 11.0023 1741.72 11.0023 Q1751.12 11.0023 1756.71 15.7013 Q1762.3 20.4004 1762.3 28.2591 Q1762.3 31.9859 1760.88 35.3482 Q1759.51 38.6699 1755.82 43.2069 Q1754.81 44.3817 1749.38 50.0125 Q1743.95 55.6027 1734.07 65.6895 Z" fill="#000000" fill-rule="nonzero" fill-opacity="1" /><polyline clip-path="url(#clip402)" style="stroke:#009af9; stroke-linecap:round; stroke-linejoin:round; stroke-width:8; stroke-opacity:1; fill:none" points="237.067,1386.4 243.914,1352.65 250.761,1320.77 257.608,1295.12 271.302,1260.68 278.149,1198.9 284.995,1231.88 291.842,1218.95 298.689,1206.8 305.536,1194.27 319.23,1174.62 326.077,1165.41 332.924,1156.55 339.771,1146.27 346.617,1139.76 353.464,1130.43 374.005,1107.87 380.852,1100.53 387.699,1093.27 394.546,1086.08 401.393,1078.95 408.239,1071.87 415.086,1064.86 421.933,1057.89 428.78,1050.96 435.627,1044.12 442.474,1037.4 449.321,1032.33 456.168,1024.26 463.015,1017.84 469.861,1011.52 476.708,881.938 483.555,999.128 490.402,993.059 497.249,992.656 504.096,987.285 510.943,975.315 517.79,969.545 531.483,958.207 545.177,956.367 552.024,941.671 558.871,936.276 572.565,925.652 579.412,932.097 593.105,910.105 599.952,918.098 606.799,913.518 613.646,908.979 620.493,904.48 627.34,900.02 634.187,895.598 641.034,875.452 647.881,886.863 654.727,882.549 661.574,878.27 668.421,874.024 682.115,865.629 688.962,861.48 695.809,838.232 702.656,853.271 716.349,845.18 730.043,816.072 736.89,833.252 743.737,829.33 750.584,803.138 757.431,798.883 777.971,810.097 784.818,806.322 805.359,795.136 819.053,787.789 825.9,784.147 832.747,780.526 839.593,776.925 846.44,773.345 887.522,752.668 949.144,724.284 955.991,721.284 962.837,718.311 983.378,709.551 990.225,706.681 1010.77,698.214 1031.31,689.951 1065.54,676.597 1079.23,671.393 1120.32,656.216 1134.01,651.294 1147.7,646.436 1154.55,644.031 1202.48,627.614 1229.87,618.543 1250.41,611.877 1264.1,607.497 1277.79,603.166 1291.49,598.882 1318.88,590.453 1353.11,580.163 1359.96,578.137 1401.04,566.19 1414.73,562.286 1435.27,556.499 1448.97,552.686 1476.35,545.166 1483.2,543.308 1490.05,541.457 1537.98,528.733 1544.82,526.947 1565.36,521.633 1585.9,516.386 1592.75,514.652 1606.45,511.205 1640.68,502.707 1661.22,497.689 1668.07,496.029 1702.3,487.827 1709.15,486.205 1722.84,482.98 1736.54,479.778 1805,464.117 1811.85,462.581 1873.47,448.997 1928.25,437.264 1969.33,428.663 1976.18,427.246 1996.72,423.019 2017.26,418.833 2024.11,417.446 2030.95,416.063 2037.8,414.685 2065.19,409.212 2072.03,407.854 2085.73,405.151 2099.42,402.463 2147.35,393.179 2181.58,386.66 2222.67,378.958 2236.36,177.548 2277.44,368.883 2284.29,367.639 2291.13,160.256 "/>
</svg>
