<?xml version="1.0" encoding="utf-8"?>
<svg xmlns="http://www.w3.org/2000/svg" xmlns:xlink="http://www.w3.org/1999/xlink" width="1500" height="1000" viewBox="0 0 6000 4000">
<defs>
  <clipPath id="clip420">
    <rect x="0" y="0" width="6000" height="4000"/>
  </clipPath>
</defs>
<path clip-path="url(#clip420)" d="M0 4000 L6000 4000 L6000 2.22045e-13 L0 2.22045e-13  Z" fill="#ffffff" fill-rule="evenodd" fill-opacity="1"/>
<defs>
  <clipPath id="clip421">
    <rect x="1200" y="0" width="4201" height="4000"/>
  </clipPath>
</defs>
<path clip-path="url(#clip420)" d="M397.112 3657.45 L5811.02 3657.45 L5811.02 123.472 L397.112 123.472  Z" fill="#ffffff" fill-rule="evenodd" fill-opacity="1"/>
<defs>
  <clipPath id="clip422">
    <rect x="397" y="123" width="5415" height="3535"/>
  </clipPath>
</defs>
<polyline clip-path="url(#clip422)" style="stroke:#000000; stroke-linecap:round; stroke-linejoin:round; stroke-width:2; stroke-opacity:0.1; fill:none" points="397.112,3657.45 397.112,123.472 "/>
<polyline clip-path="url(#clip422)" style="stroke:#000000; stroke-linecap:round; stroke-linejoin:round; stroke-width:2; stroke-opacity:0.1; fill:none" points="1479.89,3657.45 1479.89,123.472 "/>
<polyline clip-path="url(#clip422)" style="stroke:#000000; stroke-linecap:round; stroke-linejoin:round; stroke-width:2; stroke-opacity:0.1; fill:none" points="2562.68,3657.45 2562.68,123.472 "/>
<polyline clip-path="url(#clip422)" style="stroke:#000000; stroke-linecap:round; stroke-linejoin:round; stroke-width:2; stroke-opacity:0.1; fill:none" points="3645.46,3657.45 3645.46,123.472 "/>
<polyline clip-path="url(#clip422)" style="stroke:#000000; stroke-linecap:round; stroke-linejoin:round; stroke-width:2; stroke-opacity:0.1; fill:none" points="4728.24,3657.45 4728.24,123.472 "/>
<polyline clip-path="url(#clip422)" style="stroke:#000000; stroke-linecap:round; stroke-linejoin:round; stroke-width:2; stroke-opacity:0.1; fill:none" points="5811.02,3657.45 5811.02,123.472 "/>
<polyline clip-path="url(#clip422)" style="stroke:#000000; stroke-linecap:round; stroke-linejoin:round; stroke-width:2; stroke-opacity:0.1; fill:none" points="397.112,3657.45 5811.02,3657.45 "/>
<polyline clip-path="url(#clip422)" style="stroke:#000000; stroke-linecap:round; stroke-linejoin:round; stroke-width:2; stroke-opacity:0.1; fill:none" points="397.112,2773.95 5811.02,2773.95 "/>
<polyline clip-path="url(#clip422)" style="stroke:#000000; stroke-linecap:round; stroke-linejoin:round; stroke-width:2; stroke-opacity:0.1; fill:none" points="397.112,1890.46 5811.02,1890.46 "/>
<polyline clip-path="url(#clip422)" style="stroke:#000000; stroke-linecap:round; stroke-linejoin:round; stroke-width:2; stroke-opacity:0.1; fill:none" points="397.112,1006.97 5811.02,1006.97 "/>
<polyline clip-path="url(#clip422)" style="stroke:#000000; stroke-linecap:round; stroke-linejoin:round; stroke-width:2; stroke-opacity:0.1; fill:none" points="397.112,123.472 5811.02,123.472 "/>
<polyline clip-path="url(#clip420)" style="stroke:#000000; stroke-linecap:round; stroke-linejoin:round; stroke-width:4; stroke-opacity:1; fill:none" points="397.112,3657.45 5811.02,3657.45 "/>
<polyline clip-path="url(#clip420)" style="stroke:#000000; stroke-linecap:round; stroke-linejoin:round; stroke-width:4; stroke-opacity:1; fill:none" points="397.112,3657.45 397.112,3638.55 "/>
<polyline clip-path="url(#clip420)" style="stroke:#000000; stroke-linecap:round; stroke-linejoin:round; stroke-width:4; stroke-opacity:1; fill:none" points="1479.89,3657.45 1479.89,3638.55 "/>
<polyline clip-path="url(#clip420)" style="stroke:#000000; stroke-linecap:round; stroke-linejoin:round; stroke-width:4; stroke-opacity:1; fill:none" points="2562.68,3657.45 2562.68,3638.55 "/>
<polyline clip-path="url(#clip420)" style="stroke:#000000; stroke-linecap:round; stroke-linejoin:round; stroke-width:4; stroke-opacity:1; fill:none" points="3645.46,3657.45 3645.46,3638.55 "/>
<polyline clip-path="url(#clip420)" style="stroke:#000000; stroke-linecap:round; stroke-linejoin:round; stroke-width:4; stroke-opacity:1; fill:none" points="4728.24,3657.45 4728.24,3638.55 "/>
<polyline clip-path="url(#clip420)" style="stroke:#000000; stroke-linecap:round; stroke-linejoin:round; stroke-width:4; stroke-opacity:1; fill:none" points="5811.02,3657.45 5811.02,3638.55 "/>
<path clip-path="url(#clip420)" d="M397.112 3717.17 Q393.501 3717.17 391.673 3720.73 Q389.867 3724.27 389.867 3731.4 Q389.867 3738.51 391.673 3742.07 Q393.501 3745.62 397.112 3745.62 Q400.747 3745.62 402.552 3742.07 Q404.381 3738.51 404.381 3731.4 Q404.381 3724.27 402.552 3720.73 Q400.747 3717.17 397.112 3717.17 M397.112 3713.46 Q402.923 3713.46 405.978 3718.07 Q409.057 3722.65 409.057 3731.4 Q409.057 3740.13 405.978 3744.74 Q402.923 3749.32 397.112 3749.32 Q391.302 3749.32 388.224 3744.74 Q385.168 3740.13 385.168 3731.4 Q385.168 3722.65 388.224 3718.07 Q391.302 3713.46 397.112 3713.46 Z" fill="#000000" fill-rule="nonzero" fill-opacity="1" /><path clip-path="url(#clip420)" d="M1458.67 3744.71 L1474.99 3744.71 L1474.99 3748.65 L1453.04 3748.65 L1453.04 3744.71 Q1455.7 3741.96 1460.29 3737.33 Q1464.89 3732.68 1466.08 3731.33 Q1468.32 3728.81 1469.2 3727.07 Q1470.1 3725.31 1470.1 3723.62 Q1470.1 3720.87 1468.16 3719.13 Q1466.24 3717.4 1463.14 3717.4 Q1460.94 3717.4 1458.48 3718.16 Q1456.05 3718.93 1453.27 3720.48 L1453.27 3715.75 Q1456.1 3714.62 1458.55 3714.04 Q1461.01 3713.46 1463.04 3713.46 Q1468.41 3713.46 1471.61 3716.15 Q1474.8 3718.83 1474.8 3723.32 Q1474.8 3725.45 1473.99 3727.37 Q1473.2 3729.27 1471.1 3731.87 Q1470.52 3732.54 1467.42 3735.75 Q1464.32 3738.95 1458.67 3744.71 Z" fill="#000000" fill-rule="nonzero" fill-opacity="1" /><path clip-path="url(#clip420)" d="M1494.8 3717.17 Q1491.19 3717.17 1489.36 3720.73 Q1487.56 3724.27 1487.56 3731.4 Q1487.56 3738.51 1489.36 3742.07 Q1491.19 3745.62 1494.8 3745.62 Q1498.44 3745.62 1500.24 3742.07 Q1502.07 3738.51 1502.07 3731.4 Q1502.07 3724.27 1500.24 3720.73 Q1498.44 3717.17 1494.8 3717.17 M1494.8 3713.46 Q1500.61 3713.46 1503.67 3718.07 Q1506.75 3722.65 1506.75 3731.4 Q1506.75 3740.13 1503.67 3744.74 Q1500.61 3749.32 1494.8 3749.32 Q1488.99 3749.32 1485.91 3744.74 Q1482.86 3740.13 1482.86 3731.4 Q1482.86 3722.65 1485.91 3718.07 Q1488.99 3713.46 1494.8 3713.46 Z" fill="#000000" fill-rule="nonzero" fill-opacity="1" /><path clip-path="url(#clip420)" d="M2550.85 3718.16 L2539.04 3736.61 L2550.85 3736.61 L2550.85 3718.16 M2549.62 3714.09 L2555.5 3714.09 L2555.5 3736.61 L2560.43 3736.61 L2560.43 3740.5 L2555.5 3740.5 L2555.5 3748.65 L2550.85 3748.65 L2550.85 3740.5 L2535.25 3740.5 L2535.25 3735.99 L2549.62 3714.09 Z" fill="#000000" fill-rule="nonzero" fill-opacity="1" /><path clip-path="url(#clip420)" d="M2578.16 3717.17 Q2574.55 3717.17 2572.72 3720.73 Q2570.92 3724.27 2570.92 3731.4 Q2570.92 3738.51 2572.72 3742.07 Q2574.55 3745.62 2578.16 3745.62 Q2581.8 3745.62 2583.6 3742.07 Q2585.43 3738.51 2585.43 3731.4 Q2585.43 3724.27 2583.6 3720.73 Q2581.8 3717.17 2578.16 3717.17 M2578.16 3713.46 Q2583.97 3713.46 2587.03 3718.07 Q2590.11 3722.65 2590.11 3731.4 Q2590.11 3740.13 2587.03 3744.74 Q2583.97 3749.32 2578.16 3749.32 Q2572.35 3749.32 2569.27 3744.74 Q2566.22 3740.13 2566.22 3731.4 Q2566.22 3722.65 2569.27 3718.07 Q2572.35 3713.46 2578.16 3713.46 Z" fill="#000000" fill-rule="nonzero" fill-opacity="1" /><path clip-path="url(#clip420)" d="M3630.86 3729.5 Q3627.72 3729.5 3625.86 3731.66 Q3624.04 3733.81 3624.04 3737.56 Q3624.04 3741.29 3625.86 3743.46 Q3627.72 3745.62 3630.86 3745.62 Q3634.01 3745.62 3635.84 3743.46 Q3637.69 3741.29 3637.69 3737.56 Q3637.69 3733.81 3635.84 3731.66 Q3634.01 3729.5 3630.86 3729.5 M3640.15 3714.85 L3640.15 3719.11 Q3638.39 3718.28 3636.58 3717.84 Q3634.8 3717.4 3633.04 3717.4 Q3628.41 3717.4 3625.96 3720.52 Q3623.53 3723.65 3623.18 3729.97 Q3624.54 3727.95 3626.61 3726.89 Q3628.67 3725.8 3631.14 3725.8 Q3636.35 3725.8 3639.36 3728.97 Q3642.39 3732.12 3642.39 3737.56 Q3642.39 3742.88 3639.24 3746.1 Q3636.1 3749.32 3630.86 3749.32 Q3624.87 3749.32 3621.7 3744.74 Q3618.53 3740.13 3618.53 3731.4 Q3618.53 3723.21 3622.42 3718.35 Q3626.3 3713.46 3632.86 3713.46 Q3634.61 3713.46 3636.4 3713.81 Q3638.2 3714.16 3640.15 3714.85 Z" fill="#000000" fill-rule="nonzero" fill-opacity="1" /><path clip-path="url(#clip420)" d="M3660.45 3717.17 Q3656.84 3717.17 3655.01 3720.73 Q3653.2 3724.27 3653.2 3731.4 Q3653.2 3738.51 3655.01 3742.07 Q3656.84 3745.62 3660.45 3745.62 Q3664.08 3745.62 3665.89 3742.07 Q3667.72 3738.51 3667.72 3731.4 Q3667.72 3724.27 3665.89 3720.73 Q3664.08 3717.17 3660.45 3717.17 M3660.45 3713.46 Q3666.26 3713.46 3669.31 3718.07 Q3672.39 3722.65 3672.39 3731.4 Q3672.39 3740.13 3669.31 3744.74 Q3666.26 3749.32 3660.45 3749.32 Q3654.64 3749.32 3651.56 3744.74 Q3648.5 3740.13 3648.5 3731.4 Q3648.5 3722.65 3651.56 3718.07 Q3654.64 3713.46 3660.45 3713.46 Z" fill="#000000" fill-rule="nonzero" fill-opacity="1" /><path clip-path="url(#clip420)" d="M4713.11 3732.24 Q4709.78 3732.24 4707.86 3734.02 Q4705.96 3735.8 4705.96 3738.93 Q4705.96 3742.05 4707.86 3743.83 Q4709.78 3745.62 4713.11 3745.62 Q4716.45 3745.62 4718.37 3743.83 Q4720.29 3742.03 4720.29 3738.93 Q4720.29 3735.8 4718.37 3734.02 Q4716.47 3732.24 4713.11 3732.24 M4708.44 3730.24 Q4705.43 3729.5 4703.74 3727.44 Q4702.07 3725.38 4702.07 3722.42 Q4702.07 3718.28 4705.01 3715.87 Q4707.98 3713.46 4713.11 3713.46 Q4718.28 3713.46 4721.22 3715.87 Q4724.16 3718.28 4724.16 3722.42 Q4724.16 3725.38 4722.47 3727.44 Q4720.8 3729.5 4717.81 3730.24 Q4721.19 3731.03 4723.07 3733.32 Q4724.97 3735.62 4724.97 3738.93 Q4724.97 3743.95 4721.89 3746.63 Q4718.83 3749.32 4713.11 3749.32 Q4707.4 3749.32 4704.32 3746.63 Q4701.26 3743.95 4701.26 3738.93 Q4701.26 3735.62 4703.16 3733.32 Q4705.06 3731.03 4708.44 3730.24 M4706.73 3722.86 Q4706.73 3725.55 4708.39 3727.05 Q4710.08 3728.56 4713.11 3728.56 Q4716.12 3728.56 4717.81 3727.05 Q4719.53 3725.55 4719.53 3722.86 Q4719.53 3720.18 4717.81 3718.67 Q4716.12 3717.17 4713.11 3717.17 Q4710.08 3717.17 4708.39 3718.67 Q4706.73 3720.18 4706.73 3722.86 Z" fill="#000000" fill-rule="nonzero" fill-opacity="1" /><path clip-path="url(#clip420)" d="M4743.28 3717.17 Q4739.66 3717.17 4737.84 3720.73 Q4736.03 3724.27 4736.03 3731.4 Q4736.03 3738.51 4737.84 3742.07 Q4739.66 3745.62 4743.28 3745.62 Q4746.91 3745.62 4748.72 3742.07 Q4750.54 3738.51 4750.54 3731.4 Q4750.54 3724.27 4748.72 3720.73 Q4746.91 3717.17 4743.28 3717.17 M4743.28 3713.46 Q4749.09 3713.46 4752.14 3718.07 Q4755.22 3722.65 4755.22 3731.4 Q4755.22 3740.13 4752.14 3744.74 Q4749.09 3749.32 4743.28 3749.32 Q4737.47 3749.32 4734.39 3744.74 Q4731.33 3740.13 4731.33 3731.4 Q4731.33 3722.65 4734.39 3718.07 Q4737.47 3713.46 4743.28 3713.46 Z" fill="#000000" fill-rule="nonzero" fill-opacity="1" /><path clip-path="url(#clip420)" d="M5770.63 3744.71 L5778.27 3744.71 L5778.27 3718.35 L5769.96 3720.01 L5769.96 3715.75 L5778.22 3714.09 L5782.9 3714.09 L5782.9 3744.71 L5790.54 3744.71 L5790.54 3748.65 L5770.63 3748.65 L5770.63 3744.71 Z" fill="#000000" fill-rule="nonzero" fill-opacity="1" /><path clip-path="url(#clip420)" d="M5809.98 3717.17 Q5806.37 3717.17 5804.54 3720.73 Q5802.74 3724.27 5802.74 3731.4 Q5802.74 3738.51 5804.54 3742.07 Q5806.37 3745.62 5809.98 3745.62 Q5813.62 3745.62 5815.42 3742.07 Q5817.25 3738.51 5817.25 3731.4 Q5817.25 3724.27 5815.42 3720.73 Q5813.62 3717.17 5809.98 3717.17 M5809.98 3713.46 Q5815.79 3713.46 5818.85 3718.07 Q5821.93 3722.65 5821.93 3731.4 Q5821.93 3740.13 5818.85 3744.74 Q5815.79 3749.32 5809.98 3749.32 Q5804.17 3749.32 5801.09 3744.74 Q5798.04 3740.13 5798.04 3731.4 Q5798.04 3722.65 5801.09 3718.07 Q5804.17 3713.46 5809.98 3713.46 Z" fill="#000000" fill-rule="nonzero" fill-opacity="1" /><path clip-path="url(#clip420)" d="M5840.14 3717.17 Q5836.53 3717.17 5834.7 3720.73 Q5832.9 3724.27 5832.9 3731.4 Q5832.9 3738.51 5834.7 3742.07 Q5836.53 3745.62 5840.14 3745.62 Q5843.78 3745.62 5845.58 3742.07 Q5847.41 3738.51 5847.41 3731.4 Q5847.41 3724.27 5845.58 3720.73 Q5843.78 3717.17 5840.14 3717.17 M5840.14 3713.46 Q5845.95 3713.46 5849.01 3718.07 Q5852.09 3722.65 5852.09 3731.4 Q5852.09 3740.13 5849.01 3744.74 Q5845.95 3749.32 5840.14 3749.32 Q5834.33 3749.32 5831.25 3744.74 Q5828.2 3740.13 5828.2 3731.4 Q5828.2 3722.65 5831.25 3718.07 Q5834.33 3713.46 5840.14 3713.46 Z" fill="#000000" fill-rule="nonzero" fill-opacity="1" /><path clip-path="url(#clip420)" d="M2978.44 3808.79 L3018.64 3808.79 L3018.64 3814.2 L3001.77 3814.2 L3001.77 3856.31 L2995.31 3856.31 L2995.31 3814.2 L2978.44 3814.2 L2978.44 3808.79 Z" fill="#000000" fill-rule="nonzero" fill-opacity="1" /><path clip-path="url(#clip420)" d="M3022.59 3820.66 L3028.44 3820.66 L3028.44 3856.31 L3022.59 3856.31 L3022.59 3820.66 M3022.59 3806.79 L3028.44 3806.79 L3028.44 3814.2 L3022.59 3814.2 L3022.59 3806.79 Z" fill="#000000" fill-rule="nonzero" fill-opacity="1" /><path clip-path="url(#clip420)" d="M3068.45 3827.51 Q3070.65 3823.56 3073.7 3821.68 Q3076.76 3819.8 3080.9 3819.8 Q3086.47 3819.8 3089.49 3823.72 Q3092.51 3827.6 3092.51 3834.8 L3092.51 3856.31 L3086.63 3856.31 L3086.63 3834.99 Q3086.63 3829.86 3084.81 3827.38 Q3083 3824.9 3079.27 3824.9 Q3074.72 3824.9 3072.08 3827.92 Q3069.44 3830.94 3069.44 3836.16 L3069.44 3856.31 L3063.55 3856.31 L3063.55 3834.99 Q3063.55 3829.83 3061.74 3827.38 Q3059.92 3824.9 3056.13 3824.9 Q3051.65 3824.9 3049 3827.95 Q3046.36 3830.98 3046.36 3836.16 L3046.36 3856.31 L3040.47 3856.31 L3040.47 3820.66 L3046.36 3820.66 L3046.36 3826.2 Q3048.37 3822.92 3051.17 3821.36 Q3053.97 3819.8 3057.82 3819.8 Q3061.7 3819.8 3064.41 3821.78 Q3067.15 3823.75 3068.45 3827.51 Z" fill="#000000" fill-rule="nonzero" fill-opacity="1" /><path clip-path="url(#clip420)" d="M3134.69 3837.02 L3134.69 3839.89 L3107.76 3839.89 Q3108.14 3845.94 3111.39 3849.12 Q3114.67 3852.27 3120.49 3852.27 Q3123.87 3852.27 3127.02 3851.44 Q3130.2 3850.61 3133.32 3848.96 L3133.32 3854.5 Q3130.17 3855.83 3126.86 3856.53 Q3123.55 3857.23 3120.14 3857.23 Q3111.61 3857.23 3106.61 3852.27 Q3101.65 3847.3 3101.65 3838.84 Q3101.65 3830.08 3106.36 3824.96 Q3111.1 3819.8 3119.12 3819.8 Q3126.32 3819.8 3130.49 3824.45 Q3134.69 3829.07 3134.69 3837.02 M3128.83 3835.3 Q3128.77 3830.5 3126.13 3827.63 Q3123.52 3824.77 3119.19 3824.77 Q3114.28 3824.77 3111.32 3827.54 Q3108.4 3830.31 3107.95 3835.34 L3128.83 3835.3 Z" fill="#000000" fill-rule="nonzero" fill-opacity="1" /><path clip-path="url(#clip420)" d="M3179.09 3806.85 Q3174.82 3814.17 3172.75 3821.33 Q3170.69 3828.49 3170.69 3835.85 Q3170.69 3843.2 3172.75 3850.42 Q3174.85 3857.62 3179.09 3864.91 L3174 3864.91 Q3169.22 3857.43 3166.83 3850.2 Q3164.48 3842.98 3164.48 3835.85 Q3164.48 3828.75 3166.83 3821.55 Q3169.19 3814.36 3174 3806.85 L3179.09 3806.85 Z" fill="#000000" fill-rule="nonzero" fill-opacity="1" /><path clip-path="url(#clip420)" d="M3196.24 3810.54 L3196.24 3820.66 L3208.31 3820.66 L3208.31 3825.22 L3196.24 3825.22 L3196.24 3844.57 Q3196.24 3848.93 3197.42 3850.17 Q3198.63 3851.41 3202.29 3851.41 L3208.31 3851.41 L3208.31 3856.31 L3202.29 3856.31 Q3195.51 3856.31 3192.93 3853.8 Q3190.36 3851.25 3190.36 3844.57 L3190.36 3825.22 L3186.06 3825.22 L3186.06 3820.66 L3190.36 3820.66 L3190.36 3810.54 L3196.24 3810.54 Z" fill="#000000" fill-rule="nonzero" fill-opacity="1" /><path clip-path="url(#clip420)" d="M3215.09 3806.85 L3220.18 3806.85 Q3224.95 3814.36 3227.31 3821.55 Q3229.7 3828.75 3229.7 3835.85 Q3229.7 3842.98 3227.31 3850.2 Q3224.95 3857.43 3220.18 3864.91 L3215.09 3864.91 Q3219.32 3857.62 3221.39 3850.42 Q3223.49 3843.2 3223.49 3835.85 Q3223.49 3828.49 3221.39 3821.33 Q3219.32 3814.17 3215.09 3806.85 Z" fill="#000000" fill-rule="nonzero" fill-opacity="1" /><polyline clip-path="url(#clip420)" style="stroke:#000000; stroke-linecap:round; stroke-linejoin:round; stroke-width:4; stroke-opacity:1; fill:none" points="397.112,3657.45 397.112,123.472 "/>
<polyline clip-path="url(#clip420)" style="stroke:#000000; stroke-linecap:round; stroke-linejoin:round; stroke-width:4; stroke-opacity:1; fill:none" points="397.112,3657.45 416.01,3657.45 "/>
<polyline clip-path="url(#clip420)" style="stroke:#000000; stroke-linecap:round; stroke-linejoin:round; stroke-width:4; stroke-opacity:1; fill:none" points="397.112,2773.95 416.01,2773.95 "/>
<polyline clip-path="url(#clip420)" style="stroke:#000000; stroke-linecap:round; stroke-linejoin:round; stroke-width:4; stroke-opacity:1; fill:none" points="397.112,1890.46 416.01,1890.46 "/>
<polyline clip-path="url(#clip420)" style="stroke:#000000; stroke-linecap:round; stroke-linejoin:round; stroke-width:4; stroke-opacity:1; fill:none" points="397.112,1006.97 416.01,1006.97 "/>
<polyline clip-path="url(#clip420)" style="stroke:#000000; stroke-linecap:round; stroke-linejoin:round; stroke-width:4; stroke-opacity:1; fill:none" points="397.112,123.472 416.01,123.472 "/>
<path clip-path="url(#clip420)" d="M249.937 3643.25 Q246.326 3643.25 244.497 3646.81 Q242.691 3650.35 242.691 3657.48 Q242.691 3664.59 244.497 3668.15 Q246.326 3671.7 249.937 3671.7 Q253.571 3671.7 255.377 3668.15 Q257.205 3664.59 257.205 3657.48 Q257.205 3650.35 255.377 3646.81 Q253.571 3643.25 249.937 3643.25 M249.937 3639.54 Q255.747 3639.54 258.803 3644.15 Q261.881 3648.73 261.881 3657.48 Q261.881 3666.21 258.803 3670.82 Q255.747 3675.4 249.937 3675.4 Q244.127 3675.4 241.048 3670.82 Q237.992 3666.21 237.992 3657.48 Q237.992 3648.73 241.048 3644.15 Q244.127 3639.54 249.937 3639.54 Z" fill="#000000" fill-rule="nonzero" fill-opacity="1" /><path clip-path="url(#clip420)" d="M270.099 3668.85 L274.983 3668.85 L274.983 3674.73 L270.099 3674.73 L270.099 3668.85 Z" fill="#000000" fill-rule="nonzero" fill-opacity="1" /><path clip-path="url(#clip420)" d="M295.168 3643.25 Q291.557 3643.25 289.728 3646.81 Q287.923 3650.35 287.923 3657.48 Q287.923 3664.59 289.728 3668.15 Q291.557 3671.7 295.168 3671.7 Q298.802 3671.7 300.608 3668.15 Q302.437 3664.59 302.437 3657.48 Q302.437 3650.35 300.608 3646.81 Q298.802 3643.25 295.168 3643.25 M295.168 3639.54 Q300.978 3639.54 304.034 3644.15 Q307.112 3648.73 307.112 3657.48 Q307.112 3666.21 304.034 3670.82 Q300.978 3675.4 295.168 3675.4 Q289.358 3675.4 286.279 3670.82 Q283.224 3666.21 283.224 3657.48 Q283.224 3648.73 286.279 3644.15 Q289.358 3639.54 295.168 3639.54 Z" fill="#000000" fill-rule="nonzero" fill-opacity="1" /><path clip-path="url(#clip420)" d="M250.932 2759.75 Q247.321 2759.75 245.492 2763.32 Q243.687 2766.86 243.687 2773.99 Q243.687 2781.09 245.492 2784.66 Q247.321 2788.2 250.932 2788.2 Q254.566 2788.2 256.372 2784.66 Q258.201 2781.09 258.201 2773.99 Q258.201 2766.86 256.372 2763.32 Q254.566 2759.75 250.932 2759.75 M250.932 2756.05 Q256.742 2756.05 259.798 2760.66 Q262.877 2765.24 262.877 2773.99 Q262.877 2782.72 259.798 2787.32 Q256.742 2791.9 250.932 2791.9 Q245.122 2791.9 242.043 2787.32 Q238.988 2782.72 238.988 2773.99 Q238.988 2765.24 242.043 2760.66 Q245.122 2756.05 250.932 2756.05 Z" fill="#000000" fill-rule="nonzero" fill-opacity="1" /><path clip-path="url(#clip420)" d="M271.094 2785.35 L275.978 2785.35 L275.978 2791.23 L271.094 2791.23 L271.094 2785.35 Z" fill="#000000" fill-rule="nonzero" fill-opacity="1" /><path clip-path="url(#clip420)" d="M286.21 2756.67 L304.566 2756.67 L304.566 2760.61 L290.492 2760.61 L290.492 2769.08 Q291.511 2768.73 292.529 2768.57 Q293.548 2768.39 294.566 2768.39 Q300.353 2768.39 303.733 2771.56 Q307.112 2774.73 307.112 2780.15 Q307.112 2785.72 303.64 2788.83 Q300.168 2791.9 293.849 2791.9 Q291.673 2791.9 289.404 2791.53 Q287.159 2791.16 284.751 2790.42 L284.751 2785.72 Q286.835 2786.86 289.057 2787.41 Q291.279 2787.97 293.756 2787.97 Q297.761 2787.97 300.099 2785.86 Q302.437 2783.76 302.437 2780.15 Q302.437 2776.53 300.099 2774.43 Q297.761 2772.32 293.756 2772.32 Q291.881 2772.32 290.006 2772.74 Q288.154 2773.16 286.21 2774.03 L286.21 2756.67 Z" fill="#000000" fill-rule="nonzero" fill-opacity="1" /><path clip-path="url(#clip420)" d="M240.747 1903.8 L248.386 1903.8 L248.386 1877.44 L240.076 1879.11 L240.076 1874.85 L248.34 1873.18 L253.016 1873.18 L253.016 1903.8 L260.654 1903.8 L260.654 1907.74 L240.747 1907.74 L240.747 1903.8 Z" fill="#000000" fill-rule="nonzero" fill-opacity="1" /><path clip-path="url(#clip420)" d="M270.099 1901.86 L274.983 1901.86 L274.983 1907.74 L270.099 1907.74 L270.099 1901.86 Z" fill="#000000" fill-rule="nonzero" fill-opacity="1" /><path clip-path="url(#clip420)" d="M295.168 1876.26 Q291.557 1876.26 289.728 1879.82 Q287.923 1883.36 287.923 1890.49 Q287.923 1897.6 289.728 1901.17 Q291.557 1904.71 295.168 1904.71 Q298.802 1904.71 300.608 1901.17 Q302.437 1897.6 302.437 1890.49 Q302.437 1883.36 300.608 1879.82 Q298.802 1876.26 295.168 1876.26 M295.168 1872.55 Q300.978 1872.55 304.034 1877.16 Q307.112 1881.74 307.112 1890.49 Q307.112 1899.22 304.034 1903.83 Q300.978 1908.41 295.168 1908.41 Q289.358 1908.41 286.279 1903.83 Q283.224 1899.22 283.224 1890.49 Q283.224 1881.74 286.279 1877.16 Q289.358 1872.55 295.168 1872.55 Z" fill="#000000" fill-rule="nonzero" fill-opacity="1" /><path clip-path="url(#clip420)" d="M241.742 1020.31 L249.381 1020.31 L249.381 993.945 L241.071 995.612 L241.071 991.353 L249.335 989.686 L254.011 989.686 L254.011 1020.31 L261.65 1020.31 L261.65 1024.25 L241.742 1024.25 L241.742 1020.31 Z" fill="#000000" fill-rule="nonzero" fill-opacity="1" /><path clip-path="url(#clip420)" d="M271.094 1018.37 L275.978 1018.37 L275.978 1024.25 L271.094 1024.25 L271.094 1018.37 Z" fill="#000000" fill-rule="nonzero" fill-opacity="1" /><path clip-path="url(#clip420)" d="M286.21 989.686 L304.566 989.686 L304.566 993.621 L290.492 993.621 L290.492 1002.09 Q291.511 1001.75 292.529 1001.58 Q293.548 1001.4 294.566 1001.4 Q300.353 1001.4 303.733 1004.57 Q307.112 1007.74 307.112 1013.16 Q307.112 1018.74 303.64 1021.84 Q300.168 1024.92 293.849 1024.92 Q291.673 1024.92 289.404 1024.55 Q287.159 1024.18 284.751 1023.44 L284.751 1018.74 Q286.835 1019.87 289.057 1020.43 Q291.279 1020.98 293.756 1020.98 Q297.761 1020.98 300.099 1018.88 Q302.437 1016.77 302.437 1013.16 Q302.437 1009.55 300.099 1007.44 Q297.761 1005.33 293.756 1005.33 Q291.881 1005.33 290.006 1005.75 Q288.154 1006.17 286.21 1007.05 L286.21 989.686 Z" fill="#000000" fill-rule="nonzero" fill-opacity="1" /><path clip-path="url(#clip420)" d="M243.965 136.817 L260.284 136.817 L260.284 140.752 L238.34 140.752 L238.34 136.817 Q241.002 134.062 245.585 129.433 Q250.191 124.78 251.372 123.437 Q253.617 120.914 254.497 119.178 Q255.4 117.419 255.4 115.729 Q255.4 112.974 253.455 111.238 Q251.534 109.502 248.432 109.502 Q246.233 109.502 243.779 110.266 Q241.349 111.03 238.571 112.581 L238.571 107.859 Q241.395 106.725 243.849 106.146 Q246.303 105.567 248.34 105.567 Q253.71 105.567 256.904 108.252 Q260.099 110.937 260.099 115.428 Q260.099 117.558 259.289 119.479 Q258.502 121.377 256.395 123.97 Q255.816 124.641 252.715 127.859 Q249.613 131.053 243.965 136.817 Z" fill="#000000" fill-rule="nonzero" fill-opacity="1" /><path clip-path="url(#clip420)" d="M270.099 134.873 L274.983 134.873 L274.983 140.752 L270.099 140.752 L270.099 134.873 Z" fill="#000000" fill-rule="nonzero" fill-opacity="1" /><path clip-path="url(#clip420)" d="M295.168 109.271 Q291.557 109.271 289.728 112.836 Q287.923 116.377 287.923 123.507 Q287.923 130.613 289.728 134.178 Q291.557 137.72 295.168 137.72 Q298.802 137.72 300.608 134.178 Q302.437 130.613 302.437 123.507 Q302.437 116.377 300.608 112.836 Q298.802 109.271 295.168 109.271 M295.168 105.567 Q300.978 105.567 304.034 110.174 Q307.112 114.757 307.112 123.507 Q307.112 132.234 304.034 136.84 Q300.978 141.423 295.168 141.423 Q289.358 141.423 286.279 136.84 Q283.224 132.234 283.224 123.507 Q283.224 114.757 286.279 110.174 Q289.358 105.567 295.168 105.567 Z" fill="#000000" fill-rule="nonzero" fill-opacity="1" /><path clip-path="url(#clip420)" d="M87.776 2059.25 L94.0463 2059.25 Q92.2957 2062.91 91.4363 2066.15 Q90.5769 2069.4 90.5769 2072.42 Q90.5769 2077.68 92.614 2080.54 Q94.651 2083.37 98.4068 2083.37 Q101.558 2083.37 103.181 2081.49 Q104.772 2079.58 105.759 2074.3 L106.555 2070.42 Q107.924 2063.23 111.393 2059.82 Q114.83 2056.38 120.623 2056.38 Q127.53 2056.38 131.095 2061.03 Q134.659 2065.64 134.659 2074.59 Q134.659 2077.96 133.896 2081.78 Q133.132 2085.57 131.636 2089.64 L125.015 2089.64 Q127.212 2085.73 128.326 2081.97 Q129.44 2078.22 129.44 2074.59 Q129.44 2069.08 127.275 2066.09 Q125.111 2063.1 121.101 2063.1 Q117.599 2063.1 115.626 2065.26 Q113.653 2067.39 112.666 2072.3 L111.902 2076.21 Q110.47 2083.4 107.414 2086.62 Q104.359 2089.83 98.916 2089.83 Q92.614 2089.83 88.9855 2085.41 Q85.3571 2080.95 85.3571 2073.16 Q85.3571 2069.81 85.9618 2066.34 Q86.5666 2062.88 87.776 2059.25 Z" fill="#000000" fill-rule="nonzero" fill-opacity="1" /><path clip-path="url(#clip420)" d="M87.967 2040.82 L98.0885 2040.82 L98.0885 2028.75 L102.64 2028.75 L102.64 2040.82 L121.992 2040.82 Q126.352 2040.82 127.594 2039.64 Q128.835 2038.43 128.835 2034.77 L128.835 2028.75 L133.736 2028.75 L133.736 2034.77 Q133.736 2041.55 131.222 2044.13 Q128.676 2046.71 121.992 2046.71 L102.64 2046.71 L102.64 2051 L98.0885 2051 L98.0885 2046.71 L87.967 2046.71 L87.967 2040.82 Z" fill="#000000" fill-rule="nonzero" fill-opacity="1" /><path clip-path="url(#clip420)" d="M115.817 2004.85 Q115.817 2011.95 117.44 2014.69 Q119.063 2017.42 122.978 2017.42 Q126.098 2017.42 127.944 2015.39 Q129.758 2013.32 129.758 2009.79 Q129.758 2004.92 126.32 2001.99 Q122.851 1999.03 117.122 1999.03 L115.817 1999.03 L115.817 2004.85 M113.398 1993.17 L133.736 1993.17 L133.736 1999.03 L128.326 1999.03 Q131.572 2001.03 133.132 2004.02 Q134.659 2007.02 134.659 2011.34 Q134.659 2016.82 131.604 2020.07 Q128.517 2023.28 123.36 2023.28 Q117.345 2023.28 114.289 2019.27 Q111.234 2015.23 111.234 2007.24 L111.234 1999.03 L110.661 1999.03 Q106.619 1999.03 104.422 2001.7 Q102.194 2004.34 102.194 2009.15 Q102.194 2012.2 102.926 2015.1 Q103.658 2018 105.123 2020.67 L99.7117 2020.67 Q98.4704 2017.46 97.8657 2014.43 Q97.2291 2011.41 97.2291 2008.54 Q97.2291 2000.81 101.24 1996.99 Q105.25 1993.17 113.398 1993.17 Z" fill="#000000" fill-rule="nonzero" fill-opacity="1" /><path clip-path="url(#clip420)" d="M87.967 1975.31 L98.0885 1975.31 L98.0885 1963.25 L102.64 1963.25 L102.64 1975.31 L121.992 1975.31 Q126.352 1975.31 127.594 1974.14 Q128.835 1972.93 128.835 1969.27 L128.835 1963.25 L133.736 1963.25 L133.736 1969.27 Q133.736 1976.05 131.222 1978.62 Q128.676 1981.2 121.992 1981.2 L102.64 1981.2 L102.64 1985.5 L98.0885 1985.5 L98.0885 1981.2 L87.967 1981.2 L87.967 1975.31 Z" fill="#000000" fill-rule="nonzero" fill-opacity="1" /><path clip-path="url(#clip420)" d="M114.448 1925.06 L117.313 1925.06 L117.313 1951.98 Q123.36 1951.6 126.543 1948.36 Q129.694 1945.08 129.694 1939.25 Q129.694 1935.88 128.867 1932.73 Q128.039 1929.55 126.384 1926.43 L131.922 1926.43 Q133.259 1929.58 133.959 1932.89 Q134.659 1936.2 134.659 1939.6 Q134.659 1948.13 129.694 1953.13 Q124.729 1958.1 116.263 1958.1 Q107.51 1958.1 102.385 1953.38 Q97.2291 1948.64 97.2291 1940.62 Q97.2291 1933.43 101.876 1929.26 Q106.491 1925.06 114.448 1925.06 M112.73 1930.91 Q107.924 1930.98 105.059 1933.62 Q102.194 1936.23 102.194 1940.56 Q102.194 1945.46 104.963 1948.42 Q107.733 1951.35 112.761 1951.79 L112.73 1930.91 Z" fill="#000000" fill-rule="nonzero" fill-opacity="1" /><path clip-path="url(#clip420)" d="M133.736 1882.22 L86.2164 1900.36 L86.2164 1893.64 L126.225 1878.59 L86.2164 1863.5 L86.2164 1856.82 L133.736 1874.93 L133.736 1882.22 Z" fill="#000000" fill-rule="nonzero" fill-opacity="1" /><path clip-path="url(#clip420)" d="M115.817 1838.99 Q115.817 1846.09 117.44 1848.83 Q119.063 1851.57 122.978 1851.57 Q126.098 1851.57 127.944 1849.53 Q129.758 1847.46 129.758 1843.93 Q129.758 1839.06 126.32 1836.13 Q122.851 1833.17 117.122 1833.17 L115.817 1833.17 L115.817 1838.99 M113.398 1827.31 L133.736 1827.31 L133.736 1833.17 L128.326 1833.17 Q131.572 1835.17 133.132 1838.17 Q134.659 1841.16 134.659 1845.49 Q134.659 1850.96 131.604 1854.21 Q128.517 1857.42 123.36 1857.42 Q117.345 1857.42 114.289 1853.41 Q111.234 1849.37 111.234 1841.38 L111.234 1833.17 L110.661 1833.17 Q106.619 1833.17 104.422 1835.84 Q102.194 1838.48 102.194 1843.29 Q102.194 1846.35 102.926 1849.24 Q103.658 1852.14 105.123 1854.81 L99.7117 1854.81 Q98.4704 1851.6 97.8657 1848.57 Q97.2291 1845.55 97.2291 1842.69 Q97.2291 1834.95 101.24 1831.13 Q105.25 1827.31 113.398 1827.31 Z" fill="#000000" fill-rule="nonzero" fill-opacity="1" /><path clip-path="url(#clip420)" d="M84.2112 1815.25 L84.2112 1809.39 L133.736 1809.39 L133.736 1815.25 L84.2112 1815.25 Z" fill="#000000" fill-rule="nonzero" fill-opacity="1" /><path clip-path="url(#clip420)" d="M119.668 1797.74 L98.0885 1797.74 L98.0885 1791.89 L119.445 1791.89 Q124.506 1791.89 127.052 1789.91 Q129.567 1787.94 129.567 1783.99 Q129.567 1779.25 126.543 1776.51 Q123.519 1773.74 118.3 1773.74 L98.0885 1773.74 L98.0885 1767.89 L133.736 1767.89 L133.736 1773.74 L128.262 1773.74 Q131.508 1775.88 133.1 1778.71 Q134.659 1781.51 134.659 1785.23 Q134.659 1791.38 130.84 1794.56 Q127.021 1797.74 119.668 1797.74 M97.2291 1783.01 L97.2291 1783.01 Z" fill="#000000" fill-rule="nonzero" fill-opacity="1" /><path clip-path="url(#clip420)" d="M114.448 1725.33 L117.313 1725.33 L117.313 1752.26 Q123.36 1751.88 126.543 1748.63 Q129.694 1745.35 129.694 1739.53 Q129.694 1736.16 128.867 1733 Q128.039 1729.82 126.384 1726.7 L131.922 1726.7 Q133.259 1729.85 133.959 1733.16 Q134.659 1736.47 134.659 1739.88 Q134.659 1748.41 129.694 1753.41 Q124.729 1758.37 116.263 1758.37 Q107.51 1758.37 102.385 1753.66 Q97.2291 1748.92 97.2291 1740.9 Q97.2291 1733.7 101.876 1729.53 Q106.491 1725.33 114.448 1725.33 M112.73 1731.19 Q107.924 1731.25 105.059 1733.9 Q102.194 1736.51 102.194 1740.83 Q102.194 1745.74 104.963 1748.7 Q107.733 1751.62 112.761 1752.07 L112.73 1731.19 Z" fill="#000000" fill-rule="nonzero" fill-opacity="1" /><path clip-path="url(#clip420)" d="M99.1388 1693 L104.677 1693 Q103.404 1695.48 102.767 1698.15 Q102.131 1700.83 102.131 1703.69 Q102.131 1708.05 103.468 1710.25 Q104.804 1712.41 107.478 1712.41 Q109.515 1712.41 110.693 1710.85 Q111.838 1709.29 112.889 1704.58 L113.334 1702.58 Q114.671 1696.34 117.122 1693.73 Q119.541 1691.09 123.901 1691.09 Q128.867 1691.09 131.763 1695.03 Q134.659 1698.95 134.659 1705.82 Q134.659 1708.69 134.087 1711.81 Q133.545 1714.89 132.431 1718.33 L126.384 1718.33 Q128.071 1715.08 128.93 1711.93 Q129.758 1708.78 129.758 1705.7 Q129.758 1701.56 128.357 1699.33 Q126.925 1697.1 124.347 1697.1 Q121.96 1697.1 120.687 1698.72 Q119.414 1700.32 118.236 1705.76 L117.759 1707.8 Q116.613 1713.24 114.257 1715.66 Q111.87 1718.08 107.733 1718.08 Q102.704 1718.08 99.9664 1714.51 Q97.2291 1710.95 97.2291 1704.39 Q97.2291 1701.14 97.7065 1698.28 Q98.184 1695.41 99.1388 1693 Z" fill="#000000" fill-rule="nonzero" fill-opacity="1" /><path clip-path="url(#clip420)" d="M1919.5 16.7545 L1919.5 25.383 Q1915.37 21.5346 1910.67 19.6307 Q1906.01 17.7268 1900.75 17.7268 Q1890.38 17.7268 1884.87 24.0867 Q1879.36 30.4061 1879.36 42.3968 Q1879.36 54.3469 1884.87 60.7069 Q1890.38 67.0263 1900.75 67.0263 Q1906.01 67.0263 1910.67 65.1223 Q1915.37 63.2184 1919.5 59.3701 L1919.5 67.9175 Q1915.21 70.8341 1910.39 72.2924 Q1905.61 73.7508 1900.26 73.7508 Q1886.53 73.7508 1878.63 65.3654 Q1870.73 56.9395 1870.73 42.3968 Q1870.73 27.8135 1878.63 19.4281 Q1886.53 11.0023 1900.26 11.0023 Q1905.69 11.0023 1910.47 12.4606 Q1915.29 13.8784 1919.5 16.7545 Z" fill="#000000" fill-rule="nonzero" fill-opacity="1" /><path clip-path="url(#clip420)" d="M1923.76 12.096 L1974.92 12.096 L1974.92 18.9825 L1953.45 18.9825 L1953.45 72.576 L1945.23 72.576 L1945.23 18.9825 L1923.76 18.9825 L1923.76 12.096 Z" fill="#000000" fill-rule="nonzero" fill-opacity="1" /><path clip-path="url(#clip420)" d="M1982.82 12.096 L1995.01 12.096 L2010.45 53.2532 L2025.96 12.096 L2038.15 12.096 L2038.15 72.576 L2030.17 72.576 L2030.17 19.4686 L2014.58 60.9499 L2006.35 60.9499 L1990.76 19.4686 L1990.76 72.576 L1982.82 72.576 L1982.82 12.096 Z" fill="#000000" fill-rule="nonzero" fill-opacity="1" /><path clip-path="url(#clip420)" d="M2099.69 16.7545 L2099.69 25.383 Q2095.55 21.5346 2090.86 19.6307 Q2086.2 17.7268 2080.93 17.7268 Q2070.56 17.7268 2065.05 24.0867 Q2059.54 30.4061 2059.54 42.3968 Q2059.54 54.3469 2065.05 60.7069 Q2070.56 67.0263 2080.93 67.0263 Q2086.2 67.0263 2090.86 65.1223 Q2095.55 63.2184 2099.69 59.3701 L2099.69 67.9175 Q2095.39 70.8341 2090.57 72.2924 Q2085.79 73.7508 2080.45 73.7508 Q2066.71 73.7508 2058.81 65.3654 Q2050.91 56.9395 2050.91 42.3968 Q2050.91 27.8135 2058.81 19.4281 Q2066.71 11.0023 2080.45 11.0023 Q2085.87 11.0023 2090.65 12.4606 Q2095.47 13.8784 2099.69 16.7545 Z" fill="#000000" fill-rule="nonzero" fill-opacity="1" /><path clip-path="url(#clip420)" d="M2174.95 14.0809 L2174.95 22.0612 Q2170.29 19.8332 2166.16 18.7395 Q2162.03 17.6457 2158.18 17.6457 Q2151.5 17.6457 2147.85 20.2383 Q2144.25 22.8309 2144.25 27.611 Q2144.25 31.6214 2146.64 33.6873 Q2149.07 35.7128 2155.79 36.9686 L2160.73 37.9813 Q2169.89 39.7232 2174.22 44.1387 Q2178.6 48.5136 2178.6 55.8863 Q2178.6 64.6767 2172.68 69.2137 Q2166.81 73.7508 2155.43 73.7508 Q2151.13 73.7508 2146.27 72.7785 Q2141.45 71.8063 2136.27 69.9024 L2136.27 61.4765 Q2141.25 64.2716 2146.03 65.6895 Q2150.81 67.1073 2155.43 67.1073 Q2162.44 67.1073 2166.24 64.3527 Q2170.05 61.598 2170.05 56.4939 Q2170.05 52.0379 2167.3 49.5264 Q2164.58 47.0148 2158.34 45.759 L2153.36 44.7868 Q2144.21 42.9639 2140.11 39.075 Q2136.02 35.1862 2136.02 28.2591 Q2136.02 20.2383 2141.65 15.6203 Q2147.33 11.0023 2157.25 11.0023 Q2161.5 11.0023 2165.92 11.7719 Q2170.33 12.5416 2174.95 14.0809 Z" fill="#000000" fill-rule="nonzero" fill-opacity="1" /><path clip-path="url(#clip420)" d="M2191.03 27.2059 L2198.49 27.2059 L2198.49 72.576 L2191.03 72.576 L2191.03 27.2059 M2191.03 9.54393 L2198.49 9.54393 L2198.49 18.9825 L2191.03 18.9825 L2191.03 9.54393 Z" fill="#000000" fill-rule="nonzero" fill-opacity="1" /><path clip-path="url(#clip420)" d="M2249.41 35.9153 Q2252.2 30.8922 2256.09 28.5022 Q2259.98 26.1121 2265.25 26.1121 Q2272.34 26.1121 2276.18 31.0947 Q2280.03 36.0368 2280.03 45.1919 L2280.03 72.576 L2272.54 72.576 L2272.54 45.4349 Q2272.54 38.913 2270.23 35.7533 Q2267.92 32.5936 2263.18 32.5936 Q2257.39 32.5936 2254.03 36.4419 Q2250.66 40.2903 2250.66 46.9338 L2250.66 72.576 L2243.17 72.576 L2243.17 45.4349 Q2243.17 38.8725 2240.86 35.7533 Q2238.55 32.5936 2233.73 32.5936 Q2228.02 32.5936 2224.66 36.4824 Q2221.29 40.3308 2221.29 46.9338 L2221.29 72.576 L2213.8 72.576 L2213.8 27.2059 L2221.29 27.2059 L2221.29 34.2544 Q2223.85 30.082 2227.41 28.0971 Q2230.98 26.1121 2235.88 26.1121 Q2240.82 26.1121 2244.26 28.6237 Q2247.75 31.1352 2249.41 35.9153 Z" fill="#000000" fill-rule="nonzero" fill-opacity="1" /><path clip-path="url(#clip420)" d="M2294.13 54.671 L2294.13 27.2059 L2301.58 27.2059 L2301.58 54.3874 Q2301.58 60.8284 2304.1 64.0691 Q2306.61 67.2693 2311.63 67.2693 Q2317.67 67.2693 2321.15 63.421 Q2324.67 59.5726 2324.67 52.9291 L2324.67 27.2059 L2332.13 27.2059 L2332.13 72.576 L2324.67 72.576 L2324.67 65.6084 Q2321.96 69.7404 2318.35 71.7658 Q2314.79 73.7508 2310.05 73.7508 Q2302.23 73.7508 2298.18 68.8897 Q2294.13 64.0286 2294.13 54.671 M2312.89 26.1121 L2312.89 26.1121 Z" fill="#000000" fill-rule="nonzero" fill-opacity="1" /><path clip-path="url(#clip420)" d="M2347.48 9.54393 L2354.93 9.54393 L2354.93 72.576 L2347.48 72.576 L2347.48 9.54393 Z" fill="#000000" fill-rule="nonzero" fill-opacity="1" /><path clip-path="url(#clip420)" d="M2391.15 49.7694 Q2382.12 49.7694 2378.63 51.8354 Q2375.15 53.9013 2375.15 58.8839 Q2375.15 62.8538 2377.74 65.2034 Q2380.37 67.5124 2384.87 67.5124 Q2391.07 67.5124 2394.8 63.1374 Q2398.56 58.7219 2398.56 51.4303 L2398.56 49.7694 L2391.15 49.7694 M2406.02 46.6907 L2406.02 72.576 L2398.56 72.576 L2398.56 65.6895 Q2396.01 69.8214 2392.2 71.8063 Q2388.39 73.7508 2382.89 73.7508 Q2375.92 73.7508 2371.79 69.8619 Q2367.69 65.9325 2367.69 59.3701 Q2367.69 51.7138 2372.8 47.825 Q2377.94 43.9361 2388.11 43.9361 L2398.56 43.9361 L2398.56 43.2069 Q2398.56 38.0623 2395.16 35.2672 Q2391.8 32.4315 2385.68 32.4315 Q2381.79 32.4315 2378.11 33.3632 Q2374.42 34.295 2371.02 36.1584 L2371.02 29.2718 Q2375.11 27.692 2378.96 26.9223 Q2382.8 26.1121 2386.45 26.1121 Q2396.29 26.1121 2401.16 31.2163 Q2406.02 36.3204 2406.02 46.6907 Z" fill="#000000" fill-rule="nonzero" fill-opacity="1" /><path clip-path="url(#clip420)" d="M2428.74 14.324 L2428.74 27.2059 L2444.09 27.2059 L2444.09 32.9987 L2428.74 32.9987 L2428.74 57.6282 Q2428.74 63.1779 2430.24 64.7578 Q2431.78 66.3376 2436.44 66.3376 L2444.09 66.3376 L2444.09 72.576 L2436.44 72.576 Q2427.81 72.576 2424.53 69.3758 Q2421.25 66.1351 2421.25 57.6282 L2421.25 32.9987 L2415.78 32.9987 L2415.78 27.2059 L2421.25 27.2059 L2421.25 14.324 L2428.74 14.324 Z" fill="#000000" fill-rule="nonzero" fill-opacity="1" /><path clip-path="url(#clip420)" d="M2453.9 27.2059 L2461.35 27.2059 L2461.35 72.576 L2453.9 72.576 L2453.9 27.2059 M2453.9 9.54393 L2461.35 9.54393 L2461.35 18.9825 L2453.9 18.9825 L2453.9 9.54393 Z" fill="#000000" fill-rule="nonzero" fill-opacity="1" /><path clip-path="url(#clip420)" d="M2494.53 32.4315 Q2488.53 32.4315 2485.05 37.1306 Q2481.57 41.7891 2481.57 49.9314 Q2481.57 58.0738 2485.01 62.7728 Q2488.49 67.4314 2494.53 67.4314 Q2500.48 67.4314 2503.97 62.7323 Q2507.45 58.0333 2507.45 49.9314 Q2507.45 41.8701 2503.97 37.1711 Q2500.48 32.4315 2494.53 32.4315 M2494.53 26.1121 Q2504.25 26.1121 2509.8 32.4315 Q2515.35 38.7509 2515.35 49.9314 Q2515.35 61.0714 2509.8 67.4314 Q2504.25 73.7508 2494.53 73.7508 Q2484.77 73.7508 2479.22 67.4314 Q2473.71 61.0714 2473.71 49.9314 Q2473.71 38.7509 2479.22 32.4315 Q2484.77 26.1121 2494.53 26.1121 Z" fill="#000000" fill-rule="nonzero" fill-opacity="1" /><path clip-path="url(#clip420)" d="M2565.42 45.1919 L2565.42 72.576 L2557.97 72.576 L2557.97 45.4349 Q2557.97 38.994 2555.45 35.7938 Q2552.94 32.5936 2547.92 32.5936 Q2541.88 32.5936 2538.4 36.4419 Q2534.92 40.2903 2534.92 46.9338 L2534.92 72.576 L2527.42 72.576 L2527.42 27.2059 L2534.92 27.2059 L2534.92 34.2544 Q2537.59 30.163 2541.19 28.1376 Q2544.84 26.1121 2549.58 26.1121 Q2557.4 26.1121 2561.41 30.9732 Q2565.42 35.7938 2565.42 45.1919 Z" fill="#000000" fill-rule="nonzero" fill-opacity="1" /><path clip-path="url(#clip420)" d="M2602.89 46.5287 L2624.72 46.5287 L2624.72 53.1722 L2602.89 53.1722 L2602.89 46.5287 Z" fill="#000000" fill-rule="nonzero" fill-opacity="1" /><path clip-path="url(#clip420)" d="M2654.9 12.096 L2706.07 12.096 L2706.07 18.9825 L2684.6 18.9825 L2684.6 72.576 L2676.37 72.576 L2676.37 18.9825 L2654.9 18.9825 L2654.9 12.096 Z" fill="#000000" fill-rule="nonzero" fill-opacity="1" /><path clip-path="url(#clip420)" d="M2727.74 34.1734 Q2726.48 33.4443 2724.98 33.1202 Q2723.53 32.7556 2721.74 32.7556 Q2715.42 32.7556 2712.02 36.8875 Q2708.66 40.9789 2708.66 48.6757 L2708.66 72.576 L2701.17 72.576 L2701.17 27.2059 L2708.66 27.2059 L2708.66 34.2544 Q2711.01 30.1225 2714.78 28.1376 Q2718.54 26.1121 2723.93 26.1121 Q2724.7 26.1121 2725.63 26.2337 Q2726.56 26.3147 2727.7 26.5172 L2727.74 34.1734 Z" fill="#000000" fill-rule="nonzero" fill-opacity="1" /><path clip-path="url(#clip420)" d="M2756.18 49.7694 Q2747.14 49.7694 2743.66 51.8354 Q2740.18 53.9013 2740.18 58.8839 Q2740.18 62.8538 2742.77 65.2034 Q2745.4 67.5124 2749.9 67.5124 Q2756.1 67.5124 2759.82 63.1374 Q2763.59 58.7219 2763.59 51.4303 L2763.59 49.7694 L2756.18 49.7694 M2771.04 46.6907 L2771.04 72.576 L2763.59 72.576 L2763.59 65.6895 Q2761.04 69.8214 2757.23 71.8063 Q2753.42 73.7508 2747.91 73.7508 Q2740.94 73.7508 2736.81 69.8619 Q2732.72 65.9325 2732.72 59.3701 Q2732.72 51.7138 2737.83 47.825 Q2742.97 43.9361 2753.14 43.9361 L2763.59 43.9361 L2763.59 43.2069 Q2763.59 38.0623 2760.19 35.2672 Q2756.82 32.4315 2750.71 32.4315 Q2746.82 32.4315 2743.13 33.3632 Q2739.45 34.295 2736.04 36.1584 L2736.04 29.2718 Q2740.13 27.692 2743.98 26.9223 Q2747.83 26.1121 2751.48 26.1121 Q2761.32 26.1121 2766.18 31.2163 Q2771.04 36.3204 2771.04 46.6907 Z" fill="#000000" fill-rule="nonzero" fill-opacity="1" /><path clip-path="url(#clip420)" d="M2786.4 27.2059 L2793.85 27.2059 L2793.85 73.3862 Q2793.85 82.0551 2790.53 85.944 Q2787.25 89.8329 2779.91 89.8329 L2777.08 89.8329 L2777.08 83.5134 L2779.06 83.5134 Q2783.32 83.5134 2784.86 81.5285 Q2786.4 79.5841 2786.4 73.3862 L2786.4 27.2059 M2786.4 9.54393 L2793.85 9.54393 L2793.85 18.9825 L2786.4 18.9825 L2786.4 9.54393 Z" fill="#000000" fill-rule="nonzero" fill-opacity="1" /><path clip-path="url(#clip420)" d="M2848.25 48.0275 L2848.25 51.6733 L2813.98 51.6733 Q2814.47 59.3701 2818.6 63.421 Q2822.77 67.4314 2830.19 67.4314 Q2834.48 67.4314 2838.49 66.3781 Q2842.54 65.3249 2846.51 63.2184 L2846.51 70.267 Q2842.5 71.9684 2838.29 72.8596 Q2834.08 73.7508 2829.74 73.7508 Q2818.88 73.7508 2812.52 67.4314 Q2806.21 61.1119 2806.21 50.3365 Q2806.21 39.1965 2812.2 32.6746 Q2818.24 26.1121 2828.44 26.1121 Q2837.6 26.1121 2842.91 32.0264 Q2848.25 37.9003 2848.25 48.0275 M2840.8 45.84 Q2840.72 39.7232 2837.36 36.0774 Q2834.03 32.4315 2828.53 32.4315 Q2822.29 32.4315 2818.52 35.9558 Q2814.79 39.4801 2814.23 45.8805 L2840.8 45.84 Z" fill="#000000" fill-rule="nonzero" fill-opacity="1" /><path clip-path="url(#clip420)" d="M2893.14 28.9478 L2893.14 35.9153 Q2889.98 34.1734 2886.78 33.3227 Q2883.62 32.4315 2880.38 32.4315 Q2873.13 32.4315 2869.12 37.0496 Q2865.11 41.6271 2865.11 49.9314 Q2865.11 58.2358 2869.12 62.8538 Q2873.13 67.4314 2880.38 67.4314 Q2883.62 67.4314 2886.78 66.5807 Q2889.98 65.6895 2893.14 63.9476 L2893.14 70.8341 Q2890.02 72.2924 2886.66 73.0216 Q2883.33 73.7508 2879.57 73.7508 Q2869.32 73.7508 2863.28 67.3098 Q2857.25 60.8689 2857.25 49.9314 Q2857.25 38.832 2863.32 32.472 Q2869.44 26.1121 2880.05 26.1121 Q2883.5 26.1121 2886.78 26.8413 Q2890.06 27.5299 2893.14 28.9478 Z" fill="#000000" fill-rule="nonzero" fill-opacity="1" /><path clip-path="url(#clip420)" d="M2913.47 14.324 L2913.47 27.2059 L2928.83 27.2059 L2928.83 32.9987 L2913.47 32.9987 L2913.47 57.6282 Q2913.47 63.1779 2914.97 64.7578 Q2916.51 66.3376 2921.17 66.3376 L2928.83 66.3376 L2928.83 72.576 L2921.17 72.576 Q2912.54 72.576 2909.26 69.3758 Q2905.98 66.1351 2905.98 57.6282 L2905.98 32.9987 L2900.51 32.9987 L2900.51 27.2059 L2905.98 27.2059 L2905.98 14.324 L2913.47 14.324 Z" fill="#000000" fill-rule="nonzero" fill-opacity="1" /><path clip-path="url(#clip420)" d="M2956.21 32.4315 Q2950.21 32.4315 2946.73 37.1306 Q2943.25 41.7891 2943.25 49.9314 Q2943.25 58.0738 2946.69 62.7728 Q2950.17 67.4314 2956.21 67.4314 Q2962.16 67.4314 2965.65 62.7323 Q2969.13 58.0333 2969.13 49.9314 Q2969.13 41.8701 2965.65 37.1711 Q2962.16 32.4315 2956.21 32.4315 M2956.21 26.1121 Q2965.93 26.1121 2971.48 32.4315 Q2977.03 38.7509 2977.03 49.9314 Q2977.03 61.0714 2971.48 67.4314 Q2965.93 73.7508 2956.21 73.7508 Q2946.45 73.7508 2940.9 67.4314 Q2935.39 61.0714 2935.39 49.9314 Q2935.39 38.7509 2940.9 32.4315 Q2946.45 26.1121 2956.21 26.1121 Z" fill="#000000" fill-rule="nonzero" fill-opacity="1" /><path clip-path="url(#clip420)" d="M3015.68 34.1734 Q3014.42 33.4443 3012.92 33.1202 Q3011.46 32.7556 3009.68 32.7556 Q3003.36 32.7556 2999.96 36.8875 Q2996.6 40.9789 2996.6 48.6757 L2996.6 72.576 L2989.1 72.576 L2989.1 27.2059 L2996.6 27.2059 L2996.6 34.2544 Q2998.95 30.1225 3002.71 28.1376 Q3006.48 26.1121 3011.87 26.1121 Q3012.64 26.1121 3013.57 26.2337 Q3014.5 26.3147 3015.64 26.5172 L3015.68 34.1734 Z" fill="#000000" fill-rule="nonzero" fill-opacity="1" /><path clip-path="url(#clip420)" d="M3023.5 27.2059 L3030.95 27.2059 L3030.95 72.576 L3023.5 72.576 L3023.5 27.2059 M3023.5 9.54393 L3030.95 9.54393 L3030.95 18.9825 L3023.5 18.9825 L3023.5 9.54393 Z" fill="#000000" fill-rule="nonzero" fill-opacity="1" /><path clip-path="url(#clip420)" d="M3085.35 48.0275 L3085.35 51.6733 L3051.08 51.6733 Q3051.57 59.3701 3055.7 63.421 Q3059.87 67.4314 3067.29 67.4314 Q3071.58 67.4314 3075.59 66.3781 Q3079.64 65.3249 3083.61 63.2184 L3083.61 70.267 Q3079.6 71.9684 3075.39 72.8596 Q3071.17 73.7508 3066.84 73.7508 Q3055.98 73.7508 3049.62 67.4314 Q3043.3 61.1119 3043.3 50.3365 Q3043.3 39.1965 3049.3 32.6746 Q3055.34 26.1121 3065.54 26.1121 Q3074.7 26.1121 3080.01 32.0264 Q3085.35 37.9003 3085.35 48.0275 M3077.9 45.84 Q3077.82 39.7232 3074.46 36.0774 Q3071.13 32.4315 3065.62 32.4315 Q3059.39 32.4315 3055.62 35.9558 Q3051.89 39.4801 3051.33 45.8805 L3077.9 45.84 Z" fill="#000000" fill-rule="nonzero" fill-opacity="1" /><path clip-path="url(#clip420)" d="M3126.51 28.5427 L3126.51 35.5912 Q3123.35 33.9709 3119.95 33.1607 Q3116.54 32.3505 3112.9 32.3505 Q3107.35 32.3505 3104.55 34.0519 Q3101.8 35.7533 3101.8 39.156 Q3101.8 41.7486 3103.78 43.2475 Q3105.77 44.7058 3111.76 46.0426 L3114.32 46.6097 Q3122.26 48.3111 3125.58 51.4303 Q3128.94 54.509 3128.94 60.0587 Q3128.94 66.3781 3123.92 70.0644 Q3118.93 73.7508 3110.18 73.7508 Q3106.54 73.7508 3102.57 73.0216 Q3098.64 72.3329 3094.26 70.9151 L3094.26 63.2184 Q3098.4 65.3654 3102.41 66.4591 Q3106.42 67.5124 3110.35 67.5124 Q3115.61 67.5124 3118.45 65.73 Q3121.28 63.9071 3121.28 60.6258 Q3121.28 57.5877 3119.22 55.9673 Q3117.19 54.3469 3110.27 52.8481 L3107.67 52.2405 Q3100.75 50.7821 3097.67 47.7845 Q3094.59 44.7463 3094.59 39.4801 Q3094.59 33.0797 3099.13 29.5959 Q3103.66 26.1121 3112.01 26.1121 Q3116.14 26.1121 3119.79 26.7198 Q3123.43 27.3274 3126.51 28.5427 Z" fill="#000000" fill-rule="nonzero" fill-opacity="1" /><path clip-path="url(#clip420)" d="M3184.76 32.4315 Q3178.77 32.4315 3175.28 37.1306 Q3171.8 41.7891 3171.8 49.9314 Q3171.8 58.0738 3175.24 62.7728 Q3178.73 67.4314 3184.76 67.4314 Q3190.72 67.4314 3194.2 62.7323 Q3197.68 58.0333 3197.68 49.9314 Q3197.68 41.8701 3194.2 37.1711 Q3190.72 32.4315 3184.76 32.4315 M3184.76 26.1121 Q3194.48 26.1121 3200.03 32.4315 Q3205.58 38.7509 3205.58 49.9314 Q3205.58 61.0714 3200.03 67.4314 Q3194.48 73.7508 3184.76 73.7508 Q3175 73.7508 3169.45 67.4314 Q3163.94 61.0714 3163.94 49.9314 Q3163.94 38.7509 3169.45 32.4315 Q3175 26.1121 3184.76 26.1121 Z" fill="#000000" fill-rule="nonzero" fill-opacity="1" /><path clip-path="url(#clip420)" d="M3240.91 9.54393 L3240.91 15.7418 L3233.78 15.7418 Q3229.77 15.7418 3228.19 17.3622 Q3226.65 18.9825 3226.65 23.1955 L3226.65 27.2059 L3238.92 27.2059 L3238.92 32.9987 L3226.65 32.9987 L3226.65 72.576 L3219.15 72.576 L3219.15 32.9987 L3212.02 32.9987 L3212.02 27.2059 L3219.15 27.2059 L3219.15 24.0462 Q3219.15 16.471 3222.68 13.0277 Q3226.2 9.54393 3233.86 9.54393 L3240.91 9.54393 Z" fill="#000000" fill-rule="nonzero" fill-opacity="1" /><path clip-path="url(#clip420)" d="M3319.13 16.7545 L3319.13 25.383 Q3315 21.5346 3310.3 19.6307 Q3305.64 17.7268 3300.37 17.7268 Q3290 17.7268 3284.5 24.0867 Q3278.99 30.4061 3278.99 42.3968 Q3278.99 54.3469 3284.5 60.7069 Q3290 67.0263 3300.37 67.0263 Q3305.64 67.0263 3310.3 65.1223 Q3315 63.2184 3319.13 59.3701 L3319.13 67.9175 Q3314.84 70.8341 3310.02 72.2924 Q3305.24 73.7508 3299.89 73.7508 Q3286.16 73.7508 3278.26 65.3654 Q3270.36 56.9395 3270.36 42.3968 Q3270.36 27.8135 3278.26 19.4281 Q3286.16 11.0023 3299.89 11.0023 Q3305.32 11.0023 3310.1 12.4606 Q3314.92 13.8784 3319.13 16.7545 Z" fill="#000000" fill-rule="nonzero" fill-opacity="1" /><path clip-path="url(#clip420)" d="M3370.25 48.0275 L3370.25 51.6733 L3335.98 51.6733 Q3336.47 59.3701 3340.6 63.421 Q3344.77 67.4314 3352.19 67.4314 Q3356.48 67.4314 3360.49 66.3781 Q3364.54 65.3249 3368.51 63.2184 L3368.51 70.267 Q3364.5 71.9684 3360.29 72.8596 Q3356.07 73.7508 3351.74 73.7508 Q3340.88 73.7508 3334.52 67.4314 Q3328.2 61.1119 3328.2 50.3365 Q3328.2 39.1965 3334.2 32.6746 Q3340.24 26.1121 3350.44 26.1121 Q3359.6 26.1121 3364.91 32.0264 Q3370.25 37.9003 3370.25 48.0275 M3362.8 45.84 Q3362.72 39.7232 3359.36 36.0774 Q3356.03 32.4315 3350.53 32.4315 Q3344.29 32.4315 3340.52 35.9558 Q3336.79 39.4801 3336.23 45.8805 L3362.8 45.84 Z" fill="#000000" fill-rule="nonzero" fill-opacity="1" /><path clip-path="url(#clip420)" d="M3382.49 9.54393 L3389.94 9.54393 L3389.94 72.576 L3382.49 72.576 L3382.49 9.54393 Z" fill="#000000" fill-rule="nonzero" fill-opacity="1" /><path clip-path="url(#clip420)" d="M3405.54 9.54393 L3412.99 9.54393 L3412.99 72.576 L3405.54 72.576 L3405.54 9.54393 Z" fill="#000000" fill-rule="nonzero" fill-opacity="1" /><path clip-path="url(#clip420)" d="M3457.51 28.5427 L3457.51 35.5912 Q3454.35 33.9709 3450.95 33.1607 Q3447.54 32.3505 3443.9 32.3505 Q3438.35 32.3505 3435.55 34.0519 Q3432.8 35.7533 3432.8 39.156 Q3432.8 41.7486 3434.78 43.2475 Q3436.77 44.7058 3442.76 46.0426 L3445.32 46.6097 Q3453.26 48.3111 3456.58 51.4303 Q3459.94 54.509 3459.94 60.0587 Q3459.94 66.3781 3454.92 70.0644 Q3449.93 73.7508 3441.18 73.7508 Q3437.54 73.7508 3433.57 73.0216 Q3429.64 72.3329 3425.26 70.9151 L3425.26 63.2184 Q3429.4 65.3654 3433.41 66.4591 Q3437.42 67.5124 3441.35 67.5124 Q3446.61 67.5124 3449.45 65.73 Q3452.28 63.9071 3452.28 60.6258 Q3452.28 57.5877 3450.22 55.9673 Q3448.19 54.3469 3441.27 52.8481 L3438.67 52.2405 Q3431.75 50.7821 3428.67 47.7845 Q3425.59 44.7463 3425.59 39.4801 Q3425.59 33.0797 3430.13 29.5959 Q3434.66 26.1121 3443.01 26.1121 Q3447.14 26.1121 3450.78 26.7198 Q3454.43 27.3274 3457.51 28.5427 Z" fill="#000000" fill-rule="nonzero" fill-opacity="1" /><path clip-path="url(#clip420)" d="M3518.8 49.7694 Q3509.77 49.7694 3506.28 51.8354 Q3502.8 53.9013 3502.8 58.8839 Q3502.8 62.8538 3505.39 65.2034 Q3508.02 67.5124 3512.52 67.5124 Q3518.72 67.5124 3522.45 63.1374 Q3526.21 58.7219 3526.21 51.4303 L3526.21 49.7694 L3518.8 49.7694 M3533.67 46.6907 L3533.67 72.576 L3526.21 72.576 L3526.21 65.6895 Q3523.66 69.8214 3519.85 71.8063 Q3516.04 73.7508 3510.54 73.7508 Q3503.57 73.7508 3499.44 69.8619 Q3495.34 65.9325 3495.34 59.3701 Q3495.34 51.7138 3500.45 47.825 Q3505.59 43.9361 3515.76 43.9361 L3526.21 43.9361 L3526.21 43.2069 Q3526.21 38.0623 3522.81 35.2672 Q3519.45 32.4315 3513.33 32.4315 Q3509.44 32.4315 3505.76 33.3632 Q3502.07 34.295 3498.67 36.1584 L3498.67 29.2718 Q3502.76 27.692 3506.61 26.9223 Q3510.45 26.1121 3514.1 26.1121 Q3523.94 26.1121 3528.81 31.2163 Q3533.67 36.3204 3533.67 46.6907 Z" fill="#000000" fill-rule="nonzero" fill-opacity="1" /><path clip-path="url(#clip420)" d="M3596.01 49.7694 Q3586.98 49.7694 3583.49 51.8354 Q3580.01 53.9013 3580.01 58.8839 Q3580.01 62.8538 3582.6 65.2034 Q3585.23 67.5124 3589.73 67.5124 Q3595.93 67.5124 3599.66 63.1374 Q3603.42 58.7219 3603.42 51.4303 L3603.42 49.7694 L3596.01 49.7694 M3610.88 46.6907 L3610.88 72.576 L3603.42 72.576 L3603.42 65.6895 Q3600.87 69.8214 3597.06 71.8063 Q3593.26 73.7508 3587.75 73.7508 Q3580.78 73.7508 3576.65 69.8619 Q3572.56 65.9325 3572.56 59.3701 Q3572.56 51.7138 3577.66 47.825 Q3582.8 43.9361 3592.97 43.9361 L3603.42 43.9361 L3603.42 43.2069 Q3603.42 38.0623 3600.02 35.2672 Q3596.66 32.4315 3590.54 32.4315 Q3586.65 32.4315 3582.97 33.3632 Q3579.28 34.295 3575.88 36.1584 L3575.88 29.2718 Q3579.97 27.692 3583.82 26.9223 Q3587.66 26.1121 3591.31 26.1121 Q3601.15 26.1121 3606.02 31.2163 Q3610.88 36.3204 3610.88 46.6907 Z" fill="#000000" fill-rule="nonzero" fill-opacity="1" /><path clip-path="url(#clip420)" d="M3663.94 45.1919 L3663.94 72.576 L3656.49 72.576 L3656.49 45.4349 Q3656.49 38.994 3653.98 35.7938 Q3651.47 32.5936 3646.44 32.5936 Q3640.41 32.5936 3636.92 36.4419 Q3633.44 40.2903 3633.44 46.9338 L3633.44 72.576 L3625.95 72.576 L3625.95 27.2059 L3633.44 27.2059 L3633.44 34.2544 Q3636.11 30.163 3639.72 28.1376 Q3643.36 26.1121 3648.1 26.1121 Q3655.92 26.1121 3659.93 30.9732 Q3663.94 35.7938 3663.94 45.1919 Z" fill="#000000" fill-rule="nonzero" fill-opacity="1" /><path clip-path="url(#clip420)" d="M3708.67 34.0924 L3708.67 9.54393 L3716.12 9.54393 L3716.12 72.576 L3708.67 72.576 L3708.67 65.7705 Q3706.32 69.8214 3702.71 71.8063 Q3699.15 73.7508 3694.12 73.7508 Q3685.9 73.7508 3680.71 67.1883 Q3675.57 60.6258 3675.57 49.9314 Q3675.57 39.2371 3680.71 32.6746 Q3685.9 26.1121 3694.12 26.1121 Q3699.15 26.1121 3702.71 28.0971 Q3706.32 30.0415 3708.67 34.0924 M3683.27 49.9314 Q3683.27 58.1548 3686.63 62.8538 Q3690.03 67.5124 3695.95 67.5124 Q3701.86 67.5124 3705.26 62.8538 Q3708.67 58.1548 3708.67 49.9314 Q3708.67 41.7081 3705.26 37.0496 Q3701.86 32.3505 3695.95 32.3505 Q3690.03 32.3505 3686.63 37.0496 Q3683.27 41.7081 3683.27 49.9314 Z" fill="#000000" fill-rule="nonzero" fill-opacity="1" /><path clip-path="url(#clip420)" d="M3790.41 49.9314 Q3790.41 41.7081 3787.01 37.0496 Q3783.65 32.3505 3777.73 32.3505 Q3771.82 32.3505 3768.42 37.0496 Q3765.05 41.7081 3765.05 49.9314 Q3765.05 58.1548 3768.42 62.8538 Q3771.82 67.5124 3777.73 67.5124 Q3783.65 67.5124 3787.01 62.8538 Q3790.41 58.1548 3790.41 49.9314 M3765.05 34.0924 Q3767.4 30.0415 3770.97 28.0971 Q3774.57 26.1121 3779.56 26.1121 Q3787.82 26.1121 3792.96 32.6746 Q3798.15 39.2371 3798.15 49.9314 Q3798.15 60.6258 3792.96 67.1883 Q3787.82 73.7508 3779.56 73.7508 Q3774.57 73.7508 3770.97 71.8063 Q3767.4 69.8214 3765.05 65.7705 L3765.05 72.576 L3757.56 72.576 L3757.56 9.54393 L3765.05 9.54393 L3765.05 34.0924 Z" fill="#000000" fill-rule="nonzero" fill-opacity="1" /><path clip-path="url(#clip420)" d="M3812.41 29.6769 L3820.96 29.6769 L3820.96 39.9662 L3812.41 39.9662 L3812.41 29.6769 M3812.41 62.2867 L3820.96 62.2867 L3820.96 69.2543 L3814.31 82.2172 L3809.09 82.2172 L3812.41 69.2543 L3812.41 62.2867 Z" fill="#000000" fill-rule="nonzero" fill-opacity="1" /><path clip-path="url(#clip420)" d="M3865.15 12.096 L3876.17 12.096 L3902.99 62.6918 L3902.99 12.096 L3910.93 12.096 L3910.93 72.576 L3899.91 72.576 L3873.09 21.9802 L3873.09 72.576 L3865.15 72.576 L3865.15 12.096 Z" fill="#000000" fill-rule="nonzero" fill-opacity="1" /><path clip-path="url(#clip420)" d="M3927.86 34.9026 L3979.79 34.9026 L3979.79 41.7081 L3927.86 41.7081 L3927.86 34.9026 M3927.86 51.4303 L3979.79 51.4303 L3979.79 58.3168 L3927.86 58.3168 L3927.86 51.4303 Z" fill="#000000" fill-rule="nonzero" fill-opacity="1" /><path clip-path="url(#clip420)" d="M4004.5 65.6895 L4033.06 65.6895 L4033.06 72.576 L3994.66 72.576 L3994.66 65.6895 Q3999.32 60.8689 4007.34 52.7671 Q4015.4 44.6248 4017.47 42.2752 Q4021.4 37.8598 4022.93 34.8216 Q4024.51 31.7429 4024.51 28.7857 Q4024.51 23.9651 4021.11 20.927 Q4017.75 17.8888 4012.32 17.8888 Q4008.47 17.8888 4004.18 19.2256 Q3999.93 20.5624 3995.06 23.2765 L3995.06 15.0127 Q4000.01 13.0277 4004.3 12.015 Q4008.59 11.0023 4012.16 11.0023 Q4021.56 11.0023 4027.15 15.7013 Q4032.74 20.4004 4032.74 28.2591 Q4032.74 31.9859 4031.32 35.3482 Q4029.94 38.6699 4026.26 43.2069 Q4025.24 44.3817 4019.82 50.0125 Q4014.39 55.6027 4004.5 65.6895 Z" fill="#000000" fill-rule="nonzero" fill-opacity="1" /><path clip-path="url(#clip420)" d="M4051.09 62.2867 L4059.64 62.2867 L4059.64 69.2543 L4052.99 82.2172 L4047.77 82.2172 L4051.09 69.2543 L4051.09 62.2867 Z" fill="#000000" fill-rule="nonzero" fill-opacity="1" /><path clip-path="url(#clip420)" d="M4119.79 16.633 L4140.73 72.576 L4132.84 72.576 L4120.12 39.0345 L4104.48 72.576 L4096.58 72.576 L4116.47 29.0693 L4113.47 21.0485 Q4111.57 15.9444 4107.23 15.9444 L4103.35 15.9444 L4103.35 9.54393 L4108.08 9.62495 Q4117.24 9.74648 4119.79 16.633 Z" fill="#000000" fill-rule="nonzero" fill-opacity="1" /><path clip-path="url(#clip420)" d="M4152 34.9026 L4203.93 34.9026 L4203.93 41.7081 L4152 41.7081 L4152 34.9026 M4152 51.4303 L4203.93 51.4303 L4203.93 58.3168 L4152 58.3168 L4152 51.4303 Z" fill="#000000" fill-rule="nonzero" fill-opacity="1" /><path clip-path="url(#clip420)" d="M4244.07 19.2256 L4223.41 51.5113 L4244.07 51.5113 L4244.07 19.2256 M4241.93 12.096 L4252.22 12.096 L4252.22 51.5113 L4260.84 51.5113 L4260.84 58.3168 L4252.22 58.3168 L4252.22 72.576 L4244.07 72.576 L4244.07 58.3168 L4216.77 58.3168 L4216.77 50.4176 L4241.93 12.096 Z" fill="#000000" fill-rule="nonzero" fill-opacity="1" /><path clip-path="url(#clip420)" d="M4274.37 62.2867 L4282.92 62.2867 L4282.92 72.576 L4274.37 72.576 L4274.37 62.2867 Z" fill="#000000" fill-rule="nonzero" fill-opacity="1" /><path clip-path="url(#clip420)" d="M4300.83 12.096 L4332.95 12.096 L4332.95 18.9825 L4308.32 18.9825 L4308.32 33.8088 Q4310.1 33.2012 4311.89 32.9176 Q4313.67 32.5936 4315.45 32.5936 Q4325.58 32.5936 4331.49 38.1433 Q4337.41 43.6931 4337.41 53.1722 Q4337.41 62.9348 4331.33 68.3631 Q4325.25 73.7508 4314.19 73.7508 Q4310.39 73.7508 4306.42 73.1026 Q4302.49 72.4545 4298.27 71.1582 L4298.27 62.9348 Q4301.92 64.9198 4305.81 65.892 Q4309.7 66.8642 4314.03 66.8642 Q4321.04 66.8642 4325.13 63.1779 Q4329.22 59.4916 4329.22 53.1722 Q4329.22 46.8528 4325.13 43.1664 Q4321.04 39.4801 4314.03 39.4801 Q4310.75 39.4801 4307.47 40.2093 Q4304.23 40.9384 4300.83 42.4778 L4300.83 12.096 Z" fill="#000000" fill-rule="nonzero" fill-opacity="1" /><polyline clip-path="url(#clip422)" style="stroke:#0000ff; stroke-linecap:round; stroke-linejoin:round; stroke-width:8; stroke-opacity:1; fill:none" points="397.112,3657.45 419.377,3657.45 "/>
<polyline clip-path="url(#clip422)" style="stroke:#0000ff; stroke-linecap:round; stroke-linejoin:round; stroke-width:4; stroke-opacity:1; fill:none" stroke-dasharray="16, 10" points="419.377,3657.45 419.377,3657.45 "/>
<polyline clip-path="url(#clip422)" style="stroke:#0000ff; stroke-linecap:round; stroke-linejoin:round; stroke-width:8; stroke-opacity:1; fill:none" points="419.377,3657.45 529.398,3657.45 "/>
<polyline clip-path="url(#clip422)" style="stroke:#0000ff; stroke-linecap:round; stroke-linejoin:round; stroke-width:4; stroke-opacity:1; fill:none" stroke-dasharray="16, 10" points="529.398,3657.45 529.398,3657.45 "/>
<polyline clip-path="url(#clip422)" style="stroke:#0000ff; stroke-linecap:round; stroke-linejoin:round; stroke-width:8; stroke-opacity:1; fill:none" points="529.398,3657.45 619.212,3657.45 "/>
<polyline clip-path="url(#clip422)" style="stroke:#0000ff; stroke-linecap:round; stroke-linejoin:round; stroke-width:4; stroke-opacity:1; fill:none" stroke-dasharray="16, 10" points="619.212,3657.45 619.212,3657.45 "/>
<polyline clip-path="url(#clip422)" style="stroke:#0000ff; stroke-linecap:round; stroke-linejoin:round; stroke-width:8; stroke-opacity:1; fill:none" points="619.212,3657.45 646.241,3657.45 "/>
<polyline clip-path="url(#clip422)" style="stroke:#0000ff; stroke-linecap:round; stroke-linejoin:round; stroke-width:4; stroke-opacity:1; fill:none" stroke-dasharray="16, 10" points="646.241,3657.45 646.241,3657.45 "/>
<polyline clip-path="url(#clip422)" style="stroke:#0000ff; stroke-linecap:round; stroke-linejoin:round; stroke-width:8; stroke-opacity:1; fill:none" points="646.241,3657.45 675.229,3657.45 "/>
<polyline clip-path="url(#clip422)" style="stroke:#0000ff; stroke-linecap:round; stroke-linejoin:round; stroke-width:4; stroke-opacity:1; fill:none" stroke-dasharray="16, 10" points="675.229,3657.45 675.229,3657.45 "/>
<polyline clip-path="url(#clip422)" style="stroke:#0000ff; stroke-linecap:round; stroke-linejoin:round; stroke-width:8; stroke-opacity:1; fill:none" points="675.229,3657.45 941.509,3657.45 "/>
<polyline clip-path="url(#clip422)" style="stroke:#0000ff; stroke-linecap:round; stroke-linejoin:round; stroke-width:4; stroke-opacity:1; fill:none" stroke-dasharray="16, 10" points="941.509,3657.45 941.509,3657.45 "/>
<polyline clip-path="url(#clip422)" style="stroke:#0000ff; stroke-linecap:round; stroke-linejoin:round; stroke-width:8; stroke-opacity:1; fill:none" points="941.509,3657.45 1013.31,3657.45 "/>
<polyline clip-path="url(#clip422)" style="stroke:#0000ff; stroke-linecap:round; stroke-linejoin:round; stroke-width:4; stroke-opacity:1; fill:none" stroke-dasharray="16, 10" points="1013.31,3657.45 1013.31,1890.46 "/>
<polyline clip-path="url(#clip422)" style="stroke:#0000ff; stroke-linecap:round; stroke-linejoin:round; stroke-width:8; stroke-opacity:1; fill:none" points="1013.31,1890.46 1015.4,1890.46 "/>
<polyline clip-path="url(#clip422)" style="stroke:#0000ff; stroke-linecap:round; stroke-linejoin:round; stroke-width:4; stroke-opacity:1; fill:none" stroke-dasharray="16, 10" points="1015.4,1890.46 1015.4,3657.45 "/>
<polyline clip-path="url(#clip422)" style="stroke:#0000ff; stroke-linecap:round; stroke-linejoin:round; stroke-width:8; stroke-opacity:1; fill:none" points="1015.4,3657.45 1174.3,3657.45 "/>
<polyline clip-path="url(#clip422)" style="stroke:#0000ff; stroke-linecap:round; stroke-linejoin:round; stroke-width:4; stroke-opacity:1; fill:none" stroke-dasharray="16, 10" points="1174.3,3657.45 1174.3,1890.46 "/>
<polyline clip-path="url(#clip422)" style="stroke:#0000ff; stroke-linecap:round; stroke-linejoin:round; stroke-width:8; stroke-opacity:1; fill:none" points="1174.3,1890.46 1866.61,1890.46 "/>
<polyline clip-path="url(#clip422)" style="stroke:#0000ff; stroke-linecap:round; stroke-linejoin:round; stroke-width:4; stroke-opacity:1; fill:none" stroke-dasharray="16, 10" points="1866.61,1890.46 1866.61,123.472 "/>
<polyline clip-path="url(#clip422)" style="stroke:#0000ff; stroke-linecap:round; stroke-linejoin:round; stroke-width:8; stroke-opacity:1; fill:none" points="1866.61,123.472 1921.65,123.472 "/>
<polyline clip-path="url(#clip422)" style="stroke:#0000ff; stroke-linecap:round; stroke-linejoin:round; stroke-width:4; stroke-opacity:1; fill:none" stroke-dasharray="16, 10" points="1921.65,123.472 1921.65,123.472 "/>
<polyline clip-path="url(#clip422)" style="stroke:#0000ff; stroke-linecap:round; stroke-linejoin:round; stroke-width:8; stroke-opacity:1; fill:none" points="1921.65,123.472 2245.81,123.472 "/>
<polyline clip-path="url(#clip422)" style="stroke:#0000ff; stroke-linecap:round; stroke-linejoin:round; stroke-width:4; stroke-opacity:1; fill:none" stroke-dasharray="16, 10" points="2245.81,123.472 2245.81,1890.46 "/>
<polyline clip-path="url(#clip422)" style="stroke:#0000ff; stroke-linecap:round; stroke-linejoin:round; stroke-width:8; stroke-opacity:1; fill:none" points="2245.81,1890.46 2445.02,1890.46 "/>
<polyline clip-path="url(#clip422)" style="stroke:#0000ff; stroke-linecap:round; stroke-linejoin:round; stroke-width:4; stroke-opacity:1; fill:none" stroke-dasharray="16, 10" points="2445.02,1890.46 2445.02,123.472 "/>
<polyline clip-path="url(#clip422)" style="stroke:#0000ff; stroke-linecap:round; stroke-linejoin:round; stroke-width:8; stroke-opacity:1; fill:none" points="2445.02,123.472 2536.45,123.472 "/>
<polyline clip-path="url(#clip422)" style="stroke:#0000ff; stroke-linecap:round; stroke-linejoin:round; stroke-width:4; stroke-opacity:1; fill:none" stroke-dasharray="16, 10" points="2536.45,123.472 2536.45,1890.46 "/>
<polyline clip-path="url(#clip422)" style="stroke:#0000ff; stroke-linecap:round; stroke-linejoin:round; stroke-width:8; stroke-opacity:1; fill:none" points="2536.45,1890.46 3015.75,1890.46 "/>
<polyline clip-path="url(#clip422)" style="stroke:#0000ff; stroke-linecap:round; stroke-linejoin:round; stroke-width:4; stroke-opacity:1; fill:none" stroke-dasharray="16, 10" points="3015.75,1890.46 3015.75,1890.46 "/>
<polyline clip-path="url(#clip422)" style="stroke:#0000ff; stroke-linecap:round; stroke-linejoin:round; stroke-width:8; stroke-opacity:1; fill:none" points="3015.75,1890.46 3069.96,1890.46 "/>
<polyline clip-path="url(#clip422)" style="stroke:#0000ff; stroke-linecap:round; stroke-linejoin:round; stroke-width:4; stroke-opacity:1; fill:none" stroke-dasharray="16, 10" points="3069.96,1890.46 3069.96,3657.45 "/>
<polyline clip-path="url(#clip422)" style="stroke:#0000ff; stroke-linecap:round; stroke-linejoin:round; stroke-width:8; stroke-opacity:1; fill:none" points="3069.96,3657.45 3162,3657.45 "/>
<polyline clip-path="url(#clip422)" style="stroke:#0000ff; stroke-linecap:round; stroke-linejoin:round; stroke-width:4; stroke-opacity:1; fill:none" stroke-dasharray="16, 10" points="3162,3657.45 3162,1890.46 "/>
<polyline clip-path="url(#clip422)" style="stroke:#0000ff; stroke-linecap:round; stroke-linejoin:round; stroke-width:8; stroke-opacity:1; fill:none" points="3162,1890.46 3214.96,1890.46 "/>
<polyline clip-path="url(#clip422)" style="stroke:#0000ff; stroke-linecap:round; stroke-linejoin:round; stroke-width:4; stroke-opacity:1; fill:none" stroke-dasharray="16, 10" points="3214.96,1890.46 3214.96,123.472 "/>
<polyline clip-path="url(#clip422)" style="stroke:#0000ff; stroke-linecap:round; stroke-linejoin:round; stroke-width:8; stroke-opacity:1; fill:none" points="3214.96,123.472 3242.54,123.472 "/>
<polyline clip-path="url(#clip422)" style="stroke:#0000ff; stroke-linecap:round; stroke-linejoin:round; stroke-width:4; stroke-opacity:1; fill:none" stroke-dasharray="16, 10" points="3242.54,123.472 3242.54,123.472 "/>
<polyline clip-path="url(#clip422)" style="stroke:#0000ff; stroke-linecap:round; stroke-linejoin:round; stroke-width:8; stroke-opacity:1; fill:none" points="3242.54,123.472 3664.84,123.472 "/>
<polyline clip-path="url(#clip422)" style="stroke:#0000ff; stroke-linecap:round; stroke-linejoin:round; stroke-width:4; stroke-opacity:1; fill:none" stroke-dasharray="16, 10" points="3664.84,123.472 3664.84,1890.46 "/>
<polyline clip-path="url(#clip422)" style="stroke:#0000ff; stroke-linecap:round; stroke-linejoin:round; stroke-width:8; stroke-opacity:1; fill:none" points="3664.84,1890.46 3910.47,1890.46 "/>
<polyline clip-path="url(#clip422)" style="stroke:#0000ff; stroke-linecap:round; stroke-linejoin:round; stroke-width:4; stroke-opacity:1; fill:none" stroke-dasharray="16, 10" points="3910.47,1890.46 3910.47,1890.46 "/>
<polyline clip-path="url(#clip422)" style="stroke:#0000ff; stroke-linecap:round; stroke-linejoin:round; stroke-width:8; stroke-opacity:1; fill:none" points="3910.47,1890.46 4129.54,1890.46 "/>
<polyline clip-path="url(#clip422)" style="stroke:#0000ff; stroke-linecap:round; stroke-linejoin:round; stroke-width:4; stroke-opacity:1; fill:none" stroke-dasharray="16, 10" points="4129.54,1890.46 4129.54,3657.45 "/>
<polyline clip-path="url(#clip422)" style="stroke:#0000ff; stroke-linecap:round; stroke-linejoin:round; stroke-width:8; stroke-opacity:1; fill:none" points="4129.54,3657.45 4176,3657.45 "/>
<polyline clip-path="url(#clip422)" style="stroke:#0000ff; stroke-linecap:round; stroke-linejoin:round; stroke-width:4; stroke-opacity:1; fill:none" stroke-dasharray="16, 10" points="4176,3657.45 4176,1890.46 "/>
<polyline clip-path="url(#clip422)" style="stroke:#0000ff; stroke-linecap:round; stroke-linejoin:round; stroke-width:8; stroke-opacity:1; fill:none" points="4176,1890.46 4328.23,1890.46 "/>
<polyline clip-path="url(#clip422)" style="stroke:#0000ff; stroke-linecap:round; stroke-linejoin:round; stroke-width:4; stroke-opacity:1; fill:none" stroke-dasharray="16, 10" points="4328.23,1890.46 4328.23,123.472 "/>
<polyline clip-path="url(#clip422)" style="stroke:#0000ff; stroke-linecap:round; stroke-linejoin:round; stroke-width:8; stroke-opacity:1; fill:none" points="4328.23,123.472 4537.51,123.472 "/>
<polyline clip-path="url(#clip422)" style="stroke:#0000ff; stroke-linecap:round; stroke-linejoin:round; stroke-width:4; stroke-opacity:1; fill:none" stroke-dasharray="16, 10" points="4537.51,123.472 4537.51,123.472 "/>
<polyline clip-path="url(#clip422)" style="stroke:#0000ff; stroke-linecap:round; stroke-linejoin:round; stroke-width:8; stroke-opacity:1; fill:none" points="4537.51,123.472 5045.3,123.472 "/>
<polyline clip-path="url(#clip422)" style="stroke:#0000ff; stroke-linecap:round; stroke-linejoin:round; stroke-width:4; stroke-opacity:1; fill:none" stroke-dasharray="16, 10" points="5045.3,123.472 5045.3,123.472 "/>
<polyline clip-path="url(#clip422)" style="stroke:#0000ff; stroke-linecap:round; stroke-linejoin:round; stroke-width:8; stroke-opacity:1; fill:none" points="5045.3,123.472 5121.68,123.472 "/>
<polyline clip-path="url(#clip422)" style="stroke:#0000ff; stroke-linecap:round; stroke-linejoin:round; stroke-width:4; stroke-opacity:1; fill:none" stroke-dasharray="16, 10" points="5121.68,123.472 5121.68,123.472 "/>
<polyline clip-path="url(#clip422)" style="stroke:#0000ff; stroke-linecap:round; stroke-linejoin:round; stroke-width:8; stroke-opacity:1; fill:none" points="5121.68,123.472 5316.81,123.472 "/>
<polyline clip-path="url(#clip422)" style="stroke:#0000ff; stroke-linecap:round; stroke-linejoin:round; stroke-width:4; stroke-opacity:1; fill:none" stroke-dasharray="16, 10" points="5316.81,123.472 5316.81,1890.46 "/>
<polyline clip-path="url(#clip422)" style="stroke:#0000ff; stroke-linecap:round; stroke-linejoin:round; stroke-width:8; stroke-opacity:1; fill:none" points="5316.81,1890.46 5811.02,1890.46 "/>
<polyline clip-path="url(#clip422)" style="stroke:#ff0000; stroke-linecap:round; stroke-linejoin:round; stroke-width:8; stroke-opacity:1; fill:none" points="397.112,3657.45 419.377,3657.45 "/>
<polyline clip-path="url(#clip422)" style="stroke:#ff0000; stroke-linecap:round; stroke-linejoin:round; stroke-width:4; stroke-opacity:1; fill:none" stroke-dasharray="16, 10" points="419.377,3657.45 419.377,3657.45 "/>
<polyline clip-path="url(#clip422)" style="stroke:#ff0000; stroke-linecap:round; stroke-linejoin:round; stroke-width:8; stroke-opacity:1; fill:none" points="419.377,3657.45 529.398,3657.45 "/>
<polyline clip-path="url(#clip422)" style="stroke:#ff0000; stroke-linecap:round; stroke-linejoin:round; stroke-width:4; stroke-opacity:1; fill:none" stroke-dasharray="16, 10" points="529.398,3657.45 529.398,3657.45 "/>
<polyline clip-path="url(#clip422)" style="stroke:#ff0000; stroke-linecap:round; stroke-linejoin:round; stroke-width:8; stroke-opacity:1; fill:none" points="529.398,3657.45 619.212,3657.45 "/>
<polyline clip-path="url(#clip422)" style="stroke:#ff0000; stroke-linecap:round; stroke-linejoin:round; stroke-width:4; stroke-opacity:1; fill:none" stroke-dasharray="16, 10" points="619.212,3657.45 619.212,1890.46 "/>
<polyline clip-path="url(#clip422)" style="stroke:#ff0000; stroke-linecap:round; stroke-linejoin:round; stroke-width:8; stroke-opacity:1; fill:none" points="619.212,1890.46 646.241,1890.46 "/>
<polyline clip-path="url(#clip422)" style="stroke:#ff0000; stroke-linecap:round; stroke-linejoin:round; stroke-width:4; stroke-opacity:1; fill:none" stroke-dasharray="16, 10" points="646.241,1890.46 646.241,123.472 "/>
<polyline clip-path="url(#clip422)" style="stroke:#ff0000; stroke-linecap:round; stroke-linejoin:round; stroke-width:8; stroke-opacity:1; fill:none" points="646.241,123.472 675.229,123.472 "/>
<polyline clip-path="url(#clip422)" style="stroke:#ff0000; stroke-linecap:round; stroke-linejoin:round; stroke-width:4; stroke-opacity:1; fill:none" stroke-dasharray="16, 10" points="675.229,123.472 675.229,1890.46 "/>
<polyline clip-path="url(#clip422)" style="stroke:#ff0000; stroke-linecap:round; stroke-linejoin:round; stroke-width:8; stroke-opacity:1; fill:none" points="675.229,1890.46 941.509,1890.46 "/>
<polyline clip-path="url(#clip422)" style="stroke:#ff0000; stroke-linecap:round; stroke-linejoin:round; stroke-width:4; stroke-opacity:1; fill:none" stroke-dasharray="16, 10" points="941.509,1890.46 941.509,3657.45 "/>
<polyline clip-path="url(#clip422)" style="stroke:#ff0000; stroke-linecap:round; stroke-linejoin:round; stroke-width:8; stroke-opacity:1; fill:none" points="941.509,3657.45 1013.31,3657.45 "/>
<polyline clip-path="url(#clip422)" style="stroke:#ff0000; stroke-linecap:round; stroke-linejoin:round; stroke-width:4; stroke-opacity:1; fill:none" stroke-dasharray="16, 10" points="1013.31,3657.45 1013.31,3657.45 "/>
<polyline clip-path="url(#clip422)" style="stroke:#ff0000; stroke-linecap:round; stroke-linejoin:round; stroke-width:8; stroke-opacity:1; fill:none" points="1013.31,3657.45 1015.4,3657.45 "/>
<polyline clip-path="url(#clip422)" style="stroke:#ff0000; stroke-linecap:round; stroke-linejoin:round; stroke-width:4; stroke-opacity:1; fill:none" stroke-dasharray="16, 10" points="1015.4,3657.45 1015.4,3657.45 "/>
<polyline clip-path="url(#clip422)" style="stroke:#ff0000; stroke-linecap:round; stroke-linejoin:round; stroke-width:8; stroke-opacity:1; fill:none" points="1015.4,3657.45 1174.3,3657.45 "/>
<polyline clip-path="url(#clip422)" style="stroke:#ff0000; stroke-linecap:round; stroke-linejoin:round; stroke-width:4; stroke-opacity:1; fill:none" stroke-dasharray="16, 10" points="1174.3,3657.45 1174.3,3657.45 "/>
<polyline clip-path="url(#clip422)" style="stroke:#ff0000; stroke-linecap:round; stroke-linejoin:round; stroke-width:8; stroke-opacity:1; fill:none" points="1174.3,3657.45 1866.61,3657.45 "/>
<polyline clip-path="url(#clip422)" style="stroke:#ff0000; stroke-linecap:round; stroke-linejoin:round; stroke-width:4; stroke-opacity:1; fill:none" stroke-dasharray="16, 10" points="1866.61,3657.45 1866.61,3657.45 "/>
<polyline clip-path="url(#clip422)" style="stroke:#ff0000; stroke-linecap:round; stroke-linejoin:round; stroke-width:8; stroke-opacity:1; fill:none" points="1866.61,3657.45 1921.65,3657.45 "/>
<polyline clip-path="url(#clip422)" style="stroke:#ff0000; stroke-linecap:round; stroke-linejoin:round; stroke-width:4; stroke-opacity:1; fill:none" stroke-dasharray="16, 10" points="1921.65,3657.45 1921.65,3657.45 "/>
<polyline clip-path="url(#clip422)" style="stroke:#ff0000; stroke-linecap:round; stroke-linejoin:round; stroke-width:8; stroke-opacity:1; fill:none" points="1921.65,3657.45 2245.81,3657.45 "/>
<polyline clip-path="url(#clip422)" style="stroke:#ff0000; stroke-linecap:round; stroke-linejoin:round; stroke-width:4; stroke-opacity:1; fill:none" stroke-dasharray="16, 10" points="2245.81,3657.45 2245.81,3657.45 "/>
<polyline clip-path="url(#clip422)" style="stroke:#ff0000; stroke-linecap:round; stroke-linejoin:round; stroke-width:8; stroke-opacity:1; fill:none" points="2245.81,3657.45 2445.02,3657.45 "/>
<polyline clip-path="url(#clip422)" style="stroke:#ff0000; stroke-linecap:round; stroke-linejoin:round; stroke-width:4; stroke-opacity:1; fill:none" stroke-dasharray="16, 10" points="2445.02,3657.45 2445.02,3657.45 "/>
<polyline clip-path="url(#clip422)" style="stroke:#ff0000; stroke-linecap:round; stroke-linejoin:round; stroke-width:8; stroke-opacity:1; fill:none" points="2445.02,3657.45 2536.45,3657.45 "/>
<polyline clip-path="url(#clip422)" style="stroke:#ff0000; stroke-linecap:round; stroke-linejoin:round; stroke-width:4; stroke-opacity:1; fill:none" stroke-dasharray="16, 10" points="2536.45,3657.45 2536.45,3657.45 "/>
<polyline clip-path="url(#clip422)" style="stroke:#ff0000; stroke-linecap:round; stroke-linejoin:round; stroke-width:8; stroke-opacity:1; fill:none" points="2536.45,3657.45 3015.75,3657.45 "/>
<polyline clip-path="url(#clip422)" style="stroke:#ff0000; stroke-linecap:round; stroke-linejoin:round; stroke-width:4; stroke-opacity:1; fill:none" stroke-dasharray="16, 10" points="3015.75,3657.45 3015.75,3657.45 "/>
<polyline clip-path="url(#clip422)" style="stroke:#ff0000; stroke-linecap:round; stroke-linejoin:round; stroke-width:8; stroke-opacity:1; fill:none" points="3015.75,3657.45 3069.96,3657.45 "/>
<polyline clip-path="url(#clip422)" style="stroke:#ff0000; stroke-linecap:round; stroke-linejoin:round; stroke-width:4; stroke-opacity:1; fill:none" stroke-dasharray="16, 10" points="3069.96,3657.45 3069.96,3657.45 "/>
<polyline clip-path="url(#clip422)" style="stroke:#ff0000; stroke-linecap:round; stroke-linejoin:round; stroke-width:8; stroke-opacity:1; fill:none" points="3069.96,3657.45 3162,3657.45 "/>
<polyline clip-path="url(#clip422)" style="stroke:#ff0000; stroke-linecap:round; stroke-linejoin:round; stroke-width:4; stroke-opacity:1; fill:none" stroke-dasharray="16, 10" points="3162,3657.45 3162,3657.45 "/>
<polyline clip-path="url(#clip422)" style="stroke:#ff0000; stroke-linecap:round; stroke-linejoin:round; stroke-width:8; stroke-opacity:1; fill:none" points="3162,3657.45 3214.96,3657.45 "/>
<polyline clip-path="url(#clip422)" style="stroke:#ff0000; stroke-linecap:round; stroke-linejoin:round; stroke-width:4; stroke-opacity:1; fill:none" stroke-dasharray="16, 10" points="3214.96,3657.45 3214.96,3657.45 "/>
<polyline clip-path="url(#clip422)" style="stroke:#ff0000; stroke-linecap:round; stroke-linejoin:round; stroke-width:8; stroke-opacity:1; fill:none" points="3214.96,3657.45 3242.54,3657.45 "/>
<polyline clip-path="url(#clip422)" style="stroke:#ff0000; stroke-linecap:round; stroke-linejoin:round; stroke-width:4; stroke-opacity:1; fill:none" stroke-dasharray="16, 10" points="3242.54,3657.45 3242.54,1890.46 "/>
<polyline clip-path="url(#clip422)" style="stroke:#ff0000; stroke-linecap:round; stroke-linejoin:round; stroke-width:8; stroke-opacity:1; fill:none" points="3242.54,1890.46 3664.84,1890.46 "/>
<polyline clip-path="url(#clip422)" style="stroke:#ff0000; stroke-linecap:round; stroke-linejoin:round; stroke-width:4; stroke-opacity:1; fill:none" stroke-dasharray="16, 10" points="3664.84,1890.46 3664.84,1890.46 "/>
<polyline clip-path="url(#clip422)" style="stroke:#ff0000; stroke-linecap:round; stroke-linejoin:round; stroke-width:8; stroke-opacity:1; fill:none" points="3664.84,1890.46 3910.47,1890.46 "/>
<polyline clip-path="url(#clip422)" style="stroke:#ff0000; stroke-linecap:round; stroke-linejoin:round; stroke-width:4; stroke-opacity:1; fill:none" stroke-dasharray="16, 10" points="3910.47,1890.46 3910.47,123.472 "/>
<polyline clip-path="url(#clip422)" style="stroke:#ff0000; stroke-linecap:round; stroke-linejoin:round; stroke-width:8; stroke-opacity:1; fill:none" points="3910.47,123.472 4129.54,123.472 "/>
<polyline clip-path="url(#clip422)" style="stroke:#ff0000; stroke-linecap:round; stroke-linejoin:round; stroke-width:4; stroke-opacity:1; fill:none" stroke-dasharray="16, 10" points="4129.54,123.472 4129.54,123.472 "/>
<polyline clip-path="url(#clip422)" style="stroke:#ff0000; stroke-linecap:round; stroke-linejoin:round; stroke-width:8; stroke-opacity:1; fill:none" points="4129.54,123.472 4176,123.472 "/>
<polyline clip-path="url(#clip422)" style="stroke:#ff0000; stroke-linecap:round; stroke-linejoin:round; stroke-width:4; stroke-opacity:1; fill:none" stroke-dasharray="16, 10" points="4176,123.472 4176,123.472 "/>
<polyline clip-path="url(#clip422)" style="stroke:#ff0000; stroke-linecap:round; stroke-linejoin:round; stroke-width:8; stroke-opacity:1; fill:none" points="4176,123.472 4328.23,123.472 "/>
<polyline clip-path="url(#clip422)" style="stroke:#ff0000; stroke-linecap:round; stroke-linejoin:round; stroke-width:4; stroke-opacity:1; fill:none" stroke-dasharray="16, 10" points="4328.23,123.472 4328.23,123.472 "/>
<polyline clip-path="url(#clip422)" style="stroke:#ff0000; stroke-linecap:round; stroke-linejoin:round; stroke-width:8; stroke-opacity:1; fill:none" points="4328.23,123.472 4537.51,123.472 "/>
<polyline clip-path="url(#clip422)" style="stroke:#ff0000; stroke-linecap:round; stroke-linejoin:round; stroke-width:4; stroke-opacity:1; fill:none" stroke-dasharray="16, 10" points="4537.51,123.472 4537.51,1890.46 "/>
<polyline clip-path="url(#clip422)" style="stroke:#ff0000; stroke-linecap:round; stroke-linejoin:round; stroke-width:8; stroke-opacity:1; fill:none" points="4537.51,1890.46 5045.3,1890.46 "/>
<polyline clip-path="url(#clip422)" style="stroke:#ff0000; stroke-linecap:round; stroke-linejoin:round; stroke-width:4; stroke-opacity:1; fill:none" stroke-dasharray="16, 10" points="5045.3,1890.46 5045.3,1890.46 "/>
<polyline clip-path="url(#clip422)" style="stroke:#ff0000; stroke-linecap:round; stroke-linejoin:round; stroke-width:8; stroke-opacity:1; fill:none" points="5045.3,1890.46 5121.68,1890.46 "/>
<polyline clip-path="url(#clip422)" style="stroke:#ff0000; stroke-linecap:round; stroke-linejoin:round; stroke-width:4; stroke-opacity:1; fill:none" stroke-dasharray="16, 10" points="5121.68,1890.46 5121.68,3657.45 "/>
<polyline clip-path="url(#clip422)" style="stroke:#ff0000; stroke-linecap:round; stroke-linejoin:round; stroke-width:8; stroke-opacity:1; fill:none" points="5121.68,3657.45 5316.81,3657.45 "/>
<polyline clip-path="url(#clip422)" style="stroke:#ff0000; stroke-linecap:round; stroke-linejoin:round; stroke-width:4; stroke-opacity:1; fill:none" stroke-dasharray="16, 10" points="5316.81,3657.45 5316.81,3657.45 "/>
<polyline clip-path="url(#clip422)" style="stroke:#ff0000; stroke-linecap:round; stroke-linejoin:round; stroke-width:8; stroke-opacity:1; fill:none" points="5316.81,3657.45 5811.02,3657.45 "/>
<path clip-path="url(#clip420)" d="M4960.65 396.791 L5630.56 396.791 L5630.56 241.271 L4960.65 241.271  Z" fill="#ffffff" fill-rule="evenodd" fill-opacity="1"/>
<polyline clip-path="url(#clip420)" style="stroke:#000000; stroke-linecap:round; stroke-linejoin:round; stroke-width:4; stroke-opacity:1; fill:none" points="4960.65,396.791 5630.56,396.791 5630.56,241.271 4960.65,241.271 4960.65,396.791 "/>
<polyline clip-path="url(#clip420)" style="stroke:#0000ff; stroke-linecap:round; stroke-linejoin:round; stroke-width:8; stroke-opacity:1; fill:none" points="5020.81,293.111 5381.73,293.111 "/>
<path clip-path="url(#clip420)" d="M5469.76 278.493 L5469.76 283.424 Q5467.4 281.225 5464.71 280.137 Q5462.05 279.049 5459.04 279.049 Q5453.11 279.049 5449.97 282.683 Q5446.82 286.294 5446.82 293.146 Q5446.82 299.975 5449.97 303.609 Q5453.11 307.22 5459.04 307.22 Q5462.05 307.22 5464.71 306.132 Q5467.4 305.044 5469.76 302.845 L5469.76 307.729 Q5467.3 309.396 5464.55 310.229 Q5461.82 311.063 5458.76 311.063 Q5450.92 311.063 5446.4 306.271 Q5441.89 301.456 5441.89 293.146 Q5441.89 284.813 5446.4 280.021 Q5450.92 275.206 5458.76 275.206 Q5461.86 275.206 5464.6 276.04 Q5467.35 276.85 5469.76 278.493 Z" fill="#000000" fill-rule="nonzero" fill-opacity="1" /><path clip-path="url(#clip420)" d="M5498.97 296.364 L5498.97 298.447 L5479.39 298.447 Q5479.67 302.845 5482.03 305.16 Q5484.41 307.452 5488.65 307.452 Q5491.1 307.452 5493.39 306.85 Q5495.71 306.248 5497.98 305.044 L5497.98 309.072 Q5495.68 310.044 5493.28 310.553 Q5490.87 311.063 5488.39 311.063 Q5482.19 311.063 5478.55 307.452 Q5474.94 303.84 5474.94 297.683 Q5474.94 291.317 5478.37 287.591 Q5481.82 283.841 5487.65 283.841 Q5492.88 283.841 5495.92 287.22 Q5498.97 290.577 5498.97 296.364 M5494.71 295.114 Q5494.67 291.618 5492.74 289.535 Q5490.85 287.452 5487.7 287.452 Q5484.13 287.452 5481.98 289.465 Q5479.85 291.479 5479.53 295.137 L5494.71 295.114 Z" fill="#000000" fill-rule="nonzero" fill-opacity="1" /><path clip-path="url(#clip420)" d="M5505.96 274.373 L5510.22 274.373 L5510.22 310.391 L5505.96 310.391 L5505.96 274.373 Z" fill="#000000" fill-rule="nonzero" fill-opacity="1" /><path clip-path="url(#clip420)" d="M5519.13 274.373 L5523.39 274.373 L5523.39 310.391 L5519.13 310.391 L5519.13 274.373 Z" fill="#000000" fill-rule="nonzero" fill-opacity="1" /><path clip-path="url(#clip420)" d="M5559.16 297.359 Q5553.99 297.359 5552 298.54 Q5550.01 299.72 5550.01 302.567 Q5550.01 304.836 5551.49 306.178 Q5553 307.498 5555.57 307.498 Q5559.11 307.498 5561.24 304.998 Q5563.39 302.475 5563.39 298.308 L5563.39 297.359 L5559.16 297.359 M5567.65 295.6 L5567.65 310.391 L5563.39 310.391 L5563.39 306.456 Q5561.93 308.817 5559.76 309.951 Q5557.58 311.063 5554.43 311.063 Q5550.45 311.063 5548.09 308.84 Q5545.75 306.595 5545.75 302.845 Q5545.75 298.47 5548.67 296.248 Q5551.61 294.026 5557.42 294.026 L5563.39 294.026 L5563.39 293.609 Q5563.39 290.669 5561.45 289.072 Q5559.53 287.452 5556.03 287.452 Q5553.81 287.452 5551.7 287.984 Q5549.6 288.516 5547.65 289.581 L5547.65 285.646 Q5549.99 284.743 5552.19 284.303 Q5554.39 283.841 5556.47 283.841 Q5562.1 283.841 5564.87 286.757 Q5567.65 289.674 5567.65 295.6 Z" fill="#000000" fill-rule="nonzero" fill-opacity="1" /><polyline clip-path="url(#clip420)" style="stroke:#ff0000; stroke-linecap:round; stroke-linejoin:round; stroke-width:8; stroke-opacity:1; fill:none" points="5020.81,344.951 5381.73,344.951 "/>
<path clip-path="url(#clip420)" d="M5469.76 330.333 L5469.76 335.264 Q5467.4 333.065 5464.71 331.977 Q5462.05 330.889 5459.04 330.889 Q5453.11 330.889 5449.97 334.523 Q5446.82 338.134 5446.82 344.986 Q5446.82 351.815 5449.97 355.449 Q5453.11 359.06 5459.04 359.06 Q5462.05 359.06 5464.71 357.972 Q5467.4 356.884 5469.76 354.685 L5469.76 359.569 Q5467.3 361.236 5464.55 362.069 Q5461.82 362.903 5458.76 362.903 Q5450.92 362.903 5446.4 358.111 Q5441.89 353.296 5441.89 344.986 Q5441.89 336.653 5446.4 331.861 Q5450.92 327.046 5458.76 327.046 Q5461.86 327.046 5464.6 327.88 Q5467.35 328.69 5469.76 330.333 Z" fill="#000000" fill-rule="nonzero" fill-opacity="1" /><path clip-path="url(#clip420)" d="M5498.97 348.204 L5498.97 350.287 L5479.39 350.287 Q5479.67 354.685 5482.03 357 Q5484.41 359.292 5488.65 359.292 Q5491.1 359.292 5493.39 358.69 Q5495.71 358.088 5497.98 356.884 L5497.98 360.912 Q5495.68 361.884 5493.28 362.393 Q5490.87 362.903 5488.39 362.903 Q5482.19 362.903 5478.55 359.292 Q5474.94 355.68 5474.94 349.523 Q5474.94 343.157 5478.37 339.431 Q5481.82 335.681 5487.65 335.681 Q5492.88 335.681 5495.92 339.06 Q5498.97 342.417 5498.97 348.204 M5494.71 346.954 Q5494.67 343.458 5492.74 341.375 Q5490.85 339.292 5487.7 339.292 Q5484.13 339.292 5481.98 341.305 Q5479.85 343.319 5479.53 346.977 L5494.71 346.954 Z" fill="#000000" fill-rule="nonzero" fill-opacity="1" /><path clip-path="url(#clip420)" d="M5505.96 326.213 L5510.22 326.213 L5510.22 362.231 L5505.96 362.231 L5505.96 326.213 Z" fill="#000000" fill-rule="nonzero" fill-opacity="1" /><path clip-path="url(#clip420)" d="M5519.13 326.213 L5523.39 326.213 L5523.39 362.231 L5519.13 362.231 L5519.13 326.213 Z" fill="#000000" fill-rule="nonzero" fill-opacity="1" /><path clip-path="url(#clip420)" d="M5565.98 349.292 Q5565.98 344.593 5564.04 341.93 Q5562.12 339.245 5558.74 339.245 Q5555.36 339.245 5553.41 341.93 Q5551.49 344.593 5551.49 349.292 Q5551.49 353.991 5553.41 356.676 Q5555.36 359.338 5558.74 359.338 Q5562.12 359.338 5564.04 356.676 Q5565.98 353.991 5565.98 349.292 M5551.49 340.241 Q5552.84 337.926 5554.87 336.815 Q5556.93 335.681 5559.78 335.681 Q5564.5 335.681 5567.44 339.431 Q5570.41 343.18 5570.41 349.292 Q5570.41 355.403 5567.44 359.153 Q5564.5 362.903 5559.78 362.903 Q5556.93 362.903 5554.87 361.791 Q5552.84 360.657 5551.49 358.342 L5551.49 362.231 L5547.21 362.231 L5547.21 326.213 L5551.49 326.213 L5551.49 340.241 Z" fill="#000000" fill-rule="nonzero" fill-opacity="1" /></svg>
