<?xml version="1.0" encoding="utf-8"?>
<svg xmlns="http://www.w3.org/2000/svg" xmlns:xlink="http://www.w3.org/1999/xlink" width="1500" height="1000" viewBox="0 0 6000 4000">
<defs>
  <clipPath id="clip070">
    <rect x="0" y="0" width="6000" height="4000"/>
  </clipPath>
</defs>
<path clip-path="url(#clip070)" d="M0 4000 L6000 4000 L6000 2.22045e-13 L0 2.22045e-13  Z" fill="#ffffff" fill-rule="evenodd" fill-opacity="1"/>
<defs>
  <clipPath id="clip071">
    <rect x="1200" y="0" width="4201" height="4000"/>
  </clipPath>
</defs>
<path clip-path="url(#clip070)" d="M353.177 3657.45 L5811.02 3657.45 L5811.02 123.472 L353.177 123.472  Z" fill="#ffffff" fill-rule="evenodd" fill-opacity="1"/>
<defs>
  <clipPath id="clip072">
    <rect x="353" y="123" width="5459" height="3535"/>
  </clipPath>
</defs>
<polyline clip-path="url(#clip072)" style="stroke:#000000; stroke-linecap:round; stroke-linejoin:round; stroke-width:2; stroke-opacity:0.1; fill:none" points="353.177,3657.45 353.177,123.472 "/>
<polyline clip-path="url(#clip072)" style="stroke:#000000; stroke-linecap:round; stroke-linejoin:round; stroke-width:2; stroke-opacity:0.1; fill:none" points="1444.75,3657.45 1444.75,123.472 "/>
<polyline clip-path="url(#clip072)" style="stroke:#000000; stroke-linecap:round; stroke-linejoin:round; stroke-width:2; stroke-opacity:0.1; fill:none" points="2536.32,3657.45 2536.32,123.472 "/>
<polyline clip-path="url(#clip072)" style="stroke:#000000; stroke-linecap:round; stroke-linejoin:round; stroke-width:2; stroke-opacity:0.1; fill:none" points="3627.89,3657.45 3627.89,123.472 "/>
<polyline clip-path="url(#clip072)" style="stroke:#000000; stroke-linecap:round; stroke-linejoin:round; stroke-width:2; stroke-opacity:0.1; fill:none" points="4719.45,3657.45 4719.45,123.472 "/>
<polyline clip-path="url(#clip072)" style="stroke:#000000; stroke-linecap:round; stroke-linejoin:round; stroke-width:2; stroke-opacity:0.1; fill:none" points="5811.02,3657.45 5811.02,123.472 "/>
<polyline clip-path="url(#clip072)" style="stroke:#000000; stroke-linecap:round; stroke-linejoin:round; stroke-width:2; stroke-opacity:0.1; fill:none" points="353.177,3657.45 5811.02,3657.45 "/>
<polyline clip-path="url(#clip072)" style="stroke:#000000; stroke-linecap:round; stroke-linejoin:round; stroke-width:2; stroke-opacity:0.1; fill:none" points="353.177,2773.95 5811.02,2773.95 "/>
<polyline clip-path="url(#clip072)" style="stroke:#000000; stroke-linecap:round; stroke-linejoin:round; stroke-width:2; stroke-opacity:0.1; fill:none" points="353.177,1890.46 5811.02,1890.46 "/>
<polyline clip-path="url(#clip072)" style="stroke:#000000; stroke-linecap:round; stroke-linejoin:round; stroke-width:2; stroke-opacity:0.1; fill:none" points="353.177,1006.97 5811.02,1006.97 "/>
<polyline clip-path="url(#clip072)" style="stroke:#000000; stroke-linecap:round; stroke-linejoin:round; stroke-width:2; stroke-opacity:0.1; fill:none" points="353.177,123.472 5811.02,123.472 "/>
<polyline clip-path="url(#clip070)" style="stroke:#000000; stroke-linecap:round; stroke-linejoin:round; stroke-width:4; stroke-opacity:1; fill:none" points="353.177,3657.45 5811.02,3657.45 "/>
<polyline clip-path="url(#clip070)" style="stroke:#000000; stroke-linecap:round; stroke-linejoin:round; stroke-width:4; stroke-opacity:1; fill:none" points="353.177,3657.45 353.177,3638.55 "/>
<polyline clip-path="url(#clip070)" style="stroke:#000000; stroke-linecap:round; stroke-linejoin:round; stroke-width:4; stroke-opacity:1; fill:none" points="1444.75,3657.45 1444.75,3638.55 "/>
<polyline clip-path="url(#clip070)" style="stroke:#000000; stroke-linecap:round; stroke-linejoin:round; stroke-width:4; stroke-opacity:1; fill:none" points="2536.32,3657.45 2536.32,3638.55 "/>
<polyline clip-path="url(#clip070)" style="stroke:#000000; stroke-linecap:round; stroke-linejoin:round; stroke-width:4; stroke-opacity:1; fill:none" points="3627.89,3657.45 3627.89,3638.55 "/>
<polyline clip-path="url(#clip070)" style="stroke:#000000; stroke-linecap:round; stroke-linejoin:round; stroke-width:4; stroke-opacity:1; fill:none" points="4719.45,3657.45 4719.45,3638.55 "/>
<polyline clip-path="url(#clip070)" style="stroke:#000000; stroke-linecap:round; stroke-linejoin:round; stroke-width:4; stroke-opacity:1; fill:none" points="5811.02,3657.45 5811.02,3638.55 "/>
<path clip-path="url(#clip070)" d="M353.177 3717.17 Q349.566 3717.17 347.738 3720.73 Q345.932 3724.27 345.932 3731.4 Q345.932 3738.51 347.738 3742.07 Q349.566 3745.62 353.177 3745.62 Q356.812 3745.62 358.617 3742.07 Q360.446 3738.51 360.446 3731.4 Q360.446 3724.27 358.617 3720.73 Q356.812 3717.17 353.177 3717.17 M353.177 3713.46 Q358.988 3713.46 362.043 3718.07 Q365.122 3722.65 365.122 3731.4 Q365.122 3740.13 362.043 3744.74 Q358.988 3749.32 353.177 3749.32 Q347.367 3749.32 344.289 3744.74 Q341.233 3740.13 341.233 3731.4 Q341.233 3722.65 344.289 3718.07 Q347.367 3713.46 353.177 3713.46 Z" fill="#000000" fill-rule="nonzero" fill-opacity="1" /><path clip-path="url(#clip070)" d="M1423.52 3744.71 L1439.84 3744.71 L1439.84 3748.65 L1417.9 3748.65 L1417.9 3744.71 Q1420.56 3741.96 1425.14 3737.33 Q1429.75 3732.68 1430.93 3731.33 Q1433.17 3728.81 1434.05 3727.07 Q1434.96 3725.31 1434.96 3723.62 Q1434.96 3720.87 1433.01 3719.13 Q1431.09 3717.4 1427.99 3717.4 Q1425.79 3717.4 1423.33 3718.16 Q1420.9 3718.93 1418.13 3720.48 L1418.13 3715.75 Q1420.95 3714.62 1423.4 3714.04 Q1425.86 3713.46 1427.89 3713.46 Q1433.27 3713.46 1436.46 3716.15 Q1439.65 3718.83 1439.65 3723.32 Q1439.65 3725.45 1438.84 3727.37 Q1438.06 3729.27 1435.95 3731.87 Q1435.37 3732.54 1432.27 3735.75 Q1429.17 3738.95 1423.52 3744.71 Z" fill="#000000" fill-rule="nonzero" fill-opacity="1" /><path clip-path="url(#clip070)" d="M1459.65 3717.17 Q1456.04 3717.17 1454.21 3720.73 Q1452.41 3724.27 1452.41 3731.4 Q1452.41 3738.51 1454.21 3742.07 Q1456.04 3745.62 1459.65 3745.62 Q1463.29 3745.62 1465.09 3742.07 Q1466.92 3738.51 1466.92 3731.4 Q1466.92 3724.27 1465.09 3720.73 Q1463.29 3717.17 1459.65 3717.17 M1459.65 3713.46 Q1465.46 3713.46 1468.52 3718.07 Q1471.6 3722.65 1471.6 3731.4 Q1471.6 3740.13 1468.52 3744.74 Q1465.46 3749.32 1459.65 3749.32 Q1453.84 3749.32 1450.77 3744.74 Q1447.71 3740.13 1447.71 3731.4 Q1447.71 3722.65 1450.77 3718.07 Q1453.84 3713.46 1459.65 3713.46 Z" fill="#000000" fill-rule="nonzero" fill-opacity="1" /><path clip-path="url(#clip070)" d="M2524.49 3718.16 L2512.68 3736.61 L2524.49 3736.61 L2524.49 3718.16 M2523.26 3714.09 L2529.14 3714.09 L2529.14 3736.61 L2534.07 3736.61 L2534.07 3740.5 L2529.14 3740.5 L2529.14 3748.65 L2524.49 3748.65 L2524.49 3740.5 L2508.89 3740.5 L2508.89 3735.99 L2523.26 3714.09 Z" fill="#000000" fill-rule="nonzero" fill-opacity="1" /><path clip-path="url(#clip070)" d="M2551.8 3717.17 Q2548.19 3717.17 2546.36 3720.73 Q2544.56 3724.27 2544.56 3731.4 Q2544.56 3738.51 2546.36 3742.07 Q2548.19 3745.62 2551.8 3745.62 Q2555.44 3745.62 2557.24 3742.07 Q2559.07 3738.51 2559.07 3731.4 Q2559.07 3724.27 2557.24 3720.73 Q2555.44 3717.17 2551.8 3717.17 M2551.8 3713.46 Q2557.61 3713.46 2560.67 3718.07 Q2563.75 3722.65 2563.75 3731.4 Q2563.75 3740.13 2560.67 3744.74 Q2557.61 3749.32 2551.8 3749.32 Q2545.99 3749.32 2542.91 3744.74 Q2539.86 3740.13 2539.86 3731.4 Q2539.86 3722.65 2542.91 3718.07 Q2545.99 3713.46 2551.8 3713.46 Z" fill="#000000" fill-rule="nonzero" fill-opacity="1" /><path clip-path="url(#clip070)" d="M3613.29 3729.5 Q3610.14 3729.5 3608.29 3731.66 Q3606.46 3733.81 3606.46 3737.56 Q3606.46 3741.29 3608.29 3743.46 Q3610.14 3745.62 3613.29 3745.62 Q3616.44 3745.62 3618.27 3743.46 Q3620.12 3741.29 3620.12 3737.56 Q3620.12 3733.81 3618.27 3731.66 Q3616.44 3729.5 3613.29 3729.5 M3622.57 3714.85 L3622.57 3719.11 Q3620.81 3718.28 3619.01 3717.84 Q3617.23 3717.4 3615.47 3717.4 Q3610.84 3717.4 3608.38 3720.52 Q3605.95 3723.65 3605.61 3729.97 Q3606.97 3727.95 3609.03 3726.89 Q3611.09 3725.8 3613.57 3725.8 Q3618.78 3725.8 3621.79 3728.97 Q3624.82 3732.12 3624.82 3737.56 Q3624.82 3742.88 3621.67 3746.1 Q3618.52 3749.32 3613.29 3749.32 Q3607.3 3749.32 3604.12 3744.74 Q3600.95 3740.13 3600.95 3731.4 Q3600.95 3723.21 3604.84 3718.35 Q3608.73 3713.46 3615.28 3713.46 Q3617.04 3713.46 3618.82 3713.81 Q3620.63 3714.16 3622.57 3714.85 Z" fill="#000000" fill-rule="nonzero" fill-opacity="1" /><path clip-path="url(#clip070)" d="M3642.87 3717.17 Q3639.26 3717.17 3637.43 3720.73 Q3635.63 3724.27 3635.63 3731.4 Q3635.63 3738.51 3637.43 3742.07 Q3639.26 3745.62 3642.87 3745.62 Q3646.51 3745.62 3648.31 3742.07 Q3650.14 3738.51 3650.14 3731.4 Q3650.14 3724.27 3648.31 3720.73 Q3646.51 3717.17 3642.87 3717.17 M3642.87 3713.46 Q3648.68 3713.46 3651.74 3718.07 Q3654.82 3722.65 3654.82 3731.4 Q3654.82 3740.13 3651.74 3744.74 Q3648.68 3749.32 3642.87 3749.32 Q3637.06 3749.32 3633.98 3744.74 Q3630.93 3740.13 3630.93 3731.4 Q3630.93 3722.65 3633.98 3718.07 Q3637.06 3713.46 3642.87 3713.46 Z" fill="#000000" fill-rule="nonzero" fill-opacity="1" /><path clip-path="url(#clip070)" d="M4704.33 3732.24 Q4700.99 3732.24 4699.07 3734.02 Q4697.17 3735.8 4697.17 3738.93 Q4697.17 3742.05 4699.07 3743.83 Q4700.99 3745.62 4704.33 3745.62 Q4707.66 3745.62 4709.58 3743.83 Q4711.5 3742.03 4711.5 3738.93 Q4711.5 3735.8 4709.58 3734.02 Q4707.68 3732.24 4704.33 3732.24 M4699.65 3730.24 Q4696.64 3729.5 4694.95 3727.44 Q4693.29 3725.38 4693.29 3722.42 Q4693.29 3718.28 4696.23 3715.87 Q4699.19 3713.46 4704.33 3713.46 Q4709.49 3713.46 4712.43 3715.87 Q4715.37 3718.28 4715.37 3722.42 Q4715.37 3725.38 4713.68 3727.44 Q4712.01 3729.5 4709.03 3730.24 Q4712.41 3731.03 4714.28 3733.32 Q4716.18 3735.62 4716.18 3738.93 Q4716.18 3743.95 4713.1 3746.63 Q4710.04 3749.32 4704.33 3749.32 Q4698.61 3749.32 4695.53 3746.63 Q4692.48 3743.95 4692.48 3738.93 Q4692.48 3735.62 4694.37 3733.32 Q4696.27 3731.03 4699.65 3730.24 M4697.94 3722.86 Q4697.94 3725.55 4699.6 3727.05 Q4701.29 3728.56 4704.33 3728.56 Q4707.34 3728.56 4709.03 3727.05 Q4710.74 3725.55 4710.74 3722.86 Q4710.74 3720.18 4709.03 3718.67 Q4707.34 3717.17 4704.33 3717.17 Q4701.29 3717.17 4699.6 3718.67 Q4697.94 3720.18 4697.94 3722.86 Z" fill="#000000" fill-rule="nonzero" fill-opacity="1" /><path clip-path="url(#clip070)" d="M4734.49 3717.17 Q4730.88 3717.17 4729.05 3720.73 Q4727.24 3724.27 4727.24 3731.4 Q4727.24 3738.51 4729.05 3742.07 Q4730.88 3745.62 4734.49 3745.62 Q4738.12 3745.62 4739.93 3742.07 Q4741.76 3738.51 4741.76 3731.4 Q4741.76 3724.27 4739.93 3720.73 Q4738.12 3717.17 4734.49 3717.17 M4734.49 3713.46 Q4740.3 3713.46 4743.35 3718.07 Q4746.43 3722.65 4746.43 3731.4 Q4746.43 3740.13 4743.35 3744.74 Q4740.3 3749.32 4734.49 3749.32 Q4728.68 3749.32 4725.6 3744.74 Q4722.54 3740.13 4722.54 3731.4 Q4722.54 3722.65 4725.6 3718.07 Q4728.68 3713.46 4734.49 3713.46 Z" fill="#000000" fill-rule="nonzero" fill-opacity="1" /><path clip-path="url(#clip070)" d="M5770.63 3744.71 L5778.27 3744.71 L5778.27 3718.35 L5769.96 3720.01 L5769.96 3715.75 L5778.22 3714.09 L5782.9 3714.09 L5782.9 3744.71 L5790.54 3744.71 L5790.54 3748.65 L5770.63 3748.65 L5770.63 3744.71 Z" fill="#000000" fill-rule="nonzero" fill-opacity="1" /><path clip-path="url(#clip070)" d="M5809.98 3717.17 Q5806.37 3717.17 5804.54 3720.73 Q5802.74 3724.27 5802.74 3731.4 Q5802.74 3738.51 5804.54 3742.07 Q5806.37 3745.62 5809.98 3745.62 Q5813.62 3745.62 5815.42 3742.07 Q5817.25 3738.51 5817.25 3731.4 Q5817.25 3724.27 5815.42 3720.73 Q5813.62 3717.17 5809.98 3717.17 M5809.98 3713.46 Q5815.79 3713.46 5818.85 3718.07 Q5821.93 3722.65 5821.93 3731.4 Q5821.93 3740.13 5818.85 3744.74 Q5815.79 3749.32 5809.98 3749.32 Q5804.17 3749.32 5801.09 3744.74 Q5798.04 3740.13 5798.04 3731.4 Q5798.04 3722.65 5801.09 3718.07 Q5804.17 3713.46 5809.98 3713.46 Z" fill="#000000" fill-rule="nonzero" fill-opacity="1" /><path clip-path="url(#clip070)" d="M5840.14 3717.17 Q5836.53 3717.17 5834.7 3720.73 Q5832.9 3724.27 5832.9 3731.4 Q5832.9 3738.51 5834.7 3742.07 Q5836.53 3745.62 5840.14 3745.62 Q5843.78 3745.62 5845.58 3742.07 Q5847.41 3738.51 5847.41 3731.4 Q5847.41 3724.27 5845.58 3720.73 Q5843.78 3717.17 5840.14 3717.17 M5840.14 3713.46 Q5845.95 3713.46 5849.01 3718.07 Q5852.09 3722.65 5852.09 3731.4 Q5852.09 3740.13 5849.01 3744.74 Q5845.95 3749.32 5840.14 3749.32 Q5834.33 3749.32 5831.25 3744.74 Q5828.2 3740.13 5828.2 3731.4 Q5828.2 3722.65 5831.25 3718.07 Q5834.33 3713.46 5840.14 3713.46 Z" fill="#000000" fill-rule="nonzero" fill-opacity="1" /><path clip-path="url(#clip070)" d="M2956.47 3808.79 L2996.67 3808.79 L2996.67 3814.2 L2979.8 3814.2 L2979.8 3856.31 L2973.34 3856.31 L2973.34 3814.2 L2956.47 3814.2 L2956.47 3808.79 Z" fill="#000000" fill-rule="nonzero" fill-opacity="1" /><path clip-path="url(#clip070)" d="M3000.62 3820.66 L3006.48 3820.66 L3006.48 3856.31 L3000.62 3856.31 L3000.62 3820.66 M3000.62 3806.79 L3006.48 3806.79 L3006.48 3814.2 L3000.62 3814.2 L3000.62 3806.79 Z" fill="#000000" fill-rule="nonzero" fill-opacity="1" /><path clip-path="url(#clip070)" d="M3046.48 3827.51 Q3048.68 3823.56 3051.74 3821.68 Q3054.79 3819.8 3058.93 3819.8 Q3064.5 3819.8 3067.52 3823.72 Q3070.55 3827.6 3070.55 3834.8 L3070.55 3856.31 L3064.66 3856.31 L3064.66 3834.99 Q3064.66 3829.86 3062.84 3827.38 Q3061.03 3824.9 3057.31 3824.9 Q3052.75 3824.9 3050.11 3827.92 Q3047.47 3830.94 3047.47 3836.16 L3047.47 3856.31 L3041.58 3856.31 L3041.58 3834.99 Q3041.58 3829.83 3039.77 3827.38 Q3037.95 3824.9 3034.17 3824.9 Q3029.68 3824.9 3027.04 3827.95 Q3024.4 3830.98 3024.4 3836.16 L3024.4 3856.31 L3018.51 3856.31 L3018.51 3820.66 L3024.4 3820.66 L3024.4 3826.2 Q3026.4 3822.92 3029.2 3821.36 Q3032 3819.8 3035.85 3819.8 Q3039.74 3819.8 3042.44 3821.78 Q3045.18 3823.75 3046.48 3827.51 Z" fill="#000000" fill-rule="nonzero" fill-opacity="1" /><path clip-path="url(#clip070)" d="M3112.72 3837.02 L3112.72 3839.89 L3085.79 3839.89 Q3086.17 3845.94 3089.42 3849.12 Q3092.7 3852.27 3098.52 3852.27 Q3101.9 3852.27 3105.05 3851.44 Q3108.23 3850.61 3111.35 3848.96 L3111.35 3854.5 Q3108.2 3855.83 3104.89 3856.53 Q3101.58 3857.23 3098.17 3857.23 Q3089.64 3857.23 3084.65 3852.27 Q3079.68 3847.3 3079.68 3838.84 Q3079.68 3830.08 3084.39 3824.96 Q3089.13 3819.8 3097.16 3819.8 Q3104.35 3819.8 3108.52 3824.45 Q3112.72 3829.07 3112.72 3837.02 M3106.86 3835.3 Q3106.8 3830.5 3104.16 3827.63 Q3101.55 3824.77 3097.22 3824.77 Q3092.32 3824.77 3089.36 3827.54 Q3086.43 3830.31 3085.98 3835.34 L3106.86 3835.3 Z" fill="#000000" fill-rule="nonzero" fill-opacity="1" /><path clip-path="url(#clip070)" d="M3157.12 3806.85 Q3152.86 3814.17 3150.79 3821.33 Q3148.72 3828.49 3148.72 3835.85 Q3148.72 3843.2 3150.79 3850.42 Q3152.89 3857.62 3157.12 3864.91 L3152.03 3864.91 Q3147.25 3857.43 3144.87 3850.2 Q3142.51 3842.98 3142.51 3835.85 Q3142.51 3828.75 3144.87 3821.55 Q3147.22 3814.36 3152.03 3806.85 L3157.12 3806.85 Z" fill="#000000" fill-rule="nonzero" fill-opacity="1" /><path clip-path="url(#clip070)" d="M3174.28 3810.54 L3174.28 3820.66 L3186.34 3820.66 L3186.34 3825.22 L3174.28 3825.22 L3174.28 3844.57 Q3174.28 3848.93 3175.45 3850.17 Q3176.66 3851.41 3180.32 3851.41 L3186.34 3851.41 L3186.34 3856.31 L3180.32 3856.31 Q3173.54 3856.31 3170.97 3853.8 Q3168.39 3851.25 3168.39 3844.57 L3168.39 3825.22 L3164.09 3825.22 L3164.09 3820.66 L3168.39 3820.66 L3168.39 3810.54 L3174.28 3810.54 Z" fill="#000000" fill-rule="nonzero" fill-opacity="1" /><path clip-path="url(#clip070)" d="M3193.12 3806.85 L3198.21 3806.85 Q3202.99 3814.36 3205.34 3821.55 Q3207.73 3828.75 3207.73 3835.85 Q3207.73 3842.98 3205.34 3850.2 Q3202.99 3857.43 3198.21 3864.91 L3193.12 3864.91 Q3197.35 3857.62 3199.42 3850.42 Q3201.52 3843.2 3201.52 3835.85 Q3201.52 3828.49 3199.42 3821.33 Q3197.35 3814.17 3193.12 3806.85 Z" fill="#000000" fill-rule="nonzero" fill-opacity="1" /><polyline clip-path="url(#clip070)" style="stroke:#000000; stroke-linecap:round; stroke-linejoin:round; stroke-width:4; stroke-opacity:1; fill:none" points="353.177,3657.45 353.177,123.472 "/>
<polyline clip-path="url(#clip070)" style="stroke:#000000; stroke-linecap:round; stroke-linejoin:round; stroke-width:4; stroke-opacity:1; fill:none" points="353.177,3657.45 372.075,3657.45 "/>
<polyline clip-path="url(#clip070)" style="stroke:#000000; stroke-linecap:round; stroke-linejoin:round; stroke-width:4; stroke-opacity:1; fill:none" points="353.177,2773.95 372.075,2773.95 "/>
<polyline clip-path="url(#clip070)" style="stroke:#000000; stroke-linecap:round; stroke-linejoin:round; stroke-width:4; stroke-opacity:1; fill:none" points="353.177,1890.46 372.075,1890.46 "/>
<polyline clip-path="url(#clip070)" style="stroke:#000000; stroke-linecap:round; stroke-linejoin:round; stroke-width:4; stroke-opacity:1; fill:none" points="353.177,1006.97 372.075,1006.97 "/>
<polyline clip-path="url(#clip070)" style="stroke:#000000; stroke-linecap:round; stroke-linejoin:round; stroke-width:4; stroke-opacity:1; fill:none" points="353.177,123.472 372.075,123.472 "/>
<path clip-path="url(#clip070)" d="M251.233 3643.25 Q247.622 3643.25 245.793 3646.81 Q243.988 3650.35 243.988 3657.48 Q243.988 3664.59 245.793 3668.15 Q247.622 3671.7 251.233 3671.7 Q254.867 3671.7 256.673 3668.15 Q258.502 3664.59 258.502 3657.48 Q258.502 3650.35 256.673 3646.81 Q254.867 3643.25 251.233 3643.25 M251.233 3639.54 Q257.043 3639.54 260.099 3644.15 Q263.177 3648.73 263.177 3657.48 Q263.177 3666.21 260.099 3670.82 Q257.043 3675.4 251.233 3675.4 Q245.423 3675.4 242.344 3670.82 Q239.289 3666.21 239.289 3657.48 Q239.289 3648.73 242.344 3644.15 Q245.423 3639.54 251.233 3639.54 Z" fill="#000000" fill-rule="nonzero" fill-opacity="1" /><path clip-path="url(#clip070)" d="M243.27 2787.3 L250.909 2787.3 L250.909 2760.93 L242.599 2762.6 L242.599 2758.34 L250.863 2756.67 L255.539 2756.67 L255.539 2787.3 L263.177 2787.3 L263.177 2791.23 L243.27 2791.23 L243.27 2787.3 Z" fill="#000000" fill-rule="nonzero" fill-opacity="1" /><path clip-path="url(#clip070)" d="M246.858 1903.8 L263.177 1903.8 L263.177 1907.74 L241.233 1907.74 L241.233 1903.8 Q243.895 1901.05 248.478 1896.42 Q253.085 1891.77 254.266 1890.43 Q256.511 1887.9 257.39 1886.17 Q258.293 1884.41 258.293 1882.72 Q258.293 1879.96 256.349 1878.23 Q254.428 1876.49 251.326 1876.49 Q249.127 1876.49 246.673 1877.25 Q244.242 1878.02 241.465 1879.57 L241.465 1874.85 Q244.289 1873.71 246.742 1873.13 Q249.196 1872.55 251.233 1872.55 Q256.603 1872.55 259.798 1875.24 Q262.992 1877.93 262.992 1882.42 Q262.992 1884.55 262.182 1886.47 Q261.395 1888.36 259.289 1890.96 Q258.71 1891.63 255.608 1894.85 Q252.506 1898.04 246.858 1903.8 Z" fill="#000000" fill-rule="nonzero" fill-opacity="1" /><path clip-path="url(#clip070)" d="M256.048 1005.61 Q259.404 1006.33 261.279 1008.6 Q263.177 1010.87 263.177 1014.2 Q263.177 1019.32 259.659 1022.12 Q256.14 1024.92 249.659 1024.92 Q247.483 1024.92 245.168 1024.48 Q242.877 1024.06 240.423 1023.2 L240.423 1018.69 Q242.367 1019.82 244.682 1020.4 Q246.997 1020.98 249.52 1020.98 Q253.918 1020.98 256.21 1019.25 Q258.525 1017.51 258.525 1014.2 Q258.525 1011.14 256.372 1009.43 Q254.242 1007.7 250.423 1007.7 L246.395 1007.7 L246.395 1003.85 L250.608 1003.85 Q254.057 1003.85 255.886 1002.49 Q257.715 1001.1 257.715 998.505 Q257.715 995.843 255.816 994.431 Q253.941 992.996 250.423 992.996 Q248.502 992.996 246.303 993.413 Q244.104 993.829 241.465 994.709 L241.465 990.542 Q244.127 989.802 246.441 989.431 Q248.779 989.061 250.84 989.061 Q256.164 989.061 259.265 991.492 Q262.367 993.899 262.367 998.019 Q262.367 1000.89 260.724 1002.88 Q259.08 1004.85 256.048 1005.61 Z" fill="#000000" fill-rule="nonzero" fill-opacity="1" /><path clip-path="url(#clip070)" d="M253.594 110.266 L241.789 128.715 L253.594 128.715 L253.594 110.266 M252.367 106.192 L258.247 106.192 L258.247 128.715 L263.177 128.715 L263.177 132.604 L258.247 132.604 L258.247 140.752 L253.594 140.752 L253.594 132.604 L237.992 132.604 L237.992 128.09 L252.367 106.192 Z" fill="#000000" fill-rule="nonzero" fill-opacity="1" /><path clip-path="url(#clip070)" d="M87.776 2059.25 L94.0463 2059.25 Q92.2957 2062.91 91.4363 2066.15 Q90.5769 2069.4 90.5769 2072.42 Q90.5769 2077.68 92.614 2080.54 Q94.651 2083.37 98.4068 2083.37 Q101.558 2083.37 103.181 2081.49 Q104.772 2079.58 105.759 2074.3 L106.555 2070.42 Q107.924 2063.23 111.393 2059.82 Q114.83 2056.38 120.623 2056.38 Q127.53 2056.38 131.095 2061.03 Q134.659 2065.64 134.659 2074.59 Q134.659 2077.96 133.896 2081.78 Q133.132 2085.57 131.636 2089.64 L125.015 2089.64 Q127.212 2085.73 128.326 2081.97 Q129.44 2078.22 129.44 2074.59 Q129.44 2069.08 127.275 2066.09 Q125.111 2063.1 121.101 2063.1 Q117.599 2063.1 115.626 2065.26 Q113.653 2067.39 112.666 2072.3 L111.902 2076.21 Q110.47 2083.4 107.414 2086.62 Q104.359 2089.83 98.916 2089.83 Q92.614 2089.83 88.9855 2085.41 Q85.3571 2080.95 85.3571 2073.16 Q85.3571 2069.81 85.9618 2066.34 Q86.5666 2062.88 87.776 2059.25 Z" fill="#000000" fill-rule="nonzero" fill-opacity="1" /><path clip-path="url(#clip070)" d="M87.967 2040.82 L98.0885 2040.82 L98.0885 2028.75 L102.64 2028.75 L102.64 2040.82 L121.992 2040.82 Q126.352 2040.82 127.594 2039.64 Q128.835 2038.43 128.835 2034.77 L128.835 2028.75 L133.736 2028.75 L133.736 2034.77 Q133.736 2041.55 131.222 2044.13 Q128.676 2046.71 121.992 2046.71 L102.64 2046.71 L102.64 2051 L98.0885 2051 L98.0885 2046.71 L87.967 2046.71 L87.967 2040.82 Z" fill="#000000" fill-rule="nonzero" fill-opacity="1" /><path clip-path="url(#clip070)" d="M115.817 2004.85 Q115.817 2011.95 117.44 2014.69 Q119.063 2017.42 122.978 2017.42 Q126.098 2017.42 127.944 2015.39 Q129.758 2013.32 129.758 2009.79 Q129.758 2004.92 126.32 2001.99 Q122.851 1999.03 117.122 1999.03 L115.817 1999.03 L115.817 2004.85 M113.398 1993.17 L133.736 1993.17 L133.736 1999.03 L128.326 1999.03 Q131.572 2001.03 133.132 2004.02 Q134.659 2007.02 134.659 2011.34 Q134.659 2016.82 131.604 2020.07 Q128.517 2023.28 123.36 2023.28 Q117.345 2023.28 114.289 2019.27 Q111.234 2015.23 111.234 2007.24 L111.234 1999.03 L110.661 1999.03 Q106.619 1999.03 104.422 2001.7 Q102.194 2004.34 102.194 2009.15 Q102.194 2012.2 102.926 2015.1 Q103.658 2018 105.123 2020.67 L99.7117 2020.67 Q98.4704 2017.46 97.8657 2014.43 Q97.2291 2011.41 97.2291 2008.54 Q97.2291 2000.81 101.24 1996.99 Q105.25 1993.17 113.398 1993.17 Z" fill="#000000" fill-rule="nonzero" fill-opacity="1" /><path clip-path="url(#clip070)" d="M87.967 1975.31 L98.0885 1975.31 L98.0885 1963.25 L102.64 1963.25 L102.64 1975.31 L121.992 1975.31 Q126.352 1975.31 127.594 1974.14 Q128.835 1972.93 128.835 1969.27 L128.835 1963.25 L133.736 1963.25 L133.736 1969.27 Q133.736 1976.05 131.222 1978.62 Q128.676 1981.2 121.992 1981.2 L102.64 1981.2 L102.64 1985.5 L98.0885 1985.5 L98.0885 1981.2 L87.967 1981.2 L87.967 1975.31 Z" fill="#000000" fill-rule="nonzero" fill-opacity="1" /><path clip-path="url(#clip070)" d="M114.448 1925.06 L117.313 1925.06 L117.313 1951.98 Q123.36 1951.6 126.543 1948.36 Q129.694 1945.08 129.694 1939.25 Q129.694 1935.88 128.867 1932.73 Q128.039 1929.55 126.384 1926.43 L131.922 1926.43 Q133.259 1929.58 133.959 1932.89 Q134.659 1936.2 134.659 1939.6 Q134.659 1948.13 129.694 1953.13 Q124.729 1958.1 116.263 1958.1 Q107.51 1958.1 102.385 1953.38 Q97.2291 1948.64 97.2291 1940.62 Q97.2291 1933.43 101.876 1929.26 Q106.491 1925.06 114.448 1925.06 M112.73 1930.91 Q107.924 1930.98 105.059 1933.62 Q102.194 1936.23 102.194 1940.56 Q102.194 1945.46 104.963 1948.42 Q107.733 1951.35 112.761 1951.79 L112.73 1930.91 Z" fill="#000000" fill-rule="nonzero" fill-opacity="1" /><path clip-path="url(#clip070)" d="M133.736 1882.22 L86.2164 1900.36 L86.2164 1893.64 L126.225 1878.59 L86.2164 1863.5 L86.2164 1856.82 L133.736 1874.93 L133.736 1882.22 Z" fill="#000000" fill-rule="nonzero" fill-opacity="1" /><path clip-path="url(#clip070)" d="M115.817 1838.99 Q115.817 1846.09 117.44 1848.83 Q119.063 1851.57 122.978 1851.57 Q126.098 1851.57 127.944 1849.53 Q129.758 1847.46 129.758 1843.93 Q129.758 1839.06 126.32 1836.13 Q122.851 1833.17 117.122 1833.17 L115.817 1833.17 L115.817 1838.99 M113.398 1827.31 L133.736 1827.31 L133.736 1833.17 L128.326 1833.17 Q131.572 1835.17 133.132 1838.17 Q134.659 1841.16 134.659 1845.49 Q134.659 1850.96 131.604 1854.21 Q128.517 1857.42 123.36 1857.42 Q117.345 1857.42 114.289 1853.41 Q111.234 1849.37 111.234 1841.38 L111.234 1833.17 L110.661 1833.17 Q106.619 1833.17 104.422 1835.84 Q102.194 1838.48 102.194 1843.29 Q102.194 1846.35 102.926 1849.24 Q103.658 1852.14 105.123 1854.81 L99.7117 1854.81 Q98.4704 1851.6 97.8657 1848.57 Q97.2291 1845.55 97.2291 1842.69 Q97.2291 1834.95 101.24 1831.13 Q105.25 1827.31 113.398 1827.31 Z" fill="#000000" fill-rule="nonzero" fill-opacity="1" /><path clip-path="url(#clip070)" d="M84.2112 1815.25 L84.2112 1809.39 L133.736 1809.39 L133.736 1815.25 L84.2112 1815.25 Z" fill="#000000" fill-rule="nonzero" fill-opacity="1" /><path clip-path="url(#clip070)" d="M119.668 1797.74 L98.0885 1797.74 L98.0885 1791.89 L119.445 1791.89 Q124.506 1791.89 127.052 1789.91 Q129.567 1787.94 129.567 1783.99 Q129.567 1779.25 126.543 1776.51 Q123.519 1773.74 118.3 1773.74 L98.0885 1773.74 L98.0885 1767.89 L133.736 1767.89 L133.736 1773.74 L128.262 1773.74 Q131.508 1775.88 133.1 1778.71 Q134.659 1781.51 134.659 1785.23 Q134.659 1791.38 130.84 1794.56 Q127.021 1797.74 119.668 1797.74 M97.2291 1783.01 L97.2291 1783.01 Z" fill="#000000" fill-rule="nonzero" fill-opacity="1" /><path clip-path="url(#clip070)" d="M114.448 1725.33 L117.313 1725.33 L117.313 1752.26 Q123.36 1751.88 126.543 1748.63 Q129.694 1745.35 129.694 1739.53 Q129.694 1736.16 128.867 1733 Q128.039 1729.82 126.384 1726.7 L131.922 1726.7 Q133.259 1729.85 133.959 1733.16 Q134.659 1736.47 134.659 1739.88 Q134.659 1748.41 129.694 1753.41 Q124.729 1758.37 116.263 1758.37 Q107.51 1758.37 102.385 1753.66 Q97.2291 1748.92 97.2291 1740.9 Q97.2291 1733.7 101.876 1729.53 Q106.491 1725.33 114.448 1725.33 M112.73 1731.19 Q107.924 1731.25 105.059 1733.9 Q102.194 1736.51 102.194 1740.83 Q102.194 1745.74 104.963 1748.7 Q107.733 1751.62 112.761 1752.07 L112.73 1731.19 Z" fill="#000000" fill-rule="nonzero" fill-opacity="1" /><path clip-path="url(#clip070)" d="M99.1388 1693 L104.677 1693 Q103.404 1695.48 102.767 1698.15 Q102.131 1700.83 102.131 1703.69 Q102.131 1708.05 103.468 1710.25 Q104.804 1712.41 107.478 1712.41 Q109.515 1712.41 110.693 1710.85 Q111.838 1709.29 112.889 1704.58 L113.334 1702.58 Q114.671 1696.34 117.122 1693.73 Q119.541 1691.09 123.901 1691.09 Q128.867 1691.09 131.763 1695.03 Q134.659 1698.95 134.659 1705.82 Q134.659 1708.69 134.087 1711.81 Q133.545 1714.89 132.431 1718.33 L126.384 1718.33 Q128.071 1715.08 128.93 1711.93 Q129.758 1708.78 129.758 1705.7 Q129.758 1701.56 128.357 1699.33 Q126.925 1697.1 124.347 1697.1 Q121.96 1697.1 120.687 1698.72 Q119.414 1700.32 118.236 1705.76 L117.759 1707.8 Q116.613 1713.24 114.257 1715.66 Q111.87 1718.08 107.733 1718.08 Q102.704 1718.08 99.9664 1714.51 Q97.2291 1710.95 97.2291 1704.39 Q97.2291 1701.14 97.7065 1698.28 Q98.184 1695.41 99.1388 1693 Z" fill="#000000" fill-rule="nonzero" fill-opacity="1" /><path clip-path="url(#clip070)" d="M1844.75 16.7545 L1844.75 25.383 Q1840.62 21.5346 1835.92 19.6307 Q1831.26 17.7268 1826 17.7268 Q1815.63 17.7268 1810.12 24.0867 Q1804.61 30.4061 1804.61 42.3968 Q1804.61 54.3469 1810.12 60.7069 Q1815.63 67.0263 1826 67.0263 Q1831.26 67.0263 1835.92 65.1223 Q1840.62 63.2184 1844.75 59.3701 L1844.75 67.9175 Q1840.46 70.8341 1835.64 72.2924 Q1830.86 73.7508 1825.51 73.7508 Q1811.78 73.7508 1803.88 65.3654 Q1795.98 56.9395 1795.98 42.3968 Q1795.98 27.8135 1803.88 19.4281 Q1811.78 11.0023 1825.51 11.0023 Q1830.94 11.0023 1835.72 12.4606 Q1840.54 13.8784 1844.75 16.7545 Z" fill="#000000" fill-rule="nonzero" fill-opacity="1" /><path clip-path="url(#clip070)" d="M1849.01 12.096 L1900.17 12.096 L1900.17 18.9825 L1878.7 18.9825 L1878.7 72.576 L1870.48 72.576 L1870.48 18.9825 L1849.01 18.9825 L1849.01 12.096 Z" fill="#000000" fill-rule="nonzero" fill-opacity="1" /><path clip-path="url(#clip070)" d="M1908.07 12.096 L1920.26 12.096 L1935.69 53.2532 L1951.21 12.096 L1963.4 12.096 L1963.4 72.576 L1955.42 72.576 L1955.42 19.4686 L1939.83 60.9499 L1931.6 60.9499 L1916.01 19.4686 L1916.01 72.576 L1908.07 72.576 L1908.07 12.096 Z" fill="#000000" fill-rule="nonzero" fill-opacity="1" /><path clip-path="url(#clip070)" d="M2024.94 16.7545 L2024.94 25.383 Q2020.8 21.5346 2016.11 19.6307 Q2011.45 17.7268 2006.18 17.7268 Q1995.81 17.7268 1990.3 24.0867 Q1984.79 30.4061 1984.79 42.3968 Q1984.79 54.3469 1990.3 60.7069 Q1995.81 67.0263 2006.18 67.0263 Q2011.45 67.0263 2016.11 65.1223 Q2020.8 63.2184 2024.94 59.3701 L2024.94 67.9175 Q2020.64 70.8341 2015.82 72.2924 Q2011.04 73.7508 2005.69 73.7508 Q1991.96 73.7508 1984.06 65.3654 Q1976.16 56.9395 1976.16 42.3968 Q1976.16 27.8135 1984.06 19.4281 Q1991.96 11.0023 2005.69 11.0023 Q2011.12 11.0023 2015.9 12.4606 Q2020.72 13.8784 2024.94 16.7545 Z" fill="#000000" fill-rule="nonzero" fill-opacity="1" /><path clip-path="url(#clip070)" d="M2100.2 14.0809 L2100.2 22.0612 Q2095.54 19.8332 2091.41 18.7395 Q2087.28 17.6457 2083.43 17.6457 Q2076.75 17.6457 2073.1 20.2383 Q2069.5 22.8309 2069.5 27.611 Q2069.5 31.6214 2071.89 33.6873 Q2074.32 35.7128 2081.04 36.9686 L2085.98 37.9813 Q2095.14 39.7232 2099.47 44.1387 Q2103.85 48.5136 2103.85 55.8863 Q2103.85 64.6767 2097.93 69.2137 Q2092.06 73.7508 2080.68 73.7508 Q2076.38 73.7508 2071.52 72.7785 Q2066.7 71.8063 2061.52 69.9024 L2061.52 61.4765 Q2066.5 64.2716 2071.28 65.6895 Q2076.06 67.1073 2080.68 67.1073 Q2087.68 67.1073 2091.49 64.3527 Q2095.3 61.598 2095.3 56.4939 Q2095.3 52.0379 2092.55 49.5264 Q2089.83 47.0148 2083.59 45.759 L2078.61 44.7868 Q2069.46 42.9639 2065.36 39.075 Q2061.27 35.1862 2061.27 28.2591 Q2061.27 20.2383 2066.9 15.6203 Q2072.57 11.0023 2082.5 11.0023 Q2086.75 11.0023 2091.17 11.7719 Q2095.58 12.5416 2100.2 14.0809 Z" fill="#000000" fill-rule="nonzero" fill-opacity="1" /><path clip-path="url(#clip070)" d="M2116.28 27.2059 L2123.74 27.2059 L2123.74 72.576 L2116.28 72.576 L2116.28 27.2059 M2116.28 9.54393 L2123.74 9.54393 L2123.74 18.9825 L2116.28 18.9825 L2116.28 9.54393 Z" fill="#000000" fill-rule="nonzero" fill-opacity="1" /><path clip-path="url(#clip070)" d="M2174.66 35.9153 Q2177.45 30.8922 2181.34 28.5022 Q2185.23 26.1121 2190.5 26.1121 Q2197.59 26.1121 2201.43 31.0947 Q2205.28 36.0368 2205.28 45.1919 L2205.28 72.576 L2197.79 72.576 L2197.79 45.4349 Q2197.79 38.913 2195.48 35.7533 Q2193.17 32.5936 2188.43 32.5936 Q2182.64 32.5936 2179.28 36.4419 Q2175.91 40.2903 2175.91 46.9338 L2175.91 72.576 L2168.42 72.576 L2168.42 45.4349 Q2168.42 38.8725 2166.11 35.7533 Q2163.8 32.5936 2158.98 32.5936 Q2153.27 32.5936 2149.91 36.4824 Q2146.54 40.3308 2146.54 46.9338 L2146.54 72.576 L2139.05 72.576 L2139.05 27.2059 L2146.54 27.2059 L2146.54 34.2544 Q2149.1 30.082 2152.66 28.0971 Q2156.23 26.1121 2161.13 26.1121 Q2166.07 26.1121 2169.51 28.6237 Q2173 31.1352 2174.66 35.9153 Z" fill="#000000" fill-rule="nonzero" fill-opacity="1" /><path clip-path="url(#clip070)" d="M2219.38 54.671 L2219.38 27.2059 L2226.83 27.2059 L2226.83 54.3874 Q2226.83 60.8284 2229.34 64.0691 Q2231.86 67.2693 2236.88 67.2693 Q2242.92 67.2693 2246.4 63.421 Q2249.92 59.5726 2249.92 52.9291 L2249.92 27.2059 L2257.38 27.2059 L2257.38 72.576 L2249.92 72.576 L2249.92 65.6084 Q2247.21 69.7404 2243.6 71.7658 Q2240.04 73.7508 2235.3 73.7508 Q2227.48 73.7508 2223.43 68.8897 Q2219.38 64.0286 2219.38 54.671 M2238.14 26.1121 L2238.14 26.1121 Z" fill="#000000" fill-rule="nonzero" fill-opacity="1" /><path clip-path="url(#clip070)" d="M2272.73 9.54393 L2280.18 9.54393 L2280.18 72.576 L2272.73 72.576 L2272.73 9.54393 Z" fill="#000000" fill-rule="nonzero" fill-opacity="1" /><path clip-path="url(#clip070)" d="M2316.4 49.7694 Q2307.37 49.7694 2303.88 51.8354 Q2300.4 53.9013 2300.4 58.8839 Q2300.4 62.8538 2302.99 65.2034 Q2305.62 67.5124 2310.12 67.5124 Q2316.32 67.5124 2320.04 63.1374 Q2323.81 58.7219 2323.81 51.4303 L2323.81 49.7694 L2316.4 49.7694 M2331.27 46.6907 L2331.27 72.576 L2323.81 72.576 L2323.81 65.6895 Q2321.26 69.8214 2317.45 71.8063 Q2313.64 73.7508 2308.13 73.7508 Q2301.17 73.7508 2297.04 69.8619 Q2292.94 65.9325 2292.94 59.3701 Q2292.94 51.7138 2298.05 47.825 Q2303.19 43.9361 2313.36 43.9361 L2323.81 43.9361 L2323.81 43.2069 Q2323.81 38.0623 2320.41 35.2672 Q2317.05 32.4315 2310.93 32.4315 Q2307.04 32.4315 2303.35 33.3632 Q2299.67 34.295 2296.27 36.1584 L2296.27 29.2718 Q2300.36 27.692 2304.21 26.9223 Q2308.05 26.1121 2311.7 26.1121 Q2321.54 26.1121 2326.4 31.2163 Q2331.27 36.3204 2331.27 46.6907 Z" fill="#000000" fill-rule="nonzero" fill-opacity="1" /><path clip-path="url(#clip070)" d="M2353.99 14.324 L2353.99 27.2059 L2369.34 27.2059 L2369.34 32.9987 L2353.99 32.9987 L2353.99 57.6282 Q2353.99 63.1779 2355.49 64.7578 Q2357.03 66.3376 2361.69 66.3376 L2369.34 66.3376 L2369.34 72.576 L2361.69 72.576 Q2353.06 72.576 2349.78 69.3758 Q2346.5 66.1351 2346.5 57.6282 L2346.5 32.9987 L2341.03 32.9987 L2341.03 27.2059 L2346.5 27.2059 L2346.5 14.324 L2353.99 14.324 Z" fill="#000000" fill-rule="nonzero" fill-opacity="1" /><path clip-path="url(#clip070)" d="M2379.15 27.2059 L2386.6 27.2059 L2386.6 72.576 L2379.15 72.576 L2379.15 27.2059 M2379.15 9.54393 L2386.6 9.54393 L2386.6 18.9825 L2379.15 18.9825 L2379.15 9.54393 Z" fill="#000000" fill-rule="nonzero" fill-opacity="1" /><path clip-path="url(#clip070)" d="M2419.78 32.4315 Q2413.78 32.4315 2410.3 37.1306 Q2406.81 41.7891 2406.81 49.9314 Q2406.81 58.0738 2410.26 62.7728 Q2413.74 67.4314 2419.78 67.4314 Q2425.73 67.4314 2429.22 62.7323 Q2432.7 58.0333 2432.7 49.9314 Q2432.7 41.8701 2429.22 37.1711 Q2425.73 32.4315 2419.78 32.4315 M2419.78 26.1121 Q2429.5 26.1121 2435.05 32.4315 Q2440.6 38.7509 2440.6 49.9314 Q2440.6 61.0714 2435.05 67.4314 Q2429.5 73.7508 2419.78 73.7508 Q2410.02 73.7508 2404.47 67.4314 Q2398.96 61.0714 2398.96 49.9314 Q2398.96 38.7509 2404.47 32.4315 Q2410.02 26.1121 2419.78 26.1121 Z" fill="#000000" fill-rule="nonzero" fill-opacity="1" /><path clip-path="url(#clip070)" d="M2490.67 45.1919 L2490.67 72.576 L2483.21 72.576 L2483.21 45.4349 Q2483.21 38.994 2480.7 35.7938 Q2478.19 32.5936 2473.17 32.5936 Q2467.13 32.5936 2463.65 36.4419 Q2460.17 40.2903 2460.17 46.9338 L2460.17 72.576 L2452.67 72.576 L2452.67 27.2059 L2460.17 27.2059 L2460.17 34.2544 Q2462.84 30.163 2466.44 28.1376 Q2470.09 26.1121 2474.83 26.1121 Q2482.65 26.1121 2486.66 30.9732 Q2490.67 35.7938 2490.67 45.1919 Z" fill="#000000" fill-rule="nonzero" fill-opacity="1" /><path clip-path="url(#clip070)" d="M2528.14 46.5287 L2549.97 46.5287 L2549.97 53.1722 L2528.14 53.1722 L2528.14 46.5287 Z" fill="#000000" fill-rule="nonzero" fill-opacity="1" /><path clip-path="url(#clip070)" d="M2580.15 12.096 L2631.32 12.096 L2631.32 18.9825 L2609.85 18.9825 L2609.85 72.576 L2601.62 72.576 L2601.62 18.9825 L2580.15 18.9825 L2580.15 12.096 Z" fill="#000000" fill-rule="nonzero" fill-opacity="1" /><path clip-path="url(#clip070)" d="M2652.99 34.1734 Q2651.73 33.4443 2650.23 33.1202 Q2648.78 32.7556 2646.99 32.7556 Q2640.67 32.7556 2637.27 36.8875 Q2633.91 40.9789 2633.91 48.6757 L2633.91 72.576 L2626.41 72.576 L2626.41 27.2059 L2633.91 27.2059 L2633.91 34.2544 Q2636.26 30.1225 2640.03 28.1376 Q2643.79 26.1121 2649.18 26.1121 Q2649.95 26.1121 2650.88 26.2337 Q2651.81 26.3147 2652.95 26.5172 L2652.99 34.1734 Z" fill="#000000" fill-rule="nonzero" fill-opacity="1" /><path clip-path="url(#clip070)" d="M2681.43 49.7694 Q2672.39 49.7694 2668.91 51.8354 Q2665.42 53.9013 2665.42 58.8839 Q2665.42 62.8538 2668.02 65.2034 Q2670.65 67.5124 2675.15 67.5124 Q2681.34 67.5124 2685.07 63.1374 Q2688.84 58.7219 2688.84 51.4303 L2688.84 49.7694 L2681.43 49.7694 M2696.29 46.6907 L2696.29 72.576 L2688.84 72.576 L2688.84 65.6895 Q2686.29 69.8214 2682.48 71.8063 Q2678.67 73.7508 2673.16 73.7508 Q2666.19 73.7508 2662.06 69.8619 Q2657.97 65.9325 2657.97 59.3701 Q2657.97 51.7138 2663.08 47.825 Q2668.22 43.9361 2678.39 43.9361 L2688.84 43.9361 L2688.84 43.2069 Q2688.84 38.0623 2685.44 35.2672 Q2682.07 32.4315 2675.96 32.4315 Q2672.07 32.4315 2668.38 33.3632 Q2664.7 34.295 2661.29 36.1584 L2661.29 29.2718 Q2665.38 27.692 2669.23 26.9223 Q2673.08 26.1121 2676.73 26.1121 Q2686.57 26.1121 2691.43 31.2163 Q2696.29 36.3204 2696.29 46.6907 Z" fill="#000000" fill-rule="nonzero" fill-opacity="1" /><path clip-path="url(#clip070)" d="M2711.65 27.2059 L2719.1 27.2059 L2719.1 73.3862 Q2719.1 82.0551 2715.78 85.944 Q2712.5 89.8329 2705.16 89.8329 L2702.33 89.8329 L2702.33 83.5134 L2704.31 83.5134 Q2708.57 83.5134 2710.11 81.5285 Q2711.65 79.5841 2711.65 73.3862 L2711.65 27.2059 M2711.65 9.54393 L2719.1 9.54393 L2719.1 18.9825 L2711.65 18.9825 L2711.65 9.54393 Z" fill="#000000" fill-rule="nonzero" fill-opacity="1" /><path clip-path="url(#clip070)" d="M2773.5 48.0275 L2773.5 51.6733 L2739.23 51.6733 Q2739.72 59.3701 2743.85 63.421 Q2748.02 67.4314 2755.44 67.4314 Q2759.73 67.4314 2763.74 66.3781 Q2767.79 65.3249 2771.76 63.2184 L2771.76 70.267 Q2767.75 71.9684 2763.54 72.8596 Q2759.32 73.7508 2754.99 73.7508 Q2744.13 73.7508 2737.77 67.4314 Q2731.45 61.1119 2731.45 50.3365 Q2731.45 39.1965 2737.45 32.6746 Q2743.49 26.1121 2753.69 26.1121 Q2762.85 26.1121 2768.16 32.0264 Q2773.5 37.9003 2773.5 48.0275 M2766.05 45.84 Q2765.97 39.7232 2762.61 36.0774 Q2759.28 32.4315 2753.77 32.4315 Q2747.54 32.4315 2743.77 35.9558 Q2740.04 39.4801 2739.48 45.8805 L2766.05 45.84 Z" fill="#000000" fill-rule="nonzero" fill-opacity="1" /><path clip-path="url(#clip070)" d="M2818.39 28.9478 L2818.39 35.9153 Q2815.23 34.1734 2812.03 33.3227 Q2808.87 32.4315 2805.63 32.4315 Q2798.38 32.4315 2794.36 37.0496 Q2790.35 41.6271 2790.35 49.9314 Q2790.35 58.2358 2794.36 62.8538 Q2798.38 67.4314 2805.63 67.4314 Q2808.87 67.4314 2812.03 66.5807 Q2815.23 65.6895 2818.39 63.9476 L2818.39 70.8341 Q2815.27 72.2924 2811.91 73.0216 Q2808.58 73.7508 2804.82 73.7508 Q2794.57 73.7508 2788.53 67.3098 Q2782.5 60.8689 2782.5 49.9314 Q2782.5 38.832 2788.57 32.472 Q2794.69 26.1121 2805.3 26.1121 Q2808.75 26.1121 2812.03 26.8413 Q2815.31 27.5299 2818.39 28.9478 Z" fill="#000000" fill-rule="nonzero" fill-opacity="1" /><path clip-path="url(#clip070)" d="M2838.72 14.324 L2838.72 27.2059 L2854.08 27.2059 L2854.08 32.9987 L2838.72 32.9987 L2838.72 57.6282 Q2838.72 63.1779 2840.22 64.7578 Q2841.76 66.3376 2846.42 66.3376 L2854.08 66.3376 L2854.08 72.576 L2846.42 72.576 Q2837.79 72.576 2834.51 69.3758 Q2831.23 66.1351 2831.23 57.6282 L2831.23 32.9987 L2825.76 32.9987 L2825.76 27.2059 L2831.23 27.2059 L2831.23 14.324 L2838.72 14.324 Z" fill="#000000" fill-rule="nonzero" fill-opacity="1" /><path clip-path="url(#clip070)" d="M2881.46 32.4315 Q2875.46 32.4315 2871.98 37.1306 Q2868.5 41.7891 2868.5 49.9314 Q2868.5 58.0738 2871.94 62.7728 Q2875.42 67.4314 2881.46 67.4314 Q2887.41 67.4314 2890.9 62.7323 Q2894.38 58.0333 2894.38 49.9314 Q2894.38 41.8701 2890.9 37.1711 Q2887.41 32.4315 2881.46 32.4315 M2881.46 26.1121 Q2891.18 26.1121 2896.73 32.4315 Q2902.28 38.7509 2902.28 49.9314 Q2902.28 61.0714 2896.73 67.4314 Q2891.18 73.7508 2881.46 73.7508 Q2871.7 73.7508 2866.15 67.4314 Q2860.64 61.0714 2860.64 49.9314 Q2860.64 38.7509 2866.15 32.4315 Q2871.7 26.1121 2881.46 26.1121 Z" fill="#000000" fill-rule="nonzero" fill-opacity="1" /><path clip-path="url(#clip070)" d="M2940.93 34.1734 Q2939.67 33.4443 2938.17 33.1202 Q2936.71 32.7556 2934.93 32.7556 Q2928.61 32.7556 2925.21 36.8875 Q2921.85 40.9789 2921.85 48.6757 L2921.85 72.576 L2914.35 72.576 L2914.35 27.2059 L2921.85 27.2059 L2921.85 34.2544 Q2924.2 30.1225 2927.96 28.1376 Q2931.73 26.1121 2937.12 26.1121 Q2937.89 26.1121 2938.82 26.2337 Q2939.75 26.3147 2940.89 26.5172 L2940.93 34.1734 Z" fill="#000000" fill-rule="nonzero" fill-opacity="1" /><path clip-path="url(#clip070)" d="M2948.74 27.2059 L2956.2 27.2059 L2956.2 72.576 L2948.74 72.576 L2948.74 27.2059 M2948.74 9.54393 L2956.2 9.54393 L2956.2 18.9825 L2948.74 18.9825 L2948.74 9.54393 Z" fill="#000000" fill-rule="nonzero" fill-opacity="1" /><path clip-path="url(#clip070)" d="M3010.6 48.0275 L3010.6 51.6733 L2976.33 51.6733 Q2976.82 59.3701 2980.95 63.421 Q2985.12 67.4314 2992.54 67.4314 Q2996.83 67.4314 3000.84 66.3781 Q3004.89 65.3249 3008.86 63.2184 L3008.86 70.267 Q3004.85 71.9684 3000.64 72.8596 Q2996.42 73.7508 2992.09 73.7508 Q2981.23 73.7508 2974.87 67.4314 Q2968.55 61.1119 2968.55 50.3365 Q2968.55 39.1965 2974.55 32.6746 Q2980.58 26.1121 2990.79 26.1121 Q2999.95 26.1121 3005.25 32.0264 Q3010.6 37.9003 3010.6 48.0275 M3003.15 45.84 Q3003.07 39.7232 2999.71 36.0774 Q2996.38 32.4315 2990.87 32.4315 Q2984.64 32.4315 2980.87 35.9558 Q2977.14 39.4801 2976.57 45.8805 L3003.15 45.84 Z" fill="#000000" fill-rule="nonzero" fill-opacity="1" /><path clip-path="url(#clip070)" d="M3051.76 28.5427 L3051.76 35.5912 Q3048.6 33.9709 3045.2 33.1607 Q3041.79 32.3505 3038.15 32.3505 Q3032.6 32.3505 3029.8 34.0519 Q3027.05 35.7533 3027.05 39.156 Q3027.05 41.7486 3029.03 43.2475 Q3031.02 44.7058 3037.01 46.0426 L3039.57 46.6097 Q3047.51 48.3111 3050.83 51.4303 Q3054.19 54.509 3054.19 60.0587 Q3054.19 66.3781 3049.17 70.0644 Q3044.18 73.7508 3035.43 73.7508 Q3031.79 73.7508 3027.82 73.0216 Q3023.89 72.3329 3019.51 70.9151 L3019.51 63.2184 Q3023.65 65.3654 3027.66 66.4591 Q3031.67 67.5124 3035.6 67.5124 Q3040.86 67.5124 3043.7 65.73 Q3046.53 63.9071 3046.53 60.6258 Q3046.53 57.5877 3044.47 55.9673 Q3042.44 54.3469 3035.52 52.8481 L3032.92 52.2405 Q3026 50.7821 3022.92 47.7845 Q3019.84 44.7463 3019.84 39.4801 Q3019.84 33.0797 3024.38 29.5959 Q3028.91 26.1121 3037.26 26.1121 Q3041.39 26.1121 3045.03 26.7198 Q3048.68 27.3274 3051.76 28.5427 Z" fill="#000000" fill-rule="nonzero" fill-opacity="1" /><path clip-path="url(#clip070)" d="M3110.01 32.4315 Q3104.02 32.4315 3100.53 37.1306 Q3097.05 41.7891 3097.05 49.9314 Q3097.05 58.0738 3100.49 62.7728 Q3103.98 67.4314 3110.01 67.4314 Q3115.97 67.4314 3119.45 62.7323 Q3122.93 58.0333 3122.93 49.9314 Q3122.93 41.8701 3119.45 37.1711 Q3115.97 32.4315 3110.01 32.4315 M3110.01 26.1121 Q3119.73 26.1121 3125.28 32.4315 Q3130.83 38.7509 3130.83 49.9314 Q3130.83 61.0714 3125.28 67.4314 Q3119.73 73.7508 3110.01 73.7508 Q3100.25 73.7508 3094.7 67.4314 Q3089.19 61.0714 3089.19 49.9314 Q3089.19 38.7509 3094.7 32.4315 Q3100.25 26.1121 3110.01 26.1121 Z" fill="#000000" fill-rule="nonzero" fill-opacity="1" /><path clip-path="url(#clip070)" d="M3166.16 9.54393 L3166.16 15.7418 L3159.03 15.7418 Q3155.02 15.7418 3153.44 17.3622 Q3151.9 18.9825 3151.9 23.1955 L3151.9 27.2059 L3164.17 27.2059 L3164.17 32.9987 L3151.9 32.9987 L3151.9 72.576 L3144.4 72.576 L3144.4 32.9987 L3137.27 32.9987 L3137.27 27.2059 L3144.4 27.2059 L3144.4 24.0462 Q3144.4 16.471 3147.93 13.0277 Q3151.45 9.54393 3159.11 9.54393 L3166.16 9.54393 Z" fill="#000000" fill-rule="nonzero" fill-opacity="1" /><path clip-path="url(#clip070)" d="M3244.38 16.7545 L3244.38 25.383 Q3240.25 21.5346 3235.55 19.6307 Q3230.89 17.7268 3225.62 17.7268 Q3215.25 17.7268 3209.74 24.0867 Q3204.24 30.4061 3204.24 42.3968 Q3204.24 54.3469 3209.74 60.7069 Q3215.25 67.0263 3225.62 67.0263 Q3230.89 67.0263 3235.55 65.1223 Q3240.25 63.2184 3244.38 59.3701 L3244.38 67.9175 Q3240.09 70.8341 3235.27 72.2924 Q3230.49 73.7508 3225.14 73.7508 Q3211.41 73.7508 3203.51 65.3654 Q3195.61 56.9395 3195.61 42.3968 Q3195.61 27.8135 3203.51 19.4281 Q3211.41 11.0023 3225.14 11.0023 Q3230.57 11.0023 3235.35 12.4606 Q3240.17 13.8784 3244.38 16.7545 Z" fill="#000000" fill-rule="nonzero" fill-opacity="1" /><path clip-path="url(#clip070)" d="M3295.5 48.0275 L3295.5 51.6733 L3261.23 51.6733 Q3261.72 59.3701 3265.85 63.421 Q3270.02 67.4314 3277.44 67.4314 Q3281.73 67.4314 3285.74 66.3781 Q3289.79 65.3249 3293.76 63.2184 L3293.76 70.267 Q3289.75 71.9684 3285.54 72.8596 Q3281.32 73.7508 3276.99 73.7508 Q3266.13 73.7508 3259.77 67.4314 Q3253.45 61.1119 3253.45 50.3365 Q3253.45 39.1965 3259.45 32.6746 Q3265.48 26.1121 3275.69 26.1121 Q3284.85 26.1121 3290.15 32.0264 Q3295.5 37.9003 3295.5 48.0275 M3288.05 45.84 Q3287.97 39.7232 3284.61 36.0774 Q3281.28 32.4315 3275.77 32.4315 Q3269.54 32.4315 3265.77 35.9558 Q3262.04 39.4801 3261.47 45.8805 L3288.05 45.84 Z" fill="#000000" fill-rule="nonzero" fill-opacity="1" /><path clip-path="url(#clip070)" d="M3307.74 9.54393 L3315.19 9.54393 L3315.19 72.576 L3307.74 72.576 L3307.74 9.54393 Z" fill="#000000" fill-rule="nonzero" fill-opacity="1" /><path clip-path="url(#clip070)" d="M3330.79 9.54393 L3338.24 9.54393 L3338.24 72.576 L3330.79 72.576 L3330.79 9.54393 Z" fill="#000000" fill-rule="nonzero" fill-opacity="1" /><path clip-path="url(#clip070)" d="M3382.76 28.5427 L3382.76 35.5912 Q3379.6 33.9709 3376.2 33.1607 Q3372.79 32.3505 3369.15 32.3505 Q3363.6 32.3505 3360.8 34.0519 Q3358.05 35.7533 3358.05 39.156 Q3358.05 41.7486 3360.03 43.2475 Q3362.02 44.7058 3368.01 46.0426 L3370.57 46.6097 Q3378.51 48.3111 3381.83 51.4303 Q3385.19 54.509 3385.19 60.0587 Q3385.19 66.3781 3380.17 70.0644 Q3375.18 73.7508 3366.43 73.7508 Q3362.79 73.7508 3358.82 73.0216 Q3354.89 72.3329 3350.51 70.9151 L3350.51 63.2184 Q3354.65 65.3654 3358.66 66.4591 Q3362.67 67.5124 3366.6 67.5124 Q3371.86 67.5124 3374.7 65.73 Q3377.53 63.9071 3377.53 60.6258 Q3377.53 57.5877 3375.47 55.9673 Q3373.44 54.3469 3366.51 52.8481 L3363.92 52.2405 Q3356.99 50.7821 3353.92 47.7845 Q3350.84 44.7463 3350.84 39.4801 Q3350.84 33.0797 3355.37 29.5959 Q3359.91 26.1121 3368.26 26.1121 Q3372.39 26.1121 3376.03 26.7198 Q3379.68 27.3274 3382.76 28.5427 Z" fill="#000000" fill-rule="nonzero" fill-opacity="1" /><path clip-path="url(#clip070)" d="M3444.05 49.7694 Q3435.02 49.7694 3431.53 51.8354 Q3428.05 53.9013 3428.05 58.8839 Q3428.05 62.8538 3430.64 65.2034 Q3433.27 67.5124 3437.77 67.5124 Q3443.97 67.5124 3447.69 63.1374 Q3451.46 58.7219 3451.46 51.4303 L3451.46 49.7694 L3444.05 49.7694 M3458.92 46.6907 L3458.92 72.576 L3451.46 72.576 L3451.46 65.6895 Q3448.91 69.8214 3445.1 71.8063 Q3441.29 73.7508 3435.79 73.7508 Q3428.82 73.7508 3424.69 69.8619 Q3420.59 65.9325 3420.59 59.3701 Q3420.59 51.7138 3425.7 47.825 Q3430.84 43.9361 3441.01 43.9361 L3451.46 43.9361 L3451.46 43.2069 Q3451.46 38.0623 3448.06 35.2672 Q3444.7 32.4315 3438.58 32.4315 Q3434.69 32.4315 3431 33.3632 Q3427.32 34.295 3423.92 36.1584 L3423.92 29.2718 Q3428.01 27.692 3431.86 26.9223 Q3435.7 26.1121 3439.35 26.1121 Q3449.19 26.1121 3454.05 31.2163 Q3458.92 36.3204 3458.92 46.6907 Z" fill="#000000" fill-rule="nonzero" fill-opacity="1" /><path clip-path="url(#clip070)" d="M3521.26 49.7694 Q3512.23 49.7694 3508.74 51.8354 Q3505.26 53.9013 3505.26 58.8839 Q3505.26 62.8538 3507.85 65.2034 Q3510.48 67.5124 3514.98 67.5124 Q3521.18 67.5124 3524.9 63.1374 Q3528.67 58.7219 3528.67 51.4303 L3528.67 49.7694 L3521.26 49.7694 M3536.13 46.6907 L3536.13 72.576 L3528.67 72.576 L3528.67 65.6895 Q3526.12 69.8214 3522.31 71.8063 Q3518.5 73.7508 3513 73.7508 Q3506.03 73.7508 3501.9 69.8619 Q3497.8 65.9325 3497.8 59.3701 Q3497.8 51.7138 3502.91 47.825 Q3508.05 43.9361 3518.22 43.9361 L3528.67 43.9361 L3528.67 43.2069 Q3528.67 38.0623 3525.27 35.2672 Q3521.91 32.4315 3515.79 32.4315 Q3511.9 32.4315 3508.22 33.3632 Q3504.53 34.295 3501.13 36.1584 L3501.13 29.2718 Q3505.22 27.692 3509.07 26.9223 Q3512.91 26.1121 3516.56 26.1121 Q3526.4 26.1121 3531.26 31.2163 Q3536.13 36.3204 3536.13 46.6907 Z" fill="#000000" fill-rule="nonzero" fill-opacity="1" /><path clip-path="url(#clip070)" d="M3589.19 45.1919 L3589.19 72.576 L3581.74 72.576 L3581.74 45.4349 Q3581.74 38.994 3579.23 35.7938 Q3576.72 32.5936 3571.69 32.5936 Q3565.66 32.5936 3562.17 36.4419 Q3558.69 40.2903 3558.69 46.9338 L3558.69 72.576 L3551.2 72.576 L3551.2 27.2059 L3558.69 27.2059 L3558.69 34.2544 Q3561.36 30.163 3564.97 28.1376 Q3568.61 26.1121 3573.35 26.1121 Q3581.17 26.1121 3585.18 30.9732 Q3589.19 35.7938 3589.19 45.1919 Z" fill="#000000" fill-rule="nonzero" fill-opacity="1" /><path clip-path="url(#clip070)" d="M3633.91 34.0924 L3633.91 9.54393 L3641.37 9.54393 L3641.37 72.576 L3633.91 72.576 L3633.91 65.7705 Q3631.57 69.8214 3627.96 71.8063 Q3624.4 73.7508 3619.37 73.7508 Q3611.15 73.7508 3605.96 67.1883 Q3600.82 60.6258 3600.82 49.9314 Q3600.82 39.2371 3605.96 32.6746 Q3611.15 26.1121 3619.37 26.1121 Q3624.4 26.1121 3627.96 28.0971 Q3631.57 30.0415 3633.91 34.0924 M3608.52 49.9314 Q3608.52 58.1548 3611.88 62.8538 Q3615.28 67.5124 3621.19 67.5124 Q3627.11 67.5124 3630.51 62.8538 Q3633.91 58.1548 3633.91 49.9314 Q3633.91 41.7081 3630.51 37.0496 Q3627.11 32.3505 3621.19 32.3505 Q3615.28 32.3505 3611.88 37.0496 Q3608.52 41.7081 3608.52 49.9314 Z" fill="#000000" fill-rule="nonzero" fill-opacity="1" /><path clip-path="url(#clip070)" d="M3715.66 49.9314 Q3715.66 41.7081 3712.26 37.0496 Q3708.9 32.3505 3702.98 32.3505 Q3697.07 32.3505 3693.67 37.0496 Q3690.3 41.7081 3690.3 49.9314 Q3690.3 58.1548 3693.67 62.8538 Q3697.07 67.5124 3702.98 67.5124 Q3708.9 67.5124 3712.26 62.8538 Q3715.66 58.1548 3715.66 49.9314 M3690.3 34.0924 Q3692.65 30.0415 3696.22 28.0971 Q3699.82 26.1121 3704.81 26.1121 Q3713.07 26.1121 3718.21 32.6746 Q3723.4 39.2371 3723.4 49.9314 Q3723.4 60.6258 3718.21 67.1883 Q3713.07 73.7508 3704.81 73.7508 Q3699.82 73.7508 3696.22 71.8063 Q3692.65 69.8214 3690.3 65.7705 L3690.3 72.576 L3682.81 72.576 L3682.81 9.54393 L3690.3 9.54393 L3690.3 34.0924 Z" fill="#000000" fill-rule="nonzero" fill-opacity="1" /><path clip-path="url(#clip070)" d="M3737.66 29.6769 L3746.21 29.6769 L3746.21 39.9662 L3737.66 39.9662 L3737.66 29.6769 M3737.66 62.2867 L3746.21 62.2867 L3746.21 69.2543 L3739.56 82.2172 L3734.34 82.2172 L3737.66 69.2543 L3737.66 62.2867 Z" fill="#000000" fill-rule="nonzero" fill-opacity="1" /><path clip-path="url(#clip070)" d="M3790.4 12.096 L3801.42 12.096 L3828.24 62.6918 L3828.24 12.096 L3836.18 12.096 L3836.18 72.576 L3825.16 72.576 L3798.34 21.9802 L3798.34 72.576 L3790.4 72.576 L3790.4 12.096 Z" fill="#000000" fill-rule="nonzero" fill-opacity="1" /><path clip-path="url(#clip070)" d="M3853.11 34.9026 L3905.04 34.9026 L3905.04 41.7081 L3853.11 41.7081 L3853.11 34.9026 M3853.11 51.4303 L3905.04 51.4303 L3905.04 58.3168 L3853.11 58.3168 L3853.11 51.4303 Z" fill="#000000" fill-rule="nonzero" fill-opacity="1" /><path clip-path="url(#clip070)" d="M3945.19 19.2256 L3924.53 51.5113 L3945.19 51.5113 L3945.19 19.2256 M3943.04 12.096 L3953.33 12.096 L3953.33 51.5113 L3961.96 51.5113 L3961.96 58.3168 L3953.33 58.3168 L3953.33 72.576 L3945.19 72.576 L3945.19 58.3168 L3917.88 58.3168 L3917.88 50.4176 L3943.04 12.096 Z" fill="#000000" fill-rule="nonzero" fill-opacity="1" /><path clip-path="url(#clip070)" d="M3976.34 62.2867 L3984.89 62.2867 L3984.89 69.2543 L3978.24 82.2172 L3973.02 82.2172 L3976.34 69.2543 L3976.34 62.2867 Z" fill="#000000" fill-rule="nonzero" fill-opacity="1" /><path clip-path="url(#clip070)" d="M4045.04 16.633 L4065.98 72.576 L4058.08 72.576 L4045.37 39.0345 L4029.73 72.576 L4021.83 72.576 L4041.72 29.0693 L4038.72 21.0485 Q4036.82 15.9444 4032.48 15.9444 L4028.59 15.9444 L4028.59 9.54393 L4033.33 9.62495 Q4042.49 9.74648 4045.04 16.633 Z" fill="#000000" fill-rule="nonzero" fill-opacity="1" /><path clip-path="url(#clip070)" d="M4077.25 34.9026 L4129.18 34.9026 L4129.18 41.7081 L4077.25 41.7081 L4077.25 34.9026 M4077.25 51.4303 L4129.18 51.4303 L4129.18 58.3168 L4077.25 58.3168 L4077.25 51.4303 Z" fill="#000000" fill-rule="nonzero" fill-opacity="1" /><path clip-path="url(#clip070)" d="M4148.26 65.6895 L4161.63 65.6895 L4161.63 19.5497 L4147.08 22.4663 L4147.08 15.0127 L4161.55 12.096 L4169.73 12.096 L4169.73 65.6895 L4183.1 65.6895 L4183.1 72.576 L4148.26 72.576 L4148.26 65.6895 Z" fill="#000000" fill-rule="nonzero" fill-opacity="1" /><path clip-path="url(#clip070)" d="M4201.04 65.6895 L4214.41 65.6895 L4214.41 19.5497 L4199.87 22.4663 L4199.87 15.0127 L4214.33 12.096 L4222.51 12.096 L4222.51 65.6895 L4235.88 65.6895 L4235.88 72.576 L4201.04 72.576 L4201.04 65.6895 Z" fill="#000000" fill-rule="nonzero" fill-opacity="1" /><path clip-path="url(#clip070)" d="M4252.49 12.096 L4284.61 12.096 L4284.61 18.9825 L4259.98 18.9825 L4259.98 33.8088 Q4261.76 33.2012 4263.55 32.9176 Q4265.33 32.5936 4267.11 32.5936 Q4277.24 32.5936 4283.15 38.1433 Q4289.07 43.6931 4289.07 53.1722 Q4289.07 62.9348 4282.99 68.3631 Q4276.91 73.7508 4265.86 73.7508 Q4262.05 73.7508 4258.08 73.1026 Q4254.15 72.4545 4249.94 71.1582 L4249.94 62.9348 Q4253.58 64.9198 4257.47 65.892 Q4261.36 66.8642 4265.69 66.8642 Q4272.7 66.8642 4276.79 63.1779 Q4280.88 59.4916 4280.88 53.1722 Q4280.88 46.8528 4276.79 43.1664 Q4272.7 39.4801 4265.69 39.4801 Q4262.41 39.4801 4259.13 40.2093 Q4255.89 40.9384 4252.49 42.4778 L4252.49 12.096 Z" fill="#000000" fill-rule="nonzero" fill-opacity="1" /><path clip-path="url(#clip070)" d="M4305.19 62.2867 L4313.74 62.2867 L4313.74 72.576 L4305.19 72.576 L4305.19 62.2867 Z" fill="#000000" fill-rule="nonzero" fill-opacity="1" /><path clip-path="url(#clip070)" d="M4331.64 12.096 L4363.77 12.096 L4363.77 18.9825 L4339.14 18.9825 L4339.14 33.8088 Q4340.92 33.2012 4342.7 32.9176 Q4344.48 32.5936 4346.27 32.5936 Q4356.39 32.5936 4362.31 38.1433 Q4368.22 43.6931 4368.22 53.1722 Q4368.22 62.9348 4362.15 68.3631 Q4356.07 73.7508 4345.01 73.7508 Q4341.2 73.7508 4337.23 73.1026 Q4333.3 72.4545 4329.09 71.1582 L4329.09 62.9348 Q4332.74 64.9198 4336.63 65.892 Q4340.51 66.8642 4344.85 66.8642 Q4351.86 66.8642 4355.95 63.1779 Q4360.04 59.4916 4360.04 53.1722 Q4360.04 46.8528 4355.95 43.1664 Q4351.86 39.4801 4344.85 39.4801 Q4341.57 39.4801 4338.29 40.2093 Q4335.05 40.9384 4331.64 42.4778 L4331.64 12.096 Z" fill="#000000" fill-rule="nonzero" fill-opacity="1" /><polyline clip-path="url(#clip072)" style="stroke:#0000ff; stroke-linecap:round; stroke-linejoin:round; stroke-width:8; stroke-opacity:1; fill:none" points="353.177,3657.45 435.651,3657.45 "/>
<polyline clip-path="url(#clip072)" style="stroke:#0000ff; stroke-linecap:round; stroke-linejoin:round; stroke-width:4; stroke-opacity:1; fill:none" stroke-dasharray="16, 10" points="435.651,3657.45 435.651,3657.45 "/>
<polyline clip-path="url(#clip072)" style="stroke:#0000ff; stroke-linecap:round; stroke-linejoin:round; stroke-width:8; stroke-opacity:1; fill:none" points="435.651,3657.45 744.488,3657.45 "/>
<polyline clip-path="url(#clip072)" style="stroke:#0000ff; stroke-linecap:round; stroke-linejoin:round; stroke-width:4; stroke-opacity:1; fill:none" stroke-dasharray="16, 10" points="744.488,3657.45 744.488,3657.45 "/>
<polyline clip-path="url(#clip072)" style="stroke:#0000ff; stroke-linecap:round; stroke-linejoin:round; stroke-width:8; stroke-opacity:1; fill:none" points="744.488,3657.45 794.986,3657.45 "/>
<polyline clip-path="url(#clip072)" style="stroke:#0000ff; stroke-linecap:round; stroke-linejoin:round; stroke-width:4; stroke-opacity:1; fill:none" stroke-dasharray="16, 10" points="794.986,3657.45 794.986,3657.45 "/>
<polyline clip-path="url(#clip072)" style="stroke:#0000ff; stroke-linecap:round; stroke-linejoin:round; stroke-width:8; stroke-opacity:1; fill:none" points="794.986,3657.45 886.101,3657.45 "/>
<polyline clip-path="url(#clip072)" style="stroke:#0000ff; stroke-linecap:round; stroke-linejoin:round; stroke-width:4; stroke-opacity:1; fill:none" stroke-dasharray="16, 10" points="886.101,3657.45 886.101,3657.45 "/>
<polyline clip-path="url(#clip072)" style="stroke:#0000ff; stroke-linecap:round; stroke-linejoin:round; stroke-width:8; stroke-opacity:1; fill:none" points="886.101,3657.45 889.208,3657.45 "/>
<polyline clip-path="url(#clip072)" style="stroke:#0000ff; stroke-linecap:round; stroke-linejoin:round; stroke-width:4; stroke-opacity:1; fill:none" stroke-dasharray="16, 10" points="889.208,3657.45 889.208,3657.45 "/>
<polyline clip-path="url(#clip072)" style="stroke:#0000ff; stroke-linecap:round; stroke-linejoin:round; stroke-width:8; stroke-opacity:1; fill:none" points="889.208,3657.45 934.956,3657.45 "/>
<polyline clip-path="url(#clip072)" style="stroke:#0000ff; stroke-linecap:round; stroke-linejoin:round; stroke-width:4; stroke-opacity:1; fill:none" stroke-dasharray="16, 10" points="934.956,3657.45 934.956,3657.45 "/>
<polyline clip-path="url(#clip072)" style="stroke:#0000ff; stroke-linecap:round; stroke-linejoin:round; stroke-width:8; stroke-opacity:1; fill:none" points="934.956,3657.45 976.916,3657.45 "/>
<polyline clip-path="url(#clip072)" style="stroke:#0000ff; stroke-linecap:round; stroke-linejoin:round; stroke-width:4; stroke-opacity:1; fill:none" stroke-dasharray="16, 10" points="976.916,3657.45 976.916,3657.45 "/>
<polyline clip-path="url(#clip072)" style="stroke:#0000ff; stroke-linecap:round; stroke-linejoin:round; stroke-width:8; stroke-opacity:1; fill:none" points="976.916,3657.45 1085.24,3657.45 "/>
<polyline clip-path="url(#clip072)" style="stroke:#0000ff; stroke-linecap:round; stroke-linejoin:round; stroke-width:4; stroke-opacity:1; fill:none" stroke-dasharray="16, 10" points="1085.24,3657.45 1085.24,3657.45 "/>
<polyline clip-path="url(#clip072)" style="stroke:#0000ff; stroke-linecap:round; stroke-linejoin:round; stroke-width:8; stroke-opacity:1; fill:none" points="1085.24,3657.45 1091.05,3657.45 "/>
<polyline clip-path="url(#clip072)" style="stroke:#0000ff; stroke-linecap:round; stroke-linejoin:round; stroke-width:4; stroke-opacity:1; fill:none" stroke-dasharray="16, 10" points="1091.05,3657.45 1091.05,3657.45 "/>
<polyline clip-path="url(#clip072)" style="stroke:#0000ff; stroke-linecap:round; stroke-linejoin:round; stroke-width:8; stroke-opacity:1; fill:none" points="1091.05,3657.45 1136.45,3657.45 "/>
<polyline clip-path="url(#clip072)" style="stroke:#0000ff; stroke-linecap:round; stroke-linejoin:round; stroke-width:4; stroke-opacity:1; fill:none" stroke-dasharray="16, 10" points="1136.45,3657.45 1136.45,3657.45 "/>
<polyline clip-path="url(#clip072)" style="stroke:#0000ff; stroke-linecap:round; stroke-linejoin:round; stroke-width:8; stroke-opacity:1; fill:none" points="1136.45,3657.45 1309.29,3657.45 "/>
<polyline clip-path="url(#clip072)" style="stroke:#0000ff; stroke-linecap:round; stroke-linejoin:round; stroke-width:4; stroke-opacity:1; fill:none" stroke-dasharray="16, 10" points="1309.29,3657.45 1309.29,3657.45 "/>
<polyline clip-path="url(#clip072)" style="stroke:#0000ff; stroke-linecap:round; stroke-linejoin:round; stroke-width:8; stroke-opacity:1; fill:none" points="1309.29,3657.45 1494.42,3657.45 "/>
<polyline clip-path="url(#clip072)" style="stroke:#0000ff; stroke-linecap:round; stroke-linejoin:round; stroke-width:4; stroke-opacity:1; fill:none" stroke-dasharray="16, 10" points="1494.42,3657.45 1494.42,3657.45 "/>
<polyline clip-path="url(#clip072)" style="stroke:#0000ff; stroke-linecap:round; stroke-linejoin:round; stroke-width:8; stroke-opacity:1; fill:none" points="1494.42,3657.45 1508.85,3657.45 "/>
<polyline clip-path="url(#clip072)" style="stroke:#0000ff; stroke-linecap:round; stroke-linejoin:round; stroke-width:4; stroke-opacity:1; fill:none" stroke-dasharray="16, 10" points="1508.85,3657.45 1508.85,3657.45 "/>
<polyline clip-path="url(#clip072)" style="stroke:#0000ff; stroke-linecap:round; stroke-linejoin:round; stroke-width:8; stroke-opacity:1; fill:none" points="1508.85,3657.45 1801.51,3657.45 "/>
<polyline clip-path="url(#clip072)" style="stroke:#0000ff; stroke-linecap:round; stroke-linejoin:round; stroke-width:4; stroke-opacity:1; fill:none" stroke-dasharray="16, 10" points="1801.51,3657.45 1801.51,3657.45 "/>
<polyline clip-path="url(#clip072)" style="stroke:#0000ff; stroke-linecap:round; stroke-linejoin:round; stroke-width:8; stroke-opacity:1; fill:none" points="1801.51,3657.45 1883.26,3657.45 "/>
<polyline clip-path="url(#clip072)" style="stroke:#0000ff; stroke-linecap:round; stroke-linejoin:round; stroke-width:4; stroke-opacity:1; fill:none" stroke-dasharray="16, 10" points="1883.26,3657.45 1883.26,3657.45 "/>
<polyline clip-path="url(#clip072)" style="stroke:#0000ff; stroke-linecap:round; stroke-linejoin:round; stroke-width:8; stroke-opacity:1; fill:none" points="1883.26,3657.45 1909.21,3657.45 "/>
<polyline clip-path="url(#clip072)" style="stroke:#0000ff; stroke-linecap:round; stroke-linejoin:round; stroke-width:4; stroke-opacity:1; fill:none" stroke-dasharray="16, 10" points="1909.21,3657.45 1909.21,3657.45 "/>
<polyline clip-path="url(#clip072)" style="stroke:#0000ff; stroke-linecap:round; stroke-linejoin:round; stroke-width:8; stroke-opacity:1; fill:none" points="1909.21,3657.45 1962.64,3657.45 "/>
<polyline clip-path="url(#clip072)" style="stroke:#0000ff; stroke-linecap:round; stroke-linejoin:round; stroke-width:4; stroke-opacity:1; fill:none" stroke-dasharray="16, 10" points="1962.64,3657.45 1962.64,3657.45 "/>
<polyline clip-path="url(#clip072)" style="stroke:#0000ff; stroke-linecap:round; stroke-linejoin:round; stroke-width:8; stroke-opacity:1; fill:none" points="1962.64,3657.45 2046.19,3657.45 "/>
<polyline clip-path="url(#clip072)" style="stroke:#0000ff; stroke-linecap:round; stroke-linejoin:round; stroke-width:4; stroke-opacity:1; fill:none" stroke-dasharray="16, 10" points="2046.19,3657.45 2046.19,3657.45 "/>
<polyline clip-path="url(#clip072)" style="stroke:#0000ff; stroke-linecap:round; stroke-linejoin:round; stroke-width:8; stroke-opacity:1; fill:none" points="2046.19,3657.45 2072.55,3657.45 "/>
<polyline clip-path="url(#clip072)" style="stroke:#0000ff; stroke-linecap:round; stroke-linejoin:round; stroke-width:4; stroke-opacity:1; fill:none" stroke-dasharray="16, 10" points="2072.55,3657.45 2072.55,3657.45 "/>
<polyline clip-path="url(#clip072)" style="stroke:#0000ff; stroke-linecap:round; stroke-linejoin:round; stroke-width:8; stroke-opacity:1; fill:none" points="2072.55,3657.45 2076.12,3657.45 "/>
<polyline clip-path="url(#clip072)" style="stroke:#0000ff; stroke-linecap:round; stroke-linejoin:round; stroke-width:4; stroke-opacity:1; fill:none" stroke-dasharray="16, 10" points="2076.12,3657.45 2076.12,3657.45 "/>
<polyline clip-path="url(#clip072)" style="stroke:#0000ff; stroke-linecap:round; stroke-linejoin:round; stroke-width:8; stroke-opacity:1; fill:none" points="2076.12,3657.45 2299.24,3657.45 "/>
<polyline clip-path="url(#clip072)" style="stroke:#0000ff; stroke-linecap:round; stroke-linejoin:round; stroke-width:4; stroke-opacity:1; fill:none" stroke-dasharray="16, 10" points="2299.24,3657.45 2299.24,3657.45 "/>
<polyline clip-path="url(#clip072)" style="stroke:#0000ff; stroke-linecap:round; stroke-linejoin:round; stroke-width:8; stroke-opacity:1; fill:none" points="2299.24,3657.45 2496.9,3657.45 "/>
<polyline clip-path="url(#clip072)" style="stroke:#0000ff; stroke-linecap:round; stroke-linejoin:round; stroke-width:4; stroke-opacity:1; fill:none" stroke-dasharray="16, 10" points="2496.9,3657.45 2496.9,2773.95 "/>
<polyline clip-path="url(#clip072)" style="stroke:#0000ff; stroke-linecap:round; stroke-linejoin:round; stroke-width:8; stroke-opacity:1; fill:none" points="2496.9,2773.95 3114.22,2773.95 "/>
<polyline clip-path="url(#clip072)" style="stroke:#0000ff; stroke-linecap:round; stroke-linejoin:round; stroke-width:4; stroke-opacity:1; fill:none" stroke-dasharray="16, 10" points="3114.22,2773.95 3114.22,2773.95 "/>
<polyline clip-path="url(#clip072)" style="stroke:#0000ff; stroke-linecap:round; stroke-linejoin:round; stroke-width:8; stroke-opacity:1; fill:none" points="3114.22,2773.95 3463.82,2773.95 "/>
<polyline clip-path="url(#clip072)" style="stroke:#0000ff; stroke-linecap:round; stroke-linejoin:round; stroke-width:4; stroke-opacity:1; fill:none" stroke-dasharray="16, 10" points="3463.82,2773.95 3463.82,2773.95 "/>
<polyline clip-path="url(#clip072)" style="stroke:#0000ff; stroke-linecap:round; stroke-linejoin:round; stroke-width:8; stroke-opacity:1; fill:none" points="3463.82,2773.95 3496.29,2773.95 "/>
<polyline clip-path="url(#clip072)" style="stroke:#0000ff; stroke-linecap:round; stroke-linejoin:round; stroke-width:4; stroke-opacity:1; fill:none" stroke-dasharray="16, 10" points="3496.29,2773.95 3496.29,1890.46 "/>
<polyline clip-path="url(#clip072)" style="stroke:#0000ff; stroke-linecap:round; stroke-linejoin:round; stroke-width:8; stroke-opacity:1; fill:none" points="3496.29,1890.46 3600.1,1890.46 "/>
<polyline clip-path="url(#clip072)" style="stroke:#0000ff; stroke-linecap:round; stroke-linejoin:round; stroke-width:4; stroke-opacity:1; fill:none" stroke-dasharray="16, 10" points="3600.1,1890.46 3600.1,1890.46 "/>
<polyline clip-path="url(#clip072)" style="stroke:#0000ff; stroke-linecap:round; stroke-linejoin:round; stroke-width:8; stroke-opacity:1; fill:none" points="3600.1,1890.46 4033.48,1890.46 "/>
<polyline clip-path="url(#clip072)" style="stroke:#0000ff; stroke-linecap:round; stroke-linejoin:round; stroke-width:4; stroke-opacity:1; fill:none" stroke-dasharray="16, 10" points="4033.48,1890.46 4033.48,1006.97 "/>
<polyline clip-path="url(#clip072)" style="stroke:#0000ff; stroke-linecap:round; stroke-linejoin:round; stroke-width:8; stroke-opacity:1; fill:none" points="4033.48,1006.97 4359.03,1006.97 "/>
<polyline clip-path="url(#clip072)" style="stroke:#0000ff; stroke-linecap:round; stroke-linejoin:round; stroke-width:4; stroke-opacity:1; fill:none" stroke-dasharray="16, 10" points="4359.03,1006.97 4359.03,1006.97 "/>
<polyline clip-path="url(#clip072)" style="stroke:#0000ff; stroke-linecap:round; stroke-linejoin:round; stroke-width:8; stroke-opacity:1; fill:none" points="4359.03,1006.97 4474.34,1006.97 "/>
<polyline clip-path="url(#clip072)" style="stroke:#0000ff; stroke-linecap:round; stroke-linejoin:round; stroke-width:4; stroke-opacity:1; fill:none" stroke-dasharray="16, 10" points="4474.34,1006.97 4474.34,1006.97 "/>
<polyline clip-path="url(#clip072)" style="stroke:#0000ff; stroke-linecap:round; stroke-linejoin:round; stroke-width:8; stroke-opacity:1; fill:none" points="4474.34,1006.97 4566.15,1006.97 "/>
<polyline clip-path="url(#clip072)" style="stroke:#0000ff; stroke-linecap:round; stroke-linejoin:round; stroke-width:4; stroke-opacity:1; fill:none" stroke-dasharray="16, 10" points="4566.15,1006.97 4566.15,1006.97 "/>
<polyline clip-path="url(#clip072)" style="stroke:#0000ff; stroke-linecap:round; stroke-linejoin:round; stroke-width:8; stroke-opacity:1; fill:none" points="4566.15,1006.97 4930.51,1006.97 "/>
<polyline clip-path="url(#clip072)" style="stroke:#0000ff; stroke-linecap:round; stroke-linejoin:round; stroke-width:4; stroke-opacity:1; fill:none" stroke-dasharray="16, 10" points="4930.51,1006.97 4930.51,1006.97 "/>
<polyline clip-path="url(#clip072)" style="stroke:#0000ff; stroke-linecap:round; stroke-linejoin:round; stroke-width:8; stroke-opacity:1; fill:none" points="4930.51,1006.97 5178.31,1006.97 "/>
<polyline clip-path="url(#clip072)" style="stroke:#0000ff; stroke-linecap:round; stroke-linejoin:round; stroke-width:4; stroke-opacity:1; fill:none" stroke-dasharray="16, 10" points="5178.31,1006.97 5178.31,1006.97 "/>
<polyline clip-path="url(#clip072)" style="stroke:#0000ff; stroke-linecap:round; stroke-linejoin:round; stroke-width:8; stroke-opacity:1; fill:none" points="5178.31,1006.97 5185.78,1006.97 "/>
<polyline clip-path="url(#clip072)" style="stroke:#0000ff; stroke-linecap:round; stroke-linejoin:round; stroke-width:4; stroke-opacity:1; fill:none" stroke-dasharray="16, 10" points="5185.78,1006.97 5185.78,1890.46 "/>
<polyline clip-path="url(#clip072)" style="stroke:#0000ff; stroke-linecap:round; stroke-linejoin:round; stroke-width:8; stroke-opacity:1; fill:none" points="5185.78,1890.46 5198.6,1890.46 "/>
<polyline clip-path="url(#clip072)" style="stroke:#0000ff; stroke-linecap:round; stroke-linejoin:round; stroke-width:4; stroke-opacity:1; fill:none" stroke-dasharray="16, 10" points="5198.6,1890.46 5198.6,2773.95 "/>
<polyline clip-path="url(#clip072)" style="stroke:#0000ff; stroke-linecap:round; stroke-linejoin:round; stroke-width:8; stroke-opacity:1; fill:none" points="5198.6,2773.95 5521.33,2773.95 "/>
<polyline clip-path="url(#clip072)" style="stroke:#0000ff; stroke-linecap:round; stroke-linejoin:round; stroke-width:4; stroke-opacity:1; fill:none" stroke-dasharray="16, 10" points="5521.33,2773.95 5521.33,3657.45 "/>
<polyline clip-path="url(#clip072)" style="stroke:#0000ff; stroke-linecap:round; stroke-linejoin:round; stroke-width:8; stroke-opacity:1; fill:none" points="5521.33,3657.45 5574.67,3657.45 "/>
<polyline clip-path="url(#clip072)" style="stroke:#0000ff; stroke-linecap:round; stroke-linejoin:round; stroke-width:4; stroke-opacity:1; fill:none" stroke-dasharray="16, 10" points="5574.67,3657.45 5574.67,3657.45 "/>
<polyline clip-path="url(#clip072)" style="stroke:#0000ff; stroke-linecap:round; stroke-linejoin:round; stroke-width:8; stroke-opacity:1; fill:none" points="5574.67,3657.45 5587.74,3657.45 "/>
<polyline clip-path="url(#clip072)" style="stroke:#0000ff; stroke-linecap:round; stroke-linejoin:round; stroke-width:4; stroke-opacity:1; fill:none" stroke-dasharray="16, 10" points="5587.74,3657.45 5587.74,3657.45 "/>
<polyline clip-path="url(#clip072)" style="stroke:#0000ff; stroke-linecap:round; stroke-linejoin:round; stroke-width:8; stroke-opacity:1; fill:none" points="5587.74,3657.45 5615.96,3657.45 "/>
<polyline clip-path="url(#clip072)" style="stroke:#0000ff; stroke-linecap:round; stroke-linejoin:round; stroke-width:4; stroke-opacity:1; fill:none" stroke-dasharray="16, 10" points="5615.96,3657.45 5615.96,3657.45 "/>
<polyline clip-path="url(#clip072)" style="stroke:#0000ff; stroke-linecap:round; stroke-linejoin:round; stroke-width:8; stroke-opacity:1; fill:none" points="5615.96,3657.45 5624.26,3657.45 "/>
<polyline clip-path="url(#clip072)" style="stroke:#0000ff; stroke-linecap:round; stroke-linejoin:round; stroke-width:4; stroke-opacity:1; fill:none" stroke-dasharray="16, 10" points="5624.26,3657.45 5624.26,3657.45 "/>
<polyline clip-path="url(#clip072)" style="stroke:#0000ff; stroke-linecap:round; stroke-linejoin:round; stroke-width:8; stroke-opacity:1; fill:none" points="5624.26,3657.45 5652.95,3657.45 "/>
<polyline clip-path="url(#clip072)" style="stroke:#0000ff; stroke-linecap:round; stroke-linejoin:round; stroke-width:4; stroke-opacity:1; fill:none" stroke-dasharray="16, 10" points="5652.95,3657.45 5652.95,3657.45 "/>
<polyline clip-path="url(#clip072)" style="stroke:#0000ff; stroke-linecap:round; stroke-linejoin:round; stroke-width:8; stroke-opacity:1; fill:none" points="5652.95,3657.45 5664,3657.45 "/>
<polyline clip-path="url(#clip072)" style="stroke:#0000ff; stroke-linecap:round; stroke-linejoin:round; stroke-width:4; stroke-opacity:1; fill:none" stroke-dasharray="16, 10" points="5664,3657.45 5664,3657.45 "/>
<polyline clip-path="url(#clip072)" style="stroke:#0000ff; stroke-linecap:round; stroke-linejoin:round; stroke-width:8; stroke-opacity:1; fill:none" points="5664,3657.45 5699.51,3657.45 "/>
<polyline clip-path="url(#clip072)" style="stroke:#0000ff; stroke-linecap:round; stroke-linejoin:round; stroke-width:4; stroke-opacity:1; fill:none" stroke-dasharray="16, 10" points="5699.51,3657.45 5699.51,3657.45 "/>
<polyline clip-path="url(#clip072)" style="stroke:#0000ff; stroke-linecap:round; stroke-linejoin:round; stroke-width:8; stroke-opacity:1; fill:none" points="5699.51,3657.45 5811.02,3657.45 "/>
<polyline clip-path="url(#clip072)" style="stroke:#ff0000; stroke-linecap:round; stroke-linejoin:round; stroke-width:8; stroke-opacity:1; fill:none" points="353.177,3657.45 435.651,3657.45 "/>
<polyline clip-path="url(#clip072)" style="stroke:#ff0000; stroke-linecap:round; stroke-linejoin:round; stroke-width:4; stroke-opacity:1; fill:none" stroke-dasharray="16, 10" points="435.651,3657.45 435.651,2773.95 "/>
<polyline clip-path="url(#clip072)" style="stroke:#ff0000; stroke-linecap:round; stroke-linejoin:round; stroke-width:8; stroke-opacity:1; fill:none" points="435.651,2773.95 744.488,2773.95 "/>
<polyline clip-path="url(#clip072)" style="stroke:#ff0000; stroke-linecap:round; stroke-linejoin:round; stroke-width:4; stroke-opacity:1; fill:none" stroke-dasharray="16, 10" points="744.488,2773.95 744.488,2773.95 "/>
<polyline clip-path="url(#clip072)" style="stroke:#ff0000; stroke-linecap:round; stroke-linejoin:round; stroke-width:8; stroke-opacity:1; fill:none" points="744.488,2773.95 794.986,2773.95 "/>
<polyline clip-path="url(#clip072)" style="stroke:#ff0000; stroke-linecap:round; stroke-linejoin:round; stroke-width:4; stroke-opacity:1; fill:none" stroke-dasharray="16, 10" points="794.986,2773.95 794.986,1890.46 "/>
<polyline clip-path="url(#clip072)" style="stroke:#ff0000; stroke-linecap:round; stroke-linejoin:round; stroke-width:8; stroke-opacity:1; fill:none" points="794.986,1890.46 886.101,1890.46 "/>
<polyline clip-path="url(#clip072)" style="stroke:#ff0000; stroke-linecap:round; stroke-linejoin:round; stroke-width:4; stroke-opacity:1; fill:none" stroke-dasharray="16, 10" points="886.101,1890.46 886.101,1006.97 "/>
<polyline clip-path="url(#clip072)" style="stroke:#ff0000; stroke-linecap:round; stroke-linejoin:round; stroke-width:8; stroke-opacity:1; fill:none" points="886.101,1006.97 889.208,1006.97 "/>
<polyline clip-path="url(#clip072)" style="stroke:#ff0000; stroke-linecap:round; stroke-linejoin:round; stroke-width:4; stroke-opacity:1; fill:none" stroke-dasharray="16, 10" points="889.208,1006.97 889.208,123.472 "/>
<polyline clip-path="url(#clip072)" style="stroke:#ff0000; stroke-linecap:round; stroke-linejoin:round; stroke-width:8; stroke-opacity:1; fill:none" points="889.208,123.472 934.956,123.472 "/>
<polyline clip-path="url(#clip072)" style="stroke:#ff0000; stroke-linecap:round; stroke-linejoin:round; stroke-width:4; stroke-opacity:1; fill:none" stroke-dasharray="16, 10" points="934.956,123.472 934.956,1006.97 "/>
<polyline clip-path="url(#clip072)" style="stroke:#ff0000; stroke-linecap:round; stroke-linejoin:round; stroke-width:8; stroke-opacity:1; fill:none" points="934.956,1006.97 976.916,1006.97 "/>
<polyline clip-path="url(#clip072)" style="stroke:#ff0000; stroke-linecap:round; stroke-linejoin:round; stroke-width:4; stroke-opacity:1; fill:none" stroke-dasharray="16, 10" points="976.916,1006.97 976.916,1006.97 "/>
<polyline clip-path="url(#clip072)" style="stroke:#ff0000; stroke-linecap:round; stroke-linejoin:round; stroke-width:8; stroke-opacity:1; fill:none" points="976.916,1006.97 1085.24,1006.97 "/>
<polyline clip-path="url(#clip072)" style="stroke:#ff0000; stroke-linecap:round; stroke-linejoin:round; stroke-width:4; stroke-opacity:1; fill:none" stroke-dasharray="16, 10" points="1085.24,1006.97 1085.24,1006.97 "/>
<polyline clip-path="url(#clip072)" style="stroke:#ff0000; stroke-linecap:round; stroke-linejoin:round; stroke-width:8; stroke-opacity:1; fill:none" points="1085.24,1006.97 1091.05,1006.97 "/>
<polyline clip-path="url(#clip072)" style="stroke:#ff0000; stroke-linecap:round; stroke-linejoin:round; stroke-width:4; stroke-opacity:1; fill:none" stroke-dasharray="16, 10" points="1091.05,1006.97 1091.05,1006.97 "/>
<polyline clip-path="url(#clip072)" style="stroke:#ff0000; stroke-linecap:round; stroke-linejoin:round; stroke-width:8; stroke-opacity:1; fill:none" points="1091.05,1006.97 1136.45,1006.97 "/>
<polyline clip-path="url(#clip072)" style="stroke:#ff0000; stroke-linecap:round; stroke-linejoin:round; stroke-width:4; stroke-opacity:1; fill:none" stroke-dasharray="16, 10" points="1136.45,1006.97 1136.45,123.472 "/>
<polyline clip-path="url(#clip072)" style="stroke:#ff0000; stroke-linecap:round; stroke-linejoin:round; stroke-width:8; stroke-opacity:1; fill:none" points="1136.45,123.472 1309.29,123.472 "/>
<polyline clip-path="url(#clip072)" style="stroke:#ff0000; stroke-linecap:round; stroke-linejoin:round; stroke-width:4; stroke-opacity:1; fill:none" stroke-dasharray="16, 10" points="1309.29,123.472 1309.29,1006.97 "/>
<polyline clip-path="url(#clip072)" style="stroke:#ff0000; stroke-linecap:round; stroke-linejoin:round; stroke-width:8; stroke-opacity:1; fill:none" points="1309.29,1006.97 1494.42,1006.97 "/>
<polyline clip-path="url(#clip072)" style="stroke:#ff0000; stroke-linecap:round; stroke-linejoin:round; stroke-width:4; stroke-opacity:1; fill:none" stroke-dasharray="16, 10" points="1494.42,1006.97 1494.42,1006.97 "/>
<polyline clip-path="url(#clip072)" style="stroke:#ff0000; stroke-linecap:round; stroke-linejoin:round; stroke-width:8; stroke-opacity:1; fill:none" points="1494.42,1006.97 1508.85,1006.97 "/>
<polyline clip-path="url(#clip072)" style="stroke:#ff0000; stroke-linecap:round; stroke-linejoin:round; stroke-width:4; stroke-opacity:1; fill:none" stroke-dasharray="16, 10" points="1508.85,1006.97 1508.85,1006.97 "/>
<polyline clip-path="url(#clip072)" style="stroke:#ff0000; stroke-linecap:round; stroke-linejoin:round; stroke-width:8; stroke-opacity:1; fill:none" points="1508.85,1006.97 1801.51,1006.97 "/>
<polyline clip-path="url(#clip072)" style="stroke:#ff0000; stroke-linecap:round; stroke-linejoin:round; stroke-width:4; stroke-opacity:1; fill:none" stroke-dasharray="16, 10" points="1801.51,1006.97 1801.51,1006.97 "/>
<polyline clip-path="url(#clip072)" style="stroke:#ff0000; stroke-linecap:round; stroke-linejoin:round; stroke-width:8; stroke-opacity:1; fill:none" points="1801.51,1006.97 1883.26,1006.97 "/>
<polyline clip-path="url(#clip072)" style="stroke:#ff0000; stroke-linecap:round; stroke-linejoin:round; stroke-width:4; stroke-opacity:1; fill:none" stroke-dasharray="16, 10" points="1883.26,1006.97 1883.26,123.472 "/>
<polyline clip-path="url(#clip072)" style="stroke:#ff0000; stroke-linecap:round; stroke-linejoin:round; stroke-width:8; stroke-opacity:1; fill:none" points="1883.26,123.472 1909.21,123.472 "/>
<polyline clip-path="url(#clip072)" style="stroke:#ff0000; stroke-linecap:round; stroke-linejoin:round; stroke-width:4; stroke-opacity:1; fill:none" stroke-dasharray="16, 10" points="1909.21,123.472 1909.21,1006.97 "/>
<polyline clip-path="url(#clip072)" style="stroke:#ff0000; stroke-linecap:round; stroke-linejoin:round; stroke-width:8; stroke-opacity:1; fill:none" points="1909.21,1006.97 1962.64,1006.97 "/>
<polyline clip-path="url(#clip072)" style="stroke:#ff0000; stroke-linecap:round; stroke-linejoin:round; stroke-width:4; stroke-opacity:1; fill:none" stroke-dasharray="16, 10" points="1962.64,1006.97 1962.64,123.472 "/>
<polyline clip-path="url(#clip072)" style="stroke:#ff0000; stroke-linecap:round; stroke-linejoin:round; stroke-width:8; stroke-opacity:1; fill:none" points="1962.64,123.472 2046.19,123.472 "/>
<polyline clip-path="url(#clip072)" style="stroke:#ff0000; stroke-linecap:round; stroke-linejoin:round; stroke-width:4; stroke-opacity:1; fill:none" stroke-dasharray="16, 10" points="2046.19,123.472 2046.19,1006.97 "/>
<polyline clip-path="url(#clip072)" style="stroke:#ff0000; stroke-linecap:round; stroke-linejoin:round; stroke-width:8; stroke-opacity:1; fill:none" points="2046.19,1006.97 2072.55,1006.97 "/>
<polyline clip-path="url(#clip072)" style="stroke:#ff0000; stroke-linecap:round; stroke-linejoin:round; stroke-width:4; stroke-opacity:1; fill:none" stroke-dasharray="16, 10" points="2072.55,1006.97 2072.55,123.472 "/>
<polyline clip-path="url(#clip072)" style="stroke:#ff0000; stroke-linecap:round; stroke-linejoin:round; stroke-width:8; stroke-opacity:1; fill:none" points="2072.55,123.472 2076.12,123.472 "/>
<polyline clip-path="url(#clip072)" style="stroke:#ff0000; stroke-linecap:round; stroke-linejoin:round; stroke-width:4; stroke-opacity:1; fill:none" stroke-dasharray="16, 10" points="2076.12,123.472 2076.12,123.472 "/>
<polyline clip-path="url(#clip072)" style="stroke:#ff0000; stroke-linecap:round; stroke-linejoin:round; stroke-width:8; stroke-opacity:1; fill:none" points="2076.12,123.472 2299.24,123.472 "/>
<polyline clip-path="url(#clip072)" style="stroke:#ff0000; stroke-linecap:round; stroke-linejoin:round; stroke-width:4; stroke-opacity:1; fill:none" stroke-dasharray="16, 10" points="2299.24,123.472 2299.24,1006.97 "/>
<polyline clip-path="url(#clip072)" style="stroke:#ff0000; stroke-linecap:round; stroke-linejoin:round; stroke-width:8; stroke-opacity:1; fill:none" points="2299.24,1006.97 2496.9,1006.97 "/>
<polyline clip-path="url(#clip072)" style="stroke:#ff0000; stroke-linecap:round; stroke-linejoin:round; stroke-width:4; stroke-opacity:1; fill:none" stroke-dasharray="16, 10" points="2496.9,1006.97 2496.9,1006.97 "/>
<polyline clip-path="url(#clip072)" style="stroke:#ff0000; stroke-linecap:round; stroke-linejoin:round; stroke-width:8; stroke-opacity:1; fill:none" points="2496.9,1006.97 3114.22,1006.97 "/>
<polyline clip-path="url(#clip072)" style="stroke:#ff0000; stroke-linecap:round; stroke-linejoin:round; stroke-width:4; stroke-opacity:1; fill:none" stroke-dasharray="16, 10" points="3114.22,1006.97 3114.22,1006.97 "/>
<polyline clip-path="url(#clip072)" style="stroke:#ff0000; stroke-linecap:round; stroke-linejoin:round; stroke-width:8; stroke-opacity:1; fill:none" points="3114.22,1006.97 3463.82,1006.97 "/>
<polyline clip-path="url(#clip072)" style="stroke:#ff0000; stroke-linecap:round; stroke-linejoin:round; stroke-width:4; stroke-opacity:1; fill:none" stroke-dasharray="16, 10" points="3463.82,1006.97 3463.82,1890.46 "/>
<polyline clip-path="url(#clip072)" style="stroke:#ff0000; stroke-linecap:round; stroke-linejoin:round; stroke-width:8; stroke-opacity:1; fill:none" points="3463.82,1890.46 3496.29,1890.46 "/>
<polyline clip-path="url(#clip072)" style="stroke:#ff0000; stroke-linecap:round; stroke-linejoin:round; stroke-width:4; stroke-opacity:1; fill:none" stroke-dasharray="16, 10" points="3496.29,1890.46 3496.29,1890.46 "/>
<polyline clip-path="url(#clip072)" style="stroke:#ff0000; stroke-linecap:round; stroke-linejoin:round; stroke-width:8; stroke-opacity:1; fill:none" points="3496.29,1890.46 3600.1,1890.46 "/>
<polyline clip-path="url(#clip072)" style="stroke:#ff0000; stroke-linecap:round; stroke-linejoin:round; stroke-width:4; stroke-opacity:1; fill:none" stroke-dasharray="16, 10" points="3600.1,1890.46 3600.1,1890.46 "/>
<polyline clip-path="url(#clip072)" style="stroke:#ff0000; stroke-linecap:round; stroke-linejoin:round; stroke-width:8; stroke-opacity:1; fill:none" points="3600.1,1890.46 4033.48,1890.46 "/>
<polyline clip-path="url(#clip072)" style="stroke:#ff0000; stroke-linecap:round; stroke-linejoin:round; stroke-width:4; stroke-opacity:1; fill:none" stroke-dasharray="16, 10" points="4033.48,1890.46 4033.48,1890.46 "/>
<polyline clip-path="url(#clip072)" style="stroke:#ff0000; stroke-linecap:round; stroke-linejoin:round; stroke-width:8; stroke-opacity:1; fill:none" points="4033.48,1890.46 4359.03,1890.46 "/>
<polyline clip-path="url(#clip072)" style="stroke:#ff0000; stroke-linecap:round; stroke-linejoin:round; stroke-width:4; stroke-opacity:1; fill:none" stroke-dasharray="16, 10" points="4359.03,1890.46 4359.03,1006.97 "/>
<polyline clip-path="url(#clip072)" style="stroke:#ff0000; stroke-linecap:round; stroke-linejoin:round; stroke-width:8; stroke-opacity:1; fill:none" points="4359.03,1006.97 4474.34,1006.97 "/>
<polyline clip-path="url(#clip072)" style="stroke:#ff0000; stroke-linecap:round; stroke-linejoin:round; stroke-width:4; stroke-opacity:1; fill:none" stroke-dasharray="16, 10" points="4474.34,1006.97 4474.34,1006.97 "/>
<polyline clip-path="url(#clip072)" style="stroke:#ff0000; stroke-linecap:round; stroke-linejoin:round; stroke-width:8; stroke-opacity:1; fill:none" points="4474.34,1006.97 4566.15,1006.97 "/>
<polyline clip-path="url(#clip072)" style="stroke:#ff0000; stroke-linecap:round; stroke-linejoin:round; stroke-width:4; stroke-opacity:1; fill:none" stroke-dasharray="16, 10" points="4566.15,1006.97 4566.15,1006.97 "/>
<polyline clip-path="url(#clip072)" style="stroke:#ff0000; stroke-linecap:round; stroke-linejoin:round; stroke-width:8; stroke-opacity:1; fill:none" points="4566.15,1006.97 4930.51,1006.97 "/>
<polyline clip-path="url(#clip072)" style="stroke:#ff0000; stroke-linecap:round; stroke-linejoin:round; stroke-width:4; stroke-opacity:1; fill:none" stroke-dasharray="16, 10" points="4930.51,1006.97 4930.51,1890.46 "/>
<polyline clip-path="url(#clip072)" style="stroke:#ff0000; stroke-linecap:round; stroke-linejoin:round; stroke-width:8; stroke-opacity:1; fill:none" points="4930.51,1890.46 5178.31,1890.46 "/>
<polyline clip-path="url(#clip072)" style="stroke:#ff0000; stroke-linecap:round; stroke-linejoin:round; stroke-width:4; stroke-opacity:1; fill:none" stroke-dasharray="16, 10" points="5178.31,1890.46 5178.31,2773.95 "/>
<polyline clip-path="url(#clip072)" style="stroke:#ff0000; stroke-linecap:round; stroke-linejoin:round; stroke-width:8; stroke-opacity:1; fill:none" points="5178.31,2773.95 5185.78,2773.95 "/>
<polyline clip-path="url(#clip072)" style="stroke:#ff0000; stroke-linecap:round; stroke-linejoin:round; stroke-width:4; stroke-opacity:1; fill:none" stroke-dasharray="16, 10" points="5185.78,2773.95 5185.78,2773.95 "/>
<polyline clip-path="url(#clip072)" style="stroke:#ff0000; stroke-linecap:round; stroke-linejoin:round; stroke-width:8; stroke-opacity:1; fill:none" points="5185.78,2773.95 5198.6,2773.95 "/>
<polyline clip-path="url(#clip072)" style="stroke:#ff0000; stroke-linecap:round; stroke-linejoin:round; stroke-width:4; stroke-opacity:1; fill:none" stroke-dasharray="16, 10" points="5198.6,2773.95 5198.6,2773.95 "/>
<polyline clip-path="url(#clip072)" style="stroke:#ff0000; stroke-linecap:round; stroke-linejoin:round; stroke-width:8; stroke-opacity:1; fill:none" points="5198.6,2773.95 5521.33,2773.95 "/>
<polyline clip-path="url(#clip072)" style="stroke:#ff0000; stroke-linecap:round; stroke-linejoin:round; stroke-width:4; stroke-opacity:1; fill:none" stroke-dasharray="16, 10" points="5521.33,2773.95 5521.33,2773.95 "/>
<polyline clip-path="url(#clip072)" style="stroke:#ff0000; stroke-linecap:round; stroke-linejoin:round; stroke-width:8; stroke-opacity:1; fill:none" points="5521.33,2773.95 5574.67,2773.95 "/>
<polyline clip-path="url(#clip072)" style="stroke:#ff0000; stroke-linecap:round; stroke-linejoin:round; stroke-width:4; stroke-opacity:1; fill:none" stroke-dasharray="16, 10" points="5574.67,2773.95 5574.67,3657.45 "/>
<polyline clip-path="url(#clip072)" style="stroke:#ff0000; stroke-linecap:round; stroke-linejoin:round; stroke-width:8; stroke-opacity:1; fill:none" points="5574.67,3657.45 5587.74,3657.45 "/>
<polyline clip-path="url(#clip072)" style="stroke:#ff0000; stroke-linecap:round; stroke-linejoin:round; stroke-width:4; stroke-opacity:1; fill:none" stroke-dasharray="16, 10" points="5587.74,3657.45 5587.74,3657.45 "/>
<polyline clip-path="url(#clip072)" style="stroke:#ff0000; stroke-linecap:round; stroke-linejoin:round; stroke-width:8; stroke-opacity:1; fill:none" points="5587.74,3657.45 5615.96,3657.45 "/>
<polyline clip-path="url(#clip072)" style="stroke:#ff0000; stroke-linecap:round; stroke-linejoin:round; stroke-width:4; stroke-opacity:1; fill:none" stroke-dasharray="16, 10" points="5615.96,3657.45 5615.96,2773.95 "/>
<polyline clip-path="url(#clip072)" style="stroke:#ff0000; stroke-linecap:round; stroke-linejoin:round; stroke-width:8; stroke-opacity:1; fill:none" points="5615.96,2773.95 5624.26,2773.95 "/>
<polyline clip-path="url(#clip072)" style="stroke:#ff0000; stroke-linecap:round; stroke-linejoin:round; stroke-width:4; stroke-opacity:1; fill:none" stroke-dasharray="16, 10" points="5624.26,2773.95 5624.26,1890.46 "/>
<polyline clip-path="url(#clip072)" style="stroke:#ff0000; stroke-linecap:round; stroke-linejoin:round; stroke-width:8; stroke-opacity:1; fill:none" points="5624.26,1890.46 5652.95,1890.46 "/>
<polyline clip-path="url(#clip072)" style="stroke:#ff0000; stroke-linecap:round; stroke-linejoin:round; stroke-width:4; stroke-opacity:1; fill:none" stroke-dasharray="16, 10" points="5652.95,1890.46 5652.95,1006.97 "/>
<polyline clip-path="url(#clip072)" style="stroke:#ff0000; stroke-linecap:round; stroke-linejoin:round; stroke-width:8; stroke-opacity:1; fill:none" points="5652.95,1006.97 5664,1006.97 "/>
<polyline clip-path="url(#clip072)" style="stroke:#ff0000; stroke-linecap:round; stroke-linejoin:round; stroke-width:4; stroke-opacity:1; fill:none" stroke-dasharray="16, 10" points="5664,1006.97 5664,123.472 "/>
<polyline clip-path="url(#clip072)" style="stroke:#ff0000; stroke-linecap:round; stroke-linejoin:round; stroke-width:8; stroke-opacity:1; fill:none" points="5664,123.472 5699.51,123.472 "/>
<polyline clip-path="url(#clip072)" style="stroke:#ff0000; stroke-linecap:round; stroke-linejoin:round; stroke-width:4; stroke-opacity:1; fill:none" stroke-dasharray="16, 10" points="5699.51,123.472 5699.51,1006.97 "/>
<polyline clip-path="url(#clip072)" style="stroke:#ff0000; stroke-linecap:round; stroke-linejoin:round; stroke-width:8; stroke-opacity:1; fill:none" points="5699.51,1006.97 5811.02,1006.97 "/>
<path clip-path="url(#clip070)" d="M4954.79 396.791 L5629.1 396.791 L5629.1 241.271 L4954.79 241.271  Z" fill="#ffffff" fill-rule="evenodd" fill-opacity="1"/>
<polyline clip-path="url(#clip070)" style="stroke:#000000; stroke-linecap:round; stroke-linejoin:round; stroke-width:4; stroke-opacity:1; fill:none" points="4954.79,396.791 5629.1,396.791 5629.1,241.271 4954.79,241.271 4954.79,396.791 "/>
<polyline clip-path="url(#clip070)" style="stroke:#0000ff; stroke-linecap:round; stroke-linejoin:round; stroke-width:8; stroke-opacity:1; fill:none" points="5015.44,293.111 5379.29,293.111 "/>
<path clip-path="url(#clip070)" d="M5467.81 278.493 L5467.81 283.424 Q5465.44 281.225 5462.76 280.137 Q5460.1 279.049 5457.09 279.049 Q5451.16 279.049 5448.01 282.683 Q5444.87 286.294 5444.87 293.146 Q5444.87 299.975 5448.01 303.609 Q5451.16 307.22 5457.09 307.22 Q5460.1 307.22 5462.76 306.132 Q5465.44 305.044 5467.81 302.845 L5467.81 307.729 Q5465.35 309.396 5462.6 310.229 Q5459.87 311.063 5456.81 311.063 Q5448.96 311.063 5444.45 306.271 Q5439.93 301.456 5439.93 293.146 Q5439.93 284.813 5444.45 280.021 Q5448.96 275.206 5456.81 275.206 Q5459.91 275.206 5462.64 276.04 Q5465.4 276.85 5467.81 278.493 Z" fill="#000000" fill-rule="nonzero" fill-opacity="1" /><path clip-path="url(#clip070)" d="M5497.02 296.364 L5497.02 298.447 L5477.43 298.447 Q5477.71 302.845 5480.07 305.16 Q5482.46 307.452 5486.69 307.452 Q5489.15 307.452 5491.44 306.85 Q5493.75 306.248 5496.02 305.044 L5496.02 309.072 Q5493.73 310.044 5491.32 310.553 Q5488.92 311.063 5486.44 311.063 Q5480.24 311.063 5476.6 307.452 Q5472.99 303.84 5472.99 297.683 Q5472.99 291.317 5476.42 287.591 Q5479.87 283.841 5485.7 283.841 Q5490.93 283.841 5493.96 287.22 Q5497.02 290.577 5497.02 296.364 M5492.76 295.114 Q5492.71 291.618 5490.79 289.535 Q5488.89 287.452 5485.74 287.452 Q5482.18 287.452 5480.03 289.465 Q5477.9 291.479 5477.57 295.137 L5492.76 295.114 Z" fill="#000000" fill-rule="nonzero" fill-opacity="1" /><path clip-path="url(#clip070)" d="M5504.01 274.373 L5508.27 274.373 L5508.27 310.391 L5504.01 310.391 L5504.01 274.373 Z" fill="#000000" fill-rule="nonzero" fill-opacity="1" /><path clip-path="url(#clip070)" d="M5517.18 274.373 L5521.44 274.373 L5521.44 310.391 L5517.18 310.391 L5517.18 274.373 Z" fill="#000000" fill-rule="nonzero" fill-opacity="1" /><path clip-path="url(#clip070)" d="M5557.2 297.359 Q5552.04 297.359 5550.05 298.54 Q5548.06 299.72 5548.06 302.567 Q5548.06 304.836 5549.54 306.178 Q5551.05 307.498 5553.61 307.498 Q5557.16 307.498 5559.29 304.998 Q5561.44 302.475 5561.44 298.308 L5561.44 297.359 L5557.2 297.359 M5565.7 295.6 L5565.7 310.391 L5561.44 310.391 L5561.44 306.456 Q5559.98 308.817 5557.8 309.951 Q5555.63 311.063 5552.48 311.063 Q5548.5 311.063 5546.14 308.84 Q5543.8 306.595 5543.8 302.845 Q5543.8 298.47 5546.72 296.248 Q5549.66 294.026 5555.47 294.026 L5561.44 294.026 L5561.44 293.609 Q5561.44 290.669 5559.49 289.072 Q5557.57 287.452 5554.08 287.452 Q5551.86 287.452 5549.75 287.984 Q5547.64 288.516 5545.7 289.581 L5545.7 285.646 Q5548.04 284.743 5550.24 284.303 Q5552.43 283.841 5554.52 283.841 Q5560.14 283.841 5562.92 286.757 Q5565.7 289.674 5565.7 295.6 Z" fill="#000000" fill-rule="nonzero" fill-opacity="1" /><polyline clip-path="url(#clip070)" style="stroke:#ff0000; stroke-linecap:round; stroke-linejoin:round; stroke-width:8; stroke-opacity:1; fill:none" points="5015.44,344.951 5379.29,344.951 "/>
<path clip-path="url(#clip070)" d="M5467.81 330.333 L5467.81 335.264 Q5465.44 333.065 5462.76 331.977 Q5460.1 330.889 5457.09 330.889 Q5451.16 330.889 5448.01 334.523 Q5444.87 338.134 5444.87 344.986 Q5444.87 351.815 5448.01 355.449 Q5451.16 359.06 5457.09 359.06 Q5460.1 359.06 5462.76 357.972 Q5465.44 356.884 5467.81 354.685 L5467.81 359.569 Q5465.35 361.236 5462.6 362.069 Q5459.87 362.903 5456.81 362.903 Q5448.96 362.903 5444.45 358.111 Q5439.93 353.296 5439.93 344.986 Q5439.93 336.653 5444.45 331.861 Q5448.96 327.046 5456.81 327.046 Q5459.91 327.046 5462.64 327.88 Q5465.4 328.69 5467.81 330.333 Z" fill="#000000" fill-rule="nonzero" fill-opacity="1" /><path clip-path="url(#clip070)" d="M5497.02 348.204 L5497.02 350.287 L5477.43 350.287 Q5477.71 354.685 5480.07 357 Q5482.46 359.292 5486.69 359.292 Q5489.15 359.292 5491.44 358.69 Q5493.75 358.088 5496.02 356.884 L5496.02 360.912 Q5493.73 361.884 5491.32 362.393 Q5488.92 362.903 5486.44 362.903 Q5480.24 362.903 5476.6 359.292 Q5472.99 355.68 5472.99 349.523 Q5472.99 343.157 5476.42 339.431 Q5479.87 335.681 5485.7 335.681 Q5490.93 335.681 5493.96 339.06 Q5497.02 342.417 5497.02 348.204 M5492.76 346.954 Q5492.71 343.458 5490.79 341.375 Q5488.89 339.292 5485.74 339.292 Q5482.18 339.292 5480.03 341.305 Q5477.9 343.319 5477.57 346.977 L5492.76 346.954 Z" fill="#000000" fill-rule="nonzero" fill-opacity="1" /><path clip-path="url(#clip070)" d="M5504.01 326.213 L5508.27 326.213 L5508.27 362.231 L5504.01 362.231 L5504.01 326.213 Z" fill="#000000" fill-rule="nonzero" fill-opacity="1" /><path clip-path="url(#clip070)" d="M5517.18 326.213 L5521.44 326.213 L5521.44 362.231 L5517.18 362.231 L5517.18 326.213 Z" fill="#000000" fill-rule="nonzero" fill-opacity="1" /><path clip-path="url(#clip070)" d="M5564.03 349.292 Q5564.03 344.593 5562.09 341.93 Q5560.17 339.245 5556.79 339.245 Q5553.41 339.245 5551.46 341.93 Q5549.54 344.593 5549.54 349.292 Q5549.54 353.991 5551.46 356.676 Q5553.41 359.338 5556.79 359.338 Q5560.17 359.338 5562.09 356.676 Q5564.03 353.991 5564.03 349.292 M5549.54 340.241 Q5550.88 337.926 5552.92 336.815 Q5554.98 335.681 5557.83 335.681 Q5562.55 335.681 5565.49 339.431 Q5568.45 343.18 5568.45 349.292 Q5568.45 355.403 5565.49 359.153 Q5562.55 362.903 5557.83 362.903 Q5554.98 362.903 5552.92 361.791 Q5550.88 360.657 5549.54 358.342 L5549.54 362.231 L5545.26 362.231 L5545.26 326.213 L5549.54 326.213 L5549.54 340.241 Z" fill="#000000" fill-rule="nonzero" fill-opacity="1" /></svg>
